<svg width="67" height="83" viewBox="0 0 67 83" fill="none" xmlns="http://www.w3.org/2000/svg">
<path d="M42.4416 2.95508C43.0467 3.00267 43.8452 3.21116 44.5148 3.50879C44.9206 3.68911 45.4311 3.96704 45.8703 4.38867C46.3184 4.81894 46.8332 5.54598 46.8332 6.5498C46.833 8.22052 45.5665 9.14241 44.9631 9.51953C44.8371 9.59823 44.6959 9.67642 44.55 9.75488C45.5225 9.86261 46.3553 10.2017 47.007 10.6104C47.6084 10.9875 48.1738 11.5005 48.5383 12.0879L48.6818 12.3438L48.7785 12.5518C49.1087 13.3223 49.2367 14.2937 49.0383 15.3311C50.3271 15.0388 51.3771 15.3389 50.9748 15.3389C51.9016 15.3389 52.6567 15.7815 53.1389 16.2637C53.621 16.7458 54.0637 17.5009 54.0637 18.4277C54.0637 19.2628 53.6508 19.8697 53.3332 20.21C53.0048 20.5618 52.62 20.8073 52.2814 20.9766C51.6022 21.3162 50.7698 21.5166 49.9416 21.5166C49.7314 21.5166 49.2889 21.5698 48.7121 21.6758C48.6768 21.6823 48.6417 21.6896 48.6066 21.6963C49.777 22.1431 51.0421 23.0801 51.3986 24.5352L51.4582 24.835L51.5002 25.1953C51.5694 26.038 51.426 26.8856 50.9094 27.6846C50.5311 28.2695 50.0123 28.7229 49.509 29.0918L49.0168 29.4346C48.3147 29.9027 47.5373 30.1309 46.8693 30.2793C46.7409 30.3078 46.607 30.333 46.4699 30.3594C46.7106 30.8129 46.8332 31.3249 46.8332 31.8555C46.8332 32.7053 46.4824 33.4515 45.8947 33.9805C45.8293 34.0393 45.7619 34.0937 45.6945 34.1445C46.1164 34.3895 46.4812 34.7073 46.7726 35.1152C47.2431 35.7738 47.3549 36.4519 47.3723 36.9199C47.3807 37.1469 47.3674 37.3421 47.3586 37.457C47.3511 37.5541 47.3491 37.5807 47.3488 37.5781L47.3449 37.7031C47.2962 38.5495 46.8738 39.5862 45.8459 40.3857C44.7755 41.2183 43.2318 41.6582 41.1623 41.6582C40.3063 41.6582 39.4176 42.2095 38.5363 43.3662C37.8486 44.2689 37.3547 45.3052 37.0773 46.0078C37.6979 45.4683 38.3876 44.9495 39.09 44.5713C39.6382 44.2761 40.3395 43.9862 41.1144 43.9346C41.9104 43.8815 42.7847 44.0876 43.506 44.7285L43.6486 44.8633L43.8478 45.082C44.7587 46.1919 44.4398 47.493 44.1828 48.1523C43.9056 48.8635 43.4057 49.6435 42.9484 50.3447C42.0217 51.7656 40.7977 53.5516 39.6476 55.9707L39.4182 56.4629C38.3302 58.8564 37.9197 59.6594 37.6974 60.8779C37.4632 62.1624 37.4487 63.9045 37.5363 68.0225C37.5481 68.5751 37.3371 69.1099 36.9504 69.5049C36.5638 69.8997 36.0342 70.122 35.4816 70.1221H32.383C31.3837 70.1221 30.529 69.4034 30.3576 68.4189L32.383 68.0664L30.3576 68.418H30.3566V68.415C30.3563 68.4132 30.3562 68.4105 30.3557 68.4072C30.3544 68.3998 30.3523 68.3884 30.3498 68.374C30.3448 68.345 30.3368 68.3019 30.3273 68.2471C30.3084 68.1373 30.2808 67.9784 30.2473 67.7832C30.1803 67.3929 30.0885 66.8552 29.9894 66.2656C29.8912 65.6806 29.7849 65.0363 29.6877 64.4316L29.4426 62.835C29.3852 62.4263 29.354 62.2639 29.3156 62.1338C29.2831 62.0235 29.2266 61.8737 29.0578 61.5566C28.7659 61.0084 28.3101 60.2648 27.4631 58.8389L26.4767 57.167C25.8226 56.0496 25.3308 55.4582 24.9924 55.1104C24.8205 54.9337 24.668 54.7994 24.5109 54.666C24.4166 54.5859 24.2505 54.4492 24.0861 54.2988L23.926 54.1455C23.6936 53.9131 22.6511 52.9042 21.8527 51.7451C21.4627 51.1788 21.0165 50.4179 20.8166 49.5791C20.6044 48.6883 20.6257 47.4195 21.633 46.4121L21.7629 46.2891C22.0799 46.0051 22.4979 45.745 23.0236 45.6279C23.4706 45.5284 23.8902 45.5559 24.257 45.6504C23.5475 44.4885 22.8518 43.6817 22.3849 43.3252C20.3942 41.9908 18.9933 40.7708 18.0656 39.6299C17.1245 38.4725 16.5762 37.278 16.5441 36.0576C16.4773 33.5058 18.5806 32.327 19.0685 32.083L19.2902 31.9795C21.579 30.9845 23.8324 32.2765 25.0568 33.501L25.2394 33.6885C26.1394 34.6434 26.8385 35.7966 27.3537 36.7627C27.4697 36.9802 27.5852 37.2103 27.6984 37.4385C27.7414 36.5932 27.7443 35.7085 27.7443 34.9541C27.7443 33.454 26.9765 30.9331 26.0773 29.0176L25.8957 28.6436C25.475 27.8023 25.1106 27.3851 24.8312 27.1406C24.7242 27.047 24.6154 26.9694 24.4973 26.8926C24.9216 27.8543 25.1418 28.8613 25.1418 29.79C25.1416 30.548 24.725 31.2449 24.0568 31.6025C23.3885 31.9602 22.5772 31.9204 21.9465 31.5C21.7708 31.3829 21.4303 31.182 21.0676 31.0186C20.889 30.9381 20.7329 30.8796 20.6096 30.8438C20.4741 30.8044 20.4467 30.8125 20.5041 30.8125C20.4409 30.8125 20.3469 30.8162 20.1603 30.8262C19.9945 30.835 19.7739 30.8477 19.5373 30.8525C19.0705 30.8621 18.4413 30.8474 17.7824 30.6953C17.1113 30.5404 16.3409 30.2271 15.674 29.5928C15.0785 29.0263 14.6693 28.3027 14.4426 27.4619L14.3566 27.0938C14.137 25.9952 14.362 24.6499 15.3293 23.6523C16.3587 22.5908 17.842 22.3063 19.3576 22.6094L19.7023 22.6875C20.544 22.9012 21.294 23.2637 21.9494 23.7275C21.8905 23.0096 22.0233 22.3466 22.1691 21.9092L22.2199 21.7725C22.2385 21.7276 22.2587 21.6831 22.2805 21.6396C22.7853 20.6301 24.1328 19.4709 26.1848 19.4707L26.3478 19.4756C26.6363 19.4942 26.8958 19.563 27.1242 19.6523C26.8299 16.8976 26.745 15.6218 26.7209 14.9082L26.7121 14.2959C26.7121 13.7017 26.9245 12.4167 27.6623 11.2178C28.4794 9.88999 29.99 8.625 32.383 8.625C33.5888 8.62509 34.6292 8.98862 35.4543 9.64551C36.249 10.2784 36.7199 11.0844 37.0021 11.79C37.2324 12.3658 37.3611 12.9449 37.4357 13.4424C37.758 13.0424 38.084 12.6774 38.4123 12.3457C38.2514 12.2297 38.1051 12.093 37.9826 11.9336L37.8498 11.7383C37.4998 11.1548 37.0672 10.2235 36.843 9.19434C36.6318 8.22502 36.5111 6.72157 37.3859 5.40918L37.5441 5.18262C39.2028 2.92185 41.6186 2.94434 42.1955 2.94434L42.4416 2.95508ZM38.7131 32.6152C38.0894 33.1266 37.6927 33.878 37.4709 34.8301C37.8652 34.6003 38.2901 34.3776 38.7424 34.1816C38.5602 33.7351 38.5399 33.2347 38.6906 32.7705C38.6922 32.7591 38.6943 32.7459 38.6965 32.7305C38.7007 32.7 38.7067 32.6609 38.7131 32.6152ZM44.5803 20.5576L44.1476 20.7832C43.3773 21.1684 42.7191 21.6427 42.1682 22.1523C42.6448 21.9536 43.1555 21.7698 43.6965 21.6152L44.0353 21.5254C44.4574 21.4211 44.8724 21.3497 45.2775 21.3076C45.265 21.2929 45.2516 21.2788 45.2394 21.2637C45.0363 21.0104 44.9014 20.7182 44.8351 20.4131C44.751 20.4608 44.667 20.5107 44.5803 20.5576Z" fill="#54B3F3" stroke="white" stroke-width="4.11137" stroke-linejoin="round"/>
<path d="M9.52936 48.5474V49.9321H13.6837V51.3169H53.0001V49.9321H57.1553V48.5474H63.5401V79.8599H57.1553V78.4751H53.0001V77.0903H13.6837V78.4751H9.52936V79.8599H3.14459V48.5474H9.52936Z" fill="#3D4E6B" stroke="white" stroke-width="5"/>
<path d="M8.02936 50.0474V51.4321H12.1837V52.8169H54.5001V51.4321H58.6553V50.0474H62.0401V78.3599H58.6553V76.9751H54.5001V75.5903H12.1837V76.9751H8.02936V78.3599H4.64459V50.0474H8.02936Z" fill="#3D4E6B" stroke="black" stroke-width="2"/>
<rect x="11.1841" y="53.8173" width="44.3163" height="20.7733" fill="#A6A4CC"/>
<rect x="11.1841" y="57.9716" width="44.3163" height="2.76977" fill="#CECEE7"/>
<rect x="11.1841" y="64.8963" width="44.3163" height="5.53953" fill="#8B89AE"/>
<rect x="7.02945" y="52.4321" width="4.15465" height="23.543" fill="#6C6B8A"/>
<rect x="5.64459" y="51.0474" width="1.38488" height="26.3128" fill="#494867"/>
<rect x="11.1841" y="55.2021" width="1.38488" height="4.15465" fill="#3D4E6B"/>
<rect x="11.1841" y="62.1264" width="1.38488" height="4.15465" fill="#3D4E6B"/>
<rect x="11.1841" y="69.0507" width="1.38488" height="4.15465" fill="#3D4E6B"/>
<rect width="4.15465" height="23.543" transform="matrix(-1 0 0 1 59.6551 52.4321)" fill="#6C6B8A"/>
<rect width="1.38488" height="26.3128" transform="matrix(-1 0 0 1 61.0399 51.0474)" fill="#494867"/>
<rect width="1.38488" height="4.15465" transform="matrix(-1 0 0 1 55.5004 55.2021)" fill="#3D4E6B"/>
<rect width="1.38488" height="4.15465" transform="matrix(-1 0 0 1 55.5004 62.1264)" fill="#3D4E6B"/>
<rect width="1.38488" height="4.15465" transform="matrix(-1 0 0 1 55.5004 69.0507)" fill="#3D4E6B"/>
<g filter="url(#filter0_i_264_462)">
<path d="M49.9419 19.4606C49.1156 19.4606 47.5318 19.8049 46.8432 19.9771C47.0153 19.6328 47.5662 18.7376 48.3925 17.9113C49.4254 16.8784 50.4583 17.3948 50.9748 17.3948C51.4912 17.3948 52.0077 17.9113 52.0077 18.4277C52.0077 18.9442 50.9748 19.4606 49.9419 19.4606Z" fill="#54B3F3"/>
<path d="M16.3726 26.6909C16.1489 25.5725 16.889 24.212 18.9548 24.6251C21.5371 25.1416 23.0864 27.7238 23.0864 29.7896C22.57 29.4453 21.3305 28.7567 20.5042 28.7567C19.4713 28.7567 16.889 29.2732 16.3726 26.6909Z" fill="#54B3F3"/>
<path d="M39.6129 10.681C40.1293 10.1645 41.3688 9.02832 42.1951 8.61516C43.228 8.0987 44.7774 7.58225 44.7774 6.54935C44.7774 5.51645 42.7116 5 42.1951 5C41.6787 5 40.1293 5 39.0964 6.54935C38.2701 7.78883 39.0964 9.82021 39.6129 10.681Z" fill="#54B3F3"/>
<path d="M42.1951 32.8883C41.3688 32.8883 41.3344 33.2326 40.6458 33.4048C40.8179 33.0605 40.6334 31.8616 41.6787 31.339C42.7116 30.8225 43.228 30.8225 43.7445 30.8225C44.2609 30.8225 44.7774 31.138 44.7774 31.8554C44.7774 32.8883 43.228 32.8883 42.1951 32.8883Z" fill="#54B3F3"/>
<path d="M37.5471 55.6125C40.1293 49.9315 43.228 47.3493 42.1951 46.3164C41.1622 45.2835 39.0964 46.8328 37.5471 48.3822C35.9977 49.9315 36.5142 53.0302 35.4813 53.0302C34.4484 53.0302 34.4484 47.3492 34.9648 45.7999C35.4813 44.2505 37.5471 39.6025 41.1622 39.6025C44.7774 39.6025 45.2938 38.0531 45.2938 37.5367C45.2938 37.0202 45.8103 35.4709 42.1951 35.4709C39.303 35.4709 36.5142 37.881 35.4813 39.086C34.9648 36.8481 34.8615 31.959 38.58 30.3064C43.228 28.2406 46.3267 28.757 47.8761 27.7241C49.1156 26.8978 49.6045 26.3285 49.4254 25.1416C49.2463 23.9547 47.1531 22.7659 44.2609 23.5922C40.6458 24.6251 38.58 27.2075 38.0635 26.1746C37.5471 25.1417 39.0964 21.0101 43.228 18.9443C47.3596 16.8785 47.3596 14.2962 46.8432 13.2633C46.3267 12.2304 42.7116 9.64818 38.58 15.3291C34.4484 21.0101 34.9648 28.2403 34.4484 28.2403C33.9319 28.2403 32.3826 28.2403 32.899 24.1087C33.4155 19.9771 35.4813 17.3948 35.4813 14.8126C35.4813 14.2961 35.4813 10.681 32.3826 10.681C29.2838 10.681 28.7674 13.7797 28.7674 14.2961C28.7674 14.8126 28.7674 15.8455 29.2838 20.4935C29.8003 25.1416 31.3497 28.7567 31.3497 29.2732C31.3497 29.6863 31.0054 29.7896 30.8332 29.7896C29.8003 27.0352 27.4246 21.5264 26.1852 21.5264C24.9457 21.5264 24.2915 22.215 24.1193 22.5593C23.9472 23.0758 23.8095 24.212 24.6358 24.6251C25.6687 25.1416 26.7016 25.658 27.7345 27.7238C28.7674 29.7896 29.8003 32.8883 29.8003 34.9541C29.8003 37.0199 29.8003 40.6351 28.7674 41.1516C27.7345 41.668 27.2181 41.1516 26.7016 40.1187C26.1852 39.0858 25.1522 36.5035 23.6029 34.9541C22.57 33.9212 21.1554 33.3374 19.9877 33.9212C19.2108 34.3097 15.8561 36.5035 23.6029 41.668C25.6687 43.2174 28.7674 48.5884 28.7674 53.5464C28.0788 52.8578 27.299 51.5615 26.1851 50.4477C25.0713 49.3338 24.1193 46.8325 23.0864 47.8654C21.7698 49.1821 24.8627 52.1755 25.3792 52.6919C25.8956 53.2084 30.3128 59.2701 31.9574 62.5592L37.5471 55.6125Z" fill="#54B3F3"/>
</g>
<path d="M32.383 9.68066C33.3674 9.68075 34.1719 9.97391 34.7971 10.4717C35.4074 10.9577 35.7859 11.5898 36.0226 12.1816C36.487 13.3426 36.4816 14.545 36.4816 14.8125C36.4816 16.3316 35.874 17.8146 35.3146 19.2441C34.7705 20.6348 34.2076 22.1065 33.9406 23.875L33.8908 24.2324C33.7799 25.1198 33.7776 25.7505 33.8215 26.1943C33.9012 25.5143 34.0062 24.673 34.174 23.7383C34.6385 21.1503 35.5798 17.755 37.7717 14.7412L38.1818 14.1992C40.236 11.6066 42.3019 10.7007 44.1105 10.7793C45.0473 10.82 45.843 11.1255 46.4465 11.5039C47.0253 11.8669 47.5024 12.3461 47.7375 12.8164L47.8088 12.9688C48.1466 13.7581 48.2262 14.9019 47.6945 16.1172C47.1594 17.3402 46.0385 18.569 44.0783 19.6289L43.675 19.8389C41.8032 20.7748 40.5182 22.1786 39.7639 23.4551C39.4078 24.0576 39.1809 24.6136 39.0637 25.0557C39.1816 24.9842 39.3179 24.9056 39.4699 24.8105C40.4939 24.1705 42.0255 23.1912 43.9865 22.6309L44.2892 22.5498C45.7953 22.1775 47.152 22.2765 48.2131 22.6768C49.2891 23.0827 50.2481 23.8918 50.4142 24.9922L50.4484 25.2783C50.5035 25.9384 50.3885 26.5456 50.0226 27.1113C49.7405 27.5476 49.3385 27.9065 48.8908 28.2354L48.4308 28.5566C47.8905 28.9168 47.264 29.1105 46.6408 29.249C46.0251 29.3859 45.2942 29.491 44.5549 29.6143C44.1809 29.6766 43.7863 29.7458 43.3713 29.8301C43.5108 29.8241 43.6351 29.8223 43.7443 29.8223C44.1947 29.8223 44.7019 29.9589 45.1115 30.3154C45.5436 30.6915 45.7775 31.2355 45.7775 31.8555C45.7775 32.4016 45.5565 32.8644 45.1877 33.1963C44.8548 33.4957 44.4511 33.6458 44.1164 33.7295C43.4573 33.8943 42.6793 33.8887 42.1955 33.8887C42.0605 33.8887 41.9922 33.9019 41.9611 33.9102C41.9332 33.9176 41.905 33.9288 41.8459 33.9609C41.7217 34.0285 41.3899 34.2495 40.8879 34.375C40.5091 34.4695 40.1097 34.3348 39.8654 34.0303C39.6407 33.7499 39.5873 33.3735 39.716 33.043V33.041C39.7224 33.0096 39.7302 32.9624 39.7424 32.874C39.7638 32.7182 39.7968 32.459 39.8674 32.1875C40.016 31.6155 40.3605 30.8799 41.2316 30.4443L41.6301 30.2578C40.9338 30.4587 40.1895 30.7104 39.3967 31.043L38.9865 31.2197C37.514 31.8742 36.7516 33.1734 36.4191 34.6904C36.2502 35.4614 36.2009 36.2569 36.2238 36.9854C36.6375 36.6446 37.1026 36.3014 37.6057 35.9824C38.8747 35.1778 40.4841 34.4707 42.1955 34.4707C44.0622 34.4708 45.2904 34.8552 45.9142 35.7285C46.226 36.1649 46.305 36.6194 46.3176 36.959C46.3237 37.1253 46.3138 37.273 46.3058 37.376C46.3007 37.4432 46.2993 37.4571 46.2961 37.501C46.2945 37.5233 46.2943 37.5341 46.2941 37.5371C46.294 38.0947 46.029 38.906 45.1974 39.5527C44.3784 40.1897 43.0971 40.6025 41.1623 40.6025C39.8176 40.6025 38.6556 41.4677 37.6965 42.7266C36.8695 43.8121 36.3051 45.05 36.0187 45.8174L35.9133 46.1162C35.8255 46.3798 35.7353 46.9215 35.6799 47.6582C35.629 48.3337 35.6132 49.1039 35.6379 49.8379C35.8597 49.1013 36.2122 48.3026 36.84 47.6748L37.1476 47.374C37.884 46.6686 38.7444 45.9559 39.591 45.5C40.073 45.2405 40.6215 45.0249 41.1848 44.9873C41.7842 44.9474 42.4068 45.1136 42.9025 45.6094C43.5955 46.3026 43.428 47.182 43.1994 47.7686C42.9693 48.3589 42.5357 49.0453 42.0646 49.7676C41.0865 51.2674 39.7111 53.2679 38.4572 56.0264C38.4226 56.1025 38.3788 56.1741 38.3264 56.2393L32.7365 63.1865C32.5231 63.4516 32.1892 63.59 31.8508 63.5537C31.5123 63.5174 31.215 63.3113 31.0627 63.0068C30.2746 61.4307 28.7948 59.1431 27.4221 57.1543C26.7407 56.1672 26.0955 55.2669 25.59 54.584C25.3371 54.2422 25.1214 53.9574 24.9553 53.7451C24.8723 53.6391 24.8038 53.5546 24.7512 53.4912L24.6721 53.3994C24.4264 53.1537 23.456 52.2114 22.7219 51.1455C22.3593 50.619 21.9991 49.9853 21.8439 49.334C21.6828 48.6573 21.7201 47.8172 22.3791 47.1582L22.5607 46.9961C22.7546 46.842 22.9847 46.718 23.2531 46.6582C23.6184 46.5769 23.9578 46.6366 24.2394 46.7559C24.7421 46.9687 25.1267 47.4007 25.3879 47.7285C25.6671 48.0789 25.9552 48.5112 26.1965 48.8564C26.4582 49.2309 26.6821 49.5305 26.8918 49.7402L27.1154 49.9697C27.1821 50.0401 27.2476 50.1108 27.3117 50.1816C27.0066 48.991 26.5686 47.827 26.0578 46.7607C25.0609 44.6798 23.8629 43.1195 23.0158 42.4775C21.0507 41.1644 19.7292 40.002 18.8849 38.9639C18.0356 37.9193 17.6229 36.9429 17.5988 36.0303C17.5496 34.1509 19.1033 33.2448 19.5402 33.0264L19.7053 32.9502C21.4068 32.2119 23.2003 33.1377 24.3098 34.2471L24.631 34.5879C25.3611 35.4075 25.956 36.386 26.4221 37.2598C26.9332 38.2182 27.3867 39.2536 27.5959 39.6719C27.7127 39.9056 27.8129 40.0745 27.9016 40.1943C27.9773 40.2967 28.0276 40.338 28.048 40.3525C28.0732 40.3503 28.1421 40.338 28.2678 40.2803C28.2893 40.2475 28.3458 40.1535 28.4142 39.9443C28.5273 39.5987 28.6153 39.1146 28.6769 38.5293C28.7996 37.3642 28.8 35.9976 28.8 34.9541C28.8 33.2299 27.9602 30.5432 27.0275 28.5586L26.84 28.1709C26.3702 27.2313 25.9277 26.6967 25.5266 26.3457C25.2202 26.0777 24.9138 25.8934 24.5598 25.708L24.1887 25.5195C23.3684 25.1094 23.0806 24.345 23.0099 23.748C22.9413 23.1666 23.0512 22.6027 23.1711 22.2432L23.2248 22.1123L23.2951 21.9844C23.6851 21.3332 24.6522 20.5265 26.1848 20.5264L26.3713 20.5381C26.7923 20.5925 27.126 20.8214 27.342 21.0029C27.6125 21.2303 27.8648 21.5257 28.0939 21.8359C28.2529 22.0512 28.4101 22.2931 28.5705 22.5508C28.4615 21.9273 28.365 21.2761 28.2902 20.6035C27.7724 15.9434 27.7678 14.8675 27.7678 14.2959C27.7678 13.8741 27.9376 12.7847 28.5617 11.7705C29.2245 10.6938 30.4235 9.68066 32.383 9.68066ZM16.0871 24.3877C16.8011 23.6513 17.8829 23.3911 19.1506 23.6445L19.4416 23.71C22.3996 24.4631 24.0861 27.4201 24.0861 29.79C24.086 30.1587 23.8828 30.4969 23.5578 30.6709C23.2327 30.8448 22.8382 30.8266 22.5314 30.6221C22.3134 30.4767 21.9229 30.2457 21.5012 30.0557C21.0491 29.852 20.6945 29.7568 20.5041 29.7568C20.4071 29.7568 20.2828 29.763 20.1047 29.7725C19.9364 29.7814 19.7325 29.7925 19.5158 29.7969C19.0857 29.8057 18.5558 29.7907 18.0197 29.667C17.4778 29.5419 16.8958 29.2982 16.4016 28.8281C15.9632 28.4112 15.6445 27.8633 15.4621 27.1855L15.3918 26.8867C15.2276 26.0652 15.4034 25.0928 16.0871 24.3877ZM47.8205 17.0762C49.2016 15.8404 50.9474 16.3756 50.9748 16.3945C51.5582 16.3945 52.0578 16.6767 52.3918 17.0107C52.7258 17.3448 53.008 17.8443 53.008 18.4277C53.008 18.9002 52.7733 19.2616 52.5607 19.4893C52.3431 19.7224 52.0737 19.9002 51.8098 20.0322C51.2804 20.2969 50.6097 20.4609 49.9416 20.4609C49.6272 20.461 49.1028 20.5309 48.5217 20.6377C47.9598 20.741 47.4127 20.8656 47.0861 20.9473C46.7073 21.042 46.307 20.9072 46.0627 20.6025C45.8187 20.2981 45.7741 19.8793 45.9484 19.5303C46.164 19.0992 46.7763 18.1135 47.6857 17.2041L47.8205 17.0762ZM42.1955 4C42.6302 4.0001 43.4156 4.17564 44.0861 4.47363C44.4326 4.62765 44.8216 4.84586 45.1389 5.15039C45.4605 5.45915 45.7775 5.92885 45.7775 6.5498C45.7773 7.62762 44.9622 8.27484 44.4035 8.62402C43.8395 8.97651 43.0427 9.30982 42.6428 9.50977C42.341 9.66066 41.8991 9.98284 41.4299 10.376C40.977 10.7554 40.5593 11.148 40.3195 11.3877C40.1018 11.6054 39.796 11.7115 39.4904 11.6738C39.1849 11.6362 38.9135 11.4593 38.7551 11.1953C38.4522 10.6905 38.0695 9.86594 37.8742 8.96973C37.6853 8.10263 37.6271 6.95177 38.2648 5.99512L38.3918 5.8125C39.7279 3.98918 41.6579 4 42.1955 4Z" stroke="black" stroke-width="2" stroke-linejoin="round"/>
<path d="M31.8276 59.3569L28.3654 53.8173H39.0116V58.6644L34.1646 64.2039L35.5494 70.5658L28.3654 64.8964L31.8276 59.3569Z" fill="#474662"/>
<mask id="mask0_264_462" style="mask-type:alpha" maskUnits="userSpaceOnUse" x="28" y="53" width="12" height="18">
<path d="M31.8276 59.3569L28.3654 53.8173H39.0116V58.6644L34.1646 64.2039L35.5494 70.5658L28.3654 64.8964L31.8276 59.3569Z" fill="#474662"/>
</mask>
<g mask="url(#mask0_264_462)">
<g filter="url(#filter1_i_264_462)">
<path d="M49.9419 19.4606C49.1156 19.4606 47.5318 19.8049 46.8432 19.9771C47.0153 19.6328 47.5662 18.7376 48.3925 17.9113C49.4254 16.8784 50.4583 17.3948 50.9748 17.3948C51.4912 17.3948 52.0077 17.9113 52.0077 18.4277C52.0077 18.9442 50.9748 19.4606 49.9419 19.4606Z" fill="#54B3F3"/>
<path d="M35.4813 75.7156C35.3091 67.6245 35.4813 60.1573 37.5471 55.6125C40.1293 49.9315 43.228 47.3493 42.1951 46.3164C41.1622 45.2835 39.0964 46.8328 37.5471 48.3822C35.9977 49.9315 36.5142 53.0302 35.4813 53.0302C34.4484 53.0302 34.4484 47.3492 34.9648 45.7999C35.4813 44.2505 37.5471 39.6025 41.1622 39.6025C44.7774 39.6025 45.2938 38.0531 45.2938 37.5367C45.2938 37.0202 45.8103 35.4709 42.1951 35.4709C39.303 35.4709 36.5142 37.881 35.4813 39.086C34.9648 36.8481 34.8615 31.959 38.58 30.3064C43.228 28.2406 46.3267 28.757 47.8761 27.7241C49.1156 26.8978 49.6045 26.3285 49.4254 25.1416C49.2463 23.9547 47.153 22.7659 44.2609 23.5922C40.6458 24.6251 38.58 27.2075 38.0635 26.1746C37.5471 25.1417 39.0964 21.0101 43.228 18.9443C47.3596 16.8785 47.3596 14.2962 46.8432 13.2633C46.3267 12.2304 42.7116 9.64818 38.58 15.3291C34.4484 21.0101 34.9648 28.2403 34.4484 28.2403C33.9319 28.2403 32.3826 28.2403 32.899 24.1087C33.4155 19.9771 35.4813 17.3948 35.4813 14.8126C35.4813 14.2961 35.4813 10.681 32.3826 10.681C29.2838 10.681 28.7674 13.7797 28.7674 14.2961C28.7674 14.8126 28.7674 15.8455 29.2838 20.4935C29.8003 25.1416 31.3497 28.7567 31.3497 29.2732C31.3497 29.6863 31.0054 29.7896 30.8332 29.7896C29.8003 27.0352 27.4246 21.5264 26.1852 21.5264C24.9457 21.5264 24.2915 22.215 24.1193 22.5593C23.9472 23.0758 23.8095 24.212 24.6358 24.6251C25.6687 25.1416 26.7016 25.658 27.7345 27.7238C28.7674 29.7896 29.8003 32.8883 29.8003 34.9541C29.8003 37.0199 29.8003 40.6351 28.7674 41.1516C27.7345 41.668 27.2181 41.1516 26.7016 40.1187C26.1852 39.0858 25.1522 36.5035 23.6029 34.9541C22.57 33.9212 21.1554 33.3374 19.9877 33.9212C19.2108 34.3097 15.8561 36.5035 23.6029 41.668C25.6687 43.2174 28.7674 48.5884 28.7674 53.5464C28.0788 52.8578 27.299 51.5615 26.1851 50.4477C25.0713 49.3338 24.1193 46.8325 23.0864 47.8654C21.7698 49.1821 25.2243 51.4174 25.6687 51.997C26.2015 52.6919 26.8027 53.6549 28.2509 56.1286C31.1689 61.1127 31.2475 60.9026 31.4786 62.5488C31.7096 64.1949 31.4786 74.071 31.4786 74.071L35.4813 75.7156Z" fill="#54B3F3"/>
<path d="M16.3726 26.6909C16.1489 25.5725 16.889 24.212 18.9548 24.6251C21.5371 25.1416 23.0864 27.7238 23.0864 29.7896C22.57 29.4453 21.3305 28.7567 20.5042 28.7567C19.4713 28.7567 16.889 29.2732 16.3726 26.6909Z" fill="#54B3F3"/>
<path d="M39.6129 10.681C40.1293 10.1645 41.3688 9.02832 42.1951 8.61515C43.228 8.0987 44.7774 7.58225 44.7774 6.54935C44.7774 5.51645 42.7116 5 42.1951 5C41.6787 5 40.1293 5 39.0964 6.54935C38.2701 7.78883 39.0964 9.82021 39.6129 10.681Z" fill="#54B3F3"/>
<path d="M42.1951 32.8883C41.3688 32.8883 41.3344 33.2326 40.6458 33.4048C40.8179 33.0605 40.6334 31.8616 41.6787 31.339C42.7116 30.8225 43.228 30.8225 43.7445 30.8225C44.2609 30.8225 44.7774 31.138 44.7774 31.8554C44.7774 32.8883 43.228 32.8883 42.1951 32.8883Z" fill="#54B3F3"/>
</g>
<path d="M32.383 9.68066C33.3674 9.68075 34.1719 9.97391 34.7971 10.4717C35.4074 10.9577 35.7859 11.5898 36.0226 12.1816C36.487 13.3426 36.4816 14.545 36.4816 14.8125C36.4816 16.3316 35.874 17.8146 35.3146 19.2441C34.7342 20.7274 34.132 22.3029 33.8908 24.2324C33.7799 25.1198 33.7776 25.7505 33.8215 26.1943C33.9012 25.5143 34.0062 24.673 34.174 23.7383C34.6385 21.1503 35.5798 17.755 37.7717 14.7412C39.9599 11.7324 42.1812 10.6955 44.1105 10.7793C45.0473 10.82 45.843 11.1255 46.4465 11.5039C47.0253 11.8669 47.5024 12.3461 47.7375 12.8164L47.8088 12.9688C48.1466 13.7581 48.2262 14.9019 47.6945 16.1172C47.1238 17.4217 45.8863 18.7332 43.675 19.8389C41.8032 20.7748 40.5182 22.1786 39.7639 23.4551C39.4078 24.0576 39.1809 24.6136 39.0637 25.0557C39.1816 24.9842 39.3179 24.9056 39.4699 24.8105C40.4939 24.1705 42.0255 23.1912 43.9865 22.6309L44.2892 22.5498C45.7953 22.1775 47.152 22.2765 48.2131 22.6768C49.2891 23.0827 50.2481 23.8918 50.4142 24.9922C50.5307 25.7641 50.4407 26.4648 50.0226 27.1113C49.6464 27.6931 49.058 28.1386 48.4308 28.5566C47.8905 28.9168 47.264 29.1105 46.6408 29.249C46.0251 29.3859 45.2942 29.491 44.5549 29.6143C44.1809 29.6766 43.7863 29.7458 43.3713 29.8301C43.5108 29.8241 43.6351 29.8223 43.7443 29.8223C44.1947 29.8223 44.7019 29.9589 45.1115 30.3154C45.5436 30.6915 45.7775 31.2355 45.7775 31.8555C45.7775 32.4016 45.5565 32.8644 45.1877 33.1963C44.8548 33.4957 44.4511 33.6458 44.1164 33.7295C43.4573 33.8943 42.6793 33.8887 42.1955 33.8887C42.0605 33.8887 41.9922 33.9019 41.9611 33.9102C41.9332 33.9176 41.905 33.9288 41.8459 33.9609C41.7217 34.0285 41.3899 34.2495 40.8879 34.375C40.5091 34.4695 40.1097 34.3348 39.8654 34.0303C39.6407 33.7499 39.5873 33.3735 39.716 33.043V33.041C39.7224 33.0096 39.7302 32.9624 39.7424 32.874C39.7638 32.7182 39.7968 32.459 39.8674 32.1875C40.016 31.6155 40.3605 30.8799 41.2316 30.4443C41.3701 30.3751 41.5028 30.3133 41.6301 30.2578C40.9338 30.4587 40.1895 30.7104 39.3967 31.043L38.9865 31.2197C37.514 31.8742 36.7516 33.1734 36.4191 34.6904C36.2502 35.4614 36.2009 36.2569 36.2238 36.9854C36.6375 36.6446 37.1026 36.3014 37.6057 35.9824C38.8747 35.1778 40.4841 34.4707 42.1955 34.4707C44.0622 34.4708 45.2904 34.8552 45.9142 35.7285C46.226 36.1649 46.305 36.6194 46.3176 36.959C46.3237 37.1253 46.3138 37.273 46.3058 37.376C46.3007 37.4432 46.2993 37.4571 46.2961 37.501C46.2945 37.5233 46.2943 37.5341 46.2941 37.5371C46.294 38.0947 46.029 38.906 45.1974 39.5527C44.3784 40.1897 43.0971 40.6025 41.1623 40.6025C39.8176 40.6025 38.6556 41.4677 37.6965 42.7266C36.7513 43.9673 36.1495 45.4075 35.9133 46.1162C35.8255 46.3798 35.7353 46.9215 35.6799 47.6582C35.629 48.3337 35.6132 49.1039 35.6379 49.8379C35.8597 49.1013 36.2122 48.3026 36.84 47.6748C37.6378 46.877 38.6235 46.021 39.591 45.5C40.073 45.2405 40.6215 45.0249 41.1848 44.9873C41.7842 44.9474 42.4068 45.1136 42.9025 45.6094C43.5955 46.3026 43.428 47.182 43.1994 47.7686C42.9693 48.3589 42.5357 49.0453 42.0646 49.7676C41.1476 51.1736 39.8813 53.0195 38.6935 55.5176L38.4572 56.0264C37.4959 58.1414 36.9486 61.0081 36.6721 64.415C36.3966 67.8083 36.3947 71.6561 36.4807 75.6943C36.4878 76.0314 36.325 76.3493 36.0471 76.54C35.7689 76.7308 35.4127 76.7688 35.1008 76.6406L31.0988 74.9961C30.7159 74.8388 30.4691 74.4617 30.4787 74.0479V74.041C30.4788 74.0363 30.4795 74.0288 30.4797 74.0195C30.4801 74.001 30.4808 73.9735 30.4816 73.9375C30.4833 73.8651 30.4855 73.7583 30.4885 73.6221C30.4943 73.3496 30.5019 72.9582 30.5109 72.4834C30.5289 71.5335 30.5512 70.2498 30.5656 68.916C30.58 67.5814 30.5871 66.2002 30.5764 65.0527C30.5653 63.8744 30.5352 63.0207 30.4885 62.6875C30.4309 62.2775 30.3908 62.047 30.3283 61.835C30.2686 61.6325 30.1777 61.4141 29.9894 61.0605C29.7886 60.6834 29.5097 60.2102 29.0949 59.5146L27.3879 56.6338C26.1142 54.4583 25.5192 53.4928 25.0637 52.8594L24.8752 52.6055C24.8862 52.6198 24.8543 52.5803 24.7131 52.4551C24.5885 52.3446 24.4346 52.2158 24.2443 52.0537C23.8782 51.7418 23.409 51.3359 22.9914 50.8955C22.5896 50.4718 22.1487 49.9282 21.9308 49.3242C21.8171 49.0088 21.7496 48.6353 21.8146 48.2363C21.8818 47.8244 22.0788 47.4585 22.3791 47.1582L22.5607 46.9961C22.7546 46.842 22.9847 46.718 23.2531 46.6582C23.6184 46.5769 23.9578 46.6366 24.2394 46.7559C24.7421 46.9687 25.1267 47.4007 25.3879 47.7285C25.6671 48.0789 25.9552 48.5112 26.1965 48.8564C26.4582 49.2309 26.6821 49.5305 26.8918 49.7402L27.1154 49.9697C27.1821 50.0401 27.2476 50.1108 27.3117 50.1816C27.0066 48.991 26.5686 47.827 26.0578 46.7607C25.0609 44.6798 23.8629 43.1195 23.0158 42.4775C21.0507 41.1644 19.7292 40.002 18.8849 38.9639C18.0356 37.9193 17.6229 36.9429 17.5988 36.0303C17.5496 34.1509 19.1033 33.2448 19.5402 33.0264L19.7053 32.9502C21.4068 32.2119 23.2003 33.1377 24.3098 34.2471C25.1885 35.1258 25.8895 36.2612 26.4221 37.2598C26.9332 38.2182 27.3867 39.2536 27.5959 39.6719C27.7127 39.9056 27.8129 40.0745 27.9016 40.1943C27.9773 40.2967 28.0276 40.338 28.048 40.3525C28.0732 40.3503 28.1421 40.338 28.2678 40.2803C28.2893 40.2475 28.3458 40.1535 28.4142 39.9443C28.5273 39.5987 28.6153 39.1146 28.6769 38.5293C28.7996 37.3642 28.8 35.9976 28.8 34.9541C28.8 33.1149 27.8446 30.1801 26.84 28.1709C26.3702 27.2313 25.9277 26.6967 25.5266 26.3457C25.2202 26.0777 24.9138 25.8934 24.5598 25.708L24.1887 25.5195C23.3684 25.1094 23.0806 24.345 23.0099 23.748C22.9413 23.1666 23.0512 22.6027 23.1711 22.2432L23.2248 22.1123L23.2951 21.9844C23.6851 21.3332 24.6522 20.5265 26.1848 20.5264L26.3713 20.5381C26.7923 20.5925 27.126 20.8214 27.342 21.0029C27.6125 21.2303 27.8648 21.5257 28.0939 21.8359C28.2529 22.0512 28.4101 22.2931 28.5705 22.5508C28.4615 21.9273 28.365 21.2761 28.2902 20.6035C27.7724 15.9434 27.7678 14.8675 27.7678 14.2959C27.7678 13.8741 27.9376 12.7847 28.5617 11.7705C29.2245 10.6938 30.4235 9.68066 32.383 9.68066ZM16.0871 24.3877C16.8011 23.6513 17.8829 23.3911 19.1506 23.6445L19.4416 23.71C22.3996 24.4631 24.0861 27.4201 24.0861 29.79C24.086 30.1587 23.8828 30.4969 23.5578 30.6709C23.2327 30.8448 22.8382 30.8266 22.5314 30.6221C22.3134 30.4767 21.9229 30.2457 21.5012 30.0557C21.0491 29.852 20.6945 29.7568 20.5041 29.7568C20.4071 29.7568 20.2828 29.763 20.1047 29.7725C19.9364 29.7814 19.7325 29.7925 19.5158 29.7969C19.0857 29.8057 18.5558 29.7907 18.0197 29.667C17.4778 29.5419 16.8958 29.2982 16.4016 28.8281C15.9632 28.4112 15.6445 27.8633 15.4621 27.1855L15.3918 26.8867C15.2276 26.0652 15.4034 25.0928 16.0871 24.3877ZM47.6857 17.2041C49.0852 15.8049 50.9466 16.3749 50.9748 16.3945C51.5582 16.3945 52.0578 16.6767 52.3918 17.0107C52.7258 17.3448 53.008 17.8443 53.008 18.4277C53.008 18.9002 52.7733 19.2616 52.5607 19.4893C52.3431 19.7224 52.0737 19.9002 51.8098 20.0322C51.2804 20.2969 50.6097 20.4609 49.9416 20.4609C49.6272 20.461 49.1028 20.5309 48.5217 20.6377C47.9598 20.741 47.4127 20.8656 47.0861 20.9473C46.7073 21.042 46.307 20.9072 46.0627 20.6025C45.8187 20.2981 45.7741 19.8793 45.9484 19.5303C46.164 19.0992 46.7763 18.1135 47.6857 17.2041ZM42.1955 4C42.6302 4.0001 43.4156 4.17564 44.0861 4.47363C44.4326 4.62765 44.8216 4.84586 45.1389 5.15039C45.4605 5.45915 45.7775 5.92885 45.7775 6.5498C45.7773 7.62762 44.9622 8.27484 44.4035 8.62402C44.1214 8.80033 43.7809 8.97167 43.4611 9.12402L42.6428 9.50977C42.341 9.66066 41.8991 9.98284 41.4299 10.376C40.977 10.7554 40.5593 11.148 40.3195 11.3877C40.1018 11.6054 39.796 11.7115 39.4904 11.6738C39.1849 11.6362 38.9135 11.4593 38.7551 11.1953C38.4522 10.6905 38.0695 9.86594 37.8742 8.96973C37.6853 8.10263 37.6271 6.95177 38.2648 5.99512L38.3918 5.8125C39.7279 3.98918 41.6579 4 42.1955 4Z" stroke="black" stroke-width="2" stroke-linejoin="round"/>
</g>
<defs>
<filter id="filter0_i_264_462" x="12.335" y="2.99999" width="41.6727" height="63.5592" filterUnits="userSpaceOnUse" color-interpolation-filters="sRGB">
<feFlood flood-opacity="0" result="BackgroundImageFix"/>
<feBlend mode="normal" in="SourceGraphic" in2="BackgroundImageFix" result="shape"/>
<feColorMatrix in="SourceAlpha" type="matrix" values="0 0 0 0 0 0 0 0 0 0 0 0 0 0 0 0 0 0 127 0" result="hardAlpha"/>
<feOffset dx="-3" dy="4"/>
<feGaussianBlur stdDeviation="1"/>
<feComposite in2="hardAlpha" operator="arithmetic" k2="-1" k3="1"/>
<feColorMatrix type="matrix" values="0 0 0 0 0.0252778 0 0 0 0 0.390963 0 0 0 0 0.733056 0 0 0 0.62 0"/>
<feBlend mode="normal" in2="shape" result="effect1_innerShadow_264_462"/>
</filter>
<filter id="filter1_i_264_462" x="12.335" y="2.99999" width="41.6727" height="76.7156" filterUnits="userSpaceOnUse" color-interpolation-filters="sRGB">
<feFlood flood-opacity="0" result="BackgroundImageFix"/>
<feBlend mode="normal" in="SourceGraphic" in2="BackgroundImageFix" result="shape"/>
<feColorMatrix in="SourceAlpha" type="matrix" values="0 0 0 0 0 0 0 0 0 0 0 0 0 0 0 0 0 0 127 0" result="hardAlpha"/>
<feOffset dx="-3" dy="4"/>
<feGaussianBlur stdDeviation="1"/>
<feComposite in2="hardAlpha" operator="arithmetic" k2="-1" k3="1"/>
<feColorMatrix type="matrix" values="0 0 0 0 0.0252778 0 0 0 0 0.390963 0 0 0 0 0.733056 0 0 0 0.62 0"/>
<feBlend mode="normal" in2="shape" result="effect1_innerShadow_264_462"/>
</filter>
</defs>
</svg>
