<svg width="66" height="86" viewBox="0 0 66 86" fill="none" xmlns="http://www.w3.org/2000/svg">
<path d="M32.6777 2.5C33.7537 2.5 34.7094 3.18834 35.0498 4.20898C38.6082 14.8843 45.1149 21.3684 51.207 28.2773C57.2726 35.1561 62.8563 42.4309 62.8564 54.2285L62.8574 54.6885C62.8559 54.9539 62.85 55.3094 62.8311 55.7412C62.7932 56.6037 62.7045 57.7725 62.5039 59.1445C62.1044 61.8767 61.2502 65.4781 59.4082 69.082C57.5578 72.7023 54.7009 76.3421 50.3203 79.0645C46.0735 81.7037 40.5369 83.3922 33.376 83.4951L32.6777 83.5C25.1807 83.4999 19.4252 81.8006 15.042 79.0918C10.6612 76.3845 7.80291 72.7625 5.95117 69.1514C4.10804 65.5568 3.25289 61.9592 2.85352 59.2178C2.65298 57.8412 2.56506 56.6643 2.52734 55.79C2.50847 55.3523 2.5015 54.9899 2.5 54.7168C2.49887 54.5107 2.50158 54.2508 2.50195 54.2285L2.50586 53.6787C2.67633 42.2037 8.17998 35.0487 14.1504 28.2773C20.242 21.3685 26.7482 14.8842 30.3066 4.20898L30.377 4.02246C30.7661 3.10547 31.6689 2.50013 32.6777 2.5Z" fill="#54B3F3" stroke="white" stroke-width="5" stroke-linejoin="round"/>
<g filter="url(#filter0_i_269_972)">
<path d="M32.6781 81C61.117 81 60.3561 55.1089 60.3561 54.2283C60.3557 32.5545 40.1842 27.5185 32.6781 5C25.1719 27.5185 5.00199 32.5548 5.00198 54.2283C5.00198 55.2851 4.23913 81 32.6781 81Z" fill="#54B3F3"/>
</g>
<path d="M32.6777 4C33.1081 4 33.4908 4.2753 33.627 4.68359C37.3022 15.7093 44.0564 22.4362 50.082 29.2695C56.0969 36.0908 61.3563 43.0074 61.3564 54.2285L61.3574 54.6865C61.3479 56.4028 61.1198 62.4369 58.0723 68.3994C56.3227 71.8224 53.6373 75.2365 49.5283 77.79C45.5464 80.2646 40.2846 81.8957 33.3535 81.9951L32.6777 82C25.4132 82 19.9399 80.3563 15.8301 77.8164C11.7211 75.2771 9.03509 71.8795 7.28516 68.4668C3.80255 61.6749 4.00189 54.7669 4.00195 54.2285L4.00586 53.7051C4.16665 42.791 9.35492 35.9842 15.2754 29.2695C21.3005 22.4362 28.0543 15.7092 31.7295 4.68359L31.792 4.53711C31.9622 4.21105 32.3013 4.00012 32.6777 4Z" stroke="black" stroke-width="2" stroke-linejoin="round"/>
<path d="M52.8503 53.7901C52.8503 54.4691 53.4436 74.4321 31.2716 74.4321" stroke="white" stroke-opacity="0.5" stroke-width="4" stroke-linecap="round"/>
<defs>
<filter id="filter0_i_269_972" x="0.999741" y="3" width="61.3582" height="82" filterUnits="userSpaceOnUse" color-interpolation-filters="sRGB">
<feFlood flood-opacity="0" result="BackgroundImageFix"/>
<feBlend mode="normal" in="SourceGraphic" in2="BackgroundImageFix" result="shape"/>
<feColorMatrix in="SourceAlpha" type="matrix" values="0 0 0 0 0 0 0 0 0 0 0 0 0 0 0 0 0 0 127 0" result="hardAlpha"/>
<feOffset dx="-3" dy="4"/>
<feGaussianBlur stdDeviation="1"/>
<feComposite in2="hardAlpha" operator="arithmetic" k2="-1" k3="1"/>
<feColorMatrix type="matrix" values="0 0 0 0 0.0252778 0 0 0 0 0.390963 0 0 0 0 0.733056 0 0 0 0.62 0"/>
<feBlend mode="normal" in2="shape" result="effect1_innerShadow_269_972"/>
</filter>
</defs>
</svg>
