<svg width="92" height="53" viewBox="0 0 92 53" fill="none" xmlns="http://www.w3.org/2000/svg">
<path d="M59.4531 2.79465C68.0849 3.57486 75.8066 5.84391 81.3173 8.92348C84.0713 10.4626 86.3154 12.2278 87.8351 14.1506C89.3593 16.0791 90.1896 18.2154 89.9887 20.4393C89.7877 22.6632 88.5877 24.6159 86.7424 26.24C84.9025 27.8592 82.3783 29.1933 79.3929 30.2136C73.4194 32.2552 65.416 33.1029 56.7841 32.3227C48.1522 31.5425 40.4305 29.2735 34.9199 26.1939C32.1659 24.6548 29.9218 22.8897 28.4021 20.9668C26.8779 19.0382 26.0475 16.902 26.2485 14.6781C26.4495 12.4542 27.6495 10.5014 29.4948 8.87742C31.3347 7.25827 33.8589 5.92408 36.8443 4.90373C42.8178 2.86217 50.8212 2.01445 59.4531 2.79465Z" fill="#545454" stroke="black" stroke-width="2"/>
<path d="M37 18.4995C47.0405 18.4995 56.0567 20.4827 62.5068 23.6206C69.0587 26.808 72.5 30.9249 72.5 34.9995C72.5 39.0741 69.0587 43.191 62.5068 46.3784C56.0567 49.5163 47.0405 51.4995 37 51.4995C26.9595 51.4995 17.9433 49.5163 11.4932 46.3784C4.94126 43.191 1.5 39.0741 1.5 34.9995C1.5 30.9249 4.94126 26.808 11.4932 23.6206C17.9433 20.4827 26.9595 18.4995 37 18.4995Z" fill="black" stroke="white" stroke-width="3"/>
<path d="M5 34C5 34 5.76669 30.5499 11 27.3495M69 34C69 34 68.5174 31.8284 65.7048 29.3329M15.5 25.1741C18.0236 24.2124 21.1442 23.3762 25 22.8038M27.7902 22.4512C30.5231 22.1631 33.5803 22 37 22C51.6667 22 59.6667 25 64 28" stroke="white" stroke-opacity="0.6" stroke-width="2" stroke-linecap="round"/>
<path d="M59.4081 2.29262C67.9869 3.06803 75.6375 5.32226 81.0738 8.36037C83.7913 9.87907 85.9767 11.6057 87.4432 13.4613C88.9119 15.3197 89.6771 17.332 89.4907 19.3943C89.3043 21.4567 88.1908 23.3 86.4125 24.865C84.637 26.4276 82.1775 27.7343 79.2317 28.7412C73.3388 30.7552 65.408 31.6002 56.8291 30.8248C48.2503 30.0493 40.5996 27.7961 35.1633 24.758C32.4458 23.2393 30.2605 21.5127 28.7939 19.6571C27.3251 17.7986 26.5601 15.7855 26.7465 13.7231C26.9329 11.6608 28.0466 9.81828 29.8246 8.25336C31.6001 6.69076 34.0597 5.38402 37.0054 4.3772C42.8984 2.36309 50.8292 1.51721 59.4081 2.29262Z" fill="#545454" stroke="black"/>
<path fill-rule="evenodd" clip-rule="evenodd" d="M84.4215 22.6024C85.7956 21.3931 86.391 20.2125 86.4894 19.1231C86.5879 18.0337 86.2139 16.7655 85.0789 15.3294C83.9327 13.8791 82.1006 12.386 79.6037 10.9906C74.6156 8.20294 67.395 6.04033 59.1368 5.2939C50.8785 4.54747 43.3872 5.38033 37.9801 7.22839C35.2734 8.1535 33.2034 9.29387 31.8157 10.5151C30.4416 11.7245 29.8462 12.9051 29.7478 13.9945C29.6493 15.0838 30.0233 16.3521 31.1583 17.7882C32.3045 19.2385 34.1366 20.7316 36.6335 22.127C41.6216 24.9146 48.8422 27.0773 57.1004 27.8237C65.3586 28.5701 72.8499 27.7373 78.257 25.8892C80.9637 24.9641 83.0338 23.8237 84.4215 22.6024ZM56.8741 30.327C73.9255 31.8682 88.3054 26.9534 88.9927 19.3494C89.68 11.7454 76.4144 4.3318 59.363 2.79059C42.3117 1.24939 27.9317 6.16423 27.2445 13.7682C26.5572 21.3722 39.8228 28.7858 56.8741 30.327Z" fill="#878787"/>
<g style="mix-blend-mode:exclusion">
<mask id="mask0_264_417" style="mask-type:alpha" maskUnits="userSpaceOnUse" x="27" y="2" width="63" height="29">
<path d="M88.9927 19.3494C88.3054 26.9534 73.9255 31.8682 56.8741 30.327C39.8228 28.7858 26.5572 21.3722 27.2445 13.7682C27.9317 6.16423 42.3117 1.24939 59.363 2.79059C76.4144 4.3318 89.68 11.7454 88.9927 19.3494Z" fill="black"/>
</mask>
<g mask="url(#mask0_264_417)">
<rect x="26.5928" y="9.86938" width="64" height="1" transform="rotate(5.16471 26.5928 9.86938)" fill="#D9D9D9"/>
<rect x="25.5125" y="21.8207" width="64" height="1" transform="rotate(5.16471 25.5125 21.8207)" fill="#D9D9D9"/>
<rect x="25.1525" y="25.8044" width="64" height="1" transform="rotate(5.16471 25.1525 25.8044)" fill="#D9D9D9"/>
<rect x="26.9529" y="5.88562" width="64" height="1" transform="rotate(5.16471 26.9529 5.88562)" fill="#D9D9D9"/>
<rect x="27.3129" y="1.90186" width="64" height="1" transform="rotate(5.16471 27.3129 1.90186)" fill="#D9D9D9"/>
<rect x="25.8726" y="17.8369" width="64" height="1" transform="rotate(5.16471 25.8726 17.8369)" fill="#D9D9D9"/>
<rect x="26.2327" y="13.8531" width="64" height="1" transform="rotate(5.16471 26.2327 13.8531)" fill="#D9D9D9"/>
</g>
<mask id="mask1_264_417" style="mask-type:alpha" maskUnits="userSpaceOnUse" x="27" y="2" width="63" height="29">
<path d="M88.9927 19.3494C88.3054 26.9534 73.9255 31.8682 56.8741 30.327C39.8228 28.7858 26.5572 21.3722 27.2445 13.7682C27.9317 6.16423 42.3117 1.24939 59.363 2.79059C76.4144 4.3318 89.68 11.7454 88.9927 19.3494Z" fill="black"/>
</mask>
<g mask="url(#mask1_264_417)">
<rect x="23.2122" y="-6.64365" width="84" height="1" transform="rotate(28.3025 23.2122 -6.64365)" fill="#D9D9D9"/>
<rect x="17.5226" y="3.92184" width="84" height="1" transform="rotate(28.3025 17.5226 3.92184)" fill="#D9D9D9"/>
<rect x="15.6261" y="7.44366" width="84" height="1" transform="rotate(28.3025 15.6261 7.44366)" fill="#D9D9D9"/>
<rect x="25.1087" y="-10.1655" width="84" height="1" transform="rotate(28.3025 25.1087 -10.1655)" fill="#D9D9D9"/>
<rect x="27.0052" y="-13.6873" width="84" height="1" transform="rotate(28.3025 27.0052 -13.6873)" fill="#D9D9D9"/>
<rect x="19.4191" y="0.400009" width="84" height="1" transform="rotate(28.3025 19.4191 0.400009)" fill="#D9D9D9"/>
<rect x="21.3157" y="-3.12182" width="84" height="1" transform="rotate(28.3025 21.3157 -3.12182)" fill="#D9D9D9"/>
</g>
</g>
</svg>
