<svg width="74" height="84" viewBox="0 0 74 84" fill="none" xmlns="http://www.w3.org/2000/svg">
<path d="M37 49.5C47.0405 49.5 56.0567 51.4832 62.5068 54.6211C69.0587 57.8085 72.5 61.9254 72.5 66C72.5 70.0746 69.0587 74.1915 62.5068 77.3789C56.0567 80.5168 47.0405 82.5 37 82.5C26.9595 82.5 17.9433 80.5168 11.4932 77.3789C4.94126 74.1915 1.5 70.0746 1.5 66C1.5 61.9254 4.94126 57.8085 11.4932 54.6211C17.9433 51.4832 26.9595 49.5 37 49.5Z" fill="black" stroke="white" stroke-width="3"/>
<path d="M5 65C5 65 5.76669 61.5499 11 58.3495M69 65C69 65 68.5174 62.8284 65.7048 60.3329M15.5 56.1741C18.0236 55.2124 21.1442 54.3762 25 53.8038M27.7902 53.4512C30.5231 53.1631 33.5803 53 37 53C51.6667 53 59.6667 56 64 59" stroke="white" stroke-opacity="0.6" stroke-width="2" stroke-linecap="round"/>
<path d="M32.2314 4.03027C34.5728 0.544282 39.8387 0.660798 41.9854 4.37891L62.7227 40.2959L62.916 40.6582C64.7636 44.4288 62.0294 48.9307 57.7363 48.9307H39.5645V75.8027H34.4355V48.9307H16.2637C11.8322 48.9307 9.06188 44.1337 11.2773 40.2959L32.0146 4.37891L32.2314 4.03027Z" fill="#FEC206" stroke="white" stroke-width="3"/>
<path fill-rule="evenodd" clip-rule="evenodd" d="M16.2632 45.4309C14.5259 45.4309 13.4401 43.5502 14.3087 42.0456L35.0455 6.12843C35.9142 4.62386 38.0858 4.62386 38.9545 6.12842L59.6913 42.0456C60.56 43.5502 59.4741 45.4309 57.7368 45.4309H16.2632ZM38.0642 77.3023H35.9358V47.4309H16.2632C12.9863 47.4309 10.9382 43.8835 12.5767 41.0456L33.3135 5.12843C34.9519 2.29053 39.0481 2.29052 40.6865 5.12842L61.4233 41.0456C63.0618 43.8835 61.0137 47.4309 57.7368 47.4309H38.0642V77.3023Z" fill="black"/>
<path d="M36.904 17.312C37.4373 17.312 37.8107 17.472 38.024 17.792C38.2373 18.112 38.344 18.464 38.344 18.848C38.344 19.872 38.2907 21.0347 38.184 22.336C38.0773 23.6373 37.96 25.0027 37.832 26.432C37.704 27.84 37.5867 29.2373 37.48 30.624C37.3733 31.9893 37.32 33.248 37.32 34.4H36.52C36.52 33.248 36.4667 31.9893 36.36 30.624C36.2533 29.2373 36.136 27.84 36.008 26.432C35.88 25.0027 35.7627 23.6373 35.656 22.336C35.5493 21.0347 35.496 19.872 35.496 18.848C35.496 18.464 35.6027 18.112 35.816 17.792C36.0293 17.472 36.392 17.312 36.904 17.312ZM36.904 36.928C37.3947 36.928 37.8 37.0987 38.12 37.44C38.44 37.76 38.6 38.1653 38.6 38.656C38.6 39.1253 38.44 39.52 38.12 39.84C37.8 40.16 37.3947 40.32 36.904 40.32C36.456 40.32 36.0613 40.16 35.72 39.84C35.4 39.52 35.24 39.1253 35.24 38.656C35.24 38.1653 35.4 37.76 35.72 37.44C36.0613 37.0987 36.456 36.928 36.904 36.928Z" fill="black"/>
</svg>
