<svg width="74" height="91" viewBox="0 0 74 91" fill="none" xmlns="http://www.w3.org/2000/svg">
<g filter="url(#filter0_i_264_451)">
<path d="M63.2347 27.0451C61.9749 27.0451 59.5605 27.57 58.5107 27.8324C58.7731 27.3075 59.613 25.9428 60.8727 24.6831C62.4473 23.1085 64.022 23.8958 64.8093 23.8958C65.5966 23.8958 66.384 24.6831 66.384 25.4704C66.384 26.2578 64.8093 27.0451 63.2347 27.0451Z" fill="#54B3F3"/>
<path d="M40.724 82.5C40.4615 70.1653 41.1896 89.0868 44.3389 82.1583C48.2755 73.4977 52.9995 69.5611 51.4248 67.9865C49.8502 66.4118 46.7009 68.7738 44.3389 71.1358C41.9769 73.4977 42.7642 78.2216 41.1896 78.2216C39.6149 78.2216 39.6149 69.561 40.4023 67.1991C41.1896 64.8371 44.3389 57.7512 49.8502 57.7512C55.3614 57.7512 56.1488 55.3892 56.1488 54.6019C56.1488 53.8145 56.9361 51.4526 51.4248 51.4526C47.0158 51.4526 42.7642 55.1267 41.1896 56.9638C40.4023 53.5521 40.2448 46.0988 45.9135 43.5793C52.9995 40.43 57.7234 41.2173 60.0854 39.6427C61.975 38.383 62.7204 37.515 62.4473 35.7057C62.1743 33.8963 58.9831 32.084 54.5741 33.3437C49.0628 34.9183 45.9135 38.8551 45.1262 37.2805C44.3389 35.7058 46.7009 29.4073 52.9995 26.258C59.2981 23.1087 59.2981 19.172 58.5107 17.5974C57.7234 16.0227 52.2121 12.0861 45.9135 20.7467C39.6149 29.4073 40.4023 40.4296 39.6149 40.4296C38.8276 40.4296 36.4656 40.4296 37.253 34.131C38.0403 27.8324 41.1896 23.8958 41.1896 19.9592C41.1896 19.1718 41.1896 13.6606 36.4656 13.6606C31.7417 13.6606 30.9544 18.3845 30.9544 19.1718C30.9544 19.9592 30.9543 21.5338 31.7417 28.6197C32.529 35.7057 34.891 41.2169 34.891 42.0043C34.891 42.6341 34.3661 42.7916 34.1037 42.7916C32.529 38.5925 28.9073 30.1944 27.0177 30.1944C25.1282 30.1944 24.1309 31.2442 23.8684 31.769C23.606 32.5564 23.396 34.2885 24.6558 34.9183C26.2304 35.7057 27.8051 36.493 29.3797 39.6423C30.9544 42.7916 32.529 47.5155 32.529 50.6648C32.529 53.8141 32.529 59.3254 30.9544 60.1127C29.3797 60.9 28.5924 60.1127 27.8051 58.5381C27.0177 56.9634 25.443 53.0268 23.0811 50.6648C21.5064 49.0902 19.3499 48.2001 17.5698 49.0902C16.3854 49.6824 11.2712 53.0268 23.0811 60.9C26.2304 63.262 30.9543 71.4502 30.9543 79.0085C29.9046 77.9587 28.7158 75.9826 27.0177 74.2846C25.3197 72.5865 23.8684 68.7733 22.2938 70.3479C20.2865 72.3552 25.0017 76.9186 25.7891 77.7059C26.5764 78.4932 26.4975 80.5721 30.167 82.9451C34.891 86 34.5 82 35 82.5C35.5 83 36 82.5 36 82.5H40.724Z" fill="#54B3F3"/>
<path d="M12.0585 38.0676C11.7175 36.3626 12.8458 34.2885 15.9951 34.9183C19.9318 35.7057 22.2937 39.6423 22.2937 42.7916C21.5064 42.2667 19.6168 41.2169 18.3571 41.2169C16.7825 41.2169 12.8458 42.0042 12.0585 38.0676Z" fill="#54B3F3"/>
<path d="M47.4882 13.6606C48.2755 12.8732 50.1651 11.1411 51.4248 10.5113C52.9994 9.72395 55.3614 8.93662 55.3614 7.36197C55.3614 5.78732 52.2121 5 51.4248 5C50.6375 5 48.2755 5 46.7008 7.36197C45.4411 9.25155 46.7008 12.3484 47.4882 13.6606Z" fill="#54B3F3"/>
<path d="M51.4248 47.5155C50.1651 47.5155 50.1126 48.0404 49.0628 48.3028C49.3252 47.778 49.044 45.9503 50.6375 45.1535C52.2121 44.3662 52.9994 44.3662 53.7868 44.3662C54.5741 44.3662 55.3614 44.8471 55.3614 45.9409C55.3614 47.5155 52.9994 47.5155 51.4248 47.5155Z" fill="#54B3F3"/>
</g>
<path d="M51.7598 2.51465C52.5895 2.58124 53.7329 2.87403 54.7041 3.30566C55.287 3.56475 55.9917 3.95305 56.5879 4.52539C57.1951 5.10835 57.8613 6.06176 57.8613 7.3623C57.8612 9.5534 56.2017 10.7933 55.3086 11.3516C54.6287 11.7765 53.6918 12.2094 53.0566 12.5039L52.543 12.7471C52.409 12.8141 52.2403 12.9202 52.042 13.0557C52.8349 12.8724 53.6189 12.8025 54.3877 12.8359C56.0053 12.9063 57.3796 13.4341 58.4238 14.0889C59.3449 14.6665 60.1746 15.45 60.6553 16.3066L60.7471 16.4795L60.8779 16.7627C61.437 18.0674 61.5851 19.8257 60.9541 21.6816C63.1276 20.7784 65.2677 21.3953 64.8096 21.3955C66.0161 21.3956 67.0131 21.9741 67.6592 22.6201C68.3053 23.2662 68.8838 24.264 68.8838 25.4707C68.8837 26.5259 68.3625 27.3037 67.9414 27.7549C67.5072 28.2201 66.989 28.5533 66.5176 28.7891C65.5721 29.2618 64.4008 29.5449 63.2344 29.5449C62.8515 29.545 62.128 29.6367 61.2461 29.7988C60.4119 29.9522 59.5976 30.1377 59.1172 30.2578C58.17 30.4946 57.1715 30.1581 56.5605 29.3965C56.1033 28.8264 55.925 28.096 56.0479 27.3984C55.4588 27.7768 54.8168 28.1443 54.1172 28.4941C51.7262 29.6897 50.0105 31.4225 48.9121 33.0703C50.274 32.3036 51.948 31.4936 53.8877 30.9395L54.3828 30.8076C56.849 30.198 59.1213 30.3474 60.9443 31.0352C62.6931 31.695 64.4759 33.0708 64.8838 35.1309L64.9189 35.333L64.9531 35.5859C65.1016 36.8487 64.9236 38.0835 64.1768 39.2383C63.5713 40.1744 62.6924 40.8829 61.8369 41.4756L61.4717 41.7227C60.4984 42.3714 59.4045 42.6996 58.4131 42.9199C57.9335 43.0265 57.4068 43.1202 56.8652 43.2109C57.5228 43.9528 57.8612 44.9121 57.8613 45.9404C57.8613 47.0535 57.4049 48.0209 56.6406 48.709C56.2333 49.0756 55.783 49.3213 55.3623 49.4922C56.4208 49.8575 57.2813 50.4304 57.8877 51.2793C58.5094 52.1498 58.66 53.0493 58.6836 53.6855C58.695 53.9952 58.677 54.2646 58.6641 54.4326C58.6455 54.6746 58.6484 54.6305 58.6484 54.6016C58.6484 55.7437 58.1132 57.2688 56.6006 58.4453C55.1197 59.5969 52.9244 60.2509 49.8506 60.251C48.2522 60.251 46.734 61.2798 45.3438 63.1045C44.1574 64.6616 43.3387 66.4555 42.9258 67.5605L42.7744 67.9893C42.702 68.2066 42.6065 68.6897 42.5283 69.4111C42.5425 69.3967 42.5569 69.3825 42.5713 69.3682L43.0508 68.8975C44.2053 67.7909 45.592 66.6377 46.9922 65.8838C47.7881 65.4552 48.765 65.0576 49.8193 64.9873C50.8925 64.9158 52.0505 65.1923 53.0049 66.041L53.1924 66.2188L53.3262 66.3584C54.6482 67.8149 54.2437 69.5849 53.8652 70.5557C53.4708 71.5673 52.7484 72.6996 52.043 73.7812C50.636 75.9385 48.7447 78.6972 46.9688 82.4326L46.6152 83.1924C46.3762 83.7182 46.1083 84.213 45.7979 84.6396C45.5012 85.0473 45.0643 85.5349 44.4385 85.8662C43.7306 86.2409 42.8743 86.3588 42.0283 86.0791C41.2791 85.8313 40.7814 85.3514 40.4902 85.0029C40.4895 85.0021 40.489 85.0009 40.4883 85H36.6318C36.582 85.0195 36.5318 85.0418 36.4785 85.0596C36.397 85.0867 36.3087 85.1104 36.2158 85.1328C36.13 85.2388 36.0376 85.3461 35.9355 85.4482C35.1168 86.2674 33.9636 86.7158 32.6006 86.582C31.5448 86.4783 30.4513 86.0367 29.3047 85.3525L28.8096 85.0439C26.6552 83.6508 25.4806 82.2556 24.7412 80.9971C24.3982 80.4131 24.1586 79.8681 24.0254 79.584C23.976 79.4787 23.9406 79.4116 23.9199 79.3721C23.4278 78.8834 22.024 77.4842 20.9346 75.9023C20.3564 75.0629 19.7281 73.9797 19.4502 72.8135C19.1573 71.584 19.1998 69.9067 20.5264 68.5801L20.6982 68.417C21.1187 68.0403 21.6618 67.7047 22.3359 67.5547C23.1252 67.379 23.8504 67.5118 24.4316 67.7578C24.9257 67.967 25.3488 68.2745 25.7002 68.5928C24.2713 65.7503 22.6596 63.7241 21.6064 62.9209C18.5853 60.8985 16.4968 59.0721 15.1318 57.3936C13.7519 55.6965 12.997 54.006 12.9531 52.3301C12.8618 48.8436 15.739 47.2111 16.4521 46.8545L16.7549 46.7119C19.8916 45.3489 23.051 47.0998 24.8486 48.8975L25.1152 49.1719C26.4288 50.5659 27.4634 52.265 28.2393 53.7197C28.8136 54.7966 29.3803 56.0132 29.7441 56.791C29.7803 56.5538 29.8161 56.2943 29.8457 56.0127C30.0263 54.2966 30.0293 52.2661 30.0293 50.665C30.0293 48.2436 28.8148 44.3006 27.4238 41.3389L27.1436 40.7607C26.4727 39.4191 25.8701 38.713 25.3711 38.2764C24.8539 37.8239 24.3373 37.5539 23.5381 37.1543C23.2361 37.0033 22.9708 36.8283 22.7383 36.6367C24.0825 38.5422 24.7939 40.7923 24.7939 42.792C24.7938 43.7138 24.2864 44.5611 23.4736 44.9961C22.6609 45.4311 21.6743 45.3833 20.9072 44.8721C20.6139 44.6765 20.0642 44.352 19.4756 44.0869C19.1849 43.956 18.9184 43.8552 18.6943 43.79C18.4718 43.7254 18.3658 43.7175 18.3574 43.7168C18.2408 43.7168 18.0792 43.7244 17.7998 43.7393C17.5455 43.7528 17.2189 43.7712 16.8701 43.7783C16.1806 43.7924 15.2812 43.7694 14.3506 43.5547C13.405 43.3365 12.3437 42.9006 11.4307 42.0322C10.5591 41.2031 9.96749 40.1172 9.66406 38.8203L9.60742 38.5576C9.3058 37.0492 9.61851 35.2222 10.9229 33.877C12.3029 32.4537 14.3234 32.0344 16.4854 32.4668L16.9775 32.5781C18.9042 33.0676 20.5035 34.1021 21.7432 35.415C21.4261 34.8255 21.2702 34.2139 21.209 33.6963C21.0832 32.6329 21.2813 31.6257 21.4971 30.9785L21.5586 30.8125C21.5812 30.7579 21.6064 30.7043 21.6328 30.6514L21.7715 30.3984C22.5337 29.1209 24.3193 27.6944 27.0176 27.6943L27.2246 27.7012C28.0972 27.7578 28.7785 28.1623 29.2129 28.4932C28.4662 21.7148 28.4541 20.0794 28.4541 19.1719C28.4541 18.3697 28.7529 16.5277 29.8096 14.8105C30.9626 12.9371 33.0779 11.1602 36.4658 11.1602C38.1714 11.1602 39.616 11.6721 40.7539 12.5781C41.8547 13.4547 42.5169 14.5785 42.9199 15.5859C43.5562 17.1766 43.6637 18.7941 43.6826 19.5684C43.7515 19.4709 43.821 19.3734 43.8916 19.2764C44.8264 17.991 45.7768 16.919 46.7324 16.042C46.2019 15.8736 45.7386 15.5333 45.4219 15.0684L45.3447 14.9473C44.8394 14.1051 44.2083 12.7491 43.8838 11.2598C43.5752 9.84341 43.4297 7.76281 44.6211 5.97559L44.8428 5.65723C47.1778 2.47268 50.5689 2.5 51.4248 2.5L51.7598 2.51465ZM46.9287 45.8643C45.0613 46.6943 44.0382 48.3459 43.5723 50.4717C43.4789 50.8978 43.4117 51.3308 43.3662 51.7617C43.5426 51.6421 43.7224 51.5242 43.9053 51.4082C44.838 50.8168 45.9052 50.2475 47.0664 49.8057C46.5627 49.1368 46.4303 48.2655 46.7012 47.4844C46.706 47.4517 46.7116 47.4123 46.7188 47.3604C46.7497 47.1354 46.807 46.6807 46.9316 46.2012C46.9639 46.077 47.0014 45.9471 47.0459 45.8135L46.9287 45.8643Z" stroke="white" stroke-width="5" stroke-linejoin="round"/>
<path d="M37 56.5C47.0405 56.5 56.0567 58.4832 62.5068 61.6211C69.0587 64.8085 72.5 68.9254 72.5 73C72.5 77.0746 69.0587 81.1915 62.5068 84.3789C56.0567 87.5168 47.0405 89.5 37 89.5C26.9595 89.5 17.9433 87.5168 11.4932 84.3789C4.94126 81.1915 1.5 77.0746 1.5 73C1.5 68.9254 4.94126 64.8085 11.4932 61.6211C17.9433 58.4832 26.9595 56.5 37 56.5Z" fill="black" stroke="white" stroke-width="3"/>
<g filter="url(#filter1_i_264_451)">
<path d="M63.2347 27.0451C61.9749 27.0451 59.5605 27.57 58.5107 27.8324C58.7731 27.3075 59.613 25.9428 60.8727 24.6831C62.4473 23.1085 64.022 23.8958 64.8093 23.8958C65.5966 23.8958 66.384 24.6831 66.384 25.4704C66.384 26.2578 64.8093 27.0451 63.2347 27.0451Z" fill="#54B3F3"/>
<path d="M40.724 83.5C44.3389 87 41.1896 82.0868 44.3389 81.1583C53.4639 78.4681 52.9995 69.5611 51.4248 67.9865C49.8502 66.4118 46.7009 68.7738 44.3389 71.1358C41.9769 73.4977 42.7642 78.2216 41.1896 78.2216C39.6149 78.2216 39.6149 69.561 40.4023 67.1991C41.1896 64.8371 44.3389 57.7512 49.8502 57.7512C55.3614 57.7512 56.1488 55.3892 56.1488 54.6019C56.1488 53.8145 56.9361 51.4526 51.4248 51.4526C47.0158 51.4526 42.7642 55.1267 41.1896 56.9638C40.4023 53.5521 40.2448 46.0988 45.9135 43.5793C52.9995 40.43 57.7234 41.2173 60.0854 39.6427C61.975 38.383 62.7204 37.515 62.4473 35.7057C62.1743 33.8963 58.9831 32.084 54.5741 33.3437C49.0628 34.9183 45.9135 38.8551 45.1262 37.2805C44.3389 35.7058 46.7009 29.4073 52.9995 26.258C59.2981 23.1087 59.2981 19.172 58.5107 17.5974C57.7234 16.0227 52.2121 12.0861 45.9135 20.7467C39.6149 29.4073 40.4023 40.4296 39.6149 40.4296C38.8276 40.4296 36.4656 40.4296 37.253 34.131C38.0403 27.8324 41.1896 23.8958 41.1896 19.9592C41.1896 19.1718 41.1896 13.6606 36.4656 13.6606C31.7417 13.6606 30.9544 18.3845 30.9544 19.1718C30.9544 19.9592 30.9543 21.5338 31.7417 28.6197C32.529 35.7057 34.891 41.2169 34.891 42.0043C34.891 42.6341 34.3661 42.7916 34.1037 42.7916C32.529 38.5925 28.9073 30.1944 27.0177 30.1944C25.1282 30.1944 24.1309 31.2442 23.8684 31.769C23.606 32.5564 23.396 34.2885 24.6558 34.9183C26.2304 35.7057 27.8051 36.493 29.3797 39.6423C30.9544 42.7916 32.529 47.5155 32.529 50.6648C32.529 53.8141 32.529 59.3254 30.9544 60.1127C29.3797 60.9 28.5924 60.1127 27.8051 58.5381C27.0177 56.9634 25.443 53.0268 23.0811 50.6648C21.5064 49.0902 19.3499 48.2001 17.5698 49.0902C16.3854 49.6824 11.2712 53.0268 23.0811 60.9C26.2304 63.262 30.9543 71.4502 30.9543 79.0085C29.9046 77.9587 28.7158 75.9826 27.0177 74.2846C25.3197 72.5865 23.8684 68.7733 22.2938 70.3479C20.2865 72.3552 25.0017 76.9186 25.7891 77.7059C26.5764 78.4932 28.5 79.5 30.167 81.9451C32.8296 85.8506 33.6037 84 34.1037 84.5C34.6037 85 36 83.5 36 83.5H40.724Z" fill="#54B3F3"/>
<path d="M12.0585 38.0676C11.7175 36.3626 12.8458 34.2885 15.9951 34.9183C19.9318 35.7057 22.2937 39.6423 22.2937 42.7916C21.5064 42.2667 19.6168 41.2169 18.3571 41.2169C16.7825 41.2169 12.8458 42.0042 12.0585 38.0676Z" fill="#54B3F3"/>
<path d="M47.4882 13.6606C48.2755 12.8732 50.1651 11.1411 51.4248 10.5113C52.9994 9.72395 55.3614 8.93662 55.3614 7.36197C55.3614 5.78732 52.2121 5 51.4248 5C50.6375 5 48.2755 5 46.7008 7.36197C45.4411 9.25155 46.7008 12.3484 47.4882 13.6606Z" fill="#54B3F3"/>
<path d="M52.5 47C51.2647 46.7529 50 47.5 49.0628 48.3028C49.3252 47.778 49.2778 46.3047 50.6375 45.1535C52 44 54 43.5 55 44C55.7254 44.3627 56.1488 44.9063 56.1488 46C56.1488 47.5746 55 47.5 52.5 47Z" fill="#54B3F3"/>
</g>
<path d="M36.4658 12.6602C37.8566 12.6602 38.9656 13.0722 39.8193 13.752C40.6583 14.42 41.189 15.2977 41.5273 16.1436C42.1948 17.8122 42.1895 19.5559 42.1895 19.959C42.1895 22.1552 41.3114 24.3152 40.4473 26.5234C39.6174 28.6442 38.7392 30.9354 38.3223 33.6963L38.2451 34.2549C37.8587 37.3459 38.2974 38.5804 38.6436 39.042C38.738 39.1679 38.8391 39.2512 38.9443 39.3086C38.977 39.0795 39.0123 38.7974 39.0518 38.457C39.1859 37.2986 39.3617 35.6155 39.7129 33.6592C40.4144 29.7507 41.8291 24.6618 45.1045 20.1582C48.3763 15.6595 51.6142 14.2172 54.3223 14.335C55.6484 14.3926 56.7738 14.8253 57.627 15.3604C58.4555 15.88 59.1024 16.5447 59.4053 17.1504C59.9358 18.2115 60.1321 19.9005 59.3281 21.7383C58.5203 23.5844 56.7409 25.5051 53.4463 27.1523C50.491 28.6301 48.4611 30.8468 47.2666 32.8682C46.6686 33.8801 46.2926 34.8229 46.1104 35.5732C46.0193 35.9485 45.9816 36.2561 45.9805 36.4883C45.9804 36.5082 45.981 36.5276 45.9814 36.5459C46.3364 36.3917 46.8319 36.0936 47.5488 35.6455C49.1145 34.6669 51.3907 33.213 54.2998 32.3818L54.7432 32.2637C56.9479 31.7186 58.9078 31.8698 60.415 32.4385C61.9668 33.024 63.2235 34.145 63.4365 35.5566C63.5999 36.6397 63.4687 37.5708 62.917 38.4238C62.4709 39.1135 61.7909 39.6802 60.9902 40.2363L60.6396 40.4746C59.8961 40.9703 59.0158 41.2489 58.0879 41.4551C57.1674 41.6596 56.0813 41.8159 54.9355 42.0068C52.7559 42.3701 50.1068 42.8964 46.9561 44.2178L46.3193 44.4932C43.8718 45.5811 42.6363 47.7382 42.1074 50.1514C41.7534 51.7672 41.733 53.4422 41.8672 54.8525C42.6543 54.1357 43.6203 53.3651 44.709 52.6748C46.601 51.4752 48.955 50.4521 51.4248 50.4521C54.2395 50.4521 55.8737 51.0402 56.667 52.1504C57.0632 52.7051 57.1677 53.2865 57.1846 53.7402C57.1929 53.9638 57.1806 54.1662 57.1689 54.3174C57.1551 54.4978 57.1485 54.5542 57.1484 54.6016C57.1484 55.2946 56.8162 56.3768 55.6797 57.2607C54.5559 58.1347 52.7333 58.7509 49.8506 58.751C47.5579 58.751 45.6513 60.2255 44.1504 62.1953C42.849 63.9034 41.9659 65.842 41.5166 67.0469L41.3506 67.5156C41.1951 67.9824 41.0538 68.8629 40.9688 69.9932C40.8856 71.0984 40.8615 72.3637 40.9092 73.5557C40.9557 74.7197 41.0706 75.7681 41.2461 76.5176C41.3206 76.2058 41.3966 75.8268 41.4883 75.3682C41.7748 73.9358 42.205 71.8556 43.6318 70.4287L44.0947 69.9756C45.2 68.917 46.4713 67.8674 47.7031 67.2041C48.4053 66.826 49.1651 66.5346 49.9189 66.4844C50.7089 66.4317 51.5006 66.6481 52.1318 67.2793C52.4711 67.6186 52.7146 68.0793 52.8867 68.5518C53.064 69.0384 53.1904 69.6057 53.2588 70.2197C53.3956 71.4475 53.3063 72.9284 52.8525 74.4414C51.9617 77.4119 49.674 80.4738 45.0742 81.9766L44.6221 82.1172C44.1689 82.2508 43.9951 82.4838 43.8887 82.7637C43.7511 83.1254 43.7374 83.5351 43.7041 84.0537C43.6913 84.2524 43.6706 84.5891 43.5684 84.877C43.5125 85.0342 43.4009 85.2725 43.167 85.4658C42.9048 85.6823 42.5922 85.7579 42.3057 85.7393C42.0516 85.7227 41.8342 85.6347 41.6768 85.5547C41.5116 85.4707 41.3484 85.362 41.1895 85.2432C40.9425 85.0586 40.6564 84.8111 40.3242 84.5H36.4102C36.2604 84.6408 36.0628 84.8181 35.8438 84.9844C35.611 85.161 35.2901 85.3768 34.9404 85.499C34.6794 85.5902 34.1856 85.6948 33.7217 85.4492C33.518 85.4934 33.1873 85.5463 32.7988 85.4883C31.8303 85.3435 30.8297 84.5986 29.5918 82.8682L29.3408 82.5088C28.5746 81.385 27.7486 80.5886 27.0088 79.9727C26.6342 79.6608 26.2869 79.3998 25.9619 79.1504C25.6537 78.9139 25.333 78.664 25.082 78.4131C24.7009 78.032 23.2571 76.6303 22.1699 75.0518C21.6308 74.269 21.1236 73.3657 20.9092 72.4658C20.6888 71.5406 20.7552 70.4724 21.5869 69.6406L21.7002 69.5332C21.9714 69.2903 22.291 69.1021 22.6621 69.0195C23.0941 68.9234 23.5 68.9915 23.8477 69.1387C24.4823 69.4074 24.9976 69.9714 25.3916 70.4658C25.8036 70.9829 26.2258 71.6172 26.6045 72.1592C27.0037 72.7305 27.3688 73.2213 27.7246 73.5771L28.0557 73.917C28.6641 74.5596 29.2019 75.2238 29.6826 75.8418C29.261 73.2654 28.3823 70.7032 27.2969 68.4375C25.7588 65.2268 23.8841 62.7607 22.4961 61.7119C19.514 59.721 17.5397 57.978 16.2949 56.4473C15.0454 54.9106 14.4856 53.5296 14.4531 52.291C14.3868 49.7598 16.4825 48.5156 17.123 48.1953L17.3447 48.0918C19.6472 47.0934 22.1538 48.3237 23.7881 49.958L24.0264 50.2031C25.2022 51.4516 26.1628 53.0136 26.916 54.4258C27.6981 55.8921 28.3546 57.4015 28.6992 58.0908L28.8408 58.3633C29.16 58.9545 29.4039 59.2365 29.5986 59.3535C29.7027 59.416 29.9115 59.5163 30.5068 59.2188C30.4964 59.224 30.5477 59.201 30.6357 59.0654C30.7238 58.9296 30.8199 58.7243 30.9141 58.4365C31.1034 57.8581 31.2424 57.0772 31.3379 56.1699C31.5282 54.3616 31.5293 52.2503 31.5293 50.665C31.5293 47.9249 30.2131 43.7455 28.7744 40.6855L28.4854 40.0898C27.7447 38.6086 27.0313 37.7355 26.3594 37.1475C25.6802 36.5531 25.001 36.2085 24.209 35.8125C23.1722 35.2941 22.7937 34.3273 22.6982 33.5205C22.6046 32.7291 22.7549 31.9482 22.9199 31.4531L22.9736 31.3223C23.3979 30.4737 24.7327 29.1944 27.0176 29.1943L27.2344 29.208C27.7286 29.2721 28.1421 29.5447 28.4434 29.7979C28.8112 30.1071 29.1674 30.5215 29.5049 30.9785C30.183 31.8969 30.8912 33.1343 31.5693 34.4639C31.6781 34.6771 31.7837 34.8952 31.8916 35.1143C31.4343 33.2298 31.0075 31.0657 30.748 28.7305C29.9594 21.6322 29.9541 20.0144 29.9541 19.1719C29.9541 18.6148 30.1918 17.0512 31.0869 15.5967C32.0205 14.0797 33.6935 12.6602 36.4658 12.6602ZM52.7031 42.9893C53.5952 42.7574 54.6309 42.6973 55.4473 43.1055C55.9206 43.3422 56.375 43.6788 56.6973 44.2002C57.0178 44.7188 57.1484 45.3251 57.1484 46C57.1484 46.4963 57.0611 47.0248 56.7451 47.4697C56.4091 47.9428 55.9261 48.1682 55.4512 48.2598C55.0015 48.3465 54.5037 48.3261 54.0107 48.2695C53.5073 48.2117 52.9319 48.1061 52.3037 47.9805C51.559 47.8316 50.6202 48.2861 49.7139 49.0625C49.3524 49.3721 48.8224 49.3838 48.4473 49.0908C48.0723 48.7979 47.9552 48.2811 48.168 47.8555C48.1713 47.8462 48.1783 47.8257 48.1885 47.79C48.2073 47.724 48.2274 47.641 48.2549 47.5234C48.3066 47.302 48.3773 46.9882 48.4893 46.6494C48.7197 45.9519 49.1323 45.1178 49.9912 44.3906L50.2998 44.1445C51.0375 43.5941 51.8882 43.2011 52.7031 42.9893ZM12 34.9209C12.9319 33.96 14.3819 33.5756 16.1914 33.9375L16.6064 34.0322C20.8439 35.1118 23.2939 39.3723 23.2939 42.792C23.2938 43.1606 23.0906 43.4989 22.7656 43.6729C22.4812 43.8251 22.1439 43.8296 21.8584 43.6914L21.7393 43.624C21.3857 43.3883 20.7642 43.0216 20.0918 42.7188C19.3894 42.4024 18.7645 42.2169 18.3574 42.2168C18.1927 42.2168 17.9874 42.227 17.7197 42.2412C17.4621 42.2549 17.1601 42.2718 16.8398 42.2783C16.2023 42.2913 15.4436 42.2673 14.6875 42.0928C13.9255 41.9169 13.1317 41.5805 12.4639 40.9453C11.8737 40.3839 11.4318 39.6368 11.1758 38.6846L11.0781 38.2637C10.8552 37.1488 11.0983 35.8508 12 34.9209ZM60.166 23.9756C62.1311 22.011 64.5745 22.8955 64.8096 22.8955C65.5282 22.8956 66.1631 23.2452 66.5986 23.6807C67.0342 24.1163 67.3838 24.7518 67.3838 25.4707C67.3837 26.0105 67.1163 26.4393 66.8447 26.7305C66.5677 27.0273 66.2124 27.2644 65.8467 27.4473C65.1142 27.8135 64.1733 28.0449 63.2344 28.0449C62.7033 28.045 61.8627 28.161 60.9746 28.3242C60.1056 28.484 59.26 28.676 58.7529 28.8027C58.3742 28.8973 57.9748 28.7625 57.7305 28.458C57.4862 28.1534 57.4416 27.734 57.6162 27.3848C57.9222 26.7729 58.8235 25.3181 60.166 23.9756ZM51.4248 4C51.9949 4.00001 53.1193 4.24325 54.0947 4.67676C54.5936 4.89849 55.1268 5.20134 55.5498 5.60742C55.9771 6.01775 56.3613 6.60603 56.3613 7.3623C56.3612 8.71108 55.3432 9.56159 54.5137 10.0801C53.8873 10.4715 53.0918 10.8331 52.4502 11.1309L51.8721 11.4053C51.3537 11.6645 50.6415 12.19 49.9219 12.793C49.2184 13.3823 48.5705 13.993 48.1953 14.3682C47.9776 14.5857 47.6716 14.6908 47.3662 14.6533C47.0606 14.6157 46.7893 14.4389 46.6309 14.1748C46.1925 13.4442 45.6329 12.2408 45.3496 10.9404C45.0727 9.66929 45.0147 8.08934 45.8691 6.80762L46.0479 6.55078C47.9244 3.98904 50.6249 4 51.4248 4Z" stroke="black" stroke-width="2" stroke-linejoin="round"/>
<mask id="mask0_264_451" style="mask-type:alpha" maskUnits="userSpaceOnUse" x="0" y="55" width="74" height="33">
<path d="M37 56.5C47.057 56.5 56.0895 58.3213 62.5518 61.2031C65.7846 62.6448 68.3086 64.322 70.0039 66.1094C71.6918 67.889 72.5 69.7082 72.5 71.5C72.5 73.2918 71.6918 75.111 70.0039 76.8906C68.3086 78.678 65.7846 80.3552 62.5518 81.7969C56.0895 84.6787 47.057 86.5 37 86.5C26.943 86.5 17.9105 84.6787 11.4482 81.7969C8.21542 80.3552 5.69141 78.678 3.99609 76.8906C2.30821 75.111 1.5 73.2918 1.5 71.5C1.5 69.7082 2.30821 67.889 3.99609 66.1094C5.69141 64.322 8.21542 62.6448 11.4482 61.2031C17.9105 58.3213 26.943 56.5 37 56.5Z" fill="black" stroke="white" stroke-width="3"/>
</mask>
<g mask="url(#mask0_264_451)">
<path d="M5 73C5 73 5.76669 69.5499 11 66.3495M69 73C69 73 68.5174 70.8284 65.7048 68.3329M15.5 64.1741C18.0236 63.2124 21.1442 62.3762 25 61.8038M27.7902 61.4512C30.5231 61.1631 33.5803 61 37 61C51.6667 61 59.6667 64 64 67" stroke="white" stroke-opacity="0.6" stroke-width="2" stroke-linecap="round"/>
<g filter="url(#filter2_i_264_451)">
<path d="M63.2347 27.0451C61.9749 27.0451 59.5605 27.57 58.5107 27.8324C58.7731 27.3075 59.613 25.9428 60.8727 24.6831C62.4473 23.1085 64.022 23.8958 64.8093 23.8958C65.5966 23.8958 66.384 24.6831 66.384 25.4704C66.384 26.2578 64.8093 27.0451 63.2347 27.0451Z" fill="#54B3F3"/>
<path d="M40.724 94.5C44.3389 98 41.1896 83.0868 44.3389 81.1583C52.4519 76.1903 52.9995 69.5611 51.4248 67.9865C49.8502 66.4118 46.7009 68.7738 44.3389 71.1358C41.9769 73.4977 42.7642 78.2216 41.1896 78.2216C39.6149 78.2216 39.6149 69.561 40.4023 67.1991C41.1896 64.8371 44.3389 57.7512 49.8502 57.7512C55.3614 57.7512 56.1488 55.3892 56.1488 54.6019C56.1488 53.8145 56.9361 51.4526 51.4248 51.4526C47.0158 51.4526 42.7642 55.1267 41.1896 56.9638C40.4023 53.5521 40.2448 46.0988 45.9135 43.5793C52.9995 40.43 57.7234 41.2173 60.0854 39.6427C61.975 38.383 62.7204 37.515 62.4473 35.7057C62.1743 33.8963 58.9831 32.084 54.5741 33.3437C49.0628 34.9183 45.9135 38.8551 45.1262 37.2805C44.3389 35.7058 46.7009 29.4073 52.9995 26.258C59.2981 23.1087 59.2981 19.172 58.5107 17.5974C57.7234 16.0227 52.2121 12.0861 45.9135 20.7467C39.6149 29.4073 40.4023 40.4296 39.6149 40.4296C38.8276 40.4296 36.4656 40.4296 37.253 34.131C38.0403 27.8324 41.1896 23.8958 41.1896 19.9592C41.1896 19.1718 41.1896 13.6606 36.4656 13.6606C31.7417 13.6606 30.9544 18.3845 30.9544 19.1718C30.9544 19.9592 30.9543 21.5338 31.7417 28.6197C32.529 35.7057 34.891 41.2169 34.891 42.0043C34.891 42.6341 34.3661 42.7916 34.1037 42.7916C32.529 38.5925 28.9073 30.1944 27.0177 30.1944C25.1282 30.1944 24.1309 31.2442 23.8684 31.769C23.606 32.5564 23.396 34.2885 24.6558 34.9183C26.2304 35.7057 27.8051 36.493 29.3797 39.6423C30.9544 42.7916 32.529 47.5155 32.529 50.6648C32.529 53.8141 32.529 59.3254 30.9544 60.1127C29.3797 60.9 28.5924 60.1127 27.8051 58.5381C27.0177 56.9634 25.443 53.0268 23.0811 50.6648C21.5064 49.0902 19.3499 48.2001 17.5698 49.0902C16.3854 49.6824 11.2712 53.0268 23.0811 60.9C26.2304 63.262 30.9543 71.4502 30.9543 79.0085C29.9046 77.9587 28.7158 75.9826 27.0177 74.2846C25.3197 72.5865 23.8684 68.7733 22.2938 70.3479C20.2865 72.3552 25.0017 76.9186 25.7891 77.7059C26.5764 78.4932 28.5 80.5 30.167 82.9451C32.8296 86.8506 33.6037 95 34.1037 95.5C34.6037 96 36 94.5 36 94.5H40.724Z" fill="#54B3F3"/>
<path d="M12.0585 38.0676C11.7175 36.3626 12.8458 34.2885 15.9951 34.9183C19.9318 35.7057 22.2937 39.6423 22.2937 42.7916C21.5064 42.2667 19.6168 41.2169 18.3571 41.2169C16.7825 41.2169 12.8458 42.0042 12.0585 38.0676Z" fill="#54B3F3"/>
<path d="M47.4882 13.6606C48.2755 12.8732 50.1651 11.1411 51.4248 10.5113C52.9994 9.72395 55.3614 8.93662 55.3614 7.36197C55.3614 5.78732 52.2121 5 51.4248 5C50.6375 5 48.2755 5 46.7008 7.36197C45.4411 9.25155 46.7008 12.3484 47.4882 13.6606Z" fill="#54B3F3"/>
<path d="M51.4248 47.5155C50.1651 47.5155 50.1126 48.0404 49.0628 48.3028C49.3252 47.778 49.044 45.9503 50.6375 45.1535C52.2121 44.3662 52.9994 44.3662 53.7868 44.3662C54.5741 44.3662 55.3614 44.8471 55.3614 45.9409C55.3614 47.5155 52.9994 47.5155 51.4248 47.5155Z" fill="#54B3F3"/>
</g>
<path d="M36.4658 12.6602C37.8566 12.6602 38.9656 13.0722 39.8193 13.752C40.6583 14.42 41.189 15.2977 41.5273 16.1436C42.1948 17.8122 42.1895 19.5559 42.1895 19.959C42.1895 22.1552 41.3114 24.3152 40.4473 26.5234C39.6174 28.6442 38.7392 30.9354 38.3223 33.6963L38.2451 34.2549C37.8587 37.3459 38.2974 38.5804 38.6436 39.042C38.738 39.1679 38.8391 39.2512 38.9443 39.3086C38.977 39.0795 39.0123 38.7974 39.0518 38.457C39.1859 37.2986 39.3617 35.6155 39.7129 33.6592C40.4144 29.7507 41.8291 24.6618 45.1045 20.1582C48.3763 15.6595 51.6142 14.2172 54.3223 14.335C55.6484 14.3926 56.7738 14.8253 57.627 15.3604C58.4555 15.88 59.1024 16.5447 59.4053 17.1504C59.9358 18.2115 60.1321 19.9005 59.3281 21.7383C58.5203 23.5844 56.7409 25.5051 53.4463 27.1523C50.491 28.6301 48.4611 30.8468 47.2666 32.8682C46.6686 33.8801 46.2926 34.8229 46.1104 35.5732C46.0193 35.9485 45.9816 36.2561 45.9805 36.4883C45.9804 36.5082 45.981 36.5276 45.9814 36.5459C46.3364 36.3917 46.8319 36.0936 47.5488 35.6455C49.1145 34.6669 51.3907 33.213 54.2998 32.3818L54.7432 32.2637C56.9479 31.7186 58.9078 31.8698 60.415 32.4385C61.9668 33.024 63.2235 34.145 63.4365 35.5566C63.5999 36.6397 63.4687 37.5708 62.917 38.4238C62.4709 39.1135 61.7909 39.6802 60.9902 40.2363L60.6396 40.4746C59.8961 40.9703 59.0158 41.2489 58.0879 41.4551C57.1674 41.6596 56.0813 41.8159 54.9355 42.0068C52.7559 42.3701 50.1068 42.8964 46.9561 44.2178L46.3193 44.4932C43.8718 45.5811 42.6363 47.7382 42.1074 50.1514C41.7534 51.7672 41.733 53.4422 41.8672 54.8525C42.6543 54.1357 43.6203 53.3651 44.709 52.6748C46.601 51.4752 48.955 50.4521 51.4248 50.4521C54.2395 50.4521 55.8737 51.0402 56.667 52.1504C57.0632 52.7051 57.1677 53.2865 57.1846 53.7402C57.1929 53.9638 57.1806 54.1662 57.1689 54.3174C57.1551 54.4978 57.1485 54.5542 57.1484 54.6016C57.1484 55.2946 56.8162 56.3768 55.6797 57.2607C54.5559 58.1347 52.7333 58.7509 49.8506 58.751C47.5579 58.751 45.6513 60.2255 44.1504 62.1953C42.849 63.9034 41.9659 65.842 41.5166 67.0469L41.3506 67.5156C41.1951 67.9824 41.0538 68.8629 40.9688 69.9932C40.8856 71.0984 40.8615 72.3637 40.9092 73.5557C40.9557 74.7197 41.0706 75.7681 41.2461 76.5176C41.3206 76.2058 41.3966 75.8268 41.4883 75.3682C41.7748 73.9358 42.205 71.8556 43.6318 70.4287L44.0947 69.9756C45.2 68.917 46.4713 67.8674 47.7031 67.2041C48.4053 66.826 49.1651 66.5346 49.9189 66.4844C50.7089 66.4317 51.5006 66.6481 52.1318 67.2793C52.7729 67.9204 53.0728 68.9176 53.1221 69.9629C53.1728 71.0413 52.9677 72.3116 52.4482 73.6592C51.4376 76.2808 49.2238 79.2368 45.251 81.7676L44.8613 82.0107C44.7403 82.0848 44.55 82.2899 44.3623 82.7842C44.1802 83.2638 44.0438 83.9024 43.9463 84.6738C43.7507 86.2207 43.7356 88.0899 43.7061 89.8809C43.6915 90.7625 43.6731 91.626 43.624 92.3896C43.5758 93.1406 43.4945 93.8596 43.334 94.4326C43.2537 94.7192 43.1393 95.0235 42.9619 95.2891C42.7805 95.5606 42.4929 95.8483 42.0645 95.9717C41.6329 96.0959 41.2254 96.0053 40.9014 95.8535C40.7079 95.7629 40.525 95.6401 40.3496 95.5H36.4102C36.2604 95.6408 36.0628 95.8181 35.8438 95.9844C35.611 96.161 35.2901 96.3768 34.9404 96.499C34.6168 96.612 33.9353 96.7459 33.3965 96.207C33.2017 96.0122 33.1078 95.7704 33.0723 95.6777C33.0202 95.542 32.9745 95.3877 32.9336 95.2344C32.8512 94.9254 32.765 94.5254 32.6729 94.0781C32.4847 93.165 32.263 92.0023 31.9717 90.7217C31.4186 88.2908 30.6558 85.6419 29.5635 83.8545L29.3408 83.5088C27.7247 81.1384 25.8508 79.1819 25.082 78.4131C24.7009 78.032 23.2571 76.6303 22.1699 75.0518C21.6308 74.269 21.1236 73.3657 20.9092 72.4658C20.6888 71.5406 20.7552 70.4724 21.5869 69.6406L21.7002 69.5332C21.9714 69.2903 22.291 69.1021 22.6621 69.0195C23.0941 68.9234 23.5 68.9915 23.8477 69.1387C24.4823 69.4074 24.9976 69.9714 25.3916 70.4658C25.8036 70.9829 26.2258 71.6172 26.6045 72.1592C27.0037 72.7305 27.3688 73.2213 27.7246 73.5771L28.0557 73.917C28.6641 74.5596 29.2019 75.2238 29.6826 75.8418C29.261 73.2654 28.3823 70.7032 27.2969 68.4375C25.7588 65.2268 23.8841 62.7607 22.4961 61.7119C19.514 59.721 17.5397 57.978 16.2949 56.4473C15.0454 54.9106 14.4856 53.5296 14.4531 52.291C14.3868 49.7598 16.4825 48.5156 17.123 48.1953L17.3447 48.0918C19.6472 47.0934 22.1538 48.3237 23.7881 49.958L24.0264 50.2031C25.2022 51.4516 26.1628 53.0136 26.916 54.4258C27.6981 55.8921 28.3546 57.4015 28.6992 58.0908L28.8408 58.3633C29.16 58.9545 29.4039 59.2365 29.5986 59.3535C29.7027 59.416 29.9115 59.5163 30.5068 59.2188C30.4964 59.224 30.5477 59.201 30.6357 59.0654C30.7238 58.9296 30.8199 58.7243 30.9141 58.4365C31.1034 57.8581 31.2424 57.0772 31.3379 56.1699C31.5282 54.3616 31.5293 52.2503 31.5293 50.665C31.5293 47.9249 30.2131 43.7455 28.7744 40.6855L28.4854 40.0898C27.7447 38.6086 27.0313 37.7355 26.3594 37.1475C25.6802 36.5531 25.001 36.2085 24.209 35.8125C23.1722 35.2941 22.7937 34.3273 22.6982 33.5205C22.6046 32.7291 22.7549 31.9482 22.9199 31.4531L22.9736 31.3223C23.3979 30.4737 24.7327 29.1944 27.0176 29.1943L27.2344 29.208C27.7286 29.2721 28.1421 29.5447 28.4434 29.7979C28.8112 30.1071 29.1674 30.5215 29.5049 30.9785C30.183 31.8969 30.8912 33.1343 31.5693 34.4639C31.6781 34.6771 31.7837 34.8952 31.8916 35.1143C31.4343 33.2298 31.0075 31.0657 30.748 28.7305C29.9594 21.6322 29.9541 20.0144 29.9541 19.1719C29.9541 18.6148 30.1918 17.0512 31.0869 15.5967C32.0205 14.0797 33.6935 12.6602 36.4658 12.6602ZM53.7871 43.3662C54.3728 43.3663 55.0143 43.5445 55.5254 43.9893C56.059 44.4537 56.3612 45.1325 56.3613 45.9404C56.3613 46.622 56.0902 47.1866 55.6367 47.5947C55.2191 47.9705 54.6967 48.1715 54.2266 48.2891C53.2964 48.5216 52.1795 48.5156 51.4248 48.5156C50.9798 48.5156 50.8146 48.596 50.6426 48.6895C50.4149 48.8132 49.9888 49.1026 49.3057 49.2734C48.9269 49.3681 48.5276 49.2331 48.2832 48.9287C48.0693 48.6621 48.008 48.3077 48.1133 47.9893L48.1484 47.9023C48.1484 47.9023 48.153 47.8871 48.1602 47.8516C48.1736 47.7851 48.1869 47.6979 48.2051 47.5654C48.2387 47.3209 48.2844 46.9567 48.3828 46.5781C48.5871 45.7921 49.0453 44.8313 50.1904 44.2588L50.5 44.1094C51.2055 43.7794 51.7882 43.589 52.3115 43.4844C52.91 43.3647 53.3919 43.3662 53.7871 43.3662ZM12 34.9209C12.9319 33.96 14.3819 33.5756 16.1914 33.9375L16.6064 34.0322C20.8439 35.1118 23.2939 39.3723 23.2939 42.792C23.2938 43.1606 23.0906 43.4989 22.7656 43.6729C22.4812 43.8251 22.1439 43.8296 21.8584 43.6914L21.7393 43.624C21.3857 43.3883 20.7642 43.0216 20.0918 42.7188C19.3894 42.4024 18.7645 42.2169 18.3574 42.2168C18.1927 42.2168 17.9874 42.227 17.7197 42.2412C17.4621 42.2549 17.1601 42.2718 16.8398 42.2783C16.2023 42.2913 15.4436 42.2673 14.6875 42.0928C13.9255 41.9169 13.1317 41.5805 12.4639 40.9453C11.8737 40.3839 11.4318 39.6368 11.1758 38.6846L11.0781 38.2637C10.8552 37.1488 11.0983 35.8508 12 34.9209ZM60.166 23.9756C62.1311 22.011 64.5745 22.8955 64.8096 22.8955C65.5282 22.8956 66.1631 23.2452 66.5986 23.6807C67.0342 24.1163 67.3838 24.7518 67.3838 25.4707C67.3837 26.0105 67.1163 26.4393 66.8447 26.7305C66.5677 27.0273 66.2124 27.2644 65.8467 27.4473C65.1142 27.8135 64.1733 28.0449 63.2344 28.0449C62.7033 28.045 61.8627 28.161 60.9746 28.3242C60.1056 28.484 59.26 28.676 58.7529 28.8027C58.3742 28.8973 57.9748 28.7625 57.7305 28.458C57.4862 28.1534 57.4416 27.734 57.6162 27.3848C57.9222 26.7729 58.8235 25.3181 60.166 23.9756ZM51.4248 4C51.9949 4.00001 53.1193 4.24325 54.0947 4.67676C54.5936 4.89849 55.1268 5.20134 55.5498 5.60742C55.9771 6.01775 56.3613 6.60603 56.3613 7.3623C56.3612 8.71108 55.3432 9.56159 54.5137 10.0801C53.8873 10.4715 53.0918 10.8331 52.4502 11.1309L51.8721 11.4053C51.3537 11.6645 50.6415 12.19 49.9219 12.793C49.2184 13.3823 48.5705 13.993 48.1953 14.3682C47.9776 14.5857 47.6716 14.6908 47.3662 14.6533C47.0606 14.6157 46.7893 14.4389 46.6309 14.1748C46.1925 13.4442 45.6329 12.2408 45.3496 10.9404C45.0727 9.66929 45.0147 8.08934 45.8691 6.80762L46.0479 6.55078C47.9244 3.98904 50.6249 4 51.4248 4Z" stroke="black" stroke-width="2" stroke-linejoin="round"/>
</g>
<defs>
<filter id="filter0_i_264_451" x="5.00214" y="-3.05176e-05" width="66.3818" height="91.1055" filterUnits="userSpaceOnUse" color-interpolation-filters="sRGB">
<feFlood flood-opacity="0" result="BackgroundImageFix"/>
<feBlend mode="normal" in="SourceGraphic" in2="BackgroundImageFix" result="shape"/>
<feColorMatrix in="SourceAlpha" type="matrix" values="0 0 0 0 0 0 0 0 0 0 0 0 0 0 0 0 0 0 127 0" result="hardAlpha"/>
<feOffset dx="-3" dy="4"/>
<feGaussianBlur stdDeviation="1"/>
<feComposite in2="hardAlpha" operator="arithmetic" k2="-1" k3="1"/>
<feColorMatrix type="matrix" values="0 0 0 0 0.0252778 0 0 0 0 0.390963 0 0 0 0 0.733056 0 0 0 0.62 0"/>
<feBlend mode="normal" in2="shape" result="effect1_innerShadow_264_451"/>
</filter>
<filter id="filter1_i_264_451" x="8.00085" y="2.99999" width="60.3831" height="85.7418" filterUnits="userSpaceOnUse" color-interpolation-filters="sRGB">
<feFlood flood-opacity="0" result="BackgroundImageFix"/>
<feBlend mode="normal" in="SourceGraphic" in2="BackgroundImageFix" result="shape"/>
<feColorMatrix in="SourceAlpha" type="matrix" values="0 0 0 0 0 0 0 0 0 0 0 0 0 0 0 0 0 0 127 0" result="hardAlpha"/>
<feOffset dx="-3" dy="4"/>
<feGaussianBlur stdDeviation="1"/>
<feComposite in2="hardAlpha" operator="arithmetic" k2="-1" k3="1"/>
<feColorMatrix type="matrix" values="0 0 0 0 0.0252778 0 0 0 0 0.390963 0 0 0 0 0.733056 0 0 0 0.62 0"/>
<feBlend mode="normal" in2="shape" result="effect1_innerShadow_264_451"/>
</filter>
<filter id="filter2_i_264_451" x="8.00085" y="2.99999" width="60.3831" height="96.6003" filterUnits="userSpaceOnUse" color-interpolation-filters="sRGB">
<feFlood flood-opacity="0" result="BackgroundImageFix"/>
<feBlend mode="normal" in="SourceGraphic" in2="BackgroundImageFix" result="shape"/>
<feColorMatrix in="SourceAlpha" type="matrix" values="0 0 0 0 0 0 0 0 0 0 0 0 0 0 0 0 0 0 127 0" result="hardAlpha"/>
<feOffset dx="-3" dy="4"/>
<feGaussianBlur stdDeviation="1"/>
<feComposite in2="hardAlpha" operator="arithmetic" k2="-1" k3="1"/>
<feColorMatrix type="matrix" values="0 0 0 0 0.0252778 0 0 0 0 0.390963 0 0 0 0 0.733056 0 0 0 0.62 0"/>
<feBlend mode="normal" in2="shape" result="effect1_innerShadow_264_451"/>
</filter>
</defs>
</svg>
