<svg width="128" height="128" viewBox="0 0 128 128" fill="none" xmlns="http://www.w3.org/2000/svg">
<circle cx="64" cy="64" r="64" fill="#3C4043"/>
<path d="M69.6292 29.75C67.1273 25.4167 60.8727 25.4167 58.3708 29.75L28.926 80.75C26.4241 85.0833 29.5514 90.5 34.5551 90.5H93.4449C98.4486 90.5 101.576 85.0833 99.074 80.75L69.6292 29.75Z" fill="#FEC206" stroke="white" stroke-width="5"/>
<path d="M68.3301 30.5C66.4056 27.1667 61.5944 27.1667 59.6699 30.5L30.225 81.5C28.3005 84.8333 30.7061 89 34.5551 89H93.4449C97.2939 89 99.6995 84.8333 97.775 81.5L68.3301 30.5Z" fill="#FEC206" stroke="black" stroke-width="2"/>
<path d="M63.27 49.185C63.8533 49.185 64.2617 49.36 64.495 49.71C64.7283 50.06 64.845 50.445 64.845 50.865C64.845 51.985 64.7867 53.2567 64.67 54.68C64.5533 56.1033 64.425 57.5967 64.285 59.16C64.145 60.7 64.0167 62.2283 63.9 63.745C63.7833 65.2383 63.725 66.615 63.725 67.875H62.85C62.85 66.615 62.7917 65.2383 62.675 63.745C62.5583 62.2283 62.43 60.7 62.29 59.16C62.15 57.5967 62.0217 56.1033 61.905 54.68C61.7883 53.2567 61.73 51.985 61.73 50.865C61.73 50.445 61.8467 50.06 62.08 49.71C62.3133 49.36 62.71 49.185 63.27 49.185ZM63.27 70.64C63.8067 70.64 64.25 70.8267 64.6 71.2C64.95 71.55 65.125 71.9933 65.125 72.53C65.125 73.0433 64.95 73.475 64.6 73.825C64.25 74.175 63.8067 74.35 63.27 74.35C62.78 74.35 62.3483 74.175 61.975 73.825C61.625 73.475 61.45 73.0433 61.45 72.53C61.45 71.9933 61.625 71.55 61.975 71.2C62.3483 70.8267 62.78 70.64 63.27 70.64Z" fill="black"/>
</svg>
