<svg width="77" height="69" viewBox="0 0 77 69" fill="none" xmlns="http://www.w3.org/2000/svg">
<path d="M32.9414 5.5498C35.5178 1.41754 41.6173 1.4844 44.0801 5.75L73.5244 56.75L73.6377 56.9541C75.9282 61.2515 72.821 66.5 67.8955 66.5H9.00586C4.00222 66.4999 0.875121 61.0833 3.37695 56.75L32.8213 5.75L32.9414 5.5498Z" fill="#FEC206" stroke="white" stroke-width="5"/>
<path d="M34.3096 6.19727C36.3433 3.17 40.9169 3.27086 42.7812 6.5L72.2256 57.5L72.3936 57.8145C73.9988 61.0894 71.6243 65 67.8955 65H9.00586C5.15693 64.9999 2.75133 60.8333 4.67578 57.5L34.1211 6.5L34.3096 6.19727Z" fill="#FEC206" stroke="black" stroke-width="2"/>
<path d="M25 40.784C25 40.024 25.1773 39.3907 25.532 38.884C25.8867 38.3267 26.3933 38.048 27.052 38.048H35.488V29.688C35.488 29.0293 35.7667 28.5227 36.324 28.168C36.8813 27.7627 37.54 27.56 38.3 27.56C40.1747 27.56 41.112 28.2693 41.112 29.688V38.048H49.472C50.1307 38.048 50.6373 38.3267 50.992 38.884C51.3973 39.4413 51.6 40.1 51.6 40.86C51.6 42.7347 50.8907 43.672 49.472 43.672H41.112V52.108C41.112 53.476 40.1493 54.16 38.224 54.16C37.464 54.16 36.8053 53.9827 36.248 53.628C35.7413 53.2733 35.488 52.7667 35.488 52.108V43.672H27.052C25.684 43.672 25 42.7093 25 40.784Z" fill="black"/>
</svg>
