<svg width="83" height="86" viewBox="0 0 83 86" fill="none" xmlns="http://www.w3.org/2000/svg">
<mask id="path-1-outside-1_265_254" maskUnits="userSpaceOnUse" x="0" y="11.7807" width="83" height="74" fill="black">
<rect fill="white" y="11.7807" width="83" height="74"/>
<path d="M20.0272 25.7054V16.7807H5V58.0482H15.1452C19.0508 57.682 20.0272 54.285 20.0272 52.6323L12.094 45.2331L20.0272 42.5633V34.9353H27.3501C26.6178 32.4333 25.2142 30.7908 24.604 30.2822L20.0272 25.7054Z"/>
<path d="M41.7671 40.2745H64.346V79.7876H41.7671V40.2745Z"/>
<path d="M5 61.3281H12.4754V66.0575H5V61.3281Z"/>
<path d="M5 68.0408H16.8997C20.6912 68.0408 23.7649 71.1145 23.7649 74.906V80.2456H5V68.0408Z"/>
<path d="M47.1065 67.2782H49.3949V74.6011H47.1065V67.2782Z"/>
<path d="M56.8705 67.2782H59.1589V74.6011H56.8705V67.2782Z"/>
<path d="M46.4962 44.8518H59.6164V55.2259H46.4962V44.8518Z"/>
<path d="M27.4265 46.53C27.4265 45.6031 28.1778 44.8518 29.1046 44.8518H36.7326C37.6595 44.8518 38.4108 45.6031 38.4108 46.53C38.4108 47.4568 37.6595 48.2081 36.7326 48.2081H29.1046C28.1778 48.2081 27.4265 47.4568 27.4265 46.53Z"/>
<path d="M37.0375 42.2581H39.7836V51.1066H37.0375V42.2581Z"/>
<path d="M68.8038 31.6439C67.9709 31.2989 67.0781 31.1213 66.1766 31.1213V33.1046C66.8177 33.1046 67.4525 33.2309 68.0448 33.4762C68.0834 33.4922 68.1218 33.5086 68.1599 33.5256C68.7069 33.7688 69.2048 34.1107 69.6286 34.5345C70.0524 34.9583 70.3943 35.4562 70.6375 36.0032C70.6544 36.0413 70.6709 36.0797 70.6869 36.1183C70.9322 36.7106 71.031 37.4217 71.031 38.0628H73.0143C73.0143 37.1613 72.8642 36.1922 72.5192 35.3593C72.1742 34.5264 71.6685 33.7696 71.031 33.1321C70.3935 32.4946 69.6367 31.9889 68.8038 31.6439Z"/>
<path d="M70.7012 27.1394C69.2667 26.5452 67.7293 26.2394 66.1766 26.2394V28.2227C66.8444 28.2227 67.5089 28.2907 68.1599 28.4246C68.7685 28.5499 69.3654 28.7328 69.9422 28.9717C71.1361 29.4662 72.2209 30.191 73.1346 31.1048C74.0484 32.0185 74.7732 33.1033 75.2677 34.2972C75.5066 34.874 75.6895 35.4709 75.8148 36.0795C75.9487 36.7305 76.0167 37.395 76.0167 38.0628H78C78 36.5101 77.6942 34.9727 77.1 33.5382C76.5058 32.1037 75.6349 30.8003 74.537 29.7024C73.4391 28.6045 72.1357 27.7336 70.7012 27.1394Z"/>
</mask>
<path d="M20.0272 25.7054V16.7807H5V58.0482H15.1452C19.0508 57.682 20.0272 54.285 20.0272 52.6323L12.094 45.2331L20.0272 42.5633V34.9353H27.3501C26.6178 32.4333 25.2142 30.7908 24.604 30.2822L20.0272 25.7054Z" fill="#F5D8C2"/>
<path d="M41.7671 40.2745H64.346V79.7876H41.7671V40.2745Z" fill="#949EAF"/>
<path d="M5 61.3281H12.4754V66.0575H5V61.3281Z" fill="#EFBE9A"/>
<path d="M5 68.0408H16.8997C20.6912 68.0408 23.7649 71.1145 23.7649 74.906V80.2456H5V68.0408Z" fill="#96CC7F"/>
<path d="M47.1065 67.2782H49.3949V74.6011H47.1065V67.2782Z" fill="#4D5D7A"/>
<path d="M56.8705 67.2782H59.1589V74.6011H56.8705V67.2782Z" fill="#4D5D7A"/>
<path d="M46.4962 44.8518H59.6164V55.2259H46.4962V44.8518Z" fill="#EBF7FE"/>
<path d="M27.4265 46.53C27.4265 45.6031 28.1778 44.8518 29.1046 44.8518H36.7326C37.6595 44.8518 38.4108 45.6031 38.4108 46.53C38.4108 47.4568 37.6595 48.2081 36.7326 48.2081H29.1046C28.1778 48.2081 27.4265 47.4568 27.4265 46.53Z" fill="#4D5D7A"/>
<path d="M37.0375 42.2581H39.7836V51.1066H37.0375V42.2581Z" fill="#EBF7FE"/>
<path d="M68.8038 31.6439C67.9709 31.2989 67.0781 31.1213 66.1766 31.1213V33.1046C66.8177 33.1046 67.4525 33.2309 68.0448 33.4762C68.0834 33.4922 68.1218 33.5086 68.1599 33.5256C68.7069 33.7688 69.2048 34.1107 69.6286 34.5345C70.0524 34.9583 70.3943 35.4562 70.6375 36.0032C70.6544 36.0413 70.6709 36.0797 70.6869 36.1183C70.9322 36.7106 71.031 37.4217 71.031 38.0628H73.0143C73.0143 37.1613 72.8642 36.1922 72.5192 35.3593C72.1742 34.5264 71.6685 33.7696 71.031 33.1321C70.3935 32.4946 69.6367 31.9889 68.8038 31.6439Z" fill="black"/>
<path d="M70.7012 27.1394C69.2667 26.5452 67.7293 26.2394 66.1766 26.2394V28.2227C66.8444 28.2227 67.5089 28.2907 68.1599 28.4246C68.7685 28.5499 69.3654 28.7328 69.9422 28.9717C71.1361 29.4662 72.2209 30.191 73.1346 31.1048C74.0484 32.0185 74.7732 33.1033 75.2677 34.2972C75.5066 34.874 75.6895 35.4709 75.8148 36.0795C75.9487 36.7305 76.0167 37.395 76.0167 38.0628H78C78 36.5101 77.6942 34.9727 77.1 33.5382C76.5058 32.1037 75.6349 30.8003 74.537 29.7024C73.4391 28.6045 72.1357 27.7336 70.7012 27.1394Z" fill="black"/>
<path d="M45.3521 58.7516C43.9714 58.7516 42.8521 59.8709 42.8521 61.2516C42.8521 62.6323 43.9714 63.7516 45.3521 63.7516V58.7516ZM45.3521 61.2516V63.7516H60.6844V61.2516V58.7516H45.3521V61.2516ZM20.0272 16.7807H25.0272V11.7807H20.0272V16.7807ZM20.0272 25.7054H15.0272V27.7765L16.4916 29.241L20.0272 25.7054ZM24.604 30.2822L21.0684 33.8178L21.2288 33.9781L21.403 34.1233L24.604 30.2822ZM27.3501 34.9353V39.9353H34.0232L32.1487 33.5308L27.3501 34.9353ZM20.0272 34.9353V29.9353H15.0272V34.9353H20.0272ZM20.0272 42.5633L21.622 47.3022L25.0272 46.1562V42.5633H20.0272ZM12.094 45.2331L10.4992 40.4943L2.55063 43.1693L8.6837 48.8896L12.094 45.2331ZM20.0272 52.6323H25.0272V50.4585L23.4375 48.9758L20.0272 52.6323ZM15.1452 58.0482V63.0482H15.3791L15.6119 63.0263L15.1452 58.0482ZM5 58.0482H0V63.0482H5V58.0482ZM5 16.7807V11.7807H0V16.7807H5ZM41.7671 40.2745V35.2745H36.7671V40.2745H41.7671ZM64.346 40.2745H69.346V35.2745H64.346V40.2745ZM64.346 79.7876V84.7876H69.346V79.7876H64.346ZM41.7671 79.7876H36.7671V84.7876H41.7671V79.7876ZM5 61.3281V56.3281H0V61.3281H5ZM12.4754 61.3281H17.4754V56.3281H12.4754V61.3281ZM12.4754 66.0575V71.0575H17.4754V66.0575H12.4754ZM5 66.0575H0V71.0575H5V66.0575ZM5 68.0408V63.0408H0V68.0408H5ZM23.7649 80.2456V85.2456H28.7649V80.2456H23.7649ZM5 80.2456H0V85.2456H5V80.2456ZM47.1065 67.2782V62.2782H42.1065V67.2782H47.1065ZM49.3949 67.2782H54.3949V62.2782H49.3949V67.2782ZM49.3949 74.6011V79.6011H54.3949V74.6011H49.3949ZM47.1065 74.6011H42.1065V79.6011H47.1065V74.6011ZM56.8705 67.2782V62.2782H51.8705V67.2782H56.8705ZM59.1589 67.2782H64.1589V62.2782H59.1589V67.2782ZM59.1589 74.6011V79.6011H64.1589V74.6011H59.1589ZM56.8705 74.6011H51.8705V79.6011H56.8705V74.6011ZM46.4962 44.8518V39.8518H41.4962V44.8518H46.4962ZM59.6164 44.8518H64.6164V39.8518H59.6164V44.8518ZM59.6164 55.2259V60.2259H64.6164V55.2259H59.6164ZM46.4962 55.2259H41.4962V60.2259H46.4962V55.2259ZM37.0375 42.2581V37.2581H32.0375V42.2581H37.0375ZM39.7836 42.2581H44.7836V37.2581H39.7836V42.2581ZM39.7836 51.1066V56.1066H44.7836V51.1066H39.7836ZM37.0375 51.1066H32.0375V56.1066H37.0375V51.1066ZM66.1766 31.1213V26.1213H61.1766V31.1213H66.1766ZM68.8038 31.6439L66.8904 36.2633L68.8038 31.6439ZM71.031 33.1321L67.4955 36.6676V36.6676L71.031 33.1321ZM72.5192 35.3593L67.8998 37.2727L67.8998 37.2727L72.5192 35.3593ZM73.0143 38.0628V43.0628H78.0143V38.0628H73.0143ZM70.6869 36.1183L75.3063 34.2049L75.3063 34.2049L70.6869 36.1183ZM70.6375 36.0032L75.2063 33.972L75.2063 33.972L70.6375 36.0032ZM71.031 38.0628H66.031V43.0628H71.031V38.0628ZM66.1766 33.1046H61.1766V38.1046H66.1766V33.1046ZM68.0448 33.4762L69.9583 28.8568L69.9582 28.8568L68.0448 33.4762ZM68.1599 33.5256L70.1911 28.9568L70.1911 28.9568L68.1599 33.5256ZM69.6286 34.5345L66.0931 38.07V38.07L69.6286 34.5345ZM66.1766 26.2394V21.2394H61.1766V26.2394H66.1766ZM70.7012 27.1394L68.7878 31.7588V31.7588L70.7012 27.1394ZM74.537 29.7024L71.0015 33.2379L74.537 29.7024ZM78 38.0628V43.0628H83V38.0628H78ZM76.0167 38.0628H71.0167V43.0628H76.0167V38.0628ZM75.8148 36.0795L80.7122 35.0718V35.0718L75.8148 36.0795ZM66.1766 28.2227H61.1766V33.2227H66.1766V28.2227ZM68.1599 28.4246L67.1521 33.322L68.1599 28.4246ZM69.9422 28.9717L68.0288 33.5911V33.5911L69.9422 28.9717ZM73.1346 31.1048L69.5991 34.6403V34.6403L73.1346 31.1048ZM75.2677 34.2972L79.8871 32.3837V32.3837L75.2677 34.2972ZM20.0272 16.7807H15.0272V25.7054H20.0272H25.0272V16.7807H20.0272ZM20.0272 25.7054L16.4916 29.241L21.0684 33.8178L24.604 30.2822L28.1395 26.7467L23.5627 22.1699L20.0272 25.7054ZM24.604 30.2822L21.403 34.1233C21.2964 34.0345 21.3059 34.0273 21.4057 34.1427C21.492 34.2426 21.6164 34.4003 21.7565 34.6129C22.0388 35.0412 22.3429 35.6277 22.5514 36.3398L27.3501 34.9353L32.1487 33.5308C31.133 30.0602 29.1651 27.5746 27.8049 26.4411L24.604 30.2822ZM27.3501 34.9353V29.9353H20.0272V34.9353V39.9353H27.3501V34.9353ZM20.0272 34.9353H15.0272V42.5633H20.0272H25.0272V34.9353H20.0272ZM20.0272 42.5633L18.4324 37.8245L10.4992 40.4943L12.094 45.2331L13.6888 49.972L21.622 47.3022L20.0272 42.5633ZM12.094 45.2331L8.6837 48.8896L16.6168 56.2887L20.0272 52.6323L23.4375 48.9758L15.5044 41.5767L12.094 45.2331ZM20.0272 52.6323H15.0272C15.0272 52.5988 15.0292 52.6067 15.0234 52.6491C15.0179 52.6892 15.0078 52.7428 14.9914 52.8026C14.9561 52.9314 14.9121 53.0167 14.8868 53.0547C14.8701 53.0799 14.8837 53.0534 14.9281 53.026C14.9458 53.015 14.9472 53.0176 14.9201 53.0265C14.8922 53.0356 14.8166 53.0571 14.6785 53.07L15.1452 58.0482L15.6119 63.0263C19.1727 62.6925 21.7071 60.8586 23.2147 58.5907C24.5875 56.5256 25.0272 54.2561 25.0272 52.6323H20.0272ZM15.1452 58.0482V53.0482H5V58.0482V63.0482H15.1452V58.0482ZM5 58.0482H10V16.7807H5H0V58.0482H5ZM5 16.7807V21.7807H20.0272V16.7807V11.7807H5V16.7807ZM41.7671 40.2745V45.2745H64.346V40.2745V35.2745H41.7671V40.2745ZM64.346 40.2745H59.346V79.7876H64.346H69.346V40.2745H64.346ZM64.346 79.7876V74.7876H41.7671V79.7876V84.7876H64.346V79.7876ZM41.7671 79.7876H46.7671V40.2745H41.7671H36.7671V79.7876H41.7671ZM5 61.3281V66.3281H12.4754V61.3281V56.3281H5V61.3281ZM12.4754 61.3281H7.47544V66.0575H12.4754H17.4754V61.3281H12.4754ZM12.4754 66.0575V61.0575H5V66.0575V71.0575H12.4754V66.0575ZM5 66.0575H10V61.3281H5H0V66.0575H5ZM5 68.0408V73.0408H16.8997V68.0408V63.0408H5V68.0408ZM23.7649 74.906H18.7649V80.2456H23.7649H28.7649V74.906H23.7649ZM23.7649 80.2456V75.2456H5V80.2456V85.2456H23.7649V80.2456ZM5 80.2456H10V68.0408H5H0V80.2456H5ZM16.8997 68.0408V73.0408C17.9298 73.0408 18.7649 73.8759 18.7649 74.906H23.7649H28.7649C28.7649 68.3531 23.4527 63.0408 16.8997 63.0408V68.0408ZM47.1065 67.2782V72.2782H49.3949V67.2782V62.2782H47.1065V67.2782ZM49.3949 67.2782H44.3949V74.6011H49.3949H54.3949V67.2782H49.3949ZM49.3949 74.6011V69.6011H47.1065V74.6011V79.6011H49.3949V74.6011ZM47.1065 74.6011H52.1065V67.2782H47.1065H42.1065V74.6011H47.1065ZM56.8705 67.2782V72.2782H59.1589V67.2782V62.2782H56.8705V67.2782ZM59.1589 67.2782H54.1589V74.6011H59.1589H64.1589V67.2782H59.1589ZM59.1589 74.6011V69.6011H56.8705V74.6011V79.6011H59.1589V74.6011ZM56.8705 74.6011H61.8705V67.2782H56.8705H51.8705V74.6011H56.8705ZM46.4962 44.8518V49.8518H59.6164V44.8518V39.8518H46.4962V44.8518ZM59.6164 44.8518H54.6164V55.2259H59.6164H64.6164V44.8518H59.6164ZM59.6164 55.2259V50.2259H46.4962V55.2259V60.2259H59.6164V55.2259ZM46.4962 55.2259H51.4962V44.8518H46.4962H41.4962V55.2259H46.4962ZM29.1046 44.8518V49.8518H36.7326V44.8518V39.8518H29.1046V44.8518ZM36.7326 48.2081V43.2081H29.1046V48.2081V53.2081H36.7326V48.2081ZM29.1046 48.2081V43.2081C30.9392 43.2081 32.4265 44.6954 32.4265 46.53H27.4265H22.4265C22.4265 50.2182 25.4164 53.2081 29.1046 53.2081V48.2081ZM38.4108 46.53H33.4108C33.4108 44.6954 34.898 43.2081 36.7326 43.2081V48.2081V53.2081C40.4209 53.2081 43.4108 50.2182 43.4108 46.53H38.4108ZM36.7326 44.8518V49.8518C34.898 49.8518 33.4108 48.3646 33.4108 46.53H38.4108H43.4108C43.4108 42.8417 40.4209 39.8518 36.7326 39.8518V44.8518ZM29.1046 44.8518V39.8518C25.4164 39.8518 22.4265 42.8417 22.4265 46.53H27.4265H32.4265C32.4265 48.3646 30.9392 49.8518 29.1046 49.8518V44.8518ZM37.0375 42.2581V47.2581H39.7836V42.2581V37.2581H37.0375V42.2581ZM39.7836 42.2581H34.7836V51.1066H39.7836H44.7836V42.2581H39.7836ZM39.7836 51.1066V46.1066H37.0375V51.1066V56.1066H39.7836V51.1066ZM37.0375 51.1066H42.0375V42.2581H37.0375H32.0375V51.1066H37.0375ZM68.8038 31.6439L70.7172 27.0245C69.2777 26.4282 67.7348 26.1213 66.1766 26.1213V31.1213V36.1213C66.4215 36.1213 66.6641 36.1695 66.8904 36.2633L68.8038 31.6439ZM71.031 33.1321L74.5666 29.5965C73.4648 28.4948 72.1568 27.6208 70.7172 27.0245L68.8038 31.6439L66.8904 36.2633C67.1167 36.357 67.3223 36.4944 67.4955 36.6676L71.031 33.1321ZM72.5192 35.3593L77.1386 33.4459C76.5423 32.0063 75.6683 30.6983 74.5666 29.5965L71.031 33.1321L67.4955 36.6676C67.6687 36.8408 67.8061 37.0464 67.8998 37.2727L72.5192 35.3593ZM73.0143 38.0628H78.0143C78.0143 36.6658 77.79 35.0184 77.1386 33.4459L72.5192 35.3593L67.8998 37.2727C67.9385 37.366 68.0143 37.6567 68.0143 38.0628H73.0143ZM70.6869 36.1183L75.3063 34.2049C75.2739 34.1268 75.2406 34.0491 75.2063 33.972L70.6375 36.0032L66.0687 38.0345C66.0683 38.0335 66.0679 38.0326 66.0675 38.0317L70.6869 36.1183ZM71.031 38.0628H76.031C76.031 36.9929 75.8774 35.5838 75.3063 34.2049L70.6869 36.1183L66.0675 38.0317C66.0533 37.9974 66.043 37.9692 66.0359 37.948C66.0287 37.9268 66.0241 37.911 66.0214 37.9011C66.0162 37.8824 66.0166 37.88 66.0191 37.8948C66.0215 37.9092 66.0247 37.933 66.0272 37.9648C66.0297 37.9965 66.031 38.03 66.031 38.0628H71.031ZM68.0448 33.4762L69.9582 28.8568C68.7593 28.3602 67.4743 28.1046 66.1766 28.1046V33.1046V38.1046C66.1611 38.1046 66.1457 38.1015 66.1314 38.0956L68.0448 33.4762ZM68.1599 33.5256L70.1911 28.9568C70.1141 28.9226 70.0365 28.8892 69.9583 28.8568L68.0448 33.4762L66.1314 38.0956C66.1303 38.0951 66.1294 38.0947 66.1286 38.0944L68.1599 33.5256ZM69.6286 34.5345L73.1642 30.9989C72.3063 30.1411 71.2984 29.449 70.1911 28.9568L68.1599 33.5256L66.1286 38.0944C66.1154 38.0885 66.1034 38.0803 66.0931 38.07L69.6286 34.5345ZM70.6375 36.0032L75.2063 33.972C74.7141 32.8647 74.022 31.8568 73.1642 30.9989L69.6286 34.5345L66.0931 38.07C66.0828 38.0597 66.0746 38.0477 66.0687 38.0345L70.6375 36.0032ZM66.1766 33.1046H71.1766V31.1213H66.1766H61.1766V33.1046H66.1766ZM71.031 38.0628V43.0628H73.0143V38.0628V33.0628H71.031V38.0628ZM70.7012 27.1394L72.6146 22.52C70.5735 21.6746 68.3859 21.2394 66.1766 21.2394V26.2394V31.2394C67.0727 31.2394 67.9599 31.4159 68.7878 31.7588L70.7012 27.1394ZM74.537 29.7024L78.0725 26.1669C76.5103 24.6047 74.6557 23.3655 72.6146 22.52L70.7012 27.1394L68.7878 31.7588C69.6157 32.1017 70.3679 32.6043 71.0015 33.2379L74.537 29.7024ZM77.1 33.5382L81.7194 31.6248C80.8739 29.5837 79.6347 27.7291 78.0725 26.1669L74.537 29.7024L71.0015 33.2379C71.6351 33.8715 72.1377 34.6237 72.4806 35.4516L77.1 33.5382ZM78 38.0628H83C83 35.8535 82.5648 33.6659 81.7194 31.6248L77.1 33.5382L72.4806 35.4516C72.8235 36.2795 73 37.1668 73 38.0628H78ZM76.0167 38.0628H81.0167C81.0167 37.0557 80.9142 36.0536 80.7122 35.0718L75.8148 36.0795L70.9174 37.0873C70.9833 37.4075 71.0167 37.7343 71.0167 38.0628H76.0167ZM68.1599 28.4246L69.1676 23.5272C68.1859 23.3252 67.1838 23.2227 66.1766 23.2227V28.2227V33.2227C66.5051 33.2227 66.8319 33.2561 67.1521 33.322L68.1599 28.4246ZM69.9422 28.9717L71.8557 24.3523C70.9857 23.992 70.0855 23.7161 69.1676 23.5272L68.1599 28.4246L67.1521 33.322C67.4515 33.3836 67.7451 33.4736 68.0288 33.5911L69.9422 28.9717ZM73.1346 31.1048L76.6702 27.5693C75.2921 26.1912 73.6561 25.0981 71.8557 24.3523L69.9422 28.9717L68.0288 33.5911C68.6161 33.8344 69.1496 34.1909 69.5991 34.6403L73.1346 31.1048ZM75.2677 34.2972L79.8871 32.3837C79.1413 30.5833 78.0482 28.9473 76.6702 27.5693L73.1346 31.1048L69.5991 34.6403C70.0485 35.0898 70.405 35.6233 70.6483 36.2106L75.2677 34.2972ZM75.8148 36.0795L80.7122 35.0718C80.5233 34.1539 80.2474 33.2537 79.8871 32.3837L75.2677 34.2972L70.6483 36.2106C70.7658 36.4943 70.8558 36.7879 70.9174 37.0873L75.8148 36.0795ZM66.1766 28.2227H71.1766V26.2394H66.1766H61.1766V28.2227H66.1766ZM76.0167 38.0628V43.0628H78V38.0628V33.0628H76.0167V38.0628Z" fill="white" mask="url(#path-1-outside-1_265_254)"/>
<path d="M25.2168 4.22949C27.4233 2.17518 31.0722 3.75475 31.084 6.76953L31.0723 7.07617L30.4932 14.6895L30.3301 16.8242L28.1963 16.9922L24.4189 17.29L24.3203 17.2969H2.5V10C2.5 8.06701 4.067 6.5 6 6.5H23.1221L25.001 4.44727L25.2168 4.22949Z" fill="#574537" stroke="white" stroke-width="5"/>
<path d="M21.0273 52.6322C21.0273 53.6181 20.7441 55.0821 19.8838 56.3764C18.9964 57.7113 17.5127 58.8301 15.2383 59.0434L15.1924 59.0482H4V15.7807H21.0273V25.2914L25.291 29.5551C26.0654 30.2227 27.5367 32.0141 28.3096 34.6547L28.6846 35.935H21.0273V43.2816L20.3457 43.5111L14.0029 45.6449L20.709 51.9008L21.0273 52.1977V52.6322Z" fill="#F5D8C2" stroke="black" stroke-width="2"/>
<path d="M26.2305 5.33594C27.4913 4.16164 29.5763 5.06422 29.583 6.78711L29.5771 6.96191L28.9971 14.5762L28.9316 15.4297L28.0781 15.4971L24.3008 15.7939L24.2617 15.7969H4V10C4 8.89543 4.89543 8 6 8H23.7832L26.1074 5.45996L26.2305 5.33594Z" fill="#574537" stroke="black" stroke-width="2"/>
<rect x="40.7671" y="39.2745" width="24.5789" height="41.5131" fill="#949EAF" stroke="black" stroke-width="2" stroke-linejoin="round"/>
<rect x="4" y="60.3281" width="9.47544" height="6.72936" fill="#EFBE9A" stroke="black" stroke-width="2"/>
<path d="M17.7646 67.0408L18.125 67.0496C21.8236 67.237 24.7646 70.2956 24.7646 74.0408V81.2459H6C4.89552 81.2459 4.00015 80.3504 4 79.2459V67.0408H17.7646Z" fill="#96CC7F" stroke="black" stroke-width="2"/>
<rect x="46.1065" y="66.2782" width="4.2884" height="9.32288" fill="#4D5D7A" stroke="black" stroke-width="2" stroke-linejoin="round"/>
<rect x="55.8705" y="66.2782" width="4.2884" height="9.32288" fill="#4D5D7A" stroke="black" stroke-width="2" stroke-linejoin="round"/>
<rect x="45.4962" y="43.8518" width="15.1202" height="12.3741" fill="#EBF7FE" stroke="black" stroke-width="2" stroke-linejoin="round"/>
<rect x="26.4265" y="43.8518" width="12.9843" height="5.35632" rx="2.67816" fill="#4D5D7A" stroke="black" stroke-width="2" stroke-linejoin="round"/>
<rect x="36.0375" y="41.2581" width="4.74608" height="10.8485" fill="#EBF7FE" stroke="black" stroke-width="2" stroke-linejoin="round"/>
<path d="M45.3521 61.2516H60.6844" stroke="black" stroke-width="2" stroke-linecap="round"/>
<path d="M70.7012 27.1394C69.2667 26.5452 67.7293 26.2394 66.1766 26.2394V28.2227C66.8444 28.2227 67.5089 28.2907 68.1599 28.4246C68.7685 28.5499 69.3654 28.7328 69.9422 28.9717C71.1361 29.4662 72.2209 30.1911 73.1346 31.1048C74.0483 32.0185 74.7732 33.1033 75.2677 34.2972C75.5066 34.874 75.6895 35.4709 75.8148 36.0795C75.9487 36.7305 76.0167 37.395 76.0167 38.0628H78C78 36.5101 77.6942 34.9727 77.1 33.5382C76.5058 32.1037 75.6349 30.8003 74.537 29.7024C73.4391 28.6045 72.1357 27.7336 70.7012 27.1394Z" fill="black"/>
</svg>
