<svg width="91" height="79" viewBox="0 0 91 79" fill="none" xmlns="http://www.w3.org/2000/svg">
<path d="M50.0666 26.6657L66.1331 33.7871L50.0666 38.9979L34 33.7871L50.0666 26.6657Z" fill="#EF5A1C"/>
<path d="M66.1331 33.7871L50.0666 38.9979L34 33.7871L34 36.5021L50.0666 41.7129L66.1331 36.5021V33.7871Z" fill="#D9D9D9"/>
<path d="M50.877 24.8376L66.2432 31.6481L68.1328 31.0358V32.485L71.7227 34.0768L68.1328 35.2399V37.9557L66.75 38.405L50.6836 43.6149L50.0664 43.8151L49.4492 43.6149L33.3828 38.405L32 37.9557V35.2399L28.4102 34.0768L32 32.485V31.0358L33.8896 31.6481L49.2559 24.8376L50.0664 24.4782L50.877 24.8376Z" stroke="white" stroke-width="4"/>
<path d="M45.4665 5.25684C46.7187 0.844372 53.1147 0.915872 54.2009 5.4707L56.0417 13.1875L56.989 17.1621H56.99L57.3239 18.5664L57.4802 19.2207L58.4275 23.1943H58.4284L58.9187 25.2529L60.1277 30.3213L60.1814 30.6074C60.3676 31.945 59.6441 33.2839 58.3523 33.8135L58.0671 33.9141C56.4492 34.3977 52.6743 35.4394 49.8064 35.4395C47.2967 35.4395 44.0924 34.6416 42.2468 34.1182L41.5456 33.9141C39.9787 33.4457 39.1208 31.845 39.4841 30.3213L40.6931 25.2529L40.7527 25.0049L42.1316 19.2207L42.2907 18.5547L43.57 13.1875L44.0612 11.1289L45.4109 5.4707L45.4665 5.25684Z" fill="#FF4B00" stroke="white" stroke-width="4"/>
<path d="M56.0419 13.1877L57.4804 19.22L57.9189 21.0588L56.1073 21.6008C54.3653 22.1215 52.6069 22.5696 49.8056 22.5696C47.0043 22.5695 45.2459 22.1216 43.5038 21.6008L41.6933 21.0588L42.1317 19.22L43.5702 13.1877L44.0614 11.1292L46.0888 11.7356C46.9039 11.9793 47.1837 12.0491 47.5243 12.0872C47.9268 12.1321 48.4356 12.1351 49.7099 12.135H49.9023L51.3222 12.1282C51.6583 12.1218 51.8858 12.1096 52.0868 12.0872C52.4276 12.0491 52.7077 11.9794 53.5233 11.7356L55.5507 11.1292L56.0419 13.1877Z" fill="white" stroke="white" stroke-width="4"/>
<path d="M58.9187 25.2532L60.1277 30.3215L60.1814 30.6077C60.3675 31.945 59.6438 33.2831 58.3523 33.8127L58.0671 33.9143C56.4492 34.3979 52.6743 35.4396 49.8064 35.4397C47.2968 35.4397 44.0924 34.6419 42.2468 34.1184L41.5456 33.9143C39.9788 33.446 39.121 31.8451 39.4841 30.3215L40.6931 25.2532L41.1843 23.1946L43.2116 23.801C44.841 24.2881 47.5873 25.0051 49.8064 25.0051C52.0256 25.0051 54.7718 24.288 56.4011 23.801L58.4284 23.1946L58.9187 25.2532Z" fill="white" stroke="white" stroke-width="4"/>
<path d="M50.0666 26.6657L66.1331 33.7871L50.0666 38.9979L34 33.7871L50.0666 26.6657Z" fill="#EF5A1C"/>
<path d="M66.1331 33.7871L50.0666 38.9979L34 33.7871L34 36.5021L50.0666 41.7129L66.1331 36.5021V33.7871Z" fill="#D9D9D9"/>
<path d="M50.4717 25.7516L66.1875 32.7175L67.1328 32.4118V33.1364L68.9277 33.9323L67.1328 34.5134V37.2292L66.4414 37.4528L50.375 42.6638L50.0664 42.7643L49.7578 42.6638L33.6914 37.4528L33 37.2292V34.5134L31.2051 33.9323L33 33.1364V32.4118L33.9453 32.7175L49.6611 25.7516L50.0664 25.572L50.4717 25.7516Z" stroke="black" stroke-width="2"/>
<path d="M46.4763 5.375C47.559 2.10282 52.3957 2.21191 53.2282 5.70215L55.0691 13.4199L56.5075 19.4521L57.946 25.4854L58.0564 25.9492L59.155 30.5527L59.1911 30.7451C59.3166 31.6436 58.8304 32.5361 57.9704 32.8887L57.78 32.9561C56.1517 33.4428 52.5087 34.4394 49.8064 34.4395C47.4416 34.4395 44.3561 33.6761 42.531 33.1592L41.8318 32.9561C40.7894 32.6445 40.2124 31.5774 40.4568 30.5527L41.5554 25.9492L41.6657 25.4854L41.9109 24.4561L43.1042 19.4521L43.3493 18.4229L44.5427 13.4199L44.612 13.1279L46.3835 5.70215L46.4763 5.375Z" fill="#FF4B00" stroke="black" stroke-width="2"/>
<path d="M55.0692 13.4192L56.5077 19.4524L56.7265 20.3713L55.8212 20.6428C54.1309 21.1481 52.4749 21.5696 49.8056 21.5696C47.1366 21.5695 45.4811 21.148 43.7909 20.6428L42.8847 20.3713L43.1044 19.4524L44.5429 13.4192L44.788 12.3909L45.8017 12.6936C46.6139 12.9364 46.9732 13.032 47.414 13.0813C47.8855 13.134 48.462 13.1351 49.7099 13.135H49.9023L51.3417 13.1282C51.7005 13.1212 51.9624 13.1076 52.1982 13.0813C52.6389 13.0321 52.9975 12.9363 53.8095 12.6936L54.8232 12.3909L55.0692 13.4192Z" fill="white" stroke="black" stroke-width="2"/>
<path d="M57.946 25.4846L59.155 30.553L59.1911 30.7454C59.3165 31.6438 58.8304 32.5364 57.9704 32.8889L57.78 32.9553C56.1518 33.442 52.5089 34.4396 49.8064 34.4397C47.4416 34.4397 44.3561 33.6764 42.531 33.1594L41.8318 32.9553C40.7895 32.6437 40.2124 31.5776 40.4568 30.553L41.6657 25.4846L41.9109 24.4563L42.9245 24.759C44.5585 25.2474 47.4281 26.0051 49.8064 26.0051C52.1845 26.0051 55.0534 25.2474 56.6872 24.759L57.7009 24.4563L57.946 25.4846Z" fill="white" stroke="black" stroke-width="2"/>
<path d="M65.5 53.9201L86 63.0066L65.5 69.6553L45 63.0066L65.5 53.9201Z" fill="#EF5A1C"/>
<path d="M86 63.0066L65.5 69.6553L45 63.0066L45 66.4708L65.5 73.1194L86 66.4708V63.0066Z" fill="#D9D9D9"/>
<path d="M66.5127 51.635L86.1377 60.3332L88.5 59.5676V61.3791L92.9863 63.3684L88.5 64.8235V68.2883L86.7715 68.8488L66.2715 75.4973L65.5 75.7473L64.7285 75.4973L44.2285 68.8488L42.5 68.2883V64.8235L38.0137 63.3684L42.5 61.3791V59.5676L44.8623 60.3332L64.4873 51.635L65.5 51.1858L66.5127 51.635Z" stroke="white" stroke-width="5"/>
<path d="M59.6807 26.6182C61.264 21.0389 69.3519 21.1286 70.7256 26.8877L73.0732 36.7354L73.6221 39.0332H73.6211L74.6807 43.4727L74.9092 44.4326L76.7451 52.1299L78.2871 58.5967L78.3252 58.7764C78.6647 60.5791 77.6712 62.4249 75.875 63.0596L75.6934 63.1182C73.6285 63.7354 68.8187 65.0634 65.168 65.0635C61.9738 65.0635 57.892 64.0475 55.5381 63.3799L54.6426 63.1182C52.6705 62.5287 51.5906 60.5148 52.0479 58.5967L53.5898 52.1299L53.666 51.8125L55.4258 44.4326L56.0391 41.8594L57.2617 36.7354L57.875 34.1621L59.6104 26.8877L59.6807 26.6182Z" fill="#FF4B00" stroke="white" stroke-width="5"/>
<path d="M73.0736 36.7348L74.9095 44.4321L75.4574 46.7309L73.1937 47.4077C70.9734 48.0714 68.7351 48.6421 65.1673 48.6421C61.5998 48.642 59.3621 48.0713 57.1419 47.4077L54.8783 46.7309L55.4261 44.4321L57.2621 36.7348L57.8753 34.1626L60.4095 34.9194L61.0746 35.1147C61.6355 35.2736 61.9213 35.3337 62.2513 35.3706C62.7684 35.4283 63.4201 35.4322 65.0443 35.4321H65.2904L66.3402 35.4301C67.2328 35.4264 67.6965 35.4139 68.0843 35.3706C68.5243 35.3214 68.8856 35.2304 69.9261 34.9194L72.4603 34.1626L73.0736 36.7348Z" fill="white" stroke="white" stroke-width="5"/>
<path d="M76.7451 52.1296L78.2871 58.5964L78.3252 58.7761C78.6648 60.5789 77.6712 62.4245 75.875 63.0593L75.6934 63.1189C73.6285 63.7361 68.8187 65.0631 65.168 65.0632C61.9737 65.0632 57.892 64.0472 55.5381 63.3796L54.6426 63.1189C52.6705 62.5294 51.5905 60.5146 52.0479 58.5964L53.5898 52.1296L54.2041 49.5573L56.7383 50.3142C58.8175 50.9357 62.3281 51.8532 65.168 51.8532C68.0077 51.8532 71.5175 50.9356 73.5967 50.3142L76.1309 49.5573L76.7451 52.1296Z" fill="white" stroke="white" stroke-width="5"/>
<mask id="path-16-outside-1_267_394" maskUnits="userSpaceOnUse" x="0" y="10" width="52" height="66" fill="black">
<rect fill="white" y="10" width="52" height="66"/>
<path d="M15.8182 29.81C15.8182 29.6822 15.9218 29.5785 16.0496 29.5785H35.6033C35.7311 29.5785 35.8347 29.6822 35.8347 29.81V32.9339C35.8347 33.0617 35.7311 33.1653 35.6033 33.1653H16.0496C15.9218 33.1653 15.8182 33.0617 15.8182 32.9339V29.81Z"/>
<path d="M22.0083 71H6.27273C5.56982 71 5 70.4302 5 69.7273V59.0802C5 55.0326 8.11403 51.6663 12.1494 51.3516L17.3593 50.9453C17.5165 50.933 17.6691 51.0016 17.7643 51.1273L23.627 58.8705C23.7017 58.9692 23.7338 59.0938 23.716 59.2163L22.0083 71Z"/>
<path d="M20.6571 54.637L18.1498 50.9398C17.9072 50.582 18.0693 50.0915 18.4773 49.9487C18.6941 49.8728 18.9348 49.9154 19.1125 50.0611L23.9752 54.0496L21.7816 54.9709C21.3751 55.1416 20.9046 55.0019 20.6571 54.637Z"/>
<path d="M21.4219 49.2284L21.2189 49.6713C21.0379 50.066 21.1558 50.5335 21.5022 50.7954L25.3417 53.6973C25.6646 53.9413 26.1085 53.9473 26.4378 53.7121L30.5269 50.7913C30.8879 50.5334 31.0152 50.0557 30.8304 49.6524L30.636 49.2284C30.5556 49.053 30.5321 48.8568 30.5686 48.6673L30.9363 46.7622C31.0465 46.1911 30.609 45.6611 30.0275 45.6611H22.0304C21.4489 45.6611 21.0114 46.1911 21.1216 46.7622L21.4893 48.6673C21.5258 48.8568 21.5023 49.053 21.4219 49.2284Z"/>
<path d="M18.4215 33.3216V28.9421C18.4215 28.4308 18.8359 28.0164 19.3471 28.0164H32.3058C32.817 28.0164 33.2314 28.4308 33.2314 28.9421V33.3216C33.2314 33.938 33.8226 34.3822 34.4147 34.2106L36.0398 33.7396C36.6319 33.568 37.2231 34.0122 37.2231 34.6286V35.9959C37.2231 36.4092 36.9492 36.7724 36.5518 36.8859L35.4647 37.1965C35.0673 37.3101 34.7913 37.6697 34.752 38.0811C34.5449 40.249 33.3006 46.7602 25.8264 46.7602C18.3523 46.7602 17.108 40.249 16.9009 38.0811C16.8615 37.6697 16.5855 37.3101 16.1882 37.1965L15.1011 36.8859C14.7037 36.7724 14.4297 36.4092 14.4297 35.9959V34.6286C14.4297 34.0122 15.021 33.568 15.613 33.7396L17.2382 34.2106C17.8302 34.3822 18.4215 33.938 18.4215 33.3216Z"/>
<path d="M37.6859 26.3388C37.6859 28.767 32.5317 30.7355 26.1735 30.7355C19.8154 30.7355 14.6611 28.767 14.6611 26.3388C14.6611 23.9105 19.8154 21.9421 26.1735 21.9421C32.5317 21.9421 37.6859 23.9105 37.6859 26.3388Z"/>
<path d="M40 23.2727C40 27.2026 33.6802 25.9917 25.8843 25.9917C18.0884 25.9917 11.7686 27.2026 11.7686 23.2727C11.7686 19.3428 18.0884 15 25.8843 15C33.6802 15 40 19.3428 40 23.2727Z"/>
<path d="M6.40322 55.937C6.04361 55.5736 6.04663 54.9876 6.40997 54.628L8.26536 52.7916C8.62869 52.432 9.21476 52.435 9.57436 52.7984L9.98132 53.2095C10.3409 53.5729 10.3379 54.1589 9.97457 54.5185L8.11918 56.3549C7.75584 56.7145 7.16978 56.7115 6.81017 56.3482L6.40322 55.937Z"/>
<path d="M14.1983 64.8677C14.1983 64.6121 14.4055 64.4049 14.6611 64.4049H18.1973C18.4529 64.4049 18.6601 64.6121 18.6601 64.8677V66.3718C18.6601 66.6274 18.4529 66.8346 18.1973 66.8346H14.6611C14.4055 66.8346 14.1983 66.6274 14.1983 66.3718V64.8677Z"/>
<path d="M25.8843 56.0744L24.2645 56.8843L24.843 57.8678H26.9256L27.5042 56.8843L25.8843 56.0744Z"/>
<path d="M25.3636 59.6611L23.9173 71H27.9669L26.5785 59.6611H25.3636Z"/>
<path d="M29.9339 71H45.6694C46.3723 71 46.9421 70.4302 46.9421 69.7273V59.0802C46.9421 55.0326 43.8281 51.6663 39.7928 51.3516L34.5828 50.9453C34.4256 50.933 34.273 51.0016 34.1778 51.1273L28.3151 58.8705C28.2404 58.9692 28.2083 59.0938 28.2261 59.2163L29.9339 71Z"/>
<path d="M31.285 54.637L33.7923 50.9398C34.0349 50.582 33.8729 50.0915 33.4648 49.9487C33.248 49.8728 33.0073 49.9154 32.8297 50.0611L27.9669 54.0496L30.1605 54.9709C30.567 55.1416 31.0375 55.0019 31.285 54.637Z"/>
<path d="M45.539 55.937C45.8986 55.5736 45.8956 54.9876 45.5322 54.628L43.6768 52.7916C43.3135 52.432 42.7274 52.435 42.3678 52.7984L41.9609 53.2095C41.6013 53.5729 41.6043 54.1589 41.9676 54.5185L43.823 56.3549C44.1864 56.7145 44.7724 56.7115 45.132 56.3482L45.539 55.937Z"/>
<path d="M37.7438 64.8677C37.7438 64.6121 37.5366 64.4049 37.281 64.4049H33.7449C33.4893 64.4049 33.2821 64.6121 33.2821 64.8677V66.3718C33.2821 66.6274 33.4893 66.8346 33.7449 66.8346H37.281C37.5366 66.8346 37.7438 66.6274 37.7438 66.3718V64.8677Z"/>
</mask>
<path d="M15.8182 29.81C15.8182 29.6822 15.9218 29.5785 16.0496 29.5785H35.6033C35.7311 29.5785 35.8347 29.6822 35.8347 29.81V32.9339C35.8347 33.0617 35.7311 33.1653 35.6033 33.1653H16.0496C15.9218 33.1653 15.8182 33.0617 15.8182 32.9339V29.81Z" fill="#F29900"/>
<path d="M22.0083 71H6.27273C5.56982 71 5 70.4302 5 69.7273V59.0802C5 55.0326 8.11403 51.6663 12.1494 51.3516L17.3593 50.9453C17.5165 50.933 17.6691 51.0016 17.7643 51.1273L23.627 58.8705C23.7017 58.9692 23.7338 59.0938 23.716 59.2163L22.0083 71Z" fill="#2D5872"/>
<path d="M20.6571 54.637L18.1498 50.9398C17.9072 50.582 18.0693 50.0915 18.4773 49.9487C18.6941 49.8728 18.9348 49.9154 19.1125 50.0611L23.9752 54.0496L21.7816 54.9709C21.3751 55.1416 20.9046 55.0019 20.6571 54.637Z" fill="#1D4559"/>
<path d="M21.4219 49.2284L21.2189 49.6713C21.0379 50.066 21.1558 50.5335 21.5022 50.7954L25.3417 53.6973C25.6646 53.9413 26.1085 53.9473 26.4378 53.7121L30.5269 50.7913C30.8879 50.5334 31.0152 50.0557 30.8304 49.6524L30.636 49.2284C30.5556 49.053 30.5321 48.8568 30.5686 48.6673L30.9363 46.7622C31.0465 46.1911 30.609 45.6611 30.0275 45.6611H22.0304C21.4489 45.6611 21.0114 46.1911 21.1216 46.7622L21.4893 48.6673C21.5258 48.8568 21.5023 49.053 21.4219 49.2284Z" fill="#FFE7CF"/>
<path d="M18.4215 33.3216V28.9421C18.4215 28.4308 18.8359 28.0164 19.3471 28.0164H32.3058C32.817 28.0164 33.2314 28.4308 33.2314 28.9421V33.3216C33.2314 33.938 33.8226 34.3822 34.4147 34.2106L36.0398 33.7396C36.6319 33.568 37.2231 34.0122 37.2231 34.6286V35.9959C37.2231 36.4092 36.9492 36.7724 36.5518 36.8859L35.4647 37.1965C35.0673 37.3101 34.7913 37.6697 34.752 38.0811C34.5449 40.249 33.3006 46.7602 25.8264 46.7602C18.3523 46.7602 17.108 40.249 16.9009 38.0811C16.8615 37.6697 16.5855 37.3101 16.1882 37.1965L15.1011 36.8859C14.7037 36.7724 14.4297 36.4092 14.4297 35.9959V34.6286C14.4297 34.0122 15.021 33.568 15.613 33.7396L17.2382 34.2106C17.8302 34.3822 18.4215 33.938 18.4215 33.3216Z" fill="#FFE7CF"/>
<path d="M37.6859 26.3388C37.6859 28.767 32.5317 30.7355 26.1735 30.7355C19.8154 30.7355 14.6611 28.767 14.6611 26.3388C14.6611 23.9105 19.8154 21.9421 26.1735 21.9421C32.5317 21.9421 37.6859 23.9105 37.6859 26.3388Z" fill="#183C53"/>
<path d="M40 23.2727C40 27.2026 33.6802 25.9917 25.8843 25.9917C18.0884 25.9917 11.7686 27.2026 11.7686 23.2727C11.7686 19.3428 18.0884 15 25.8843 15C33.6802 15 40 19.3428 40 23.2727Z" fill="#2D5872"/>
<path d="M6.40322 55.937C6.04361 55.5736 6.04663 54.9876 6.40997 54.628L8.26536 52.7916C8.62869 52.432 9.21476 52.435 9.57436 52.7984L9.98132 53.2095C10.3409 53.5729 10.3379 54.1589 9.97457 54.5185L8.11918 56.3549C7.75584 56.7145 7.16978 56.7115 6.81017 56.3482L6.40322 55.937Z" fill="#FFBF14"/>
<path d="M14.1983 64.8677C14.1983 64.6121 14.4055 64.4049 14.6611 64.4049H18.1973C18.4529 64.4049 18.6601 64.6121 18.6601 64.8677V66.3718C18.6601 66.6274 18.4529 66.8346 18.1973 66.8346H14.6611C14.4055 66.8346 14.1983 66.6274 14.1983 66.3718V64.8677Z" fill="#1D4559"/>
<path d="M25.8843 56.0744L24.2645 56.8843L24.843 57.8678H26.9256L27.5042 56.8843L25.8843 56.0744Z" fill="#282C3A"/>
<path d="M25.3636 59.6611L23.9173 71H27.9669L26.5785 59.6611H25.3636Z" fill="#282C3A"/>
<path d="M29.9339 71H45.6694C46.3723 71 46.9421 70.4302 46.9421 69.7273V59.0802C46.9421 55.0326 43.8281 51.6663 39.7928 51.3516L34.5828 50.9453C34.4256 50.933 34.273 51.0016 34.1778 51.1273L28.3151 58.8705C28.2404 58.9692 28.2083 59.0938 28.2261 59.2163L29.9339 71Z" fill="#2D5872"/>
<path d="M31.285 54.637L33.7923 50.9398C34.0349 50.582 33.8729 50.0915 33.4648 49.9487C33.248 49.8728 33.0073 49.9154 32.8297 50.0611L27.9669 54.0496L30.1605 54.9709C30.567 55.1416 31.0375 55.0019 31.285 54.637Z" fill="#1D4559"/>
<path d="M45.539 55.937C45.8986 55.5736 45.8956 54.9876 45.5322 54.628L43.6768 52.7916C43.3135 52.432 42.7274 52.435 42.3678 52.7984L41.9609 53.2095C41.6013 53.5729 41.6043 54.1589 41.9676 54.5185L43.823 56.3549C44.1864 56.7145 44.7724 56.7115 45.132 56.3482L45.539 55.937Z" fill="#FFBF14"/>
<path d="M37.7438 64.8677C37.7438 64.6121 37.5366 64.4049 37.281 64.4049H33.7449C33.4893 64.4049 33.2821 64.6121 33.2821 64.8677V66.3718C33.2821 66.6274 33.4893 66.8346 33.7449 66.8346H37.281C37.5366 66.8346 37.7438 66.6274 37.7438 66.3718V64.8677Z" fill="#1D4559"/>
<path d="M22.0083 71V76H26.3359L26.9566 71.7171L22.0083 71ZM23.716 59.2163L28.6644 59.9334L28.6644 59.9334L23.716 59.2163ZM23.627 58.8705L27.6133 55.8524L27.6133 55.8523L23.627 58.8705ZM17.7643 51.1273L21.7506 48.1091H21.7506L17.7643 51.1273ZM17.3593 50.9453L16.9706 45.9604H16.9706L17.3593 50.9453ZM12.1494 51.3516L12.5381 56.3364L12.5381 56.3364L12.1494 51.3516ZM18.1498 50.9398L22.288 48.1335V48.1335L18.1498 50.9398ZM20.6571 54.637L24.7953 51.8307V51.8307L20.6571 54.637ZM21.7816 54.9709L19.8455 50.361L21.7816 54.9709ZM23.9752 54.0496L25.9114 58.6595L33.5621 55.4462L27.1461 50.1837L23.9752 54.0496ZM19.1125 50.0611L22.2834 46.1951L19.1125 50.0611ZM18.4773 49.9487L20.1291 54.6679L18.4773 49.9487ZM21.2189 49.6713L25.7642 51.7545L25.7642 51.7545L21.2189 49.6713ZM21.4219 49.2284L16.8765 47.1451L16.8765 47.1451L21.4219 49.2284ZM21.4893 48.6673L26.3987 47.7199L21.4893 48.6673ZM21.1216 46.7622L16.2122 47.7096L21.1216 46.7622ZM30.8304 49.6524L35.3757 47.5691L35.3757 47.5691L30.8304 49.6524ZM30.636 49.2284L35.1814 47.1451H35.1814L30.636 49.2284ZM30.5686 48.6673L35.4781 49.6148L30.5686 48.6673ZM30.9363 46.7622L26.0269 45.8147V45.8147L30.9363 46.7622ZM21.5022 50.7954L18.4874 54.7842L21.5022 50.7954ZM25.3417 53.6973L28.3565 49.7085H28.3565L25.3417 53.6973ZM26.4378 53.7121L29.344 57.7807V57.7807L26.4378 53.7121ZM30.5269 50.7913L33.4331 54.8599H33.4331L30.5269 50.7913ZM17.2382 34.2106L15.8462 39.013H15.8462L17.2382 34.2106ZM15.613 33.7396L17.005 28.9373L17.005 28.9373L15.613 33.7396ZM15.1011 36.8859L13.7275 41.6936L13.7275 41.6936L15.1011 36.8859ZM16.1882 37.1965L17.5618 32.3889L17.5618 32.3889L16.1882 37.1965ZM16.9009 38.0811L21.8782 37.6055H21.8782L16.9009 38.0811ZM34.4147 34.2106L33.0227 29.4083L34.4147 34.2106ZM36.0398 33.7396L37.4318 38.5419L36.0398 33.7396ZM36.5518 36.8859L37.9254 41.6936L37.9254 41.6936L36.5518 36.8859ZM35.4647 37.1965L34.0911 32.3889L34.0911 32.3889L35.4647 37.1965ZM34.752 38.0811L29.7747 37.6055L29.7747 37.6055L34.752 38.0811ZM8.11918 56.3549L4.60192 52.8012L4.60192 52.8012L8.11918 56.3549ZM6.81017 56.3482L3.25645 59.8654L3.25646 59.8654L6.81017 56.3482ZM9.98132 53.2095L13.535 49.6923L13.535 49.6923L9.98132 53.2095ZM9.97457 54.5185L13.4918 58.0723H13.4918L9.97457 54.5185ZM8.26536 52.7916L4.7481 49.2379L4.7481 49.2379L8.26536 52.7916ZM9.57436 52.7984L6.02065 56.3156L6.02065 56.3156L9.57436 52.7984ZM6.40997 54.628L9.92723 58.1817H9.92723L6.40997 54.628ZM6.40322 55.937L9.95694 52.4197L9.95693 52.4197L6.40322 55.937ZM24.2645 56.8843L22.0284 52.4122C20.7895 53.0316 19.8631 54.1373 19.47 55.4655C19.077 56.7937 19.2525 58.2255 19.9548 59.4194L24.2645 56.8843ZM25.8843 56.0744L28.1204 51.6022C26.7127 50.8984 25.0559 50.8984 23.6482 51.6022L25.8843 56.0744ZM24.843 57.8678L20.5333 60.4029C21.4317 61.93 23.0712 62.8678 24.843 62.8678V57.8678ZM27.5042 56.8843L31.8138 59.4194C32.5161 58.2255 32.6917 56.7937 32.2986 55.4655C31.9056 54.1373 30.9791 53.0316 29.7402 52.4122L27.5042 56.8843ZM26.9256 57.8678V62.8678C28.6975 62.8678 30.337 61.93 31.2353 60.4029L26.9256 57.8678ZM23.9173 71L18.9575 70.3673L18.2391 76H23.9173V71ZM25.3636 59.6611V54.6611H20.9609L20.4038 59.0285L25.3636 59.6611ZM26.5785 59.6611L31.5414 59.0534L31.0036 54.6611H26.5785V59.6611ZM27.9669 71V76H33.6165L32.9299 70.3923L27.9669 71ZM29.9339 71L24.9856 71.7171L25.6063 76H29.9339V71ZM28.2261 59.2163L23.2778 59.9334L23.2778 59.9334L28.2261 59.2163ZM28.3151 58.8705L24.3288 55.8523L24.3288 55.8524L28.3151 58.8705ZM34.1778 51.1273L30.1915 48.1091L34.1778 51.1273ZM34.5828 50.9453L34.9715 45.9604L34.5828 50.9453ZM39.7928 51.3516L39.404 56.3364L39.404 56.3364L39.7928 51.3516ZM33.7923 50.9398L29.6541 48.1335V48.1335L33.7923 50.9398ZM31.285 54.637L35.4232 57.4434L31.285 54.637ZM30.1605 54.9709L32.0967 50.361H32.0967L30.1605 54.9709ZM27.9669 54.0496L24.796 50.1837L18.38 55.4462L26.0308 58.6595L27.9669 54.0496ZM32.8297 50.0611L29.6587 46.1951L32.8297 50.0611ZM33.4648 49.9487L31.8131 54.6679L33.4648 49.9487ZM43.823 56.3549L47.3403 52.8012V52.8012L43.823 56.3549ZM45.132 56.3482L48.6857 59.8654L45.132 56.3482ZM41.9609 53.2095L38.4072 49.6923L38.4072 49.6923L41.9609 53.2095ZM41.9676 54.5185L38.4504 58.0723L41.9676 54.5185ZM43.6768 52.7916L47.1941 49.2379L47.1941 49.2379L43.6768 52.7916ZM42.3678 52.7984L45.9215 56.3156L45.9215 56.3156L42.3678 52.7984ZM45.5322 54.628L42.015 58.1817H42.015L45.5322 54.628ZM45.539 55.937L41.9853 52.4197L41.9853 52.4197L45.539 55.937ZM16.0496 29.5785V34.5785H35.6033V29.5785V24.5785H16.0496V29.5785ZM35.8347 29.81H30.8347V32.9339H35.8347H40.8347V29.81H35.8347ZM35.6033 33.1653V28.1653H16.0496V33.1653V38.1653H35.6033V33.1653ZM15.8182 32.9339H20.8182V29.81H15.8182H10.8182V32.9339H15.8182ZM16.0496 33.1653V28.1653C18.6832 28.1653 20.8182 30.3003 20.8182 32.9339H15.8182H10.8182C10.8182 35.8231 13.1604 38.1653 16.0496 38.1653V33.1653ZM35.8347 32.9339H30.8347C30.8347 30.3004 32.9696 28.1653 35.6033 28.1653V33.1653V38.1653C38.4926 38.1653 40.8347 35.8231 40.8347 32.9339H35.8347ZM35.6033 29.5785V34.5785C32.9696 34.5785 30.8347 32.4435 30.8347 29.81H35.8347H40.8347C40.8347 26.9208 38.4926 24.5785 35.6033 24.5785V29.5785ZM16.0496 29.5785V24.5785C13.1604 24.5785 10.8182 26.9207 10.8182 29.81H15.8182H20.8182C20.8182 32.4436 18.6832 34.5785 16.0496 34.5785V29.5785ZM6.27273 71V76H22.0083V71V66H6.27273V71ZM22.0083 71L26.9566 71.7171L28.6644 59.9334L23.716 59.2163L18.7677 58.4991L17.06 70.2829L22.0083 71ZM23.627 58.8705L27.6133 55.8523L21.7506 48.1091L17.7643 51.1273L13.778 54.1455L19.6407 61.8887L23.627 58.8705ZM17.3593 50.9453L16.9706 45.9604L11.7606 46.3667L12.1494 51.3516L12.5381 56.3364L17.7481 55.9302L17.3593 50.9453ZM5 59.0802H0V69.7273H5H10V59.0802H5ZM12.1494 51.3516L11.7606 46.3667C5.12254 46.8844 0 52.4219 0 59.0802H5H10C10 57.6432 11.1055 56.4482 12.5381 56.3364L12.1494 51.3516ZM17.7643 51.1273L21.7506 48.1091C20.6273 46.6255 18.8259 45.8157 16.9706 45.9604L17.3593 50.9453L17.7481 55.9302C16.2071 56.0503 14.711 55.3778 13.778 54.1455L17.7643 51.1273ZM23.716 59.2163L28.6644 59.9334C28.8739 58.4873 28.4954 57.0174 27.6133 55.8524L23.627 58.8705L19.6407 61.8887C18.9081 60.9211 18.5937 59.7003 18.7677 58.4991L23.716 59.2163ZM6.27273 71V66C8.33123 66 10 67.6687 10 69.7273H5H0C0 73.1916 2.80841 76 6.27273 76V71ZM18.1498 50.9398L14.0117 53.7462L16.519 57.4434L20.6571 54.637L24.7953 51.8307L22.288 48.1335L18.1498 50.9398ZM21.7816 54.9709L23.7178 59.5808L25.9114 58.6595L23.9752 54.0496L22.039 49.4397L19.8455 50.361L21.7816 54.9709ZM23.9752 54.0496L27.1461 50.1837L22.2834 46.1951L19.1125 50.0611L15.9415 53.927L20.8043 57.9155L23.9752 54.0496ZM19.1125 50.0611L22.2834 46.1951C20.7571 44.9432 18.6887 44.5773 16.8256 45.2294L18.4773 49.9487L20.1291 54.6679C18.6996 55.1683 17.1126 54.8875 15.9416 53.927L19.1125 50.0611ZM20.6571 54.637L16.519 57.4434C18.1032 59.7795 21.1154 60.6738 23.7178 59.5808L21.7816 54.9709L19.8455 50.361C21.6349 49.6094 23.706 50.2244 24.7953 51.8307L20.6571 54.637ZM18.1498 50.9398L22.288 48.1335C23.8876 50.4923 22.8191 53.7264 20.1291 54.6679L18.4773 49.9487L16.8256 45.2294C13.3195 46.4565 11.9268 50.6718 14.0117 53.7462L18.1498 50.9398ZM21.2189 49.6713L25.7642 51.7545L25.9672 51.3116L21.4219 49.2284L16.8765 47.1451L16.6735 47.588L21.2189 49.6713ZM21.4893 48.6673L26.3987 47.7199L26.031 45.8147L21.1216 46.7622L16.2122 47.7096L16.5798 49.6148L21.4893 48.6673ZM30.8304 49.6524L35.3757 47.5691L35.1814 47.1451L30.636 49.2284L26.0907 51.3117L26.2851 51.7357L30.8304 49.6524ZM30.5686 48.6673L35.4781 49.6148L35.8457 47.7096L30.9363 46.7622L26.0269 45.8147L25.6592 47.7199L30.5686 48.6673ZM30.636 49.2284L35.1814 47.1451C35.5353 47.9173 35.639 48.7808 35.4781 49.6148L30.5686 48.6673L25.6592 47.7199C25.4252 48.9328 25.576 50.1886 26.0907 51.3117L30.636 49.2284ZM21.5022 50.7954L18.4874 54.7842L22.3269 57.6861L25.3417 53.6973L28.3565 49.7085L24.517 46.8065L21.5022 50.7954ZM26.4378 53.7121L29.344 57.7807L33.4331 54.8599L30.5269 50.7913L27.6208 46.7226L23.5316 49.6434L26.4378 53.7121ZM22.0304 45.6611V50.6611H30.0275V45.6611V40.6611H22.0304V45.6611ZM25.3417 53.6973L22.3269 57.6861C24.3937 59.2483 27.2358 59.2866 29.344 57.7807L26.4378 53.7121L23.5316 49.6434C24.9812 48.608 26.9354 48.6343 28.3565 49.7085L25.3417 53.6973ZM30.8304 49.6524L26.2851 51.7357C25.4714 49.9605 26.0317 47.8576 27.6208 46.7226L30.5269 50.7913L33.4331 54.8599C35.7442 53.2092 36.559 50.1509 35.3757 47.5691L30.8304 49.6524ZM21.1216 46.7622L26.031 45.8147C26.5161 48.3282 24.5904 50.6611 22.0304 50.6611V45.6611V40.6611C18.3074 40.6611 15.5067 44.054 16.2122 47.7096L21.1216 46.7622ZM30.9363 46.7622L35.8457 47.7096C36.5512 44.054 33.7505 40.6611 30.0275 40.6611V45.6611V50.6611C27.4675 50.6611 25.5418 48.3282 26.0269 45.8147L30.9363 46.7622ZM21.4219 49.2284L25.9672 51.3117C26.4819 50.1887 26.6328 48.9329 26.3987 47.7199L21.4893 48.6673L16.5798 49.6148C16.4189 48.7807 16.5226 47.9173 16.8765 47.1451L21.4219 49.2284ZM21.2189 49.6713L16.6736 47.588C15.5152 50.1152 16.2696 53.1079 18.4874 54.7842L21.5022 50.7954L24.517 46.8065C26.042 47.9591 26.5606 50.0168 25.7642 51.7545L21.2189 49.6713ZM18.4215 28.9421H13.4215V33.3216H18.4215H23.4215V28.9421H18.4215ZM17.2382 34.2106L18.6301 29.4083L17.005 28.9373L15.613 33.7396L14.2211 38.5419L15.8462 39.013L17.2382 34.2106ZM14.4297 34.6286H9.42973V35.9959H14.4297H19.4297V34.6286H14.4297ZM15.1011 36.8859L13.7275 41.6936L14.8146 42.0041L16.1882 37.1965L17.5618 32.3889L16.4747 32.0783L15.1011 36.8859ZM16.9009 38.0811L11.9235 38.5566C12.0594 39.9787 12.5399 43.1119 14.4837 46.0152C16.6294 49.2202 20.3269 51.7602 25.8264 51.7602V46.7602V41.7602C24.7088 41.7602 24.0742 41.5242 23.7182 41.3284C23.3529 41.1273 23.0553 40.8433 22.7933 40.452C22.1946 39.5577 21.9494 38.3513 21.8782 37.6055L16.9009 38.0811ZM33.2314 28.9421H28.2314V33.3216H33.2314H38.2314V28.9421H33.2314ZM34.4147 34.2106L35.8067 39.013L37.4318 38.5419L36.0398 33.7396L34.6478 28.9373L33.0227 29.4083L34.4147 34.2106ZM37.2231 34.6286H32.2231V35.9959H37.2231H42.2231V34.6286H37.2231ZM36.5518 36.8859L35.1782 32.0783L34.0911 32.3889L35.4647 37.1965L36.8383 42.0041L37.9254 41.6936L36.5518 36.8859ZM34.752 38.0811L29.7747 37.6055C29.7034 38.3513 29.4582 39.5577 28.8595 40.452C28.5975 40.8433 28.3 41.1273 27.9347 41.3284C27.5787 41.5242 26.944 41.7602 25.8264 41.7602V46.7602V51.7602C31.326 51.7602 35.0235 49.2202 37.1692 46.0152C39.1129 43.1119 39.5935 39.9787 39.7293 38.5566L34.752 38.0811ZM19.3471 28.0164V33.0164H32.3058V28.0164V23.0164H19.3471V28.0164ZM35.4647 37.1965L34.0911 32.3889C31.545 33.1164 29.9922 35.3288 29.7747 37.6055L34.752 38.0811L39.7293 38.5566C39.5904 40.0105 38.5897 41.5038 36.8383 42.0041L35.4647 37.1965ZM37.2231 35.9959H32.2231C32.2231 34.1768 33.429 32.5781 35.1782 32.0783L36.5518 36.8859L37.9254 41.6936C40.4693 40.9667 42.2231 38.6416 42.2231 35.9959H37.2231ZM36.0398 33.7396L37.4318 38.5419C34.8256 39.2973 32.2231 37.342 32.2231 34.6286H37.2231H42.2231C42.2231 30.6823 38.4381 27.8386 34.6478 28.9373L36.0398 33.7396ZM33.2314 33.3216H28.2314C28.2314 37.2679 32.0164 40.1116 35.8067 39.013L34.4147 34.2106L33.0227 29.4083C35.6288 28.6529 38.2314 30.6082 38.2314 33.3216H33.2314ZM33.2314 28.9421H38.2314C38.2314 25.6694 35.5784 23.0164 32.3058 23.0164V28.0164V33.0164C30.0555 33.0164 28.2314 31.1923 28.2314 28.9421H33.2314ZM16.1882 37.1965L14.8145 42.0041C13.0632 41.5038 12.0624 40.0105 11.9235 38.5566L16.9009 38.0811L21.8782 37.6055C21.6607 35.3288 20.1079 33.1164 17.5618 32.3889L16.1882 37.1965ZM14.4297 35.9959H9.42973C9.42973 38.6416 11.1836 40.9667 13.7275 41.6936L15.1011 36.8859L16.4747 32.0783C18.2238 32.5781 19.4297 34.1768 19.4297 35.9959H14.4297ZM15.613 33.7396L17.005 28.9373C13.2148 27.8386 9.42973 30.6823 9.42973 34.6286H14.4297H19.4297C19.4297 37.342 16.8272 39.2973 14.2211 38.5419L15.613 33.7396ZM18.4215 33.3216H13.4215C13.4215 30.6082 16.024 28.6529 18.6301 29.4083L17.2382 34.2106L15.8462 39.013C19.6365 40.1116 23.4215 37.2679 23.4215 33.3216H18.4215ZM18.4215 28.9421H23.4215C23.4215 31.1923 21.5973 33.0164 19.3471 33.0164V28.0164V23.0164C16.0745 23.0164 13.4215 25.6694 13.4215 28.9421H18.4215ZM37.6859 26.3388H32.6859C32.6859 25.0386 33.3948 24.3712 33.4304 24.3391C33.4665 24.3065 33.238 24.5064 32.5301 24.7767C31.1488 25.3043 28.9029 25.7355 26.1735 25.7355V30.7355V35.7355C29.8023 35.7355 33.3126 35.1824 36.0979 34.1186C37.4734 33.5933 38.9309 32.8458 40.1321 31.7612C41.3328 30.677 42.6859 28.853 42.6859 26.3388H37.6859ZM26.1735 30.7355V25.7355C23.4442 25.7355 21.1982 25.3043 19.8169 24.7767C19.1091 24.5064 18.8806 24.3065 18.9167 24.3391C18.9523 24.3712 19.6611 25.0386 19.6611 26.3388H14.6611H9.66114C9.66114 28.853 11.0143 30.677 12.215 31.7612C13.4162 32.8458 14.8737 33.5933 16.2492 34.1186C19.0345 35.1824 22.5447 35.7355 26.1735 35.7355V30.7355ZM14.6611 26.3388H19.6611C19.6611 27.6389 18.9523 28.3063 18.9167 28.3384C18.8806 28.371 19.1091 28.1711 19.8169 27.9008C21.1982 27.3732 23.4442 26.9421 26.1735 26.9421V21.9421V16.9421C22.5447 16.9421 19.0345 17.4951 16.2492 18.5589C14.8737 19.0842 13.4162 19.8317 12.215 20.9163C11.0143 22.0005 9.66114 23.8245 9.66114 26.3388H14.6611ZM26.1735 21.9421V26.9421C28.9029 26.9421 31.1488 27.3732 32.5301 27.9008C33.238 28.1711 33.4665 28.371 33.4304 28.3384C33.3948 28.3063 32.6859 27.6389 32.6859 26.3388H37.6859H42.6859C42.6859 23.8245 41.3328 22.0005 40.1321 20.9163C38.9309 19.8317 37.4734 19.0842 36.0979 18.5589C33.3126 17.4951 29.8023 16.9421 26.1735 16.9421V21.9421ZM40 23.2727H35C35 23.0817 35.0433 22.6351 35.3288 22.1143C35.6191 21.5848 36.0054 21.26 36.2721 21.096C36.6232 20.8802 36.5998 21.0382 35.4976 21.1195C34.5169 21.1919 33.2435 21.1747 31.533 21.1219C29.9068 21.0717 27.9339 20.9917 25.8843 20.9917V25.9917V30.9917C27.7326 30.9917 29.4731 31.0631 31.2245 31.1172C32.8916 31.1686 34.6599 31.2085 36.2336 31.0924C37.6859 30.9852 39.7296 30.709 41.5093 29.615C42.4903 29.0119 43.4312 28.137 44.0976 26.9214C44.7592 25.7146 45 24.4462 45 23.2727H40ZM25.8843 25.9917V20.9917C23.8347 20.9917 21.8618 21.0717 20.2356 21.1219C18.5251 21.1747 17.2517 21.1919 16.271 21.1195C15.1688 21.0382 15.1454 20.8802 15.4964 21.096C15.7632 21.26 16.1495 21.5848 16.4398 22.1143C16.7253 22.6351 16.7686 23.0817 16.7686 23.2727H11.7686H6.76859C6.76859 24.4462 7.00939 25.7146 7.67099 26.9214C8.33735 28.137 9.27829 29.0119 10.2593 29.615C12.039 30.709 14.0827 30.9852 15.535 31.0924C17.1087 31.2085 18.877 31.1686 20.5441 31.1172C22.2955 31.0631 24.036 30.9917 25.8843 30.9917V25.9917ZM11.7686 23.2727H16.7686C16.7686 23.9211 16.5026 23.1685 18.5295 21.9172C20.2601 20.8489 22.8728 20 25.8843 20V15V10C21.0999 10 16.6547 11.3226 13.2765 13.4081C10.1945 15.3107 6.76859 18.6945 6.76859 23.2727H11.7686ZM25.8843 15V20C28.8958 20 31.5085 20.8489 33.2391 21.9172C35.266 23.1685 35 23.9211 35 23.2727H40H45C45 18.6945 41.5741 15.3107 38.4921 13.4081C35.1139 11.3226 30.6687 10 25.8843 10V15ZM6.40997 54.628L9.92723 58.1817L11.7826 56.3453L8.26536 52.7916L4.7481 49.2379L2.89271 51.0743L6.40997 54.628ZM9.57436 52.7984L6.02065 56.3156L6.42761 56.7268L9.98132 53.2095L13.535 49.6923L13.1281 49.2811L9.57436 52.7984ZM9.97457 54.5185L6.45731 50.9648L4.60192 52.8012L8.11918 56.3549L11.6364 59.9086L13.4918 58.0723L9.97457 54.5185ZM6.81017 56.3482L10.3639 52.8309L9.95694 52.4197L6.40322 55.937L2.8495 59.4542L3.25645 59.8654L6.81017 56.3482ZM8.11918 56.3549L4.60192 52.8012C6.20124 51.2183 8.78096 51.2316 10.3639 52.8309L6.81017 56.3482L3.25646 59.8654C5.5586 62.1914 9.31044 62.2107 11.6364 59.9086L8.11918 56.3549ZM9.98132 53.2095L6.4276 56.7268C4.84468 55.1275 4.85799 52.5477 6.45731 50.9648L9.97457 54.5185L13.4918 58.0723C15.8178 55.7701 15.8372 52.0183 13.535 49.6923L9.98132 53.2095ZM8.26536 52.7916L11.7826 56.3453C10.1833 57.9283 7.60356 57.9149 6.02065 56.3156L9.57436 52.7984L13.1281 49.2811C10.826 46.9551 7.07411 46.9357 4.7481 49.2379L8.26536 52.7916ZM6.40997 54.628L2.89271 51.0743C0.566713 53.3764 0.547363 57.1282 2.8495 59.4542L6.40322 55.937L9.95693 52.4197C11.5399 54.019 11.5265 56.5988 9.92723 58.1817L6.40997 54.628ZM14.6611 64.4049V69.4049H18.1973V64.4049V59.4049H14.6611V64.4049ZM18.6601 64.8677H13.6601V66.3718H18.6601H23.6601V64.8677H18.6601ZM18.1973 66.8346V61.8346H14.6611V66.8346V71.8346H18.1973V66.8346ZM14.1983 66.3718H19.1983V64.8677H14.1983H9.19833V66.3718H14.1983ZM14.6611 66.8346V61.8346C17.167 61.8346 19.1983 63.866 19.1983 66.3718H14.1983H9.19833C9.19833 69.3888 11.6441 71.8346 14.6611 71.8346V66.8346ZM18.6601 66.3718H13.6601C13.6601 63.866 15.6914 61.8346 18.1973 61.8346V66.8346V71.8346C21.2143 71.8346 23.6601 69.3888 23.6601 66.3718H18.6601ZM18.1973 64.4049V69.4049C15.6914 69.4049 13.6601 67.3735 13.6601 64.8677H18.6601H23.6601C23.6601 61.8507 21.2143 59.4049 18.1973 59.4049V64.4049ZM14.6611 64.4049V59.4049C11.6441 59.4049 9.19833 61.8507 9.19833 64.8677H14.1983H19.1983C19.1983 67.3735 17.167 69.4049 14.6611 69.4049V64.4049ZM24.2645 56.8843L26.5006 61.3564L28.1204 60.5465L25.8843 56.0744L23.6482 51.6022L22.0284 52.4122L24.2645 56.8843ZM24.2645 56.8843L19.9548 59.4194L20.5333 60.4029L24.843 57.8678L29.1527 55.3327L28.5742 54.3492L24.2645 56.8843ZM27.5042 56.8843L29.7402 52.4122L28.1204 51.6022L25.8843 56.0744L23.6482 60.5465L25.2681 61.3564L27.5042 56.8843ZM27.5042 56.8843L23.1945 54.3492L22.616 55.3327L26.9256 57.8678L31.2353 60.4029L31.8138 59.4194L27.5042 56.8843ZM23.9173 71L28.8772 71.6326L30.3234 60.2938L25.3636 59.6611L20.4038 59.0285L18.9575 70.3673L23.9173 71ZM25.3636 59.6611V64.6611H26.5785V59.6611V54.6611H25.3636V59.6611ZM26.5785 59.6611L21.6156 60.2688L23.004 71.6077L27.9669 71L32.9299 70.3923L31.5414 59.0534L26.5785 59.6611ZM27.9669 71V66H23.9173V71V76H27.9669V71ZM45.6694 71V66H29.9339V71V76H45.6694V71ZM29.9339 71L34.8822 70.2829L33.1744 58.4991L28.2261 59.2163L23.2778 59.9334L24.9856 71.7171L29.9339 71ZM28.3151 58.8705L32.3014 61.8887L38.1641 54.1455L34.1778 51.1273L30.1915 48.1091L24.3288 55.8523L28.3151 58.8705ZM34.5828 50.9453L34.1941 55.9302L39.404 56.3364L39.7928 51.3516L40.1815 46.3667L34.9715 45.9604L34.5828 50.9453ZM46.9421 59.0802H41.9421V69.7273H46.9421H51.9421V59.0802H46.9421ZM39.7928 51.3516L39.404 56.3364C40.8366 56.4482 41.9421 57.6432 41.9421 59.0802H46.9421H51.9421C51.9421 52.4219 46.8196 46.8844 40.1815 46.3667L39.7928 51.3516ZM34.1778 51.1273L38.1641 54.1455C37.2311 55.3778 35.735 56.0503 34.1941 55.9302L34.5828 50.9453L34.9715 45.9604C33.1162 45.8157 31.3149 46.6255 30.1915 48.1091L34.1778 51.1273ZM28.2261 59.2163L33.1744 58.4991C33.3485 59.7003 33.0341 60.9211 32.3014 61.8887L28.3151 58.8705L24.3288 55.8524C23.4467 57.0174 23.0682 58.4873 23.2778 59.9334L28.2261 59.2163ZM45.6694 71V76C49.1337 76 51.9421 73.1916 51.9421 69.7273H46.9421H41.9421C41.9421 67.6687 43.6109 66 45.6694 66V71ZM33.7923 50.9398L29.6541 48.1335L27.1468 51.8307L31.285 54.637L35.4232 57.4434L37.9305 53.7462L33.7923 50.9398ZM30.1605 54.9709L32.0967 50.361L29.9031 49.4397L27.9669 54.0496L26.0308 58.6595L28.2243 59.5808L30.1605 54.9709ZM27.9669 54.0496L31.1378 57.9155L36.0006 53.927L32.8297 50.0611L29.6587 46.1951L24.796 50.1837L27.9669 54.0496ZM32.8297 50.0611L36.0006 53.927C34.8295 54.8875 33.2426 55.1683 31.8131 54.6679L33.4648 49.9487L35.1166 45.2294C33.2534 44.5773 31.185 44.9432 29.6587 46.1951L32.8297 50.0611ZM31.285 54.637L27.1468 51.8307C28.2361 50.2244 30.3073 49.6094 32.0967 50.361L30.1605 54.9709L28.2243 59.5808C30.8267 60.6738 33.8389 59.7795 35.4232 57.4434L31.285 54.637ZM33.7923 50.9398L37.9305 53.7462C40.0154 50.6718 38.6227 46.4565 35.1166 45.2294L33.4648 49.9487L31.8131 54.6679C29.123 53.7264 28.0545 50.4923 29.6541 48.1335L33.7923 50.9398ZM45.5322 54.628L49.0495 51.0743L47.1941 49.2379L43.6768 52.7916L40.1596 56.3453L42.015 58.1817L45.5322 54.628ZM42.3678 52.7984L38.8141 49.2811L38.4072 49.6923L41.9609 53.2095L45.5146 56.7268L45.9215 56.3156L42.3678 52.7984ZM41.9676 54.5185L38.4504 58.0723L40.3058 59.9086L43.823 56.3549L47.3403 52.8012L45.4849 50.9648L41.9676 54.5185ZM45.132 56.3482L48.6857 59.8654L49.0927 59.4542L45.539 55.937L41.9853 52.4197L41.5783 52.8309L45.132 56.3482ZM43.823 56.3549L40.3058 59.9086C42.6318 62.2107 46.3836 62.1914 48.6857 59.8654L45.132 56.3482L41.5783 52.8309C43.1612 51.2316 45.741 51.2183 47.3403 52.8012L43.823 56.3549ZM41.9609 53.2095L38.4072 49.6923C36.105 52.0183 36.1244 55.7701 38.4504 58.0723L41.9676 54.5185L45.4849 50.9648C47.0842 52.5477 47.0975 55.1275 45.5146 56.7268L41.9609 53.2095ZM43.6768 52.7916L47.1941 49.2379C44.8681 46.9357 41.1162 46.9551 38.8141 49.2811L42.3678 52.7984L45.9215 56.3156C44.3386 57.9149 41.7589 57.9283 40.1596 56.3453L43.6768 52.7916ZM45.5322 54.628L42.015 58.1817C40.4156 56.5988 40.4023 54.019 41.9853 52.4197L45.539 55.937L49.0927 59.4542C51.3948 57.1282 51.3755 53.3764 49.0495 51.0743L45.5322 54.628ZM37.281 64.4049V59.4049H33.7449V64.4049V69.4049H37.281V64.4049ZM33.2821 64.8677H28.2821V66.3718H33.2821H38.2821V64.8677H33.2821ZM33.7449 66.8346V71.8346H37.281V66.8346V61.8346H33.7449V66.8346ZM37.7438 66.3718H42.7438V64.8677H37.7438H32.7438V66.3718H37.7438ZM37.281 66.8346V71.8346C40.298 71.8346 42.7438 69.3888 42.7438 66.3718H37.7438H32.7438C32.7438 63.866 34.7752 61.8346 37.281 61.8346V66.8346ZM33.2821 66.3718H28.2821C28.2821 69.3888 30.7278 71.8346 33.7449 71.8346V66.8346V61.8346C36.2507 61.8346 38.2821 63.866 38.2821 66.3718H33.2821ZM33.7449 64.4049V59.4049C30.7278 59.4049 28.2821 61.8507 28.2821 64.8677H33.2821H38.2821C38.2821 67.3735 36.2507 69.4049 33.7449 69.4049V64.4049ZM37.281 64.4049V69.4049C34.7752 69.4049 32.7438 67.3735 32.7438 64.8677H37.7438H42.7438C42.7438 61.8507 40.298 59.4049 37.281 59.4049V64.4049ZM24.843 57.8678V62.8678H26.9256V57.8678V52.8678H24.843V57.8678Z" fill="white" mask="url(#path-16-outside-1_267_394)"/>
<rect x="14.8182" y="28.5786" width="22.0165" height="5.58678" rx="1.34298" fill="#F29900" stroke="black" stroke-width="2"/>
<path d="M17.374 49.9549C17.7979 49.9758 18.1992 50.1555 18.4961 50.4588L18.6348 50.6209L24.3682 58.1922L24.4629 58.3319C24.6376 58.6181 24.7229 58.95 24.708 59.285L24.6924 59.452L22.998 71.1434L22.874 71.9998H6.88672C5.29278 71.9998 4.00025 70.708 4 69.1141V62.5379L4.01465 61.9295C4.31512 55.6822 9.22029 50.577 15.5186 50.0858L17.1602 49.9579L17.374 49.9549Z" fill="#2D5872" stroke="black" stroke-width="2"/>
<path d="M18.354 48.9466C18.7723 48.8587 19.2091 48.9364 19.5718 49.1624L19.7466 49.2874L24.6099 53.2767C24.8807 53.499 25.0149 53.8469 24.9644 54.1937C24.9138 54.5405 24.686 54.8362 24.3628 54.972L22.5063 55.7513C21.5298 56.1614 20.4083 55.8729 19.7495 55.0648L19.6245 54.8958L17.3218 51.5013C16.7108 50.6002 17.1194 49.3649 18.147 49.0052L18.354 48.9466Z" fill="#1D4559" stroke="black" stroke-width="2"/>
<path d="M21.224 47.0958L21.4629 48.3336C21.5166 48.6119 21.482 48.8999 21.364 49.1575C21.0983 49.7371 21.2713 50.4236 21.78 50.8081L25.0801 53.3023C25.5586 53.664 26.2166 53.6729 26.7047 53.3242L30.2271 50.8082C30.7622 50.426 30.9508 49.7179 30.6769 49.1202L30.636 49.0311C30.5556 48.8557 30.5321 48.6596 30.5686 48.4701L30.8339 47.0958C30.9972 46.2494 30.3488 45.4639 29.4868 45.4639H22.5711C21.7091 45.4639 21.0607 46.2494 21.224 47.0958Z" fill="#6C5C4D" stroke="black" stroke-width="2" stroke-linejoin="round"/>
<path d="M31.8594 26.8193C33.1694 26.8193 34.2315 27.8814 34.2315 29.1913V32.5302C34.2315 32.7779 34.4692 32.9566 34.7071 32.8876L35.1905 32.747L35.333 32.7109C36.8012 32.3793 38.2226 33.4951 38.2227 35.0253V35.4619C38.2227 36.4548 37.6058 37.3348 36.6895 37.6806L36.503 37.7431L36.0635 37.8681C35.9274 37.907 35.7815 38.0403 35.7256 38.248L35.708 38.3417C35.5481 39.6317 35.0752 41.9113 33.6377 43.8906C32.1611 45.9237 29.7169 47.5634 25.8262 47.5634C21.9356 47.5634 19.4923 45.9236 18.0157 43.8906C16.7577 42.1586 16.2388 40.1967 16.0215 38.8691L15.9453 38.3417C15.917 38.1131 15.7852 37.956 15.6485 37.8906L15.5899 37.8681L15.1504 37.7431C14.1322 37.4522 13.4297 36.5209 13.4297 35.4619V35.0253C13.4298 33.4458 14.9448 32.3073 16.4619 32.747L16.9463 32.8876L17.0352 32.9023C17.2398 32.9107 17.4219 32.7468 17.4219 32.5302V29.1913C17.4219 27.8815 18.4832 26.8195 19.793 26.8193H31.8594Z" fill="#6C5C4D" stroke="black" stroke-width="2" stroke-linejoin="round"/>
<path d="M26.1739 20.942C29.4428 20.9421 32.4473 21.4463 34.6709 22.2956C35.7793 22.7189 36.7449 23.2477 37.4512 23.8854C38.1573 24.523 38.6855 25.3501 38.6856 26.3385C38.6856 27.327 38.1574 28.155 37.4512 28.7926C36.745 29.4302 35.7791 29.9582 34.6709 30.3815C32.4473 31.2307 29.4428 31.735 26.1739 31.735C22.9048 31.735 19.8996 31.2308 17.6758 30.3815C16.5676 29.9582 15.6017 29.4302 14.8955 28.7926C14.1893 28.155 13.6612 27.327 13.6612 26.3385C13.6612 25.3502 14.1895 24.523 14.8955 23.8854C15.6017 23.2478 16.5675 22.7189 17.6758 22.2956C19.8996 21.4463 22.9048 20.942 26.1739 20.942Z" fill="#183C53" stroke="black" stroke-width="2"/>
<path d="M25.8839 14C29.9589 14 33.6715 15.133 36.3907 16.8115C39.0505 18.4535 40.9999 20.7849 41.0001 23.2725C41.0001 23.9001 40.8727 24.4833 40.5899 24.999C40.3062 25.5163 39.8959 25.9108 39.4141 26.207C38.4868 26.7771 37.2516 27.0067 35.9395 27.1035C34.603 27.2021 33.0322 27.1711 31.3477 27.1191C29.6465 27.0666 27.8126 26.9922 25.8839 26.9922C23.9553 26.9922 22.1221 27.0666 20.421 27.1191C18.7365 27.1711 17.1657 27.2021 15.8292 27.1035C14.5171 27.0067 13.2819 26.7771 12.3546 26.207C11.8728 25.9108 11.4625 25.5163 11.1788 24.999C10.896 24.4833 10.7686 23.9001 10.7686 23.2725C10.7688 20.7849 12.7181 18.4535 15.378 16.8115C18.0971 15.133 21.809 14.0001 25.8839 14Z" fill="#2D5872" stroke="black" stroke-width="2"/>
<rect x="4.33791" y="55.2718" width="6.46173" height="4.42975" rx="2.21488" transform="rotate(-44.7046 4.33791 55.2718)" fill="#FFBF14" stroke="black" stroke-width="2"/>
<rect x="13.1983" y="63.4049" width="6.46173" height="4.42975" rx="1.68595" fill="#1D4559" stroke="black" stroke-width="2"/>
<path d="M25.6352 54.5219C25.849 54.4595 26.079 54.4698 26.2875 54.5532L27.974 55.228L28.0639 55.269C28.268 55.3751 28.4305 55.5498 28.5219 55.7632C28.6261 56.0068 28.6291 56.2818 28.5307 56.5278L27.8559 58.2143C27.7041 58.5939 27.3369 58.8431 26.9281 58.8432H24.9037C24.5459 58.8432 24.2191 58.653 24.0414 58.351L23.975 58.2143L23.3002 56.5278C23.0953 56.0151 23.3451 55.4331 23.8578 55.228L25.5443 54.5532L25.6352 54.5219Z" fill="#282C3A" stroke="black" stroke-width="2" stroke-linejoin="round"/>
<path d="M27.4633 58.6611L27.5707 59.54L28.9594 70.8789L29.097 72H22.7816L22.9252 70.873L24.3715 59.5342L24.4828 58.6611H27.4633Z" fill="#282C3A" stroke="black" stroke-width="2"/>
<path d="M34.5681 49.9549C34.1442 49.9758 33.7429 50.1555 33.446 50.4588L33.3074 50.6209L27.574 58.1922L27.4792 58.3319C27.3046 58.6181 27.2192 58.95 27.2341 59.285L27.2498 59.452L28.9441 71.1434L29.0681 71.9998H45.0554C46.6494 71.9998 47.9419 70.708 47.9421 69.1141V62.5379L47.9275 61.9295C47.627 55.6822 42.7218 50.577 36.4236 50.0858L34.782 49.9579L34.5681 49.9549Z" fill="#2D5872" stroke="black" stroke-width="2"/>
<path d="M33.5881 48.9466C33.1699 48.8587 32.7331 48.9364 32.3704 49.1624L32.1956 49.2874L27.3323 53.2767C27.0615 53.499 26.9273 53.8469 26.9778 54.1937C27.0283 54.5405 27.2562 54.8362 27.5793 54.972L29.4358 55.7513C30.4123 56.1614 31.5338 55.8729 32.1926 55.0648L32.3176 54.8958L34.6204 51.5013C35.2314 50.6002 34.8227 49.3649 33.7952 49.0052L33.5881 48.9466Z" fill="#1D4559" stroke="black" stroke-width="2"/>
<rect x="1.41419" y="-0.0072915" width="6.46173" height="4.42975" rx="2.21488" transform="matrix(-0.710743 -0.703452 -0.703452 0.710743 48.6043 56.2718)" fill="#FFBF14" stroke="black" stroke-width="2"/>
<rect x="1" y="-1" width="6.46173" height="4.42975" rx="1.68595" transform="matrix(-1 0 0 1 39.7438 64.4049)" fill="#1D4559" stroke="black" stroke-width="2"/>
<path d="M65.5 53.9201L86 63.0066L65.5 69.6553L45 63.0066L65.5 53.9201Z" fill="#EF5A1C"/>
<path d="M86 63.0066L65.5 69.6553L45 63.0066L45 66.4708L65.5 73.1194L86 66.4708V63.0066Z" fill="#D9D9D9"/>
<path d="M65.9053 53.0061L86.0557 61.9367L87 61.6311V62.3557L88.7949 63.1516L87 63.7336V67.1975L86.3086 67.4221L65.8086 74.0705L65.5 74.1711L65.1914 74.0705L44.6914 67.4221L44 67.1975V63.7336L42.2051 63.1516L44 62.3557V61.6311L44.9443 61.9367L65.0947 53.0061L65.5 52.8264L65.9053 53.0061Z" stroke="black" stroke-width="2"/>
<path d="M61.1211 27.0371C62.2887 22.9224 68.2537 22.9889 69.2666 27.2363L71.3691 36.0537L71.5234 36.7002L71.6143 37.083L71.834 38.002H71.833L73.4502 44.7803L75.2861 52.4775L76.8281 58.9443L76.8691 59.1641C77.012 60.1891 76.4574 61.2046 75.4795 61.6055L75.2637 61.6816C73.1834 62.3035 68.5707 63.5634 65.168 63.5635C62.1903 63.5635 58.2859 62.5982 55.9629 61.9404L55.0723 61.6816C53.8871 61.3274 53.2279 60.114 53.5068 58.9443L54.8516 53.3096L55.0498 52.4775L55.2949 51.4482L56.8848 44.7803L57.0049 44.2764L58.7207 37.083L58.9658 36.0537L61.0693 27.2363L61.1211 27.0371Z" fill="#FF4B00" stroke="black" stroke-width="2"/>
<path d="M71.6146 37.0825L73.4505 44.7807L73.6693 45.6997L72.764 45.9702C70.6215 46.6106 68.5369 47.1421 65.1673 47.1421C61.798 47.142 59.714 46.6106 57.5716 45.9702L56.6654 45.6997L56.8851 44.7807L58.721 37.0825L58.9662 36.0542L59.9798 36.3569L60.6624 36.5571C61.2616 36.7269 61.6419 36.8114 62.0843 36.8608C62.7051 36.9302 63.459 36.9322 65.0443 36.9321H65.2904L66.3343 36.9301C67.2443 36.9265 67.7847 36.9128 68.2503 36.8608C68.8403 36.7949 69.3197 36.6663 70.3548 36.3569L71.3695 36.0542L71.6146 37.0825Z" fill="white" stroke="black" stroke-width="2"/>
<path d="M75.2861 52.4773L76.8281 58.9441L76.8691 59.1638C77.0122 60.1889 76.4574 61.2043 75.4795 61.6052L75.2637 61.6814C73.1834 62.3032 68.5707 63.5631 65.168 63.5632C62.1904 63.5632 58.2859 62.5989 55.9629 61.9411L55.0723 61.6814C53.8871 61.3271 53.2279 60.1137 53.5068 58.9441L55.0498 52.4773L55.2949 51.4489L56.3086 51.7517C58.3947 52.3752 62.0896 53.3532 65.168 53.3532C68.2462 53.3532 71.9403 52.3752 74.0264 51.7517L75.04 51.4489L75.2861 52.4773Z" fill="white" stroke="black" stroke-width="2"/>
</svg>
