<svg width="128" height="128" viewBox="0 0 128 128" fill="none" xmlns="http://www.w3.org/2000/svg">
<circle cx="64" cy="64" r="64" fill="#3C4043"/>
<path d="M99.5 86C99.5 90.0746 96.0587 94.1916 89.5068 97.3791C83.0566 100.517 74.0405 102.5 64 102.5C53.9595 102.5 44.9434 100.517 38.4932 97.3791C31.9413 94.1916 28.5 90.0746 28.5 86C28.5 81.9254 31.9413 77.8084 38.4932 74.6209C44.9434 71.483 53.9595 69.5 64 69.5C74.0405 69.5 83.0566 71.483 89.5068 74.6209C96.0587 77.8084 99.5 81.9254 99.5 86Z" fill="black" stroke="white" stroke-width="3"/>
<path d="M32 85C32 85 32.7667 81.5499 38 78.3495M96 85C96 85 95.5174 82.8284 92.7048 80.3329M42.5 76.1741C45.0236 75.2124 48.1442 74.3762 52 73.8038M54.7902 73.4512C57.5231 73.1631 60.5803 73 64 73C78.6667 73 86.6667 76 91 79" stroke="white" stroke-opacity="0.6" stroke-width="2" stroke-linecap="round"/>
<path d="M66.5642 68.9309H84.7368C89.1684 68.9309 91.9382 64.1335 89.7224 60.2956L68.9856 24.3784C66.7698 20.5405 61.2302 20.5405 59.0144 24.3784L38.2776 60.2956C36.0618 64.1335 38.8316 68.9309 43.2632 68.9309H61.4358V94.3023V95.8023H62.9358H65.0642H66.5642V94.3023V68.9309Z" fill="#FEC206" stroke="white" stroke-width="3"/>
<path fill-rule="evenodd" clip-rule="evenodd" d="M43.2632 65.4309C41.5259 65.4309 40.4401 63.5502 41.3087 62.0456L62.0455 26.1284C62.9142 24.6239 65.0858 24.6239 65.9545 26.1284L86.6913 62.0456C87.56 63.5502 86.4741 65.4309 84.7368 65.4309H43.2632ZM65.0642 97.3023H62.9358V67.4309H43.2632C39.9863 67.4309 37.9382 63.8835 39.5767 61.0456L60.3135 25.1284C61.9519 22.2905 66.0481 22.2905 67.6865 25.1284L88.4233 61.0456C90.0618 63.8835 88.0137 67.4309 84.7368 67.4309H65.0642V97.3023Z" fill="black"/>
<path d="M63.904 37.312C64.4373 37.312 64.8107 37.472 65.024 37.792C65.2373 38.112 65.344 38.464 65.344 38.848C65.344 39.872 65.2907 41.0347 65.184 42.336C65.0773 43.6373 64.96 45.0027 64.832 46.432C64.704 47.84 64.5867 49.2373 64.48 50.624C64.3733 51.9893 64.32 53.248 64.32 54.4H63.52C63.52 53.248 63.4667 51.9893 63.36 50.624C63.2533 49.2373 63.136 47.84 63.008 46.432C62.88 45.0027 62.7627 43.6373 62.656 42.336C62.5493 41.0347 62.496 39.872 62.496 38.848C62.496 38.464 62.6027 38.112 62.816 37.792C63.0293 37.472 63.392 37.312 63.904 37.312ZM63.904 56.928C64.3947 56.928 64.8 57.0987 65.12 57.44C65.44 57.76 65.6 58.1653 65.6 58.656C65.6 59.1253 65.44 59.52 65.12 59.84C64.8 60.16 64.3947 60.32 63.904 60.32C63.456 60.32 63.0613 60.16 62.72 59.84C62.4 59.52 62.24 59.1253 62.24 58.656C62.24 58.1653 62.4 57.76 62.72 57.44C63.0613 57.0987 63.456 56.928 63.904 56.928Z" fill="black"/>
</svg>
