<svg width="128" height="128" viewBox="0 0 128 128" fill="none" xmlns="http://www.w3.org/2000/svg">
<circle cx="64" cy="64" r="64" fill="#3C4043"/>
<path d="M75.1473 42.783C75.3858 42.6637 75.6149 42.5416 75.835 42.4167C75.9015 42.7206 76.0372 43.0111 76.2396 43.2634C76.2514 43.278 76.2633 43.2925 76.2754 43.3068C75.7629 43.3602 75.2346 43.4618 74.6962 43.6156C74.1541 43.7705 73.643 43.9548 73.1655 44.1541C73.7169 43.6436 74.3759 43.1687 75.1473 42.783ZM79.6057 43.696C79.6412 43.6893 79.6768 43.6827 79.7125 43.6761C80.2895 43.57 80.7318 43.5163 80.9418 43.5163C81.7701 43.5163 82.6021 43.3161 83.2814 42.9765C83.62 42.8072 84.0046 42.5615 84.3329 42.2096C84.6506 41.8693 85.0633 41.2628 85.0633 40.4277C85.0633 39.5009 84.6206 38.7462 84.1385 38.264C83.6563 37.7818 82.9015 37.3391 81.9747 37.3391C82.3768 37.3391 81.3278 37.0364 80.0402 37.3277C80.2558 36.1961 80.0813 35.143 79.6818 34.344L77.8432 35.2633L79.6818 34.344C79.3348 33.6499 78.6946 33.0409 78.0073 32.6099C77.3562 32.2016 76.5239 31.8634 75.5525 31.7554C75.6978 31.6772 75.8376 31.5976 75.9631 31.5191C76.5665 31.142 77.833 30.2204 77.833 28.5494C77.833 27.5454 77.3183 26.8188 76.8701 26.3886C76.4309 25.9669 75.9205 25.6891 75.5148 25.5088C74.7494 25.1687 73.816 24.9443 73.1951 24.9443L73.1783 24.9443C72.553 24.9441 70.0299 24.9432 68.3859 27.4091C67.5109 28.7216 67.6313 30.2255 67.8425 31.1948C68.0668 32.2241 68.5 33.1552 68.8501 33.7386C68.9953 33.9806 69.1866 34.1868 69.4098 34.3478C69.0831 34.6781 68.759 35.0416 68.4382 35.4394C68.3636 34.9424 68.2325 34.3645 68.0025 33.7896C67.7203 33.084 67.2493 32.2786 66.4545 31.6458C65.6293 30.9887 64.5887 30.6253 63.3825 30.6253C60.9895 30.6253 59.4793 31.8897 58.6622 33.2175C57.9242 34.4167 57.7117 35.702 57.7117 36.2961C57.7117 36.8748 57.7199 37.8681 58.124 41.6505C57.8536 41.5448 57.5388 41.4707 57.1851 41.4707C55.1328 41.4707 53.7855 42.6304 53.2807 43.64C53.2372 43.727 53.1999 43.817 53.1691 43.9093C53.0236 44.3459 52.8887 45.0074 52.9469 45.7238C52.2041 45.1988 51.3388 44.8055 50.3579 44.6094C48.8421 44.3062 47.3588 44.591 46.3293 45.6527C45.3619 46.6503 45.137 47.9954 45.3568 49.0941L47.3725 48.6909L45.3568 49.0941C45.5564 50.0925 45.9933 50.9451 46.6739 51.5926C47.3408 52.227 48.1112 52.5403 48.7824 52.6952C49.4414 52.8473 50.0706 52.8619 50.5374 52.8523C50.7664 52.8477 50.9804 52.8363 51.1444 52.8275L51.1605 52.8267C51.3254 52.8179 51.4178 52.8135 51.4807 52.8126C51.4942 52.8148 51.5359 52.8222 51.6095 52.8436C51.7328 52.8795 51.8886 52.938 52.0672 53.0184C52.43 53.1818 52.7704 53.3829 52.9461 53.5001C53.5769 53.9206 54.388 53.9598 55.0564 53.6021C55.7248 53.2444 56.1421 52.5478 56.1421 51.7896C56.1421 50.8598 55.9226 49.8513 55.4973 48.8886C55.6162 48.9658 55.7238 49.0464 55.8314 49.1405C56.1108 49.385 56.4752 49.8019 56.8958 50.6432C57.8705 52.5926 58.7446 55.3541 58.7446 56.9541C58.7446 57.7088 58.7436 58.594 58.7005 59.4396C58.587 59.2108 58.4697 58.9808 58.3534 58.7627C57.8038 57.7322 57.045 56.4891 56.0564 55.5006C54.7925 54.2366 52.4323 52.9006 50.0683 54.0826C49.5805 54.3265 47.477 55.5056 47.5439 58.0575C47.5759 59.278 48.1243 60.4728 49.0656 61.6304C49.9969 62.7756 51.4043 64.001 53.407 65.3413C53.8736 65.706 54.5589 66.5061 55.2575 67.6501C54.8906 67.5555 54.4709 67.528 54.0238 67.6276C53.4227 67.7614 52.9624 68.0823 52.6328 68.4118C51.6255 69.4192 51.6046 70.688 51.8168 71.5788C52.0167 72.4177 52.4623 73.1784 52.8524 73.7448C53.599 74.8289 54.5591 75.7817 54.8705 76.0907C54.8921 76.1121 54.9105 76.1305 54.9256 76.1455C55.0997 76.3197 55.3073 76.4941 55.4434 76.6085C55.4687 76.6298 55.4916 76.649 55.5113 76.6657C55.6683 76.7991 55.8205 76.9333 55.9924 77.1099C56.3308 77.4577 56.8225 78.0495 57.4769 79.1672C58.1458 80.3098 58.652 81.1577 59.0423 81.8115C59.5334 82.6341 59.8409 83.1492 60.0578 83.5565C60.2266 83.8737 60.2829 84.0234 60.3154 84.1337C60.3538 84.2638 60.3855 84.4258 60.4428 84.8345C60.5628 85.6893 60.7934 87.0954 60.9899 88.2654C61.0889 88.8552 61.1807 89.3931 61.2477 89.7835C61.2812 89.9787 61.3085 90.1372 61.3275 90.247L61.3494 90.3737L61.3552 90.4069L61.3567 90.4154L61.3571 90.4177L61.3572 90.4182L61.3572 90.4184L63.3825 90.0664L61.3572 90.4185C61.5284 91.4032 62.383 92.1221 63.3825 92.1221H66.4812C67.034 92.1221 67.5635 91.8995 67.9502 91.5045C68.3369 91.1095 68.5482 90.5754 68.5365 90.0227C68.4488 85.9046 68.463 84.1629 68.6972 82.8784C68.8936 81.8015 69.2373 81.0494 70.0653 79.2375C70.1744 78.9988 70.2918 78.7418 70.4185 78.4632C71.5126 76.0561 72.6981 74.2502 73.6451 72.8077C73.7493 72.649 73.8506 72.4946 73.9486 72.3444C74.4059 71.6432 74.9058 70.8636 75.183 70.1524C75.4572 69.4491 75.8014 68.0155 74.6487 66.8628C73.902 66.1161 72.9634 65.8778 72.1142 65.9344C71.3393 65.9861 70.6383 66.2758 70.0901 66.571C69.3874 66.9494 68.6975 67.4688 68.0767 68.0086C68.354 67.3059 68.8485 66.2691 69.5366 65.366C70.418 64.2093 71.3062 63.6582 72.1622 63.6582C74.2318 63.6582 75.7753 63.2185 76.8458 62.3859C77.9259 61.5458 78.3372 60.4438 78.3492 59.576C78.3501 59.5676 78.3526 59.5353 78.3586 59.4573C78.3674 59.3424 78.3807 59.1471 78.3723 58.9199C78.355 58.452 78.2433 57.7738 77.7729 57.1153C77.4817 56.7075 77.1172 56.3893 76.6957 56.1444C76.7628 56.0937 76.8292 56.0392 76.8943 55.9806C77.4821 55.4515 77.833 54.7054 77.833 53.8554C77.833 53.326 77.7125 52.8142 77.4728 52.3614C77.609 52.3351 77.7418 52.3079 77.8695 52.2796C78.5374 52.1311 79.3142 51.9026 80.0163 51.4345C80.6513 51.0112 81.4044 50.4644 81.9089 49.6844C82.4994 48.7713 82.603 47.7952 82.4581 46.8348C82.2125 45.2076 80.8548 44.1727 79.6057 43.696ZM68.4705 56.8286C68.6922 55.8778 69.0891 55.1272 69.7118 54.6161C69.7078 54.645 69.7043 54.6712 69.7011 54.6943C69.6994 54.7072 69.6978 54.7192 69.6963 54.7301C69.6942 54.7448 69.6924 54.7576 69.6909 54.7687C69.5395 55.2336 69.56 55.735 69.7427 56.1824C69.2906 56.3782 68.8647 56.5989 68.4705 56.8286ZM58.3513 61.7635C58.3507 61.762 58.3574 61.746 58.3732 61.7198C58.3598 61.7519 58.3519 61.765 58.3513 61.7635ZM59.7598 61.5792C59.762 61.5817 59.7631 61.583 59.763 61.583C59.763 61.583 59.7619 61.5817 59.7598 61.5792ZM81.4597 39.2899C81.4599 39.2899 81.4577 39.2913 81.453 39.2939C81.4573 39.2911 81.4596 39.2899 81.4597 39.2899Z" fill="#54B3F3" stroke="white" stroke-width="4.11137" stroke-linejoin="round"/>
<path d="M44.6841 73.3173V71.9322H42.1841H40.5294V70.5474H38.0294H36.6446H34.1446V73.0474V99.3601V101.86H36.6446H38.0294H40.5294V100.475H42.1841H44.6841V99.0906H84.0004V100.475H86.5004H88.155V101.86H90.655H92.0399H94.5399V99.3601V73.0474V70.5474H92.0399H90.655H88.155V71.9322H86.5004H84.0004V73.3173H44.6841Z" fill="#3D4E6B" stroke="white" stroke-width="5"/>
<path d="M43.1841 74.8173V74.4322V73.4322H42.1841H39.0294V73.0474V72.0474H38.0294H36.6446H35.6446V73.0474V99.3601V100.36H36.6446H38.0294H39.0294V99.3601V98.9753H42.1841H43.1841V97.9753V97.5906H85.5004V97.9753V98.9753H86.5004H89.655V99.3601V100.36H90.655H92.0399H93.0399V99.3601V73.0474V72.0474H92.0399H90.655H89.655V73.0474V73.4322H86.5004H85.5004V74.4322V74.8173H43.1841Z" fill="#3D4E6B" stroke="black" stroke-width="2"/>
<rect x="42.1841" y="75.8173" width="44.3163" height="20.7733" fill="#A6A4CC"/>
<rect x="42.1841" y="79.9717" width="44.3163" height="2.76977" fill="#CECEE7"/>
<rect x="42.1841" y="86.8964" width="44.3163" height="5.53953" fill="#8B89AE"/>
<rect x="38.0294" y="74.4321" width="4.15465" height="23.543" fill="#6C6B8A"/>
<rect x="36.6446" y="73.0474" width="1.38488" height="26.3128" fill="#494867"/>
<rect x="42.1841" y="77.2021" width="1.38488" height="4.15465" fill="#3D4E6B"/>
<rect x="42.1841" y="84.1264" width="1.38488" height="4.15465" fill="#3D4E6B"/>
<rect x="42.1841" y="91.0507" width="1.38488" height="4.15465" fill="#3D4E6B"/>
<rect width="4.15465" height="23.543" transform="matrix(-1 0 0 1 90.655 74.4321)" fill="#6C6B8A"/>
<rect width="1.38488" height="26.3128" transform="matrix(-1 0 0 1 92.0399 73.0474)" fill="#494867"/>
<rect width="1.38488" height="4.15465" transform="matrix(-1 0 0 1 86.5004 77.2021)" fill="#3D4E6B"/>
<rect width="1.38488" height="4.15465" transform="matrix(-1 0 0 1 86.5004 84.1264)" fill="#3D4E6B"/>
<rect width="1.38488" height="4.15465" transform="matrix(-1 0 0 1 86.5004 91.0507)" fill="#3D4E6B"/>
<mask id="path-18-outside-1_228_265" maskUnits="userSpaceOnUse" x="45.3341" y="25" width="40" height="62" fill="black">
<rect fill="white" x="45.3341" y="25" width="40" height="62"/>
<path d="M80.9418 41.4606C80.1155 41.4606 78.5317 41.8049 77.8431 41.9771C78.0153 41.6328 78.5662 40.7376 79.3925 39.9113C80.4254 38.8784 81.4583 39.3948 81.9747 39.3948C82.4912 39.3948 83.0076 39.9113 83.0076 40.4277C83.0076 40.9442 81.9747 41.4606 80.9418 41.4606Z"/>
<path d="M47.3725 48.6909C47.1488 47.5725 47.889 46.212 49.9548 46.6251C52.537 47.1416 54.0864 49.7238 54.0864 51.7896C53.5699 51.4453 52.3305 50.7567 51.5041 50.7567C50.4712 50.7567 47.889 51.2732 47.3725 48.6909Z"/>
<path d="M70.6128 32.681C71.1293 32.1645 72.3688 31.0283 73.1951 30.6152C74.228 30.0987 75.7773 29.5823 75.7773 28.5494C75.7773 27.5165 73.7115 27 73.1951 27C72.6786 27 71.1293 27 70.0964 28.5494C69.2701 29.7888 70.0964 31.8202 70.6128 32.681Z"/>
<path d="M73.1951 54.8883C72.3688 54.8883 72.3343 55.2326 71.6457 55.4048C71.8179 55.0605 71.6334 53.8616 72.6786 53.339C73.7115 52.8225 74.228 52.8225 74.7444 52.8225C75.2609 52.8225 75.7773 53.138 75.7773 53.8554C75.7773 54.8883 74.228 54.8883 73.1951 54.8883Z"/>
<path d="M68.547 77.6125C71.1293 71.9315 74.228 69.3493 73.1951 68.3164C72.1622 67.2835 70.0964 68.8328 68.547 70.3822C66.9977 71.9315 67.5141 75.0302 66.4812 75.0302C65.4483 75.0302 65.4483 69.3492 65.9648 67.7999C66.4812 66.2505 68.547 61.6025 72.1622 61.6025C75.7774 61.6025 76.2938 60.0531 76.2938 59.5367C76.2938 59.0202 76.8103 57.4709 73.1951 57.4709C70.303 57.4709 67.5141 59.881 66.4812 61.086C65.9648 58.8481 65.8615 53.959 69.5799 52.3064C74.228 50.2406 77.3267 50.757 78.8761 49.7241C80.1155 48.8978 80.6045 48.3285 80.4254 47.1416C80.2463 45.9547 78.153 44.7659 75.2609 45.5922C71.6457 46.6251 69.5799 49.2075 69.0635 48.1746C68.547 47.1417 70.0964 43.0101 74.228 40.9443C78.3596 38.8785 78.3596 36.2962 77.8432 35.2633C77.3267 34.2304 73.7115 31.6482 69.5799 37.3291C65.4483 43.0101 65.9648 50.2403 65.4483 50.2403C64.9319 50.2403 63.3825 50.2403 63.899 46.1087C64.4154 41.9771 66.4812 39.3948 66.4812 36.8126C66.4812 36.2961 66.4812 32.681 63.3825 32.681C60.2838 32.681 59.7674 35.7797 59.7674 36.2961C59.7674 36.8126 59.7674 37.8455 60.2838 42.4935C60.8003 47.1416 62.3496 50.7567 62.3496 51.2732C62.3496 51.6863 62.0053 51.7896 61.8332 51.7896C60.8003 49.0352 58.4246 43.5264 57.1851 43.5264C55.9456 43.5264 55.2915 44.215 55.1193 44.5593C54.9472 45.0758 54.8094 46.212 55.6358 46.6251C56.6687 47.1416 57.7016 47.658 58.7345 49.7238C59.7674 51.7896 60.8003 54.8883 60.8003 56.9541C60.8003 59.0199 60.8003 62.6351 59.7674 63.1516C58.7345 63.668 58.218 63.1516 57.7016 62.1187C57.1851 61.0858 56.1522 58.5035 54.6028 56.9541C53.5699 55.9212 52.1554 55.3374 50.9877 55.9212C50.2108 56.3097 46.8561 58.5035 54.6029 63.668C56.6687 65.2174 59.7674 70.5884 59.7674 75.5464C59.0788 74.8578 58.299 73.5615 57.1851 72.4477C56.0713 71.3338 55.1193 68.8325 54.0864 69.8654C52.7697 71.1821 55.8627 74.1755 56.3792 74.6919C56.8956 75.2084 61.3128 81.2701 62.9574 84.5592L68.547 77.6125Z"/>
</mask>
<g filter="url(#filter0_i_228_265)">
<path d="M80.9418 41.4606C80.1155 41.4606 78.5317 41.8049 77.8431 41.9771C78.0153 41.6328 78.5662 40.7376 79.3925 39.9113C80.4254 38.8784 81.4583 39.3948 81.9747 39.3948C82.4912 39.3948 83.0076 39.9113 83.0076 40.4277C83.0076 40.9442 81.9747 41.4606 80.9418 41.4606Z" fill="#54B3F3"/>
<path d="M47.3725 48.6909C47.1488 47.5725 47.889 46.212 49.9548 46.6251C52.537 47.1416 54.0864 49.7238 54.0864 51.7896C53.5699 51.4453 52.3305 50.7567 51.5041 50.7567C50.4712 50.7567 47.889 51.2732 47.3725 48.6909Z" fill="#54B3F3"/>
<path d="M70.6128 32.681C71.1293 32.1645 72.3688 31.0283 73.1951 30.6152C74.228 30.0987 75.7773 29.5823 75.7773 28.5494C75.7773 27.5165 73.7115 27 73.1951 27C72.6786 27 71.1293 27 70.0964 28.5494C69.2701 29.7888 70.0964 31.8202 70.6128 32.681Z" fill="#54B3F3"/>
<path d="M73.1951 54.8883C72.3688 54.8883 72.3343 55.2326 71.6457 55.4048C71.8179 55.0605 71.6334 53.8616 72.6786 53.339C73.7115 52.8225 74.228 52.8225 74.7444 52.8225C75.2609 52.8225 75.7773 53.138 75.7773 53.8554C75.7773 54.8883 74.228 54.8883 73.1951 54.8883Z" fill="#54B3F3"/>
<path d="M68.547 77.6125C71.1293 71.9315 74.228 69.3493 73.1951 68.3164C72.1622 67.2835 70.0964 68.8328 68.547 70.3822C66.9977 71.9315 67.5141 75.0302 66.4812 75.0302C65.4483 75.0302 65.4483 69.3492 65.9648 67.7999C66.4812 66.2505 68.547 61.6025 72.1622 61.6025C75.7774 61.6025 76.2938 60.0531 76.2938 59.5367C76.2938 59.0202 76.8103 57.4709 73.1951 57.4709C70.303 57.4709 67.5141 59.881 66.4812 61.086C65.9648 58.8481 65.8615 53.959 69.5799 52.3064C74.228 50.2406 77.3267 50.757 78.8761 49.7241C80.1155 48.8978 80.6045 48.3285 80.4254 47.1416C80.2463 45.9547 78.153 44.7659 75.2609 45.5922C71.6457 46.6251 69.5799 49.2075 69.0635 48.1746C68.547 47.1417 70.0964 43.0101 74.228 40.9443C78.3596 38.8785 78.3596 36.2962 77.8432 35.2633C77.3267 34.2304 73.7115 31.6482 69.5799 37.3291C65.4483 43.0101 65.9648 50.2403 65.4483 50.2403C64.9319 50.2403 63.3825 50.2403 63.899 46.1087C64.4154 41.9771 66.4812 39.3948 66.4812 36.8126C66.4812 36.2961 66.4812 32.681 63.3825 32.681C60.2838 32.681 59.7674 35.7797 59.7674 36.2961C59.7674 36.8126 59.7674 37.8455 60.2838 42.4935C60.8003 47.1416 62.3496 50.7567 62.3496 51.2732C62.3496 51.6863 62.0053 51.7896 61.8332 51.7896C60.8003 49.0352 58.4246 43.5264 57.1851 43.5264C55.9456 43.5264 55.2915 44.215 55.1193 44.5593C54.9472 45.0758 54.8094 46.212 55.6358 46.6251C56.6687 47.1416 57.7016 47.658 58.7345 49.7238C59.7674 51.7896 60.8003 54.8883 60.8003 56.9541C60.8003 59.0199 60.8003 62.6351 59.7674 63.1516C58.7345 63.668 58.218 63.1516 57.7016 62.1187C57.1851 61.0858 56.1522 58.5035 54.6028 56.9541C53.5699 55.9212 52.1554 55.3374 50.9877 55.9212C50.2108 56.3097 46.8561 58.5035 54.6029 63.668C56.6687 65.2174 59.7674 70.5884 59.7674 75.5464C59.0788 74.8578 58.299 73.5615 57.1851 72.4477C56.0713 71.3338 55.1193 68.8325 54.0864 69.8654C52.7697 71.1821 55.8627 74.1755 56.3792 74.6919C56.8956 75.2084 61.3128 81.2701 62.9574 84.5592L68.547 77.6125Z" fill="#54B3F3"/>
</g>
<path d="M68.547 77.6125L70.1052 78.8663C70.2103 78.7358 70.2985 78.5926 70.3678 78.4401L68.547 77.6125ZM66.4812 61.086L64.5325 61.5357C64.7021 62.271 65.2712 62.8482 66.0041 63.0283C66.7369 63.2083 67.5087 62.9606 67.9998 62.3876L66.4812 61.086ZM69.5799 52.3064L70.3922 54.134L69.5799 52.3064ZM78.8761 49.7241L77.7667 48.06L78.8761 49.7241ZM75.2609 45.5922L74.7115 43.6692L75.2609 45.5922ZM61.8332 51.7896L59.9605 52.4919C60.2532 53.2725 60.9995 53.7896 61.8332 53.7896V51.7896ZM55.1193 44.5593L53.3305 43.6649C53.2881 43.7495 53.2519 43.8371 53.222 43.9269L55.1193 44.5593ZM55.6358 46.6251L56.5302 44.8363L55.6358 46.6251ZM54.6028 56.9541L53.1886 58.3684L54.6028 56.9541ZM50.9877 55.9212L51.8821 57.7101L50.9877 55.9212ZM54.6029 63.668L55.8029 62.068C55.7733 62.0458 55.7431 62.0244 55.7123 62.0039L54.6029 63.668ZM59.7674 75.5464L58.3531 76.9606C58.9251 77.5326 59.7854 77.7037 60.5327 77.3941C61.2801 77.0846 61.7674 76.3553 61.7674 75.5464H59.7674ZM57.1851 72.4477L58.5993 71.0335L57.1851 72.4477ZM54.0864 69.8654L55.5006 71.2796L54.0864 69.8654ZM62.9574 84.5592L61.1685 85.4536C61.4731 86.0628 62.0667 86.4751 62.7438 86.5478C63.421 86.6205 64.0886 86.3436 64.5155 85.813L62.9574 84.5592ZM47.3725 48.6909L45.4114 49.0831L45.4114 49.0832L47.3725 48.6909ZM49.9548 46.6251L50.347 44.664L49.9548 46.6251ZM54.0864 51.7896L52.977 53.4537C53.5907 53.8629 54.3798 53.901 55.0301 53.553C55.6804 53.2049 56.0864 52.5272 56.0864 51.7896H54.0864ZM70.6128 32.681L68.8978 33.7099C69.2147 34.2381 69.7572 34.5907 70.3685 34.666C70.9797 34.7412 71.5915 34.5307 72.027 34.0952L70.6128 32.681ZM73.1951 30.6152L74.0895 32.404L73.1951 30.6152ZM70.0964 28.5494L68.4323 27.44L70.0964 28.5494ZM77.8431 41.9771L76.0543 41.0826C75.705 41.7812 75.7943 42.6193 76.2831 43.2285C76.7718 43.8378 77.5705 44.1068 78.3282 43.9174L77.8431 41.9771ZM79.3925 39.9113L80.8067 41.3255L79.3925 39.9113ZM71.6457 55.4048L69.8569 54.5104C69.5076 55.209 69.5969 56.047 70.0856 56.6562C70.5744 57.2655 71.3731 57.5345 72.1308 57.3451L71.6457 55.4048ZM72.6786 53.339L71.7842 51.5501L72.6786 53.339ZM70.3678 78.4401C71.5844 75.7636 72.914 73.8288 73.902 72.314C74.36 71.6116 74.8564 70.837 75.1311 70.1322C75.4029 69.4351 75.7378 68.0307 74.6093 66.9022L71.7809 69.7306C71.1688 69.1186 71.5037 68.4243 71.4043 68.6794C71.3079 68.9268 71.0618 69.3464 70.5515 70.1289C69.6028 71.5836 68.092 73.7805 66.7263 76.7849L70.3678 78.4401ZM74.6093 66.9022C73.8758 66.1687 72.9539 65.9342 72.1179 65.99C71.3541 66.0409 70.6612 66.3267 70.1165 66.62C69.0207 67.2101 67.9538 68.147 67.1328 68.968L69.9613 71.7964C70.6896 71.0681 71.4304 70.4556 72.0129 70.1419C72.3075 69.9833 72.4215 69.9786 72.384 69.9811C72.2742 69.9884 71.9979 69.9476 71.7809 69.7306L74.6093 66.9022ZM67.1328 68.968C65.8663 70.2345 65.5354 72.0143 65.3593 72.895C65.243 73.4766 65.1986 73.6911 65.1552 73.8038C65.0908 73.9712 65.4005 73.0302 66.4812 73.0302V77.0302C68.0784 77.0302 68.7109 75.7018 68.8886 75.2398C69.0873 74.7231 69.2043 74.0662 69.2816 73.6794C69.4928 72.6234 69.6784 72.0792 69.9613 71.7964L67.1328 68.968ZM66.4812 73.0302C67.3937 73.0302 67.8075 73.6747 67.8428 73.7318C67.9056 73.8335 67.8832 73.8394 67.8341 73.6399C67.7438 73.2735 67.6705 72.6687 67.6404 71.9161C67.6112 71.1851 67.626 70.4065 67.6767 69.7334C67.7312 69.0099 67.8156 68.572 67.8621 68.4323L64.0674 67.1674C63.8558 67.8024 63.7465 68.6556 63.688 69.4331C63.6257 70.2609 63.6083 71.1931 63.6436 72.076C63.6781 72.9373 63.7661 73.8496 63.9502 74.5968C64.0383 74.9541 64.1813 75.4158 64.4399 75.8343C64.6708 76.2081 65.3105 77.0302 66.4812 77.0302V73.0302ZM67.8621 68.4323C68.0765 67.7894 68.6344 66.4583 69.4923 65.3323C70.3778 64.1701 71.2804 63.6025 72.1622 63.6025V59.6025C69.4289 59.6025 67.491 61.3588 66.3106 62.9081C65.1027 64.4934 64.3696 66.261 64.0674 67.1674L67.8621 68.4323ZM72.1622 63.6025C74.2247 63.6025 75.7544 63.1642 76.8116 62.3419C77.8941 61.5 78.2938 60.3937 78.2938 59.5367H74.2938C74.2938 59.1961 74.4353 59.1227 74.3558 59.1845C74.251 59.2661 73.7149 59.6025 72.1622 59.6025V63.6025ZM78.2938 59.5367C78.2938 59.574 78.2897 59.6268 78.303 59.453C78.3118 59.3387 78.3249 59.146 78.3166 58.922C78.2996 58.4608 78.1897 57.7945 77.7276 57.1476C76.8027 55.8527 75.1214 55.4709 73.1951 55.4709V59.4709C73.9754 59.4709 74.3876 59.5569 74.572 59.6184C74.7352 59.6728 74.6139 59.6704 74.4727 59.4726C74.3334 59.2776 74.3203 59.0955 74.3194 59.07C74.3192 59.0639 74.3202 59.0769 74.3148 59.1462C74.3146 59.1493 74.3063 59.2516 74.304 59.2827C74.3002 59.3356 74.2938 59.43 74.2938 59.5367H78.2938ZM73.1951 55.4709C71.2183 55.4709 69.4202 56.2814 68.07 57.1375C66.7029 58.0043 65.599 59.0421 64.9627 59.7844L67.9998 62.3876C68.3964 61.9249 69.2033 61.1552 70.2119 60.5156C71.2374 59.8654 72.2797 59.4709 73.1951 59.4709V55.4709ZM68.43 60.6363C68.2223 59.7364 68.0988 58.2616 68.3961 56.9048C68.6866 55.5792 69.3063 54.6166 70.3922 54.134L68.7677 50.4787C66.1351 51.6488 64.9472 53.957 64.4889 56.0486C64.0373 58.109 64.2237 60.1977 64.5325 61.5357L68.43 60.6363ZM70.3922 54.134C72.4948 53.1995 74.2436 52.8465 75.7188 52.6007C76.4231 52.4833 77.2067 52.3698 77.8574 52.2252C78.523 52.0773 79.2919 51.8506 79.9855 51.3882L77.7667 48.06C77.6856 48.1141 77.4861 48.2101 76.9897 48.3205C76.4783 48.4341 75.9063 48.5143 75.0612 48.6551C73.4377 48.9257 71.3131 49.3474 68.7677 50.4787L70.3922 54.134ZM79.9855 51.3882C80.62 50.9652 81.3644 50.4237 81.8621 49.6541C82.4435 48.7551 82.5464 47.7935 82.403 46.8431L78.4478 47.44C78.4694 47.5835 78.4572 47.6196 78.462 47.5913C78.4692 47.5494 78.4887 47.5045 78.5033 47.482C78.5088 47.4734 78.4809 47.5197 78.3574 47.6267C78.2313 47.7358 78.0466 47.8734 77.7667 48.06L79.9855 51.3882ZM82.403 46.8431C82.1604 45.2356 80.8115 44.2104 79.5665 43.7407C78.2101 43.229 76.5194 43.1526 74.7115 43.6692L75.8103 47.5153C76.8945 47.2055 77.6965 47.3104 78.1546 47.4832C78.724 47.698 78.5113 47.8607 78.4478 47.44L82.403 46.8431ZM74.7115 43.6692C72.597 44.2733 70.9552 45.3277 69.9401 45.9621C69.6768 46.1267 69.4782 46.2495 69.3112 46.3442C69.1351 46.4442 69.0722 46.4674 69.0806 46.4644C69.0905 46.4609 69.1554 46.4384 69.2621 46.4247C69.3703 46.4108 69.5548 46.4016 69.782 46.4544C70.3457 46.5852 70.6982 46.9719 70.8523 47.2802L67.2746 49.069C67.5579 49.6356 68.088 50.1675 68.8776 50.3508C69.5336 50.503 70.1004 50.3454 70.4021 50.2398C70.9846 50.0359 71.6214 49.6283 72.0602 49.3541C73.111 48.6973 74.3097 47.944 75.8103 47.5153L74.7115 43.6692ZM70.8523 47.2802C70.9814 47.5384 70.9674 47.7101 70.9676 47.6614C70.9677 47.6391 70.9732 47.5441 71.0151 47.3716C71.0984 47.0283 71.2884 46.5331 71.6246 45.9643C72.2941 44.8313 73.4441 43.5723 75.1224 42.7332L73.3336 39.1554C70.8803 40.3821 69.1899 42.2218 68.1809 43.9293C67.6778 44.7807 67.3191 45.6412 67.1281 46.4276C67.0328 46.82 66.9696 47.2334 66.9677 47.6428C66.9659 48.0259 67.0164 48.5526 67.2746 49.069L70.8523 47.2802ZM75.1224 42.7332C77.4792 41.5548 78.9214 40.0943 79.6109 38.5181C80.2931 36.9588 80.164 35.433 79.632 34.3689L76.0543 36.1578C76.0387 36.1266 76.1679 36.4084 75.9463 36.9148C75.7321 37.4045 75.1084 38.268 73.3336 39.1554L75.1224 42.7332ZM79.632 34.3689C79.2909 33.6866 78.6593 33.0845 77.9777 32.6571C77.2468 32.1987 76.2854 31.8296 75.1541 31.7804C72.7802 31.6772 70.2734 32.9753 67.9625 36.1528L71.1974 38.5055C73.0181 36.002 74.3847 35.7508 74.9804 35.7767C75.3338 35.792 75.6313 35.9071 75.8526 36.0459C76.1232 36.2156 76.1372 36.3236 76.0543 36.1578L79.632 34.3689ZM67.9625 36.1528C65.6445 39.34 64.6671 42.9033 64.1899 45.5617C63.9506 46.8951 63.8304 48.0456 63.744 48.7918C63.6972 49.1966 63.6682 49.4074 63.6465 49.5117C63.6321 49.5812 63.6466 49.4721 63.7251 49.3055C63.7639 49.2231 63.8739 49.0043 64.102 48.7831C64.3581 48.535 64.8175 48.2403 65.4483 48.2403V52.2403C66.1115 52.2403 66.6011 51.9314 66.8858 51.6556C67.1425 51.4067 67.2794 51.1467 67.3438 51.0099C67.4735 50.7346 67.5339 50.4646 67.5629 50.3253C67.6279 50.0121 67.6756 49.6136 67.7175 49.2518C67.8086 48.4648 67.9144 47.4527 68.127 46.2684C68.5536 43.8915 69.3837 40.9993 71.1974 38.5055L67.9625 36.1528ZM65.4483 48.2403C65.3224 48.2403 65.3985 48.2317 65.5039 48.2642C65.6535 48.3102 65.7997 48.4084 65.8863 48.5238C65.9518 48.6111 65.8804 48.5737 65.8315 48.2221C65.7824 47.8686 65.7681 47.2799 65.8835 46.3567L61.9144 45.8606C61.6417 48.0425 61.8103 49.7558 62.6863 50.9238C63.6968 52.2711 65.1319 52.2403 65.4483 52.2403V48.2403ZM65.8835 46.3567C66.1077 44.563 66.6663 43.0905 67.2463 41.6084C67.784 40.2342 68.4812 38.5595 68.4812 36.8126H64.4812C64.4812 37.6478 64.1456 38.5554 63.5213 40.1508C62.9392 41.6384 62.2067 43.5227 61.9144 45.8606L65.8835 46.3567ZM68.4812 36.8126C68.4812 36.5361 68.4924 35.1642 67.9508 33.8103C67.671 33.1107 67.2048 32.3145 66.4198 31.6893C65.6052 31.0406 64.577 30.681 63.3825 30.681V34.681C63.7374 34.681 63.8713 34.7732 63.9281 34.8185C64.0146 34.8873 64.1295 35.0272 64.2369 35.2959C64.4701 35.8787 64.4812 36.5726 64.4812 36.8126H68.4812ZM63.3825 30.681C61.0124 30.681 59.5186 31.9321 58.7096 33.2467C57.9777 34.4361 57.7674 35.7111 57.7674 36.2961H61.7674C61.7674 36.3883 61.7629 36.2765 61.829 36.0287C61.8884 35.8058 61.9828 35.5599 62.1162 35.3431C62.2468 35.1309 62.3949 34.9774 62.5602 34.8755C62.7124 34.7817 62.9589 34.681 63.3825 34.681V30.681ZM57.7674 36.2961C57.7674 36.9229 57.7768 38.0415 58.2961 42.7144L62.2716 42.2727C61.7579 37.6494 61.7674 36.7023 61.7674 36.2961H57.7674ZM58.2961 42.7144C58.5716 45.1944 59.1203 47.381 59.5904 48.9927C59.8246 49.7956 60.0441 50.4713 60.1928 50.9409C60.2702 51.1854 60.3219 51.3535 60.3539 51.4698C60.4101 51.6733 60.3496 51.5247 60.3496 51.2732H64.3496C64.3496 50.8926 64.2408 50.518 64.2101 50.4068C64.1554 50.2084 64.0821 49.973 64.0062 49.7333C63.8482 49.2346 63.6481 48.6191 63.4304 47.8727C62.9967 46.3857 62.5125 44.4407 62.2716 42.2727L58.2961 42.7144ZM60.3496 51.2732C60.3496 51.091 60.3898 50.8553 60.5157 50.6113C60.6408 50.3688 60.8145 50.1877 60.9873 50.0633C61.2928 49.8434 61.5992 49.7896 61.8332 49.7896V53.7896C62.2393 53.7896 62.804 53.6843 63.3246 53.3094C63.9471 52.8612 64.3496 52.1316 64.3496 51.2732H60.3496ZM63.7058 51.0874C63.1735 49.6678 62.2918 47.5273 61.3683 45.7165C60.9114 44.8207 60.4078 43.9326 59.8979 43.2421C59.6462 42.9013 59.3407 42.5364 58.9852 42.2375C58.677 41.9784 58.0486 41.5264 57.1851 41.5264V45.5264C56.8909 45.5264 56.6762 45.4453 56.5671 45.3931C56.5102 45.3659 56.4701 45.341 56.4471 45.3255C56.4238 45.3099 56.4119 45.2999 56.4114 45.2995C56.4108 45.2989 56.4177 45.3048 56.4323 45.3192C56.4467 45.3335 56.4664 45.354 56.4912 45.3819C56.5416 45.4385 56.6048 45.5162 56.6802 45.6183C56.9966 46.0468 57.3838 46.7081 57.8049 47.5338C58.6374 49.166 59.4599 51.157 59.9605 52.4919L63.7058 51.0874ZM57.1851 41.5264C55.1549 41.5264 53.8263 42.6733 53.3305 43.6649L56.9082 45.4538C56.8778 45.5145 56.8516 45.554 56.8371 45.5744C56.8216 45.5963 56.8106 45.6086 56.806 45.6136C56.7971 45.6232 56.8014 45.6165 56.8216 45.6037C56.84 45.592 56.8736 45.5741 56.9268 45.5585C56.9792 45.5431 57.0627 45.5264 57.1851 45.5264V41.5264ZM53.222 43.9269C53.0683 44.3879 52.9267 45.103 53.017 45.8659C53.1108 46.6595 53.514 47.8003 54.7413 48.414L56.5302 44.8363C56.6937 44.918 56.8279 45.0523 56.9104 45.1939C56.9469 45.2566 56.9665 45.3088 56.9767 45.3422C56.9868 45.3751 56.9891 45.3943 56.9893 45.396C56.9895 45.398 56.9884 45.3895 56.9888 45.3703C56.9892 45.3514 56.9908 45.3277 56.9944 45.3006C56.9979 45.2735 57.0027 45.2479 57.0077 45.2261C57.0128 45.2037 57.0167 45.1917 57.0167 45.1918L53.222 43.9269ZM54.7413 48.414C55.2674 48.677 55.5677 48.8358 55.8681 49.0986C56.1539 49.3487 56.5224 49.7718 56.9456 50.6183L60.5233 48.8294C59.9137 47.6101 59.2492 46.742 58.5021 46.0883C57.7696 45.4474 57.037 45.0897 56.5302 44.8363L54.7413 48.414ZM56.9456 50.6183C57.9219 52.5709 58.8003 55.3415 58.8003 56.9541H62.8003C62.8003 54.4352 61.6128 51.0084 60.5233 48.8294L56.9456 50.6183ZM58.8003 56.9541C58.8003 58.0083 58.7983 59.3209 58.6822 60.4245C58.6234 60.9824 58.5447 61.3862 58.4637 61.6338C58.3428 62.0031 58.36 61.6192 58.8729 61.3627L60.6618 64.9404C61.6912 64.4257 62.0957 63.3962 62.2653 62.8779C62.4748 62.2378 62.5898 61.5118 62.6602 60.8432C62.8022 59.4937 62.8003 57.9658 62.8003 56.9541H58.8003ZM58.8729 61.3627C58.7835 61.4074 58.8385 61.3614 59.0015 61.3549C59.0869 61.3515 59.1881 61.3597 59.2964 61.3877C59.4045 61.4156 59.4968 61.4573 59.5698 61.5011C59.7071 61.5835 59.7459 61.6545 59.7053 61.5996C59.6652 61.5454 59.5952 61.4337 59.4904 61.2242L55.9127 63.0131C56.1781 63.5438 56.6501 64.4141 57.5118 64.9311C58.6106 65.5904 59.762 65.3903 60.6618 64.9404L58.8729 61.3627ZM59.4904 61.2242C59.3303 60.904 58.8102 59.7375 58.3042 58.7889C57.7555 57.7601 56.9998 56.5227 56.017 55.5399L53.1886 58.3684C53.7552 58.9349 54.2906 59.7634 54.7748 60.6713C55.3018 61.6593 55.5564 62.3004 55.9127 63.0131L59.4904 61.2242ZM56.017 55.5399C54.7594 54.2822 52.4248 52.9666 50.0932 54.1324L51.8821 57.7101C51.8991 57.7016 51.9865 57.656 52.2338 57.7355C52.4996 57.8209 52.8473 58.027 53.1886 58.3684L56.017 55.5399ZM50.0932 54.1324C49.6081 54.375 47.5336 55.5396 47.5996 58.056C47.6311 59.2603 48.1724 60.4436 49.1088 61.5952C50.0439 62.7451 51.4637 63.979 53.4935 65.3321L55.7123 62.0039C53.8686 60.7748 52.8028 59.7977 52.2123 59.0716C51.6233 58.3472 51.5992 57.9895 51.5982 57.9512C51.5982 57.9497 51.5823 57.952 51.6311 57.8971C51.705 57.8138 51.8189 57.7417 51.8821 57.7101L50.0932 54.1324ZM53.4029 65.268C54.0656 65.7651 55.185 67.166 56.1561 69.193C57.1033 71.1704 57.7674 73.4531 57.7674 75.5464H61.7674C61.7674 72.6817 60.8821 69.7999 59.7635 67.4649C58.6688 65.1796 57.2059 63.1203 55.8029 62.068L53.4029 65.268ZM61.1816 74.1322C60.9574 73.908 60.6963 73.5584 60.2242 72.9413C59.7986 72.3849 59.257 71.6911 58.5993 71.0335L55.7709 73.8619C56.2271 74.318 56.6323 74.8293 57.0472 75.3717C57.4157 75.8533 57.8887 76.4962 58.3531 76.9606L61.1816 74.1322ZM58.5993 71.0335C58.4581 70.8922 58.2776 70.6583 58.0157 70.2835C57.7952 69.9678 57.4749 69.4883 57.1696 69.1052C56.9003 68.7673 56.3828 68.1537 55.6294 67.8348C55.1921 67.6496 54.6395 67.5475 54.0359 67.6819C53.4476 67.8128 52.9963 68.1271 52.6722 68.4512L55.5006 71.2796C55.4347 71.3455 55.2391 71.512 54.905 71.5863C54.5554 71.6642 54.2554 71.5967 54.0699 71.5182C53.9109 71.4509 53.8448 71.3808 53.8731 71.4069C53.8953 71.4272 53.9499 71.4832 54.0412 71.5979C54.2422 71.8501 54.4334 72.1402 54.7368 72.5746C54.999 72.9498 55.3552 73.4462 55.7709 73.8619L58.5993 71.0335ZM52.6722 68.4512C51.6832 69.4402 51.6615 70.6864 51.871 71.5659C52.0685 72.3949 52.5096 73.1489 52.8982 73.7132C53.6932 74.8675 54.7318 75.873 54.9649 76.1061L57.7934 73.2777C57.51 72.9944 56.7439 72.245 56.1925 71.4443C55.9079 71.0312 55.7904 70.7576 55.7621 70.639C55.7459 70.5707 55.8313 70.949 55.5006 71.2796L52.6722 68.4512ZM54.9649 76.1061C54.9633 76.1045 55.2334 76.4322 55.7861 77.1789C56.2846 77.8524 56.9237 78.7434 57.5993 79.722C58.9705 81.7085 60.4146 83.9459 61.1685 85.4536L64.7462 83.6648C63.8555 81.8834 62.2688 79.4454 60.8912 77.4497C60.1923 76.4372 59.5275 75.5103 59.0012 74.7992C58.529 74.1613 58.0533 73.5376 57.7934 73.2777L54.9649 76.1061ZM49.3337 48.2987C49.334 48.3004 49.3342 48.3017 49.3341 48.3041C49.3341 48.3065 49.3337 48.3142 49.3304 48.3273C49.3235 48.3546 49.3009 48.4141 49.2409 48.476C49.1746 48.5444 49.1154 48.561 49.1222 48.5594C49.1401 48.555 49.2719 48.5282 49.5625 48.5863L50.347 44.664C48.8443 44.3634 47.3821 44.6469 46.3693 45.6914C45.4169 46.6736 45.1946 47.9991 45.4114 49.0831L49.3337 48.2987ZM49.5625 48.5863C51.0336 48.8805 52.0864 50.4851 52.0864 51.7896H56.0864C56.0864 48.9625 54.0404 45.4027 50.347 44.664L49.5625 48.5863ZM55.1958 50.1255C54.8573 49.8999 54.3223 49.5861 53.7329 49.3205C53.2039 49.0822 52.3627 48.7567 51.5041 48.7567V52.7567C51.4538 52.7567 51.4867 52.7499 51.6251 52.7901C51.7515 52.8269 51.9099 52.8864 52.09 52.9676C52.456 53.1325 52.799 53.3351 52.977 53.4537L55.1958 50.1255ZM51.5041 48.7567C51.3108 48.7567 51.0997 48.7685 50.9449 48.7767C50.77 48.786 50.6144 48.7942 50.4546 48.7975C50.1287 48.8041 49.8811 48.7865 49.6944 48.7434C49.5195 48.703 49.473 48.6577 49.4691 48.654C49.4654 48.6504 49.4499 48.6356 49.4276 48.5931C49.4041 48.5481 49.3655 48.4575 49.3337 48.2987L45.4114 49.0832C45.6091 50.072 46.0411 50.9138 46.7123 51.5522C47.3701 52.1779 48.1305 52.4876 48.7949 52.641C49.4474 52.7915 50.0714 52.8062 50.5362 52.7967C50.7719 52.7919 50.9916 52.7799 51.1576 52.7711C51.3437 52.7611 51.4392 52.7567 51.5041 52.7567V48.7567ZM72.027 34.0952C72.2483 33.8739 72.6442 33.501 73.0722 33.1424C73.5329 32.7563 73.8991 32.4992 74.0895 32.404L72.3007 28.8263C71.6648 29.1443 70.998 29.6618 70.5033 30.0763C69.9759 30.5182 69.4938 30.9716 69.1986 31.2667L72.027 34.0952ZM74.0895 32.404C74.3728 32.2624 75.3217 31.8543 75.9335 31.4719C76.5346 31.0962 77.7773 30.1891 77.7773 28.5494H73.7773C73.7773 28.2622 73.8979 28.0602 73.9574 27.9859C73.994 27.9401 73.9776 27.9774 73.8135 28.0799C73.6582 28.177 73.4541 28.282 73.1803 28.4112C72.9528 28.5187 72.5812 28.686 72.3007 28.8263L74.0895 32.404ZM77.7773 28.5494C77.7773 27.5656 77.273 26.8526 76.8315 26.4287C76.3988 26.0133 75.8948 25.7386 75.4922 25.5597C74.7318 25.2218 73.8061 25 73.1951 25V29C73.1187 29 73.0972 28.9929 73.153 29.0014C73.1955 29.0079 73.2616 29.0203 73.3452 29.0405C73.5173 29.0822 73.7066 29.1434 73.8676 29.215C73.9461 29.2499 74.004 29.2811 74.0424 29.3049C74.0826 29.3299 74.0836 29.3356 74.0614 29.3143C74.0234 29.2778 73.7773 29.0166 73.7773 28.5494H77.7773ZM73.1951 25C72.6017 25 70.0744 24.9768 68.4323 27.44L71.7605 29.6588C71.9971 29.3038 72.2524 29.1642 72.4718 29.091C72.7273 29.0059 72.968 29 73.1951 29V25ZM68.4323 27.44C67.5697 28.7338 67.6869 30.219 67.8969 31.1829C68.1196 32.2053 68.5503 33.1307 68.8978 33.7099L72.3278 31.652C72.1589 31.3705 71.9182 30.8498 71.8052 30.3314C71.6795 29.7546 71.7967 29.6044 71.7605 29.6588L68.4323 27.44ZM78.3282 43.9174C78.6369 43.8402 79.1636 43.7204 79.7024 43.6213C80.2797 43.5152 80.7263 43.4606 80.9418 43.4606V39.4606C80.3311 39.4606 79.5726 39.5782 78.9793 39.6872C78.3475 39.8034 77.738 39.9418 77.3581 40.0368L78.3282 43.9174ZM80.9418 43.4606C81.7616 43.4606 82.5851 43.2624 83.2565 42.9267C83.5911 42.7594 83.9697 42.5172 84.2922 42.1716C84.6043 41.8373 85.0076 41.2436 85.0076 40.4277H81.0076C81.0076 39.87 81.2819 39.5346 81.368 39.4424C81.4646 39.3389 81.5204 39.3226 81.4677 39.349C81.3643 39.4006 81.1549 39.4606 80.9418 39.4606V43.4606ZM85.0076 40.4277C85.0076 39.519 84.5734 38.7777 84.0991 38.3034C83.6247 37.829 82.8834 37.3948 81.9747 37.3948V41.3948C81.5825 41.3948 81.3577 41.2188 81.2707 41.1318C81.1836 41.0448 81.0076 40.82 81.0076 40.4277H85.0076ZM81.9747 37.3948C82.5629 37.3948 79.7922 36.6831 77.9783 38.4971L80.8067 41.3255C80.8818 41.2504 80.908 41.2495 80.8811 41.26C80.8573 41.2692 80.8466 41.2657 80.8773 41.2657C80.9222 41.2657 80.9911 41.272 81.156 41.3007C81.2153 41.311 81.3497 41.3356 81.4575 41.352C81.5704 41.3691 81.7596 41.3948 81.9747 41.3948V37.3948ZM77.9783 38.4971C76.9858 39.4895 76.3132 40.5648 76.0543 41.0826L79.632 42.8715C79.7174 42.7007 80.1465 41.9857 80.8067 41.3255L77.9783 38.4971ZM72.1308 57.3451C72.7918 57.1798 73.2741 56.8663 73.3238 56.8393C73.343 56.8288 73.2945 56.8564 73.22 56.8764C73.1514 56.8948 73.1301 56.8883 73.1951 56.8883V52.8883C72.8469 52.8883 72.5114 52.9249 72.1824 53.0133C71.8476 53.1032 71.5925 53.2276 71.4137 53.3248C71.0675 53.5129 71.1882 53.4576 71.1607 53.4645L72.1308 57.3451ZM73.1951 56.8883C73.6462 56.8883 74.5565 56.9 75.3586 56.6995C75.7702 56.5966 76.3523 56.3934 76.857 55.9392C77.4333 55.4205 77.7773 54.6894 77.7773 53.8554H73.7773C73.7773 53.7282 73.8027 53.5587 73.8842 53.3772C73.9654 53.1963 74.0771 53.0596 74.1812 52.966C74.3631 52.8023 74.4934 52.7927 74.3885 52.8189C74.3042 52.84 74.1545 52.8624 73.9234 52.8753C73.697 52.8879 73.4609 52.8883 73.1951 52.8883V56.8883ZM77.7773 53.8554C77.7773 52.9741 77.4382 52.1449 76.7675 51.5613C76.1419 51.0168 75.3869 50.8225 74.7444 50.8225V54.8225C74.6184 54.8225 74.3799 54.786 74.1416 54.5786C74.0179 54.471 73.9178 54.3353 73.8532 54.186C73.7895 54.0389 73.7773 53.9187 73.7773 53.8554H77.7773ZM74.7444 50.8225C74.4831 50.8225 74.0487 50.8188 73.513 50.9259C72.9784 51.0328 72.4214 51.2315 71.7842 51.5501L73.5731 55.1278C73.9687 54.93 74.1864 54.8705 74.2974 54.8483C74.4073 54.8263 74.4893 54.8225 74.7444 54.8225V50.8225ZM71.7842 51.5501C70.5645 52.16 70.0903 53.1997 69.8991 53.9357C69.811 54.2747 69.7711 54.5949 69.7514 54.7377C69.7387 54.83 69.7354 54.8468 69.7362 54.8429C69.7375 54.8365 69.7442 54.8038 69.7588 54.755C69.7729 54.7083 69.8023 54.6196 69.8569 54.5104L73.4346 56.2992C73.5755 56.0174 73.6328 55.7546 73.6571 55.6343C73.6849 55.497 73.7036 55.3595 73.7141 55.2828C73.7409 55.0877 73.7525 55.0109 73.7705 54.9418C73.7851 54.8854 73.7861 54.9127 73.745 54.972C73.6935 55.0466 73.6239 55.1024 73.5731 55.1278L71.7842 51.5501ZM64.5155 85.813L70.1052 78.8663L66.9888 76.3587L61.3992 83.3054L64.5155 85.813Z" fill="black" mask="url(#path-18-outside-1_228_265)"/>
<path d="M62.8275 81.3569L59.3653 75.8173H70.0116V80.6644L65.1645 86.2039L66.5494 92.5658L59.3653 86.8964L62.8275 81.3569Z" fill="#474662"/>
<mask id="mask0_228_265" style="mask-type:alpha" maskUnits="userSpaceOnUse" x="59" y="75" width="12" height="18">
<path d="M62.8275 81.3569L59.3653 75.8173H70.0116V80.6644L65.1645 86.2039L66.5494 92.5658L59.3653 86.8964L62.8275 81.3569Z" fill="#474662"/>
</mask>
<g mask="url(#mask0_228_265)">
<g filter="url(#filter1_i_228_265)">
<path d="M80.9418 41.4606C80.1155 41.4606 78.5317 41.8049 77.8431 41.9771C78.0153 41.6328 78.5662 40.7376 79.3925 39.9113C80.4254 38.8784 81.4583 39.3948 81.9747 39.3948C82.4912 39.3948 83.0076 39.9113 83.0076 40.4277C83.0076 40.9442 81.9747 41.4606 80.9418 41.4606Z" fill="#54B3F3"/>
<path d="M66.4812 97.7156C66.3091 89.6245 66.4812 82.1573 68.547 77.6125C71.1293 71.9315 74.228 69.3493 73.1951 68.3164C72.1622 67.2835 70.0964 68.8328 68.547 70.3822C66.9977 71.9315 67.5141 75.0302 66.4812 75.0302C65.4483 75.0302 65.4483 69.3492 65.9648 67.7999C66.4812 66.2505 68.547 61.6025 72.1622 61.6025C75.7774 61.6025 76.2938 60.0531 76.2938 59.5367C76.2938 59.0202 76.8103 57.4709 73.1951 57.4709C70.303 57.4709 67.5141 59.881 66.4812 61.086C65.9648 58.8481 65.8615 53.959 69.5799 52.3064C74.228 50.2406 77.3267 50.757 78.8761 49.7241C80.1155 48.8978 80.6045 48.3285 80.4254 47.1416C80.2463 45.9547 78.153 44.7659 75.2609 45.5922C71.6457 46.6251 69.5799 49.2075 69.0635 48.1746C68.547 47.1417 70.0964 43.0101 74.228 40.9443C78.3596 38.8785 78.3596 36.2962 77.8432 35.2633C77.3267 34.2304 73.7115 31.6482 69.5799 37.3291C65.4483 43.0101 65.9648 50.2403 65.4483 50.2403C64.9319 50.2403 63.3825 50.2403 63.899 46.1087C64.4154 41.9771 66.4812 39.3948 66.4812 36.8126C66.4812 36.2961 66.4812 32.681 63.3825 32.681C60.2838 32.681 59.7674 35.7797 59.7674 36.2961C59.7674 36.8126 59.7674 37.8455 60.2838 42.4935C60.8003 47.1416 62.3496 50.7567 62.3496 51.2732C62.3496 51.6863 62.0053 51.7896 61.8332 51.7896C60.8003 49.0352 58.4246 43.5264 57.1851 43.5264C55.9456 43.5264 55.2915 44.215 55.1193 44.5593C54.9472 45.0758 54.8094 46.212 55.6358 46.6251C56.6687 47.1416 57.7016 47.658 58.7345 49.7238C59.7674 51.7896 60.8003 54.8883 60.8003 56.9541C60.8003 59.0199 60.8003 62.6351 59.7674 63.1516C58.7345 63.668 58.218 63.1516 57.7016 62.1187C57.1851 61.0858 56.1522 58.5035 54.6028 56.9541C53.5699 55.9212 52.1554 55.3374 50.9877 55.9212C50.2108 56.3097 46.8561 58.5035 54.6029 63.668C56.6687 65.2174 59.7674 70.5884 59.7674 75.5464C59.0788 74.8578 58.299 73.5615 57.1851 72.4477C56.0713 71.3338 55.1193 68.8325 54.0864 69.8654C52.7697 71.1821 56.2242 73.4174 56.6686 73.997C57.2014 74.6919 57.8027 75.6549 59.2509 78.1286C62.1688 83.1127 62.2475 82.9026 62.4786 84.5488C62.7096 86.1949 62.4786 96.071 62.4786 96.071L66.4812 97.7156Z" fill="#54B3F3"/>
<path d="M47.3725 48.6909C47.1488 47.5725 47.889 46.212 49.9548 46.6251C52.537 47.1416 54.0864 49.7238 54.0864 51.7896C53.5699 51.4453 52.3305 50.7567 51.5041 50.7567C50.4712 50.7567 47.889 51.2732 47.3725 48.6909Z" fill="#54B3F3"/>
<path d="M70.6128 32.681C71.1293 32.1645 72.3688 31.0283 73.1951 30.6152C74.228 30.0987 75.7773 29.5823 75.7773 28.5494C75.7773 27.5165 73.7115 27 73.1951 27C72.6786 27 71.1293 27 70.0964 28.5494C69.2701 29.7888 70.0964 31.8202 70.6128 32.681Z" fill="#54B3F3"/>
<path d="M73.1951 54.8883C72.3688 54.8883 72.3343 55.2326 71.6457 55.4048C71.8179 55.0605 71.6334 53.8616 72.6786 53.339C73.7115 52.8225 74.228 52.8225 74.7444 52.8225C75.2609 52.8225 75.7773 53.138 75.7773 53.8554C75.7773 54.8883 74.228 54.8883 73.1951 54.8883Z" fill="#54B3F3"/>
</g>
<path d="M76.9487 41.5299C76.7741 41.8792 76.8187 42.2982 77.0631 42.6028C77.3075 42.9074 77.7068 43.0419 78.0857 42.9472C78.4122 42.8656 78.9595 42.7411 79.5216 42.6378C80.1029 42.531 80.6275 42.4606 80.9418 42.4606C81.61 42.4606 82.2799 42.2969 82.8093 42.0323C83.0735 41.9002 83.3434 41.7226 83.5612 41.4893C83.7737 41.2616 84.0076 40.9002 84.0076 40.4277C84.0076 39.8443 83.726 39.3445 83.392 39.0105C83.058 38.6765 82.5582 38.3948 81.9747 38.3948C82.0106 38.3948 80.1088 37.7807 78.6854 39.2042C77.776 40.1136 77.1642 41.0988 76.9487 41.5299ZM66.1012 98.6406C66.4131 98.7687 66.7687 98.731 67.0468 98.5403C67.3249 98.3496 67.4882 98.0315 67.481 97.6943C67.3951 93.6561 67.3962 89.8084 67.6716 86.4151C67.9482 83.008 68.496 80.1414 69.4574 78.0263C70.5869 75.5414 71.8146 73.6718 72.7621 72.229C72.8664 72.0701 72.9673 71.9165 73.0644 71.7677C73.5355 71.0453 73.9693 70.3594 74.1994 69.769C74.4281 69.1824 74.5956 68.3026 73.9022 67.6093C73.4063 67.1134 72.784 66.9478 72.1844 66.9878C71.621 67.0253 71.0728 67.2409 70.5906 67.5005C69.6231 68.0215 68.6378 68.8772 67.8399 69.6751C67.2118 70.3032 66.8587 71.1019 66.6369 71.8388C66.6121 71.1046 66.6287 70.3341 66.6795 69.6583C66.735 68.9213 66.8256 68.3796 66.9135 68.1161C67.1497 67.4073 67.7515 65.9671 68.6969 64.7262C69.6561 63.4673 70.8175 62.6025 72.1622 62.6025C74.0972 62.6025 75.3785 62.1897 76.1976 61.5526C77.0294 60.9057 77.2938 60.0943 77.2938 59.5367C77.2938 59.5393 77.2938 59.5384 77.2941 59.532C77.2944 59.5264 77.2949 59.5166 77.2961 59.5012C77.2977 59.4787 77.2989 59.4641 77.3004 59.4463C77.3018 59.4293 77.3035 59.4092 77.306 59.3763C77.3139 59.2733 77.3235 59.1255 77.3173 58.959C77.3048 58.6195 77.2256 58.1653 76.9139 57.7289C76.29 56.8555 75.062 56.4709 73.1951 56.4709C71.4837 56.4709 69.8745 57.1774 68.6055 57.982C68.1026 58.3009 67.6381 58.6446 67.2246 58.9853C67.2016 58.2569 67.2504 57.4617 67.4193 56.6908C67.7518 55.1736 68.5135 53.8746 69.9861 53.2202C70.9419 52.7954 71.8286 52.485 72.6494 52.2491C72.5161 52.3068 72.3771 52.3717 72.2314 52.4446C71.3602 52.8801 71.0156 53.6152 70.8669 54.1872C70.8013 54.4397 70.7683 54.6817 70.7468 54.8397C70.7452 54.8516 70.7436 54.863 70.7421 54.874C70.7312 54.9531 70.7243 54.999 70.7185 55.0304C70.5837 55.3638 70.6381 55.7468 70.8657 56.0305C71.1101 56.3351 71.5094 56.4696 71.8883 56.3749C72.3181 56.2675 72.6227 56.0901 72.7794 55.9989C72.806 55.9834 72.8283 55.9704 72.8463 55.9606C72.9054 55.9285 72.9328 55.9181 72.9606 55.9106C72.9914 55.9023 73.0593 55.8883 73.1951 55.8883C73.2108 55.8883 73.2268 55.8883 73.2432 55.8884C73.7293 55.8885 74.4782 55.8888 75.1161 55.7294C75.451 55.6456 75.855 55.4956 76.1881 55.1959C76.5569 54.8639 76.7773 54.4015 76.7773 53.8554C76.7773 53.2354 76.5432 52.6917 76.111 52.3156C75.7014 51.9591 75.1948 51.8225 74.7444 51.8225H74.7282C74.6266 51.8225 74.5122 51.8225 74.3851 51.8276C74.795 51.7446 75.1846 51.6759 75.5544 51.6143C75.7388 51.5836 75.9226 51.554 76.1043 51.5247C76.6511 51.4366 77.1782 51.3518 77.6405 51.249C78.2638 51.1105 78.8903 50.9165 79.4308 50.5562C80.0579 50.1381 80.6462 49.6929 81.0224 49.1111C81.4405 48.4646 81.5307 47.7643 81.4142 46.9924C81.2481 45.8919 80.2896 45.0823 79.2135 44.6763C78.0817 44.2493 76.6132 44.1658 74.9862 44.6307C73.0855 45.1738 71.5887 46.1103 70.5661 46.7501C70.5336 46.7704 70.5017 46.7904 70.4702 46.8101C70.3162 46.9063 70.181 46.99 70.0619 47.0621C70.1787 46.619 70.4059 46.061 70.7637 45.4555C71.518 44.1789 72.8031 42.7748 74.6752 41.8387C76.8865 40.7331 78.124 39.4218 78.6948 38.1173C79.2618 36.8212 79.1327 35.6064 78.7376 34.8161C78.5025 34.3459 78.0253 33.8673 77.4465 33.5043C76.8429 33.1258 76.0475 32.8202 75.1107 32.7795C73.1813 32.6956 70.9596 33.732 68.7712 36.741C66.5793 39.7548 65.6387 43.1504 65.1742 45.7384C65.0072 46.6685 64.9001 47.5058 64.8205 48.184C64.7777 47.7408 64.7812 47.1132 64.8913 46.2327C65.1325 44.3029 65.7345 42.7274 66.315 41.244C66.3379 41.1854 66.3609 41.1267 66.384 41.068C66.9231 39.6929 67.4812 38.2694 67.4812 36.8126V36.8032C67.4813 36.5181 67.4816 35.3297 67.0224 34.1817C66.7856 33.5898 66.4073 32.9577 65.7969 32.4716C65.1717 31.9738 64.3671 31.681 63.3825 31.681C61.4228 31.681 60.224 32.6939 59.5613 33.7708C58.9371 34.7851 58.7674 35.8745 58.7674 36.2961C58.7674 36.8677 58.7721 37.9435 59.2899 42.604C59.3642 43.2722 59.459 43.9191 59.5671 44.5389C59.4088 44.285 59.2504 44.0486 59.0935 43.8362C58.8643 43.5259 58.6123 43.2304 58.3418 43.003C58.0949 42.7955 57.6943 42.5264 57.1851 42.5264C55.5502 42.5264 54.5589 43.4441 54.2249 44.1121C54.2037 44.1544 54.1856 44.1982 54.1706 44.2431C54.0508 44.6027 53.9413 45.1669 54.01 45.7484C54.0806 46.3453 54.3683 47.1094 55.1886 47.5196C55.7098 47.7802 56.1182 47.9887 56.5266 48.346C56.9277 48.697 57.3702 49.2314 57.84 50.171C58.8446 52.1802 59.8003 55.1149 59.8003 56.9541C59.8003 57.9976 59.7993 59.3641 59.6767 60.5292C59.615 61.1148 59.5273 61.5991 59.4141 61.9448C59.3434 62.1608 59.2854 62.2534 59.2656 62.2832C59.1413 62.34 59.0725 62.3515 59.0478 62.3537C59.0276 62.3393 58.9775 62.2974 58.9012 62.194C58.8125 62.0741 58.7129 61.9053 58.596 61.6714C58.5295 61.5385 58.4383 61.3431 58.3284 61.1078C58.0926 60.6027 57.7706 59.9133 57.4219 59.2595C56.8893 58.2609 56.1887 57.1258 55.3099 56.247C54.1646 55.1017 52.2901 54.152 50.5405 55.0268C50.1036 55.2452 48.55 56.1503 48.5992 58.0298C48.6232 58.9426 49.0351 59.9195 49.8847 60.9643C50.7301 62.0039 52.0538 63.1681 54.0233 64.4835C54.87 65.129 56.064 66.6862 57.0579 68.761C57.569 69.8279 58.008 70.9923 58.3131 72.1837C58.1784 72.0349 58.0382 71.8865 57.8922 71.7406C57.6824 71.5307 57.4579 71.2311 57.196 70.8563C57.1435 70.7811 57.0888 70.7019 57.0325 70.6203C56.8298 70.3268 56.606 70.0025 56.3875 69.7283C56.1263 69.4005 55.7422 68.9684 55.2396 68.7556C54.9579 68.6364 54.6185 68.5767 54.2531 68.658C53.8955 68.7376 53.6059 68.9317 53.3793 69.1583C53.079 69.4586 52.8813 69.8244 52.8141 70.2364C52.7491 70.6354 52.8174 71.0088 52.9312 71.3243C53.1491 71.9283 53.5897 72.4719 53.9914 72.8957C54.4091 73.3361 54.8779 73.7413 55.244 74.0533C55.2857 74.0888 55.3255 74.1227 55.3637 74.1552C55.5003 74.2712 55.6153 74.369 55.7127 74.4554C55.8091 74.5408 55.8546 74.5862 55.8704 74.6019C55.8777 74.6092 55.8786 74.6101 55.8751 74.6055C56.3627 75.2415 56.9321 76.1472 58.3879 78.6339C59.0331 79.7358 59.5331 80.5737 59.9252 81.2308C60.4351 82.0852 60.7626 82.634 60.9896 83.0604C61.1779 83.414 61.2682 83.6326 61.328 83.835C61.3905 84.0471 61.4307 84.2776 61.4883 84.6878C61.535 85.021 61.565 85.8745 61.5761 87.053C61.5868 88.2005 61.5797 89.5817 61.5652 90.9164C61.5508 92.2502 61.5292 93.5333 61.5112 94.4832C61.5022 94.9581 61.4941 95.3494 61.4883 95.622L61.4813 95.9372L61.4795 96.0197L61.479 96.0407L61.4789 96.046L61.4788 96.0473L61.4788 96.0476L62.4786 96.071L61.4788 96.0477C61.4691 96.4616 61.7155 96.8387 62.0985 96.996L66.1012 98.6406ZM66.053 74.2438C66.0529 74.2437 66.054 74.2417 66.0561 74.2383C66.054 74.2422 66.053 74.244 66.053 74.2438ZM66.996 74.2636C66.996 74.2637 66.9953 74.2627 66.994 74.2606C66.9953 74.2625 66.996 74.2636 66.996 74.2636ZM70.7131 55.0554C70.713 55.0555 70.7135 55.0534 70.7146 55.0492C70.7137 55.0532 70.7132 55.0552 70.7131 55.0554ZM69.372 47.4198C69.3721 47.4196 69.375 47.4189 69.3804 47.4179C69.3747 47.4195 69.372 47.4199 69.372 47.4198ZM53.5317 52.6217C53.8385 52.8263 54.2331 52.8453 54.5582 52.6713C54.8834 52.4973 55.0864 52.1584 55.0864 51.7896C55.0864 49.3432 53.2887 46.2721 50.1509 45.6445C48.8831 45.391 47.8012 45.6511 47.0872 46.3876C46.4033 47.0928 46.2276 48.0654 46.3919 48.887L47.3715 48.6911L46.3919 48.887C46.5554 49.7042 46.9005 50.3511 47.4015 50.8277C47.8958 51.2979 48.4778 51.5415 49.0198 51.6666C49.5559 51.7903 50.0857 51.8056 50.5158 51.7969C50.7273 51.7926 50.9264 51.7819 51.0922 51.7731L51.1044 51.7725C51.2827 51.763 51.4071 51.7567 51.5041 51.7567C51.6946 51.7567 52.0487 51.8522 52.5008 52.0558C52.9226 52.2459 53.3136 52.4763 53.5317 52.6217ZM69.7553 33.1955C69.9138 33.4595 70.185 33.6358 70.4906 33.6735C70.7963 33.7111 71.1022 33.6058 71.3199 33.3881C71.5597 33.1483 71.9771 32.7553 72.43 32.3758C72.8992 31.9827 73.3405 31.6605 73.6423 31.5096C73.7565 31.4525 73.9032 31.3845 74.0676 31.3082C74.4787 31.1177 75.0006 30.8758 75.4035 30.6239C75.9623 30.2747 76.7773 29.6274 76.7773 28.5494C76.7773 27.9284 76.4606 27.4589 76.139 27.1501C75.8218 26.8456 75.4326 26.6275 75.086 26.4735C74.4153 26.1754 73.6297 26 73.1951 26L73.1856 26C72.6172 25.9999 70.5943 25.9997 69.2643 27.9947C68.6265 28.9514 68.685 30.1029 68.874 30.9701C69.0693 31.8664 69.4524 32.6906 69.7553 33.1955Z" stroke="black" stroke-width="2" stroke-linejoin="round"/>
</g>
<defs>
<filter id="filter0_i_228_265" x="43.335" y="25" width="41.6727" height="63.5592" filterUnits="userSpaceOnUse" color-interpolation-filters="sRGB">
<feFlood flood-opacity="0" result="BackgroundImageFix"/>
<feBlend mode="normal" in="SourceGraphic" in2="BackgroundImageFix" result="shape"/>
<feColorMatrix in="SourceAlpha" type="matrix" values="0 0 0 0 0 0 0 0 0 0 0 0 0 0 0 0 0 0 127 0" result="hardAlpha"/>
<feOffset dx="-3" dy="4"/>
<feGaussianBlur stdDeviation="1"/>
<feComposite in2="hardAlpha" operator="arithmetic" k2="-1" k3="1"/>
<feColorMatrix type="matrix" values="0 0 0 0 0.0252778 0 0 0 0 0.390963 0 0 0 0 0.733056 0 0 0 0.62 0"/>
<feBlend mode="normal" in2="shape" result="effect1_innerShadow_228_265"/>
</filter>
<filter id="filter1_i_228_265" x="43.335" y="25" width="41.6727" height="76.7156" filterUnits="userSpaceOnUse" color-interpolation-filters="sRGB">
<feFlood flood-opacity="0" result="BackgroundImageFix"/>
<feBlend mode="normal" in="SourceGraphic" in2="BackgroundImageFix" result="shape"/>
<feColorMatrix in="SourceAlpha" type="matrix" values="0 0 0 0 0 0 0 0 0 0 0 0 0 0 0 0 0 0 127 0" result="hardAlpha"/>
<feOffset dx="-3" dy="4"/>
<feGaussianBlur stdDeviation="1"/>
<feComposite in2="hardAlpha" operator="arithmetic" k2="-1" k3="1"/>
<feColorMatrix type="matrix" values="0 0 0 0 0.0252778 0 0 0 0 0.390963 0 0 0 0 0.733056 0 0 0 0.62 0"/>
<feBlend mode="normal" in2="shape" result="effect1_innerShadow_228_265"/>
</filter>
</defs>
</svg>
