<svg width="65" height="86" viewBox="0 0 65 86" fill="none" xmlns="http://www.w3.org/2000/svg">
<g filter="url(#filter0_i_269_979)">
<path d="M5.01646 53.9707C5.11158 51.3201 6.01588 46.9749 6.01588 46.9749C6.01588 46.9749 11.3928 55.7543 15.5102 53.9707C19.7861 52.1185 16.5096 46.138 16.5096 41.4782C16.5096 37.0124 17.0172 35.0224 18.5084 30.9844C20.731 24.9658 24.3757 23.0947 27.503 17.4925C30.1027 12.8356 33.4994 5 33.4994 5C33.4994 5 36.749 16.1335 36.4976 23.4889C36.2903 29.5572 29.9837 33.7146 33.4994 38.48C34.5676 39.9277 35.2187 41.2075 36.9973 41.4782C39.468 41.8541 40.2126 39.2054 41.9943 37.4806C44.5918 34.9661 47.9908 30.9844 47.9908 30.9844C47.9908 30.9844 45.6959 37.6616 45.4923 42.4776C45.2886 47.2935 46.9914 54.9701 46.9914 54.9701C51.5089 54.3812 58.9842 46.9749 58.9842 46.9749C58.9842 46.9749 59.8878 51.101 59.9835 53.7516C60.5335 68.979 47.2345 81.2655 32.0003 80.9545C17.0771 80.6499 4.48114 68.8875 5.01646 53.9707Z" fill="#FFBA17"/>
</g>
<path d="M33.6553 2.50488C34.7065 2.57071 35.6043 3.28866 35.8994 4.2998V4.30078C35.8996 4.30143 35.9001 4.30272 35.9004 4.30371C35.901 4.30566 35.9014 4.30833 35.9023 4.31152C35.9043 4.31811 35.9077 4.32709 35.9111 4.33887C35.918 4.36275 35.9278 4.398 35.9404 4.44238C35.9657 4.53113 36.0021 4.6601 36.0479 4.8252C36.1395 5.15584 36.2687 5.63278 36.4229 6.22656C36.7308 7.4132 37.1389 9.07345 37.5391 10.9707C38.2783 14.4756 39.0319 18.9742 39.0107 22.8154L38.9961 23.5742C38.8689 27.2971 36.834 30.5416 35.8506 32.5654C35.2927 33.7135 35.0046 34.5236 34.9463 35.1963C34.8986 35.7461 34.9937 36.2953 35.5107 36.9961L35.9229 37.5664C36.0509 37.747 36.1591 37.9005 36.2666 38.0479C36.4828 38.3443 36.6389 38.538 36.7764 38.6797C36.9855 38.8953 37.1166 38.9678 37.373 39.0068L37.459 39.0127C37.4967 38.9915 37.624 38.9087 37.8623 38.6328C38.1397 38.3117 38.3847 37.9593 38.7998 37.3984C39.1734 36.8936 39.655 36.2662 40.2559 35.6846L40.7275 35.2197C41.8477 34.1013 43.0867 32.7563 44.1055 31.6201C44.6827 30.9763 45.1802 30.4093 45.5332 30.0039C45.7094 29.8015 45.8499 29.64 45.9453 29.5293C45.993 29.474 46.0294 29.4307 46.0537 29.4023L46.0879 29.3633L46.0889 29.3613C46.8685 28.4481 48.1877 28.2181 49.2305 28.8135C50.208 29.3717 50.6839 30.5075 50.418 31.583L50.3555 31.7969L50.3545 31.7979C50.3538 31.7998 50.3523 31.8036 50.3506 31.8086C50.3471 31.8189 50.3415 31.836 50.334 31.8584C50.3189 31.9032 50.2962 31.9716 50.2666 32.0615C50.2072 32.2421 50.1204 32.5091 50.0156 32.8457C49.8056 33.5202 49.5236 34.4698 49.2354 35.5625C48.6842 37.6516 48.1514 40.1218 48.0127 42.1777L47.9902 42.583C47.8996 44.7259 48.2384 47.641 48.6348 50.1377C48.7202 50.6757 48.8064 51.1859 48.8896 51.6543C49.0887 51.5495 49.2978 51.4371 49.5137 51.3115C50.7097 50.6158 51.9657 49.7128 53.1309 48.791C54.2892 47.8746 55.3187 46.9706 56.0605 46.2939C56.4304 45.9566 56.7267 45.6784 56.9277 45.4863C57.028 45.3905 57.1049 45.3166 57.1553 45.2676C57.1805 45.243 57.1992 45.2244 57.2109 45.2129C57.2167 45.2072 57.2203 45.2025 57.2227 45.2002L57.2246 45.1982C57.8723 44.5568 58.8181 44.3189 59.6924 44.5771C60.5668 44.8354 61.2317 45.5498 61.4268 46.4404V46.4414C61.4269 46.4423 61.4274 46.444 61.4277 46.4453C61.4283 46.448 61.4287 46.4516 61.4297 46.4561C61.4317 46.4654 61.4348 46.4791 61.4385 46.4961C61.4458 46.5301 61.4566 46.5793 61.4697 46.6416C61.496 46.7664 61.5334 46.9458 61.5781 47.168C61.6675 47.6121 61.7877 48.2324 61.9111 48.9395C62.1523 50.3212 62.4271 52.1558 62.4814 53.6611L62.499 54.4463C62.6295 70.6195 48.6678 83.3754 32.7227 83.46L31.9492 83.4541C15.8181 83.1248 1.9267 70.3731 2.51855 53.8809L2.54785 53.3027C2.63966 51.9176 2.87574 50.3167 3.08594 49.0645C3.20885 48.3322 3.32896 47.6867 3.41797 47.2236C3.46255 46.9917 3.49925 46.804 3.52539 46.6738C3.53839 46.6092 3.54944 46.5586 3.55664 46.5234C3.56019 46.5061 3.56247 46.492 3.56445 46.4824L3.56836 46.4668V46.4658L3.61426 46.2803C3.87795 45.3675 4.64097 44.6764 5.58789 44.5117C6.5972 44.3363 7.6109 44.7948 8.14648 45.668V45.667L8.14746 45.668C8.14854 45.6697 8.15073 45.6739 8.1543 45.6797C8.16145 45.6912 8.17371 45.7109 8.19043 45.7373C8.22404 45.7905 8.27628 45.8726 8.3457 45.9785C8.48511 46.1912 8.6923 46.499 8.9541 46.8652C9.48293 47.605 10.2117 48.5501 11.0381 49.4268C11.8862 50.3264 12.7253 51.0328 13.458 51.4199C14.1872 51.8051 14.4564 51.7029 14.5166 51.6768L14.6572 51.6094C14.954 51.4533 15.0339 51.2992 15.0957 51.1113C15.215 50.7487 15.2604 50.126 15.1318 49.083C15.0034 48.041 14.7598 46.9549 14.5 45.6094C14.257 44.3507 14.0098 42.901 14.0098 41.4785C14.0098 39.1481 14.1422 37.3565 14.499 35.5791C14.8524 33.819 15.4087 32.161 16.1631 30.1182L16.4033 29.4961C17.6249 26.4491 19.1874 24.3757 20.7354 22.4941C22.3855 20.4884 23.894 18.8294 25.3203 16.2744L25.7979 15.3984C26.9324 13.2789 28.1835 10.6664 29.207 8.45117C29.7879 7.19409 30.2882 6.08029 30.6436 5.28125C30.8211 4.88202 30.9622 4.5616 31.0586 4.3418C31.1068 4.2319 31.1441 4.14675 31.1689 4.08984C31.1812 4.06162 31.1911 4.04052 31.1973 4.02637C31.2003 4.01927 31.2026 4.01317 31.2041 4.00977C31.2046 4.00856 31.2048 4.00751 31.2051 4.00684L31.2061 4.00586L31.291 3.8291C31.7476 2.96715 32.6698 2.44333 33.6553 2.50488Z" stroke="white" stroke-width="5" stroke-linejoin="round"/>
<g filter="url(#filter1_i_269_979)">
<path d="M5.01646 53.9707C5.11158 51.3201 6 47 6 47C6 47 11.3928 55.7543 15.5102 53.9707C19.7861 52.1185 16.5096 46.138 16.5096 41.4782C16.5096 37.0124 17.0172 35.0224 18.5084 30.9844C20.731 24.9658 24.3757 23.0947 27.503 17.4925C30.1027 12.8356 33.4994 5 33.4994 5C33.4994 5 36.749 16.1335 36.4976 23.4889C36.2903 29.5572 29.9843 33.7346 33.5 38.5C34.5681 39.9478 35.2213 41.2294 37 41.5C39.4706 41.8759 40.7514 38.8729 42 37C44 34 48 31 48 31C48 31 45.7037 37.6841 45.5 42.5C45.2963 47.3159 46.9914 54.9701 46.9914 54.9701C51.5089 54.3812 58.9842 46.9749 58.9842 46.9749C58.9842 46.9749 59.8878 51.101 59.9835 53.7516C60.5335 68.979 47.2345 81.2655 32.0003 80.9545C17.0771 80.6499 4.48114 68.8875 5.01646 53.9707Z" fill="#FFBA17"/>
</g>
<path d="M33.5615 4.00195C33.982 4.02828 34.3409 4.31537 34.459 4.71973L34.46 4.7207V4.72266C34.4604 4.72426 34.4611 4.72655 34.4619 4.72949C34.4636 4.73536 34.4665 4.74376 34.4697 4.75488C34.4762 4.77718 34.4859 4.80988 34.498 4.85254C34.5224 4.93805 34.5577 5.0638 34.6025 5.22559C34.6922 5.54913 34.8188 6.01835 34.9707 6.60352C35.2743 7.77338 35.6769 9.41056 36.0713 11.2803C36.8063 14.7651 37.5303 19.1323 37.5107 22.7998L37.4971 23.5234C37.3839 26.8322 35.5941 29.6687 34.5029 31.9189C33.9309 33.0987 33.5355 34.1198 33.4521 35.084C33.3731 35.999 33.5709 36.9116 34.3047 37.9062L35.0762 38.9707C35.748 39.8866 36.1998 40.3671 37.1504 40.5117L37.2842 40.5264C37.9499 40.577 38.5372 40.2327 39.1914 39.4512C39.5367 39.0386 39.8611 38.5491 40.1895 38.0195C40.5024 37.5149 40.8445 36.9305 41.168 36.4453L41.374 36.1445C42.4335 34.6454 43.8919 33.202 45.0811 32.1318C45.722 31.555 46.2989 31.0741 46.7158 30.7373C46.9242 30.569 47.0931 30.4362 47.2109 30.3447C47.2699 30.299 47.3167 30.2636 47.3486 30.2393C47.3645 30.2271 47.3771 30.2175 47.3857 30.2109C47.39 30.2077 47.3931 30.2049 47.3955 30.2031C47.3967 30.2023 47.3977 30.2017 47.3984 30.2012L47.3994 30.2002C47.3995 30.2001 47.4 30.2 48 31L47.4004 30.2002C47.7517 29.9368 48.2339 29.9331 48.5889 30.1914C48.8994 30.4176 49.0494 30.7982 48.9863 31.168L48.9453 31.3252C48.9451 31.3258 48.9448 31.3268 48.9443 31.3281C48.9434 31.3308 48.9423 31.3352 48.9404 31.3408C48.9364 31.3526 48.93 31.3715 48.9219 31.3955C48.9057 31.4436 48.8814 31.5158 48.8506 31.6094C48.7889 31.797 48.7002 32.0719 48.5928 32.417C48.3776 33.1082 48.0882 34.0799 47.793 35.1992C47.2351 37.3142 46.6718 39.899 46.5234 42.1064L46.499 42.542C46.4017 44.8442 46.7605 47.8792 47.1572 50.3848C47.354 51.6275 47.557 52.7221 47.7109 53.5059C47.7289 53.5974 47.7471 53.6848 47.7637 53.7676C48.5101 53.5332 49.36 53.1369 50.2686 52.6084C51.5486 51.8639 52.8654 50.914 54.0615 49.9678C55.2548 49.0237 56.3117 48.0951 57.0713 47.4023C57.4506 47.0564 57.7555 46.7703 57.9639 46.5713C58.0678 46.472 58.1475 46.394 58.2012 46.3418C58.2279 46.3158 58.2485 46.2962 58.2617 46.2832C58.2683 46.2768 58.2733 46.2716 58.2764 46.2686C58.2779 46.267 58.2786 46.2653 58.2793 46.2646H58.2803C58.5393 46.008 58.9178 45.9123 59.2676 46.0156C59.6172 46.1189 59.8829 46.4046 59.9609 46.7607V46.7617C59.9611 46.7623 59.9617 46.7636 59.9619 46.7646C59.9624 46.7669 59.963 46.7703 59.9639 46.7744C59.9657 46.7829 59.9682 46.7955 59.9717 46.8115C59.9786 46.8436 59.9892 46.8908 60.002 46.9512C60.0274 47.0719 60.0637 47.2466 60.1074 47.4639C60.1949 47.8984 60.3119 48.5057 60.4326 49.1973C60.6718 50.5677 60.932 52.3185 60.9824 53.7158L60.999 54.457C61.1207 69.7222 47.9127 81.8795 32.7168 81.96L31.9795 81.9541C16.5733 81.6394 3.45965 69.4814 4.01758 53.9346L4.04492 53.3945C4.13052 52.0977 4.3521 50.5677 4.55762 49.3281C4.67613 48.6133 4.7911 47.9824 4.87695 47.5303C4.9199 47.3041 4.95551 47.1218 4.98047 46.9961C4.99295 46.9332 5.00301 46.884 5.00977 46.8506C5.01311 46.834 5.0158 46.8212 5.01758 46.8125C5.01843 46.8083 5.01906 46.8051 5.01953 46.8027C5.01977 46.8016 5.02037 46.8005 5.02051 46.7998V46.7988L5.0625 46.6523C5.18451 46.3231 5.47301 46.078 5.82617 46.0156C6.22995 45.9444 6.63652 46.1265 6.85156 46.4756L6.85352 46.4785C6.85551 46.4817 6.85875 46.4879 6.86328 46.4951C6.87235 46.5096 6.88652 46.532 6.90527 46.5615C6.94303 46.6209 6.99981 46.7094 7.07422 46.8223C7.22337 47.0485 7.4429 47.3721 7.71875 47.7559C8.27276 48.5266 9.04639 49.5276 9.93652 50.4668C10.8352 51.415 11.8075 52.2527 12.752 52.749C13.6952 53.2446 14.4696 53.3311 15.1123 53.0527L15.3965 52.915C16.0159 52.5764 16.3414 52.1246 16.5205 51.5801C16.7447 50.8987 16.7579 50.0093 16.6211 48.8994C16.4843 47.7899 16.2208 46.6103 15.9727 45.3252C15.7312 44.0749 15.5098 42.7464 15.5098 41.4785C15.5098 39.2066 15.639 37.5213 15.9697 35.874C16.2991 34.2338 16.8212 32.6662 17.5703 30.6377L17.7939 30.0576C18.9322 27.2168 20.3866 25.2801 21.8945 23.4473C23.5025 21.4927 25.1211 19.7076 26.6299 17.0049L27.1182 16.1104C28.2763 13.9471 29.5425 11.3002 30.5684 9.08008C31.1529 7.815 31.6571 6.69461 32.0146 5.89062C32.1933 5.48885 32.3353 5.16623 32.4326 4.94434C32.4813 4.83337 32.5187 4.74733 32.5439 4.68945C32.5565 4.66063 32.5659 4.63867 32.5723 4.62402C32.5755 4.6167 32.5785 4.61105 32.5801 4.60742C32.5808 4.60583 32.5807 4.60435 32.5811 4.60352L32.582 4.60254L32.6553 4.46484C32.8482 4.1603 33.1937 3.97907 33.5615 4.00195Z" stroke="black" stroke-width="2" stroke-linejoin="round"/>
<defs>
<filter id="filter0_i_269_979" x="-1.00035" y="-6.10352e-05" width="66.0007" height="86.9603" filterUnits="userSpaceOnUse" color-interpolation-filters="sRGB">
<feFlood flood-opacity="0" result="BackgroundImageFix"/>
<feBlend mode="normal" in="SourceGraphic" in2="BackgroundImageFix" result="shape"/>
<feColorMatrix in="SourceAlpha" type="matrix" values="0 0 0 0 0 0 0 0 0 0 0 0 0 0 0 0 0 0 127 0" result="hardAlpha"/>
<feOffset dx="-3" dy="4"/>
<feGaussianBlur stdDeviation="0.5"/>
<feComposite in2="hardAlpha" operator="arithmetic" k2="-1" k3="1"/>
<feColorMatrix type="matrix" values="0 0 0 0 0.875 0 0 0 0 0 0 0 0 0 0 0 0 0 0.25 0"/>
<feBlend mode="normal" in2="shape" result="effect1_innerShadow_269_979"/>
</filter>
<filter id="filter1_i_269_979" x="1.99986" y="2.99997" width="60.0003" height="80.9603" filterUnits="userSpaceOnUse" color-interpolation-filters="sRGB">
<feFlood flood-opacity="0" result="BackgroundImageFix"/>
<feBlend mode="normal" in="SourceGraphic" in2="BackgroundImageFix" result="shape"/>
<feColorMatrix in="SourceAlpha" type="matrix" values="0 0 0 0 0 0 0 0 0 0 0 0 0 0 0 0 0 0 127 0" result="hardAlpha"/>
<feOffset dx="-3" dy="4"/>
<feGaussianBlur stdDeviation="0.5"/>
<feComposite in2="hardAlpha" operator="arithmetic" k2="-1" k3="1"/>
<feColorMatrix type="matrix" values="0 0 0 0 0.875 0 0 0 0 0 0 0 0 0 0 0 0 0 0.25 0"/>
<feBlend mode="normal" in2="shape" result="effect1_innerShadow_269_979"/>
</filter>
</defs>
</svg>
