<svg width="86" height="86" viewBox="0 0 86 86" fill="none" xmlns="http://www.w3.org/2000/svg">
<path d="M20.374 2.50488C21.4253 2.57071 22.323 3.28866 22.6182 4.2998V4.30176C22.6184 4.30256 22.6188 4.30366 22.6191 4.30469C22.6198 4.30713 22.621 4.31083 22.6221 4.31445C22.6241 4.32163 22.6266 4.33116 22.6299 4.34277C22.6366 4.36631 22.646 4.39888 22.6572 4.43945C22.6798 4.52084 22.7115 4.63547 22.748 4.77637C22.8209 5.05711 22.9169 5.44962 23.0117 5.89941C23.1404 6.50965 23.2888 7.33553 23.3477 8.16992C23.7814 8.16414 24.2205 8.27049 24.6191 8.49805C25.6608 9.09286 26.1333 10.3439 25.7451 11.4785L25.7432 11.4834C25.7413 11.489 25.7383 11.4997 25.7334 11.5146C25.7234 11.5451 25.707 11.5937 25.6875 11.6562C25.6871 11.6576 25.686 11.6588 25.6855 11.6602C25.9522 11.6502 26.2225 11.6828 26.4863 11.7607C27.3607 12.019 28.0256 12.7325 28.2207 13.623L25.7783 14.1582L28.2207 13.624V13.626C28.2209 13.627 28.2214 13.6285 28.2217 13.6299C28.2224 13.6331 28.2235 13.6377 28.2246 13.6426C28.2267 13.6524 28.23 13.6654 28.2334 13.6816C28.2403 13.7142 28.2497 13.7594 28.2607 13.8145C28.2828 13.9238 28.3123 14.0765 28.3428 14.251C28.398 14.5674 28.4782 15.0777 28.4951 15.5469L28.499 16.002C28.4113 20.5252 24.5685 23.9364 20.2715 24.0693L19.8398 24.0713C15.376 23.9801 11.3315 20.4248 11.5049 15.5947L11.5283 15.2412C11.5601 14.8849 11.6147 14.533 11.6553 14.291C11.6852 14.1128 11.7138 13.9561 11.7354 13.8438C11.7462 13.7875 11.7551 13.7412 11.7617 13.708C11.765 13.6915 11.7685 13.6778 11.7705 13.668C11.7715 13.663 11.7718 13.6584 11.7725 13.6553C11.7728 13.6538 11.7732 13.6525 11.7734 13.6514V13.6504L11.7744 13.6494C11.7816 13.6508 11.9072 13.6765 14.1094 14.1348L11.7744 13.6484C11.9834 12.6451 12.7833 11.8711 13.793 11.6953C13.8925 11.678 13.9926 11.6673 14.0918 11.6621C14.1096 11.5379 14.1309 11.4132 14.1562 11.2871C14.2647 10.7471 14.4311 10.268 14.6025 9.80371L14.752 9.42969C15.1147 8.59563 15.5598 8.01765 15.9238 7.5752C16.3388 7.07078 16.5227 6.87206 16.7266 6.50684L16.9121 6.16016C17.1054 5.78634 17.3181 5.34208 17.5068 4.93359C17.6288 4.66965 17.7349 4.43449 17.8096 4.2666C17.8467 4.18311 17.8757 4.11638 17.8955 4.07129C17.9054 4.04872 17.9131 4.03165 17.918 4.02051C17.9202 4.0153 17.9218 4.01131 17.9229 4.00879L17.9238 4.00586C18.3427 3.0395 19.3228 2.43917 20.374 2.50488Z" fill="#FFBA17" stroke="white" stroke-width="5" stroke-linejoin="round"/>
<g filter="url(#filter0_i_264_295)">
<path d="M14.0036 15.6845C14.0243 15.1062 14.2216 14.1582 14.2216 14.1582C14.2216 14.1582 15.3948 16.0737 16.2931 15.6845C17.2261 15.2804 16.5112 13.9756 16.5112 12.9589C16.5112 11.9845 16.6219 11.5503 16.9473 10.6693C17.4322 9.35617 18.2274 8.94793 18.9097 7.72564C19.477 6.70958 20.2181 5 20.2181 5C20.2181 5 20.927 7.42913 20.8722 9.03395C20.827 10.3579 19.451 11.265 20.2181 12.3047C20.4511 12.6206 20.5932 12.8998 20.9812 12.9589C21.5203 13.0409 21.6827 12.463 22.0715 12.0867C22.6382 11.5381 23.3798 10.6693 23.3798 10.6693C23.3798 10.6693 22.8791 12.1262 22.8347 13.1769C22.7902 14.2277 23.1617 15.9026 23.1617 15.9026C24.1474 15.7741 25.7784 14.1582 25.7784 14.1582C25.7784 14.1582 25.9755 15.0584 25.9964 15.6367C26.1164 18.9591 23.2148 21.6398 19.891 21.5719C16.635 21.5054 13.8868 18.9391 14.0036 15.6845Z" fill="#FFBA17"/>
</g>
<path d="M20.2803 4.00195C20.7007 4.02828 21.0596 4.31535 21.1777 4.71973V4.7207H21.1787V4.72266C21.1792 4.72425 21.1799 4.72685 21.1807 4.72949C21.1823 4.73518 21.1846 4.74373 21.1875 4.75391C21.1933 4.77426 21.2016 4.80372 21.2119 4.84082C21.2325 4.91509 21.2616 5.02134 21.2959 5.15332C21.3644 5.4173 21.4549 5.7867 21.5439 6.20898C21.6957 6.92835 21.8574 7.86592 21.874 8.71191L21.8721 9.06836C21.84 10.0058 21.3215 10.8386 21.1396 11.2129C21.0222 11.4545 20.9915 11.5688 20.9863 11.6279C20.9853 11.6378 20.9762 11.6482 21.0225 11.7109L21.0479 11.7461C21.1295 11.6378 21.2396 11.5002 21.376 11.3682L21.7871 10.9482C21.9276 10.7989 22.0674 10.6454 22.1934 10.5049C22.3175 10.3664 22.4251 10.2444 22.501 10.1572C22.5389 10.1137 22.5685 10.0783 22.5889 10.0547C22.599 10.0429 22.6072 10.0342 22.6123 10.0283C22.6148 10.0254 22.617 10.0229 22.6182 10.0215L22.6191 10.0205L22.6797 9.95508C22.9961 9.64453 23.4848 9.57742 23.876 9.80078C24.267 10.0242 24.4572 10.4789 24.3506 10.9092L24.3252 10.9941V10.9961C24.3246 10.9979 24.3236 11.0009 24.3223 11.0049C24.3193 11.0137 24.3147 11.0282 24.3086 11.0469C24.2963 11.0842 24.2779 11.1402 24.2559 11.2109C24.2116 11.3532 24.1516 11.5536 24.0908 11.7842C23.9961 12.1431 23.9084 12.5379 23.8633 12.8877L23.834 13.2188C23.8201 13.548 23.8583 13.9878 23.917 14.4229C24.0173 14.3505 24.1198 14.2765 24.2188 14.1982C24.4608 14.0068 24.6775 13.8166 24.834 13.6738C24.9117 13.6029 24.974 13.5447 25.0156 13.5049C25.0364 13.485 25.0525 13.4697 25.0625 13.46L25.0752 13.4473C25.3342 13.191 25.7121 13.096 26.0615 13.1992C26.4113 13.3025 26.6769 13.5881 26.7549 13.9443L26.7559 13.9453C26.756 13.946 26.7556 13.9473 26.7559 13.9482C26.7564 13.9505 26.757 13.9541 26.7578 13.958C26.7595 13.9659 26.7626 13.9771 26.7656 13.9912C26.7716 14.0197 26.78 14.0604 26.79 14.1104C26.8101 14.2102 26.8365 14.3498 26.8643 14.5088C26.9175 14.8137 26.983 15.2394 26.9961 15.6006L26.999 15.9688C26.9265 19.623 23.8015 22.4588 20.2295 22.5693L19.8701 22.5713C16.1312 22.4947 12.8645 19.533 13.0039 15.6484L13.0225 15.3682C13.0484 15.0794 13.0942 14.775 13.1338 14.5391C13.1613 14.3752 13.1881 14.2306 13.208 14.127C13.218 14.075 13.2265 14.0324 13.2324 14.0029C13.2353 13.9884 13.2376 13.9769 13.2393 13.9688C13.2401 13.9647 13.2417 13.9613 13.2422 13.959V13.9541L13.2852 13.8086C13.4079 13.4794 13.6973 13.2343 14.0508 13.1729C14.4041 13.1116 14.7588 13.2444 14.9854 13.5127L15.0742 13.6357C15.0753 13.6374 15.0772 13.6409 15.0801 13.6455C15.0862 13.6552 15.0967 13.6706 15.1104 13.6914C15.1379 13.7335 15.1794 13.7959 15.2324 13.8701C15.3406 14.0214 15.4869 14.2095 15.6484 14.3809C15.6738 14.4077 15.6996 14.4322 15.7236 14.4561C15.6977 14.3116 15.6655 14.151 15.626 13.9463C15.5725 13.6692 15.5108 13.3161 15.5107 12.959C15.5107 12.4328 15.5412 12.0093 15.627 11.582C15.7113 11.162 15.8427 10.773 16.0088 10.3232L16.126 10.0322C16.4081 9.3818 16.7555 8.92527 17.082 8.52832C17.4548 8.07523 17.7499 7.75091 18.0361 7.23828L18.2422 6.85449C18.4538 6.44568 18.6783 5.97551 18.8691 5.5625C18.9947 5.29074 19.1028 5.04978 19.1797 4.87695C19.2181 4.7906 19.2488 4.72114 19.2695 4.67383C19.2798 4.65034 19.2877 4.63223 19.293 4.62012C19.2956 4.61414 19.2975 4.6094 19.2988 4.60645C19.2993 4.60531 19.2995 4.60418 19.2998 4.60352L19.3008 4.60254L19.373 4.46484C19.566 4.16003 19.9122 3.97901 20.2803 4.00195Z" stroke="black" stroke-width="2" stroke-linejoin="round"/>
<path d="M16.4092 53.5049C17.4605 53.5707 18.3582 54.2887 18.6533 55.2998V55.3018C18.6536 55.3028 18.6549 55.3042 18.6553 55.3057C18.6561 55.3086 18.6569 55.3127 18.6582 55.3174C18.6609 55.3269 18.6643 55.3402 18.6689 55.3564C18.6782 55.3889 18.6911 55.4346 18.707 55.4922C18.739 55.6075 18.7844 55.7711 18.8369 55.9736C18.9418 56.3778 19.0804 56.9429 19.2168 57.5898C19.4616 58.7503 19.7392 60.359 19.7305 61.8018L19.7246 62.0879C19.7225 62.1487 19.7169 62.209 19.7129 62.2686C20.4642 61.8372 21.4094 61.8159 22.1973 62.2656C23.24 62.861 23.7125 64.1135 23.3223 65.249C23.3216 65.2509 23.3209 65.2543 23.3193 65.2588C23.3156 65.2698 23.3091 65.2882 23.3008 65.3135C23.284 65.3644 23.2587 65.443 23.2275 65.543C23.165 65.7439 23.0801 66.0277 22.9941 66.3535C22.8481 66.9073 22.7271 67.4782 22.6729 67.9424C22.6798 67.9357 22.6871 67.9298 22.6934 67.9238C22.7218 67.8967 22.7432 67.8766 22.7559 67.8643L22.7695 67.8506C23.4171 67.2102 24.3618 66.9725 25.2354 67.2305C26.1098 67.4888 26.7747 68.2031 26.9697 69.0938V69.0967C26.97 69.098 26.9712 69.0996 26.9717 69.1016C26.9725 69.1055 26.9732 69.1108 26.9746 69.1172C26.9774 69.1302 26.9816 69.1485 26.9863 69.1709C26.9958 69.216 27.0088 69.2797 27.0244 69.3574C27.0556 69.5124 27.0975 69.7285 27.1406 69.9756C27.2212 70.4371 27.3285 71.1278 27.3506 71.7383L27.3564 72.043C27.4073 78.2146 22.1993 82.9749 16.2979 83.1572L15.7148 83.1602C9.66196 83.0363 4.2765 78.228 4.50684 71.8096L4.53711 71.3428C4.57967 70.8675 4.65425 70.3825 4.71387 70.0273C4.75644 69.7737 4.79736 69.5507 4.82812 69.3906C4.84356 69.3103 4.85689 69.2446 4.86621 69.1982C4.87088 69.175 4.87422 69.1559 4.87695 69.1426C4.87829 69.1361 4.88004 69.1309 4.88086 69.127C4.88125 69.125 4.88157 69.1234 4.88184 69.1221V69.1191L4.92871 68.9336C5.19243 68.0209 5.95456 67.3297 6.90137 67.165C7.36381 67.0846 7.82712 67.1382 8.24512 67.3027C8.26346 66.7028 8.31625 66.1558 8.42871 65.5957C8.57051 64.8895 8.79013 64.2497 9.04102 63.5703L9.23633 63.082C9.71063 61.99 10.2944 61.2289 10.8057 60.6074C11.3887 59.8987 11.7527 59.5011 12.123 58.8379L12.416 58.291C12.7185 57.7063 13.0446 57.0236 13.3271 56.4121C13.5115 56.0131 13.6703 55.6591 13.7832 55.4053C13.8395 55.2788 13.8838 55.1774 13.9141 55.1084C13.9292 55.074 13.9416 55.0477 13.9492 55.0303C13.953 55.0216 13.9553 55.0148 13.957 55.0107C13.9578 55.009 13.9586 55.0077 13.959 55.0068V55.0059L14.0439 54.8291C14.5006 53.9669 15.4235 53.4432 16.4092 53.5049Z" fill="#FFBA17" stroke="white" stroke-width="5" stroke-linejoin="round"/>
<g filter="url(#filter1_i_264_295)">
<path d="M7.00534 72.2371C7.03623 71.3765 7.32983 69.9658 7.32983 69.9658C7.32983 69.9658 9.07557 72.8162 10.4124 72.2371C11.8007 71.6358 10.7369 69.694 10.7369 68.1811C10.7369 66.7312 10.9017 66.0851 11.3858 64.7741C12.1075 62.8199 13.2908 62.2125 14.3062 60.3936C15.1502 58.8816 16.2531 56.3376 16.2531 56.3376C16.2531 56.3376 17.3081 59.9523 17.2265 62.3405C17.1592 64.3107 15.1116 65.6605 16.2531 67.2077C16.5999 67.6777 16.8113 68.0932 17.3887 68.1811C18.1909 68.3032 18.4327 67.4432 19.0112 66.8832C19.8545 66.0668 20.958 64.7741 20.958 64.7741C20.958 64.7741 20.213 66.942 20.1468 68.5056C20.0807 70.0692 20.6336 72.5616 20.6336 72.5616C22.1003 72.3704 24.5273 69.9658 24.5273 69.9658C24.5273 69.9658 24.8207 71.3054 24.8518 72.166C25.0304 77.11 20.7125 81.0991 15.7663 80.9981C10.9211 80.8992 6.83154 77.0802 7.00534 72.2371Z" fill="#FFBA17"/>
</g>
<path d="M8.18164 69.443L8.19531 69.4635C8.20573 69.48 8.22233 69.5055 8.24414 69.5387C8.28822 69.606 8.35416 69.7044 8.4375 69.821C8.60619 70.0569 8.83725 70.3562 9.09766 70.6325C9.36689 70.9181 9.62248 71.1311 9.83398 71.2428C9.9404 71.299 9.99935 71.3109 10.0244 71.3131C10.0988 71.2795 10.0928 71.2674 10.0986 71.2497C10.1242 71.1719 10.1432 71.0034 10.1025 70.6735C10.0619 70.3437 9.98522 70.0027 9.89941 69.5583C9.82031 69.1486 9.73733 68.6625 9.7373 68.1813C9.7373 67.4173 9.78026 66.8216 9.89941 66.2282C10.0172 65.6419 10.2027 65.0923 10.4482 64.4274L10.6104 64.0211C11.004 63.1131 11.4901 62.474 11.9639 61.8981C12.5049 61.2404 12.9798 60.717 13.4326 59.9059L13.7451 59.3229C14.0658 58.7033 14.4039 57.9955 14.6885 57.3795C14.8766 56.9723 15.0392 56.611 15.1543 56.3522C15.2117 56.2232 15.2569 56.1195 15.2881 56.0485C15.3037 56.0129 15.3162 55.9848 15.3242 55.9665C15.3281 55.9575 15.3311 55.9504 15.333 55.946C15.3339 55.9438 15.3345 55.9421 15.335 55.9411L15.3359 55.9401L15.4082 55.8024C15.6012 55.4976 15.9473 55.3165 16.3154 55.3395C16.7359 55.3658 17.0948 55.6529 17.2129 56.0573V56.0583L17.2139 56.0592V56.0612C17.2145 56.0634 17.2157 56.067 17.2168 56.071C17.2191 56.0789 17.2224 56.0905 17.2266 56.1051C17.2349 56.1343 17.2468 56.1763 17.2617 56.2301C17.2917 56.3383 17.3345 56.4943 17.3848 56.6881C17.4853 57.0755 17.6184 57.6176 17.749 58.237C17.9735 59.3013 18.2044 60.6589 18.2285 61.8669L18.2256 62.3747C18.1825 63.6353 17.4913 64.7406 17.1855 65.3698C17.0062 65.7388 16.9259 65.9758 16.9102 66.1579C16.8986 66.2908 16.9171 66.4234 17.0576 66.6139L17.1934 66.8024C17.2353 66.8615 17.2697 66.9101 17.3037 66.9567C17.372 67.0504 17.4167 67.1047 17.4521 67.1413C17.4683 67.1579 17.4807 67.1675 17.4883 67.1735C17.4988 67.1625 17.5131 67.1509 17.5273 67.1344C17.6112 67.0373 17.6834 66.9324 17.8223 66.7448C17.9447 66.5794 18.1087 66.3649 18.3154 66.1647L18.623 65.8581C18.9393 65.5344 19.2736 65.1708 19.5566 64.8551C19.7434 64.6469 19.9044 64.4628 20.0186 64.3317C20.0754 64.2664 20.1207 64.214 20.1514 64.1784C20.1666 64.1607 20.1787 64.1474 20.1865 64.1383C20.1904 64.1338 20.1934 64.1298 20.1953 64.1276C20.1961 64.1267 20.1969 64.1261 20.1973 64.1256V64.1247L20.2588 64.0592C20.5752 63.7493 21.0632 63.6827 21.4541 63.9059C21.8449 64.1292 22.035 64.5833 21.9287 65.0133L21.9033 65.0993C21.9031 65.0999 21.9028 65.1008 21.9023 65.1022C21.9013 65.1054 21.8998 65.1107 21.8975 65.1178C21.8927 65.1319 21.8854 65.1536 21.876 65.1823C21.857 65.24 21.8286 65.326 21.7949 65.4342C21.7274 65.6512 21.6367 65.9568 21.5439 66.3083C21.354 67.0284 21.1739 67.8768 21.1455 68.5475C21.1169 69.2233 21.2251 70.1547 21.3535 70.9635C21.3658 71.041 21.3793 71.1166 21.3916 71.1901C21.7592 70.9731 22.1467 70.6951 22.5098 70.4079C22.8815 70.1138 23.2125 69.8228 23.4512 69.6051C23.57 69.4968 23.6651 69.4078 23.7295 69.3463C23.7617 69.3156 23.7858 69.2916 23.8018 69.276C23.8096 69.2684 23.8157 69.263 23.8193 69.2594L23.8232 69.2555C24.0823 68.9989 24.4608 68.9032 24.8105 69.0065C25.1602 69.1098 25.4258 69.3955 25.5039 69.7516V69.7526L25.5049 69.7536C25.5051 69.7545 25.5055 69.7559 25.5059 69.7575C25.5065 69.7606 25.5066 69.7656 25.5078 69.7711C25.5102 69.7824 25.5143 69.7987 25.5186 69.819C25.5272 69.8599 25.5391 69.9184 25.5537 69.9909C25.583 70.1362 25.6227 70.3395 25.6631 70.571C25.7416 71.0209 25.8334 71.6273 25.8516 72.1295L25.8555 72.6491C25.7526 77.8045 21.3358 81.8378 16.2559 81.9948L15.7461 81.9977C10.4177 81.8889 5.80944 77.6741 6.00586 72.2008L6.03223 71.8073C6.06903 71.3996 6.13476 70.962 6.19336 70.6129C6.23357 70.3734 6.27265 70.1618 6.30176 70.0104C6.3163 69.9348 6.32835 69.8733 6.33691 69.8307C6.34117 69.8095 6.34431 69.7925 6.34668 69.7809C6.34784 69.7752 6.34895 69.7704 6.34961 69.7672C6.3499 69.7658 6.35041 69.7642 6.35059 69.7633V69.7624L6.39258 69.6159C6.51534 69.2868 6.80483 69.0417 7.1582 68.9801C7.56207 68.9099 7.9684 69.0936 8.18262 69.443H8.18164Z" stroke="black" stroke-width="2" stroke-linejoin="round"/>
<path d="M73.9268 25.5049C74.982 25.5703 75.8823 26.2926 76.1748 27.3086V27.3096L76.1758 27.3105C76.1761 27.3115 76.1764 27.3131 76.1768 27.3145C76.1775 27.3172 76.1785 27.3211 76.1797 27.3252C76.1821 27.3335 76.1856 27.3446 76.1895 27.3584C76.1974 27.3867 76.2081 27.4268 76.2217 27.4766C76.249 27.5764 76.2873 27.718 76.332 27.8926C76.4211 28.2405 76.5384 28.727 76.6543 29.2842C76.8512 30.2307 77.0767 31.5466 77.0908 32.7656C77.7016 32.6057 78.3689 32.6772 78.9521 33.0059C79.9991 33.5961 80.4786 34.8481 80.0928 35.9863V35.9844C80.0924 35.9854 80.0912 35.988 80.0898 35.9922C80.087 36.0008 80.0829 36.0163 80.0762 36.0371C80.0626 36.0789 80.0411 36.1435 80.0156 36.2266C79.9642 36.3939 79.8949 36.6309 79.8242 36.9023C79.7884 37.0401 79.7545 37.1782 79.7236 37.3135C80.2525 37.0829 80.8546 37.0373 81.4268 37.2051C82.3056 37.4629 82.9735 38.1809 83.167 39.0762L80.7227 39.6045L83.167 39.0771V39.0791L83.1709 39.0986C83.1734 39.1102 83.1766 39.126 83.1807 39.1455C83.1888 39.1848 83.2005 39.2394 83.2139 39.3066C83.2405 39.4407 83.2767 39.628 83.3135 39.8418C83.3816 40.2374 83.4747 40.8446 83.4941 41.3887L83.498 41.9248C83.3946 47.241 78.9224 51.3358 73.8242 51.4951L73.3115 51.498C68.0008 51.3879 63.3054 47.1169 63.5059 41.4502L63.5322 41.0361C63.5692 40.6162 63.6343 40.1926 63.6846 39.8887C63.7209 39.6693 63.756 39.4762 63.7822 39.3379C63.7954 39.2684 63.8065 39.2112 63.8145 39.1709C63.8184 39.1509 63.8219 39.1347 63.8242 39.123C63.8253 39.1176 63.8255 39.1129 63.8262 39.1094C63.8265 39.1076 63.8269 39.1057 63.8271 39.1045L63.8281 39.1025V39.1016L63.874 38.915C64.1366 37.9985 64.902 37.3044 65.8525 37.1406C66.1286 37.0931 66.4051 37.094 66.6719 37.1367C66.7471 36.1013 66.9589 35.3603 67.335 34.3281L67.5078 33.8926C67.9251 32.9193 68.4377 32.2414 68.877 31.7002C69.3769 31.0842 69.656 30.7769 69.9473 30.248L70.1885 29.792C70.4384 29.3023 70.7093 28.7269 70.9463 28.207C71.1003 27.8692 71.2328 27.5694 71.3271 27.3545C71.3742 27.2472 71.4113 27.1608 71.4365 27.1025C71.4491 27.0735 71.4596 27.0517 71.4658 27.0371C71.4689 27.0299 71.4712 27.0239 71.4727 27.0205C71.4732 27.0192 71.4734 27.0182 71.4736 27.0176V27.0166L71.5586 26.8389C72.0129 25.9719 72.9377 25.4438 73.9268 25.5049Z" fill="#FFBA17" stroke="white" stroke-width="5" stroke-linejoin="round"/>
<g filter="url(#filter2_i_264_295)">
<path d="M66.0045 41.5384C66.0304 40.8057 66.2771 39.6044 66.2771 39.6044C66.2771 39.6044 67.7435 42.0315 68.8664 41.5384C70.0326 41.0264 69.139 39.373 69.139 38.0848C69.139 36.8501 69.2774 36.3 69.6841 35.1837C70.2903 33.5197 71.2843 33.0025 72.1372 31.4537C72.8462 30.1662 73.7726 28 73.7726 28C73.7726 28 74.6588 31.078 74.5903 33.1115C74.5337 34.7891 72.8137 35.9384 73.7726 37.2559C74.0639 37.6561 74.2415 38.0099 74.7265 38.0848C75.4004 38.1887 75.6034 37.4564 76.0894 36.9796C76.7978 36.2844 77.7248 35.1837 77.7248 35.1837C77.7248 35.1837 77.0989 37.0296 77.0433 38.3611C76.9878 39.6925 77.4522 41.8147 77.4522 41.8147C78.6842 41.6519 80.723 39.6044 80.723 39.6044C80.723 39.6044 80.9694 40.7451 80.9955 41.4779C81.1455 45.6876 77.5185 49.0844 73.3637 48.9984C69.2937 48.9142 65.8585 45.6623 66.0045 41.5384Z" fill="#FFBA17"/>
</g>
<path d="M73.834 27.002C74.2561 27.0281 74.6164 27.3172 74.7334 27.7236L74.7344 27.7246V27.7266C74.7349 27.7286 74.7363 27.7319 74.7373 27.7354C74.7393 27.7423 74.7416 27.7522 74.7451 27.7646C74.7522 27.7898 74.7627 27.8258 74.7754 27.8721C74.8008 27.9649 74.8364 28.0987 74.8789 28.2646C74.9637 28.596 75.0763 29.0599 75.1865 29.5898C75.3754 30.4979 75.5714 31.6644 75.5918 32.707L75.5898 33.1455C75.5523 34.2564 74.9492 35.2355 74.7021 35.751C74.553 36.0621 74.4954 36.2452 74.4844 36.374C74.4775 36.4549 74.4844 36.534 74.5811 36.667L74.6963 36.8301C74.7318 36.8808 74.7602 36.9212 74.7881 36.96C74.7939 36.9681 74.8003 36.9751 74.8057 36.9824C74.8446 36.9296 74.8941 36.8672 74.959 36.7783C75.0626 36.6364 75.2056 36.4453 75.3887 36.2656L75.6445 36.0068C75.9075 35.7339 76.1866 35.4264 76.4238 35.1582C76.58 34.9816 76.715 34.826 76.8105 34.7148C76.8582 34.6594 76.8962 34.6152 76.9219 34.585C76.9345 34.5702 76.9437 34.5584 76.9502 34.5508C76.9534 34.5469 76.9565 34.5438 76.958 34.542C76.9588 34.5411 76.9596 34.5404 76.96 34.54V34.5391L77.0205 34.4736C77.3352 34.1611 77.8233 34.0912 78.2158 34.3125C78.6346 34.5486 78.8262 35.0496 78.6719 35.5049L78.6709 35.5068C78.6701 35.5093 78.6689 35.5138 78.667 35.5195C78.6631 35.5313 78.6573 35.55 78.6494 35.5742C78.6337 35.6227 78.6101 35.6949 78.582 35.7861C78.5257 35.9694 78.4503 36.2284 78.373 36.5254C78.234 37.0599 78.1027 37.6706 78.0566 38.1875L78.042 38.4023C78.019 38.9527 78.1042 39.7151 78.209 40.3926C78.4463 40.2368 78.6903 40.0555 78.9238 39.8682C79.2324 39.6207 79.5074 39.376 79.7061 39.1924C79.8049 39.101 79.8842 39.0262 79.9375 38.9746C79.964 38.949 79.984 38.9289 79.9971 38.916L80.0146 38.8984L80.1162 38.8096C80.3669 38.6182 80.6962 38.5545 81.0039 38.6445C81.3555 38.7476 81.6228 39.0354 81.7002 39.3936L81.7012 39.3945C81.7014 39.3954 81.7009 39.3971 81.7012 39.3984C81.7018 39.4012 81.7031 39.4053 81.7041 39.4102C81.7062 39.4199 81.7093 39.4338 81.7129 39.4512C81.7202 39.4865 81.7308 39.5372 81.7432 39.5996C81.7679 39.7243 81.8008 39.8983 81.835 40.0967C81.9011 40.481 81.9795 41.0049 81.9951 41.4424L81.998 41.8916C81.9102 46.3563 78.1365 49.8599 73.7803 49.9961L73.3428 49.998C68.7765 49.9034 64.837 46.244 65.0049 41.5029L65.0273 41.1611C65.0588 40.8078 65.1147 40.4307 65.1641 40.1328C65.198 39.9277 65.2313 39.7469 65.2559 39.6172C65.2682 39.5522 65.2779 39.4996 65.2852 39.4629C65.2888 39.4446 65.2919 39.43 65.2939 39.4199C65.2949 39.415 65.2963 39.411 65.2969 39.4082C65.2971 39.4071 65.2967 39.406 65.2969 39.4053L65.2979 39.4043V39.4033L65.3398 39.2568C65.4624 38.9262 65.7524 38.6803 66.1074 38.6191C66.4622 38.5581 66.8179 38.6925 67.0439 38.9629L67.1328 39.0869L67.1338 39.0879C67.1354 39.0904 67.1384 39.0959 67.1426 39.1025C67.1509 39.1159 67.1638 39.1374 67.1816 39.165C67.2177 39.2209 67.2722 39.3021 67.3408 39.3994C67.4802 39.5971 67.6702 39.8466 67.8828 40.0752C68.1041 40.3132 68.3051 40.4795 68.46 40.5625L68.4619 40.5635C68.4665 40.4945 68.467 40.3864 68.4473 40.2236C68.4139 39.9489 68.3514 39.667 68.2783 39.2832C68.2117 38.9336 68.1387 38.5086 68.1387 38.085C68.1387 36.7072 68.3079 36.0394 68.7441 34.8418L68.8848 34.4873C69.2229 33.6969 69.6402 33.1406 70.042 32.6455C70.5005 32.0806 70.8893 31.6478 71.2617 30.9717L71.5215 30.4785C71.7893 29.9541 72.0716 29.3533 72.3105 28.8291C72.4682 28.4832 72.6047 28.1769 72.7012 27.957C72.7494 27.8471 72.7874 27.7586 72.8135 27.6982C72.8265 27.6682 72.8371 27.6454 72.8438 27.6299C72.847 27.6223 72.8489 27.6161 72.8506 27.6123C72.8513 27.6107 72.8522 27.6093 72.8525 27.6084L72.8535 27.6074V27.6064L72.9258 27.4678C73.1181 27.1616 73.4649 26.9792 73.834 27.002Z" stroke="black" stroke-width="2" stroke-linejoin="round"/>
<path d="M37.7959 17.0796L9.00918 43.4888C8.08575 44.336 6.66073 44.312 5.76634 43.4342C4.80521 42.491 4.82892 40.9354 5.81834 40.0219L37.7865 10.5055C39.3189 9.09063 41.6811 9.09063 43.2135 10.5055L75.1817 40.0219C76.1711 40.9354 76.1948 42.491 75.2337 43.4342C74.3393 44.312 72.9143 44.336 71.9909 43.4888L43.2041 17.0796C41.6745 15.6763 39.3256 15.6763 37.7959 17.0796Z" fill="#D7C8C1"/>
<path d="M65 42.004V79.0001H16V42.004L40.5 19.0001L65 42.004Z" fill="#98CFEB"/>
<path d="M36.3282 8.45996C38.8195 6.372 42.497 6.44173 44.9092 8.66895L76.878 38.1846L77.0626 38.3652C78.8581 40.2057 78.9025 43.1378 77.1641 45.0322L76.9844 45.2188C75.1986 46.9711 72.3868 47.072 70.4825 45.4893L70.3008 45.3311L67.5001 42.7607V79C67.5001 80.3807 66.3807 81.5 65.0001 81.5H16.0001C14.6193 81.5 13.5001 80.3807 13.5001 79V42.7607L10.6993 45.3311C8.85545 47.0226 6.04155 47.0288 4.19147 45.3828L4.01569 45.2188C2.03465 43.2745 2.08277 40.0675 4.12213 38.1846L36.0909 8.66895L36.3282 8.45996Z" stroke="white" stroke-width="5" stroke-linejoin="round"/>
<path d="M37.291 9.61035C39.2074 8.00425 42.036 8.05744 43.8916 9.77051L75.8604 39.2871L75.9883 39.4121C77.2287 40.684 77.2598 42.7105 76.0586 44.0195L75.9346 44.1475C74.7004 45.3587 72.7566 45.4288 71.4404 44.335L71.3145 44.2256L42.5283 17.8164C41.4528 16.8297 39.8374 16.7685 38.6943 17.6318L38.4717 17.8164L9.68555 44.2256C8.4113 45.3946 6.46609 45.3992 5.1875 44.2617L5.06543 44.1475C3.69684 42.8038 3.73059 40.5883 5.13965 39.2871L37.1084 9.77051L37.291 9.61035Z" fill="#D7C8C1" stroke="black" stroke-width="2" stroke-linejoin="round"/>
<path d="M66 79C66 79.5523 65.5523 80 65 80H16C15.4477 80 15 79.5523 15 79V42.0039C15 41.7279 15.1143 41.4644 15.3154 41.2754L39.8154 18.2705L39.8896 18.207C40.2739 17.9107 40.8238 17.9319 41.1846 18.2705L65.6846 41.2754C65.8857 41.4644 66 41.7279 66 42.0039V79Z" fill="#98CFEB" stroke="black" stroke-width="2" stroke-linejoin="round"/>
<g filter="url(#filter3_i_264_295)">
<circle cx="40.4737" cy="31.9212" r="2.84211" fill="#D5F5FC"/>
</g>
<circle cx="40.4737" cy="31.9212" r="3.84211" stroke="black" stroke-width="2"/>
<rect x="24" y="53" width="14" height="27" fill="#E2E2E2" stroke="black" stroke-width="2" stroke-linejoin="round"/>
<circle cx="34.5" cy="66.5" r="1.5" fill="black"/>
<g filter="url(#filter4_i_264_295)">
<rect x="49" y="54" width="7.57895" height="8.05263" fill="#D5F5FC"/>
</g>
<rect x="48" y="53" width="9.57895" height="10.0526" stroke="black" stroke-width="2" stroke-linejoin="round"/>
<g filter="url(#filter5_i_264_295)">
<path d="M14.0036 15.6845C14.0243 15.1062 14.2216 14.1582 14.2216 14.1582C14.2216 14.1582 15.3948 16.0737 16.2931 15.6845C17.2261 15.2804 16.5112 13.9756 16.5112 12.9589C16.5112 11.9845 16.6219 11.5503 16.9473 10.6693C17.4322 9.35617 18.2274 8.94793 18.9097 7.72564C19.477 6.70958 20.2181 5 20.2181 5C20.2181 5 20.927 7.42913 20.8722 9.03395C20.827 10.3579 19.451 11.265 20.2181 12.3047C20.4511 12.6206 20.5932 12.8998 20.9812 12.9589C21.5203 13.0409 21.6827 12.463 22.0715 12.0867C22.6382 11.5381 23.3798 10.6693 23.3798 10.6693C23.3798 10.6693 22.8791 12.1262 22.8347 13.1769C22.7902 14.2277 23.1617 15.9026 23.1617 15.9026C24.1474 15.7741 25.7784 14.1582 25.7784 14.1582C25.7784 14.1582 25.9755 15.0584 25.9964 15.6367C26.1164 18.9591 23.2148 21.6398 19.891 21.5719C16.635 21.5054 13.8868 18.9391 14.0036 15.6845Z" fill="#FFBA17"/>
</g>
<path d="M20.2803 4.00195C20.7007 4.02828 21.0596 4.31535 21.1777 4.71973V4.7207H21.1787V4.72266C21.1792 4.72425 21.1799 4.72685 21.1807 4.72949C21.1823 4.73518 21.1846 4.74373 21.1875 4.75391C21.1933 4.77426 21.2016 4.80372 21.2119 4.84082C21.2325 4.91509 21.2616 5.02134 21.2959 5.15332C21.3644 5.4173 21.4549 5.7867 21.5439 6.20898C21.6957 6.92835 21.8574 7.86592 21.874 8.71191L21.8721 9.06836C21.84 10.0058 21.3215 10.8386 21.1396 11.2129C21.0222 11.4545 20.9915 11.5688 20.9863 11.6279C20.9853 11.6378 20.9762 11.6482 21.0225 11.7109L21.0479 11.7461C21.1295 11.6378 21.2396 11.5002 21.376 11.3682L21.7871 10.9482C21.9276 10.7989 22.0674 10.6454 22.1934 10.5049C22.3175 10.3664 22.4251 10.2444 22.501 10.1572C22.5389 10.1137 22.5685 10.0783 22.5889 10.0547C22.599 10.0429 22.6072 10.0342 22.6123 10.0283C22.6148 10.0254 22.617 10.0229 22.6182 10.0215L22.6191 10.0205L22.6797 9.95508C22.9961 9.64453 23.4848 9.57742 23.876 9.80078C24.267 10.0242 24.4572 10.4789 24.3506 10.9092L24.3252 10.9941V10.9961C24.3246 10.9979 24.3236 11.0009 24.3223 11.0049C24.3193 11.0137 24.3147 11.0282 24.3086 11.0469C24.2963 11.0842 24.2779 11.1402 24.2559 11.2109C24.2116 11.3532 24.1516 11.5536 24.0908 11.7842C23.9961 12.1431 23.9084 12.5379 23.8633 12.8877L23.834 13.2188C23.8201 13.548 23.8583 13.9878 23.917 14.4229C24.0173 14.3505 24.1198 14.2765 24.2188 14.1982C24.4608 14.0068 24.6775 13.8166 24.834 13.6738C24.9117 13.6029 24.974 13.5447 25.0156 13.5049C25.0364 13.485 25.0525 13.4697 25.0625 13.46L25.0752 13.4473C25.3342 13.191 25.7121 13.096 26.0615 13.1992C26.4113 13.3025 26.6769 13.5881 26.7549 13.9443L26.7559 13.9453C26.756 13.946 26.7556 13.9473 26.7559 13.9482C26.7564 13.9505 26.757 13.9541 26.7578 13.958C26.7595 13.9659 26.7626 13.9771 26.7656 13.9912C26.7716 14.0197 26.78 14.0604 26.79 14.1104C26.8101 14.2102 26.8365 14.3498 26.8643 14.5088C26.9175 14.8137 26.983 15.2394 26.9961 15.6006L26.999 15.9688C26.9265 19.623 23.8015 22.4588 20.2295 22.5693L19.8701 22.5713C16.1312 22.4947 12.8645 19.533 13.0039 15.6484L13.0225 15.3682C13.0484 15.0794 13.0942 14.775 13.1338 14.5391C13.1613 14.3752 13.1881 14.2306 13.208 14.127C13.218 14.075 13.2265 14.0324 13.2324 14.0029C13.2353 13.9884 13.2376 13.9769 13.2393 13.9688C13.2401 13.9647 13.2417 13.9613 13.2422 13.959V13.9541L13.2852 13.8086C13.4079 13.4794 13.6973 13.2343 14.0508 13.1729C14.4041 13.1116 14.7588 13.2444 14.9854 13.5127L15.0742 13.6357C15.0753 13.6374 15.0772 13.6409 15.0801 13.6455C15.0862 13.6552 15.0967 13.6706 15.1104 13.6914C15.1379 13.7335 15.1794 13.7959 15.2324 13.8701C15.3406 14.0214 15.4869 14.2095 15.6484 14.3809C15.6738 14.4077 15.6996 14.4322 15.7236 14.4561C15.6977 14.3116 15.6655 14.151 15.626 13.9463C15.5725 13.6692 15.5108 13.3161 15.5107 12.959C15.5107 12.4328 15.5412 12.0093 15.627 11.582C15.7113 11.162 15.8427 10.773 16.0088 10.3232L16.126 10.0322C16.4081 9.3818 16.7555 8.92527 17.082 8.52832C17.4548 8.07523 17.7499 7.75091 18.0361 7.23828L18.2422 6.85449C18.4538 6.44568 18.6783 5.97551 18.8691 5.5625C18.9947 5.29074 19.1028 5.04978 19.1797 4.87695C19.2181 4.7906 19.2488 4.72114 19.2695 4.67383C19.2798 4.65034 19.2877 4.63223 19.293 4.62012C19.2956 4.61414 19.2975 4.6094 19.2988 4.60645C19.2993 4.60531 19.2995 4.60418 19.2998 4.60352L19.3008 4.60254L19.373 4.46484C19.566 4.16003 19.9122 3.97901 20.2803 4.00195Z" stroke="black" stroke-width="2" stroke-linejoin="round"/>
<g filter="url(#filter6_i_264_295)">
<path d="M66.0045 41.5384C66.0304 40.8057 66.2771 39.6044 66.2771 39.6044C66.2771 39.6044 67.7435 42.0315 68.8664 41.5384C70.0326 41.0264 69.139 39.373 69.139 38.0848C69.139 36.8501 69.2774 36.3 69.6841 35.1837C70.2903 33.5197 71.2843 33.0025 72.1372 31.4537C72.8462 30.1662 73.7726 28 73.7726 28C73.7726 28 74.6588 31.078 74.5903 33.1115C74.5337 34.7891 72.8137 35.9384 73.7726 37.2559C74.0639 37.6561 74.2415 38.0099 74.7265 38.0848C75.4004 38.1887 75.6034 37.4564 76.0894 36.9796C76.7978 36.2844 77.7248 35.1837 77.7248 35.1837C77.7248 35.1837 77.0989 37.0296 77.0433 38.3611C76.9878 39.6925 77.4522 41.8147 77.4522 41.8147C78.6842 41.6519 80.723 39.6044 80.723 39.6044C80.723 39.6044 80.9694 40.7451 80.9955 41.4779C81.1455 45.6876 77.5185 49.0844 73.3637 48.9984C69.2937 48.9142 65.8585 45.6623 66.0045 41.5384Z" fill="#FFBA17"/>
</g>
<path d="M73.834 27.002C74.2561 27.0281 74.6164 27.3172 74.7334 27.7236L74.7344 27.7246V27.7266C74.7349 27.7286 74.7363 27.7319 74.7373 27.7354C74.7393 27.7423 74.7416 27.7522 74.7451 27.7646C74.7522 27.7898 74.7627 27.8258 74.7754 27.8721C74.8008 27.9649 74.8364 28.0987 74.8789 28.2646C74.9637 28.596 75.0763 29.0599 75.1865 29.5898C75.3754 30.4979 75.5714 31.6644 75.5918 32.707L75.5898 33.1455C75.5523 34.2564 74.9492 35.2355 74.7021 35.751C74.553 36.0621 74.4954 36.2452 74.4844 36.374C74.4775 36.4549 74.4844 36.534 74.5811 36.667L74.6963 36.8301C74.7318 36.8808 74.7602 36.9212 74.7881 36.96C74.7939 36.9681 74.8003 36.9751 74.8057 36.9824C74.8446 36.9296 74.8941 36.8672 74.959 36.7783C75.0626 36.6364 75.2056 36.4453 75.3887 36.2656L75.6445 36.0068C75.9075 35.7339 76.1866 35.4264 76.4238 35.1582C76.58 34.9816 76.715 34.826 76.8105 34.7148C76.8582 34.6594 76.8962 34.6152 76.9219 34.585C76.9345 34.5702 76.9437 34.5584 76.9502 34.5508C76.9534 34.5469 76.9565 34.5438 76.958 34.542C76.9588 34.5411 76.9596 34.5404 76.96 34.54V34.5391L77.0205 34.4736C77.3352 34.1611 77.8233 34.0912 78.2158 34.3125C78.6346 34.5486 78.8262 35.0496 78.6719 35.5049L78.6709 35.5068C78.6701 35.5093 78.6689 35.5138 78.667 35.5195C78.6631 35.5313 78.6573 35.55 78.6494 35.5742C78.6337 35.6227 78.6101 35.6949 78.582 35.7861C78.5257 35.9694 78.4503 36.2284 78.373 36.5254C78.234 37.0599 78.1027 37.6706 78.0566 38.1875L78.042 38.4023C78.019 38.9527 78.1042 39.7151 78.209 40.3926C78.4463 40.2368 78.6903 40.0555 78.9238 39.8682C79.2324 39.6207 79.5074 39.376 79.7061 39.1924C79.8049 39.101 79.8842 39.0262 79.9375 38.9746C79.964 38.949 79.984 38.9289 79.9971 38.916L80.0146 38.8984L80.1162 38.8096C80.3669 38.6182 80.6962 38.5545 81.0039 38.6445C81.3555 38.7476 81.6228 39.0354 81.7002 39.3936L81.7012 39.3945C81.7014 39.3954 81.7009 39.3971 81.7012 39.3984C81.7018 39.4012 81.7031 39.4053 81.7041 39.4102C81.7062 39.4199 81.7093 39.4338 81.7129 39.4512C81.7202 39.4865 81.7308 39.5372 81.7432 39.5996C81.7679 39.7243 81.8008 39.8983 81.835 40.0967C81.9011 40.481 81.9795 41.0049 81.9951 41.4424L81.998 41.8916C81.9102 46.3563 78.1365 49.8599 73.7803 49.9961L73.3428 49.998C68.7765 49.9034 64.837 46.244 65.0049 41.5029L65.0273 41.1611C65.0588 40.8078 65.1147 40.4307 65.1641 40.1328C65.198 39.9277 65.2313 39.7469 65.2559 39.6172C65.2682 39.5522 65.2779 39.4996 65.2852 39.4629C65.2888 39.4446 65.2919 39.43 65.2939 39.4199C65.2949 39.415 65.2963 39.411 65.2969 39.4082C65.2971 39.4071 65.2967 39.406 65.2969 39.4053L65.2979 39.4043V39.4033L65.3398 39.2568C65.4624 38.9262 65.7524 38.6803 66.1074 38.6191C66.4622 38.5581 66.8179 38.6925 67.0439 38.9629L67.1328 39.0869L67.1338 39.0879C67.1354 39.0904 67.1384 39.0959 67.1426 39.1025C67.1509 39.1159 67.1638 39.1374 67.1816 39.165C67.2177 39.2209 67.2722 39.3021 67.3408 39.3994C67.4802 39.5971 67.6702 39.8466 67.8828 40.0752C68.1041 40.3132 68.3051 40.4795 68.46 40.5625L68.4619 40.5635C68.4665 40.4945 68.467 40.3864 68.4473 40.2236C68.4139 39.9489 68.3514 39.667 68.2783 39.2832C68.2117 38.9336 68.1387 38.5086 68.1387 38.085C68.1387 36.7072 68.3079 36.0394 68.7441 34.8418L68.8848 34.4873C69.2229 33.6969 69.6402 33.1406 70.042 32.6455C70.5005 32.0806 70.8893 31.6478 71.2617 30.9717L71.5215 30.4785C71.7893 29.9541 72.0716 29.3533 72.3105 28.8291C72.4682 28.4832 72.6047 28.1769 72.7012 27.957C72.7494 27.8471 72.7874 27.7586 72.8135 27.6982C72.8265 27.6682 72.8371 27.6454 72.8438 27.6299C72.847 27.6223 72.8489 27.6161 72.8506 27.6123C72.8513 27.6107 72.8522 27.6093 72.8525 27.6084L72.8535 27.6074V27.6064L72.9258 27.4678C73.1181 27.1616 73.4649 26.9792 73.834 27.002Z" stroke="black" stroke-width="2" stroke-linejoin="round"/>
<g filter="url(#filter7_i_264_295)">
<path d="M7.00534 72.2371C7.03623 71.3765 7.32983 69.9658 7.32983 69.9658C7.32983 69.9658 9.07557 72.8162 10.4124 72.2371C11.8007 71.6358 10.7369 69.694 10.7369 68.1811C10.7369 66.7312 10.9017 66.0851 11.3858 64.7741C12.1075 62.8199 13.2908 62.2125 14.3062 60.3936C15.1502 58.8816 16.2531 56.3376 16.2531 56.3376C16.2531 56.3376 17.3081 59.9523 17.2265 62.3405C17.1592 64.3107 15.1116 65.6605 16.2531 67.2077C16.5999 67.6777 16.8113 68.0932 17.3887 68.1811C18.1909 68.3032 18.4327 67.4432 19.0112 66.8832C19.8545 66.0668 20.958 64.7741 20.958 64.7741C20.958 64.7741 20.213 66.942 20.1468 68.5056C20.0807 70.0692 20.6336 72.5616 20.6336 72.5616C22.1003 72.3704 24.5273 69.9658 24.5273 69.9658C24.5273 69.9658 24.8207 71.3054 24.8518 72.166C25.0304 77.11 20.7125 81.0991 15.7663 80.9981C10.9211 80.8992 6.83154 77.0802 7.00534 72.2371Z" fill="#FFBA17"/>
</g>
<path d="M8.18164 69.443L8.19531 69.4635C8.20573 69.48 8.22233 69.5055 8.24414 69.5387C8.28822 69.606 8.35416 69.7044 8.4375 69.821C8.60619 70.0569 8.83725 70.3562 9.09766 70.6325C9.36689 70.9181 9.62248 71.1311 9.83398 71.2428C9.9404 71.299 9.99935 71.3109 10.0244 71.3131C10.0988 71.2795 10.0928 71.2674 10.0986 71.2497C10.1242 71.1719 10.1432 71.0034 10.1025 70.6735C10.0619 70.3437 9.98522 70.0027 9.89941 69.5583C9.82031 69.1486 9.73733 68.6625 9.7373 68.1813C9.7373 67.4173 9.78026 66.8216 9.89941 66.2282C10.0172 65.6419 10.2027 65.0923 10.4482 64.4274L10.6104 64.0211C11.004 63.1131 11.4901 62.474 11.9639 61.8981C12.5049 61.2404 12.9798 60.717 13.4326 59.9059L13.7451 59.3229C14.0658 58.7033 14.4039 57.9955 14.6885 57.3795C14.8766 56.9723 15.0392 56.611 15.1543 56.3522C15.2117 56.2232 15.2569 56.1195 15.2881 56.0485C15.3037 56.0129 15.3162 55.9848 15.3242 55.9665C15.3281 55.9575 15.3311 55.9504 15.333 55.946C15.3339 55.9438 15.3345 55.9421 15.335 55.9411L15.3359 55.9401L15.4082 55.8024C15.6012 55.4976 15.9473 55.3165 16.3154 55.3395C16.7359 55.3658 17.0948 55.6529 17.2129 56.0573V56.0583L17.2139 56.0592V56.0612C17.2145 56.0634 17.2157 56.067 17.2168 56.071C17.2191 56.0789 17.2224 56.0905 17.2266 56.1051C17.2349 56.1343 17.2468 56.1763 17.2617 56.2301C17.2917 56.3383 17.3345 56.4943 17.3848 56.6881C17.4853 57.0755 17.6184 57.6176 17.749 58.237C17.9735 59.3013 18.2044 60.6589 18.2285 61.8669L18.2256 62.3747C18.1825 63.6353 17.4913 64.7406 17.1855 65.3698C17.0062 65.7388 16.9259 65.9758 16.9102 66.1579C16.8986 66.2908 16.9171 66.4234 17.0576 66.6139L17.1934 66.8024C17.2353 66.8615 17.2697 66.9101 17.3037 66.9567C17.372 67.0504 17.4167 67.1047 17.4521 67.1413C17.4683 67.1579 17.4807 67.1675 17.4883 67.1735C17.4988 67.1625 17.5131 67.1509 17.5273 67.1344C17.6112 67.0373 17.6834 66.9324 17.8223 66.7448C17.9447 66.5794 18.1087 66.3649 18.3154 66.1647L18.623 65.8581C18.9393 65.5344 19.2736 65.1708 19.5566 64.8551C19.7434 64.6469 19.9044 64.4628 20.0186 64.3317C20.0754 64.2664 20.1207 64.214 20.1514 64.1784C20.1666 64.1607 20.1787 64.1474 20.1865 64.1383C20.1904 64.1338 20.1934 64.1298 20.1953 64.1276C20.1961 64.1267 20.1969 64.1261 20.1973 64.1256V64.1247L20.2588 64.0592C20.5752 63.7493 21.0632 63.6827 21.4541 63.9059C21.8449 64.1292 22.035 64.5833 21.9287 65.0133L21.9033 65.0993C21.9031 65.0999 21.9028 65.1008 21.9023 65.1022C21.9013 65.1054 21.8998 65.1107 21.8975 65.1178C21.8927 65.1319 21.8854 65.1536 21.876 65.1823C21.857 65.24 21.8286 65.326 21.7949 65.4342C21.7274 65.6512 21.6367 65.9568 21.5439 66.3083C21.354 67.0284 21.1739 67.8768 21.1455 68.5475C21.1169 69.2233 21.2251 70.1547 21.3535 70.9635C21.3658 71.041 21.3793 71.1166 21.3916 71.1901C21.7592 70.9731 22.1467 70.6951 22.5098 70.4079C22.8815 70.1138 23.2125 69.8228 23.4512 69.6051C23.57 69.4968 23.6651 69.4078 23.7295 69.3463C23.7617 69.3156 23.7858 69.2916 23.8018 69.276C23.8096 69.2684 23.8157 69.263 23.8193 69.2594L23.8232 69.2555C24.0823 68.9989 24.4608 68.9032 24.8105 69.0065C25.1602 69.1098 25.4258 69.3955 25.5039 69.7516V69.7526L25.5049 69.7536C25.5051 69.7545 25.5055 69.7559 25.5059 69.7575C25.5065 69.7606 25.5066 69.7656 25.5078 69.7711C25.5102 69.7824 25.5143 69.7987 25.5186 69.819C25.5272 69.8599 25.5391 69.9184 25.5537 69.9909C25.583 70.1362 25.6227 70.3395 25.6631 70.571C25.7416 71.0209 25.8334 71.6273 25.8516 72.1295L25.8555 72.6491C25.7526 77.8045 21.3358 81.8378 16.2559 81.9948L15.7461 81.9977C10.4177 81.8889 5.80944 77.6741 6.00586 72.2008L6.03223 71.8073C6.06903 71.3996 6.13476 70.962 6.19336 70.6129C6.23357 70.3734 6.27265 70.1618 6.30176 70.0104C6.3163 69.9348 6.32835 69.8733 6.33691 69.8307C6.34117 69.8095 6.34431 69.7925 6.34668 69.7809C6.34784 69.7752 6.34895 69.7704 6.34961 69.7672C6.3499 69.7658 6.35041 69.7642 6.35059 69.7633V69.7624L6.39258 69.6159C6.51534 69.2868 6.80483 69.0417 7.1582 68.9801C7.56207 68.9099 7.9684 69.0936 8.18262 69.443H8.18164Z" stroke="black" stroke-width="2" stroke-linejoin="round"/>
<defs>
<filter id="filter0_i_264_295" x="10.9999" y="2.99997" width="17.0003" height="21.5732" filterUnits="userSpaceOnUse" color-interpolation-filters="sRGB">
<feFlood flood-opacity="0" result="BackgroundImageFix"/>
<feBlend mode="normal" in="SourceGraphic" in2="BackgroundImageFix" result="shape"/>
<feColorMatrix in="SourceAlpha" type="matrix" values="0 0 0 0 0 0 0 0 0 0 0 0 0 0 0 0 0 0 127 0" result="hardAlpha"/>
<feOffset dx="-3" dy="4"/>
<feGaussianBlur stdDeviation="0.5"/>
<feComposite in2="hardAlpha" operator="arithmetic" k2="-1" k3="1"/>
<feColorMatrix type="matrix" values="0 0 0 0 0.875 0 0 0 0 0 0 0 0 0 0 0 0 0 0.25 0"/>
<feBlend mode="normal" in2="shape" result="effect1_innerShadow_264_295"/>
</filter>
<filter id="filter1_i_264_295" x="3.99986" y="54.3375" width="22.8574" height="29.6624" filterUnits="userSpaceOnUse" color-interpolation-filters="sRGB">
<feFlood flood-opacity="0" result="BackgroundImageFix"/>
<feBlend mode="normal" in="SourceGraphic" in2="BackgroundImageFix" result="shape"/>
<feColorMatrix in="SourceAlpha" type="matrix" values="0 0 0 0 0 0 0 0 0 0 0 0 0 0 0 0 0 0 127 0" result="hardAlpha"/>
<feOffset dx="-3" dy="4"/>
<feGaussianBlur stdDeviation="0.5"/>
<feComposite in2="hardAlpha" operator="arithmetic" k2="-1" k3="1"/>
<feColorMatrix type="matrix" values="0 0 0 0 0.875 0 0 0 0 0 0 0 0 0 0 0 0 0 0.25 0"/>
<feBlend mode="normal" in2="shape" result="effect1_innerShadow_264_295"/>
</filter>
<filter id="filter2_i_264_295" x="62.9999" y="26" width="20.0002" height="26" filterUnits="userSpaceOnUse" color-interpolation-filters="sRGB">
<feFlood flood-opacity="0" result="BackgroundImageFix"/>
<feBlend mode="normal" in="SourceGraphic" in2="BackgroundImageFix" result="shape"/>
<feColorMatrix in="SourceAlpha" type="matrix" values="0 0 0 0 0 0 0 0 0 0 0 0 0 0 0 0 0 0 127 0" result="hardAlpha"/>
<feOffset dx="-3" dy="4"/>
<feGaussianBlur stdDeviation="0.5"/>
<feComposite in2="hardAlpha" operator="arithmetic" k2="-1" k3="1"/>
<feColorMatrix type="matrix" values="0 0 0 0 0.875 0 0 0 0 0 0 0 0 0 0 0 0 0 0.25 0"/>
<feBlend mode="normal" in2="shape" result="effect1_innerShadow_264_295"/>
</filter>
<filter id="filter3_i_264_295" x="33.6316" y="27.0791" width="11.6842" height="11.6842" filterUnits="userSpaceOnUse" color-interpolation-filters="sRGB">
<feFlood flood-opacity="0" result="BackgroundImageFix"/>
<feBlend mode="normal" in="SourceGraphic" in2="BackgroundImageFix" result="shape"/>
<feColorMatrix in="SourceAlpha" type="matrix" values="0 0 0 0 0 0 0 0 0 0 0 0 0 0 0 0 0 0 127 0" result="hardAlpha"/>
<feOffset dx="-3" dy="4"/>
<feGaussianBlur stdDeviation="1"/>
<feComposite in2="hardAlpha" operator="arithmetic" k2="-1" k3="1"/>
<feColorMatrix type="matrix" values="0 0 0 0 0.0252778 0 0 0 0 0.390963 0 0 0 0 0.733056 0 0 0 0.62 0"/>
<feBlend mode="normal" in2="shape" result="effect1_innerShadow_264_295"/>
</filter>
<filter id="filter4_i_264_295" x="45" y="52" width="13.5789" height="14.0526" filterUnits="userSpaceOnUse" color-interpolation-filters="sRGB">
<feFlood flood-opacity="0" result="BackgroundImageFix"/>
<feBlend mode="normal" in="SourceGraphic" in2="BackgroundImageFix" result="shape"/>
<feColorMatrix in="SourceAlpha" type="matrix" values="0 0 0 0 0 0 0 0 0 0 0 0 0 0 0 0 0 0 127 0" result="hardAlpha"/>
<feOffset dx="-3" dy="4"/>
<feGaussianBlur stdDeviation="1"/>
<feComposite in2="hardAlpha" operator="arithmetic" k2="-1" k3="1"/>
<feColorMatrix type="matrix" values="0 0 0 0 0.0252778 0 0 0 0 0.390963 0 0 0 0 0.733056 0 0 0 0.62 0"/>
<feBlend mode="normal" in2="shape" result="effect1_innerShadow_264_295"/>
</filter>
<filter id="filter5_i_264_295" x="10.9999" y="2.99997" width="17.0003" height="21.5732" filterUnits="userSpaceOnUse" color-interpolation-filters="sRGB">
<feFlood flood-opacity="0" result="BackgroundImageFix"/>
<feBlend mode="normal" in="SourceGraphic" in2="BackgroundImageFix" result="shape"/>
<feColorMatrix in="SourceAlpha" type="matrix" values="0 0 0 0 0 0 0 0 0 0 0 0 0 0 0 0 0 0 127 0" result="hardAlpha"/>
<feOffset dx="-3" dy="4"/>
<feGaussianBlur stdDeviation="0.5"/>
<feComposite in2="hardAlpha" operator="arithmetic" k2="-1" k3="1"/>
<feColorMatrix type="matrix" values="0 0 0 0 0.875 0 0 0 0 0 0 0 0 0 0 0 0 0 0.25 0"/>
<feBlend mode="normal" in2="shape" result="effect1_innerShadow_264_295"/>
</filter>
<filter id="filter6_i_264_295" x="62.9999" y="26" width="20.0002" height="26" filterUnits="userSpaceOnUse" color-interpolation-filters="sRGB">
<feFlood flood-opacity="0" result="BackgroundImageFix"/>
<feBlend mode="normal" in="SourceGraphic" in2="BackgroundImageFix" result="shape"/>
<feColorMatrix in="SourceAlpha" type="matrix" values="0 0 0 0 0 0 0 0 0 0 0 0 0 0 0 0 0 0 127 0" result="hardAlpha"/>
<feOffset dx="-3" dy="4"/>
<feGaussianBlur stdDeviation="0.5"/>
<feComposite in2="hardAlpha" operator="arithmetic" k2="-1" k3="1"/>
<feColorMatrix type="matrix" values="0 0 0 0 0.875 0 0 0 0 0 0 0 0 0 0 0 0 0 0.25 0"/>
<feBlend mode="normal" in2="shape" result="effect1_innerShadow_264_295"/>
</filter>
<filter id="filter7_i_264_295" x="3.99986" y="54.3375" width="22.8574" height="29.6624" filterUnits="userSpaceOnUse" color-interpolation-filters="sRGB">
<feFlood flood-opacity="0" result="BackgroundImageFix"/>
<feBlend mode="normal" in="SourceGraphic" in2="BackgroundImageFix" result="shape"/>
<feColorMatrix in="SourceAlpha" type="matrix" values="0 0 0 0 0 0 0 0 0 0 0 0 0 0 0 0 0 0 127 0" result="hardAlpha"/>
<feOffset dx="-3" dy="4"/>
<feGaussianBlur stdDeviation="0.5"/>
<feComposite in2="hardAlpha" operator="arithmetic" k2="-1" k3="1"/>
<feColorMatrix type="matrix" values="0 0 0 0 0.875 0 0 0 0 0 0 0 0 0 0 0 0 0 0.25 0"/>
<feBlend mode="normal" in2="shape" result="effect1_innerShadow_264_295"/>
</filter>
</defs>
</svg>
