<svg width="93" height="73" viewBox="0 0 93 73" fill="none" xmlns="http://www.w3.org/2000/svg">
<g filter="url(#filter0_i_264_248)">
<path d="M21.0078 28.2088C21.0529 26.9526 21.4815 24.8932 21.4815 24.8932C21.4815 24.8932 24.0298 29.0541 25.9811 28.2088C28.0076 27.3309 26.4548 24.4966 26.4548 22.2882C26.4548 20.1717 26.6954 19.2286 27.4021 17.3149C28.4555 14.4624 30.1828 13.5756 31.6649 10.9206C32.897 8.71353 34.5068 5 34.5068 5C34.5068 5 36.0469 10.2765 35.9277 13.7625C35.8295 16.6384 32.8406 18.6088 34.5068 20.8672C35.013 21.5534 35.3216 22.1599 36.1646 22.2882C37.3355 22.4663 37.6884 21.211 38.5328 20.3936C39.7638 19.2019 41.3747 17.3149 41.3747 17.3149C41.3747 17.3149 40.2871 20.4794 40.1906 22.7618C40.0941 25.0442 40.9011 28.6824 40.9011 28.6824C43.042 28.4033 46.5848 24.8932 46.5848 24.8932C46.5848 24.8932 47.0131 26.8487 47.0585 28.1049C47.3191 35.3217 41.0163 41.1447 33.7963 40.9973C26.7237 40.8529 20.7541 35.2783 21.0078 28.2088Z" fill="#FFBA17"/>
</g>
<path d="M34.6631 2.50488C35.7143 2.57074 36.6111 3.28868 36.9063 4.2998L34.5069 5C36.8928 4.30361 36.9071 4.29956 36.9072 4.2998V4.30273C36.9076 4.30396 36.9087 4.30583 36.9092 4.30762C36.9103 4.31134 36.9114 4.31629 36.9131 4.32227C36.9168 4.33492 36.9223 4.3526 36.9287 4.375C36.9415 4.41984 36.9589 4.48412 36.9815 4.56543C37.0266 4.72838 37.09 4.96184 37.1651 5.25098C37.3148 5.82796 37.5133 6.63452 37.708 7.55762C38.0621 9.23627 38.4451 11.4841 38.4336 13.457L38.4268 13.8477C38.3573 15.882 37.2764 17.709 36.8574 18.5332C37.3945 18.0079 38.0284 17.3242 38.5537 16.7383C38.8222 16.4388 39.0547 16.1748 39.2188 15.9863C39.3006 15.8924 39.3654 15.8174 39.4092 15.7666C39.431 15.7413 39.4472 15.7217 39.458 15.709C39.4635 15.7026 39.4682 15.6982 39.4707 15.6953C39.4717 15.6941 39.4722 15.693 39.4727 15.6924L39.4736 15.6914L39.626 15.5283C40.417 14.753 41.6369 14.5856 42.6143 15.1436C43.6568 15.7389 44.1292 16.9915 43.7393 18.127L43.7383 18.1289C43.7371 18.1325 43.7346 18.1392 43.7315 18.1484C43.7252 18.167 43.7152 18.1966 43.7022 18.2363C43.676 18.3159 43.6372 18.4357 43.5899 18.5879C43.4947 18.8935 43.367 19.3249 43.2363 19.8203C42.9978 20.7247 42.7848 21.7184 42.711 22.5312L42.6885 22.8672C42.6651 23.4201 42.7118 24.1309 42.7969 24.874C42.8625 24.8234 42.9299 24.7743 42.9951 24.7227C43.5134 24.3127 43.9774 23.9051 44.3135 23.5986C44.4803 23.4465 44.6123 23.3212 44.7012 23.2363C44.7456 23.1939 44.7798 23.1621 44.8008 23.1416L44.8262 23.1162C45.4738 22.4752 46.419 22.2379 47.293 22.4961C48.1674 22.7544 48.8323 23.4678 49.0274 24.3584V24.3623C49.0277 24.3639 49.0288 24.3658 49.0293 24.3682C49.0304 24.3734 49.0323 24.3808 49.0342 24.3896C49.038 24.4074 49.0432 24.4326 49.0498 24.4639C49.063 24.5265 49.0815 24.6152 49.1035 24.7246C49.1476 24.9435 49.2067 25.2498 49.2676 25.5986C49.3836 26.2635 49.5275 27.2066 49.5567 28.0146L49.5654 28.4258C49.6344 36.8866 42.3571 43.4565 34.1436 43.5L33.7451 43.4971C25.4647 43.3279 18.1996 36.7641 18.5098 28.1191L18.5254 27.8115C18.5736 27.0798 18.6953 26.2656 18.7959 25.666C18.8563 25.3063 18.9153 24.9898 18.959 24.7627C18.9809 24.6488 18.9987 24.5561 19.0117 24.4912C19.0182 24.4589 19.0237 24.4332 19.0274 24.415C19.0292 24.4061 19.0312 24.3988 19.0322 24.3936C19.0327 24.3912 19.0329 24.3892 19.0332 24.3877V24.3848H19.0342V24.3838L19.0801 24.1982C19.3438 23.2858 20.1062 22.5955 21.0527 22.4307C22.0624 22.2551 23.0768 22.7133 23.6123 23.5869C23.6144 23.5902 23.6181 23.5957 23.6231 23.6035C23.6354 23.6231 23.6568 23.6563 23.6856 23.7002C23.7434 23.7884 23.8321 23.9191 23.9444 24.0762C24.0203 24.1824 24.1052 24.2964 24.1963 24.415C24.0832 23.822 23.9551 23.0625 23.9551 22.2881C23.9551 21.1323 24.0199 20.1899 24.2119 19.2334C24.4005 18.2944 24.6945 17.4298 25.0567 16.4492L25.1846 16.1172C25.8367 14.492 26.6735 13.3897 27.4424 12.4551C28.2613 11.4597 28.8787 10.7836 29.4824 9.70215L29.9238 8.87598C30.3794 7.99565 30.8643 6.98005 31.2783 6.08398C31.5504 5.49511 31.7857 4.973 31.9522 4.59863C32.0352 4.41202 32.1007 4.26241 32.1455 4.16016L32.209 4.01367C32.2103 4.01063 32.2113 4.00822 32.2119 4.00684L32.2129 4.00586L32.2979 3.8291C32.7545 2.96691 33.6774 2.44316 34.6631 2.50488Z" stroke="white" stroke-width="5" stroke-linejoin="round"/>
<g filter="url(#filter1_i_264_248)">
<path d="M53.005 59.8278C53.0338 59.0252 53.3076 57.7096 53.3076 57.7096C53.3076 57.7096 54.9357 60.3679 56.1824 59.8278C57.4771 59.267 56.485 57.4562 56.485 56.0452C56.485 54.693 56.6387 54.0905 57.0902 52.8678C57.7632 51.0454 58.8668 50.4789 59.8137 48.7826C60.6009 47.3725 61.6294 45 61.6294 45C61.6294 45 62.6133 48.3711 62.5372 50.5983C62.4744 52.4357 60.5648 53.6945 61.6294 55.1374C61.9528 55.5758 62.1499 55.9633 62.6885 56.0452C63.4366 56.159 63.662 55.357 64.2015 54.8348C64.988 54.0734 66.0172 52.8678 66.0172 52.8678C66.0172 52.8678 65.3223 54.8896 65.2607 56.3478C65.199 57.806 65.7146 60.1304 65.7146 60.1304C67.0824 59.9521 69.3459 57.7096 69.3459 57.7096C69.3459 57.7096 69.6195 58.9589 69.6485 59.7615C69.815 64.3722 65.7882 68.0924 61.1754 67.9983C56.6568 67.906 52.8429 64.3445 53.005 59.8278Z" fill="#FFBA17"/>
</g>
<path d="M61.7852 42.5049C62.8364 42.5707 63.7342 43.2887 64.0293 44.2998V44.3008L64.0303 44.3018L64.0342 44.3174C64.0368 44.3264 64.0406 44.3384 64.0449 44.3535C64.0537 44.3842 64.066 44.4272 64.0811 44.4814C64.1111 44.5898 64.1529 44.7437 64.2022 44.9336C64.3005 45.3124 64.4297 45.8419 64.5576 46.4482C64.7952 47.5745 65.0669 49.1647 65.0361 50.5693C65.7371 50.2706 66.5587 50.2986 67.2569 50.6973C68.2994 51.2927 68.7721 52.5452 68.3819 53.6807L68.3809 53.6797C68.3803 53.6814 68.3803 53.6845 68.3789 53.6885C68.3756 53.6984 68.3699 53.7152 68.3623 53.7383C68.347 53.7849 68.3236 53.8572 68.2949 53.9492C68.2372 54.1348 68.1585 54.3973 68.0791 54.6982C67.9888 55.0405 67.9101 55.3871 67.8526 55.7041C68.478 55.2383 69.2929 55.087 70.0537 55.3115C70.9281 55.5698 71.5931 56.2842 71.7881 57.1748V57.1758L71.7891 57.1777C71.7894 57.1791 71.7896 57.1807 71.7901 57.1826C71.7909 57.1865 71.7916 57.192 71.793 57.1982C71.7957 57.2107 71.7993 57.2279 71.8037 57.249C71.8127 57.2915 71.8252 57.3509 71.8399 57.4238C71.8692 57.5694 71.9087 57.7727 71.9492 58.0049C72.0246 58.4365 72.1255 59.0896 72.1465 59.6709L72.1533 59.96C72.2019 65.8161 67.2624 70.3226 61.6758 70.4951L61.124 70.498C55.3978 70.381 50.2883 65.8302 50.5069 59.7383L50.5352 59.2939C50.5755 58.8432 50.6455 58.3855 50.7012 58.0537C50.7412 57.8155 50.7807 57.6063 50.8096 57.4561C50.8241 57.3807 50.836 57.3191 50.8447 57.2754C50.8491 57.2537 50.8529 57.2362 50.8555 57.2236C50.8568 57.2174 50.8576 57.2119 50.8584 57.208C50.8588 57.2061 50.8591 57.2044 50.8594 57.2031V57.2012H50.8604V57.2002L50.9063 57.0146C51.17 56.1021 51.9323 55.4108 52.8789 55.2461C53.2619 55.1795 53.6459 55.2047 54.0039 55.3086C54.027 54.8288 54.0744 54.3775 54.167 53.916C54.3019 53.244 54.5106 52.6371 54.7451 52.002L54.9317 51.5371C55.383 50.4981 55.9379 49.7742 56.419 49.1895C56.9674 48.5228 57.2948 48.1664 57.6309 47.5645L57.9014 47.0586C58.1815 46.5172 58.4838 45.8833 58.7471 45.3135C58.9186 44.9422 59.0669 44.6131 59.1719 44.377C59.2243 44.2591 59.2659 44.1647 59.294 44.1006C59.308 44.0687 59.3192 44.0444 59.3262 44.0283C59.3297 44.0203 59.3324 44.0135 59.334 44.0098C59.3347 44.0082 59.3347 44.0066 59.335 44.0059H59.336C59.7548 43.0395 60.7341 42.4392 61.7852 42.5049Z" stroke="white" stroke-width="5" stroke-linejoin="round"/>
<mask id="path-5-outside-1_264_248" maskUnits="userSpaceOnUse" x="1.52588e-05" y="7" width="93" height="62" fill="black">
<rect fill="white" x="1.52588e-05" y="7" width="93" height="62"/>
<path d="M13 58.1557C13 56.2729 14.5263 54.7466 16.4091 54.7466H20.3052C22.188 54.7466 23.7143 56.2729 23.7143 58.1557V60.5907C23.7143 62.4735 22.188 63.9998 20.3052 63.9998H16.4091C14.5263 63.9998 13 62.4735 13 60.5907V58.1557Z"/>
<path d="M69 58.1557C69 56.2729 70.5263 54.7466 72.4091 54.7466H76.3052C78.188 54.7466 79.7143 56.2729 79.7143 58.1557V60.5907C79.7143 62.4735 78.188 63.9998 76.3052 63.9998H72.4091C70.5263 63.9998 69 62.4735 69 60.5907V58.1557Z"/>
<path d="M17 32L22.2178 14.5484C22.67 13.0361 24.0612 12 25.6396 12H67.3605C68.9389 12 70.3301 13.0361 70.7822 14.5484L76 32H17Z"/>
<path d="M16.2732 33.3182H76.2918L81.8762 40.7117C82.3231 41.3034 82.5649 42.0248 82.5649 42.7664V56.6948H10V42.7664C10 42.0248 10.2418 41.3034 10.6888 40.7117L16.2732 33.3182Z"/>
<path d="M22 28.2595L25.7311 17.0333C25.9517 16.3697 26.5724 15.9219 27.2716 15.9219H65.0531C65.7523 15.9219 66.373 16.3697 66.5936 17.0333L70.3247 28.2595H22Z"/>
<path d="M5.00002 28.4481C5.00002 27.5515 5.72683 26.8247 6.62339 26.8247H12.7922V30.0715H6.62339C5.72683 30.0715 5.00002 29.3447 5.00002 28.4481Z"/>
<path d="M87.0877 28.4481C87.0877 27.5515 86.3609 26.8247 85.4643 26.8247H79.2955V30.0715H85.4643C86.3609 30.0715 87.0877 29.3447 87.0877 28.4481Z"/>
<path d="M14.5509 41.5971C14.043 42.0841 13.9016 43.3828 14.0639 44.1132C14.2262 44.8437 15.8497 46.6301 16.5802 47.1168C17.4278 47.6816 18.2847 48.4967 20.2327 48.6587C21.1225 48.7327 22.8671 48.334 23.5606 47.847C24.2542 47.36 25.3363 46.2236 25.2652 45.5743C25.194 44.9249 24.7448 44.4301 24.0477 44.1132C23.1548 43.7074 21.9007 43.6295 20.3951 43.058C18.8652 42.4774 17.7977 41.3537 16.986 41.1102C16.1743 40.8667 15.0589 41.1101 14.5509 41.5971Z"/>
<path d="M78.4491 41.5971C78.957 42.0841 79.0984 43.3828 78.9361 44.1132C78.7738 44.8437 77.1504 46.6301 76.4199 47.1168C75.5722 47.6816 74.7153 48.4967 72.7673 48.6587C71.8775 48.7327 70.1329 48.334 69.4394 47.847C68.7458 47.36 67.6637 46.2236 67.7348 45.5743C67.806 44.9249 68.2553 44.4301 68.9524 44.1132C69.8452 43.7074 71.0994 43.6295 72.605 43.058C74.1349 42.4774 75.2023 41.3537 76.014 41.1102C76.8257 40.8667 77.9412 41.1101 78.4491 41.5971Z"/>
</mask>
<path d="M13 58.1557C13 56.2729 14.5263 54.7466 16.4091 54.7466H20.3052C22.188 54.7466 23.7143 56.2729 23.7143 58.1557V60.5907C23.7143 62.4735 22.188 63.9998 20.3052 63.9998H16.4091C14.5263 63.9998 13 62.4735 13 60.5907V58.1557Z" fill="#707583"/>
<path d="M69 58.1557C69 56.2729 70.5263 54.7466 72.4091 54.7466H76.3052C78.188 54.7466 79.7143 56.2729 79.7143 58.1557V60.5907C79.7143 62.4735 78.188 63.9998 76.3052 63.9998H72.4091C70.5263 63.9998 69 62.4735 69 60.5907V58.1557Z" fill="#707583"/>
<path d="M17 32L22.2178 14.5484C22.67 13.0361 24.0612 12 25.6396 12H67.3605C68.9389 12 70.3301 13.0361 70.7822 14.5484L76 32H17Z" fill="#D9D9D9"/>
<path d="M16.2732 33.3182H76.2918L81.8762 40.7117C82.3231 41.3034 82.5649 42.0248 82.5649 42.7664V56.6948H10V42.7664C10 42.0248 10.2418 41.3034 10.6888 40.7117L16.2732 33.3182Z" fill="#D9D9D9"/>
<path d="M22 28.2595L25.7311 17.0333C25.9517 16.3697 26.5724 15.9219 27.2716 15.9219H65.0531C65.7523 15.9219 66.373 16.3697 66.5936 17.0333L70.3247 28.2595H22Z" fill="#81DAFC"/>
<path d="M5.00002 28.4481C5.00002 27.5515 5.72683 26.8247 6.62339 26.8247H12.7922V30.0715H6.62339C5.72683 30.0715 5.00002 29.3447 5.00002 28.4481Z" fill="#707583"/>
<path d="M87.0877 28.4481C87.0877 27.5515 86.3609 26.8247 85.4643 26.8247H79.2955V30.0715H85.4643C86.3609 30.0715 87.0877 29.3447 87.0877 28.4481Z" fill="#707583"/>
<path d="M14.5509 41.5971C14.043 42.0841 13.9016 43.3828 14.0639 44.1132C14.2262 44.8437 15.8497 46.6301 16.5802 47.1168C17.4278 47.6816 18.2847 48.4967 20.2327 48.6587C21.1225 48.7327 22.8671 48.334 23.5606 47.847C24.2542 47.36 25.3363 46.2236 25.2652 45.5743C25.194 44.9249 24.7448 44.4301 24.0477 44.1132C23.1548 43.7074 21.9007 43.6295 20.3951 43.058C18.8652 42.4774 17.7977 41.3537 16.986 41.1102C16.1743 40.8667 15.0589 41.1101 14.5509 41.5971Z" fill="#FFC943" fill-opacity="0.74"/>
<path d="M78.4491 41.5971C78.957 42.0841 79.0984 43.3828 78.9361 44.1132C78.7738 44.8437 77.1504 46.6301 76.4199 47.1168C75.5722 47.6816 74.7153 48.4967 72.7673 48.6587C71.8775 48.7327 70.1329 48.334 69.4394 47.847C68.7458 47.36 67.6637 46.2236 67.7348 45.5743C67.806 44.9249 68.2553 44.4301 68.9524 44.1132C69.8452 43.7074 71.0994 43.6295 72.605 43.058C74.1349 42.4774 75.2023 41.3537 76.014 41.1102C76.8257 40.8667 77.9412 41.1101 78.4491 41.5971Z" fill="#FFC943" fill-opacity="0.74"/>
<path d="M14.3119 32.5162L16.4351 31.1964H16.4351L14.3119 32.5162ZM15.096 32.5832L13.2275 30.9223L15.096 32.5832ZM15.1758 32.0532L17.4506 31.0162L15.1758 32.0532ZM77.7758 32.5162L75.6525 31.1964V31.1964L77.7758 32.5162ZM76.9917 32.5832L78.8602 30.9223L76.9917 32.5832ZM76.9119 32.0532L74.6371 31.0162L76.9119 32.0532ZM12.7922 30.0715L10.669 31.3913L12.1887 33.836L14.3119 32.5162L16.4351 31.1964L14.9154 28.7516L12.7922 30.0715ZM15.1758 32.0532L17.4506 31.0162L15.067 25.7877L12.7922 26.8247L10.5175 27.8617L12.901 33.0903L15.1758 32.0532ZM14.3119 32.5162L12.1887 33.836C13.2442 35.534 15.6363 35.7384 16.9645 34.2441L15.096 32.5832L13.2275 30.9223C14.1196 29.9187 15.7262 30.0559 16.4351 31.1964L14.3119 32.5162ZM15.096 32.5832L16.9645 34.2441C17.7511 33.3592 17.9417 32.0935 17.4506 31.0162L15.1758 32.0532L12.901 33.0903C12.5712 32.3667 12.6992 31.5166 13.2275 30.9223L15.096 32.5832ZM79.2955 30.0715L77.1722 28.7516L75.6525 31.1964L77.7758 32.5162L79.899 33.836L81.4187 31.3913L79.2955 30.0715ZM76.9119 32.0532L79.1866 33.0903L81.5702 27.8617L79.2955 26.8247L77.0207 25.7877L74.6371 31.0162L76.9119 32.0532ZM77.7758 32.5162L75.6525 31.1964C76.3615 30.0559 77.9681 29.9187 78.8602 30.9223L76.9917 32.5832L75.1231 34.2441C76.4514 35.7384 78.8435 35.534 79.899 33.836L77.7758 32.5162ZM76.9917 32.5832L78.8602 30.9223C79.3885 31.5167 79.5165 32.3667 79.1866 33.0903L76.9119 32.0532L74.6371 31.0162C74.146 32.0935 74.3365 33.3591 75.1231 34.2441L76.9917 32.5832ZM17 32L12.2095 30.5677L10.2864 37H17V32ZM76 32V37H82.7136L80.7905 30.5677L76 32ZM70.7822 14.5484L75.5727 13.1161V13.1161L70.7822 14.5484ZM22.2178 14.5484L17.4274 13.1161V13.1161L22.2178 14.5484ZM16.2732 33.3182V28.3182C14.7053 28.3182 13.2283 29.0536 12.2833 30.3046L16.2732 33.3182ZM76.2918 33.3182L80.2816 30.3046C79.3367 29.0536 77.8596 28.3182 76.2918 28.3182V33.3182ZM10 56.6948H5.00001C5.00001 59.4562 7.23859 61.6948 10 61.6948V56.6948ZM82.5649 56.6948V61.6948C85.3264 61.6948 87.5649 59.4562 87.5649 56.6948H82.5649ZM81.8762 40.7117L85.866 37.6981V37.6981L81.8762 40.7117ZM10.6888 40.7117L6.69897 37.6981H6.69897L10.6888 40.7117ZM22 28.2595L17.2552 26.6826C16.7486 28.207 17.0052 29.8821 17.9451 31.1849C18.885 32.4877 20.3936 33.2595 22 33.2595V28.2595ZM70.3247 28.2595V33.2595C71.9311 33.2595 73.4397 32.4877 74.3796 31.1849C75.3195 29.8821 75.5762 28.207 75.0695 26.6826L70.3247 28.2595ZM66.5936 17.0333L61.8488 18.6102V18.6102L66.5936 17.0333ZM25.7311 17.0333L20.9863 15.4563L25.7311 17.0333ZM12.7922 26.8247H17.7922C17.7922 24.0633 15.5536 21.8247 12.7922 21.8247V26.8247ZM12.7922 30.0715V35.0715H17.7922V30.0715H12.7922ZM79.2955 26.8247V21.8247C76.534 21.8247 74.2955 24.0633 74.2955 26.8247H79.2955ZM79.2955 30.0715H74.2955V35.0715H79.2955V30.0715ZM14.0639 44.1132L18.9449 43.0287L14.0639 44.1132ZM14.5509 41.5971L18.0114 45.2062H18.0114L14.5509 41.5971ZM16.986 41.1102L18.4228 36.3211L16.986 41.1102ZM20.3951 43.058L22.1692 38.3834L20.3951 43.058ZM24.0477 44.1132L26.1167 39.5614H26.1167L24.0477 44.1132ZM25.2652 45.5743L20.2949 46.1189L20.2949 46.1189L25.2652 45.5743ZM23.5606 47.847L26.434 51.9389H26.434L23.5606 47.847ZM20.2327 48.6587L20.6471 43.6759L20.2327 48.6587ZM16.5802 47.1168L13.8079 51.2779H13.8079L16.5802 47.1168ZM78.9361 44.1132L74.0552 43.0287L78.9361 44.1132ZM78.4491 41.5971L74.9886 45.2062L78.4491 41.5971ZM76.014 41.1102L74.5772 36.3211L76.014 41.1102ZM72.605 43.058L70.8308 38.3834L72.605 43.058ZM68.9524 44.1132L66.8834 39.5614H66.8834L68.9524 44.1132ZM67.7348 45.5743L72.7051 46.1189V46.1189L67.7348 45.5743ZM69.4394 47.847L66.5661 51.9389H66.5661L69.4394 47.847ZM72.7673 48.6587L72.3529 43.6759L72.7673 48.6587ZM76.4199 47.1168L79.1922 51.2779H79.1922L76.4199 47.1168ZM16.4091 54.7466V59.7466H20.3052V54.7466V49.7466H16.4091V54.7466ZM23.7143 58.1557H18.7143V60.5907H23.7143H28.7143V58.1557H23.7143ZM20.3052 63.9998V58.9998H16.4091V63.9998V68.9998H20.3052V63.9998ZM13 60.5907H18V58.1557H13H8.00002V60.5907H13ZM16.4091 63.9998V58.9998C17.2877 58.9998 18 59.7121 18 60.5907H13H8.00002C8.00002 65.2349 11.7649 68.9998 16.4091 68.9998V63.9998ZM23.7143 60.5907H18.7143C18.7143 59.7121 19.4266 58.9998 20.3052 58.9998V63.9998V68.9998C24.9494 68.9998 28.7143 65.2349 28.7143 60.5907H23.7143ZM20.3052 54.7466V59.7466C19.4266 59.7466 18.7143 59.0343 18.7143 58.1557H23.7143H28.7143C28.7143 53.5115 24.9494 49.7466 20.3052 49.7466V54.7466ZM16.4091 54.7466V49.7466C11.7649 49.7466 8.00002 53.5115 8.00002 58.1557H13H18C18 59.0343 17.2877 59.7466 16.4091 59.7466V54.7466ZM72.4091 54.7466V59.7466H76.3052V54.7466V49.7466H72.4091V54.7466ZM79.7143 58.1557H74.7143V60.5907H79.7143H84.7143V58.1557H79.7143ZM76.3052 63.9998V58.9998H72.4091V63.9998V68.9998H76.3052V63.9998ZM69 60.5907H74V58.1557H69H64V60.5907H69ZM72.4091 63.9998V58.9998C73.2877 58.9998 74 59.7121 74 60.5907H69H64C64 65.2349 67.7649 68.9998 72.4091 68.9998V63.9998ZM79.7143 60.5907H74.7143C74.7143 59.7121 75.4266 58.9998 76.3052 58.9998V63.9998V68.9998C80.9494 68.9998 84.7143 65.2349 84.7143 60.5907H79.7143ZM76.3052 54.7466V59.7466C75.4266 59.7466 74.7143 59.0343 74.7143 58.1557H79.7143H84.7143C84.7143 53.5115 80.9494 49.7466 76.3052 49.7466V54.7466ZM72.4091 54.7466V49.7466C67.7649 49.7466 64 53.5115 64 58.1557H69H74C74 59.0343 73.2877 59.7466 72.4091 59.7466V54.7466ZM17 32L21.7905 33.4323L27.0083 15.9807L22.2178 14.5484L17.4274 13.1161L12.2095 30.5677L17 32ZM76 32L80.7905 30.5677L75.5727 13.1161L70.7822 14.5484L65.9918 15.9806L71.2095 33.4323L76 32ZM70.7822 14.5484L75.5727 13.1161C74.4875 9.48667 71.1486 7 67.3605 7V12V17C66.7291 17 66.1726 16.5856 65.9918 15.9807L70.7822 14.5484ZM22.2178 14.5484L27.0083 15.9807C26.8274 16.5856 26.2709 17 25.6396 17V12V7C21.8514 7 18.5125 9.48667 17.4274 13.1161L22.2178 14.5484ZM16.2732 33.3182L12.2833 30.3046L6.69897 37.6981L10.6888 40.7117L14.6786 43.7252L20.263 36.3317L16.2732 33.3182ZM10 42.7664H5.00001V56.6948H10H15V42.7664H10ZM76.2918 33.3182L72.302 36.3317L77.8864 43.7252L81.8762 40.7117L85.866 37.6981L80.2816 30.3046L76.2918 33.3182ZM82.5649 42.7664H77.5649V56.6948H82.5649H87.5649V42.7664H82.5649ZM81.8762 40.7117L77.8864 43.7252C77.6778 43.4491 77.5649 43.1124 77.5649 42.7664H82.5649H87.5649C87.5649 40.9371 86.9685 39.1578 85.866 37.6981L81.8762 40.7117ZM10.6888 40.7117L6.69897 37.6981C5.59648 39.1578 5.00001 40.9371 5.00001 42.7664H10H15C15 43.1124 14.8872 43.4491 14.6786 43.7252L10.6888 40.7117ZM22 28.2595L26.7448 29.8365L30.4759 18.6102L25.7311 17.0333L20.9863 15.4563L17.2552 26.6826L22 28.2595ZM70.3247 28.2595L75.0695 26.6826L71.3384 15.4563L66.5936 17.0333L61.8488 18.6102L65.5799 29.8365L70.3247 28.2595ZM66.5936 17.0333L71.3384 15.4563C70.4386 12.7489 67.9061 10.9219 65.0531 10.9219V15.9219V20.9219C63.5986 20.9219 62.3075 19.9905 61.8488 18.6102L66.5936 17.0333ZM25.7311 17.0333L30.4759 18.6102C30.0172 19.9905 28.7261 20.9219 27.2716 20.9219V15.9219V10.9219C24.4186 10.9219 21.8861 12.7489 20.9863 15.4563L25.7311 17.0333ZM6.62339 26.8247V31.8247H12.7922V26.8247V21.8247H6.62339V26.8247ZM12.7922 26.8247H7.79222V30.0715H12.7922H17.7922V26.8247H12.7922ZM12.7922 30.0715V25.0715H6.62339V30.0715V35.0715H12.7922V30.0715ZM6.62339 30.0715V25.0715C8.48825 25.0715 10 26.5832 10 28.4481H5.00002H1.52588e-05C1.52588e-05 32.1061 2.9654 35.0715 6.62339 35.0715V30.0715ZM6.62339 26.8247V21.8247C2.9654 21.8247 1.52588e-05 24.7901 1.52588e-05 28.4481H5.00002H10C10 30.3129 8.48825 31.8247 6.62339 31.8247V26.8247ZM85.4643 26.8247V21.8247H79.2955V26.8247V31.8247H85.4643V26.8247ZM79.2955 26.8247H74.2955V30.0715H79.2955H84.2955V26.8247H79.2955ZM79.2955 30.0715V35.0715H85.4643V30.0715V25.0715H79.2955V30.0715ZM85.4643 30.0715V35.0715C89.1223 35.0715 92.0877 32.1061 92.0877 28.4481H87.0877H82.0877C82.0877 26.5832 83.5994 25.0715 85.4643 25.0715V30.0715ZM85.4643 26.8247V31.8247C83.5994 31.8247 82.0877 30.3129 82.0877 28.4481H87.0877H92.0877C92.0877 24.7901 89.1223 21.8247 85.4643 21.8247V26.8247ZM14.0639 44.1132L18.9449 43.0287C18.9984 43.2695 18.9998 43.4154 19 43.4453C19.0003 43.49 18.9976 43.5278 18.9896 43.5766C18.9832 43.6152 18.9578 43.7595 18.8682 43.9794C18.7936 44.1626 18.5633 44.6769 18.0114 45.2062L14.5509 41.5971L11.0905 37.9881C9.63288 39.3857 9.24869 41.1856 9.12258 41.9512C8.96427 42.9122 8.93451 44.0797 9.18297 45.1978L14.0639 44.1132ZM14.5509 41.5971L18.0114 45.2062C17.6486 45.554 17.3168 45.7331 17.1351 45.8173C16.9389 45.9083 16.7788 45.9531 16.662 45.9772C16.4897 46.0126 16.1076 46.0668 15.5492 45.8993L16.986 41.1102L18.4228 36.3211C17.0527 35.91 15.7071 35.9642 14.6472 36.1822C13.6449 36.3884 12.2505 36.8758 11.0905 37.9881L14.5509 41.5971ZM16.986 41.1102L15.5492 45.8993C15.104 45.7657 14.871 45.5976 14.9981 45.6769C15.1153 45.7501 15.2285 45.8309 15.5924 46.0805C16.1848 46.487 17.2545 47.2141 18.6209 47.7327L20.3951 43.058L22.1692 38.3834C22.0057 38.3213 21.7767 38.1962 21.25 37.8349C21.0543 37.7006 20.6529 37.4185 20.2939 37.1943C19.9447 36.9764 19.2739 36.5764 18.4228 36.3211L16.986 41.1102ZM20.3951 43.058L18.6209 47.7327C19.7225 48.1508 20.7077 48.3767 21.3261 48.5195C21.6686 48.5986 21.8417 48.6388 21.9866 48.6786C22.1198 48.7153 22.0881 48.7148 21.9786 48.6651L24.0477 44.1132L26.1167 39.5614C25.1146 39.1059 24.0208 38.8786 23.5762 38.776C22.9679 38.6355 22.5732 38.5367 22.1692 38.3834L20.3951 43.058ZM24.0477 44.1132L21.9786 48.6651C21.8212 48.5935 21.4563 48.3972 21.0856 47.9622C20.6832 47.49 20.3749 46.8483 20.2949 46.1189L25.2652 45.5743L30.2354 45.0296C29.9106 42.0654 27.8299 40.3401 26.1167 39.5614L24.0477 44.1132ZM25.2652 45.5743L20.2949 46.1189C20.2219 45.4525 20.3147 44.9197 20.3974 44.5971C20.4817 44.2681 20.5876 44.0327 20.6504 43.9066C20.769 43.6683 20.86 43.5685 20.8285 43.6071C20.8129 43.6262 20.7709 43.6729 20.7132 43.727C20.6504 43.7857 20.6337 43.7927 20.6873 43.7551L23.5606 47.847L26.434 51.9389C27.1726 51.4203 27.9484 50.6975 28.5709 49.936C28.8877 49.5484 29.2792 49.0123 29.6024 48.3631C29.872 47.8216 30.4068 46.5934 30.2354 45.0296L25.2652 45.5743ZM23.5606 47.847L20.6873 43.7551C20.7781 43.6913 20.8542 43.6445 20.9089 43.6128C20.9643 43.5806 21.0076 43.5582 21.0358 43.5442C21.0643 43.5301 21.0834 43.5217 21.0915 43.5182C21.0998 43.5146 21.1009 43.5143 21.094 43.517C21.0789 43.5227 21.0447 43.535 20.9915 43.551C20.9391 43.5668 20.8776 43.5836 20.8098 43.5998C20.7421 43.6159 20.6748 43.6299 20.6113 43.6413C20.5474 43.6528 20.4951 43.6602 20.4571 43.6646C20.4386 43.6667 20.4261 43.6678 20.4196 43.6683C20.4128 43.6689 20.4148 43.6686 20.4251 43.6682C20.4351 43.6678 20.4578 43.6672 20.4921 43.6678C20.5258 43.6684 20.5784 43.6702 20.6471 43.6759L20.2327 48.6587L19.8183 53.6415C21.0231 53.7417 22.2712 53.5318 23.1308 53.3267C23.9266 53.1368 25.2916 52.7411 26.434 51.9389L23.5606 47.847ZM20.2327 48.6587L20.6471 43.6759C20.4801 43.662 20.3959 43.6396 20.3694 43.6318C20.3455 43.6248 20.3318 43.619 20.3099 43.6076C20.2789 43.5914 20.2167 43.556 20.0703 43.4552C19.9889 43.3991 19.9146 43.3462 19.7881 43.2567C19.6767 43.1779 19.5213 43.0683 19.3524 42.9558L16.5802 47.1168L13.8079 51.2779C14.2869 51.597 16.3116 53.3499 19.8183 53.6415L20.2327 48.6587ZM16.5802 47.1168L19.3524 42.9558C19.419 43.0001 19.4624 43.0328 19.4796 43.0461C19.4984 43.0605 19.5041 43.0656 19.4961 43.0589C19.4784 43.0439 19.4341 43.005 19.3656 42.9392C19.2264 42.8055 19.056 42.6268 18.892 42.4371C18.8122 42.3447 18.7422 42.2594 18.6845 42.1852C18.6254 42.1093 18.59 42.059 18.5745 42.036C18.5544 42.006 18.5851 42.0476 18.6383 42.1515C18.6664 42.2064 18.7126 42.3014 18.7636 42.4311C18.8127 42.5559 18.8853 42.7604 18.9449 43.0287L14.0639 44.1132L9.18297 45.1978C9.44122 46.36 10.0449 47.2715 10.2711 47.6085C10.6031 48.1033 10.9794 48.5748 11.326 48.9758C11.9228 49.6664 12.8665 50.6507 13.8079 51.2779L16.5802 47.1168ZM78.9361 44.1132L83.8171 45.1978C84.0655 44.0797 84.0358 42.9122 83.8774 41.9512C83.7513 41.1856 83.3671 39.3857 81.9096 37.9881L78.4491 41.5971L74.9886 45.2062C74.4367 44.6769 74.2064 44.1626 74.1318 43.9794C74.0422 43.7595 74.0168 43.6153 74.0104 43.5766C74.0024 43.5278 73.9997 43.49 74 43.4453C74.0003 43.4154 74.0016 43.2695 74.0552 43.0287L78.9361 44.1132ZM78.4491 41.5971L81.9096 37.9881C80.7495 36.8758 79.3551 36.3884 78.3529 36.1822C77.293 35.9642 75.9473 35.91 74.5772 36.3211L76.014 41.1102L77.4509 45.8993C76.8924 46.0668 76.5103 46.0126 76.3381 45.9772C76.2213 45.9531 76.0611 45.9083 75.8649 45.8173C75.6833 45.7331 75.3514 45.554 74.9886 45.2062L78.4491 41.5971ZM76.014 41.1102L74.5772 36.3211C73.7262 36.5764 73.0553 36.9764 72.7062 37.1943C72.3471 37.4185 71.9457 37.7006 71.75 37.8349C71.2233 38.1962 70.9943 38.3213 70.8308 38.3834L72.605 43.058L74.3791 47.7327C75.7455 47.2141 76.8152 46.487 77.4077 46.0805C77.7715 45.8309 77.8848 45.7501 78.002 45.6769C78.1291 45.5976 77.896 45.7657 77.4509 45.8993L76.014 41.1102ZM72.605 43.058L70.8308 38.3834C70.4268 38.5367 70.0322 38.6355 69.4238 38.776C68.9792 38.8786 67.8855 39.1059 66.8834 39.5614L68.9524 44.1132L71.0214 48.6651C70.9119 48.7148 70.8802 48.7153 71.0134 48.6786C71.1583 48.6388 71.3314 48.5986 71.674 48.5195C72.2923 48.3767 73.2775 48.1508 74.3791 47.7327L72.605 43.058ZM68.9524 44.1132L66.8834 39.5614C65.1702 40.3401 63.0894 42.0654 62.7646 45.0296L67.7348 45.5743L72.7051 46.1189C72.6252 46.8483 72.3168 47.49 71.9144 47.9622C71.5437 48.3972 71.1788 48.5935 71.0214 48.6651L68.9524 44.1132ZM67.7348 45.5743L62.7646 45.0296C62.5932 46.5934 63.128 47.8216 63.3976 48.3631C63.7208 49.0123 64.1123 49.5484 64.4291 49.936C65.0516 50.6975 65.8275 51.4203 66.5661 51.9389L69.4394 47.847L72.3127 43.7551C72.3664 43.7927 72.3496 43.7857 72.2868 43.727C72.2291 43.6729 72.1872 43.6262 72.1716 43.6071C72.14 43.5685 72.231 43.6683 72.3497 43.9066C72.4124 44.0327 72.5183 44.2681 72.6027 44.5971C72.6854 44.9197 72.7781 45.4525 72.7051 46.1189L67.7348 45.5743ZM69.4394 47.847L66.5661 51.9389C67.7084 52.7411 69.0735 53.1368 69.8693 53.3267C70.7288 53.5318 71.9769 53.7417 73.1817 53.6415L72.7673 48.6587L72.3529 43.6759C72.4217 43.6702 72.4743 43.6684 72.5079 43.6678C72.5422 43.6672 72.5649 43.6678 72.5749 43.6682C72.5852 43.6686 72.5872 43.6689 72.5805 43.6683C72.5739 43.6678 72.5614 43.6667 72.5429 43.6646C72.505 43.6602 72.4526 43.6528 72.3887 43.6413C72.3253 43.6299 72.2579 43.6159 72.1903 43.5998C72.1225 43.5836 72.0609 43.5668 72.0086 43.551C71.9554 43.535 71.9211 43.5227 71.9061 43.517C71.8992 43.5143 71.9002 43.5146 71.9085 43.5182C71.9167 43.5217 71.9357 43.5301 71.9643 43.5442C71.9924 43.5582 72.0357 43.5806 72.0911 43.6128C72.1459 43.6445 72.2219 43.6913 72.3127 43.7551L69.4394 47.847ZM72.7673 48.6587L73.1817 53.6415C76.6884 53.3499 78.7131 51.597 79.1922 51.2779L76.4199 47.1168L73.6476 42.9558C73.4787 43.0683 73.3233 43.1779 73.2119 43.2567C73.0854 43.3462 73.0111 43.3991 72.9297 43.4552C72.7833 43.556 72.7211 43.5914 72.6901 43.6076C72.6682 43.619 72.6545 43.6248 72.6306 43.6318C72.6041 43.6396 72.52 43.662 72.3529 43.6759L72.7673 48.6587ZM76.4199 47.1168L79.1922 51.2779C80.1335 50.6507 81.0773 49.6664 81.6741 48.9758C82.0207 48.5748 82.3969 48.1033 82.7289 47.6085C82.9551 47.2715 83.5588 46.36 83.8171 45.1978L78.9361 44.1132L74.0552 43.0287C74.1148 42.7604 74.1873 42.5559 74.2364 42.4311C74.2875 42.3014 74.3336 42.2064 74.3617 42.1515C74.415 42.0476 74.4456 42.006 74.4255 42.036C74.41 42.059 74.3746 42.1093 74.3155 42.1852C74.2578 42.2594 74.1879 42.3447 74.1081 42.4371C73.9441 42.6268 73.7736 42.8055 73.6345 42.9392C73.566 43.005 73.5217 43.0439 73.5039 43.0589C73.4959 43.0656 73.5017 43.0605 73.5204 43.0461C73.5377 43.0328 73.581 43.0001 73.6476 42.9558L76.4199 47.1168ZM25.6396 12V17H67.3605V12V7H25.6396V12ZM17 32V37H76V32V27H17V32ZM16.2732 33.3182V38.3182H76.2918V33.3182V28.3182H16.2732V33.3182ZM10 56.6948V61.6948H82.5649V56.6948V51.6948H10V56.6948ZM27.2716 15.9219V20.9219H65.0531V15.9219V10.9219H27.2716V15.9219ZM22 28.2595V33.2595H70.3247V28.2595V23.2595H22V28.2595Z" fill="white" mask="url(#path-5-outside-1_264_248)"/>
<rect x="12" y="53.7466" width="12.7143" height="11.2532" rx="4.40909" fill="#707583" stroke="black" stroke-width="2"/>
<rect x="68" y="53.7466" width="12.7143" height="11.2532" rx="4.40909" fill="#707583" stroke="black" stroke-width="2"/>
<path d="M67.3604 11C69.3806 11 71.1614 12.3261 71.7402 14.2617L76.958 31.7139L77.3428 33H15.6572L16.042 31.7139L21.2598 14.2617L21.3174 14.082C21.95 12.2445 23.6825 11 25.6396 11H67.3604Z" fill="#D9D9D9" stroke="black" stroke-width="2"/>
<path d="M76.292 32.3182L76.4082 32.325C76.6775 32.3566 76.9244 32.4967 77.0898 32.7156L82.6738 40.1092L82.8779 40.4031C83.3252 41.1076 83.5645 41.927 83.5645 42.7664V56.6951C83.5643 57.2473 83.1166 57.6951 82.5645 57.6951H10C9.44783 57.6951 9.00018 57.2473 9 56.6951V42.7664C9 41.8074 9.31268 40.8745 9.89062 40.1092L15.4756 32.7156L15.5508 32.6268C15.7382 32.4309 15.999 32.3182 16.2734 32.3182H76.292Z" fill="#D9D9D9" stroke="black" stroke-width="2" stroke-linejoin="round"/>
<g filter="url(#filter2_i_264_248)">
<path d="M22 28.2595L25.7311 17.0333C25.9517 16.3697 26.5724 15.9219 27.2716 15.9219H46.1623H65.0531C65.7523 15.9219 66.373 16.3697 66.5936 17.0333L70.3247 28.2595H46.1623H22Z" fill="#81DAFC"/>
</g>
<path d="M65.0527 14.9219C66.1828 14.9219 67.1866 15.6454 67.543 16.7178L71.2734 27.9443C71.3747 28.2492 71.3237 28.5842 71.1357 28.8447C70.9478 29.1053 70.6455 29.2598 70.3242 29.2598H22C21.6788 29.2598 21.3775 29.1051 21.1895 28.8447C21.0015 28.5842 20.9496 28.2492 21.0508 27.9443L24.7822 16.7178L24.8565 16.5205C25.2645 15.5577 26.2123 14.9219 27.2715 14.9219H65.0527Z" stroke="black" stroke-width="2" stroke-linejoin="round"/>
<path d="M12.792 25.8247L12.8945 25.8296C13.3988 25.8808 13.792 26.307 13.792 26.8247V30.0718C13.7918 30.6239 13.3442 31.0718 12.792 31.0718H6.62305C5.17435 31.0716 4 29.8965 4 28.4478C4.00018 26.9992 5.17446 25.8249 6.62305 25.8247H12.792Z" fill="#707583" stroke="black" stroke-width="2" stroke-linejoin="round"/>
<path d="M79.2957 25.8247L79.1931 25.8296C78.6889 25.8808 78.2957 26.307 78.2957 26.8247V30.0718C78.2958 30.6239 78.7435 31.0718 79.2957 31.0718H85.4646C86.9133 31.0716 88.0876 29.8965 88.0876 28.4478C88.0875 26.9992 86.9132 25.8249 85.4646 25.8247H79.2957Z" fill="#707583" stroke="black" stroke-width="2" stroke-linejoin="round"/>
<g filter="url(#filter3_i_264_248)">
<path d="M14.5509 41.5971C14.043 42.0841 13.9016 43.3828 14.0639 44.1132C14.2262 44.8437 15.8496 46.6301 16.5801 47.1168C17.4278 47.6816 18.2847 48.4967 20.2327 48.6587C21.1225 48.7327 22.8671 48.334 23.5606 47.847C24.2542 47.36 25.3363 46.2236 25.2652 45.5743C25.194 44.9249 24.7447 44.4301 24.0476 44.1132C23.1548 43.7074 21.9007 43.6295 20.395 43.058C18.8651 42.4774 17.7977 41.3537 16.986 41.1102C16.1743 40.8667 15.0589 41.1101 14.5509 41.5971Z" fill="white" fill-opacity="0.74"/>
</g>
<path d="M15.4531 40.1006C16.0202 39.9839 16.6747 39.9727 17.2734 40.1523L17.5176 40.2393C17.7572 40.3376 17.9804 40.4649 18.1758 40.5869C18.4381 40.7507 18.7243 40.9524 18.9873 41.1328C19.5403 41.5122 20.1054 41.8784 20.75 42.123L21.2529 42.2988C21.7471 42.4569 22.2166 42.5678 22.6758 42.6738C23.2554 42.8077 23.9043 42.9497 24.4619 43.2031L24.6289 43.2832C25.4564 43.7059 26.1445 44.423 26.2588 45.4658L26.2686 45.6289C26.2705 46.0056 26.1402 46.3415 26.0215 46.5801C25.875 46.8743 25.6763 47.1563 25.4736 47.4043C25.1209 47.8357 24.6867 48.2494 24.2988 48.5459L24.1357 48.665C23.6298 49.0203 22.8686 49.2765 22.2021 49.4355C21.608 49.5773 20.9395 49.6775 20.3818 49.667L20.1494 49.6553C18.4546 49.5142 17.4178 48.9146 16.6787 48.4062L16.0254 47.9492C15.545 47.6291 14.8858 46.9774 14.3525 46.3604C14.0764 46.0408 13.8083 45.701 13.5928 45.3799C13.4226 45.1264 13.2283 44.8023 13.126 44.4717L13.0879 44.3301C12.9733 43.8143 12.9749 43.1752 13.0693 42.6016C13.1574 42.067 13.3638 41.3493 13.8584 40.875L14.0293 40.7266C14.4439 40.3989 14.9671 40.2006 15.4531 40.1006Z" stroke="black" stroke-width="2"/>
<g filter="url(#filter4_i_264_248)">
<path d="M78.4491 41.5971C78.957 42.0841 79.0984 43.3828 78.9361 44.1132C78.7738 44.8437 77.1504 46.6301 76.4199 47.1168C75.5722 47.6816 74.7153 48.4967 72.7673 48.6587C71.8775 48.7327 70.1329 48.334 69.4394 47.847C68.7458 47.36 67.6637 46.2236 67.7348 45.5743C67.806 44.9249 68.2553 44.4301 68.9524 44.1132C69.8452 43.7074 71.0993 43.6295 72.605 43.058C74.1349 42.4774 75.2023 41.3537 76.014 41.1102C76.8257 40.8667 77.9411 41.1101 78.4491 41.5971Z" fill="white" fill-opacity="0.74"/>
</g>
<path d="M77.5469 40.1006C76.9798 39.9839 76.3253 39.9727 75.7266 40.1523L75.4824 40.2393C75.2428 40.3376 75.0196 40.4649 74.8242 40.5869C74.5619 40.7507 74.2757 40.9524 74.0127 41.1328C73.4597 41.5122 72.8946 41.8784 72.25 42.123L71.7471 42.2988C71.2529 42.4569 70.7834 42.5678 70.3242 42.6738C69.7446 42.8077 69.0957 42.9497 68.5381 43.2031L68.3711 43.2832C67.5436 43.7059 66.8555 44.423 66.7412 45.4658L66.7314 45.6289C66.7295 46.0056 66.8598 46.3415 66.9785 46.5801C67.125 46.8743 67.3237 47.1563 67.5264 47.4043C67.8791 47.8357 68.3133 48.2494 68.7012 48.5459L68.8643 48.665C69.3702 49.0203 70.1314 49.2765 70.7979 49.4355C71.392 49.5773 72.0605 49.6775 72.6182 49.667L72.8506 49.6553C74.5454 49.5142 75.5822 48.9146 76.3213 48.4062L76.9746 47.9492C77.455 47.6291 78.1142 46.9774 78.6475 46.3604C78.9236 46.0408 79.1917 45.701 79.4072 45.3799C79.5774 45.1264 79.7717 44.8023 79.874 44.4717L79.9121 44.3301C80.0267 43.8143 80.0251 43.1752 79.9307 42.6016C79.8426 42.067 79.6362 41.3493 79.1416 40.875L78.9707 40.7266C78.5561 40.3989 78.0329 40.2006 77.5469 40.1006Z" stroke="black" stroke-width="2"/>
<g filter="url(#filter5_i_264_248)">
<path d="M21.0078 28.2088C21.0529 26.9526 21.4815 24.8932 21.4815 24.8932C21.4815 24.8932 24.0298 29.0541 25.9811 28.2088C28.0076 27.3309 26.4548 24.4966 26.4548 22.2882C26.4548 20.1717 26.6954 19.2286 27.4021 17.3149C28.4555 14.4624 30.1828 13.5756 31.6649 10.9206C32.897 8.71353 34.5068 5 34.5068 5C34.5068 5 36.0469 10.2765 35.9277 13.7625C35.8295 16.6384 32.8406 18.6088 34.5068 20.8672C35.013 21.5534 35.3216 22.1599 36.1646 22.2882C37.3355 22.4663 37.6884 21.211 38.5328 20.3936C39.7638 19.2019 41.3747 17.3149 41.3747 17.3149C41.3747 17.3149 40.2871 20.4794 40.1906 22.7618C40.0941 25.0442 40.9011 28.6824 40.9011 28.6824C43.042 28.4033 46.5848 24.8932 46.5848 24.8932C46.5848 24.8932 47.0131 26.8487 47.0585 28.1049C47.3191 35.3217 41.0163 41.1447 33.7963 40.9973C26.7237 40.8529 20.7541 35.2783 21.0078 28.2088Z" fill="#FFBA17"/>
</g>
<path d="M34.5694 4.00195C34.9898 4.02831 35.3487 4.31532 35.4668 4.71973V4.72168C35.4671 4.72257 35.4683 4.72407 35.4688 4.72559C35.4696 4.72861 35.4702 4.73302 35.4717 4.73828C35.4749 4.74938 35.4795 4.76541 35.4854 4.78613C35.4972 4.8278 35.5145 4.88886 35.5361 4.9668C35.5793 5.12262 35.6412 5.34769 35.7139 5.62793C35.8593 6.18813 36.0514 6.97176 36.2402 7.86719C36.5901 9.52583 36.9434 11.6422 36.9336 13.4414L36.9268 13.7969C36.8681 15.5102 35.9344 16.997 35.4551 17.9834C35.189 18.531 35.0396 18.9405 35.0088 19.2949C34.9823 19.6002 35.0398 19.9051 35.3115 20.2734L35.5039 20.541C35.5643 20.6261 35.6171 20.7004 35.669 20.7715C35.773 20.9142 35.8527 21.0144 35.9268 21.0908C36.0488 21.2166 36.147 21.2742 36.3154 21.2998L36.417 21.3027C36.4392 21.2993 36.4526 21.2932 36.4629 21.2881C36.5059 21.2666 36.5852 21.2107 36.7149 21.0605C36.8522 20.9015 36.9746 20.7248 37.167 20.4648C37.343 20.2271 37.5637 19.9393 37.8369 19.6748L38.2949 19.2188C38.764 18.7386 39.2565 18.2015 39.6709 17.7393C39.9452 17.4334 40.1819 17.1643 40.3496 16.9717C40.4332 16.8757 40.4995 16.7988 40.5449 16.7461C40.5675 16.7199 40.5851 16.6991 40.5967 16.6855C40.6025 16.6788 40.6075 16.6733 40.6104 16.6699L40.6143 16.666L40.6748 16.6006C40.9911 16.2902 41.4791 16.2232 41.8701 16.4463C42.2613 16.6696 42.4523 17.1244 42.3457 17.5547L42.3203 17.6396V17.6406L42.3106 17.6699C42.3033 17.6916 42.2916 17.7244 42.2774 17.7676C42.2489 17.854 42.2082 17.982 42.1582 18.1426C42.0581 18.4642 41.9236 18.9166 41.7861 19.4375C41.5416 20.3644 41.3021 21.4581 41.2168 22.4072L41.1895 22.8037C41.1457 23.8388 41.309 25.2359 41.4971 26.4209C41.5531 26.7737 41.6107 27.1016 41.6631 27.3867C41.8266 27.3084 42.003 27.2168 42.1895 27.1084C42.7667 26.7727 43.3698 26.3383 43.9258 25.8984C44.4789 25.4608 44.9705 25.0296 45.3242 24.707C45.5005 24.5463 45.6412 24.4131 45.7373 24.3213C45.7854 24.2754 45.8224 24.2395 45.8467 24.2158C45.8587 24.2041 45.8683 24.1961 45.874 24.1904C45.8769 24.1876 45.8787 24.1848 45.8799 24.1836L45.8809 24.1826L45.9834 24.0938C46.2341 23.9051 46.5622 23.8442 46.8682 23.9346C47.2179 24.0379 47.4835 24.3235 47.5615 24.6797L47.5625 24.6816C47.5628 24.6828 47.563 24.6845 47.5635 24.6865C47.5644 24.6909 47.5657 24.6972 47.5674 24.7051C47.5708 24.721 47.5759 24.7441 47.582 24.7734C47.5944 24.8321 47.6118 24.9168 47.6328 25.0215C47.675 25.2308 47.7319 25.5234 47.7901 25.8564C47.9041 26.5099 48.0324 27.3693 48.0576 28.0693L48.0654 28.4355C48.1262 35.9887 41.6024 41.9605 34.1377 42L33.7764 41.9971C26.2206 41.8428 19.7325 35.8726 20.0088 28.1729L20.0449 27.6211C20.0969 27.0464 20.1901 26.422 20.2754 25.9141C20.3334 25.5688 20.3897 25.2643 20.4317 25.0459C20.4527 24.9365 20.4701 24.8483 20.4824 24.7871C20.4886 24.7565 20.4937 24.7323 20.4971 24.7158C20.4987 24.7079 20.5001 24.7017 20.501 24.6973C20.5015 24.695 20.5017 24.6927 20.502 24.6914V24.6895L20.5449 24.5439C20.6677 24.2146 20.957 23.9697 21.3106 23.9082C21.664 23.8469 22.0185 23.9797 22.2451 24.248L22.334 24.3711C22.3346 24.3721 22.3361 24.3741 22.3379 24.377C22.3415 24.3828 22.3473 24.3924 22.3555 24.4053C22.3719 24.4313 22.3971 24.4713 22.4307 24.5225C22.4979 24.625 22.598 24.7724 22.7236 24.9482C22.9772 25.303 23.3283 25.7581 23.7276 26.1816C24.1355 26.6144 24.5488 26.9659 24.9219 27.1631C25.2938 27.3596 25.4838 27.3344 25.584 27.291L25.668 27.251C25.8485 27.1545 25.9162 27.0442 25.96 26.9111C26.0294 26.7001 26.0473 26.3724 25.9854 25.8701C25.9235 25.3679 25.8053 24.8412 25.6836 24.2109C25.5686 23.6154 25.4551 22.9432 25.4551 22.2881C25.4551 21.1908 25.5167 20.3547 25.6826 19.5283C25.8471 18.7091 26.1071 17.9349 26.4639 16.9688L26.5752 16.6787C27.1439 15.2599 27.8718 14.294 28.6006 13.4082C29.3774 12.464 30.1059 11.6626 30.792 10.4336L31.0195 10.0156C31.5601 9.00576 32.1543 7.76327 32.6397 6.71289C32.9154 6.11609 33.1536 5.58732 33.3223 5.20801C33.4064 5.01876 33.4738 4.86707 33.5195 4.7627C33.5424 4.71055 33.5595 4.66966 33.5713 4.64258C33.5771 4.62918 33.582 4.61909 33.585 4.6123C33.5864 4.609 33.5872 4.60614 33.5879 4.60449L33.5889 4.60254L33.6621 4.46484C33.8551 4.16005 34.2013 3.9789 34.5694 4.00195Z" stroke="black" stroke-width="2" stroke-linejoin="round"/>
<g filter="url(#filter6_i_264_248)">
<path d="M53.005 59.8278C53.0338 59.0252 53.3076 57.7096 53.3076 57.7096C53.3076 57.7096 54.9357 60.3679 56.1824 59.8278C57.4771 59.267 56.485 57.4562 56.485 56.0452C56.485 54.693 56.6387 54.0905 57.0902 52.8678C57.7632 51.0454 58.8668 50.4789 59.8137 48.7826C60.6009 47.3725 61.6294 45 61.6294 45C61.6294 45 62.6133 48.3711 62.5372 50.5983C62.4744 52.4357 60.5648 53.6945 61.6294 55.1374C61.9528 55.5758 62.1499 55.9633 62.6885 56.0452C63.4366 56.159 63.662 55.357 64.2015 54.8348C64.988 54.0734 66.0172 52.8678 66.0172 52.8678C66.0172 52.8678 65.3223 54.8896 65.2607 56.3478C65.199 57.806 65.7146 60.1304 65.7146 60.1304C67.0824 59.9521 69.3459 57.7096 69.3459 57.7096C69.3459 57.7096 69.6195 58.9589 69.6485 59.7615C69.815 64.3722 65.7882 68.0924 61.1754 67.9983C56.6568 67.906 52.8429 64.3445 53.005 59.8278Z" fill="#FFBA17"/>
</g>
<path d="M61.6914 44.002C62.1119 44.0283 62.4708 44.3154 62.5889 44.7197L62.5899 44.7207C62.59 44.7214 62.5905 44.7226 62.5908 44.7236C62.5914 44.7257 62.5917 44.7288 62.5928 44.7324C62.5949 44.7399 62.5987 44.7509 62.6026 44.7646C62.6103 44.792 62.6208 44.8315 62.6348 44.8818C62.6629 44.9831 62.703 45.1293 62.75 45.3105C62.844 45.6725 62.9678 46.179 63.0899 46.7578C63.2994 47.7513 63.5165 49.0226 63.5391 50.1562L63.5361 50.6328C63.4952 51.8269 62.8399 52.8763 62.5596 53.4531C62.3931 53.7957 62.3232 54.0073 62.3096 54.1641C62.3003 54.2717 62.3123 54.3795 62.4336 54.5439L62.5615 54.7207C62.6005 54.7757 62.6319 54.8205 62.6631 54.8633C62.7137 54.9327 62.751 54.9761 62.7783 55.0068C62.8488 54.9232 62.9159 54.8314 63.0391 54.665C63.1536 54.5103 63.309 54.3068 63.5059 54.1162L63.792 53.8311C64.0857 53.5304 64.3965 53.1925 64.6602 52.8984C64.834 52.7045 64.9836 52.5332 65.0899 52.4111C65.1429 52.3502 65.1853 52.3018 65.2139 52.2686C65.2282 52.2519 65.2389 52.2389 65.2461 52.2305C65.2495 52.2266 65.2522 52.2237 65.2539 52.2217C65.2548 52.2207 65.2555 52.2192 65.2559 52.2188H65.2569L65.3174 52.1533C65.6337 51.8431 66.1217 51.776 66.5127 51.999C66.9038 52.2223 67.0947 52.6772 66.9883 53.1074L66.9629 53.1924L66.957 53.21C66.9527 53.223 66.9462 53.2431 66.9375 53.2695C66.9199 53.3231 66.8936 53.4033 66.8623 53.5039C66.7995 53.7055 66.7151 53.9898 66.6289 54.3164C66.4521 54.9867 66.286 55.7718 66.2598 56.3896C66.2334 57.0127 66.3325 57.8754 66.4522 58.6289C66.4582 58.6668 66.4647 58.7043 66.4707 58.7412C66.7846 58.549 67.1134 58.3141 67.4229 58.0693C67.7678 57.7964 68.0751 57.5265 68.2969 57.3242C68.4073 57.2235 68.496 57.14 68.5557 57.083C68.5852 57.0548 68.6074 57.0329 68.6221 57.0186C68.6294 57.0114 68.6354 57.0062 68.6387 57.0029L68.6416 56.999C68.9007 56.7424 69.2792 56.6477 69.6289 56.751C69.9787 56.8543 70.2443 57.1398 70.3223 57.4961H70.3233V57.4971C70.3235 57.498 70.3239 57.4995 70.3242 57.501C70.3249 57.504 70.3251 57.5084 70.3262 57.5137C70.3285 57.5243 70.3319 57.5395 70.336 57.5586C70.3441 57.597 70.3555 57.6518 70.3692 57.7197C70.3965 57.8558 70.4339 58.046 70.4717 58.2627C70.545 58.683 70.6304 59.2523 70.6475 59.7256L70.6514 60.2139C70.5546 65.0606 66.4038 68.8478 61.6338 68.9951L61.1553 68.998C56.1535 68.8959 51.8212 64.9388 52.0059 59.792L52.0303 59.4219C52.0649 59.0384 52.126 58.6278 52.1807 58.3018C52.2182 58.078 52.255 57.8808 52.2822 57.7393C52.2959 57.6683 52.3074 57.6103 52.3154 57.5703C52.3194 57.5507 52.323 57.5353 52.3252 57.5244C52.3263 57.5189 52.3265 57.5138 52.3272 57.5107C52.3274 57.5095 52.328 57.5086 52.3281 57.5078V57.5059L52.3711 57.3594C52.494 57.0305 52.7834 56.786 53.1367 56.7246C53.5402 56.6546 53.9449 56.8377 54.1592 57.1865H54.1602C54.1604 57.187 54.1605 57.1883 54.1611 57.1895C54.163 57.1925 54.1663 57.1977 54.1709 57.2051C54.1804 57.2201 54.1965 57.2434 54.2168 57.2744C54.2575 57.3365 54.3175 57.4274 54.3945 57.5352C54.5508 57.7537 54.7647 58.0304 55.0049 58.2852C55.2538 58.5492 55.487 58.7416 55.6748 58.8408C55.7443 58.8775 55.7882 58.8902 55.8115 58.8955C55.8166 58.8928 55.8212 58.8916 55.8242 58.8896C55.8246 58.8885 55.8257 58.8871 55.8262 58.8857C55.8453 58.8274 55.8646 58.6821 55.8272 58.3779C55.7896 58.0734 55.7183 57.759 55.6377 57.3418C55.5639 56.9594 55.4854 56.5006 55.4854 56.0449C55.4854 55.3299 55.5254 54.7702 55.6377 54.2109C55.7486 53.6587 55.9231 53.1423 56.1524 52.5215L56.3057 52.1387C56.6764 51.2836 57.1337 50.6817 57.5772 50.1426C58.0836 49.527 58.5219 49.0447 58.9404 48.2949L59.2315 47.7529C59.5297 47.1767 59.8441 46.5176 60.1094 45.9434C60.2847 45.564 60.4357 45.2275 60.543 44.9863C60.5965 44.8659 60.639 44.7693 60.668 44.7031C60.6825 44.67 60.6937 44.644 60.7012 44.627C60.7047 44.6188 60.7072 44.6125 60.709 44.6084C60.7099 44.6064 60.7105 44.6045 60.711 44.6035L60.7119 44.6025L60.7852 44.4648C60.9781 44.1603 61.3236 43.9791 61.6914 44.002Z" stroke="black" stroke-width="2" stroke-linejoin="round"/>
<defs>
<filter id="filter0_i_264_248" x="14.9997" y="-6.10352e-05" width="37.0669" height="47" filterUnits="userSpaceOnUse" color-interpolation-filters="sRGB">
<feFlood flood-opacity="0" result="BackgroundImageFix"/>
<feBlend mode="normal" in="SourceGraphic" in2="BackgroundImageFix" result="shape"/>
<feColorMatrix in="SourceAlpha" type="matrix" values="0 0 0 0 0 0 0 0 0 0 0 0 0 0 0 0 0 0 127 0" result="hardAlpha"/>
<feOffset dx="-3" dy="4"/>
<feGaussianBlur stdDeviation="0.5"/>
<feComposite in2="hardAlpha" operator="arithmetic" k2="-1" k3="1"/>
<feColorMatrix type="matrix" values="0 0 0 0 0.875 0 0 0 0 0 0 0 0 0 0 0 0 0 0.25 0"/>
<feBlend mode="normal" in2="shape" result="effect1_innerShadow_264_248"/>
</filter>
<filter id="filter1_i_264_248" x="46.9997" y="39.9999" width="27.6541" height="34" filterUnits="userSpaceOnUse" color-interpolation-filters="sRGB">
<feFlood flood-opacity="0" result="BackgroundImageFix"/>
<feBlend mode="normal" in="SourceGraphic" in2="BackgroundImageFix" result="shape"/>
<feColorMatrix in="SourceAlpha" type="matrix" values="0 0 0 0 0 0 0 0 0 0 0 0 0 0 0 0 0 0 127 0" result="hardAlpha"/>
<feOffset dx="-3" dy="4"/>
<feGaussianBlur stdDeviation="0.5"/>
<feComposite in2="hardAlpha" operator="arithmetic" k2="-1" k3="1"/>
<feColorMatrix type="matrix" values="0 0 0 0 0.875 0 0 0 0 0 0 0 0 0 0 0 0 0 0.25 0"/>
<feBlend mode="normal" in2="shape" result="effect1_innerShadow_264_248"/>
</filter>
<filter id="filter2_i_264_248" x="18" y="13.9219" width="54.3247" height="18.3377" filterUnits="userSpaceOnUse" color-interpolation-filters="sRGB">
<feFlood flood-opacity="0" result="BackgroundImageFix"/>
<feBlend mode="normal" in="SourceGraphic" in2="BackgroundImageFix" result="shape"/>
<feColorMatrix in="SourceAlpha" type="matrix" values="0 0 0 0 0 0 0 0 0 0 0 0 0 0 0 0 0 0 127 0" result="hardAlpha"/>
<feOffset dx="-3" dy="4"/>
<feGaussianBlur stdDeviation="1"/>
<feComposite in2="hardAlpha" operator="arithmetic" k2="-1" k3="1"/>
<feColorMatrix type="matrix" values="0 0 0 0 0.0252778 0 0 0 0 0.390963 0 0 0 0 0.733056 0 0 0 0.62 0"/>
<feBlend mode="normal" in2="shape" result="effect1_innerShadow_264_248"/>
</filter>
<filter id="filter3_i_264_248" x="10" y="39.0147" width="17.2685" height="13.6528" filterUnits="userSpaceOnUse" color-interpolation-filters="sRGB">
<feFlood flood-opacity="0" result="BackgroundImageFix"/>
<feBlend mode="normal" in="SourceGraphic" in2="BackgroundImageFix" result="shape"/>
<feColorMatrix in="SourceAlpha" type="matrix" values="0 0 0 0 0 0 0 0 0 0 0 0 0 0 0 0 0 0 127 0" result="hardAlpha"/>
<feOffset dx="-3" dy="4"/>
<feGaussianBlur stdDeviation="1"/>
<feComposite in2="hardAlpha" operator="arithmetic" k2="-1" k3="1"/>
<feColorMatrix type="matrix" values="0 0 0 0 0.0252778 0 0 0 0 0.390963 0 0 0 0 0.733056 0 0 0 0.62 0"/>
<feBlend mode="normal" in2="shape" result="effect1_innerShadow_264_248"/>
</filter>
<filter id="filter4_i_264_248" x="63.7315" y="39.0147" width="17.2685" height="13.6528" filterUnits="userSpaceOnUse" color-interpolation-filters="sRGB">
<feFlood flood-opacity="0" result="BackgroundImageFix"/>
<feBlend mode="normal" in="SourceGraphic" in2="BackgroundImageFix" result="shape"/>
<feColorMatrix in="SourceAlpha" type="matrix" values="0 0 0 0 0 0 0 0 0 0 0 0 0 0 0 0 0 0 127 0" result="hardAlpha"/>
<feOffset dx="-3" dy="4"/>
<feGaussianBlur stdDeviation="1"/>
<feComposite in2="hardAlpha" operator="arithmetic" k2="-1" k3="1"/>
<feColorMatrix type="matrix" values="0 0 0 0 0.0252778 0 0 0 0 0.390963 0 0 0 0 0.733056 0 0 0 0.62 0"/>
<feBlend mode="normal" in2="shape" result="effect1_innerShadow_264_248"/>
</filter>
<filter id="filter5_i_264_248" x="17.9999" y="2.99997" width="31.0665" height="41" filterUnits="userSpaceOnUse" color-interpolation-filters="sRGB">
<feFlood flood-opacity="0" result="BackgroundImageFix"/>
<feBlend mode="normal" in="SourceGraphic" in2="BackgroundImageFix" result="shape"/>
<feColorMatrix in="SourceAlpha" type="matrix" values="0 0 0 0 0 0 0 0 0 0 0 0 0 0 0 0 0 0 127 0" result="hardAlpha"/>
<feOffset dx="-3" dy="4"/>
<feGaussianBlur stdDeviation="0.5"/>
<feComposite in2="hardAlpha" operator="arithmetic" k2="-1" k3="1"/>
<feColorMatrix type="matrix" values="0 0 0 0 0.875 0 0 0 0 0 0 0 0 0 0 0 0 0 0.25 0"/>
<feBlend mode="normal" in2="shape" result="effect1_innerShadow_264_248"/>
</filter>
<filter id="filter6_i_264_248" x="49.9999" y="43" width="21.6537" height="28" filterUnits="userSpaceOnUse" color-interpolation-filters="sRGB">
<feFlood flood-opacity="0" result="BackgroundImageFix"/>
<feBlend mode="normal" in="SourceGraphic" in2="BackgroundImageFix" result="shape"/>
<feColorMatrix in="SourceAlpha" type="matrix" values="0 0 0 0 0 0 0 0 0 0 0 0 0 0 0 0 0 0 127 0" result="hardAlpha"/>
<feOffset dx="-3" dy="4"/>
<feGaussianBlur stdDeviation="0.5"/>
<feComposite in2="hardAlpha" operator="arithmetic" k2="-1" k3="1"/>
<feColorMatrix type="matrix" values="0 0 0 0 0.875 0 0 0 0 0 0 0 0 0 0 0 0 0 0.25 0"/>
<feBlend mode="normal" in2="shape" result="effect1_innerShadow_264_248"/>
</filter>
</defs>
</svg>
