<svg width="95" height="78" viewBox="0 0 95 78" fill="none" xmlns="http://www.w3.org/2000/svg">
<path d="M55.4092 45.5049C56.4605 45.5707 57.3582 46.2887 57.6533 47.2998V47.3018C57.6536 47.3028 57.6549 47.3042 57.6553 47.3057C57.6561 47.3086 57.6569 47.3127 57.6582 47.3174C57.6609 47.3269 57.6643 47.3402 57.6689 47.3564C57.6782 47.3889 57.6911 47.4346 57.707 47.4922C57.739 47.6075 57.7844 47.7711 57.8369 47.9736C57.9418 48.3778 58.0804 48.9429 58.2168 49.5898C58.4616 50.7503 58.7392 52.359 58.7305 53.8018L58.7246 54.0879C58.7225 54.1487 58.7169 54.209 58.7129 54.2686C59.4642 53.8372 60.4094 53.8159 61.1973 54.2656C62.24 54.861 62.7125 56.1135 62.3223 57.249C62.3216 57.2509 62.3209 57.2543 62.3193 57.2588C62.3156 57.2698 62.3091 57.2882 62.3008 57.3135C62.284 57.3644 62.2587 57.443 62.2275 57.543C62.165 57.7439 62.0801 58.0277 61.9941 58.3535C61.8481 58.9073 61.7271 59.4782 61.6729 59.9424C61.6798 59.9357 61.6871 59.9298 61.6934 59.9238C61.7218 59.8967 61.7432 59.8766 61.7559 59.8643L61.7695 59.8506C62.4171 59.2102 63.3618 58.9725 64.2354 59.2305C65.1098 59.4888 65.7747 60.2031 65.9697 61.0938V61.0967C65.97 61.098 65.9712 61.0996 65.9717 61.1016C65.9725 61.1055 65.9732 61.1108 65.9746 61.1172C65.9774 61.1302 65.9816 61.1485 65.9863 61.1709C65.9958 61.216 66.0088 61.2797 66.0244 61.3574C66.0556 61.5124 66.0975 61.7285 66.1406 61.9756C66.2212 62.4371 66.3285 63.1278 66.3506 63.7383L66.3564 64.043C66.4073 70.2146 61.1993 74.9749 55.2979 75.1572L54.7148 75.1602C48.662 75.0363 43.2765 70.228 43.5068 63.8096L43.5371 63.3428C43.5797 62.8675 43.6543 62.3825 43.7139 62.0273C43.7564 61.7737 43.7974 61.5507 43.8281 61.3906C43.8436 61.3103 43.8569 61.2446 43.8662 61.1982C43.8709 61.175 43.8742 61.1559 43.877 61.1426C43.8783 61.1361 43.88 61.1309 43.8809 61.127C43.8813 61.125 43.8816 61.1234 43.8818 61.1221V61.1191L43.9287 60.9336C44.1924 60.0209 44.9546 59.3297 45.9014 59.165C46.3638 59.0846 46.8271 59.1382 47.2451 59.3027C47.2635 58.7028 47.3163 58.1558 47.4287 57.5957C47.5705 56.8895 47.7901 56.2497 48.041 55.5703L48.2363 55.082C48.7106 53.99 49.2944 53.2289 49.8057 52.6074C50.3887 51.8987 50.7527 51.5011 51.123 50.8379L51.416 50.291C51.7185 49.7063 52.0446 49.0236 52.3271 48.4121C52.5115 48.0131 52.6703 47.6591 52.7832 47.4053C52.8395 47.2788 52.8838 47.1774 52.9141 47.1084C52.9292 47.074 52.9416 47.0477 52.9492 47.0303C52.953 47.0216 52.9553 47.0148 52.957 47.0107C52.9578 47.009 52.9586 47.0077 52.959 47.0068V47.0059L53.0439 46.8291C53.5006 45.9669 54.4235 45.4432 55.4092 45.5049Z" fill="#FFBA17" stroke="white" stroke-width="5" stroke-linejoin="round"/>
<g filter="url(#filter0_i_264_350)">
<path d="M46.0053 64.2371C46.0362 63.3765 46.3298 61.9658 46.3298 61.9658C46.3298 61.9658 48.0756 64.8162 49.4124 64.2371C50.8007 63.6358 49.7369 61.694 49.7369 60.1811C49.7369 58.7312 49.9017 58.0851 50.3858 56.7741C51.1075 54.8199 52.2908 54.2125 53.3062 52.3936C54.1502 50.8816 55.2531 48.3376 55.2531 48.3376C55.2531 48.3376 56.3081 51.9523 56.2265 54.3405C56.1592 56.3107 54.1116 57.6605 55.2531 59.2077C55.5999 59.6777 55.8113 60.0932 56.3887 60.1811C57.1909 60.3032 57.4327 59.4432 58.0112 58.8832C58.8545 58.0668 59.958 56.7741 59.958 56.7741C59.958 56.7741 59.213 58.942 59.1468 60.5056C59.0807 62.0692 59.6336 64.5616 59.6336 64.5616C61.1003 64.3704 63.5273 61.9658 63.5273 61.9658C63.5273 61.9658 63.8207 63.3054 63.8518 64.166C64.0304 69.11 59.7125 73.0991 54.7663 72.9981C49.9211 72.8992 45.8315 69.0802 46.0053 64.2371Z" fill="#FFBA17"/>
</g>
<path d="M47.1816 61.443L47.1953 61.4635C47.2057 61.48 47.2223 61.5055 47.2441 61.5387C47.2882 61.606 47.3542 61.7044 47.4375 61.821C47.6062 62.0569 47.8372 62.3562 48.0977 62.6325C48.3669 62.9181 48.6225 63.1311 48.834 63.2428C48.9404 63.299 48.9994 63.3109 49.0244 63.3131C49.0988 63.2795 49.0928 63.2674 49.0986 63.2497C49.1242 63.1719 49.1432 63.0034 49.1025 62.6735C49.0619 62.3437 48.9852 62.0027 48.8994 61.5583C48.8203 61.1486 48.7373 60.6625 48.7373 60.1813C48.7373 59.4173 48.7803 58.8216 48.8994 58.2282C49.0172 57.6419 49.2027 57.0923 49.4482 56.4274L49.6104 56.0211C50.004 55.1131 50.4901 54.474 50.9639 53.8981C51.5049 53.2404 51.9798 52.717 52.4326 51.9059L52.7451 51.3229C53.0658 50.7033 53.4039 49.9955 53.6885 49.3795C53.8766 48.9723 54.0392 48.611 54.1543 48.3522C54.2117 48.2232 54.2569 48.1195 54.2881 48.0485C54.3037 48.0129 54.3162 47.9848 54.3242 47.9665C54.3281 47.9575 54.3311 47.9504 54.333 47.946C54.3339 47.9438 54.3345 47.9421 54.335 47.9411L54.3359 47.9401L54.4082 47.8024C54.6012 47.4976 54.9473 47.3165 55.3154 47.3395C55.7359 47.3658 56.0948 47.6529 56.2129 48.0573V48.0583L56.2139 48.0592V48.0612C56.2145 48.0634 56.2157 48.067 56.2168 48.071C56.2191 48.0789 56.2224 48.0905 56.2266 48.1051C56.2349 48.1343 56.2468 48.1763 56.2617 48.2301C56.2917 48.3383 56.3345 48.4943 56.3848 48.6881C56.4853 49.0755 56.6184 49.6176 56.749 50.237C56.9735 51.3013 57.2044 52.6589 57.2285 53.8669L57.2256 54.3747C57.1825 55.6353 56.4913 56.7406 56.1855 57.3698C56.0062 57.7388 55.9259 57.9758 55.9102 58.1579C55.8986 58.2908 55.9171 58.4234 56.0576 58.6139L56.1934 58.8024C56.2353 58.8615 56.2697 58.9101 56.3037 58.9567C56.372 59.0504 56.4167 59.1047 56.4521 59.1413C56.4683 59.1579 56.4807 59.1675 56.4883 59.1735C56.4988 59.1625 56.5131 59.1509 56.5273 59.1344C56.6112 59.0373 56.6834 58.9324 56.8223 58.7448C56.9447 58.5794 57.1087 58.3649 57.3154 58.1647L57.623 57.8581C57.9393 57.5344 58.2736 57.1708 58.5566 56.8551C58.7434 56.6469 58.9044 56.4628 59.0186 56.3317C59.0754 56.2664 59.1207 56.214 59.1514 56.1784C59.1666 56.1607 59.1787 56.1474 59.1865 56.1383C59.1904 56.1338 59.1934 56.1298 59.1953 56.1276C59.1961 56.1267 59.1969 56.1261 59.1973 56.1256V56.1247L59.2588 56.0592C59.5752 55.7493 60.0632 55.6827 60.4541 55.9059C60.8449 56.1292 61.035 56.5833 60.9287 57.0133L60.9033 57.0993C60.9031 57.0999 60.9028 57.1008 60.9023 57.1022C60.9013 57.1054 60.8998 57.1107 60.8975 57.1178C60.8927 57.1319 60.8854 57.1536 60.876 57.1823C60.857 57.24 60.8286 57.326 60.7949 57.4342C60.7274 57.6512 60.6367 57.9568 60.5439 58.3083C60.354 59.0284 60.1739 59.8768 60.1455 60.5475C60.1169 61.2233 60.2251 62.1547 60.3535 62.9635C60.3658 63.041 60.3793 63.1166 60.3916 63.1901C60.7592 62.9731 61.1467 62.6951 61.5098 62.4079C61.8815 62.1138 62.2125 61.8228 62.4512 61.6051C62.57 61.4968 62.6651 61.4078 62.7295 61.3463C62.7617 61.3156 62.7858 61.2916 62.8018 61.276C62.8096 61.2684 62.8157 61.263 62.8193 61.2594L62.8232 61.2555C63.0823 60.9989 63.4608 60.9032 63.8105 61.0065C64.1602 61.1098 64.4258 61.3955 64.5039 61.7516V61.7526L64.5049 61.7536C64.5051 61.7545 64.5055 61.7559 64.5059 61.7575C64.5065 61.7606 64.5066 61.7656 64.5078 61.7711C64.5102 61.7824 64.5143 61.7987 64.5186 61.819C64.5272 61.8599 64.5391 61.9184 64.5537 61.9909C64.583 62.1362 64.6227 62.3395 64.6631 62.571C64.7416 63.0209 64.8334 63.6273 64.8516 64.1295L64.8555 64.6491C64.7526 69.8045 60.3358 73.8378 55.2559 73.9948L54.7461 73.9977C49.4177 73.8889 44.8094 69.6741 45.0059 64.2008L45.0322 63.8073C45.069 63.3996 45.1348 62.962 45.1934 62.6129C45.2336 62.3734 45.2727 62.1618 45.3018 62.0104C45.3163 61.9348 45.3284 61.8733 45.3369 61.8307C45.3412 61.8095 45.3443 61.7925 45.3467 61.7809C45.3478 61.7752 45.349 61.7704 45.3496 61.7672C45.3499 61.7658 45.3504 61.7642 45.3506 61.7633V61.7624L45.3926 61.6159C45.5153 61.2868 45.8048 61.0417 46.1582 60.9801C46.5621 60.9099 46.9684 61.0936 47.1826 61.443H47.1816Z" stroke="black" stroke-width="2" stroke-linejoin="round"/>
<path d="M44.374 2.50488C45.4253 2.57071 46.323 3.28866 46.6182 4.2998V4.30176C46.6184 4.30256 46.6188 4.30366 46.6191 4.30469C46.6198 4.30713 46.621 4.31083 46.6221 4.31445C46.6241 4.32163 46.6266 4.33116 46.6299 4.34277C46.6366 4.36631 46.646 4.39888 46.6572 4.43945C46.6798 4.52084 46.7115 4.63547 46.748 4.77637C46.8209 5.05711 46.9169 5.44962 47.0117 5.89941C47.1404 6.50965 47.2888 7.33553 47.3477 8.16992C47.7814 8.16414 48.2205 8.27049 48.6191 8.49805C49.6608 9.09286 50.1333 10.3439 49.7451 11.4785L49.7432 11.4834C49.7413 11.489 49.7383 11.4997 49.7334 11.5146C49.7234 11.5451 49.707 11.5937 49.6875 11.6562C49.6871 11.6576 49.686 11.6588 49.6855 11.6602C49.9522 11.6502 50.2225 11.6828 50.4863 11.7607C51.3607 12.019 52.0256 12.7325 52.2207 13.623L49.7783 14.1582L52.2207 13.624V13.626C52.2209 13.627 52.2214 13.6285 52.2217 13.6299C52.2224 13.6331 52.2235 13.6377 52.2246 13.6426C52.2267 13.6524 52.23 13.6654 52.2334 13.6816C52.2403 13.7142 52.2497 13.7594 52.2607 13.8145C52.2828 13.9238 52.3123 14.0765 52.3428 14.251C52.398 14.5674 52.4782 15.0777 52.4951 15.5469L52.499 16.002C52.4113 20.5252 48.5685 23.9364 44.2715 24.0693L43.8398 24.0713C39.376 23.9801 35.3315 20.4248 35.5049 15.5947L35.5283 15.2412C35.5601 14.8849 35.6147 14.533 35.6553 14.291C35.6852 14.1128 35.7138 13.9561 35.7354 13.8438C35.7462 13.7875 35.7551 13.7412 35.7617 13.708C35.765 13.6915 35.7685 13.6778 35.7705 13.668C35.7715 13.663 35.7718 13.6584 35.7725 13.6553C35.7728 13.6538 35.7732 13.6525 35.7734 13.6514V13.6504L35.7744 13.6494C35.7816 13.6508 35.9072 13.6765 38.1094 14.1348L35.7744 13.6484C35.9834 12.6451 36.7833 11.8711 37.793 11.6953C37.8925 11.678 37.9926 11.6673 38.0918 11.6621C38.1096 11.5379 38.1309 11.4132 38.1562 11.2871C38.2647 10.7471 38.4311 10.268 38.6025 9.80371L38.752 9.42969C39.1147 8.59563 39.5598 8.01765 39.9238 7.5752C40.3388 7.07078 40.5227 6.87206 40.7266 6.50684L40.9121 6.16016C41.1054 5.78634 41.3181 5.34208 41.5068 4.93359C41.6288 4.66965 41.7349 4.43449 41.8096 4.2666C41.8467 4.18311 41.8757 4.11638 41.8955 4.07129C41.9054 4.04872 41.9131 4.03165 41.918 4.02051C41.9202 4.0153 41.9218 4.01131 41.9229 4.00879L41.9238 4.00586C42.3427 3.0395 43.3228 2.43917 44.374 2.50488Z" fill="#FFBA17" stroke="white" stroke-width="5" stroke-linejoin="round"/>
<g filter="url(#filter1_i_264_350)">
<path d="M38.0036 15.6845C38.0243 15.1062 38.2216 14.1582 38.2216 14.1582C38.2216 14.1582 39.3948 16.0737 40.2931 15.6845C41.2261 15.2804 40.5112 13.9756 40.5112 12.9589C40.5112 11.9845 40.6219 11.5503 40.9473 10.6693C41.4322 9.35617 42.2274 8.94793 42.9097 7.72564C43.477 6.70958 44.2181 5 44.2181 5C44.2181 5 44.927 7.42913 44.8722 9.03395C44.827 10.3579 43.451 11.265 44.2181 12.3047C44.4511 12.6206 44.5932 12.8998 44.9812 12.9589C45.5203 13.0409 45.6827 12.463 46.0715 12.0867C46.6382 11.5381 47.3798 10.6693 47.3798 10.6693C47.3798 10.6693 46.8791 12.1262 46.8347 13.1769C46.7902 14.2277 47.1617 15.9026 47.1617 15.9026C48.1474 15.7741 49.7784 14.1582 49.7784 14.1582C49.7784 14.1582 49.9755 15.0584 49.9964 15.6367C50.1164 18.9591 47.2148 21.6398 43.891 21.5719C40.635 21.5054 37.8868 18.9391 38.0036 15.6845Z" fill="#FFBA17"/>
</g>
<path d="M44.2803 4.00195C44.7007 4.02828 45.0596 4.31535 45.1777 4.71973V4.7207H45.1787V4.72266C45.1792 4.72425 45.1799 4.72685 45.1807 4.72949C45.1823 4.73518 45.1846 4.74373 45.1875 4.75391C45.1933 4.77426 45.2016 4.80372 45.2119 4.84082C45.2325 4.91509 45.2616 5.02134 45.2959 5.15332C45.3644 5.4173 45.4549 5.7867 45.5439 6.20898C45.6957 6.92835 45.8574 7.86592 45.874 8.71191L45.8721 9.06836C45.84 10.0058 45.3215 10.8386 45.1396 11.2129C45.0222 11.4545 44.9915 11.5688 44.9863 11.6279C44.9853 11.6378 44.9762 11.6482 45.0225 11.7109L45.0479 11.7461C45.1295 11.6378 45.2396 11.5002 45.376 11.3682L45.7871 10.9482C45.9276 10.7989 46.0674 10.6454 46.1934 10.5049C46.3175 10.3664 46.4251 10.2444 46.501 10.1572C46.5389 10.1137 46.5685 10.0783 46.5889 10.0547C46.599 10.0429 46.6072 10.0342 46.6123 10.0283C46.6148 10.0254 46.617 10.0229 46.6182 10.0215L46.6191 10.0205L46.6797 9.95508C46.9961 9.64453 47.4848 9.57742 47.876 9.80078C48.267 10.0242 48.4572 10.4789 48.3506 10.9092L48.3252 10.9941V10.9961C48.3246 10.9979 48.3236 11.0009 48.3223 11.0049C48.3193 11.0137 48.3147 11.0282 48.3086 11.0469C48.2963 11.0842 48.2779 11.1402 48.2559 11.2109C48.2116 11.3532 48.1516 11.5536 48.0908 11.7842C47.9961 12.1431 47.9084 12.5379 47.8633 12.8877L47.834 13.2188C47.8201 13.548 47.8583 13.9878 47.917 14.4229C48.0173 14.3505 48.1198 14.2765 48.2188 14.1982C48.4608 14.0068 48.6775 13.8166 48.834 13.6738C48.9117 13.6029 48.974 13.5447 49.0156 13.5049C49.0364 13.485 49.0525 13.4697 49.0625 13.46L49.0752 13.4473C49.3342 13.191 49.7121 13.096 50.0615 13.1992C50.4113 13.3025 50.6769 13.5881 50.7549 13.9443L50.7559 13.9453C50.756 13.946 50.7556 13.9473 50.7559 13.9482C50.7564 13.9505 50.757 13.9541 50.7578 13.958C50.7595 13.9659 50.7626 13.9771 50.7656 13.9912C50.7716 14.0197 50.78 14.0604 50.79 14.1104C50.8101 14.2102 50.8365 14.3498 50.8643 14.5088C50.9175 14.8137 50.983 15.2394 50.9961 15.6006L50.999 15.9688C50.9265 19.623 47.8015 22.4588 44.2295 22.5693L43.8701 22.5713C40.1312 22.4947 36.8645 19.533 37.0039 15.6484L37.0225 15.3682C37.0484 15.0794 37.0942 14.775 37.1338 14.5391C37.1613 14.3752 37.1881 14.2306 37.208 14.127C37.218 14.075 37.2265 14.0324 37.2324 14.0029C37.2353 13.9884 37.2376 13.9769 37.2393 13.9688C37.2401 13.9647 37.2417 13.9613 37.2422 13.959V13.9541L37.2852 13.8086C37.4079 13.4794 37.6973 13.2343 38.0508 13.1729C38.4041 13.1116 38.7588 13.2444 38.9854 13.5127L39.0742 13.6357C39.0753 13.6374 39.0772 13.6409 39.0801 13.6455C39.0862 13.6552 39.0967 13.6706 39.1104 13.6914C39.1379 13.7335 39.1794 13.7959 39.2324 13.8701C39.3406 14.0214 39.4869 14.2095 39.6484 14.3809C39.6738 14.4077 39.6996 14.4322 39.7236 14.4561C39.6977 14.3116 39.6655 14.151 39.626 13.9463C39.5725 13.6692 39.5108 13.3161 39.5107 12.959C39.5107 12.4328 39.5412 12.0093 39.627 11.582C39.7113 11.162 39.8427 10.773 40.0088 10.3232L40.126 10.0322C40.4081 9.3818 40.7555 8.92527 41.082 8.52832C41.4548 8.07523 41.7499 7.75091 42.0361 7.23828L42.2422 6.85449C42.4538 6.44568 42.6783 5.97551 42.8691 5.5625C42.9947 5.29074 43.1028 5.04978 43.1797 4.87695C43.2181 4.7906 43.2488 4.72114 43.2695 4.67383C43.2798 4.65034 43.2877 4.63223 43.293 4.62012C43.2956 4.61414 43.2975 4.6094 43.2988 4.60645C43.2993 4.60531 43.2995 4.60418 43.2998 4.60352L43.3008 4.60254L43.373 4.46484C43.566 4.16003 43.9122 3.97901 44.2803 4.00195Z" stroke="black" stroke-width="2" stroke-linejoin="round"/>
<path d="M82.9268 17.5049C83.982 17.5703 84.8823 18.2926 85.1748 19.3086V19.3096L85.1758 19.3105C85.1761 19.3115 85.1764 19.3131 85.1768 19.3145C85.1775 19.3172 85.1785 19.3211 85.1797 19.3252C85.1821 19.3335 85.1856 19.3446 85.1895 19.3584C85.1974 19.3867 85.2081 19.4268 85.2217 19.4766C85.249 19.5764 85.2873 19.718 85.332 19.8926C85.4211 20.2405 85.5384 20.727 85.6543 21.2842C85.8512 22.2307 86.0767 23.5466 86.0908 24.7656C86.7016 24.6057 87.3689 24.6772 87.9521 25.0059C88.9991 25.5961 89.4786 26.8481 89.0928 27.9863V27.9844C89.0924 27.9854 89.0912 27.988 89.0898 27.9922C89.087 28.0008 89.0829 28.0163 89.0762 28.0371C89.0626 28.0789 89.0411 28.1435 89.0156 28.2266C88.9642 28.3939 88.8949 28.6309 88.8242 28.9023C88.7884 29.0401 88.7545 29.1782 88.7236 29.3135C89.2525 29.0829 89.8546 29.0373 90.4268 29.2051C91.3056 29.4629 91.9735 30.1809 92.167 31.0762L89.7227 31.6045L92.167 31.0771V31.0791L92.1709 31.0986C92.1734 31.1102 92.1766 31.126 92.1807 31.1455C92.1888 31.1848 92.2005 31.2394 92.2139 31.3066C92.2405 31.4407 92.2767 31.628 92.3135 31.8418C92.3816 32.2374 92.4747 32.8446 92.4941 33.3887L92.498 33.9248C92.3946 39.241 87.9224 43.3358 82.8242 43.4951L82.3115 43.498C77.0008 43.3879 72.3054 39.1169 72.5059 33.4502L72.5322 33.0361C72.5692 32.6162 72.6343 32.1926 72.6846 31.8887C72.7209 31.6693 72.756 31.4762 72.7822 31.3379C72.7954 31.2684 72.8065 31.2112 72.8145 31.1709C72.8184 31.1509 72.8219 31.1347 72.8242 31.123C72.8253 31.1176 72.8255 31.1129 72.8262 31.1094C72.8265 31.1076 72.8269 31.1057 72.8271 31.1045L72.8281 31.1025V31.1016L72.874 30.915C73.1366 29.9985 73.902 29.3044 74.8525 29.1406C75.1286 29.0931 75.4051 29.094 75.6719 29.1367C75.7471 28.1013 75.9589 27.3603 76.335 26.3281L76.5078 25.8926C76.9251 24.9193 77.4377 24.2414 77.877 23.7002C78.3769 23.0842 78.656 22.7769 78.9473 22.248L79.1885 21.792C79.4384 21.3023 79.7093 20.7269 79.9463 20.207C80.1003 19.8692 80.2328 19.5694 80.3271 19.3545C80.3742 19.2472 80.4113 19.1608 80.4365 19.1025C80.4491 19.0735 80.4596 19.0517 80.4658 19.0371C80.4689 19.0299 80.4712 19.0239 80.4727 19.0205C80.4732 19.0192 80.4734 19.0182 80.4736 19.0176V19.0166L80.5586 18.8389C81.0129 17.9719 81.9377 17.4438 82.9268 17.5049Z" fill="#FFBA17" stroke="white" stroke-width="5" stroke-linejoin="round"/>
<g filter="url(#filter2_i_264_350)">
<path d="M75.0045 33.5384C75.0304 32.8057 75.2771 31.6044 75.2771 31.6044C75.2771 31.6044 76.7435 34.0315 77.8664 33.5384C79.0326 33.0264 78.139 31.373 78.139 30.0848C78.139 28.8501 78.2774 28.3 78.6841 27.1837C79.2903 25.5197 80.2843 25.0025 81.1372 23.4537C81.8462 22.1662 82.7726 20 82.7726 20C82.7726 20 83.6588 23.078 83.5903 25.1115C83.5337 26.7891 81.8137 27.9384 82.7726 29.2559C83.0639 29.6561 83.2415 30.0099 83.7265 30.0848C84.4004 30.1887 84.6034 29.4564 85.0894 28.9796C85.7978 28.2844 86.7248 27.1837 86.7248 27.1837C86.7248 27.1837 86.0989 29.0296 86.0433 30.3611C85.9878 31.6925 86.4522 33.8147 86.4522 33.8147C87.6842 33.6519 89.723 31.6044 89.723 31.6044C89.723 31.6044 89.9694 32.7451 89.9955 33.4779C90.1455 37.6876 86.5185 41.0844 82.3637 40.9984C78.2937 40.9142 74.8585 37.6623 75.0045 33.5384Z" fill="#FFBA17"/>
</g>
<path d="M82.834 19.002C83.2561 19.0281 83.6164 19.3172 83.7334 19.7236L83.7344 19.7246V19.7266C83.7349 19.7286 83.7363 19.7319 83.7373 19.7354C83.7393 19.7423 83.7416 19.7522 83.7451 19.7646C83.7522 19.7898 83.7627 19.8258 83.7754 19.8721C83.8008 19.9649 83.8364 20.0987 83.8789 20.2646C83.9637 20.596 84.0763 21.0599 84.1865 21.5898C84.3754 22.4979 84.5714 23.6644 84.5918 24.707L84.5898 25.1455C84.5523 26.2564 83.9492 27.2355 83.7021 27.751C83.553 28.0621 83.4954 28.2452 83.4844 28.374C83.4775 28.4549 83.4844 28.534 83.5811 28.667L83.6963 28.8301C83.7318 28.8808 83.7602 28.9212 83.7881 28.96C83.7939 28.9681 83.8003 28.9751 83.8057 28.9824C83.8446 28.9296 83.8941 28.8672 83.959 28.7783C84.0626 28.6364 84.2056 28.4453 84.3887 28.2656L84.6445 28.0068C84.9075 27.7339 85.1866 27.4264 85.4238 27.1582C85.58 26.9816 85.715 26.826 85.8105 26.7148C85.8582 26.6594 85.8962 26.6152 85.9219 26.585C85.9345 26.5702 85.9437 26.5584 85.9502 26.5508C85.9534 26.5469 85.9565 26.5438 85.958 26.542C85.9588 26.5411 85.9596 26.5404 85.96 26.54V26.5391L86.0205 26.4736C86.3352 26.1611 86.8233 26.0912 87.2158 26.3125C87.6346 26.5486 87.8262 27.0496 87.6719 27.5049L87.6709 27.5068C87.6701 27.5093 87.6689 27.5138 87.667 27.5195C87.6631 27.5313 87.6573 27.55 87.6494 27.5742C87.6337 27.6227 87.6101 27.6949 87.582 27.7861C87.5257 27.9694 87.4503 28.2284 87.373 28.5254C87.234 29.0599 87.1027 29.6706 87.0566 30.1875L87.042 30.4023C87.019 30.9527 87.1042 31.7151 87.209 32.3926C87.4463 32.2368 87.6903 32.0555 87.9238 31.8682C88.2324 31.6207 88.5074 31.376 88.7061 31.1924C88.8049 31.101 88.8842 31.0262 88.9375 30.9746C88.964 30.949 88.984 30.9289 88.9971 30.916L89.0146 30.8984L89.1162 30.8096C89.3669 30.6182 89.6962 30.5545 90.0039 30.6445C90.3555 30.7476 90.6228 31.0354 90.7002 31.3936L90.7012 31.3945C90.7014 31.3954 90.7009 31.3971 90.7012 31.3984C90.7018 31.4012 90.7031 31.4053 90.7041 31.4102C90.7062 31.4199 90.7093 31.4338 90.7129 31.4512C90.7202 31.4865 90.7308 31.5372 90.7432 31.5996C90.7679 31.7243 90.8008 31.8983 90.835 32.0967C90.9011 32.481 90.9795 33.0049 90.9951 33.4424L90.998 33.8916C90.9102 38.3563 87.1365 41.8599 82.7803 41.9961L82.3428 41.998C77.7765 41.9034 73.837 38.244 74.0049 33.5029L74.0273 33.1611C74.0588 32.8078 74.1147 32.4307 74.1641 32.1328C74.198 31.9277 74.2313 31.7469 74.2559 31.6172C74.2682 31.5522 74.2779 31.4996 74.2852 31.4629C74.2888 31.4446 74.2919 31.43 74.2939 31.4199C74.2949 31.415 74.2963 31.411 74.2969 31.4082C74.2971 31.4071 74.2967 31.406 74.2969 31.4053L74.2979 31.4043V31.4033L74.3398 31.2568C74.4624 30.9262 74.7524 30.6803 75.1074 30.6191C75.4622 30.5581 75.8179 30.6925 76.0439 30.9629L76.1328 31.0869L76.1338 31.0879C76.1354 31.0904 76.1384 31.0959 76.1426 31.1025C76.1509 31.1159 76.1638 31.1374 76.1816 31.165C76.2177 31.2209 76.2722 31.3021 76.3408 31.3994C76.4802 31.5971 76.6702 31.8466 76.8828 32.0752C77.1041 32.3132 77.3051 32.4795 77.46 32.5625L77.4619 32.5635C77.4665 32.4945 77.467 32.3864 77.4473 32.2236C77.4139 31.9489 77.3514 31.667 77.2783 31.2832C77.2117 30.9336 77.1387 30.5086 77.1387 30.085C77.1387 28.7072 77.3079 28.0394 77.7441 26.8418L77.8848 26.4873C78.2229 25.6969 78.6402 25.1406 79.042 24.6455C79.5005 24.0806 79.8893 23.6478 80.2617 22.9717L80.5215 22.4785C80.7893 21.9541 81.0716 21.3533 81.3105 20.8291C81.4682 20.4832 81.6047 20.1769 81.7012 19.957C81.7494 19.8471 81.7874 19.7586 81.8135 19.6982C81.8265 19.6682 81.8371 19.6454 81.8438 19.6299C81.847 19.6223 81.8489 19.6161 81.8506 19.6123C81.8513 19.6107 81.8522 19.6093 81.8525 19.6084L81.8535 19.6074V19.6064L81.9258 19.4678C82.1181 19.1616 82.4649 18.9792 82.834 19.002Z" stroke="black" stroke-width="2" stroke-linejoin="round"/>
<mask id="path-10-outside-1_264_350" maskUnits="userSpaceOnUse" x="-1" y="3" width="92" height="65" fill="black">
<rect fill="white" x="-1" y="3" width="92" height="65"/>
<path d="M10.0833 52.9537C10.0833 52.9537 9.1298 54.1636 9.57495 54.7329C9.94689 55.2084 11.0999 54.987 11.0999 54.987L18.979 51.4287L19.4873 53.2079L21.7748 55.7495L23.8081 56.0037L24.5706 55.2412L21.0123 52.9537V50.4121C21.0123 50.4121 26.4035 48.6855 29.6539 47.1079C32.3343 45.807 36.2622 43.2955 36.2622 43.2955L39.058 47.6163L39.3121 52.6995L35.2455 54.2245L31.6872 51.4287L26.0956 54.4787L27.6206 54.987L32.1955 52.9537L35.2455 56.7662L41.0913 52.9537V49.9037L44.6496 54.2245L45.6662 53.7162L38.2955 42.7872C38.2955 42.7872 42.4343 40.7794 45.4121 39.7372C48.3898 38.695 53.5453 37.4497 53.5453 37.4497L49.987 32.1123L51.2578 30.3331C51.2578 30.3331 50.9976 29.8188 50.7495 29.5706C50.5014 29.3225 49.987 29.0623 49.987 29.0623L42.8704 32.6206L39.058 31.3498L37.0247 28.554L31.6872 22.454L30.4164 18.8957L29.1456 16.8624V14.3208L29.6539 12.5416L28.3831 14.8291L28.8914 17.8791L30.1622 19.6582L30.4164 21.4374L25.8414 18.3874L19.4873 14.0666L23.8081 18.8957L29.6539 22.9624L34.2288 27.2831L24.5706 26.7748C24.5706 26.7748 22.3713 25.9124 21.0123 25.2498C19.3745 24.4513 16.9457 22.9624 16.9457 22.9624C16.9457 22.9624 18.2192 25.1204 19.4873 26.0123C20.5428 26.7547 22.5373 27.2831 22.5373 27.2831C22.5373 27.2831 18.8704 28.5912 16.4374 28.554C15.0338 28.5325 12.8791 28.0456 12.8791 28.0456L15.1666 29.5706H18.4707L23.8081 28.0456C23.8081 28.0456 25.662 28.3883 26.8581 28.554C29.2259 28.8819 32.958 29.0623 32.958 29.0623L35.7538 31.3498L40.3288 34.1456L27.8748 41.5163L23.8081 39.2289C23.8081 39.2289 20.2724 38.3067 17.9624 37.958C15.6965 37.6161 12.1166 37.4497 12.1166 37.4497L5 33.6372L11.6083 38.7205L16.4374 39.9913L12.1166 41.5163L9.57495 40.4997H6.01666L8.04997 41.008L11.0999 42.2788C11.0999 42.2788 12.0294 42.6879 12.6249 42.7872C13.2205 42.8864 13.597 43.0083 14.1499 42.7872C15.4207 42.2788 17.7082 40.4997 17.7082 40.4997H21.0123L25.8414 42.7872L10.0833 52.9537Z"/>
<path d="M63.8994 61.3578C63.8994 61.3578 61.8729 61.4945 61.3578 60.5953C61.1543 60.2402 61.1036 59.5786 61.1036 59.5786C61.1036 59.5786 64.1536 58.562 64.9161 52.7162C66.1062 43.592 55.512 31.1123 55.512 31.1123L58.3078 32.3831L57.5453 29.3331L54.7495 26.5373L56.0203 26.2831L54.7495 23.7415L58.8161 25.0123L58.3078 22.4707L62.1203 29.079L65.6785 33.1456L68.7285 37.9747L69.9993 39.7538C69.9993 39.7538 70.175 33.9129 69.2368 30.3498C68.6689 28.1928 67.2035 25.0123 67.2035 25.0123L64.6619 13.3208L66.6952 17.1332L64.9161 9L67.7119 17.3874L68.7285 21.9624L69.9993 15.8624L70.2535 22.7249C70.2535 22.7249 73.2503 31.7037 73.8118 36.1955C74.8284 44.3288 74.2895 47.4049 77.8784 53.2245C80.1637 56.9303 85.5033 61.3578 85.5033 61.3578C85.5033 61.3578 85.9364 62.1551 85.7575 62.6286C85.4418 63.4643 83.47 62.6286 83.47 62.6286C83.47 62.6286 77.4453 59.7429 73.3035 59.5786C69.5687 59.4305 63.8994 61.3578 63.8994 61.3578Z"/>
</mask>
<path d="M10.0833 52.9537C10.0833 52.9537 9.1298 54.1636 9.57495 54.7329C9.94689 55.2084 11.0999 54.987 11.0999 54.987L18.979 51.4287L19.4873 53.2079L21.7748 55.7495L23.8081 56.0037L24.5706 55.2412L21.0123 52.9537V50.4121C21.0123 50.4121 26.4035 48.6855 29.6539 47.1079C32.3343 45.807 36.2622 43.2955 36.2622 43.2955L39.058 47.6163L39.3121 52.6995L35.2455 54.2245L31.6872 51.4287L26.0956 54.4787L27.6206 54.987L32.1955 52.9537L35.2455 56.7662L41.0913 52.9537V49.9037L44.6496 54.2245L45.6662 53.7162L38.2955 42.7872C38.2955 42.7872 42.4343 40.7794 45.4121 39.7372C48.3898 38.695 53.5453 37.4497 53.5453 37.4497L49.987 32.1123L51.2578 30.3331C51.2578 30.3331 50.9976 29.8188 50.7495 29.5706C50.5014 29.3225 49.987 29.0623 49.987 29.0623L42.8704 32.6206L39.058 31.3498L37.0247 28.554L31.6872 22.454L30.4164 18.8957L29.1456 16.8624V14.3208L29.6539 12.5416L28.3831 14.8291L28.8914 17.8791L30.1622 19.6582L30.4164 21.4374L25.8414 18.3874L19.4873 14.0666L23.8081 18.8957L29.6539 22.9624L34.2288 27.2831L24.5706 26.7748C24.5706 26.7748 22.3713 25.9124 21.0123 25.2498C19.3745 24.4513 16.9457 22.9624 16.9457 22.9624C16.9457 22.9624 18.2192 25.1204 19.4873 26.0123C20.5428 26.7547 22.5373 27.2831 22.5373 27.2831C22.5373 27.2831 18.8704 28.5912 16.4374 28.554C15.0338 28.5325 12.8791 28.0456 12.8791 28.0456L15.1666 29.5706H18.4707L23.8081 28.0456C23.8081 28.0456 25.662 28.3883 26.8581 28.554C29.2259 28.8819 32.958 29.0623 32.958 29.0623L35.7538 31.3498L40.3288 34.1456L27.8748 41.5163L23.8081 39.2289C23.8081 39.2289 20.2724 38.3067 17.9624 37.958C15.6965 37.6161 12.1166 37.4497 12.1166 37.4497L5 33.6372L11.6083 38.7205L16.4374 39.9913L12.1166 41.5163L9.57495 40.4997H6.01666L8.04997 41.008L11.0999 42.2788C11.0999 42.2788 12.0294 42.6879 12.6249 42.7872C13.2205 42.8864 13.597 43.0083 14.1499 42.7872C15.4207 42.2788 17.7082 40.4997 17.7082 40.4997H21.0123L25.8414 42.7872L10.0833 52.9537Z" fill="#B35D0A"/>
<path d="M63.8994 61.3578C63.8994 61.3578 61.8729 61.4945 61.3578 60.5953C61.1543 60.2402 61.1036 59.5786 61.1036 59.5786C61.1036 59.5786 64.1536 58.562 64.9161 52.7162C66.1062 43.592 55.512 31.1123 55.512 31.1123L58.3078 32.3831L57.5453 29.3331L54.7495 26.5373L56.0203 26.2831L54.7495 23.7415L58.8161 25.0123L58.3078 22.4707L62.1203 29.079L65.6785 33.1456L68.7285 37.9747L69.9993 39.7538C69.9993 39.7538 70.175 33.9129 69.2368 30.3498C68.6689 28.1928 67.2035 25.0123 67.2035 25.0123L64.6619 13.3208L66.6952 17.1332L64.9161 9L67.7119 17.3874L68.7285 21.9624L69.9993 15.8624L70.2535 22.7249C70.2535 22.7249 73.2503 31.7037 73.8118 36.1955C74.8284 44.3288 74.2895 47.4049 77.8784 53.2245C80.1637 56.9303 85.5033 61.3578 85.5033 61.3578C85.5033 61.3578 85.9364 62.1551 85.7575 62.6286C85.4418 63.4643 83.47 62.6286 83.47 62.6286C83.47 62.6286 77.4453 59.7429 73.3035 59.5786C69.5687 59.4305 63.8994 61.3578 63.8994 61.3578Z" fill="#B35D0A"/>
<path d="M10.0833 52.9537C10.0833 52.9537 9.1298 54.1636 9.57495 54.7329C9.94689 55.2084 11.0999 54.987 11.0999 54.987L18.979 51.4287L19.4873 53.2079L21.7748 55.7495L23.8081 56.0037L24.5706 55.2412L21.0123 52.9537V50.4121C21.0123 50.4121 26.4035 48.6855 29.6539 47.1079C32.3343 45.807 36.2622 43.2955 36.2622 43.2955L39.058 47.6163L39.3121 52.6995L35.2455 54.2245L31.6872 51.4287L26.0956 54.4787L27.6206 54.987L32.1955 52.9537L35.2455 56.7662L41.0913 52.9537V49.9037L44.6496 54.2245L45.6662 53.7162L38.2955 42.7872C38.2955 42.7872 42.4343 40.7794 45.4121 39.7372C48.3898 38.695 53.5453 37.4497 53.5453 37.4497L49.987 32.1123L51.2578 30.3331C51.2578 30.3331 50.9976 29.8188 50.7495 29.5706C50.5014 29.3225 49.987 29.0623 49.987 29.0623L42.8704 32.6206L39.058 31.3498L37.0247 28.554L31.6872 22.454L30.4164 18.8957L29.1456 16.8624V14.3208L29.6539 12.5416L28.3831 14.8291L28.8914 17.8791L30.1622 19.6582L30.4164 21.4374L25.8414 18.3874L19.4873 14.0666L23.8081 18.8957L29.6539 22.9624L34.2288 27.2831L24.5706 26.7748C24.5706 26.7748 22.3713 25.9124 21.0123 25.2498C19.3745 24.4513 16.9457 22.9624 16.9457 22.9624C16.9457 22.9624 18.2192 25.1204 19.4873 26.0123C20.5428 26.7547 22.5373 27.2831 22.5373 27.2831C22.5373 27.2831 18.8704 28.5912 16.4374 28.554C15.0338 28.5325 12.8791 28.0456 12.8791 28.0456L15.1666 29.5706H18.4707L23.8081 28.0456C23.8081 28.0456 25.662 28.3883 26.8581 28.554C29.2259 28.8819 32.958 29.0623 32.958 29.0623L35.7538 31.3498L40.3288 34.1456L27.8748 41.5163L23.8081 39.2289C23.8081 39.2289 20.2724 38.3067 17.9624 37.958C15.6965 37.6161 12.1166 37.4497 12.1166 37.4497L5 33.6372L11.6083 38.7205L16.4374 39.9913L12.1166 41.5163L9.57495 40.4997H6.01666L8.04997 41.008L11.0999 42.2788C11.0999 42.2788 12.0294 42.6879 12.6249 42.7872C13.2205 42.8864 13.597 43.0083 14.1499 42.7872C15.4207 42.2788 17.7082 40.4997 17.7082 40.4997H21.0123L25.8414 42.7872L10.0833 52.9537Z" stroke="white" stroke-width="10" stroke-linecap="round" stroke-linejoin="round" mask="url(#path-10-outside-1_264_350)"/>
<path d="M63.8994 61.3578C63.8994 61.3578 61.8729 61.4945 61.3578 60.5953C61.1543 60.2402 61.1036 59.5786 61.1036 59.5786C61.1036 59.5786 64.1536 58.562 64.9161 52.7162C66.1062 43.592 55.512 31.1123 55.512 31.1123L58.3078 32.3831L57.5453 29.3331L54.7495 26.5373L56.0203 26.2831L54.7495 23.7415L58.8161 25.0123L58.3078 22.4707L62.1203 29.079L65.6785 33.1456L68.7285 37.9747L69.9993 39.7538C69.9993 39.7538 70.175 33.9129 69.2368 30.3498C68.6689 28.1928 67.2035 25.0123 67.2035 25.0123L64.6619 13.3208L66.6952 17.1332L64.9161 9L67.7119 17.3874L68.7285 21.9624L69.9993 15.8624L70.2535 22.7249C70.2535 22.7249 73.2503 31.7037 73.8118 36.1955C74.8284 44.3288 74.2895 47.4049 77.8784 53.2245C80.1637 56.9303 85.5033 61.3578 85.5033 61.3578C85.5033 61.3578 85.9364 62.1551 85.7575 62.6286C85.4418 63.4643 83.47 62.6286 83.47 62.6286C83.47 62.6286 77.4453 59.7429 73.3035 59.5786C69.5687 59.4305 63.8994 61.3578 63.8994 61.3578Z" stroke="white" stroke-width="10" stroke-linecap="round" stroke-linejoin="round" mask="url(#path-10-outside-1_264_350)"/>
<path d="M10.0833 52.9537C10.0833 52.9537 9.1298 54.1636 9.57495 54.7329C9.94689 55.2084 11.0999 54.987 11.0999 54.987L18.979 51.4287L19.4873 53.2079L21.7748 55.7495L23.8081 56.0037L24.5706 55.2412L21.0123 52.9537V50.4121C21.0123 50.4121 26.4035 48.6855 29.6539 47.1079C32.3343 45.807 36.2622 43.2955 36.2622 43.2955L39.058 47.6163L39.3121 52.6995L35.2455 54.2245L31.6872 51.4287L26.0956 54.4787L27.6206 54.987L32.1955 52.9537L35.2455 56.7662L41.0913 52.9537V49.9037L44.6496 54.2245L45.6662 53.7162L38.2955 42.7872C38.2955 42.7872 42.4343 40.7794 45.4121 39.7372C48.3898 38.695 53.5453 37.4497 53.5453 37.4497L49.987 32.1123L51.2578 30.3331C51.2578 30.3331 50.9976 29.8188 50.7495 29.5706C50.5014 29.3225 49.987 29.0623 49.987 29.0623L42.8704 32.6206L39.058 31.3498L37.0247 28.554L31.6872 22.454L30.4164 18.8957L29.1456 16.8624V14.3208L29.6539 12.5416L28.3831 14.8291L28.8914 17.8791L30.1622 19.6582L30.4164 21.4374L25.8414 18.3874L19.4873 14.0666L23.8081 18.8957L29.6539 22.9624L34.2288 27.2831L24.5706 26.7748C24.5706 26.7748 22.3713 25.9124 21.0123 25.2498C19.3745 24.4513 16.9457 22.9624 16.9457 22.9624C16.9457 22.9624 18.2192 25.1204 19.4873 26.0123C20.5428 26.7547 22.5373 27.2831 22.5373 27.2831C22.5373 27.2831 18.8704 28.5912 16.4374 28.554C15.0338 28.5325 12.8791 28.0456 12.8791 28.0456L15.1666 29.5706H18.4707L23.8081 28.0456C23.8081 28.0456 25.662 28.3883 26.8581 28.554C29.2259 28.8819 32.958 29.0623 32.958 29.0623L35.7538 31.3498L40.3288 34.1456L27.8748 41.5163L23.8081 39.2289C23.8081 39.2289 20.2724 38.3067 17.9624 37.958C15.6965 37.6161 12.1166 37.4497 12.1166 37.4497L5 33.6372L11.6083 38.7205L16.4374 39.9913L12.1166 41.5163L9.57495 40.4997H6.01666L8.04997 41.008L11.0999 42.2788C11.0999 42.2788 12.0294 42.6879 12.6249 42.7872C13.2205 42.8864 13.597 43.0083 14.1499 42.7872C15.4207 42.2788 17.7082 40.4997 17.7082 40.4997H21.0123L25.8414 42.7872L10.0833 52.9537Z" fill="#B35D0A"/>
<path d="M63.8994 61.3578C63.8994 61.3578 61.8729 61.4945 61.3578 60.5953C61.1543 60.2402 61.1036 59.5786 61.1036 59.5786C61.1036 59.5786 64.1536 58.562 64.9161 52.7162C66.1062 43.592 55.512 31.1123 55.512 31.1123L58.3078 32.3831L57.5453 29.3331L54.7495 26.5373L56.0203 26.2831L54.7495 23.7415L58.8161 25.0123L58.3078 22.4707L62.1203 29.079L65.6785 33.1456L68.7285 37.9747L69.9993 39.7538C69.9993 39.7538 70.175 33.9129 69.2368 30.3498C68.6689 28.1928 67.2035 25.0123 67.2035 25.0123L64.6619 13.3208L66.6952 17.1332L64.9161 9L67.7119 17.3874L68.7285 21.9624L69.9993 15.8624L70.2535 22.7249C70.2535 22.7249 73.2503 31.7037 73.8118 36.1955C74.8284 44.3288 74.2895 47.4049 77.8784 53.2245C80.1637 56.9303 85.5033 61.3578 85.5033 61.3578C85.5033 61.3578 85.9364 62.1551 85.7575 62.6286C85.4418 63.4643 83.47 62.6286 83.47 62.6286C83.47 62.6286 77.4453 59.7429 73.3035 59.5786C69.5687 59.4305 63.8994 61.3578 63.8994 61.3578Z" fill="#B35D0A"/>
<mask id="path-12-outside-2_264_350" maskUnits="userSpaceOnUse" x="2" y="6" width="86" height="59" fill="black">
<rect fill="white" x="2" y="6" width="86" height="59"/>
<path d="M10.0833 52.9537C10.0833 52.9537 9.1298 54.1636 9.57495 54.7329C9.94689 55.2084 11.0999 54.987 11.0999 54.987L18.979 51.4287L19.4873 53.2079L21.7748 55.7495L23.8081 56.0037L24.5706 55.2412L21.0123 52.9537V50.4121C21.0123 50.4121 26.4035 48.6855 29.6539 47.1079C32.3343 45.807 36.2622 43.2955 36.2622 43.2955L39.058 47.6163L39.3121 52.6995L35.2455 54.2245L31.6872 51.4287L26.0956 54.4787L27.6206 54.987L32.1955 52.9537L35.2455 56.7662L41.0913 52.9537V49.9037L44.6496 54.2245L45.6662 53.7162L38.2955 42.7872C38.2955 42.7872 42.4343 40.7794 45.4121 39.7372C48.3898 38.695 53.5453 37.4497 53.5453 37.4497L49.987 32.1123L51.2578 30.3331C51.2578 30.3331 50.9976 29.8188 50.7495 29.5706C50.5014 29.3225 49.987 29.0623 49.987 29.0623L42.8704 32.6206L39.058 31.3498L37.0247 28.554L31.6872 22.454L30.4164 18.8957L29.1456 16.8624V14.3208L29.6539 12.5416L28.3831 14.8291L28.8914 17.8791L30.1622 19.6582L30.4164 21.4374L25.8414 18.3874L19.4873 14.0666L23.8081 18.8957L29.6539 22.9624L34.2288 27.2831L24.5706 26.7748C24.5706 26.7748 22.3713 25.9124 21.0123 25.2498C19.3745 24.4513 16.9457 22.9624 16.9457 22.9624C16.9457 22.9624 18.2192 25.1204 19.4873 26.0123C20.5428 26.7547 22.5373 27.2831 22.5373 27.2831C22.5373 27.2831 18.8704 28.5912 16.4374 28.554C15.0338 28.5325 12.8791 28.0456 12.8791 28.0456L15.1666 29.5706H18.4707L23.8081 28.0456C23.8081 28.0456 25.662 28.3883 26.8581 28.554C29.2259 28.8819 32.958 29.0623 32.958 29.0623L35.7538 31.3498L40.3288 34.1456L27.8748 41.5163L23.8081 39.2289C23.8081 39.2289 20.2724 38.3067 17.9624 37.958C15.6965 37.6161 12.1166 37.4497 12.1166 37.4497L5 33.6372L11.6083 38.7205L16.4374 39.9913L12.1166 41.5163L9.57495 40.4997H6.01666L8.04997 41.008L11.0999 42.2788C11.0999 42.2788 12.0294 42.6879 12.6249 42.7872C13.2205 42.8864 13.597 43.0083 14.1499 42.7872C15.4207 42.2788 17.7082 40.4997 17.7082 40.4997H21.0123L25.8414 42.7872L10.0833 52.9537Z"/>
<path d="M63.8994 61.3578C63.8994 61.3578 61.8729 61.4945 61.3578 60.5953C61.1543 60.2402 61.1036 59.5786 61.1036 59.5786C61.1036 59.5786 64.1536 58.562 64.9161 52.7162C66.1062 43.592 55.512 31.1123 55.512 31.1123L58.3078 32.3831L57.5453 29.3331L54.7495 26.5373L56.0203 26.2831L54.7495 23.7415L58.8161 25.0123L58.3078 22.4707L62.1203 29.079L65.6785 33.1456L68.7285 37.9747L69.9993 39.7538C69.9993 39.7538 70.175 33.9129 69.2368 30.3498C68.6689 28.1928 67.2035 25.0123 67.2035 25.0123L64.6619 13.3208L66.6952 17.1332L64.9161 9L67.7119 17.3874L68.7285 21.9624L69.9993 15.8624L70.2535 22.7249C70.2535 22.7249 73.2503 31.7037 73.8118 36.1955C74.8284 44.3288 74.2895 47.4049 77.8784 53.2245C80.1637 56.9303 85.5033 61.3578 85.5033 61.3578C85.5033 61.3578 85.9364 62.1551 85.7575 62.6286C85.4418 63.4643 83.47 62.6286 83.47 62.6286C83.47 62.6286 77.4453 59.7429 73.3035 59.5786C69.5687 59.4305 63.8994 61.3578 63.8994 61.3578Z"/>
</mask>
<path d="M10.0833 52.9537C10.0833 52.9537 9.1298 54.1636 9.57495 54.7329C9.94689 55.2084 11.0999 54.987 11.0999 54.987L18.979 51.4287L19.4873 53.2079L21.7748 55.7495L23.8081 56.0037L24.5706 55.2412L21.0123 52.9537V50.4121C21.0123 50.4121 26.4035 48.6855 29.6539 47.1079C32.3343 45.807 36.2622 43.2955 36.2622 43.2955L39.058 47.6163L39.3121 52.6995L35.2455 54.2245L31.6872 51.4287L26.0956 54.4787L27.6206 54.987L32.1955 52.9537L35.2455 56.7662L41.0913 52.9537V49.9037L44.6496 54.2245L45.6662 53.7162L38.2955 42.7872C38.2955 42.7872 42.4343 40.7794 45.4121 39.7372C48.3898 38.695 53.5453 37.4497 53.5453 37.4497L49.987 32.1123L51.2578 30.3331C51.2578 30.3331 50.9976 29.8188 50.7495 29.5706C50.5014 29.3225 49.987 29.0623 49.987 29.0623L42.8704 32.6206L39.058 31.3498L37.0247 28.554L31.6872 22.454L30.4164 18.8957L29.1456 16.8624V14.3208L29.6539 12.5416L28.3831 14.8291L28.8914 17.8791L30.1622 19.6582L30.4164 21.4374L25.8414 18.3874L19.4873 14.0666L23.8081 18.8957L29.6539 22.9624L34.2288 27.2831L24.5706 26.7748C24.5706 26.7748 22.3713 25.9124 21.0123 25.2498C19.3745 24.4513 16.9457 22.9624 16.9457 22.9624C16.9457 22.9624 18.2192 25.1204 19.4873 26.0123C20.5428 26.7547 22.5373 27.2831 22.5373 27.2831C22.5373 27.2831 18.8704 28.5912 16.4374 28.554C15.0338 28.5325 12.8791 28.0456 12.8791 28.0456L15.1666 29.5706H18.4707L23.8081 28.0456C23.8081 28.0456 25.662 28.3883 26.8581 28.554C29.2259 28.8819 32.958 29.0623 32.958 29.0623L35.7538 31.3498L40.3288 34.1456L27.8748 41.5163L23.8081 39.2289C23.8081 39.2289 20.2724 38.3067 17.9624 37.958C15.6965 37.6161 12.1166 37.4497 12.1166 37.4497L5 33.6372L11.6083 38.7205L16.4374 39.9913L12.1166 41.5163L9.57495 40.4997H6.01666L8.04997 41.008L11.0999 42.2788C11.0999 42.2788 12.0294 42.6879 12.6249 42.7872C13.2205 42.8864 13.597 43.0083 14.1499 42.7872C15.4207 42.2788 17.7082 40.4997 17.7082 40.4997H21.0123L25.8414 42.7872L10.0833 52.9537Z" fill="#B35D0A"/>
<path d="M63.8994 61.3578C63.8994 61.3578 61.8729 61.4945 61.3578 60.5953C61.1543 60.2402 61.1036 59.5786 61.1036 59.5786C61.1036 59.5786 64.1536 58.562 64.9161 52.7162C66.1062 43.592 55.512 31.1123 55.512 31.1123L58.3078 32.3831L57.5453 29.3331L54.7495 26.5373L56.0203 26.2831L54.7495 23.7415L58.8161 25.0123L58.3078 22.4707L62.1203 29.079L65.6785 33.1456L68.7285 37.9747L69.9993 39.7538C69.9993 39.7538 70.175 33.9129 69.2368 30.3498C68.6689 28.1928 67.2035 25.0123 67.2035 25.0123L64.6619 13.3208L66.6952 17.1332L64.9161 9L67.7119 17.3874L68.7285 21.9624L69.9993 15.8624L70.2535 22.7249C70.2535 22.7249 73.2503 31.7037 73.8118 36.1955C74.8284 44.3288 74.2895 47.4049 77.8784 53.2245C80.1637 56.9303 85.5033 61.3578 85.5033 61.3578C85.5033 61.3578 85.9364 62.1551 85.7575 62.6286C85.4418 63.4643 83.47 62.6286 83.47 62.6286C83.47 62.6286 77.4453 59.7429 73.3035 59.5786C69.5687 59.4305 63.8994 61.3578 63.8994 61.3578Z" fill="#B35D0A"/>
<path d="M10.0833 52.9537C10.0833 52.9537 9.1298 54.1636 9.57495 54.7329C9.94689 55.2084 11.0999 54.987 11.0999 54.987L18.979 51.4287L19.4873 53.2079L21.7748 55.7495L23.8081 56.0037L24.5706 55.2412L21.0123 52.9537V50.4121C21.0123 50.4121 26.4035 48.6855 29.6539 47.1079C32.3343 45.807 36.2622 43.2955 36.2622 43.2955L39.058 47.6163L39.3121 52.6995L35.2455 54.2245L31.6872 51.4287L26.0956 54.4787L27.6206 54.987L32.1955 52.9537L35.2455 56.7662L41.0913 52.9537V49.9037L44.6496 54.2245L45.6662 53.7162L38.2955 42.7872C38.2955 42.7872 42.4343 40.7794 45.4121 39.7372C48.3898 38.695 53.5453 37.4497 53.5453 37.4497L49.987 32.1123L51.2578 30.3331C51.2578 30.3331 50.9976 29.8188 50.7495 29.5706C50.5014 29.3225 49.987 29.0623 49.987 29.0623L42.8704 32.6206L39.058 31.3498L37.0247 28.554L31.6872 22.454L30.4164 18.8957L29.1456 16.8624V14.3208L29.6539 12.5416L28.3831 14.8291L28.8914 17.8791L30.1622 19.6582L30.4164 21.4374L25.8414 18.3874L19.4873 14.0666L23.8081 18.8957L29.6539 22.9624L34.2288 27.2831L24.5706 26.7748C24.5706 26.7748 22.3713 25.9124 21.0123 25.2498C19.3745 24.4513 16.9457 22.9624 16.9457 22.9624C16.9457 22.9624 18.2192 25.1204 19.4873 26.0123C20.5428 26.7547 22.5373 27.2831 22.5373 27.2831C22.5373 27.2831 18.8704 28.5912 16.4374 28.554C15.0338 28.5325 12.8791 28.0456 12.8791 28.0456L15.1666 29.5706H18.4707L23.8081 28.0456C23.8081 28.0456 25.662 28.3883 26.8581 28.554C29.2259 28.8819 32.958 29.0623 32.958 29.0623L35.7538 31.3498L40.3288 34.1456L27.8748 41.5163L23.8081 39.2289C23.8081 39.2289 20.2724 38.3067 17.9624 37.958C15.6965 37.6161 12.1166 37.4497 12.1166 37.4497L5 33.6372L11.6083 38.7205L16.4374 39.9913L12.1166 41.5163L9.57495 40.4997H6.01666L8.04997 41.008L11.0999 42.2788C11.0999 42.2788 12.0294 42.6879 12.6249 42.7872C13.2205 42.8864 13.597 43.0083 14.1499 42.7872C15.4207 42.2788 17.7082 40.4997 17.7082 40.4997H21.0123L25.8414 42.7872L10.0833 52.9537Z" stroke="black" stroke-width="4" stroke-linecap="round" stroke-linejoin="round" mask="url(#path-12-outside-2_264_350)"/>
<path d="M63.8994 61.3578C63.8994 61.3578 61.8729 61.4945 61.3578 60.5953C61.1543 60.2402 61.1036 59.5786 61.1036 59.5786C61.1036 59.5786 64.1536 58.562 64.9161 52.7162C66.1062 43.592 55.512 31.1123 55.512 31.1123L58.3078 32.3831L57.5453 29.3331L54.7495 26.5373L56.0203 26.2831L54.7495 23.7415L58.8161 25.0123L58.3078 22.4707L62.1203 29.079L65.6785 33.1456L68.7285 37.9747L69.9993 39.7538C69.9993 39.7538 70.175 33.9129 69.2368 30.3498C68.6689 28.1928 67.2035 25.0123 67.2035 25.0123L64.6619 13.3208L66.6952 17.1332L64.9161 9L67.7119 17.3874L68.7285 21.9624L69.9993 15.8624L70.2535 22.7249C70.2535 22.7249 73.2503 31.7037 73.8118 36.1955C74.8284 44.3288 74.2895 47.4049 77.8784 53.2245C80.1637 56.9303 85.5033 61.3578 85.5033 61.3578C85.5033 61.3578 85.9364 62.1551 85.7575 62.6286C85.4418 63.4643 83.47 62.6286 83.47 62.6286C83.47 62.6286 77.4453 59.7429 73.3035 59.5786C69.5687 59.4305 63.8994 61.3578 63.8994 61.3578Z" stroke="black" stroke-width="4" stroke-linecap="round" stroke-linejoin="round" mask="url(#path-12-outside-2_264_350)"/>
<path d="M46.0053 63.8996C46.0362 63.039 46.3298 61.6282 46.3298 61.6282C46.3298 61.6282 48.0756 64.4787 49.4124 63.8996C50.8007 63.2982 49.7369 61.3565 49.7369 59.8436C49.7369 58.3936 49.9017 57.7475 50.3858 56.4365C51.1075 54.4824 52.2908 53.8749 53.3062 52.056C54.1502 50.544 55.2531 48 55.2531 48C55.2531 48 56.3081 51.6148 56.2265 54.0029C56.1592 55.9731 54.1116 57.3229 55.2531 58.8701C55.5999 59.3402 55.8113 59.7557 56.3887 59.8436C57.1909 59.9656 57.4327 59.1056 58.0112 58.5456C58.8545 57.7293 59.958 56.4365 59.958 56.4365C59.958 56.4365 59.213 58.6044 59.1468 60.168C59.0807 61.7317 59.6336 64.2241 59.6336 64.2241C61.1003 64.0329 63.5273 61.6282 63.5273 61.6282C63.5273 61.6282 63.8207 62.9679 63.8518 63.8285C64.0304 68.7724 59.7125 72.7615 54.7663 72.6606C49.9211 72.5617 45.8315 68.7427 46.0053 63.8996Z" fill="#FFBA17"/>
<g filter="url(#filter3_i_264_350)">
<path d="M46.0053 64.2372C46.0362 63.3766 46.3298 61.9659 46.3298 61.9659C46.3298 61.9659 48.0756 64.8163 49.4124 64.2372C50.8007 63.6358 49.7369 61.6941 49.7369 60.1812C49.7369 58.7313 49.9017 58.0852 50.3858 56.7742C51.1075 54.82 52.2908 54.2125 53.3062 52.3937C54.1502 50.8817 55.2531 48.3376 55.2531 48.3376C55.2531 48.3376 56.3081 51.9524 56.2265 54.3405C56.1592 56.3108 54.1116 57.6606 55.2531 59.2078C55.5999 59.6778 55.8113 60.0933 56.3887 60.1812C57.1909 60.3033 57.4327 59.4433 58.0112 58.8833C58.8545 58.0669 59.958 56.7742 59.958 56.7742C59.958 56.7742 59.213 58.9421 59.1468 60.5057C59.0807 62.0693 59.6336 64.5617 59.6336 64.5617C61.1003 64.3705 63.5273 61.9659 63.5273 61.9659C63.5273 61.9659 63.8207 63.3055 63.8518 64.1661C64.0304 69.1101 59.7125 73.0992 54.7663 72.9982C49.9211 72.8993 45.8315 69.0803 46.0053 64.2372Z" fill="#FFBA17"/>
</g>
<path d="M47.1816 61.4431L47.1953 61.4636C47.2057 61.4801 47.2223 61.5055 47.2441 61.5388C47.2882 61.6061 47.3542 61.7045 47.4375 61.821C47.6062 62.057 47.8372 62.3563 48.0977 62.6326C48.3669 62.9182 48.6225 63.1312 48.834 63.2429C48.9404 63.2991 48.9994 63.311 49.0244 63.3132C49.0988 63.2796 49.0928 63.2675 49.0986 63.2498C49.1242 63.172 49.1432 63.0035 49.1025 62.6736C49.0619 62.3438 48.9852 62.0028 48.8994 61.5583C48.8203 61.1487 48.7373 60.6626 48.7373 60.1814C48.7373 59.4174 48.7803 58.8217 48.8994 58.2283C49.0172 57.642 49.2027 57.0924 49.4482 56.4275L49.6104 56.0212C50.004 55.1132 50.4901 54.474 50.9639 53.8982C51.5049 53.2405 51.9798 52.7171 52.4326 51.906L52.7451 51.323C53.0658 50.7034 53.4039 49.9956 53.6885 49.3796C53.8766 48.9724 54.0392 48.6111 54.1543 48.3523C54.2117 48.2233 54.2569 48.1196 54.2881 48.0486C54.3037 48.013 54.3162 47.9849 54.3242 47.9666C54.3281 47.9576 54.3311 47.9505 54.333 47.946C54.3339 47.9439 54.3345 47.9422 54.335 47.9412L54.3359 47.9402L54.4082 47.8025C54.6012 47.4977 54.9473 47.3166 55.3154 47.3396C55.7359 47.3659 56.0948 47.653 56.2129 48.0574V48.0583L56.2139 48.0593V48.0613C56.2145 48.0635 56.2157 48.0671 56.2168 48.071C56.2191 48.079 56.2224 48.0906 56.2266 48.1052C56.2349 48.1344 56.2468 48.1764 56.2617 48.2302C56.2917 48.3384 56.3345 48.4944 56.3848 48.6882C56.4853 49.0756 56.6184 49.6176 56.749 50.2371C56.9735 51.3014 57.2044 52.659 57.2285 53.8669L57.2256 54.3748C57.1825 55.6354 56.4913 56.7407 56.1855 57.3699C56.0062 57.7389 55.9259 57.9759 55.9102 58.158C55.8986 58.2909 55.9171 58.4235 56.0576 58.614L56.1934 58.8025C56.2353 58.8616 56.2697 58.9102 56.3037 58.9568C56.372 59.0505 56.4167 59.1048 56.4521 59.1414C56.4683 59.158 56.4807 59.1676 56.4883 59.1736C56.4988 59.1626 56.5131 59.151 56.5273 59.1345C56.6112 59.0374 56.6834 58.9325 56.8223 58.7449C56.9447 58.5795 57.1087 58.3649 57.3154 58.1648L57.623 57.8582C57.9393 57.5344 58.2736 57.1709 58.5566 56.8552C58.7434 56.647 58.9044 56.4629 59.0186 56.3318C59.0754 56.2665 59.1207 56.2141 59.1514 56.1785C59.1666 56.1608 59.1787 56.1475 59.1865 56.1384C59.1904 56.1339 59.1934 56.1299 59.1953 56.1277C59.1961 56.1267 59.1969 56.1262 59.1973 56.1257V56.1248L59.2588 56.0593C59.5752 55.7494 60.0632 55.6828 60.4541 55.906C60.8449 56.1293 61.035 56.5834 60.9287 57.0134L60.9033 57.0994C60.9031 57.0999 60.9028 57.1009 60.9023 57.1023C60.9013 57.1054 60.8998 57.1108 60.8975 57.1179C60.8927 57.132 60.8854 57.1537 60.876 57.1824C60.857 57.2401 60.8286 57.3261 60.7949 57.4343C60.7274 57.6513 60.6367 57.9569 60.5439 58.3083C60.354 59.0285 60.1739 59.8769 60.1455 60.5476C60.1169 61.2234 60.2251 62.1548 60.3535 62.9636C60.3658 63.0411 60.3793 63.1167 60.3916 63.1902C60.7592 62.9732 61.1467 62.6952 61.5098 62.408C61.8815 62.1139 62.2125 61.8229 62.4512 61.6052C62.57 61.4969 62.6651 61.4079 62.7295 61.3464C62.7617 61.3157 62.7858 61.2917 62.8018 61.2761C62.8096 61.2685 62.8157 61.2631 62.8193 61.2595L62.8232 61.2556C63.0823 60.999 63.4608 60.9033 63.8105 61.0066C64.1602 61.1099 64.4258 61.3956 64.5039 61.7517V61.7527L64.5049 61.7537C64.5051 61.7546 64.5055 61.756 64.5059 61.7576C64.5065 61.7607 64.5066 61.7657 64.5078 61.7712C64.5102 61.7825 64.5143 61.7988 64.5186 61.8191C64.5272 61.86 64.5391 61.9185 64.5537 61.991C64.583 62.1363 64.6227 62.3396 64.6631 62.571C64.7416 63.021 64.8334 63.6273 64.8516 64.1296L64.8555 64.6492C64.7526 69.8045 60.3358 73.8379 55.2559 73.9949L54.7461 73.9978C49.4177 73.889 44.8094 69.6742 45.0059 64.2009L45.0322 63.8074C45.069 63.3997 45.1348 62.9621 45.1934 62.613C45.2336 62.3735 45.2727 62.1619 45.3018 62.0105C45.3163 61.9349 45.3284 61.8734 45.3369 61.8308C45.3412 61.8096 45.3443 61.7926 45.3467 61.781C45.3478 61.7753 45.349 61.7705 45.3496 61.7673C45.3499 61.7659 45.3504 61.7643 45.3506 61.7634V61.7625L45.3926 61.616C45.5153 61.2869 45.8048 61.0418 46.1582 60.9802C46.5621 60.91 46.9684 61.0936 47.1826 61.4431H47.1816Z" stroke="black" stroke-width="2" stroke-linejoin="round"/>
<path d="M77.0045 33.5384C77.0304 32.8057 77.2771 31.6044 77.2771 31.6044C77.2771 31.6044 78.7435 34.0315 79.8664 33.5384C81.0326 33.0264 80.139 31.373 80.139 30.0848C80.139 28.8501 80.2774 28.3 80.6841 27.1837C81.2903 25.5197 82.2843 25.0025 83.1372 23.4537C83.8462 22.1662 84.7726 20 84.7726 20C84.7726 20 85.6588 23.078 85.5903 25.1115C85.5337 26.7891 83.8137 27.9384 84.7726 29.2559C85.0639 29.6561 85.2415 30.0099 85.7265 30.0848C86.4004 30.1887 86.6034 29.4564 87.0894 28.9796C87.7978 28.2844 88.7248 27.1837 88.7248 27.1837C88.7248 27.1837 88.0989 29.0296 88.0433 30.3611C87.9878 31.6925 88.4522 33.8147 88.4522 33.8147C89.6842 33.6519 91.723 31.6044 91.723 31.6044C91.723 31.6044 91.9694 32.7451 91.9955 33.4779C92.1455 37.6876 88.5185 41.0844 84.3637 40.9984C80.2937 40.9142 76.8585 37.6623 77.0045 33.5384Z" fill="#FFBA17"/>
<g filter="url(#filter4_i_264_350)">
<path d="M75.0045 33.5384C75.0304 32.8057 75.2771 31.6044 75.2771 31.6044C75.2771 31.6044 76.7435 34.0315 77.8664 33.5384C79.0326 33.0264 78.139 31.373 78.139 30.0848C78.139 28.8501 78.2774 28.3 78.6841 27.1837C79.2903 25.5197 80.2843 25.0025 81.1372 23.4537C81.8462 22.1662 82.7726 20 82.7726 20C82.7726 20 83.6588 23.078 83.5903 25.1115C83.5337 26.7891 81.8137 27.9384 82.7726 29.2559C83.0639 29.6561 83.2415 30.0099 83.7265 30.0848C84.4004 30.1887 84.6034 29.4564 85.0894 28.9796C85.7978 28.2844 86.7248 27.1837 86.7248 27.1837C86.7248 27.1837 86.0989 29.0296 86.0433 30.3611C85.9878 31.6925 86.4522 33.8147 86.4522 33.8147C87.6842 33.6519 89.723 31.6044 89.723 31.6044C89.723 31.6044 89.9694 32.7451 89.9955 33.4779C90.1455 37.6876 86.5185 41.0844 82.3637 40.9984C78.2937 40.9142 74.8585 37.6623 75.0045 33.5384Z" fill="#FFBA17"/>
</g>
<path d="M82.834 19.002C83.2561 19.0281 83.6164 19.3172 83.7334 19.7236L83.7344 19.7246V19.7266C83.7349 19.7286 83.7363 19.7319 83.7373 19.7354C83.7393 19.7423 83.7416 19.7522 83.7451 19.7646C83.7522 19.7898 83.7627 19.8258 83.7754 19.8721C83.8008 19.9649 83.8364 20.0987 83.8789 20.2646C83.9637 20.596 84.0763 21.0599 84.1865 21.5898C84.3754 22.4979 84.5714 23.6644 84.5918 24.707L84.5898 25.1455C84.5523 26.2564 83.9492 27.2355 83.7021 27.751C83.553 28.0621 83.4954 28.2452 83.4844 28.374C83.4775 28.4549 83.4844 28.534 83.5811 28.667L83.6963 28.8301C83.7318 28.8808 83.7602 28.9212 83.7881 28.96C83.7939 28.9681 83.8003 28.9751 83.8057 28.9824C83.8446 28.9296 83.8941 28.8672 83.959 28.7783C84.0626 28.6364 84.2056 28.4453 84.3887 28.2656L84.6445 28.0068C84.9075 27.7339 85.1866 27.4264 85.4238 27.1582C85.58 26.9816 85.715 26.826 85.8105 26.7148C85.8582 26.6594 85.8962 26.6152 85.9219 26.585C85.9345 26.5702 85.9437 26.5584 85.9502 26.5508C85.9534 26.5469 85.9565 26.5438 85.958 26.542C85.9588 26.5411 85.9596 26.5404 85.96 26.54V26.5391L86.0205 26.4736C86.3352 26.1611 86.8233 26.0912 87.2158 26.3125C87.6346 26.5486 87.8262 27.0496 87.6719 27.5049L87.6709 27.5068C87.6701 27.5093 87.6689 27.5138 87.667 27.5195C87.6631 27.5313 87.6573 27.55 87.6494 27.5742C87.6337 27.6227 87.6101 27.6949 87.582 27.7861C87.5257 27.9694 87.4503 28.2284 87.373 28.5254C87.234 29.0599 87.1027 29.6706 87.0566 30.1875L87.042 30.4023C87.019 30.9527 87.1042 31.7151 87.209 32.3926C87.4463 32.2368 87.6903 32.0555 87.9238 31.8682C88.2324 31.6207 88.5074 31.376 88.7061 31.1924C88.8049 31.101 88.8842 31.0262 88.9375 30.9746C88.964 30.949 88.984 30.9289 88.9971 30.916L89.0146 30.8984L89.1162 30.8096C89.3669 30.6182 89.6962 30.5545 90.0039 30.6445C90.3555 30.7476 90.6228 31.0354 90.7002 31.3936L90.7012 31.3945C90.7014 31.3954 90.7009 31.3971 90.7012 31.3984C90.7018 31.4012 90.7031 31.4053 90.7041 31.4102C90.7062 31.4199 90.7093 31.4338 90.7129 31.4512C90.7202 31.4865 90.7308 31.5372 90.7432 31.5996C90.7679 31.7243 90.8008 31.8983 90.835 32.0967C90.9011 32.481 90.9795 33.0049 90.9951 33.4424L90.998 33.8916C90.9102 38.3563 87.1365 41.8599 82.7803 41.9961L82.3428 41.998C77.7765 41.9034 73.837 38.244 74.0049 33.5029L74.0273 33.1611C74.0588 32.8078 74.1147 32.4307 74.1641 32.1328C74.198 31.9277 74.2313 31.7469 74.2559 31.6172C74.2682 31.5522 74.2779 31.4996 74.2852 31.4629C74.2888 31.4446 74.2919 31.43 74.2939 31.4199C74.2949 31.415 74.2963 31.411 74.2969 31.4082C74.2971 31.4071 74.2967 31.406 74.2969 31.4053L74.2979 31.4043V31.4033L74.3398 31.2568C74.4624 30.9262 74.7524 30.6803 75.1074 30.6191C75.4622 30.5581 75.8179 30.6925 76.0439 30.9629L76.1328 31.0869L76.1338 31.0879C76.1354 31.0904 76.1384 31.0959 76.1426 31.1025C76.1509 31.1159 76.1638 31.1374 76.1816 31.165C76.2177 31.2209 76.2722 31.3021 76.3408 31.3994C76.4802 31.5971 76.6702 31.8466 76.8828 32.0752C77.1041 32.3132 77.3051 32.4795 77.46 32.5625L77.4619 32.5635C77.4665 32.4945 77.467 32.3864 77.4473 32.2236C77.4139 31.9489 77.3514 31.667 77.2783 31.2832C77.2117 30.9336 77.1387 30.5086 77.1387 30.085C77.1387 28.7072 77.3079 28.0394 77.7441 26.8418L77.8848 26.4873C78.2229 25.6969 78.6402 25.1406 79.042 24.6455C79.5005 24.0806 79.8893 23.6478 80.2617 22.9717L80.5215 22.4785C80.7893 21.9541 81.0716 21.3533 81.3105 20.8291C81.4682 20.4832 81.6047 20.1769 81.7012 19.957C81.7494 19.8471 81.7874 19.7586 81.8135 19.6982C81.8265 19.6682 81.8371 19.6454 81.8438 19.6299C81.847 19.6223 81.8489 19.6161 81.8506 19.6123C81.8513 19.6107 81.8522 19.6093 81.8525 19.6084L81.8535 19.6074V19.6064L81.9258 19.4678C82.1181 19.1616 82.4649 18.9792 82.834 19.002Z" stroke="black" stroke-width="2" stroke-linejoin="round"/>
<defs>
<filter id="filter0_i_264_350" x="42.9998" y="46.3375" width="22.8574" height="29.6624" filterUnits="userSpaceOnUse" color-interpolation-filters="sRGB">
<feFlood flood-opacity="0" result="BackgroundImageFix"/>
<feBlend mode="normal" in="SourceGraphic" in2="BackgroundImageFix" result="shape"/>
<feColorMatrix in="SourceAlpha" type="matrix" values="0 0 0 0 0 0 0 0 0 0 0 0 0 0 0 0 0 0 127 0" result="hardAlpha"/>
<feOffset dx="-3" dy="4"/>
<feGaussianBlur stdDeviation="0.5"/>
<feComposite in2="hardAlpha" operator="arithmetic" k2="-1" k3="1"/>
<feColorMatrix type="matrix" values="0 0 0 0 0.875 0 0 0 0 0 0 0 0 0 0 0 0 0 0.25 0"/>
<feBlend mode="normal" in2="shape" result="effect1_innerShadow_264_350"/>
</filter>
<filter id="filter1_i_264_350" x="34.9998" y="2.99997" width="17.0003" height="21.5732" filterUnits="userSpaceOnUse" color-interpolation-filters="sRGB">
<feFlood flood-opacity="0" result="BackgroundImageFix"/>
<feBlend mode="normal" in="SourceGraphic" in2="BackgroundImageFix" result="shape"/>
<feColorMatrix in="SourceAlpha" type="matrix" values="0 0 0 0 0 0 0 0 0 0 0 0 0 0 0 0 0 0 127 0" result="hardAlpha"/>
<feOffset dx="-3" dy="4"/>
<feGaussianBlur stdDeviation="0.5"/>
<feComposite in2="hardAlpha" operator="arithmetic" k2="-1" k3="1"/>
<feColorMatrix type="matrix" values="0 0 0 0 0.875 0 0 0 0 0 0 0 0 0 0 0 0 0 0.25 0"/>
<feBlend mode="normal" in2="shape" result="effect1_innerShadow_264_350"/>
</filter>
<filter id="filter2_i_264_350" x="71.9999" y="18" width="20.0002" height="26" filterUnits="userSpaceOnUse" color-interpolation-filters="sRGB">
<feFlood flood-opacity="0" result="BackgroundImageFix"/>
<feBlend mode="normal" in="SourceGraphic" in2="BackgroundImageFix" result="shape"/>
<feColorMatrix in="SourceAlpha" type="matrix" values="0 0 0 0 0 0 0 0 0 0 0 0 0 0 0 0 0 0 127 0" result="hardAlpha"/>
<feOffset dx="-3" dy="4"/>
<feGaussianBlur stdDeviation="0.5"/>
<feComposite in2="hardAlpha" operator="arithmetic" k2="-1" k3="1"/>
<feColorMatrix type="matrix" values="0 0 0 0 0.875 0 0 0 0 0 0 0 0 0 0 0 0 0 0.25 0"/>
<feBlend mode="normal" in2="shape" result="effect1_innerShadow_264_350"/>
</filter>
<filter id="filter3_i_264_350" x="42.9998" y="46.3376" width="22.8574" height="29.6624" filterUnits="userSpaceOnUse" color-interpolation-filters="sRGB">
<feFlood flood-opacity="0" result="BackgroundImageFix"/>
<feBlend mode="normal" in="SourceGraphic" in2="BackgroundImageFix" result="shape"/>
<feColorMatrix in="SourceAlpha" type="matrix" values="0 0 0 0 0 0 0 0 0 0 0 0 0 0 0 0 0 0 127 0" result="hardAlpha"/>
<feOffset dx="-3" dy="4"/>
<feGaussianBlur stdDeviation="0.5"/>
<feComposite in2="hardAlpha" operator="arithmetic" k2="-1" k3="1"/>
<feColorMatrix type="matrix" values="0 0 0 0 0.875 0 0 0 0 0 0 0 0 0 0 0 0 0 0.25 0"/>
<feBlend mode="normal" in2="shape" result="effect1_innerShadow_264_350"/>
</filter>
<filter id="filter4_i_264_350" x="71.9999" y="18" width="20.0002" height="26" filterUnits="userSpaceOnUse" color-interpolation-filters="sRGB">
<feFlood flood-opacity="0" result="BackgroundImageFix"/>
<feBlend mode="normal" in="SourceGraphic" in2="BackgroundImageFix" result="shape"/>
<feColorMatrix in="SourceAlpha" type="matrix" values="0 0 0 0 0 0 0 0 0 0 0 0 0 0 0 0 0 0 127 0" result="hardAlpha"/>
<feOffset dx="-3" dy="4"/>
<feGaussianBlur stdDeviation="0.5"/>
<feComposite in2="hardAlpha" operator="arithmetic" k2="-1" k3="1"/>
<feColorMatrix type="matrix" values="0 0 0 0 0.875 0 0 0 0 0 0 0 0 0 0 0 0 0 0.25 0"/>
<feBlend mode="normal" in2="shape" result="effect1_innerShadow_264_350"/>
</filter>
</defs>
</svg>
