<svg width="128" height="128" viewBox="0 0 128 128" fill="none" xmlns="http://www.w3.org/2000/svg">
<circle cx="64" cy="64" r="64" fill="#3C4043"/>
<path d="M66.0498 25.2094C65.7095 24.1886 64.7541 23.5 63.6781 23.5C62.602 23.5 61.6466 24.1886 61.3063 25.2094C58.1253 34.7524 52.5888 40.946 47.0985 47.088C46.447 47.8167 45.7962 48.5448 45.15 49.2777C39.0849 56.1565 33.502 63.4308 33.502 75.2283C33.502 75.2054 33.4992 75.4929 33.5004 75.7168C33.5019 75.99 33.5082 76.352 33.5271 76.7897C33.5648 77.6641 33.6527 78.8409 33.8533 80.2176C34.2526 82.959 35.1076 86.5565 36.9508 90.1511C38.8026 93.7624 41.6608 97.3848 46.0417 100.092C50.425 102.801 56.1809 104.5 63.6781 104.5C71.1784 104.5 76.9362 102.788 81.32 100.064C85.7006 97.3417 88.5573 93.7024 90.4077 90.0822C92.2498 86.4781 93.1048 82.8768 93.5043 80.1446C93.7049 78.7725 93.793 77.6035 93.8308 76.741C93.8497 76.3092 93.8561 75.9539 93.8576 75.6884C93.8589 75.4745 93.8561 75.1891 93.8561 75.2282C93.8559 63.4306 88.2725 56.1562 82.2069 49.2775C81.5607 48.5447 80.9099 47.8167 80.2585 47.088C74.7677 40.9461 69.2308 34.7525 66.0498 25.2094Z" fill="#54B3F3" stroke="white" stroke-width="5" stroke-linejoin="round"/>
<g filter="url(#filter0_i_234_481)">
<path d="M63.6781 102C92.117 102 91.3561 76.1089 91.3561 75.2283C91.3557 53.5545 71.1842 48.5185 63.6781 26C56.1719 48.5185 36.002 53.5548 36.002 75.2283C36.002 76.2851 35.2391 102 63.6781 102Z" fill="#54B3F3"/>
</g>
<path d="M64.6267 25.6838C64.4906 25.2754 64.1085 25 63.6781 25C63.2476 25 62.8655 25.2754 62.7294 25.6838C59.445 35.5368 53.7021 41.9567 48.2178 48.0876C47.565 48.8173 46.916 49.5429 46.2751 50.2697C40.2606 57.091 35.002 64.0073 35.002 75.2283C35.002 75.2478 35.0017 75.2759 35.0014 75.312C34.9923 76.2684 34.9294 82.9214 38.2856 89.4667C40.0355 92.8795 42.7213 96.2769 46.8303 98.8162C50.9402 101.356 56.4133 103 63.6781 103C70.944 103 76.418 101.344 80.5283 98.7901C84.6372 96.2365 87.3225 92.8225 89.0721 89.3995C92.4337 82.8225 92.3654 76.1585 92.3566 75.2983C92.3563 75.2674 92.3561 75.2439 92.3561 75.2283C92.3559 64.0071 87.0967 57.0908 81.0818 50.2695C80.441 49.5428 79.7919 48.8173 79.1392 48.0877C73.6544 41.9568 67.9111 35.5369 64.6267 25.6838Z" stroke="black" stroke-width="2" stroke-linejoin="round"/>
<path d="M83.8503 74.7901C83.8503 75.4691 84.4436 95.4321 62.2716 95.4321" stroke="white" stroke-opacity="0.5" stroke-width="4" stroke-linecap="round"/>
<defs>
<filter id="filter0_i_234_481" x="31.9997" y="24" width="61.3582" height="82" filterUnits="userSpaceOnUse" color-interpolation-filters="sRGB">
<feFlood flood-opacity="0" result="BackgroundImageFix"/>
<feBlend mode="normal" in="SourceGraphic" in2="BackgroundImageFix" result="shape"/>
<feColorMatrix in="SourceAlpha" type="matrix" values="0 0 0 0 0 0 0 0 0 0 0 0 0 0 0 0 0 0 127 0" result="hardAlpha"/>
<feOffset dx="-3" dy="4"/>
<feGaussianBlur stdDeviation="1"/>
<feComposite in2="hardAlpha" operator="arithmetic" k2="-1" k3="1"/>
<feColorMatrix type="matrix" values="0 0 0 0 0.0252778 0 0 0 0 0.390963 0 0 0 0 0.733056 0 0 0 0.62 0"/>
<feBlend mode="normal" in2="shape" result="effect1_innerShadow_234_481"/>
</filter>
</defs>
</svg>
