<svg width="73" height="94" viewBox="0 0 73 94" fill="none" xmlns="http://www.w3.org/2000/svg">
<path d="M36.2002 17.5C50.3584 17.5001 61.842 28.9488 61.8994 43.0938L61.8955 43.3154L61.8779 43.5469C61.8122 44.1862 61.2923 49.0847 60.041 52.4062L59.918 52.7227C59.0813 54.7928 57.5982 57.0057 56.3682 58.6689C55.1311 60.3417 54.0172 61.6328 53.7393 61.9512C53.5563 62.1925 52.8128 63.1869 52.0049 64.4512C51.2609 65.6154 50.5511 66.8732 50.1338 67.9307L49.9736 68.3701C49.613 69.4619 49.3855 71.0513 49.2529 72.459L49.2012 73.0488C49.0182 75.3614 47.1067 77.2997 44.6475 77.2998H27.7529C25.3704 77.2998 23.5015 75.4809 23.2207 73.2646L23.1982 73.0488C23.0845 71.6108 22.8673 69.8535 22.501 68.6113L22.4258 68.3701C22.0504 67.234 21.2446 65.7815 20.3945 64.4512C19.5869 63.1874 18.8444 62.1928 18.6611 61.9512C18.3835 61.6331 17.2695 60.342 16.0322 58.6689C14.879 57.1096 13.5034 55.0674 12.6465 53.1123L12.4824 52.7227C11.3092 49.8197 10.7405 45.4763 10.5713 43.9941L10.5225 43.5469C10.5062 43.389 10.4994 43.239 10.5 43.0938L10.5107 42.4336C10.9162 28.5943 22.2629 17.5 36.2002 17.5ZM18.668 61.96L18.6748 61.9688V61.9678C18.6722 61.9647 18.6698 61.9613 18.667 61.958L18.668 61.96ZM53.7256 61.9678V61.9688C53.7256 61.9688 53.728 61.9653 53.7324 61.96L53.7334 61.958C53.7306 61.9613 53.7282 61.9647 53.7256 61.9678Z" fill="#FFE158" stroke="white" stroke-width="5"/>
<path d="M45 25C45 25 50.3457 28.6063 52.75 32.5C54.9341 36.0371 56.5 42 56.5 42" stroke="white" stroke-width="5" stroke-linecap="round"/>
<rect x="24.5" y="77.5" width="23" height="7" rx="3.5" fill="#ACACAC" stroke="white" stroke-width="5"/>
<rect x="25.5" y="84.5" width="21" height="7" rx="3.5" fill="#ACACAC" stroke="white" stroke-width="5"/>
<path d="M35 3V15" stroke="white" stroke-width="6" stroke-linecap="round"/>
<path d="M56.4703 9L50 19.1062" stroke="white" stroke-width="6" stroke-linecap="round"/>
<path d="M69.3775 22L60 29.4875" stroke="white" stroke-width="6" stroke-linecap="round"/>
<path d="M15.9072 9L22.3775 19.1062" stroke="white" stroke-width="6" stroke-linecap="round"/>
<path d="M3 22L12.3775 29.4875" stroke="white" stroke-width="6" stroke-linecap="round"/>
<path d="M36.2002 19C49.5321 19.0001 60.3456 29.7812 60.3994 43.1006L60.3965 43.2451L60.3857 43.3936C60.3186 44.0474 59.8405 48.4678 58.7529 51.5615L58.5273 52.1611C57.7648 54.0479 56.3764 56.1353 55.1621 57.7773C54.2425 59.0208 53.3923 60.0481 52.9248 60.5986L52.5967 60.9805L52.5557 61.0303C52.3787 61.2632 51.5952 62.3072 50.7412 63.6436C49.9307 64.912 49.0974 66.3817 48.6367 67.6494L48.5498 67.8994C48.1356 69.1534 47.8935 70.8834 47.7578 72.3301L47.7061 72.9307C47.5815 74.5052 46.2827 75.7997 44.6475 75.7998H27.7529C26.2199 75.7998 24.9819 74.6622 24.7305 73.2227L24.6934 72.9307C24.5789 71.4839 24.3542 69.588 23.9365 68.1758L23.8506 67.8994C23.414 66.578 22.5236 64.9963 21.6592 63.6436C21.0185 62.6409 20.4171 61.8031 20.082 61.3486L19.8438 61.0303L19.8037 60.9805C19.5664 60.7092 18.4644 59.4352 17.2383 57.7773C16.0998 56.2379 14.8088 54.3066 14.0234 52.5166L13.873 52.1611C12.7813 49.4598 12.2317 45.3068 12.0635 43.8438L12.0146 43.3936C12.0043 43.2926 11.9996 43.1966 12 43.1006L12.0107 42.4775C12.3929 29.4464 23.0766 19 36.2002 19Z" fill="#FFE158" stroke="black" stroke-width="2"/>
<path d="M38.0186 42.8643L37.8398 43.5H47.0127L32.5752 63.1865L35.9863 49.1182L36.1357 48.5H26.0547L41.8691 29.1699L38.0186 42.8643Z" fill="white" stroke="black" stroke-linecap="round"/>
<rect x="26" y="79" width="20" height="4" rx="2" fill="#ACACAC" stroke="black" stroke-width="2"/>
<rect x="27" y="86" width="18" height="4" rx="2" fill="#ACACAC" stroke="black" stroke-width="2"/>
<path d="M35 3V15" stroke="black" stroke-width="2" stroke-linecap="round"/>
<path d="M56.4703 9L50 19.1062" stroke="black" stroke-width="2" stroke-linecap="round"/>
<path d="M69.3775 22L60 29.4875" stroke="black" stroke-width="2" stroke-linecap="round"/>
<path d="M15.9072 9L22.3775 19.1062" stroke="black" stroke-width="2" stroke-linecap="round"/>
<path d="M3 22L12.3775 29.4875" stroke="black" stroke-width="2" stroke-linecap="round"/>
</svg>
