<svg width="71" height="86" viewBox="0 0 71 86" fill="none" xmlns="http://www.w3.org/2000/svg">
<path d="M47.7714 31.5C59.0932 31.5 68.2714 40.6782 68.2714 52C68.2714 63.3218 59.0932 72.5 47.7714 72.5C36.4495 72.5 27.2714 63.3218 27.2714 52C27.2714 40.6782 36.4495 31.5 47.7714 31.5Z" stroke="white" stroke-width="5"/>
<mask id="path-2-outside-1_267_479" maskUnits="userSpaceOnUse" x="4.77136" y="0" width="40" height="74" fill="black">
<rect fill="white" x="4.77136" width="40" height="74"/>
<path d="M40.7714 5C40.7714 4.44772 40.3236 4 39.7714 4H29.7714H10.7711C10.2188 4 9.77106 4.44772 9.77107 5.00001L9.77136 29.9999V44.4999C9.77136 44.776 9.5475 44.9999 9.27136 44.9999C8.99522 44.9999 8.77136 45.2237 8.77136 45.4999V69.9999H13.7714V45.5026C13.7714 45.225 13.5463 44.9999 13.2686 44.9999C12.9931 44.9999 12.769 44.7835 12.7664 44.508C12.7474 42.5334 12.6848 35.0467 12.7714 29.9999C12.8998 22.5096 13.5085 11.6158 13.7079 8.85802C13.7438 8.36218 14.1395 7.97546 14.6356 7.94239L28.7714 7.00011H29.0214C29.4356 7.00011 29.7714 7.33588 29.7714 7.75006C29.7714 8.16424 30.1071 8.5 30.5213 8.50001L39.7714 8.5001C40.3236 8.50011 40.7714 8.05239 40.7714 7.5001V5Z"/>
</mask>
<path d="M40.7714 5C40.7714 4.44772 40.3236 4 39.7714 4H29.7714H10.7711C10.2188 4 9.77106 4.44772 9.77107 5.00001L9.77136 29.9999V44.4999C9.77136 44.776 9.5475 44.9999 9.27136 44.9999C8.99522 44.9999 8.77136 45.2237 8.77136 45.4999V69.9999H13.7714V45.5026C13.7714 45.225 13.5463 44.9999 13.2686 44.9999C12.9931 44.9999 12.769 44.7835 12.7664 44.508C12.7474 42.5334 12.6848 35.0467 12.7714 29.9999C12.8998 22.5096 13.5085 11.6158 13.7079 8.85802C13.7438 8.36218 14.1395 7.97546 14.6356 7.94239L28.7714 7.00011H29.0214C29.4356 7.00011 29.7714 7.33588 29.7714 7.75006C29.7714 8.16424 30.1071 8.5 30.5213 8.50001L39.7714 8.5001C40.3236 8.50011 40.7714 8.05239 40.7714 7.5001V5Z" fill="#D9D9D9"/>
<path d="M28.7714 7.00011V3.00011C28.6826 3.00011 28.5939 3.00307 28.5053 3.00897L28.7714 7.00011ZM9.77136 29.9999H13.7714V29.9998L9.77136 29.9999ZM8.77136 69.9999H4.77136V73.9999H8.77136V69.9999ZM13.7714 69.9999V73.9999H17.7714V69.9999H13.7714ZM12.7714 29.9999L16.7708 30.0684L12.7714 29.9999ZM12.7664 44.508L16.7662 44.4695L12.7664 44.508ZM13.7079 8.85802L17.6975 9.14654L13.7079 8.85802ZM14.6356 7.94239L14.9016 11.9335L14.6356 7.94239ZM39.7714 8.5001L39.7713 12.5001L39.7714 8.5001ZM30.5213 8.50001L30.5213 4.50001L30.5213 8.50001ZM9.77107 5.00001L13.7711 4.99997V4.99996L9.77107 5.00001ZM39.7714 4V0H29.7714V4V8H39.7714V4ZM30.5213 8.50001L30.5213 12.5L39.7713 12.5001L39.7714 8.5001L39.7714 4.5001L30.5213 4.50001L30.5213 8.50001ZM40.7714 7.5001H44.7714V5H40.7714H36.7714V7.5001H40.7714ZM10.7711 4V8H29.7714V4V0H10.7711V4ZM9.77136 29.9999L13.7714 29.9998L13.7711 4.99997L9.77107 5.00001L5.77107 5.00006L5.77136 29.9999L9.77136 29.9999ZM8.77136 69.9999H12.7714V45.4999H8.77136H4.77136V69.9999H8.77136ZM13.7714 69.9999V65.9999H8.77136V69.9999V73.9999H13.7714V69.9999ZM13.7714 45.5026H9.77136V69.9999H13.7714H17.7714V45.5026H13.7714ZM13.7079 8.85802L9.71835 8.5695C9.51507 11.3805 8.90192 22.35 8.77195 29.9313L12.7714 29.9999L16.7708 30.0684C16.8976 22.6692 17.5019 11.8511 17.6975 9.14654L13.7079 8.85802ZM28.7714 7.00011L28.5053 3.00897L14.3695 3.95125L14.6356 7.94239L14.9016 11.9335L29.0374 10.9913L28.7714 7.00011ZM12.7714 29.9999L8.77195 29.9313C8.68438 35.0397 8.74767 42.5783 8.76658 44.5464L12.7664 44.508L16.7662 44.4695C16.7472 42.4884 16.6853 35.0537 16.7708 30.0684L12.7714 29.9999ZM9.77136 44.4999H13.7714V29.9999H9.77136H5.77136V44.4999H9.77136ZM28.7714 7.00011V11.0001H29.0214V7.00011V3.00011H28.7714V7.00011ZM29.7714 7.75006H33.7714C33.7714 5.12673 31.6447 3.00011 29.0214 3.00011V7.00011V11.0001C27.2265 11.0001 25.7714 9.54502 25.7714 7.75006H29.7714ZM13.2686 44.9999V40.9999C15.1293 40.9999 16.7472 42.4934 16.7662 44.4695L12.7664 44.508L8.76658 44.5464C8.79086 47.0735 10.857 48.9999 13.2686 48.9999V44.9999ZM9.27136 44.9999V40.9999C6.78608 40.9999 4.77136 43.0146 4.77136 45.4999H8.77136H12.7714C12.7714 47.4329 11.2044 48.9999 9.27136 48.9999V44.9999ZM13.7079 8.85802L17.6975 9.14654C17.5868 10.6774 16.3598 11.8363 14.9016 11.9335L14.6356 7.94239L14.3695 3.95125C11.9192 4.11458 9.90077 6.04698 9.71835 8.5695L13.7079 8.85802ZM39.7714 8.5001L39.7713 12.5001C42.5328 12.5001 44.7714 10.2615 44.7714 7.5001H40.7714H36.7714C36.7714 5.84324 38.1145 4.50009 39.7714 4.5001L39.7714 8.5001ZM9.27136 44.9999V48.9999C11.7566 48.9999 13.7714 46.9852 13.7714 44.4999H9.77136H5.77136C5.77136 42.5669 7.33837 40.9999 9.27136 40.9999V44.9999ZM30.5213 8.50001L30.5213 4.50001C32.3163 4.50003 33.7714 5.95511 33.7714 7.75006H29.7714H25.7714C25.7714 10.3734 27.898 12.5 30.5213 12.5L30.5213 8.50001ZM10.7711 4V0C8.00961 0 5.77103 2.23863 5.77107 5.00007L9.77107 5.00001L13.7711 4.99996C13.7711 6.65682 12.4279 8 10.7711 8V4ZM13.7714 45.5026H17.7714C17.7714 43.0159 15.7554 40.9999 13.2686 40.9999V44.9999V48.9999C11.3371 48.9999 9.77136 47.4341 9.77136 45.5026H13.7714ZM39.7714 4V8C38.1145 8 36.7714 6.65685 36.7714 5H40.7714H44.7714C44.7714 2.23858 42.5328 0 39.7714 0V4Z" fill="white" mask="url(#path-2-outside-1_267_479)"/>
<path d="M40.0777 6.5V12.7539C40.0776 14.4572 38.6971 15.8377 36.9937 15.8379H33.8248C32.1214 15.8379 30.74 14.4573 30.7398 12.7539V6.5H40.0777Z" stroke="white" stroke-width="3" stroke-linecap="round"/>
<path d="M38.81 16.4829L42.7713 20.4443M35.4089 17.5073V22.2609M32.525 16.8986L27.7714 20.8599" stroke="white" stroke-width="5" stroke-linecap="round"/>
<path d="M38.81 16.4829L42.7713 20.4443" stroke="#FEC206" stroke-width="1.58454" stroke-linecap="round"/>
<path d="M35.4089 17.5073V22.2609" stroke="#FEC206" stroke-width="1.58454" stroke-linecap="round"/>
<path d="M32.525 16.8987L27.7714 20.86" stroke="#FEC206" stroke-width="1.58454" stroke-linecap="round"/>
<path d="M41.007 63C41.9909 63 42.9406 63.3626 43.674 64.0186L58.2042 77.0186L58.4474 77.2549C60.8297 79.7466 59.0931 84 55.5363 84H6.00598C2.33441 83.9999 0.602737 79.4668 3.33899 77.0186L17.8683 64.0186L18.0079 63.8994C18.7202 63.3188 19.6126 63.0001 20.5353 63H41.007Z" fill="#D9D9D9" stroke="white" stroke-width="4" stroke-linejoin="round"/>
<path fill-rule="evenodd" clip-rule="evenodd" d="M18.5351 64.7643C19.0851 64.2721 19.7973 64 20.5354 64H41.0072C41.7453 64 42.4575 64.2721 43.0076 64.7643L57.537 77.7643C59.5892 79.6005 58.2903 83 55.5366 83H6.00603C3.25229 83 1.95344 79.6005 4.00565 77.7643L18.5351 64.7643ZM20.5354 66C20.2894 66 20.052 66.0907 19.8687 66.2548L5.33924 79.2548C4.65517 79.8668 5.08811 81 6.00603 81H55.5366C56.4545 81 56.8875 79.8668 56.2034 79.2548L41.674 66.2548C41.4906 66.0907 41.2532 66 41.0072 66H20.5354Z" fill="black"/>
<path d="M29.2714 77C29.2714 76.1716 29.9429 75.5 30.7714 75.5C31.5998 75.5 32.2714 76.1716 32.2714 77L29.2714 77ZM30.7714 81L29.2714 81L29.2714 77L30.7714 77L32.2714 77L32.2714 81L30.7714 81Z" fill="white"/>
<path d="M29.7714 68C29.7714 68.5523 30.2191 69 30.7714 69C31.3236 69 31.7714 68.5523 31.7714 68L29.7714 68ZM30.7714 66L29.7714 66L29.7714 68L30.7714 68L31.7714 68L31.7714 66L30.7714 66Z" fill="white"/>
<path d="M40.7714 5C40.7714 4.44772 40.3236 4 39.7714 4H29.7714H10.7711C10.2188 4 9.77106 4.44772 9.77107 5.00001L9.77136 29.9999V44.4999C9.77136 44.776 9.5475 44.9999 9.27136 44.9999C8.99522 44.9999 8.77136 45.2237 8.77136 45.4999V76.9999L13.7714 71.9999V45.5026C13.7714 45.225 13.5463 44.9999 13.2686 44.9999C12.9931 44.9999 12.769 44.7835 12.7664 44.508C12.7474 42.5334 12.6848 35.0467 12.7714 29.9999C12.8998 22.5096 13.5085 11.6158 13.7079 8.85802C13.7438 8.36218 14.1395 7.97546 14.6356 7.94239L28.7714 7.00011H29.0214C29.4356 7.00011 29.7714 7.33588 29.7714 7.75006C29.7714 8.16424 30.1071 8.5 30.5213 8.50001L39.7714 8.5001C40.3236 8.50011 40.7714 8.05239 40.7714 7.5001V5Z" fill="#D9D9D9"/>
<mask id="path-14-outside-2_267_479" maskUnits="userSpaceOnUse" x="7.77136" y="3" width="34" height="75" fill="black">
<rect fill="white" x="7.77136" y="3" width="34" height="75"/>
<path d="M40.7714 5C40.7714 4.44772 40.3236 4 39.7714 4H29.7714H10.7711C10.2188 4 9.77106 4.44772 9.77107 5.00001L9.77136 29.9999V44.4999C9.77136 44.776 9.5475 44.9999 9.27136 44.9999C8.99522 44.9999 8.77136 45.2237 8.77136 45.4999V74.837L13.7714 70.3669V45.5026C13.7714 45.225 13.5463 44.9999 13.2686 44.9999C12.9931 44.9999 12.769 44.7835 12.7664 44.508C12.7474 42.5334 12.6848 35.0467 12.7714 29.9999C12.8998 22.5096 13.5085 11.6158 13.7079 8.85802C13.7438 8.36218 14.1395 7.97546 14.6356 7.94239L28.7714 7.00011H29.0214C29.4356 7.00011 29.7714 7.33588 29.7714 7.75006C29.7714 8.16424 30.1071 8.5 30.5213 8.50001L39.7714 8.5001C40.3236 8.50011 40.7714 8.05239 40.7714 7.5001V5Z"/>
</mask>
<path d="M40.7714 5C40.7714 4.44772 40.3236 4 39.7714 4H29.7714H10.7711C10.2188 4 9.77106 4.44772 9.77107 5.00001L9.77136 29.9999V44.4999C9.77136 44.776 9.5475 44.9999 9.27136 44.9999C8.99522 44.9999 8.77136 45.2237 8.77136 45.4999V74.837L13.7714 70.3669V45.5026C13.7714 45.225 13.5463 44.9999 13.2686 44.9999C12.9931 44.9999 12.769 44.7835 12.7664 44.508C12.7474 42.5334 12.6848 35.0467 12.7714 29.9999C12.8998 22.5096 13.5085 11.6158 13.7079 8.85802C13.7438 8.36218 14.1395 7.97546 14.6356 7.94239L28.7714 7.00011H29.0214C29.4356 7.00011 29.7714 7.33588 29.7714 7.75006C29.7714 8.16424 30.1071 8.5 30.5213 8.50001L39.7714 8.5001C40.3236 8.50011 40.7714 8.05239 40.7714 7.5001V5Z" fill="#D9D9D9"/>
<path d="M28.7714 7.00011V6.00011C28.7492 6.00011 28.727 6.00085 28.7049 6.00233L28.7714 7.00011ZM9.77136 29.9999H10.7714V29.9999L9.77136 29.9999ZM8.77136 74.837H7.77136V77.0723L9.43785 75.5825L8.77136 74.837ZM13.7714 70.3669L14.4379 71.1125L14.7714 70.8143V70.3669H13.7714ZM12.7714 29.9999L13.7712 30.017L12.7714 29.9999ZM12.7664 44.508L13.7663 44.4984L12.7664 44.508ZM13.7079 8.85802L14.7053 8.93015L13.7079 8.85802ZM14.6356 7.94239L14.7021 8.94018L14.6356 7.94239ZM39.7714 8.5001L39.7713 9.5001L39.7714 8.5001ZM30.5213 8.50001L30.5213 7.50001L30.5213 8.50001ZM9.77107 5.00001L10.7711 5V5L9.77107 5.00001ZM39.7714 4V3H29.7714V4V5H39.7714V4ZM30.5213 8.50001L30.5213 9.50001L39.7713 9.5001L39.7714 8.5001L39.7714 7.5001L30.5213 7.50001L30.5213 8.50001ZM40.7714 7.5001H41.7714V5H40.7714H39.7714V7.5001H40.7714ZM10.7711 4V5H29.7714V4V3H10.7711V4ZM9.77136 29.9999L10.7714 29.9999L10.7711 5L9.77107 5.00001L8.77107 5.00003L8.77136 29.9999L9.77136 29.9999ZM8.77136 74.837H9.77136V45.4999H8.77136H7.77136V74.837H8.77136ZM13.7714 70.3669L13.1049 69.6214L8.10487 74.0915L8.77136 74.837L9.43785 75.5825L14.4379 71.1125L13.7714 70.3669ZM13.7714 45.5026H12.7714V70.3669H13.7714H14.7714V45.5026H13.7714ZM13.7079 8.85802L12.7105 8.78589C12.5101 11.557 11.9003 22.4697 11.7715 29.9827L12.7714 29.9999L13.7712 30.017C13.8992 22.5495 14.5069 11.6746 14.7053 8.93015L13.7079 8.85802ZM28.7714 7.00011L28.7049 6.00233L14.5691 6.94461L14.6356 7.94239L14.7021 8.94018L28.8379 7.9979L28.7714 7.00011ZM12.7714 29.9999L11.7715 29.9827C11.6847 35.045 11.7475 42.5446 11.7664 44.5176L12.7664 44.508L13.7663 44.4984C13.7474 42.5221 13.685 35.0485 13.7712 30.017L12.7714 29.9999ZM9.77136 44.4999H10.7714V29.9999H9.77136H8.77136V44.4999H9.77136ZM28.7714 7.00011V8.00011H29.0214V7.00011V6.00011H28.7714V7.00011ZM29.7714 7.75006H30.7714C30.7714 6.78359 29.9879 6.00011 29.0214 6.00011V7.00011V8.00011C28.8833 8.00011 28.7714 7.88816 28.7714 7.75006H29.7714ZM13.2686 44.9999V43.9999C13.5271 43.9999 13.7636 44.2109 13.7663 44.4984L12.7664 44.508L11.7664 44.5176C11.7745 45.356 12.4591 45.9999 13.2686 45.9999V44.9999ZM9.27136 44.9999V43.9999C8.44294 43.9999 7.77136 44.6715 7.77136 45.4999H8.77136H9.77136C9.77136 45.776 9.5475 45.9999 9.27136 45.9999V44.9999ZM13.7079 8.85802L14.7053 8.93015C14.7054 8.92968 14.7052 8.93175 14.7038 8.93466C14.7026 8.93713 14.7014 8.93865 14.7006 8.93941C14.6999 8.94015 14.6993 8.94047 14.699 8.9406C14.6983 8.9409 14.699 8.94039 14.7021 8.94018L14.6356 7.94239L14.5691 6.94461C13.5845 7.01024 12.783 7.78338 12.7105 8.78589L13.7079 8.85802ZM39.7714 8.5001L39.7713 9.5001C40.8759 9.50011 41.7714 8.60468 41.7714 7.5001H40.7714H39.7714L39.7714 8.5001ZM9.27136 44.9999V45.9999C10.0998 45.9999 10.7714 45.3283 10.7714 44.4999H9.77136H8.77136C8.77136 44.2237 8.99522 43.9999 9.27136 43.9999V44.9999ZM30.5213 8.50001L30.5213 7.50001C30.6594 7.50001 30.7714 7.61196 30.7714 7.75006H29.7714H28.7714C28.7714 8.71652 29.5548 9.5 30.5213 9.50001L30.5213 8.50001ZM10.7711 4V3C9.66649 3 8.77105 3.89545 8.77107 5.00003L9.77107 5.00001L10.7711 5V5V4ZM13.7714 45.5026H14.7714C14.7714 44.6727 14.0986 43.9999 13.2686 43.9999V44.9999V45.9999C12.994 45.9999 12.7714 45.7773 12.7714 45.5026H13.7714ZM39.7714 4V5V5H40.7714H41.7714C41.7714 3.89543 40.8759 3 39.7714 3V4Z" fill="black" mask="url(#path-14-outside-2_267_479)"/>
<path d="M65.7714 52C65.7714 61.9411 57.7125 70 47.7714 70C37.8302 70 29.7714 61.9411 29.7714 52C29.7714 42.0589 37.8302 34 47.7714 34C57.7125 34 65.7714 42.0589 65.7714 52Z" fill="#FF5053"/>
<path d="M54.7557 46.4219L49.1776 52L54.7557 57.5781L53.3495 58.9844L47.7714 53.4062L42.1932 58.9844L40.787 57.5781L46.3651 52L40.787 46.4219L42.1932 45.0156L47.7714 50.5938L53.3495 45.0156L54.7557 46.4219Z" fill="white"/>
<path fill-rule="evenodd" clip-rule="evenodd" d="M67.7714 52C67.7714 63.0457 58.8171 72 47.7714 72C36.7257 72 27.7714 63.0457 27.7714 52C27.7714 40.9543 36.7257 32 47.7714 32C58.8171 32 67.7714 40.9543 67.7714 52ZM47.7714 70C57.7125 70 65.7714 61.9411 65.7714 52C65.7714 42.0589 57.7125 34 47.7714 34C37.8302 34 29.7714 42.0589 29.7714 52C29.7714 61.9411 37.8302 70 47.7714 70Z" fill="black"/>
</svg>
