<svg width="128" height="128" viewBox="0 0 128 128" fill="none" xmlns="http://www.w3.org/2000/svg">
<circle cx="64" cy="64" r="64" fill="#3C4043"/>
<path d="M82 92.5C93.3218 92.5 102.5 83.3218 102.5 72C102.5 60.6782 93.3218 51.5 82 51.5C70.6782 51.5 61.5 60.6782 61.5 72C61.5 83.3218 70.6782 92.5 82 92.5Z" stroke="white" stroke-width="5"/>
<mask id="path-3-outside-1_228_523" maskUnits="userSpaceOnUse" x="39" y="20" width="40" height="74" fill="black">
<rect fill="white" x="39" y="20" width="40" height="74"/>
<path d="M75 25C75 24.4477 74.5523 24 74 24H64H44.9997C44.4474 24 43.9997 24.4477 43.9997 25L44 49.9999V64.4999C44 64.776 43.7761 64.9999 43.5 64.9999C43.2239 64.9999 43 65.2237 43 65.4999V89.9999H48V65.5026C48 65.225 47.7749 64.9999 47.4973 64.9999C47.2217 64.9999 46.9977 64.7835 46.995 64.508C46.9761 62.5334 46.9135 55.0467 47 49.9999C47.1284 42.5096 47.7371 31.6158 47.9366 28.858C47.9724 28.3622 48.3682 27.9755 48.8642 27.9424L63 27.0001H63.2501C63.6642 27.0001 64 27.3359 64 27.7501C64 28.1642 64.3358 28.5 64.7499 28.5L74 28.5001C74.5523 28.5001 75 28.0524 75 27.5001V25Z"/>
</mask>
<path d="M75 25C75 24.4477 74.5523 24 74 24H64H44.9997C44.4474 24 43.9997 24.4477 43.9997 25L44 49.9999V64.4999C44 64.776 43.7761 64.9999 43.5 64.9999C43.2239 64.9999 43 65.2237 43 65.4999V89.9999H48V65.5026C48 65.225 47.7749 64.9999 47.4973 64.9999C47.2217 64.9999 46.9977 64.7835 46.995 64.508C46.9761 62.5334 46.9135 55.0467 47 49.9999C47.1284 42.5096 47.7371 31.6158 47.9366 28.858C47.9724 28.3622 48.3682 27.9755 48.8642 27.9424L63 27.0001H63.2501C63.6642 27.0001 64 27.3359 64 27.7501C64 28.1642 64.3358 28.5 64.7499 28.5L74 28.5001C74.5523 28.5001 75 28.0524 75 27.5001V25Z" fill="#D9D9D9"/>
<path d="M63 27.0001V23.0001C62.9112 23.0001 62.8225 23.0031 62.734 23.009L63 27.0001ZM44 49.9999H48V49.9998L44 49.9999ZM43 89.9999H39V93.9999H43V89.9999ZM48 89.9999V93.9999H52V89.9999H48ZM47 49.9999L50.9994 50.0684L47 49.9999ZM46.995 64.508L50.9948 64.4695L46.995 64.508ZM47.9366 28.858L51.9262 29.1465L47.9366 28.858ZM48.8642 27.9424L49.1303 31.9335L48.8642 27.9424ZM74 28.5001L74 32.5001L74 28.5001ZM64.7499 28.5L64.75 24.5L64.7499 28.5ZM43.9997 25L47.9997 25V25L43.9997 25ZM74 20H64V28H74V20ZM64.7499 32.5L74 32.5001L74 24.5001L64.75 24.5L64.7499 32.5ZM79 27.5001V25H71V27.5001H79ZM44.9997 28H64V20H44.9997V28ZM48 49.9998L47.9997 25L39.9997 25.0001L40 49.9999L48 49.9998ZM47 89.9999V65.4999H39V89.9999H47ZM48 85.9999H43V93.9999H48V85.9999ZM44 65.5026V89.9999H52V65.5026H44ZM43.947 28.5695C43.7437 31.3805 43.1306 42.35 43.0006 49.9313L50.9994 50.0684C51.1263 42.6692 51.7306 31.8511 51.9262 29.1465L43.947 28.5695ZM62.734 23.009L48.5982 23.9513L49.1303 31.9335L63.266 30.9913L62.734 23.009ZM43.0006 49.9313C42.913 55.0397 42.9763 62.5783 42.9952 64.5464L50.9948 64.4695C50.9758 62.4884 50.914 55.0537 50.9994 50.0684L43.0006 49.9313ZM48 64.4999V49.9999H40V64.4999H48ZM63 31.0001H63.2501V23.0001H63V31.0001ZM68 27.7501C68 25.1267 65.8734 23.0001 63.2501 23.0001V31.0001C61.4551 31.0001 60 29.545 60 27.7501H68ZM47.4973 60.9999C49.3579 60.9999 50.9759 62.4934 50.9948 64.4695L42.9952 64.5464C43.0195 67.0735 45.0856 68.9999 47.4973 68.9999V60.9999ZM43.5 60.9999C41.0147 60.9999 39 63.0146 39 65.4999H47C47 67.4329 45.433 68.9999 43.5 68.9999V60.9999ZM51.9262 29.1465C51.8154 30.6774 50.5884 31.8363 49.1303 31.9335L48.5982 23.9513C46.1479 24.1146 44.1294 26.047 43.947 28.5695L51.9262 29.1465ZM74 32.5001C76.7614 32.5001 79 30.2615 79 27.5001H71C71 25.8432 72.3432 24.5001 74 24.5001L74 32.5001ZM43.5 68.9999C45.9853 68.9999 48 66.9852 48 64.4999H40C40 62.5669 41.567 60.9999 43.5 60.9999V68.9999ZM64.75 24.5C66.5449 24.5 68 25.9551 68 27.7501H60C60 30.3734 62.1266 32.5 64.7499 32.5L64.75 24.5ZM44.9997 20C42.2382 20 39.9997 22.2386 39.9997 25.0001L47.9997 25C47.9997 26.6568 46.6566 28 44.9997 28V20ZM52 65.5026C52 63.0159 49.9841 60.9999 47.4973 60.9999V68.9999C45.5658 68.9999 44 67.4341 44 65.5026H52ZM74 28C72.3431 28 71 26.6569 71 25H79C79 22.2386 76.7614 20 74 20V28Z" fill="white" mask="url(#path-3-outside-1_228_523)"/>
<path d="M74.3067 28V26.5H72.8067H66.4685H64.9685V28V32.7536C64.9685 34.4572 66.3495 35.8381 68.053 35.8381H71.2221C72.9257 35.8381 74.3067 34.4571 74.3067 32.7536V28Z" stroke="white" stroke-width="3" stroke-linecap="round"/>
<path d="M73.0386 36.4829L77 40.4443M69.6376 37.5073V42.2609M66.7536 36.8986L62 40.8599" stroke="white" stroke-width="5" stroke-linecap="round"/>
<path d="M73.0386 36.4829L77 40.4443" stroke="#FEC206" stroke-width="1.58454" stroke-linecap="round"/>
<path d="M69.6376 37.5073V42.2609" stroke="#FEC206" stroke-width="1.58454" stroke-linecap="round"/>
<path d="M66.7537 36.8987L62.0001 40.86" stroke="#FEC206" stroke-width="1.58454" stroke-linecap="round"/>
<path d="M76.5695 85.5095L77.9031 84.019L92.4325 97.019C95.1688 99.4673 93.437 104 89.7653 104H40.2347C36.5631 104 34.8313 99.4673 37.5676 97.019L52.097 84.019M76.5695 85.5095L52.097 84.019M76.5695 85.5095L77.9031 84.019C77.1696 83.3628 76.22 83 75.2359 83H54.7641C53.78 83 52.8304 83.3628 52.097 84.019M76.5695 85.5095L52.097 84.019" fill="#D9D9D9" stroke="white" stroke-width="4" stroke-linejoin="round"/>
<path fill-rule="evenodd" clip-rule="evenodd" d="M52.7637 84.7643C53.3138 84.2721 54.026 84 54.7641 84H75.2358C75.9739 84 76.6861 84.2721 77.2362 84.7643L91.7656 97.7643C93.8178 99.6005 92.519 103 89.7652 103H40.2347C37.4809 103 36.1821 99.6005 38.2343 97.7643L52.7637 84.7643ZM54.7641 86C54.518 86 54.2806 86.0907 54.0973 86.2548L39.5679 99.2548C38.8838 99.8668 39.3168 101 40.2347 101H89.7652C90.6832 101 91.1161 99.8668 90.432 99.2548L75.9026 86.2548C75.7193 86.0907 75.4819 86 75.2358 86H54.7641Z" fill="black"/>
<path d="M63.5 97C63.5 96.1716 64.1716 95.5 65 95.5C65.8284 95.5 66.5 96.1716 66.5 97L63.5 97ZM63.5 101L63.5 97L66.5 97L66.5 101L63.5 101Z" fill="white"/>
<path d="M64 88C64 88.5523 64.4477 89 65 89C65.5523 89 66 88.5523 66 88L64 88ZM64 86L64 88L66 88L66 86L64 86Z" fill="white"/>
<path d="M75 25C75 24.4477 74.5523 24 74 24H64H44.9997C44.4474 24 43.9997 24.4477 43.9997 25L44 49.9999V64.4999C44 64.776 43.7761 64.9999 43.5 64.9999C43.2239 64.9999 43 65.2237 43 65.4999V96.9999L48 91.9999V65.5026C48 65.225 47.7749 64.9999 47.4973 64.9999C47.2217 64.9999 46.9977 64.7835 46.995 64.508C46.9761 62.5334 46.9135 55.0467 47 49.9999C47.1284 42.5096 47.7371 31.6158 47.9366 28.858C47.9724 28.3622 48.3682 27.9755 48.8642 27.9424L63 27.0001H63.2501C63.6642 27.0001 64 27.3359 64 27.7501C64 28.1642 64.3358 28.5 64.7499 28.5L74 28.5001C74.5523 28.5001 75 28.0524 75 27.5001V25Z" fill="#D9D9D9"/>
<mask id="path-15-outside-2_228_523" maskUnits="userSpaceOnUse" x="42" y="23" width="34" height="75" fill="black">
<rect fill="white" x="42" y="23" width="34" height="75"/>
<path d="M75 25C75 24.4477 74.5523 24 74 24H64H44.9997C44.4474 24 43.9997 24.4477 43.9997 25L44 49.9999V64.4999C44 64.776 43.7761 64.9999 43.5 64.9999C43.2239 64.9999 43 65.2237 43 65.4999V94.837L48 90.3669V65.5026C48 65.225 47.7749 64.9999 47.4973 64.9999C47.2217 64.9999 46.9977 64.7835 46.995 64.508C46.9761 62.5334 46.9135 55.0467 47 49.9999C47.1284 42.5096 47.7371 31.6158 47.9366 28.858C47.9724 28.3622 48.3682 27.9755 48.8642 27.9424L63 27.0001H63.2501C63.6642 27.0001 64 27.3359 64 27.7501C64 28.1642 64.3358 28.5 64.7499 28.5L74 28.5001C74.5523 28.5001 75 28.0524 75 27.5001V25Z"/>
</mask>
<path d="M75 25C75 24.4477 74.5523 24 74 24H64H44.9997C44.4474 24 43.9997 24.4477 43.9997 25L44 49.9999V64.4999C44 64.776 43.7761 64.9999 43.5 64.9999C43.2239 64.9999 43 65.2237 43 65.4999V94.837L48 90.3669V65.5026C48 65.225 47.7749 64.9999 47.4973 64.9999C47.2217 64.9999 46.9977 64.7835 46.995 64.508C46.9761 62.5334 46.9135 55.0467 47 49.9999C47.1284 42.5096 47.7371 31.6158 47.9366 28.858C47.9724 28.3622 48.3682 27.9755 48.8642 27.9424L63 27.0001H63.2501C63.6642 27.0001 64 27.3359 64 27.7501C64 28.1642 64.3358 28.5 64.7499 28.5L74 28.5001C74.5523 28.5001 75 28.0524 75 27.5001V25Z" fill="#D9D9D9"/>
<path d="M63 27.0001V26.0001C62.9778 26.0001 62.9556 26.0009 62.9335 26.0023L63 27.0001ZM44 49.9999H45V49.9999L44 49.9999ZM43 94.837H42V97.0723L43.6665 95.5825L43 94.837ZM48 90.3669L48.6665 91.1125L49 90.8143V90.3669H48ZM47 49.9999L47.9999 50.017L47 49.9999ZM46.995 64.508L47.995 64.4984L46.995 64.508ZM47.9366 28.858L48.934 28.9302L47.9366 28.858ZM48.8642 27.9424L48.9307 28.9402L48.8642 27.9424ZM74 28.5001L74 29.5001L74 28.5001ZM64.7499 28.5L64.75 27.5L64.7499 28.5ZM43.9997 25L44.9997 25V25L43.9997 25ZM74 23H64V25H74V23ZM64.7499 29.5L74 29.5001L74 27.5001L64.75 27.5L64.7499 29.5ZM76 27.5001V25H74V27.5001H76ZM44.9997 25H64V23H44.9997V25ZM45 49.9999L44.9997 25L42.9997 25L43 49.9999L45 49.9999ZM44 94.837V65.4999H42V94.837H44ZM47.3335 89.6214L42.3335 94.0915L43.6665 95.5825L48.6665 91.1125L47.3335 89.6214ZM47 65.5026V90.3669H49V65.5026H47ZM46.9392 28.7859C46.7388 31.557 46.1289 42.4697 46.0001 49.9827L47.9999 50.017C48.1279 42.5495 48.7355 31.6746 48.934 28.9302L46.9392 28.7859ZM62.9335 26.0023L48.7977 26.9446L48.9307 28.9402L63.0665 27.9979L62.9335 26.0023ZM46.0001 49.9827C45.9134 55.045 45.9761 62.5446 45.9951 64.5176L47.995 64.4984C47.976 62.5221 47.9136 55.0485 47.9999 50.017L46.0001 49.9827ZM45 64.4999V49.9999H43V64.4999H45ZM63 28.0001H63.2501V26.0001H63V28.0001ZM65 27.7501C65 26.7836 64.2165 26.0001 63.2501 26.0001V28.0001C63.112 28.0001 63 27.8882 63 27.7501H65ZM47.4973 63.9999C47.7558 63.9999 47.9922 64.2109 47.995 64.4984L45.9951 64.5176C46.0031 65.356 46.6877 65.9999 47.4973 65.9999V63.9999ZM43.5 63.9999C42.6716 63.9999 42 64.6715 42 65.4999H44C44 65.776 43.7761 65.9999 43.5 65.9999V63.9999ZM48.934 28.9302C48.934 28.9297 48.9338 28.9318 48.9324 28.9347C48.9313 28.9371 48.93 28.9387 48.9292 28.9394C48.9285 28.9401 48.9279 28.9405 48.9276 28.9406C48.927 28.9409 48.9276 28.9404 48.9307 28.9402L48.7977 26.9446C47.8131 27.0102 47.0117 27.7834 46.9392 28.7859L48.934 28.9302ZM74 29.5001C75.1046 29.5001 76 28.6047 76 27.5001H74L74 29.5001ZM43.5 65.9999C44.3284 65.9999 45 65.3283 45 64.4999H43C43 64.2237 43.2239 63.9999 43.5 63.9999V65.9999ZM64.75 27.5C64.888 27.5 65 27.612 65 27.7501H63C63 28.7165 63.7835 29.5 64.7499 29.5L64.75 27.5ZM44.9997 23C43.8951 23 42.9997 23.8954 42.9997 25L44.9997 25V25V23ZM49 65.5026C49 64.6727 48.3272 63.9999 47.4973 63.9999V65.9999C47.2226 65.9999 47 65.7773 47 65.5026H49ZM74 25V25H76C76 23.8954 75.1046 23 74 23V25Z" fill="black" mask="url(#path-15-outside-2_228_523)"/>
<path d="M100 72C100 81.9411 91.9411 90 82 90C72.0589 90 64 81.9411 64 72C64 62.0589 72.0589 54 82 54C91.9411 54 100 62.0589 100 72Z" fill="#FF5053"/>
<path d="M88.9844 66.4219L83.4062 72L88.9844 77.5781L87.5781 78.9844L82 73.4062L76.4219 78.9844L75.0156 77.5781L80.5938 72L75.0156 66.4219L76.4219 65.0156L82 70.5938L87.5781 65.0156L88.9844 66.4219Z" fill="white"/>
<path fill-rule="evenodd" clip-rule="evenodd" d="M102 72C102 83.0457 93.0457 92 82 92C70.9543 92 62 83.0457 62 72C62 60.9543 70.9543 52 82 52C93.0457 52 102 60.9543 102 72ZM82 90C91.9411 90 100 81.9411 100 72C100 62.0589 91.9411 54 82 54C72.0589 54 64 62.0589 64 72C64 81.9411 72.0589 90 82 90Z" fill="black"/>
</svg>
