<svg width="128" height="128" viewBox="0 0 128 128" fill="none" xmlns="http://www.w3.org/2000/svg">
<circle cx="64" cy="64" r="64" fill="#3C4043"/>
<g filter="url(#filter0_i_234_459)">
<path d="M36.0165 74.9707C36.1116 72.3201 37.0159 67.9749 37.0159 67.9749C37.0159 67.9749 42.3928 76.7543 46.5102 74.9707C50.7861 73.1185 47.5096 67.138 47.5096 62.4782C47.5096 58.0124 48.0172 56.0224 49.5084 51.9844C51.731 45.9658 55.3757 44.0947 58.503 38.4925C61.1027 33.8356 64.4994 26 64.4994 26C64.4994 26 67.749 37.1335 67.4976 44.4889C67.2903 50.5572 60.9837 54.7146 64.4994 59.48C65.5676 60.9277 66.2187 62.2075 67.9973 62.4782C70.468 62.8541 71.2126 60.2054 72.9943 58.4806C75.5918 55.9661 78.9908 51.9844 78.9908 51.9844C78.9908 51.9844 76.6959 58.6616 76.4923 63.4776C76.2886 68.2935 77.9914 75.9701 77.9914 75.9701C82.5089 75.3812 89.9842 67.9749 89.9842 67.9749C89.9842 67.9749 90.8878 72.101 90.9835 74.7516C91.5335 89.979 78.2345 102.266 63.0003 101.955C48.0771 101.65 35.4811 89.8875 36.0165 74.9707Z" fill="#FFBA17"/>
</g>
<path d="M37.0159 67.9749L34.5683 67.4655C34.7772 66.4619 35.5776 65.6875 36.5876 65.5118C37.5973 65.3363 38.6118 65.7947 39.1473 66.6684L39.1478 66.6692L39.1542 66.6795C39.1614 66.691 39.1735 66.7103 39.1902 66.7369C39.2239 66.79 39.2763 66.872 39.3458 66.9782C39.4852 67.1908 39.6923 67.4986 39.9542 67.865C40.483 68.6048 41.2116 69.55 42.0381 70.4268C42.8862 71.3264 43.7248 72.0325 44.4576 72.4196C45.1871 72.805 45.4562 72.7028 45.5165 72.6767C45.9311 72.4971 46.0248 72.3259 46.0955 72.1113C46.2148 71.7487 46.2607 71.1261 46.1321 70.0831C46.036 69.3035 45.8753 68.4992 45.6917 67.58C45.6299 67.2706 45.5655 66.9483 45.5001 66.6094C45.257 65.3507 45.0096 63.9008 45.0096 62.4782C45.0096 60.1476 45.1418 58.3563 45.4987 56.5788C45.8521 54.8187 46.4088 53.1613 47.1632 51.1184C48.416 47.7259 50.0846 45.501 51.7358 43.494C51.9839 43.1924 52.2288 42.8987 52.4707 42.6085C53.8376 40.969 55.1082 39.4449 56.3201 37.2739C57.5709 35.0334 59.0369 31.9828 60.2067 29.4513C60.7876 28.194 61.2884 27.0803 61.6438 26.2812C61.8214 25.8818 61.9625 25.5615 62.0589 25.3417C62.1071 25.2318 62.1441 25.147 62.1689 25.0901L62.1968 25.026L62.2037 25.0102L62.2053 25.0065L62.2056 25.0057L62.2057 25.0057L37.0159 67.9749ZM37.0159 67.9749C34.5683 67.4655 34.5683 67.4656 34.5683 67.4658L34.5682 67.4662L34.568 67.4673L34.5673 67.4706L34.5649 67.482L34.5565 67.523C34.5493 67.5583 34.5389 67.6092 34.5258 67.6743C34.4997 67.8044 34.4626 67.9914 34.418 68.2233C34.329 68.6865 34.2093 69.3324 34.0863 70.0649C33.8461 71.4959 33.5719 73.3815 33.5181 74.881C32.9262 91.3733 46.8182 104.125 62.9493 104.454C79.4716 104.791 94.0889 91.4676 93.4819 74.6614C93.4275 73.1559 93.1519 71.3213 92.9107 69.9394C92.7873 69.2321 92.6671 68.6118 92.5777 68.1676C92.5329 67.9452 92.4957 67.7661 92.4693 67.6413C92.463 67.6111 92.4573 67.5841 92.4522 67.5604C92.4468 67.5351 92.4422 67.5135 92.4384 67.496L92.4299 67.4563L92.4274 67.4452L92.4267 67.4419L92.4265 67.4408L92.4264 67.4404C92.4263 67.4402 92.4263 67.44 89.9842 67.9749L92.4263 67.44C92.2313 66.5494 91.5668 65.8356 90.6924 65.5773C89.8182 65.319 88.8727 65.5571 88.225 66.1986L88.2246 66.1989L88.2229 66.2006L88.2105 66.2128L88.155 66.2671C88.1046 66.3162 88.0279 66.3905 87.9274 66.4864C87.7263 66.6785 87.4307 66.9569 87.0609 67.2942C86.319 67.9708 85.2891 68.8746 84.1307 69.791C82.9656 70.7128 81.7101 71.6157 80.5141 72.3114C80.2978 72.4372 80.0897 72.5525 79.8904 72.6574C79.807 72.1882 79.7201 71.677 79.6345 71.1378C79.2382 68.6411 78.8994 65.7261 78.99 63.5832C79.0801 61.4528 79.6473 58.7911 80.2352 56.5627C80.5235 55.4699 80.806 54.5207 81.016 53.8462C81.1208 53.5094 81.2072 53.2425 81.2666 53.0619C81.2774 53.029 81.2873 52.999 81.2963 52.972C81.3119 52.9248 81.3247 52.8867 81.3343 52.8582L81.3509 52.809L81.3546 52.7982L81.355 52.797L37.0159 67.9749ZM66.8993 25.2996L64.4994 26C66.8993 25.2996 66.8994 25.2998 66.8995 25.3001L66.8997 25.301L66.9004 25.3035L66.9027 25.3114L66.9108 25.3393L66.9402 25.442C66.9655 25.5307 67.0019 25.6596 67.0477 25.825C67.1394 26.1557 67.2689 26.6326 67.4231 27.2265C67.731 28.4132 68.1388 30.073 68.539 31.9702C69.3275 35.7088 70.1327 40.5782 69.9962 44.5743C69.8896 47.6937 68.444 50.4772 67.3995 52.4883C67.1975 52.8774 67.0104 53.2376 66.851 53.5657C66.2931 54.7138 66.0045 55.5237 65.9462 56.1965C65.8985 56.7463 65.9942 57.295 66.5112 57.9957C66.6597 58.197 66.7984 58.3919 66.9224 58.5668L66.9642 58.6257C67.0745 58.7812 67.1708 58.917 67.2664 59.0482C67.4827 59.3447 67.6391 59.5382 67.7765 59.68C67.9857 59.8957 68.1167 59.9675 68.3734 60.0066C68.4177 60.0133 68.4456 60.0144 68.4601 60.0142C68.4981 59.9928 68.6245 59.9081 68.8624 59.6328C69.0734 59.3886 69.2656 59.1262 69.5282 58.7678C69.6109 58.655 69.7005 58.5327 69.7999 58.3984C70.1735 57.8936 70.6547 57.266 71.2555 56.6843C72.4891 55.4902 73.9408 53.9192 75.1053 52.6206C75.6827 51.9766 76.1806 51.4097 76.5337 51.0042C76.7101 50.8015 76.8501 50.6396 76.9455 50.5288L77.054 50.4026L77.0812 50.3708L77.0877 50.3632L77.0891 50.3615L77.0894 50.3613L66.8993 25.2996ZM66.8993 25.2996C66.6042 24.2884 65.7069 23.5707 64.6557 23.5049C63.6044 23.4391 62.6247 24.0392 62.2057 25.0056L66.8993 25.2996ZM80.2304 49.8134C81.2729 50.4087 81.7451 51.661 81.3552 52.7964L80.2304 49.8134ZM80.2304 49.8134C79.1877 49.2181 77.869 49.448 77.0894 50.3612L80.2304 49.8134Z" stroke="white" stroke-width="5" stroke-linejoin="round"/>
<g filter="url(#filter1_i_234_459)">
<path d="M36.0165 74.9707C36.1116 72.3201 37.0159 67.9749 37.0159 67.9749C37.0159 67.9749 42.3928 76.7543 46.5102 74.9707C50.7861 73.1185 47.5096 67.138 47.5096 62.4782C47.5096 58.0124 48.0172 56.0224 49.5084 51.9844C51.731 45.9658 55.3757 44.0947 58.503 38.4925C61.1027 33.8356 64.4994 26 64.4994 26C64.4994 26 67.749 37.1335 67.4976 44.4889C67.2903 50.5572 60.9837 54.7146 64.4994 59.48C65.5676 60.9277 66.2187 62.2075 67.9973 62.4782C70.468 62.8541 71.2126 60.2054 72.9944 58.4806C75.5918 55.9661 78.9908 51.9844 78.9908 51.9844C78.9908 51.9844 76.6959 58.6616 76.4923 63.4776C76.2886 68.2935 77.9914 75.9701 77.9914 75.9701C82.5089 75.3812 89.9842 67.9749 89.9842 67.9749C89.9842 67.9749 90.8878 72.101 90.9835 74.7516C91.5335 89.979 78.2345 102.266 63.0003 101.955C48.0771 101.65 35.4811 89.8875 36.0165 74.9707Z" fill="#FFBA17"/>
</g>
<path d="M37.8685 67.4523C37.8686 67.4524 37.8686 67.4525 37.8687 67.4526L37.8688 67.4527L37.8708 67.456L37.8806 67.4718C37.8896 67.4863 37.9036 67.5088 37.9225 67.5386C37.9601 67.5981 38.017 67.687 38.0913 67.8004C38.2401 68.0275 38.4586 68.3522 38.7339 68.7373C39.2865 69.5103 40.0584 70.5134 40.9467 71.4557C41.8436 72.4071 42.8139 73.2477 43.7568 73.7459C44.6985 74.2434 45.471 74.3311 46.1127 74.0531C46.9199 73.7034 47.3156 73.2023 47.5203 72.5801C47.7445 71.8987 47.7577 71.0095 47.6209 69.8996C47.5173 69.0595 47.3413 68.1792 47.1543 67.2433C47.0943 66.9431 47.0331 66.6372 46.9729 66.3251C46.7314 65.0746 46.5096 63.7462 46.5096 62.4782C46.5096 60.2062 46.6386 58.5213 46.9694 56.874C47.2987 55.2337 47.8212 53.6666 48.5703 51.638C49.7382 48.4754 51.2858 46.402 52.8942 44.447C53.1328 44.157 53.3716 43.8707 53.6103 43.5846C54.9802 41.9426 56.345 40.3068 57.6299 38.0051C58.9101 35.7118 60.396 32.6177 61.5683 30.0804C62.153 28.8152 62.6568 27.6948 63.0144 26.8907C63.1931 26.4888 63.3353 26.1661 63.4326 25.9441C63.4813 25.8332 63.5187 25.7474 63.544 25.6895L63.5725 25.624L63.5797 25.6075L63.5814 25.6035L63.5818 25.6025L63.5819 25.6023L64.4994 26M37.8685 67.4523L79.9365 52.3094C80.0926 51.8552 79.9037 51.3542 79.4866 51.116C79.0695 50.8779 78.542 50.9699 78.2302 51.3352L78.2301 51.3353L78.2297 51.3357L78.2281 51.3377L78.2211 51.3459L78.1928 51.3789L78.082 51.5078C77.985 51.6204 77.8433 51.7844 77.6649 51.9892C77.3081 52.3989 76.8054 52.9715 76.2221 53.622C75.0516 54.9273 73.5715 56.5301 72.2988 57.7621C71.7912 58.2534 71.3704 58.7979 71.0055 59.2908C70.9208 59.4053 70.84 59.5156 70.762 59.6221C70.4893 59.9945 70.2512 60.3197 69.9975 60.6134C69.679 60.9821 69.4 61.2217 69.1229 61.3601C68.8679 61.4875 68.5675 61.5534 68.1478 61.4895C67.0606 61.3241 66.6273 60.7212 65.77 59.5284C65.628 59.3308 65.4743 59.117 65.3041 58.8863C64.57 57.8912 64.3727 56.9797 64.4518 56.0669C64.5352 55.105 64.9297 54.0874 65.5018 52.9101C65.6885 52.5259 65.8956 52.1246 66.1114 51.7067C67.1567 49.6816 68.4033 47.2666 68.4971 44.5231C68.6271 40.718 67.8552 35.9969 67.0713 32.2798C66.6769 30.4101 66.2748 28.7732 65.9712 27.6033C65.8193 27.0182 65.6919 26.5492 65.6022 26.2257C65.5574 26.0639 65.522 25.9384 65.4976 25.8529L65.4696 25.755L65.4622 25.7294L65.4602 25.7226L65.4596 25.7207L65.4595 25.7201C65.4594 25.72 65.4594 25.7198 64.4994 26M37.8685 67.4523C37.6543 67.1028 37.2485 66.9194 36.8446 66.9897C36.4406 67.0599 36.1204 67.3697 36.0369 67.7711L37.0159 67.9749C36.0369 67.7711 36.0368 67.7712 36.0368 67.7713L36.0368 67.7715L36.0366 67.7723L36.036 67.7751L36.0339 67.7852L36.026 67.8238C36.0191 67.8574 36.0091 67.9065 35.9964 67.9698C35.971 68.0962 35.9348 68.2791 35.8911 68.5065C35.8037 68.961 35.6862 69.5949 35.5656 70.3133C35.3268 71.7362 35.0672 73.5398 35.0171 74.9348C34.4592 90.4818 47.5735 102.64 62.9799 102.954C78.7293 103.276 92.5557 90.5745 91.9829 74.7155C91.9324 73.3182 91.6723 71.5678 91.4331 70.1973C91.3123 69.5056 91.1947 68.8983 91.1072 68.4636C91.0634 68.2462 91.0271 68.0716 91.0017 67.9509C90.9889 67.8905 90.9789 67.8436 90.972 67.8115L90.964 67.7746L90.9619 67.7648L90.9613 67.7621L90.9611 67.7613L90.9611 67.7611C90.961 67.761 90.961 67.7609 89.9842 67.9749L90.961 67.7609C90.883 67.4047 90.6172 67.1192 90.2675 67.0158C89.9177 66.9125 89.5394 67.0078 89.2804 67.2645L89.2797 67.2651L89.2764 67.2684L89.2618 67.2828L89.2015 67.3418C89.1478 67.394 89.0676 67.4716 88.9634 67.5711C88.7551 67.7702 88.4511 68.0565 88.0717 68.4025C87.3121 69.0952 86.2548 70.0233 85.0614 70.9674C83.8653 71.9137 82.5483 72.8634 81.2683 73.608C80.359 74.1369 79.51 74.5373 78.7632 74.7716C78.7461 74.6866 78.7282 74.5967 78.7097 74.5023C78.555 73.7164 78.3508 72.6187 78.1531 71.373C77.7544 68.8616 77.394 65.8218 77.4914 63.5198C77.5885 61.2229 78.1902 58.4342 78.7848 56.1801C79.0799 55.0616 79.3688 54.0908 79.5838 53.4003C79.6912 53.0552 79.78 52.7806 79.8417 52.5932C79.8725 52.4995 79.8965 52.4276 79.9127 52.3796L79.9309 52.3258L79.9353 52.3129L79.9363 52.31L79.9365 52.3095L37.8685 67.4523ZM64.4994 26L63.5819 25.6023C63.7495 25.2157 64.1414 24.9756 64.5619 25.002C64.9824 25.0283 65.3413 25.3154 65.4594 25.7198L64.4994 26Z" stroke="black" stroke-width="2" stroke-linejoin="round"/>
<defs>
<filter id="filter0_i_234_459" x="29.9996" y="20.9999" width="66.0007" height="86.9603" filterUnits="userSpaceOnUse" color-interpolation-filters="sRGB">
<feFlood flood-opacity="0" result="BackgroundImageFix"/>
<feBlend mode="normal" in="SourceGraphic" in2="BackgroundImageFix" result="shape"/>
<feColorMatrix in="SourceAlpha" type="matrix" values="0 0 0 0 0 0 0 0 0 0 0 0 0 0 0 0 0 0 127 0" result="hardAlpha"/>
<feOffset dx="-3" dy="4"/>
<feGaussianBlur stdDeviation="0.5"/>
<feComposite in2="hardAlpha" operator="arithmetic" k2="-1" k3="1"/>
<feColorMatrix type="matrix" values="0 0 0 0 0.875 0 0 0 0 0 0 0 0 0 0 0 0 0 0.25 0"/>
<feBlend mode="normal" in2="shape" result="effect1_innerShadow_234_459"/>
</filter>
<filter id="filter1_i_234_459" x="32.9999" y="24" width="60.0003" height="80.9603" filterUnits="userSpaceOnUse" color-interpolation-filters="sRGB">
<feFlood flood-opacity="0" result="BackgroundImageFix"/>
<feBlend mode="normal" in="SourceGraphic" in2="BackgroundImageFix" result="shape"/>
<feColorMatrix in="SourceAlpha" type="matrix" values="0 0 0 0 0 0 0 0 0 0 0 0 0 0 0 0 0 0 127 0" result="hardAlpha"/>
<feOffset dx="-3" dy="4"/>
<feGaussianBlur stdDeviation="0.5"/>
<feComposite in2="hardAlpha" operator="arithmetic" k2="-1" k3="1"/>
<feColorMatrix type="matrix" values="0 0 0 0 0.875 0 0 0 0 0 0 0 0 0 0 0 0 0 0.25 0"/>
<feBlend mode="normal" in2="shape" result="effect1_innerShadow_234_459"/>
</filter>
</defs>
</svg>
