<svg width="128" height="128" viewBox="0 0 128 128" fill="none" xmlns="http://www.w3.org/2000/svg">
<circle cx="64" cy="64" r="64" fill="#3C4043"/>
<g filter="url(#filter0_i_228_487)">
<path d="M38.0078 53.2088C38.0529 51.9526 38.4815 49.8932 38.4815 49.8932C38.4815 49.8932 41.0297 54.0541 42.9811 53.2088C45.0076 52.3309 43.4548 49.4966 43.4548 47.2882C43.4548 45.1717 43.6953 44.2286 44.4021 42.3149C45.4554 39.4624 47.1827 38.5756 48.6649 35.9206C49.897 33.7135 51.5068 30 51.5068 30C51.5068 30 53.0468 35.2765 52.9277 38.7625C52.8295 41.6384 49.8406 43.6088 51.5068 45.8672C52.013 46.5534 52.3216 47.1599 53.1646 47.2882C54.3355 47.4663 54.6884 46.211 55.5328 45.3936C56.7638 44.2019 58.3747 42.3149 58.3747 42.3149C58.3747 42.3149 57.2871 45.4794 57.1906 47.7618C57.094 50.0442 57.901 53.6824 57.901 53.6824C60.042 53.4033 63.5848 49.8932 63.5848 49.8932C63.5848 49.8932 64.0131 51.8487 64.0584 53.1049C64.3191 60.3217 58.0163 66.1447 50.7963 65.9973C43.7237 65.8529 37.7541 60.2783 38.0078 53.2088Z" fill="#FFBA17"/>
</g>
<path d="M38.4815 49.8932L36.0339 49.3839C36.2428 48.3802 37.0432 47.6058 38.0532 47.4302C39.0616 47.2548 40.0749 47.7119 40.611 48.5836C40.6114 48.5843 40.6119 48.5851 40.6123 48.5858C40.6125 48.586 40.6126 48.5863 40.6128 48.5865L40.6124 48.5859L40.6235 48.6036C40.6359 48.6231 40.6568 48.6559 40.6856 48.6999C40.7435 48.7881 40.8316 48.9192 40.9439 49.0763C41.02 49.1827 41.1045 49.2974 41.1959 49.4162C41.0827 48.8231 40.9548 48.063 40.9548 47.2882C40.9548 46.1323 41.0202 45.19 41.2123 44.2334C41.4009 43.2942 41.6947 42.4295 42.0569 41.4488C42.725 39.6394 43.622 38.4522 44.4421 37.4554C44.5683 37.302 44.6897 37.1561 44.807 37.0152C45.451 36.2418 45.9712 35.6169 46.482 34.702C47.0489 33.6864 47.7263 32.2788 48.2784 31.084C48.5505 30.4951 48.7852 29.9732 48.9517 29.5988C49.0349 29.4118 49.1008 29.2621 49.1457 29.1598L49.1967 29.0432L49.2094 29.0141L49.2124 29.0072L49.213 29.0058L49.213 29.0057C49.632 28.0392 50.6117 27.4391 51.663 27.5049C52.7143 27.5707 53.6115 28.2884 53.9067 29.2996L51.5068 30C53.9067 29.2996 53.9067 29.2998 53.9068 29.3001L53.907 29.3007L53.9075 29.3024L53.9089 29.3072L53.9133 29.3224L53.9284 29.3752C53.9412 29.4202 53.9593 29.4843 53.9819 29.5658C54.0271 29.7287 54.0903 29.9618 54.1654 30.2509C54.3152 30.828 54.5134 31.6348 54.7081 32.5581C55.0858 34.3487 55.4967 36.7865 55.4263 38.8479C55.3642 40.6641 54.4961 42.3149 54.0125 43.2344C53.9532 43.3473 53.8996 43.4491 53.854 43.5389C54.3921 43.0129 55.0272 42.3259 55.5541 41.7383C55.8226 41.4389 56.0542 41.1751 56.2183 40.9866C56.3003 40.8925 56.3651 40.8175 56.4089 40.7666L56.4584 40.7091L56.4703 40.6952L56.4729 40.6921L56.4733 40.6917L56.4734 40.6916C56.4733 40.6916 56.4733 40.6917 58.3747 42.3149L38.4815 49.8932ZM38.4815 49.8932C36.0339 49.3839 36.0339 49.384 36.0338 49.3841L36.0338 49.3844L36.0336 49.3852L36.0332 49.3873L36.0319 49.3937L36.0274 49.4153L36.0119 49.4917C35.9989 49.5566 35.9806 49.6488 35.9587 49.7627C35.9151 49.9898 35.8564 50.3064 35.796 50.666C35.681 51.3512 35.5382 52.3168 35.5094 53.1191C35.1992 61.7641 42.4648 68.3277 50.7453 68.4967C59.2534 68.6704 66.8745 61.8103 66.5568 53.0147C66.5276 52.2064 66.3834 51.2631 66.2674 50.5982C66.2065 50.2493 66.1473 49.9439 66.1033 49.725C66.0812 49.6152 66.0627 49.5263 66.0495 49.4636L66.0337 49.3896L66.0291 49.3684L66.0277 49.362L66.0273 49.3598L66.0271 49.359L66.027 49.3587C66.027 49.3585 66.0269 49.3584 63.5848 49.8932L66.0269 49.3584C65.8319 48.4678 65.1674 47.7539 64.293 47.4956C63.4188 47.2374 62.4734 47.4755 61.8257 48.1169L61.8253 48.1173L38.4815 49.8932ZM52.554 45.1074C52.554 45.1073 52.5562 45.105 52.5605 45.1008C52.5562 45.1055 52.554 45.1076 52.554 45.1074ZM59.7981 49.8761C59.7128 49.1322 59.6649 48.4209 59.6883 47.8674C59.7249 47.0038 59.9635 45.8537 60.2361 44.8201C60.3668 44.3247 60.4951 43.8938 60.5902 43.5881C60.6376 43.4358 60.6764 43.316 60.7026 43.2364C60.7157 43.1966 60.7256 43.167 60.7318 43.1485L60.7383 43.1292L60.739 43.1274L59.7981 49.8761Z" stroke="white" stroke-width="5" stroke-linejoin="round"/>
<g filter="url(#filter1_i_228_487)">
<path d="M70.005 84.8278C70.0338 84.0252 70.3076 82.7096 70.3076 82.7096C70.3076 82.7096 71.9357 85.3679 73.1824 84.8278C74.4771 84.267 73.485 82.4562 73.485 81.0452C73.485 79.693 73.6387 79.0905 74.0902 77.8678C74.7632 76.0454 75.8668 75.4789 76.8137 73.7826C77.6008 72.3725 78.6293 70 78.6293 70C78.6293 70 79.6133 73.3711 79.5372 75.5983C79.4744 77.4357 77.5648 78.6945 78.6293 80.1374C78.9528 80.5758 79.1499 80.9633 79.6885 81.0452C80.4366 81.159 80.662 80.357 81.2015 79.8348C81.988 79.0734 83.0172 77.8678 83.0172 77.8678C83.0172 77.8678 82.3223 79.8896 82.2606 81.3478C82.199 82.806 82.7146 85.1304 82.7146 85.1304C84.0824 84.9521 86.3459 82.7096 86.3459 82.7096C86.3459 82.7096 86.6195 83.9589 86.6484 84.7615C86.815 89.3722 82.7882 93.0924 78.1754 92.9983C73.6568 92.906 69.8429 89.3445 70.005 84.8278Z" fill="#FFBA17"/>
</g>
<path d="M70.3076 82.7096L67.86 82.2002C68.0689 81.1966 68.8693 80.4221 69.8793 80.2465C70.2613 80.1801 70.644 80.2044 71.0012 80.3077C71.0243 79.828 71.0746 79.3772 71.1672 78.9158C71.3021 78.2437 71.5104 77.637 71.745 77.0018M70.3076 82.7096L71.745 77.0018M70.3076 82.7096C67.86 82.2002 67.86 82.2003 67.86 82.2004L67.8599 82.2007L67.8598 82.2014L67.8594 82.2031L67.8584 82.2079L67.8553 82.2232L67.8448 82.2752C67.836 82.3189 67.8238 82.3803 67.8093 82.4558C67.7804 82.6061 67.7416 82.8155 67.7016 83.0539C67.6273 83.4964 67.5272 84.1627 67.5066 84.7382C67.288 90.8303 72.3979 95.3808 78.1244 95.4977C84.0253 95.6182 89.3704 90.8608 89.1468 84.6713C89.1258 84.0898 89.0244 83.4364 88.9491 83.0047C88.9085 82.7725 88.8692 82.5695 88.8399 82.4239C88.8252 82.3508 88.8128 82.2913 88.8038 82.2487L88.793 82.1979L88.7897 82.1827L88.7887 82.1778L88.7883 82.176L88.7881 82.1753L88.788 82.175C88.788 82.1749 88.788 82.1747 86.3459 82.7096M70.3076 82.7096H86.3459M71.745 77.0018C72.223 75.7074 72.8689 74.8578 73.4186 74.1896C73.5055 74.084 73.5868 73.9862 73.6635 73.8939C74.0712 73.4037 74.3478 73.0709 74.6308 72.564C74.9753 71.9469 75.3961 71.0738 75.7473 70.3139C75.9189 69.9424 76.067 69.613 76.1721 69.3768C76.2245 69.2589 76.266 69.1647 76.2941 69.1006L76.3259 69.028L76.3336 69.0102L76.3353 69.0063L76.3356 69.0057L76.3356 69.0056M71.745 77.0018L80.2861 72.4112C80.47 72.0132 80.6282 71.6614 80.7406 71.4087C80.7969 71.2821 80.8419 71.18 80.8731 71.1088L80.9093 71.026L80.9191 71.0035L80.9218 70.9972L80.9227 70.9953L80.9229 70.9947L80.923 70.9945C80.9231 70.9944 80.9231 70.9943 78.6293 70M76.3356 69.0056C76.3356 69.0056 76.3356 69.0057 78.6293 70M76.3356 69.0056C76.7546 68.0392 77.7343 67.4391 78.7856 67.5049C79.8368 67.5707 80.7341 68.2884 81.0292 69.2996L78.6293 70M76.3356 69.0056L82.039 75.5669M78.6293 70C81.0292 69.2996 81.0293 69.2998 81.0294 69.3001L81.0295 69.3006L81.0299 69.302L81.031 69.3058L81.0342 69.3169L81.0447 69.3535C81.0535 69.3842 81.0656 69.4272 81.0806 69.4814C81.1107 69.5898 81.1524 69.7435 81.2017 69.9335C81.3 70.3123 81.4301 70.8416 81.558 71.448C81.7954 72.5736 82.0694 74.1629 82.039 75.5669M86.3459 82.7096L88.788 82.1747C88.5929 81.2841 87.9285 80.5703 87.0541 80.312C86.2928 80.0871 85.4775 80.2386 84.8518 80.705M86.3459 82.7096L84.8518 80.705M84.8518 80.705C84.9094 80.3878 84.9889 80.0413 85.0793 79.6987C85.1587 79.3976 85.2368 79.1353 85.2946 78.9497C85.3233 78.8574 85.3466 78.7854 85.362 78.7387L85.3787 78.6884L85.3814 78.6804C85.3815 78.6802 85.3815 78.6801 85.3816 78.68M84.8518 80.705L85.3816 78.68M85.3816 78.68C85.3816 78.6798 85.3817 78.6796 85.3818 78.6794C85.3819 78.679 85.382 78.6787 85.3821 78.6784C85.7711 77.5433 85.2989 76.2919 84.2568 75.6968C83.5597 75.2988 82.7392 75.2696 82.039 75.5669M85.3816 78.68L82.039 75.5669" stroke="white" stroke-width="5" stroke-linejoin="round"/>
<mask id="path-6-outside-1_228_487" maskUnits="userSpaceOnUse" x="17" y="32" width="93" height="62" fill="black">
<rect fill="white" x="17" y="32" width="93" height="62"/>
<path d="M30 83.1557C30 81.2729 31.5263 79.7466 33.4091 79.7466H37.3052C39.188 79.7466 40.7143 81.2729 40.7143 83.1557V85.5907C40.7143 87.4735 39.188 88.9998 37.3052 88.9998H33.4091C31.5263 88.9998 30 87.4735 30 85.5907V83.1557Z"/>
<path d="M86 83.1557C86 81.2729 87.5263 79.7466 89.4091 79.7466H93.3052C95.188 79.7466 96.7143 81.2729 96.7143 83.1557V85.5907C96.7143 87.4735 95.188 88.9998 93.3052 88.9998H89.4091C87.5263 88.9998 86 87.4735 86 85.5907V83.1557Z"/>
<path d="M34 57L39.2178 39.5484C39.6699 38.0361 41.0612 37 42.6396 37H84.3604C85.9388 37 87.3301 38.0361 87.7822 39.5484L93 57H34Z"/>
<path d="M33.2731 58.3182H93.2918L98.8762 65.7117C99.3231 66.3034 99.5649 67.0248 99.5649 67.7664V81.6948H27V67.7664C27 67.0248 27.2418 66.3034 27.6888 65.7117L33.2731 58.3182Z"/>
<path d="M39 53.2595L42.7311 42.0333C42.9517 41.3697 43.5724 40.9219 44.2716 40.9219H82.0531C82.7523 40.9219 83.373 41.3697 83.5936 42.0333L87.3247 53.2595H39Z"/>
<path d="M22 53.4481C22 52.5515 22.7268 51.8247 23.6234 51.8247H29.7922V55.0715H23.6234C22.7268 55.0715 22 54.3447 22 53.4481Z"/>
<path d="M104.088 53.4481C104.088 52.5515 103.361 51.8247 102.464 51.8247H96.2954V55.0715H102.464C103.361 55.0715 104.088 54.3447 104.088 53.4481Z"/>
<path d="M31.5509 66.5971C31.043 67.0841 30.9016 68.3828 31.0639 69.1132C31.2262 69.8437 32.8496 71.6301 33.5801 72.1168C34.4278 72.6816 35.2847 73.4967 37.2327 73.6587C38.1225 73.7327 39.8671 73.334 40.5606 72.847C41.2542 72.36 42.3363 71.2236 42.2652 70.5743C42.194 69.9249 41.7447 69.4301 41.0476 69.1132C40.1548 68.7074 38.9007 68.6295 37.395 68.058C35.8651 67.4774 34.7977 66.3537 33.986 66.1102C33.1743 65.8667 32.0589 66.1101 31.5509 66.5971Z"/>
<path d="M95.4491 66.5971C95.957 67.0841 96.0984 68.3828 95.9361 69.1132C95.7738 69.8437 94.1504 71.6301 93.4199 72.1168C92.5722 72.6816 91.7153 73.4967 89.7673 73.6587C88.8775 73.7327 87.1329 73.334 86.4394 72.847C85.7458 72.36 84.6637 71.2236 84.7348 70.5743C84.806 69.9249 85.2553 69.4301 85.9524 69.1132C86.8452 68.7074 88.0993 68.6295 89.6049 68.058C91.1349 67.4774 92.2023 66.3537 93.014 66.1102C93.8257 65.8667 94.9411 66.1101 95.4491 66.5971Z"/>
</mask>
<path d="M30 83.1557C30 81.2729 31.5263 79.7466 33.4091 79.7466H37.3052C39.188 79.7466 40.7143 81.2729 40.7143 83.1557V85.5907C40.7143 87.4735 39.188 88.9998 37.3052 88.9998H33.4091C31.5263 88.9998 30 87.4735 30 85.5907V83.1557Z" fill="#707583"/>
<path d="M86 83.1557C86 81.2729 87.5263 79.7466 89.4091 79.7466H93.3052C95.188 79.7466 96.7143 81.2729 96.7143 83.1557V85.5907C96.7143 87.4735 95.188 88.9998 93.3052 88.9998H89.4091C87.5263 88.9998 86 87.4735 86 85.5907V83.1557Z" fill="#707583"/>
<path d="M34 57L39.2178 39.5484C39.6699 38.0361 41.0612 37 42.6396 37H84.3604C85.9388 37 87.3301 38.0361 87.7822 39.5484L93 57H34Z" fill="#D9D9D9"/>
<path d="M33.2731 58.3182H93.2918L98.8762 65.7117C99.3231 66.3034 99.5649 67.0248 99.5649 67.7664V81.6948H27V67.7664C27 67.0248 27.2418 66.3034 27.6888 65.7117L33.2731 58.3182Z" fill="#D9D9D9"/>
<path d="M39 53.2595L42.7311 42.0333C42.9517 41.3697 43.5724 40.9219 44.2716 40.9219H82.0531C82.7523 40.9219 83.373 41.3697 83.5936 42.0333L87.3247 53.2595H39Z" fill="#81DAFC"/>
<path d="M22 53.4481C22 52.5515 22.7268 51.8247 23.6234 51.8247H29.7922V55.0715H23.6234C22.7268 55.0715 22 54.3447 22 53.4481Z" fill="#707583"/>
<path d="M104.088 53.4481C104.088 52.5515 103.361 51.8247 102.464 51.8247H96.2954V55.0715H102.464C103.361 55.0715 104.088 54.3447 104.088 53.4481Z" fill="#707583"/>
<path d="M31.5509 66.5971C31.043 67.0841 30.9016 68.3828 31.0639 69.1132C31.2262 69.8437 32.8496 71.6301 33.5801 72.1168C34.4278 72.6816 35.2847 73.4967 37.2327 73.6587C38.1225 73.7327 39.8671 73.334 40.5606 72.847C41.2542 72.36 42.3363 71.2236 42.2652 70.5743C42.194 69.9249 41.7447 69.4301 41.0476 69.1132C40.1548 68.7074 38.9007 68.6295 37.395 68.058C35.8651 67.4774 34.7977 66.3537 33.986 66.1102C33.1743 65.8667 32.0589 66.1101 31.5509 66.5971Z" fill="#FFC943" fill-opacity="0.74"/>
<path d="M95.4491 66.5971C95.957 67.0841 96.0984 68.3828 95.9361 69.1132C95.7738 69.8437 94.1504 71.6301 93.4199 72.1168C92.5722 72.6816 91.7153 73.4967 89.7673 73.6587C88.8775 73.7327 87.1329 73.334 86.4394 72.847C85.7458 72.36 84.6637 71.2236 84.7348 70.5743C84.806 69.9249 85.2553 69.4301 85.9524 69.1132C86.8452 68.7074 88.0993 68.6295 89.6049 68.058C91.1349 67.4774 92.2023 66.3537 93.014 66.1102C93.8257 65.8667 94.9411 66.1101 95.4491 66.5971Z" fill="#FFC943" fill-opacity="0.74"/>
<path d="M31.3119 57.5162L33.4351 56.1964H33.4351L31.3119 57.5162ZM32.096 57.5832L30.2275 55.9223L32.096 57.5832ZM32.1758 57.0532L34.4506 56.0162L32.1758 57.0532ZM94.7757 57.5162L92.6525 56.1964V56.1964L94.7757 57.5162ZM93.9916 57.5832L95.8602 55.9223L93.9916 57.5832ZM93.9118 57.0532L91.6371 56.0162L93.9118 57.0532ZM27.669 56.3913L29.1887 58.836L33.4351 56.1964L31.9154 53.7516L27.669 56.3913ZM34.4506 56.0162L32.067 50.7877L27.5174 52.8617L29.901 58.0903L34.4506 56.0162ZM29.1887 58.836C30.2442 60.534 32.6363 60.7384 33.9645 59.2441L30.2275 55.9223C31.1196 54.9187 32.7262 55.0559 33.4351 56.1964L29.1887 58.836ZM33.9645 59.2441C34.7511 58.3592 34.9417 57.0935 34.4506 56.0162L29.901 58.0903C29.5712 57.3667 29.6992 56.5166 30.2275 55.9223L33.9645 59.2441ZM94.1722 53.7516L92.6525 56.1964L96.899 58.836L98.4187 56.3913L94.1722 53.7516ZM96.1866 58.0903L98.5702 52.8617L94.0207 50.7877L91.6371 56.0162L96.1866 58.0903ZM92.6525 56.1964C93.3614 55.0559 94.9681 54.9187 95.8602 55.9223L92.1231 59.2441C93.4514 60.7384 95.8435 60.534 96.899 58.836L92.6525 56.1964ZM95.8602 55.9223C96.3885 56.5167 96.5165 57.3667 96.1866 58.0903L91.6371 56.0162C91.146 57.0935 91.3365 58.3591 92.1231 59.2441L95.8602 55.9223ZM34 57L29.2095 55.5677L27.2864 62H34V57ZM93 57V62H99.7136L97.7905 55.5677L93 57ZM87.7822 39.5484L92.5727 38.1161V38.1161L87.7822 39.5484ZM39.2178 39.5484L34.4273 38.1161V38.1161L39.2178 39.5484ZM33.2731 58.3182V53.3182C31.7053 53.3182 30.2283 54.0536 29.2833 55.3046L33.2731 58.3182ZM93.2918 58.3182L97.2816 55.3046C96.3367 54.0536 94.8596 53.3182 93.2918 53.3182V58.3182ZM27 81.6948H22C22 84.4562 24.2386 86.6948 27 86.6948V81.6948ZM99.5649 81.6948V86.6948C102.326 86.6948 104.565 84.4562 104.565 81.6948H99.5649ZM98.8762 65.7117L102.866 62.6981V62.6981L98.8762 65.7117ZM27.6888 65.7117L23.699 62.6981H23.699L27.6888 65.7117ZM39 53.2595L34.2552 51.6826C33.7485 53.207 34.0052 54.8821 34.9451 56.1849C35.885 57.4877 37.3936 58.2595 39 58.2595V53.2595ZM87.3247 53.2595V58.2595C88.9311 58.2595 90.4397 57.4877 91.3796 56.1849C92.3195 54.8821 92.5761 53.207 92.0695 51.6826L87.3247 53.2595ZM83.5936 42.0333L78.8488 43.6102V43.6102L83.5936 42.0333ZM42.7311 42.0333L37.9863 40.4563L42.7311 42.0333ZM29.7922 51.8247H34.7922C34.7922 49.0633 32.5536 46.8247 29.7922 46.8247V51.8247ZM29.7922 55.0715V60.0715H34.7922V55.0715H29.7922ZM96.2954 51.8247V46.8247C93.534 46.8247 91.2954 49.0633 91.2954 51.8247H96.2954ZM96.2954 55.0715H91.2954V60.0715H96.2954V55.0715ZM31.0639 69.1132L35.9449 68.0287L31.0639 69.1132ZM31.5509 66.5971L35.0114 70.2062H35.0114L31.5509 66.5971ZM33.986 66.1102L35.4228 61.3211L33.986 66.1102ZM37.395 68.058L39.1692 63.3834L37.395 68.058ZM41.0476 69.1132L43.1167 64.5614H43.1167L41.0476 69.1132ZM42.2652 70.5743L37.2949 71.1189L37.2949 71.1189L42.2652 70.5743ZM40.5606 72.847L43.434 76.9389H43.434L40.5606 72.847ZM37.2327 73.6587L37.6471 68.6759L37.2327 73.6587ZM33.5801 72.1168L30.8079 76.2779H30.8079L33.5801 72.1168ZM95.9361 69.1132L91.0551 68.0287L95.9361 69.1132ZM95.4491 66.5971L91.9886 70.2062L95.4491 66.5971ZM93.014 66.1102L91.5772 61.3211L93.014 66.1102ZM89.6049 68.058L87.8308 63.3834L89.6049 68.058ZM85.9524 69.1132L83.8834 64.5614H83.8833L85.9524 69.1132ZM84.7348 70.5743L89.7051 71.1189V71.1189L84.7348 70.5743ZM86.4394 72.847L83.566 76.9389H83.566L86.4394 72.847ZM89.7673 73.6587L89.3529 68.6759L89.7673 73.6587ZM93.4199 72.1168L96.1921 76.2779H96.1921L93.4199 72.1168ZM33.4091 84.7466H37.3052V74.7466H33.4091V84.7466ZM35.7143 83.1557V85.5907H45.7143V83.1557H35.7143ZM37.3052 83.9998H33.4091V93.9998H37.3052V83.9998ZM35 85.5907V83.1557H25V85.5907H35ZM33.4091 83.9998C34.2877 83.9998 35 84.7121 35 85.5907H25C25 90.2349 28.7649 93.9998 33.4091 93.9998V83.9998ZM35.7143 85.5907C35.7143 84.7121 36.4266 83.9998 37.3052 83.9998V93.9998C41.9494 93.9998 45.7143 90.2349 45.7143 85.5907H35.7143ZM37.3052 84.7466C36.4266 84.7466 35.7143 84.0343 35.7143 83.1557H45.7143C45.7143 78.5115 41.9494 74.7466 37.3052 74.7466V84.7466ZM33.4091 74.7466C28.7649 74.7466 25 78.5115 25 83.1557H35C35 84.0343 34.2877 84.7466 33.4091 84.7466V74.7466ZM89.4091 84.7466H93.3052V74.7466H89.4091V84.7466ZM91.7143 83.1557V85.5907H101.714V83.1557H91.7143ZM93.3052 83.9998H89.4091V93.9998H93.3052V83.9998ZM91 85.5907V83.1557H81V85.5907H91ZM89.4091 83.9998C90.2877 83.9998 91 84.7121 91 85.5907H81C81 90.2349 84.7649 93.9998 89.4091 93.9998V83.9998ZM91.7143 85.5907C91.7143 84.7121 92.4266 83.9998 93.3052 83.9998V93.9998C97.9494 93.9998 101.714 90.2349 101.714 85.5907H91.7143ZM93.3052 84.7466C92.4266 84.7466 91.7143 84.0343 91.7143 83.1557H101.714C101.714 78.5115 97.9494 74.7466 93.3052 74.7466V84.7466ZM89.4091 74.7466C84.7649 74.7466 81 78.5115 81 83.1557H91C91 84.0343 90.2877 84.7466 89.4091 84.7466V74.7466ZM38.7905 58.4323L44.0083 40.9807L34.4273 38.1161L29.2095 55.5677L38.7905 58.4323ZM97.7905 55.5677L92.5727 38.1161L82.9917 40.9806L88.2095 58.4323L97.7905 55.5677ZM92.5727 38.1161C91.4875 34.4867 88.1486 32 84.3604 32V42C83.7291 42 83.1726 41.5856 82.9917 40.9807L92.5727 38.1161ZM44.0083 40.9807C43.8274 41.5856 43.2709 42 42.6396 42V32C38.8514 32 35.5125 34.4867 34.4273 38.1161L44.0083 40.9807ZM29.2833 55.3046L23.699 62.6981L31.6786 68.7252L37.2629 61.3317L29.2833 55.3046ZM22 67.7664V81.6948H32V67.7664H22ZM89.302 61.3317L94.8864 68.7252L102.866 62.6981L97.2816 55.3046L89.302 61.3317ZM94.5649 67.7664V81.6948H104.565V67.7664H94.5649ZM94.8864 68.7252C94.6778 68.4491 94.5649 68.1124 94.5649 67.7664H104.565C104.565 65.9371 103.968 64.1578 102.866 62.6981L94.8864 68.7252ZM23.699 62.6981C22.5965 64.1578 22 65.9371 22 67.7664H32C32 68.1124 31.8872 68.4491 31.6786 68.7252L23.699 62.6981ZM43.7448 54.8365L47.4759 43.6102L37.9863 40.4563L34.2552 51.6826L43.7448 54.8365ZM92.0695 51.6826L88.3384 40.4563L78.8488 43.6102L82.5799 54.8365L92.0695 51.6826ZM88.3384 40.4563C87.4386 37.7489 84.9061 35.9219 82.0531 35.9219V45.9219C80.5986 45.9219 79.3075 44.9905 78.8488 43.6102L88.3384 40.4563ZM47.4759 43.6102C47.0172 44.9905 45.7261 45.9219 44.2716 45.9219V35.9219C41.4186 35.9219 38.8861 37.7489 37.9863 40.4563L47.4759 43.6102ZM23.6234 56.8247H29.7922V46.8247H23.6234V56.8247ZM24.7922 51.8247V55.0715H34.7922V51.8247H24.7922ZM29.7922 50.0715H23.6234V60.0715H29.7922V50.0715ZM23.6234 50.0715C25.4882 50.0715 27 51.5832 27 53.4481H17C17 57.1061 19.9654 60.0715 23.6234 60.0715V50.0715ZM23.6234 46.8247C19.9654 46.8247 17 49.7901 17 53.4481H27C27 55.3129 25.4882 56.8247 23.6234 56.8247V46.8247ZM102.464 46.8247H96.2954V56.8247H102.464V46.8247ZM91.2954 51.8247V55.0715H101.295V51.8247H91.2954ZM96.2954 60.0715H102.464V50.0715H96.2954V60.0715ZM102.464 60.0715C106.122 60.0715 109.088 57.1061 109.088 53.4481H99.0876C99.0876 51.5832 100.599 50.0715 102.464 50.0715V60.0715ZM102.464 56.8247C100.599 56.8247 99.0876 55.3129 99.0876 53.4481H109.088C109.088 49.7901 106.122 46.8247 102.464 46.8247V56.8247ZM35.9449 68.0287C35.9984 68.2695 35.9998 68.4154 36 68.4453C36.0003 68.49 35.9976 68.5278 35.9896 68.5766C35.9832 68.6152 35.9578 68.7595 35.8682 68.9794C35.7936 69.1626 35.5633 69.6769 35.0114 70.2062L28.0905 62.9881C26.6329 64.3857 26.2487 66.1856 26.1226 66.9512C25.9643 67.9122 25.9345 69.0797 26.183 70.1978L35.9449 68.0287ZM35.0114 70.2062C34.6486 70.554 34.3168 70.7331 34.1351 70.8173C33.9389 70.9083 33.7787 70.9531 33.6619 70.9772C33.4897 71.0126 33.1076 71.0668 32.5492 70.8993L35.4228 61.3211C34.0527 60.91 32.707 60.9642 31.6471 61.1822C30.6449 61.3884 29.2505 61.8758 28.0905 62.9881L35.0114 70.2062ZM32.5491 70.8993C32.104 70.7657 31.8709 70.5976 31.998 70.6769C32.1153 70.7501 32.2285 70.8309 32.5923 71.0805C33.1848 71.487 34.2545 72.2141 35.6209 72.7327L39.1692 63.3834C39.0057 63.3213 38.7767 63.1962 38.25 62.8349C38.0543 62.7006 37.6529 62.4185 37.2938 62.1943C36.9447 61.9764 36.2738 61.5764 35.4228 61.3211L32.5491 70.8993ZM35.6209 72.7327C36.7225 73.1508 37.7077 73.3767 38.3261 73.5195C38.6686 73.5986 38.8417 73.6388 38.9866 73.6786C39.1198 73.7153 39.0881 73.7148 38.9786 73.6651L43.1167 64.5614C42.1145 64.1059 41.0208 63.8786 40.5762 63.776C39.9679 63.6355 39.5732 63.5367 39.1692 63.3834L35.6209 72.7327ZM38.9786 73.6651C38.8212 73.5935 38.4563 73.3972 38.0856 72.9622C37.6832 72.49 37.3749 71.8483 37.2949 71.1189L47.2354 70.0296C46.9106 67.0654 44.8299 65.3401 43.1167 64.5614L38.9786 73.6651ZM37.2949 71.1189C37.2219 70.4525 37.3147 69.9197 37.3973 69.5971C37.4817 69.2681 37.5876 69.0327 37.6504 68.9066C37.769 68.6683 37.86 68.5685 37.8285 68.6071C37.8129 68.6262 37.7709 68.6729 37.7132 68.727C37.6504 68.7857 37.6337 68.7927 37.6873 68.7551L43.434 76.9389C44.1725 76.4203 44.9484 75.6975 45.5709 74.936C45.8877 74.5484 46.2792 74.0123 46.6024 73.3631C46.872 72.8216 47.4068 71.5934 47.2354 70.0296L37.2949 71.1189ZM37.6873 68.7551C37.7781 68.6913 37.8541 68.6445 37.9089 68.6128C37.9643 68.5806 38.0076 68.5582 38.0358 68.5442C38.0643 68.5301 38.0834 68.5217 38.0915 68.5182C38.0998 68.5146 38.1008 68.5143 38.094 68.517C38.0789 68.5227 38.0446 68.535 37.9915 68.551C37.9391 68.5668 37.8775 68.5836 37.8098 68.5998C37.7421 68.6159 37.6748 68.6299 37.6113 68.6413C37.5474 68.6528 37.4951 68.6602 37.4571 68.6646C37.4386 68.6667 37.4261 68.6678 37.4195 68.6683C37.4128 68.6689 37.4148 68.6686 37.4251 68.6682C37.4351 68.6678 37.4578 68.6672 37.4921 68.6678C37.5258 68.6684 37.5784 68.6702 37.6471 68.6759L36.8183 78.6415C38.0231 78.7417 39.2712 78.5318 40.1307 78.3267C40.9266 78.1368 42.2916 77.7411 43.434 76.9389L37.6873 68.7551ZM37.6471 68.6759C37.48 68.662 37.3959 68.6396 37.3694 68.6318C37.3455 68.6248 37.3318 68.619 37.3099 68.6076C37.2789 68.5914 37.2167 68.556 37.0703 68.4552C36.9889 68.3991 36.9146 68.3462 36.7881 68.2567C36.6767 68.1779 36.5213 68.0683 36.3524 67.9558L30.8079 76.2779C31.2869 76.597 33.3116 78.3499 36.8183 78.6415L37.6471 68.6759ZM36.3524 67.9558C36.419 68.0001 36.4624 68.0328 36.4796 68.0461C36.4983 68.0605 36.5041 68.0656 36.4961 68.0589C36.4783 68.0439 36.434 68.005 36.3655 67.9392C36.2264 67.8055 36.056 67.6268 35.892 67.4371C35.8122 67.3447 35.7422 67.2594 35.6845 67.1852C35.6254 67.1093 35.59 67.059 35.5745 67.036C35.5544 67.006 35.585 67.0476 35.6383 67.1515C35.6664 67.2064 35.7126 67.3014 35.7636 67.4311C35.8127 67.5559 35.8852 67.7604 35.9449 68.0287L26.183 70.1978C26.4412 71.36 27.0449 72.2715 27.2711 72.6085C27.6031 73.1033 27.9793 73.5748 28.3259 73.9758C28.9228 74.6664 29.8665 75.6507 30.8079 76.2779L36.3524 67.9558ZM100.817 70.1978C101.066 69.0797 101.036 67.9122 100.877 66.9512C100.751 66.1856 100.367 64.3857 98.9095 62.9881L91.9886 70.2062C91.4367 69.6769 91.2064 69.1626 91.1318 68.9794C91.0422 68.7595 91.0168 68.6153 91.0104 68.5766C91.0024 68.5278 90.9997 68.49 91 68.4453C91.0002 68.4154 91.0016 68.2695 91.0551 68.0287L100.817 70.1978ZM98.9095 62.9881C97.7495 61.8758 96.3551 61.3884 95.3529 61.1822C94.293 60.9642 92.9473 60.91 91.5772 61.3211L94.4508 70.8993C93.8924 71.0668 93.5103 71.0126 93.3381 70.9772C93.2213 70.9531 93.0611 70.9083 92.8649 70.8173C92.6833 70.7331 92.3514 70.554 91.9886 70.2062L98.9095 62.9881ZM91.5772 61.3211C90.7262 61.5764 90.0553 61.9764 89.7062 62.1943C89.3471 62.4185 88.9457 62.7006 88.75 62.8349C88.2233 63.1962 87.9943 63.3213 87.8308 63.3834L91.3791 72.7327C92.7455 72.2141 93.8152 71.487 94.4076 71.0805C94.7715 70.8309 94.8847 70.7501 95.0019 70.6769C95.1291 70.5976 94.896 70.7657 94.4508 70.8993L91.5772 61.3211ZM87.8308 63.3834C87.4268 63.5367 87.0321 63.6355 86.4238 63.776C85.9792 63.8786 84.8855 64.1059 83.8834 64.5614L88.0214 73.6651C87.9119 73.7148 87.8802 73.7153 88.0134 73.6786C88.1583 73.6388 88.3314 73.5986 88.6739 73.5195C89.2923 73.3767 90.2775 73.1508 91.3791 72.7327L87.8308 63.3834ZM83.8833 64.5614C82.1702 65.3401 80.0894 67.0654 79.7646 70.0296L89.7051 71.1189C89.6251 71.8483 89.3168 72.49 88.9144 72.9622C88.5437 73.3972 88.1788 73.5935 88.0214 73.6651L83.8833 64.5614ZM79.7646 70.0296C79.5932 71.5934 80.128 72.8216 80.3976 73.3631C80.7208 74.0123 81.1123 74.5484 81.4291 74.936C82.0516 75.6975 82.8275 76.4203 83.566 76.9389L89.3127 68.7551C89.3663 68.7927 89.3496 68.7857 89.2868 68.727C89.2291 68.6729 89.1871 68.6262 89.1715 68.6071C89.14 68.5685 89.231 68.6683 89.3496 68.9066C89.4124 69.0327 89.5183 69.2681 89.6027 69.5971C89.6853 69.9197 89.7781 70.4525 89.7051 71.1189L79.7646 70.0296ZM83.566 76.9389C84.7084 77.7411 86.0734 78.1368 86.8693 78.3267C87.7288 78.5318 88.9769 78.7417 90.1817 78.6415L89.3529 68.6759C89.4216 68.6702 89.4742 68.6684 89.5079 68.6678C89.5422 68.6672 89.5649 68.6678 89.5749 68.6682C89.5852 68.6686 89.5872 68.6689 89.5805 68.6683C89.5739 68.6678 89.5614 68.6667 89.5429 68.6646C89.5049 68.6602 89.4526 68.6528 89.3887 68.6413C89.3252 68.6299 89.2579 68.6159 89.1902 68.5998C89.1225 68.5836 89.0609 68.5668 89.0086 68.551C88.9554 68.535 88.9211 68.5227 88.906 68.517C88.8992 68.5143 88.9002 68.5146 88.9085 68.5182C88.9166 68.5217 88.9357 68.5301 88.9642 68.5442C88.9924 68.5582 89.0357 68.5806 89.0911 68.6128C89.1459 68.6445 89.2219 68.6913 89.3127 68.7551L83.566 76.9389ZM90.1817 78.6415C93.6884 78.3499 95.7131 76.597 96.1921 76.2779L90.6476 67.9558C90.4787 68.0683 90.3233 68.1779 90.2119 68.2567C90.0854 68.3462 90.0111 68.3991 89.9297 68.4552C89.7833 68.556 89.7211 68.5914 89.6901 68.6076C89.6682 68.619 89.6545 68.6248 89.6306 68.6318C89.6041 68.6396 89.52 68.662 89.3529 68.6759L90.1817 78.6415ZM96.1921 76.2779C97.1335 75.6507 98.0772 74.6664 98.6741 73.9758C99.0207 73.5748 99.3969 73.1033 99.7289 72.6085C99.9551 72.2715 100.559 71.36 100.817 70.1978L91.0551 68.0287C91.1148 67.7604 91.1873 67.5559 91.2364 67.4311C91.2874 67.3014 91.3336 67.2064 91.3617 67.1515C91.415 67.0476 91.4456 67.006 91.4255 67.036C91.41 67.059 91.3746 67.1093 91.3155 67.1852C91.2578 67.2594 91.1878 67.3447 91.108 67.4371C90.944 67.6268 90.7736 67.8055 90.6345 67.9392C90.5659 68.005 90.5217 68.0439 90.5039 68.0589C90.4959 68.0656 90.5017 68.0605 90.5204 68.0461C90.5376 68.0328 90.581 68.0001 90.6476 67.9558L96.1921 76.2779ZM42.6396 42H84.3604V32H42.6396V42ZM34 62H93V52H34V62ZM33.2731 63.3182H93.2918V53.3182H33.2731V63.3182ZM27 86.6948H99.5649V76.6948H27V86.6948ZM44.2716 45.9219H82.0531V35.9219H44.2716V45.9219ZM39 58.2595H87.3247V48.2595H39V58.2595Z" fill="white" mask="url(#path-6-outside-1_228_487)"/>
<rect x="29" y="78.7466" width="12.7143" height="11.2532" rx="4.40909" fill="#707583" stroke="black" stroke-width="2"/>
<rect x="85" y="78.7466" width="12.7143" height="11.2532" rx="4.40909" fill="#707583" stroke="black" stroke-width="2"/>
<path d="M33.0419 56.7135L32.6573 58H34H63.5H93H94.3427L93.9581 56.7135L88.7403 39.2619C88.1616 37.3262 86.3808 36 84.3604 36H63.5H42.6396C40.6192 36 38.8385 37.3262 38.2597 39.2619L33.0419 56.7135Z" fill="#D9D9D9" stroke="black" stroke-width="2"/>
<path d="M33.2731 57.3182C32.9596 57.3182 32.6642 57.4653 32.4752 57.7155L26.8908 65.109C26.3127 65.8743 26 66.8072 26 67.7663V81.6948C26 82.2471 26.4477 82.6948 27 82.6948H63.2825H99.5649C100.117 82.6948 100.565 82.2471 100.565 81.6948V67.7663C100.565 66.8072 100.252 65.8743 99.6741 65.109L98.8762 65.7117L99.6741 65.109L94.0898 57.7155C93.9008 57.4653 93.6054 57.3182 93.2918 57.3182H63.2825H33.2731Z" fill="#D9D9D9" stroke="black" stroke-width="2" stroke-linejoin="round"/>
<g filter="url(#filter2_i_228_487)">
<path d="M39 53.2595L42.7311 42.0333C42.9516 41.3697 43.5723 40.9219 44.2716 40.9219H63.1623H82.0531C82.7523 40.9219 83.373 41.3697 83.5936 42.0333L87.3247 53.2595H63.1623H39Z" fill="#81DAFC"/>
</g>
<path d="M38.051 52.9441C37.9497 53.249 38.001 53.584 38.189 53.8446C38.377 54.1052 38.6787 54.2595 39 54.2595H63.1623H87.3247C87.646 54.2595 87.9477 54.1052 88.1357 53.8446C88.3236 53.584 88.375 53.249 88.2736 52.9441L84.5425 41.7179C84.1861 40.6455 83.1831 39.9219 82.0531 39.9219H63.1623H44.2716C43.1416 39.9219 42.1385 40.6455 41.7821 41.7179L38.051 52.9441Z" stroke="black" stroke-width="2" stroke-linejoin="round"/>
<path d="M30.7922 51.8247C30.7922 51.2724 30.3445 50.8247 29.7922 50.8247H23.6234C22.1745 50.8247 21 51.9992 21 53.4481C21 54.8969 22.1745 56.0715 23.6234 56.0715H29.7922C30.3445 56.0715 30.7922 55.6237 30.7922 55.0715V51.8247Z" fill="#707583" stroke="black" stroke-width="2" stroke-linejoin="round"/>
<path d="M95.2954 51.8247C95.2954 51.2724 95.7432 50.8247 96.2954 50.8247H102.464C103.913 50.8247 105.088 51.9992 105.088 53.4481C105.088 54.8969 103.913 56.0715 102.464 56.0715H96.2954C95.7432 56.0715 95.2954 55.6237 95.2954 55.0715V51.8247Z" fill="#707583" stroke="black" stroke-width="2" stroke-linejoin="round"/>
<g filter="url(#filter3_i_228_487)">
<path d="M31.5509 66.5971C31.043 67.0841 30.9016 68.3828 31.0639 69.1132C31.2262 69.8437 32.8496 71.6301 33.5801 72.1168C34.4278 72.6816 35.2847 73.4967 37.2327 73.6587C38.1225 73.7327 39.8671 73.334 40.5606 72.847C41.2542 72.36 42.3363 71.2236 42.2652 70.5743C42.194 69.9249 41.7447 69.4301 41.0476 69.1132C40.1548 68.7074 38.9007 68.6295 37.395 68.058C35.8651 67.4774 34.7977 66.3537 33.986 66.1102C33.1743 65.8667 32.0589 66.1101 31.5509 66.5971Z" fill="#FFC943" fill-opacity="0.74"/>
</g>
<path d="M30.8588 65.8753C30.3641 66.3496 30.1574 67.0668 30.0694 67.6014C29.9749 68.175 29.9731 68.8144 30.0877 69.3302C30.1718 69.7087 30.3981 70.0899 30.5925 70.3795C30.808 70.7007 31.076 71.0406 31.3523 71.3603C31.8857 71.9774 32.5452 72.6289 33.0257 72.949C33.1317 73.0197 33.2436 73.0994 33.3637 73.185C34.1203 73.724 35.1996 74.4931 37.1498 74.6553C37.7467 74.7049 38.5232 74.598 39.2024 74.4359C39.8688 74.2769 40.6294 74.0206 41.1353 73.6654C41.5604 73.3669 42.0707 72.8976 42.4739 72.4044C42.6766 72.1564 42.8751 71.8747 43.0216 71.5805C43.1573 71.3078 43.3077 70.908 43.2592 70.4653C43.1373 69.353 42.3618 68.6121 41.4614 68.2029C40.9335 67.9629 40.3244 67.8227 39.7692 67.6948C39.738 67.6876 39.707 67.6805 39.6761 67.6734C39.0638 67.532 38.4329 67.3823 37.7499 67.1231C37.1052 66.8785 36.5399 66.5126 35.987 66.1331C35.936 66.0982 35.8841 66.0624 35.8317 66.0262C35.6139 65.8759 35.387 65.7194 35.1755 65.5874C34.9152 65.4249 34.6059 65.2522 34.2734 65.1524C33.6747 64.9728 33.0201 64.9836 32.4531 65.1002C31.8976 65.2145 31.294 65.458 30.8588 65.8753Z" stroke="black" stroke-width="2"/>
<g filter="url(#filter4_i_228_487)">
<path d="M95.4491 66.5971C95.957 67.0841 96.0984 68.3828 95.9361 69.1132C95.7738 69.8437 94.1504 71.6301 93.4199 72.1168C92.5722 72.6816 91.7153 73.4967 89.7673 73.6587C88.8775 73.7327 87.1329 73.334 86.4394 72.847C85.7458 72.36 84.6637 71.2236 84.7348 70.5743C84.806 69.9249 85.2553 69.4301 85.9524 69.1132C86.8452 68.7074 88.0993 68.6295 89.605 68.058C91.1349 67.4774 92.2023 66.3537 93.014 66.1102C93.8257 65.8667 94.9411 66.1101 95.4491 66.5971Z" fill="#FFC943" fill-opacity="0.74"/>
</g>
<path d="M96.1412 65.8753C96.6359 66.3496 96.8426 67.0668 96.9306 67.6014C97.0251 68.175 97.0269 68.8144 96.9123 69.3302C96.8282 69.7087 96.6019 70.0899 96.4075 70.3795C96.192 70.7007 95.924 71.0406 95.6477 71.3603C95.1143 71.9774 94.4548 72.6289 93.9743 72.949C93.8683 73.0197 93.7564 73.0994 93.6363 73.185C92.8797 73.724 91.8004 74.4931 89.8502 74.6553C89.2533 74.7049 88.4768 74.598 87.7976 74.4359C87.1312 74.2769 86.3706 74.0206 85.8647 73.6654C85.4396 73.3669 84.9293 72.8976 84.5261 72.4044C84.3234 72.1564 84.1249 71.8747 83.9784 71.5805C83.8427 71.3078 83.6923 70.908 83.7408 70.4653C83.8627 69.353 84.6382 68.6121 85.5386 68.2029C86.0665 67.9629 86.6756 67.8227 87.2308 67.6948C87.262 67.6876 87.293 67.6805 87.3239 67.6734C87.9362 67.532 88.5671 67.3823 89.2501 67.1231C89.8948 66.8785 90.4601 66.5126 91.013 66.1331C91.064 66.0982 91.1159 66.0624 91.1683 66.0262C91.3861 65.8759 91.613 65.7194 91.8245 65.5874C92.0848 65.4249 92.3941 65.2522 92.7266 65.1524C93.3253 64.9728 93.9799 64.9836 94.5469 65.1002C95.1024 65.2145 95.706 65.458 96.1412 65.8753Z" stroke="black" stroke-width="2"/>
<g filter="url(#filter5_i_228_487)">
<path d="M38.0078 53.2088C38.0529 51.9526 38.4815 49.8932 38.4815 49.8932C38.4815 49.8932 41.0297 54.0541 42.9811 53.2088C45.0076 52.3309 43.4548 49.4966 43.4548 47.2882C43.4548 45.1717 43.6953 44.2286 44.4021 42.3149C45.4554 39.4624 47.1827 38.5756 48.6649 35.9206C49.897 33.7135 51.5068 30 51.5068 30C51.5068 30 53.0468 35.2765 52.9277 38.7625C52.8295 41.6384 49.8406 43.6088 51.5068 45.8672C52.013 46.5534 52.3216 47.1599 53.1646 47.2882C54.3355 47.4663 54.6884 46.211 55.5328 45.3936C56.7638 44.2019 58.3747 42.3149 58.3747 42.3149C58.3747 42.3149 57.2871 45.4794 57.1906 47.7618C57.094 50.0442 57.901 53.6824 57.901 53.6824C60.042 53.4033 63.5848 49.8932 63.5848 49.8932C63.5848 49.8932 64.0131 51.8487 64.0584 53.1049C64.3191 60.3217 58.0163 66.1447 50.7963 65.9973C43.7237 65.8529 37.7541 60.2783 38.0078 53.2088Z" fill="#FFBA17"/>
</g>
<path d="M38.4815 49.8932L37.5024 49.6895C37.586 49.288 37.9061 48.9783 38.3101 48.908C38.714 48.8378 39.1198 49.0212 39.334 49.3706L39.3342 49.3709M38.4815 49.8932L39.3342 49.3709M38.4815 49.8932C37.5024 49.6895 37.5024 49.6895 37.5024 49.6896L37.5024 49.6898L37.5023 49.6902L37.502 49.6918L37.5009 49.697L37.4969 49.7161L37.4825 49.7872C37.4702 49.8484 37.4528 49.9365 37.4318 50.0459C37.3898 50.2643 37.3333 50.5689 37.2753 50.9144C37.1617 51.5916 37.0335 52.4751 37.0084 53.1729C36.7321 60.8726 43.2201 66.8428 50.7759 66.9971C58.5111 67.155 65.3412 60.9171 65.0578 53.0688C65.0325 52.3687 64.9038 51.5096 64.7897 50.8561C64.7315 50.5228 64.6749 50.2304 64.6328 50.021C64.6117 49.9162 64.5941 49.8319 64.5818 49.7733L64.5673 49.7051L64.5633 49.6867L64.5622 49.6816L64.5618 49.6801L64.5617 49.6796L64.5617 49.6794C64.5617 49.6794 64.5617 49.6793 63.5848 49.8932M38.4815 49.8932L62.8811 49.1827M39.3342 49.3709L39.3343 49.371L39.338 49.3769L39.3557 49.4053C39.3722 49.4313 39.3976 49.471 39.4311 49.5222C39.4983 49.6247 39.5979 49.7727 39.7236 49.9486C39.9772 50.3034 40.3279 50.7585 40.7272 51.182C41.1351 51.6148 41.5488 51.966 41.922 52.1631C42.2938 52.3596 42.4834 52.3346 42.5836 52.2912C42.8285 52.1851 42.9101 52.0633 42.9601 51.9114C43.0296 51.7002 43.0473 51.3723 42.9854 50.8698C42.9389 50.4929 42.8609 50.1024 42.7734 49.6645C42.7443 49.519 42.7142 49.3683 42.6839 49.2111C42.5689 48.6155 42.4548 47.9433 42.4548 47.2882C42.4548 46.1909 42.517 45.355 42.683 44.5286C42.8475 43.7092 43.1071 42.9348 43.464 41.9684C44.0473 40.389 44.8232 39.3532 45.6004 38.4084C45.7168 38.2669 45.8322 38.1286 45.9464 37.9916C46.5946 37.2142 47.2084 36.4782 47.7917 35.4332C48.3881 34.3648 49.0854 32.9137 49.6401 31.7132C49.9159 31.1164 50.1536 30.5877 50.3223 30.2084C50.4066 30.0188 50.4736 29.8667 50.5194 29.7622L50.5717 29.6426L50.585 29.6121L50.5883 29.6045L50.5891 29.6027L50.5893 29.6023L50.5893 29.6023L39.3342 49.3709ZM62.8811 49.1827L62.8811 49.1828L62.881 49.1828L62.8799 49.1839L62.8738 49.19L62.8469 49.2163C62.8226 49.2399 62.7858 49.2755 62.7377 49.3215C62.6415 49.4133 62.5004 49.5463 62.3239 49.7072C61.9701 50.0299 61.4787 50.4612 60.9254 50.8989C60.3693 51.3388 59.7667 51.7725 59.1896 52.1082C59.0028 52.2168 58.8269 52.3103 58.6632 52.3887C58.6106 52.1031 58.5534 51.7749 58.4972 51.4212C58.3091 50.2361 58.1459 48.8393 58.1897 47.8041C58.2332 46.7739 58.5063 45.4968 58.7857 44.4375C58.9232 43.9164 59.0579 43.4639 59.158 43.1422C59.208 42.9816 59.2493 42.8542 59.2777 42.7677C59.2826 42.7528 59.2871 42.7391 59.2913 42.7267C59.2991 42.7031 59.3054 42.6841 59.3102 42.67L59.3183 42.6461L59.3201 42.6407L59.3204 42.6399C59.3204 42.6399 59.3204 42.6398 59.3204 42.6398C59.3204 42.6398 59.3204 42.6398 59.3204 42.6397C59.3204 42.6397 59.3204 42.6397 59.3204 42.6397C59.4764 42.1855 59.2876 41.6846 58.8705 41.4465C58.4535 41.2083 57.926 41.3003 57.6141 41.6656L57.614 41.6657L57.6133 41.6666L57.6101 41.6702L57.5971 41.6855L57.5454 41.7456C57.5 41.7983 57.4334 41.8753 57.3496 41.9716C57.1818 42.1643 56.9452 42.4337 56.6708 42.7397C56.1182 43.356 55.4267 44.1045 54.8373 44.6751C54.564 44.9396 54.3434 45.2268 54.1674 45.4646C54.1222 45.5256 54.0809 45.5821 54.0423 45.6348C53.9163 45.8067 53.8196 45.9387 53.7144 46.0605C53.5847 46.2106 53.5058 46.2662 53.4628 46.2877C53.442 46.2981 53.4098 46.314 53.315 46.2995C53.1465 46.2739 53.0492 46.2165 52.9272 46.0907C52.8531 46.0142 52.773 45.9143 52.6688 45.7715C52.6227 45.7082 52.5763 45.6428 52.5241 45.5692L52.5044 45.5414C52.4456 45.4586 52.3808 45.3674 52.3115 45.2735C52.0397 44.9051 51.9819 44.6004 52.0083 44.2951C52.039 43.9406 52.1888 43.5312 52.455 42.9835C52.5338 42.8213 52.6249 42.6456 52.7224 42.4575C53.2179 41.5019 53.8782 40.2284 53.9271 38.7966C53.9911 36.9263 53.6135 34.6368 53.2404 32.8676C53.0515 31.9719 52.8589 31.188 52.7135 30.6277C52.6407 30.3473 52.5796 30.1223 52.5364 29.9664C52.5148 29.8885 52.4977 29.8278 52.4858 29.7862L52.472 29.7381L52.4683 29.7252L52.4672 29.7215L52.4669 29.7204L52.4668 29.7201C52.4668 29.7199 52.4667 29.7198 51.5068 30L52.4667 29.7198C52.3487 29.3154 51.9898 29.0283 51.5693 29.002C51.1488 28.9756 50.7569 29.2157 50.5893 29.6023L63.8098 51.0581C63.936 50.9415 64.0404 50.8429 64.1191 50.7677C64.1721 50.7171 64.2135 50.677 64.2422 50.6491L64.2754 50.6166L64.2846 50.6076L64.2873 50.605L64.2881 50.6041L64.2884 50.6038C64.2885 50.6037 64.2886 50.6036 63.5848 49.8932M62.8811 49.1827C62.8811 49.1828 62.881 49.1828 63.5848 49.8932M62.8811 49.1827C63.1402 48.9261 63.5184 48.8309 63.8681 48.9342C64.2179 49.0375 64.4836 49.323 64.5617 49.6793L63.5848 49.8932" stroke="black" stroke-width="2" stroke-linejoin="round"/>
<g filter="url(#filter6_i_228_487)">
<path d="M70.005 84.8278C70.0338 84.0252 70.3076 82.7096 70.3076 82.7096C70.3076 82.7096 71.9357 85.3679 73.1824 84.8278C74.4771 84.267 73.485 82.4562 73.485 81.0452C73.485 79.693 73.6387 79.0905 74.0902 77.8678C74.7632 76.0454 75.8668 75.4789 76.8137 73.7826C77.6008 72.3725 78.6293 70 78.6293 70C78.6293 70 79.6133 73.3711 79.5372 75.5983C79.4744 77.4357 77.5648 78.6945 78.6293 80.1374C78.9528 80.5758 79.1499 80.9633 79.6885 81.0452C80.4366 81.159 80.662 80.357 81.2015 79.8348C81.988 79.0734 83.0172 77.8678 83.0172 77.8678C83.0172 77.8678 82.3223 79.8896 82.2606 81.3478C82.199 82.806 82.7146 85.1304 82.7146 85.1304C84.0824 84.9521 86.3459 82.7096 86.3459 82.7096C86.3459 82.7096 86.6195 83.9589 86.6484 84.7615C86.815 89.3722 82.7882 93.0924 78.1754 92.9983C73.6568 92.906 69.8429 89.3445 70.005 84.8278Z" fill="#FFBA17"/>
</g>
<path d="M70.3076 82.7096L69.3286 82.5058C69.4121 82.1044 69.7323 81.7946 70.1363 81.7243C70.5399 81.6542 70.9455 81.8373 71.1598 82.1863C71.1599 82.1865 71.16 82.1866 71.1601 82.1868C71.1601 82.1868 71.1601 82.1869 71.1602 82.187L71.1604 82.1873M70.3076 82.7096L71.1604 82.1873M70.3076 82.7096C69.3286 82.5058 69.3286 82.5059 69.3286 82.5059L69.3285 82.5061L69.3284 82.5064L69.3282 82.5075L69.3275 82.5112L69.3248 82.524L69.3154 82.5707C69.3073 82.6107 69.296 82.668 69.2823 82.7389C69.2551 82.8806 69.2185 83.0781 69.1809 83.3022C69.1079 83.7367 69.0225 84.321 69.0056 84.792C68.8209 89.9388 73.1533 93.8959 78.155 93.998C83.283 94.1027 87.8371 89.9676 87.6478 84.7254C87.6307 84.252 87.5447 83.6829 87.4714 83.2626C87.4336 83.0459 87.3968 82.856 87.3694 82.72C87.3557 82.6518 87.3442 82.5968 87.3361 82.5584L87.3266 82.5134L87.3239 82.501L87.3231 82.4974L87.3228 82.4963L87.3228 82.4959L87.3227 82.4958C87.3227 82.4957 87.3227 82.4956 86.3459 82.7096L87.3227 82.4956C87.2447 82.1394 86.9789 81.8538 86.6291 81.7505C86.2795 81.6472 85.9013 81.7425 85.6422 81.999L85.642 81.9992L70.3076 82.7096ZM71.1604 82.1873L71.1614 82.189L71.1714 82.2048C71.1809 82.2199 71.196 82.2436 71.2163 82.2745C71.257 82.3366 71.3179 82.4271 71.395 82.535C71.5513 82.7536 71.7649 83.0304 72.0051 83.2853C72.254 83.5493 72.4866 83.7413 72.6744 83.8405C72.7448 83.8777 72.7886 83.8921 72.8118 83.8973M71.1604 82.1873L72.8118 83.8973M72.8118 83.8973C72.8173 83.8943 72.8215 83.8918 72.8247 83.8898C72.8251 83.8887 72.8255 83.8874 72.826 83.8861C72.8451 83.8279 72.8643 83.6826 72.8267 83.3776C72.7988 83.1513 72.7526 82.9199 72.6976 82.6448C72.6786 82.5497 72.6586 82.4493 72.6379 82.3422C72.5641 81.9597 72.485 81.501 72.485 81.0452C72.485 80.3301 72.5255 79.7704 72.6378 79.2111C72.7487 78.6588 72.9228 78.1423 73.1521 77.5214C73.5452 76.4569 74.0701 75.7587 74.577 75.1426C74.6537 75.0494 74.7288 74.9592 74.8025 74.8707C75.2158 74.3748 75.5853 73.9314 75.9405 73.2952C76.3145 72.6253 76.7552 71.7087 77.1089 70.9431C77.2842 70.5637 77.4354 70.2275 77.5426 69.9864C77.5962 69.8659 77.6388 69.7693 77.6678 69.7031L77.7009 69.6274L77.7093 69.6082L77.7113 69.6035L77.7117 69.6025L77.7118 69.6023C77.7118 69.6023 77.7118 69.6022 77.7118 69.6022C77.8794 69.2157 78.2713 68.9756 78.6918 69.002C79.1123 69.0283 79.4712 69.3154 79.5893 69.7198L78.6293 70C79.5893 69.7198 79.5893 69.7199 79.5893 69.72L79.5894 69.7203L79.5897 69.7212L79.5904 69.7238L79.593 69.7326L79.6021 69.7645C79.6099 69.7919 79.6211 69.8314 79.6351 69.8821C79.6632 69.9834 79.7028 70.1291 79.7498 70.3103C79.8438 70.6723 79.9682 71.1787 80.0903 71.7576C80.3297 72.893 80.579 74.3915 80.5366 75.6324C80.5022 76.6386 80.0314 77.5419 79.7164 78.1465C79.6575 78.2595 79.6041 78.362 79.5599 78.4528C79.3933 78.7957 79.3231 79.0073 79.3095 79.1642C79.3002 79.2719 79.3127 79.3792 79.434 79.5437C79.4805 79.6066 79.5236 79.6673 79.5612 79.7203L79.5738 79.738C79.6074 79.7854 79.6356 79.8251 79.6635 79.8635C79.7154 79.9345 79.7512 79.9795 79.7789 80.0103C79.8311 79.9484 79.8801 79.8816 79.9517 79.7839C79.9774 79.7488 80.0061 79.7097 80.0389 79.6653C80.1535 79.5105 80.3089 79.307 80.506 79.1163C80.8732 78.7608 81.3081 78.2903 81.6597 77.8982C81.8336 77.7043 81.9836 77.5335 82.0899 77.4114C82.143 77.3504 82.1851 77.3017 82.2137 77.2685L82.2462 77.2307L82.2543 77.2212L82.2562 77.219L82.2566 77.2186L82.2566 77.2186C82.2566 77.2185 82.2566 77.2185 82.2566 77.2185M72.8118 83.8973L82.4414 80.0014C82.6936 79.7362 82.9402 79.466 83.1488 79.2334C83.3305 79.0308 83.487 78.8525 83.5982 78.7248C83.6539 78.6609 83.6983 78.6094 83.7291 78.5738L83.7646 78.5324L83.7741 78.5214L83.7766 78.5184L83.7774 78.5175L83.7776 78.5172L83.7777 78.5171L83.0172 77.8678L82.2566 77.2185M82.2566 77.2185C82.5685 76.8533 83.0959 76.7613 83.513 76.9994C83.9301 77.2376 84.1189 77.7385 83.9629 78.1927C83.9629 78.1927 83.9629 78.1928 83.9629 78.1928L83.9629 78.1929L83.9619 78.1958L83.9571 78.2099L83.9371 78.27C83.9195 78.3236 83.8937 78.4032 83.8624 78.5038C83.7996 78.7054 83.7151 78.9893 83.6289 79.3161C83.4521 79.9866 83.2859 80.772 83.2597 81.3901C83.2334 82.0132 83.3325 82.8756 83.4521 83.6292C83.4583 83.668 83.4645 83.7064 83.4707 83.7442L82.2566 77.2185ZM72.8326 83.8998C72.8327 83.9001 72.8298 83.9004 72.8234 83.8995C72.8292 83.899 72.8324 83.8994 72.8326 83.8998ZM72.8324 83.8841C72.8325 83.8841 72.8321 83.8845 72.8311 83.8853L72.8324 83.8841Z" stroke="black" stroke-width="2" stroke-linejoin="round"/>
<defs>
<filter id="filter0_i_228_487" x="31.9996" y="24.9999" width="37.0669" height="47" filterUnits="userSpaceOnUse" color-interpolation-filters="sRGB">
<feFlood flood-opacity="0" result="BackgroundImageFix"/>
<feBlend mode="normal" in="SourceGraphic" in2="BackgroundImageFix" result="shape"/>
<feColorMatrix in="SourceAlpha" type="matrix" values="0 0 0 0 0 0 0 0 0 0 0 0 0 0 0 0 0 0 127 0" result="hardAlpha"/>
<feOffset dx="-3" dy="4"/>
<feGaussianBlur stdDeviation="0.5"/>
<feComposite in2="hardAlpha" operator="arithmetic" k2="-1" k3="1"/>
<feColorMatrix type="matrix" values="0 0 0 0 0.875 0 0 0 0 0 0 0 0 0 0 0 0 0 0.25 0"/>
<feBlend mode="normal" in2="shape" result="effect1_innerShadow_228_487"/>
</filter>
<filter id="filter1_i_228_487" x="63.9996" y="64.9999" width="27.6541" height="34" filterUnits="userSpaceOnUse" color-interpolation-filters="sRGB">
<feFlood flood-opacity="0" result="BackgroundImageFix"/>
<feBlend mode="normal" in="SourceGraphic" in2="BackgroundImageFix" result="shape"/>
<feColorMatrix in="SourceAlpha" type="matrix" values="0 0 0 0 0 0 0 0 0 0 0 0 0 0 0 0 0 0 127 0" result="hardAlpha"/>
<feOffset dx="-3" dy="4"/>
<feGaussianBlur stdDeviation="0.5"/>
<feComposite in2="hardAlpha" operator="arithmetic" k2="-1" k3="1"/>
<feColorMatrix type="matrix" values="0 0 0 0 0.875 0 0 0 0 0 0 0 0 0 0 0 0 0 0.25 0"/>
<feBlend mode="normal" in2="shape" result="effect1_innerShadow_228_487"/>
</filter>
<filter id="filter2_i_228_487" x="35" y="38.9219" width="54.3247" height="18.3376" filterUnits="userSpaceOnUse" color-interpolation-filters="sRGB">
<feFlood flood-opacity="0" result="BackgroundImageFix"/>
<feBlend mode="normal" in="SourceGraphic" in2="BackgroundImageFix" result="shape"/>
<feColorMatrix in="SourceAlpha" type="matrix" values="0 0 0 0 0 0 0 0 0 0 0 0 0 0 0 0 0 0 127 0" result="hardAlpha"/>
<feOffset dx="-3" dy="4"/>
<feGaussianBlur stdDeviation="1"/>
<feComposite in2="hardAlpha" operator="arithmetic" k2="-1" k3="1"/>
<feColorMatrix type="matrix" values="0 0 0 0 0.0252778 0 0 0 0 0.390963 0 0 0 0 0.733056 0 0 0 0.62 0"/>
<feBlend mode="normal" in2="shape" result="effect1_innerShadow_228_487"/>
</filter>
<filter id="filter3_i_228_487" x="28" y="64.0146" width="16.2686" height="12.6528" filterUnits="userSpaceOnUse" color-interpolation-filters="sRGB">
<feFlood flood-opacity="0" result="BackgroundImageFix"/>
<feBlend mode="normal" in="SourceGraphic" in2="BackgroundImageFix" result="shape"/>
<feColorMatrix in="SourceAlpha" type="matrix" values="0 0 0 0 0 0 0 0 0 0 0 0 0 0 0 0 0 0 127 0" result="hardAlpha"/>
<feOffset dx="-3" dy="4"/>
<feGaussianBlur stdDeviation="0.5"/>
<feComposite in2="hardAlpha" operator="arithmetic" k2="-1" k3="1"/>
<feColorMatrix type="matrix" values="0 0 0 0 0.875 0 0 0 0 0 0 0 0 0 0 0 0 0 0.25 0"/>
<feBlend mode="normal" in2="shape" result="effect1_innerShadow_228_487"/>
</filter>
<filter id="filter4_i_228_487" x="81.7314" y="64.0146" width="16.2686" height="12.6528" filterUnits="userSpaceOnUse" color-interpolation-filters="sRGB">
<feFlood flood-opacity="0" result="BackgroundImageFix"/>
<feBlend mode="normal" in="SourceGraphic" in2="BackgroundImageFix" result="shape"/>
<feColorMatrix in="SourceAlpha" type="matrix" values="0 0 0 0 0 0 0 0 0 0 0 0 0 0 0 0 0 0 127 0" result="hardAlpha"/>
<feOffset dx="-3" dy="4"/>
<feGaussianBlur stdDeviation="0.5"/>
<feComposite in2="hardAlpha" operator="arithmetic" k2="-1" k3="1"/>
<feColorMatrix type="matrix" values="0 0 0 0 0.875 0 0 0 0 0 0 0 0 0 0 0 0 0 0.25 0"/>
<feBlend mode="normal" in2="shape" result="effect1_innerShadow_228_487"/>
</filter>
<filter id="filter5_i_228_487" x="34.9999" y="28" width="31.0665" height="41" filterUnits="userSpaceOnUse" color-interpolation-filters="sRGB">
<feFlood flood-opacity="0" result="BackgroundImageFix"/>
<feBlend mode="normal" in="SourceGraphic" in2="BackgroundImageFix" result="shape"/>
<feColorMatrix in="SourceAlpha" type="matrix" values="0 0 0 0 0 0 0 0 0 0 0 0 0 0 0 0 0 0 127 0" result="hardAlpha"/>
<feOffset dx="-3" dy="4"/>
<feGaussianBlur stdDeviation="0.5"/>
<feComposite in2="hardAlpha" operator="arithmetic" k2="-1" k3="1"/>
<feColorMatrix type="matrix" values="0 0 0 0 0.875 0 0 0 0 0 0 0 0 0 0 0 0 0 0.25 0"/>
<feBlend mode="normal" in2="shape" result="effect1_innerShadow_228_487"/>
</filter>
<filter id="filter6_i_228_487" x="66.9999" y="68" width="21.6537" height="28" filterUnits="userSpaceOnUse" color-interpolation-filters="sRGB">
<feFlood flood-opacity="0" result="BackgroundImageFix"/>
<feBlend mode="normal" in="SourceGraphic" in2="BackgroundImageFix" result="shape"/>
<feColorMatrix in="SourceAlpha" type="matrix" values="0 0 0 0 0 0 0 0 0 0 0 0 0 0 0 0 0 0 127 0" result="hardAlpha"/>
<feOffset dx="-3" dy="4"/>
<feGaussianBlur stdDeviation="0.5"/>
<feComposite in2="hardAlpha" operator="arithmetic" k2="-1" k3="1"/>
<feColorMatrix type="matrix" values="0 0 0 0 0.875 0 0 0 0 0 0 0 0 0 0 0 0 0 0.25 0"/>
<feBlend mode="normal" in2="shape" result="effect1_innerShadow_228_487"/>
</filter>
</defs>
</svg>
