<svg width="60" height="69" viewBox="0 0 60 69" fill="none" xmlns="http://www.w3.org/2000/svg">
<path d="M46.9365 8.35742L45.0518 10C46.8353 8.44567 46.931 8.36245 46.9365 8.3584L46.9404 8.3623C46.9424 8.36459 46.9451 8.36751 46.9482 8.37109C46.9545 8.37828 46.963 8.38808 46.9736 8.40039C46.995 8.42525 47.0252 8.46081 47.0635 8.50586C47.14 8.59603 47.2495 8.72618 47.3867 8.89258C47.6609 9.22517 48.048 9.70427 48.5098 10.3047C49.4317 11.5033 50.6623 13.1985 51.8975 15.1816C54.2941 19.0297 57 24.4204 57 29.5C57 31.7473 56.4575 33.6409 55.4775 35.1826C54.5042 36.7137 53.1898 37.7555 51.8574 38.4561C49.2655 39.8187 46.4176 39.9892 45.0518 39.9893C43.6436 39.9893 40.6718 39.8205 37.9639 38.4863C36.576 37.8025 35.1847 36.7767 34.1445 35.2471C33.0917 33.6988 32.5 31.7821 32.5 29.5C32.5 24.375 35.3981 18.9608 37.9414 15.1221C39.2557 13.1384 40.5656 11.4441 41.5459 10.2461C42.0371 9.64571 42.4488 9.16631 42.7402 8.83398C42.8859 8.6679 43.0018 8.53821 43.083 8.44824C43.1236 8.4033 43.156 8.36854 43.1787 8.34375L43.2139 8.30469L43.2178 8.30078L45.1094 6.26074L46.9365 8.35742Z" fill="white" stroke="white" stroke-width="5"/>
<path d="M42 2.5C44.4853 2.5 46.5 4.51472 46.5 7V62C46.5 64.4853 44.4853 66.5 42 66.5H7C4.51472 66.5 2.5 64.4853 2.5 62V7C2.5 4.51472 4.51472 2.5 7 2.5H42Z" fill="#D9D9D9" stroke="white" stroke-width="5"/>
<path fill-rule="evenodd" clip-rule="evenodd" d="M7 3H42C44.2091 3 46 4.79086 46 7V62C46 64.2091 44.2091 66 42 66H7C4.79086 66 3 64.2091 3 62V7C3 4.79086 4.79086 3 7 3ZM7 5C5.89543 5 5 5.89543 5 7V62C5 63.1046 5.89543 64 7 64H42C43.1046 64 44 63.1046 44 62V7C44 5.89543 43.1046 5 42 5H7Z" fill="black"/>
<path d="M21 16C21 17.6569 22.3431 19 24 19C25.6569 19 27 17.6569 27 16L21 16ZM24 5L21 5L21 16L24 16L27 16L27 5L24 5Z" fill="white"/>
<path d="M27 55C27 53.3431 25.6569 52 24 52C22.3431 52 21 53.3431 21 55L27 55ZM24 64L27 64L27 55L24 55L21 55L21 64L24 64Z" fill="white"/>
<path d="M8.41629 63.9264C7.87487 63.5691 7.87487 63.1403 8.33895 62.4256C7.95222 61.8539 9.96322 60.7105 10.0406 61.0678C10.1179 61.4251 11.2781 61.1392 11.5875 61.2107C11.8969 61.2822 12.2063 62.1398 11.8195 62.4256C11.4328 62.7115 11.6648 62.5686 11.3554 62.9973C11.0461 63.4261 10.814 63.6405 10.1953 63.4261C9.57649 63.2117 8.95772 64.2837 8.41629 63.9264Z" fill="black"/>
<path d="M29.4839 54.3224C29.2273 53.4997 29.58 52.903 30.6399 52.1876C30.717 51.1595 33.7027 50.7775 33.4874 51.3212C33.272 51.8649 34.687 52.1647 34.9429 52.4502C35.1987 52.7356 34.8078 54.1149 34.1793 54.2802C33.5509 54.4455 33.9044 54.3861 33.2371 54.7967C32.5697 55.2074 32.1573 55.3662 31.7045 54.6959C31.2516 54.0255 29.7405 55.1452 29.4839 54.3224Z" fill="black"/>
<path d="M36.5466 58.2227C35.9779 58.3584 35.6368 58.0891 35.3122 57.3314C34.6542 57.2295 34.8012 55.1732 35.1261 55.3462C35.451 55.5193 35.8332 54.5678 36.0526 54.4068C36.272 54.2459 37.1167 54.5788 37.1409 55.0157C37.1651 55.4525 37.1733 55.2084 37.3519 55.6836C37.5304 56.1588 37.579 56.4479 37.0834 56.7249C36.5877 57.0018 37.1154 58.0869 36.5466 58.2227Z" fill="black"/>
<path d="M40.7949 49.0987C42.1629 48.0365 41.9743 47.1525 40.3524 45.9582C41.1903 44.5471 35.1003 42.1974 34.267 42.1953C32.8451 42.1918 31.5062 45.0737 30.666 45.407C29.8259 45.7404 29.3316 47.6944 30.5469 48.0512C31.7622 48.4079 31.0456 48.2528 32.1059 48.9508C33.1662 49.6487 33.9142 49.9512 35.5631 49.1371C37.2119 48.323 39.4268 50.1609 40.7949 49.0987Z" fill="black"/>
<path d="M6.52195 57.4898C4.85528 55.9258 5.15127 54.5391 7.28458 52.5779C6.31257 50.4372 13.0219 49.4218 14.2352 49.4701C15.5 49.5205 17.5701 49.0057 18.6141 49.4702C19.6581 49.9347 20.1694 51.3418 20 53.0205C19.9045 53.9666 18.1169 55.2365 16.7276 56.3899C15.3382 57.5433 15.1926 58.3739 13.1539 57.2138C11.1153 56.0537 8.18863 59.0538 6.52195 57.4898Z" fill="black"/>
<path d="M28.2152 35.1723C29.1502 36.6271 28.8031 38.0019 27.1751 40.0283C27.5867 42.0822 23.0273 43.3996 22.2281 43.4103C21.3949 43.4214 19.9662 44.0256 19.3245 43.6198C18.6827 43.214 18.4968 41.8578 18.7918 40.2026C18.958 39.2697 20.2816 37.9381 21.3283 36.7399C22.375 35.5418 22.562 34.7198 23.7876 35.7605C25.0132 36.8012 27.2802 33.7174 28.2152 35.1723Z" fill="black"/>
<path d="M45.0518 10L45.8057 9.34277L45.0742 8.50391L44.3184 9.32031L45.0518 10ZM45.0518 10C45.7565 9.38586 45.8025 9.34614 45.8057 9.34375H45.8066C45.8071 9.34427 45.8079 9.34486 45.8086 9.3457C45.8101 9.34741 45.8118 9.35049 45.8145 9.35352C45.8197 9.35955 45.8274 9.36784 45.8369 9.37891C45.8562 9.4013 45.8839 9.43412 45.9199 9.47656C45.9921 9.56154 46.0971 9.68611 46.2295 9.84668C46.4942 10.1677 46.8699 10.6341 47.3203 11.2197C48.2206 12.3902 49.4223 14.0435 50.625 15.9746C53.0009 19.7895 55.5 24.8708 55.5 29.5C55.5 31.4985 55.0206 33.1057 54.2119 34.3779C53.4058 35.6459 52.3089 36.5244 51.1592 37.1289C48.8889 38.3224 46.3326 38.4892 45.0518 38.4893C43.723 38.4893 41.0265 38.3229 38.627 37.1406C37.4136 36.5428 36.2466 35.6708 35.3848 34.4033C34.5179 33.1285 34 31.5125 34 29.5C34 24.8526 36.6673 19.7623 39.1924 15.9512C40.4719 14.0199 41.7495 12.3665 42.707 11.1963C43.1862 10.6106 43.5867 10.1442 43.8682 9.82324C44.0086 9.66307 44.1197 9.53897 44.1963 9.4541C44.2346 9.41169 44.2647 9.37883 44.2852 9.35645C44.2954 9.34525 44.303 9.3361 44.3086 9.33008L44.3174 9.32129V9.32031C44.3176 9.32009 44.3184 9.32012 45.0518 10Z" fill="black" stroke="black" stroke-width="2"/>
</svg>
