<svg width="128" height="128" viewBox="0 0 128 128" fill="none" xmlns="http://www.w3.org/2000/svg">
<circle cx="64" cy="64" r="64" fill="#3C4043"/>
<path d="M92.1801 51.3293L94.8291 48.486C95.0728 48.2244 95.2576 47.9136 95.371 47.5745L93 46.7818C95.371 47.5745 95.3714 47.5732 95.3718 47.5719L95.3727 47.5693L95.3746 47.5637L95.3784 47.552L95.3869 47.5255C95.3928 47.5066 95.3994 47.4851 95.4064 47.4611C95.4205 47.4132 95.4366 47.3551 95.4535 47.2876C95.4872 47.1531 95.5247 46.9787 95.556 46.7712C95.6179 46.3604 95.6589 45.794 95.5814 45.1376C95.4189 43.7605 94.7414 42.1122 92.9907 40.8118C91.3474 39.5911 89.5536 39.4332 88.3237 39.5202C87.6988 39.5643 87.1678 39.674 86.788 39.7735C86.5962 39.8238 86.4374 39.873 86.3182 39.9128C86.2585 39.9328 86.2082 39.9506 86.1683 39.9653C86.1483 39.9726 86.1308 39.9792 86.116 39.9848L86.0957 39.9926L86.087 39.996L86.0831 39.9976L86.0812 39.9983C86.0803 39.9987 86.0794 39.999 87 42.3233L86.0794 39.999C85.7656 40.1233 85.4802 40.3098 85.2405 40.5474L74.9713 50.7217H64C56.0138 50.7217 49.5 57.1421 49.5 65.1109C49.5 73.0796 56.0138 79.5 64 79.5H88C95.9862 79.5 102.5 73.0796 102.5 65.1109C102.5 58.5911 98.1397 53.1078 92.1801 51.3293Z" fill="#B35D0A" stroke="white" stroke-width="5" stroke-linecap="round" stroke-linejoin="round"/>
<path d="M40 32.5C37.5147 32.5 35.5 34.5147 35.5 37V92C35.5 94.4853 37.5147 96.5 40 96.5H75C77.4853 96.5 79.5 94.4853 79.5 92V37C79.5 34.5147 77.4853 32.5 75 32.5H40Z" fill="#D9D9D9" stroke="white" stroke-width="5"/>
<path fill-rule="evenodd" clip-rule="evenodd" d="M40 33H75C77.2091 33 79 34.7909 79 37V92C79 94.2091 77.2091 96 75 96H40C37.7909 96 36 94.2091 36 92V37C36 34.7909 37.7909 33 40 33ZM40 35C38.8954 35 38 35.8954 38 37V92C38 93.1046 38.8954 94 40 94H75C76.1046 94 77 93.1046 77 92V37C77 35.8954 76.1046 35 75 35H40Z" fill="black"/>
<path d="M89.2441 52.28L93.7317 47.4634C93.8291 47.3588 93.903 47.2345 93.9484 47.0989L93 46.7818C93.9484 47.0989 93.9486 47.0984 93.9487 47.0978L93.9491 47.0967L93.9499 47.0943L93.9517 47.0888L93.956 47.0753C93.9592 47.0651 93.9631 47.0526 93.9674 47.0379C93.976 47.0084 93.9867 46.97 93.9984 46.9233C94.0218 46.8301 94.0494 46.7029 94.0727 46.5478C94.1192 46.2394 94.1504 45.8102 94.0918 45.3134C93.9715 44.2942 93.4755 43.0404 92.0963 42.0159C90.8389 41.082 89.4465 40.9445 88.4295 41.0164C87.917 41.0526 87.4796 41.1429 87.1683 41.2245C87.0119 41.2655 86.8851 41.3049 86.7941 41.3353C86.7485 41.3506 86.7117 41.3637 86.6844 41.3737L86.6507 41.3863L86.6394 41.3906L86.6351 41.3923L86.6333 41.393L86.6325 41.3933C86.6321 41.3935 86.6317 41.3936 87 42.3233L86.6317 41.3936C86.5062 41.4433 86.3921 41.5179 86.2962 41.613L75.5885 52.2217H64C56.8291 52.2217 51 57.9837 51 65.1109C51 72.2381 56.8291 78 64 78H88C95.1709 78 101 72.2381 101 65.1109C101 58.4007 95.8331 52.9007 89.2441 52.28Z" fill="#B35D0A" stroke="black" stroke-width="2" stroke-linecap="round" stroke-linejoin="round"/>
<path d="M89.5 52L85.5 56" stroke="black" stroke-width="2" stroke-linecap="round"/>
<circle cx="64" cy="65" r="4.5" stroke="white" stroke-opacity="0.59" stroke-width="3"/>
<circle cx="64" cy="65" r="9.5" stroke="white" stroke-opacity="0.59" stroke-width="3"/>
<path d="M53 46C53 47.6569 54.3431 49 56 49C57.6569 49 59 47.6569 59 46L53 46ZM53 35L53 46L59 46L59 35L53 35Z" fill="white"/>
<path d="M59 85C59 83.3431 57.6569 82 56 82C54.3431 82 53 83.3431 53 85L59 85ZM59 94L59 85L53 85L53 94L59 94Z" fill="white"/>
</svg>
