<svg width="71" height="69" viewBox="0 0 71 69" fill="none" xmlns="http://www.w3.org/2000/svg">
<path d="M42.8037 9.85449C44.678 7.06405 48.8181 7.06405 50.6924 9.85449L50.8721 10.1426L67.5205 38.9795L67.6807 39.2793C69.209 42.398 66.9483 46.1218 63.3975 46.1221H30.0986C26.4333 46.1218 24.1429 42.1539 25.9756 38.9795L42.624 10.1426L42.8037 9.85449Z" fill="#FEC206" stroke="white" stroke-width="5"/>
<path d="M42 2.5C44.4853 2.5 46.5 4.51472 46.5 7V62C46.5 64.4853 44.4853 66.5 42 66.5H7C4.51472 66.5 2.5 64.4853 2.5 62V7C2.5 4.51472 4.51472 2.5 7 2.5H42Z" fill="#D9D9D9" stroke="white" stroke-width="5"/>
<path fill-rule="evenodd" clip-rule="evenodd" d="M7 3H42C44.2091 3 46 4.79086 46 7V62C46 64.2091 44.2091 66 42 66H7C4.79086 66 3 64.2091 3 62V7C3 4.79086 4.79086 3 7 3ZM7 5C5.89543 5 5 5.89543 5 7V62C5 63.1046 5.89543 64 7 64H42C43.1046 64 44 63.1046 44 62V7C44 5.89543 43.1046 5 42 5H7Z" fill="black"/>
<path d="M21 16C21 17.6569 22.3431 19 24 19C25.6569 19 27 17.6569 27 16L21 16ZM24 5L21 5L21 16L24 16L27 16L27 5L24 5Z" fill="white"/>
<path d="M27 55C27 53.3431 25.6569 52 24 52C22.3431 52 21 53.3431 21 55L27 55ZM24 64L27 64L27 55L24 55L21 55L21 64L24 64Z" fill="white"/>
<path d="M44.0469 10.6953C45.3736 8.72051 48.357 8.78607 49.5732 10.8926L66.2217 39.7295L66.3311 39.9346C67.3782 42.0709 65.8298 44.6218 63.3975 44.6221H30.0986C27.588 44.6218 26.019 41.9039 27.2744 39.7295L43.9229 10.8926L44.0469 10.6953Z" fill="#FEC206" stroke="black" stroke-width="2"/>
<path d="M46.684 22.402C47.0507 22.402 47.3073 22.512 47.454 22.732C47.6007 22.952 47.674 23.194 47.674 23.458C47.674 24.162 47.6373 24.9613 47.564 25.856C47.4907 26.7507 47.41 27.6893 47.322 28.672C47.234 29.64 47.1533 30.6007 47.08 31.554C47.0067 32.4927 46.97 33.358 46.97 34.15H46.42C46.42 33.358 46.3833 32.4927 46.31 31.554C46.2367 30.6007 46.156 29.64 46.068 28.672C45.98 27.6893 45.8993 26.7507 45.826 25.856C45.7527 24.9613 45.716 24.162 45.716 23.458C45.716 23.194 45.7893 22.952 45.936 22.732C46.0827 22.512 46.332 22.402 46.684 22.402ZM46.684 35.888C47.0213 35.888 47.3 36.0053 47.52 36.24C47.74 36.46 47.85 36.7387 47.85 37.076C47.85 37.3987 47.74 37.67 47.52 37.89C47.3 38.11 47.0213 38.22 46.684 38.22C46.376 38.22 46.1047 38.11 45.87 37.89C45.65 37.67 45.54 37.3987 45.54 37.076C45.54 36.7387 45.65 36.46 45.87 36.24C46.1047 36.0053 46.376 35.888 46.684 35.888Z" fill="black"/>
</svg>
