<svg width="128" height="128" viewBox="0 0 128 128" fill="none" xmlns="http://www.w3.org/2000/svg">
<circle cx="64" cy="64" r="64" fill="#3C4043"/>
<path d="M87.4713 35.3308C85.2921 31.5564 79.8442 31.5564 77.665 35.3308L62.2632 62.0075C60.0841 65.7819 62.808 70.5 67.1664 70.5H81.7777H83.3586H97.9699C102.328 70.5 105.052 65.7819 102.873 62.0075L87.4713 35.3308Z" fill="#FEC206" stroke="white" stroke-width="5"/>
<path d="M45 31.5C42.5147 31.5 40.5 33.5147 40.5 36V91C40.5 93.4853 42.5147 95.5 45 95.5H80C82.4853 95.5 84.5 93.4853 84.5 91V36C84.5 33.5147 82.4853 31.5 80 31.5H45Z" fill="#D9D9D9" stroke="white" stroke-width="5"/>
<path fill-rule="evenodd" clip-rule="evenodd" d="M45 32H80C82.2091 32 84 33.7909 84 36V91C84 93.2091 82.2091 95 80 95H45C42.7909 95 41 93.2091 41 91V36C41 33.7909 42.7909 32 45 32ZM45 34C43.8954 34 43 34.8954 43 36V91C43 92.1046 43.8954 93 45 93H80C81.1046 93 82 92.1046 82 91V36C82 34.8954 81.1046 34 80 34H45Z" fill="black"/>
<path d="M58 45C58 46.6569 59.3431 48 61 48C62.6569 48 64 46.6569 64 45L58 45ZM58 34L58 45L64 45L64 34L58 34Z" fill="white"/>
<path d="M64 84C64 82.3431 62.6569 81 61 81C59.3431 81 58 82.3431 58 84L64 84ZM64 93L64 84L58 84L58 93L64 93Z" fill="white"/>
<path d="M65.2541 76.9303C63.6318 77.7284 62.3887 78.6323 61.7592 79.8096C61.0086 81.2133 61.2608 82.7227 62.0817 84.2811C62.6225 85.308 63.5124 85.8003 64.4344 86.0244C65.3091 86.2371 66.2949 86.2282 67.152 86.2151C67.2044 86.2143 67.2565 86.2135 67.3082 86.2127C68.1555 86.1993 68.903 86.1876 69.5708 86.2945C70.2579 86.4045 70.7335 86.6232 71.0622 86.9948C72.2225 88.3069 73.3416 89.0407 74.6172 89.2034C75.8393 89.3592 77.0218 88.9574 78.1929 88.4913C79.2251 88.0805 79.6576 87.8011 79.8762 87.6598C79.9239 87.629 79.9614 87.6048 79.9927 87.5872C79.9935 87.5868 79.9942 87.5862 79.9951 87.5855C80.0098 87.5738 80.0689 87.5266 81.2483 87.444C83.0871 87.3151 84.0473 85.6398 84.4024 84.3103C84.5931 83.5964 84.6596 82.8366 84.584 82.151C84.5122 81.4992 84.2919 80.7479 83.7441 80.2413C83.3299 79.8583 82.6184 79.4827 81.9646 79.1537C81.6943 79.0177 81.4202 78.8835 81.1441 78.7483C80.6794 78.5206 80.2093 78.2904 79.7427 78.0446C79.0013 77.6542 78.3931 77.2869 78.0093 76.9529C77.8387 76.8044 77.7621 76.7084 77.7296 76.6581C77.8116 76.3005 77.7408 75.9513 77.5702 75.6631C77.4032 75.3811 77.1628 75.1904 76.9612 75.0636C76.5583 74.8102 76.0285 74.6384 75.4969 74.5162C74.4055 74.2652 72.9541 74.1461 71.5233 74.1853C70.1013 74.2242 68.5978 74.422 67.4332 74.8658C66.8524 75.0871 66.2818 75.3971 65.8579 75.845C65.5707 76.1485 65.3546 76.5139 65.2541 76.9303ZM77.7077 76.6156C77.7082 76.6156 77.7102 76.6198 77.7122 76.6279C77.7082 76.6195 77.7072 76.6155 77.7077 76.6156Z" fill="#7A7A7A" stroke="black" stroke-width="2"/>
<path d="M42.6875 42.2952C41.0968 43.63 39.9871 44.9761 39.7515 46.4439C39.4697 48.1999 40.4759 49.687 42.0994 51.0192C43.1124 51.8504 44.2737 52.073 45.4031 52.0281C46.5006 51.9846 47.6477 51.6841 48.6927 51.4017C48.7599 51.3835 48.8268 51.3654 48.8933 51.3474C49.9039 51.0737 50.8354 50.8214 51.7298 50.7237C52.6658 50.6215 53.4631 50.7026 54.1567 51.0595C56.0499 52.0334 57.3734 52.3773 58.6195 51.9277C59.1948 51.7201 59.6742 51.3679 60.1032 51.0286C60.2303 50.9281 60.3544 50.8275 60.4799 50.7259C60.8053 50.4622 61.1398 50.1912 61.5576 49.8955C62.2899 49.3774 62.739 48.8241 63.0172 48.2443C63.2522 47.7545 63.346 47.2728 63.4102 46.9432C63.418 46.9032 63.4254 46.8654 63.4325 46.8301C63.5055 46.4682 63.5578 46.329 63.6426 46.2198C63.7188 46.1217 63.9115 45.9384 64.4894 45.7506C66.5482 45.0814 67.0095 43.0299 66.8322 41.4508C66.7398 40.6284 66.4756 39.8075 66.0822 39.1196C65.6981 38.4481 65.131 37.8024 64.3744 37.4921C63.639 37.1905 62.6816 37.236 61.8746 37.3242C61.2509 37.3924 60.5629 37.5086 59.9184 37.6173C59.6849 37.6567 59.4571 37.6952 59.2401 37.7301C58.3687 37.87 57.6857 37.9495 57.2323 37.9116C57.182 37.9074 57.1404 37.9021 57.1065 37.8966C57.023 37.5352 56.8019 37.2634 56.5627 37.0846C56.3 36.8882 55.9961 36.7836 55.7351 36.7216C55.2072 36.5961 54.5458 36.5753 53.8599 36.6099C52.465 36.6802 50.6812 36.9965 48.9801 37.4765C47.292 37.9529 45.586 38.618 44.3972 39.4327C43.8085 39.836 43.2573 40.3359 42.9414 40.9493C42.7245 41.3706 42.6291 41.8298 42.6875 42.2952Z" fill="#7A7A7A" stroke="black" stroke-width="2"/>
<path d="M86.1723 36.0808C84.5705 33.3064 80.5659 33.3064 78.964 36.0808L63.5623 62.7575C61.9604 65.5319 63.9627 69 67.1664 69H81.7777H83.3586H97.9699C101.174 69 103.176 65.5319 101.574 62.7575L86.1723 36.0808Z" fill="#FEC206" stroke="black" stroke-width="2"/>
<path d="M82.904 39.312C83.4373 39.312 83.8107 39.472 84.024 39.792C84.2373 40.112 84.344 40.464 84.344 40.848C84.344 41.872 84.2907 43.0347 84.184 44.336C84.0773 45.6373 83.96 47.0027 83.832 48.432C83.704 49.84 83.5867 51.2373 83.48 52.624C83.3733 53.9893 83.32 55.248 83.32 56.4H82.52C82.52 55.248 82.4667 53.9893 82.36 52.624C82.2533 51.2373 82.136 49.84 82.008 48.432C81.88 47.0027 81.7627 45.6373 81.656 44.336C81.5493 43.0347 81.496 41.872 81.496 40.848C81.496 40.464 81.6027 40.112 81.816 39.792C82.0293 39.472 82.392 39.312 82.904 39.312ZM82.904 58.928C83.3947 58.928 83.8 59.0987 84.12 59.44C84.44 59.76 84.6 60.1653 84.6 60.656C84.6 61.1253 84.44 61.52 84.12 61.84C83.8 62.16 83.3947 62.32 82.904 62.32C82.456 62.32 82.0613 62.16 81.72 61.84C81.4 61.52 81.24 61.1253 81.24 60.656C81.24 60.1653 81.4 59.76 81.72 59.44C82.0613 59.0987 82.456 58.928 82.904 58.928Z" fill="black"/>
</svg>
