<svg width="79" height="69" viewBox="0 0 79 69" fill="none" xmlns="http://www.w3.org/2000/svg">
<path d="M42 2.5C44.4853 2.5 46.5 4.51472 46.5 7V62C46.5 64.4853 44.4853 66.5 42 66.5H7C4.51472 66.5 2.5 64.4853 2.5 62V7C2.5 4.51472 4.51472 2.5 7 2.5H42Z" fill="#D9D9D9" stroke="white" stroke-width="5"/>
<path fill-rule="evenodd" clip-rule="evenodd" d="M7 3H42C44.2091 3 46 4.79086 46 7V62C46 64.2091 44.2091 66 42 66H7C4.79086 66 3 64.2091 3 62V7C3 4.79086 4.79086 3 7 3ZM7 5C5.89543 5 5 5.89543 5 7V62C5 63.1046 5.89543 64 7 64H42C43.1046 64 44 63.1046 44 62V7C44 5.89543 43.1046 5 42 5H7Z" fill="black"/>
<path d="M21 16C21 17.6569 22.3431 19 24 19C25.6569 19 27 17.6569 27 16L21 16ZM24 5L21 5L21 16L24 16L27 16L27 5L24 5Z" fill="white"/>
<path d="M27 55C27 53.3431 25.6569 52 24 52C22.3431 52 21 53.3431 21 55L27 55ZM24 64L27 64L27 55L24 55L21 55L21 64L24 64Z" fill="white"/>
<mask id="path-5-outside-1_273_167" maskUnits="userSpaceOnUse" x="17" y="18" width="62" height="43" fill="black">
<rect fill="white" x="17" y="18" width="62" height="43"/>
<path d="M27.0678 52.2382C27.0678 51.0455 28.0346 50.0786 29.2273 50.0786H31.6954C32.8881 50.0786 33.8549 51.0455 33.8549 52.2382V53.7807C33.8549 54.9734 32.8881 55.9403 31.6954 55.9403H29.2273C28.0346 55.9403 27.0678 54.9734 27.0678 53.7807V52.2382Z"/>
<path d="M62.542 52.2382C62.542 51.0455 63.5089 50.0786 64.7016 50.0786H67.1696C68.3623 50.0786 69.3292 51.0455 69.3292 52.2382V53.7807C69.3292 54.9734 68.3623 55.9403 67.1696 55.9403H64.7016C63.5089 55.9403 62.542 54.9734 62.542 53.7807V52.2382Z"/>
<path d="M29.6016 35.6694L32.9069 24.6143C33.1934 23.6563 34.0747 23 35.0745 23H61.5034C62.5033 23 63.3846 23.6563 63.671 24.6143L66.9763 35.6694H29.6016Z"/>
<path d="M29.1412 36.5044H67.1611L70.6987 41.188C70.9818 41.5628 71.135 42.0198 71.135 42.4895V51.3128H25.1673V42.4895C25.1673 42.0198 25.3205 41.5628 25.6037 41.188L29.1412 36.5044Z"/>
<path d="M32.769 33.2999L35.1325 26.1884C35.2722 25.768 35.6654 25.4844 36.1084 25.4844H60.0418C60.4847 25.4844 60.8779 25.768 61.0176 26.1884L63.3812 33.2999H32.769Z"/>
<path d="M22 33.4194C22 32.8514 22.4604 32.391 23.0284 32.391H26.9361V34.4477H23.0284C22.4604 34.4477 22 33.9873 22 33.4194Z"/>
<path d="M74 33.4194C74 32.8514 73.5396 32.391 72.9716 32.391H69.0639V34.4477H72.9716C73.5396 34.4477 74 33.9873 74 33.4194Z"/>
<path d="M28.0502 41.7489C27.7285 42.0574 27.6389 42.88 27.7417 43.3427C27.8445 43.8055 28.8729 44.9371 29.3357 45.2454C29.8726 45.6032 30.4154 46.1195 31.6495 46.2222C32.2131 46.269 33.3182 46.0165 33.7576 45.708C34.1969 45.3995 34.8824 44.6796 34.8374 44.2683C34.7923 43.8569 34.5077 43.5435 34.0661 43.3427C33.5005 43.0857 32.706 43.0363 31.7523 42.6743C30.7831 42.3065 30.1069 41.5947 29.5928 41.4404C29.0786 41.2861 28.372 41.4403 28.0502 41.7489Z"/>
<path d="M68.5277 41.7489C68.8495 42.0574 68.939 42.88 68.8362 43.3427C68.7334 43.8055 67.705 44.9371 67.2423 45.2454C66.7053 45.6032 66.1625 46.1195 64.9285 46.2222C64.3648 46.269 63.2597 46.0165 62.8204 45.708C62.381 45.3995 61.6955 44.6796 61.7406 44.2683C61.7856 43.8569 62.0702 43.5435 62.5118 43.3427C63.0774 43.0857 63.8719 43.0363 64.8256 42.6743C65.7948 42.3065 66.471 41.5947 66.9852 41.4404C67.4994 41.2861 68.206 41.4403 68.5277 41.7489Z"/>
</mask>
<path d="M27.0678 52.2382C27.0678 51.0455 28.0346 50.0786 29.2273 50.0786H31.6954C32.8881 50.0786 33.8549 51.0455 33.8549 52.2382V53.7807C33.8549 54.9734 32.8881 55.9403 31.6954 55.9403H29.2273C28.0346 55.9403 27.0678 54.9734 27.0678 53.7807V52.2382Z" fill="#707583"/>
<path d="M62.542 52.2382C62.542 51.0455 63.5089 50.0786 64.7016 50.0786H67.1696C68.3623 50.0786 69.3292 51.0455 69.3292 52.2382V53.7807C69.3292 54.9734 68.3623 55.9403 67.1696 55.9403H64.7016C63.5089 55.9403 62.542 54.9734 62.542 53.7807V52.2382Z" fill="#707583"/>
<path d="M29.6016 35.6694L32.9069 24.6143C33.1934 23.6563 34.0747 23 35.0745 23H61.5034C62.5033 23 63.3846 23.6563 63.671 24.6143L66.9763 35.6694H29.6016Z" fill="#D9D9D9"/>
<path d="M29.1412 36.5044H67.1611L70.6987 41.188C70.9818 41.5628 71.135 42.0198 71.135 42.4895V51.3128H25.1673V42.4895C25.1673 42.0198 25.3205 41.5628 25.6037 41.188L29.1412 36.5044Z" fill="#D9D9D9"/>
<path d="M32.769 33.2999L35.1325 26.1884C35.2722 25.768 35.6654 25.4844 36.1084 25.4844H60.0418C60.4847 25.4844 60.8779 25.768 61.0176 26.1884L63.3812 33.2999H32.769Z" fill="#81DAFC"/>
<path d="M22 33.4194C22 32.8514 22.4604 32.391 23.0284 32.391H26.9361V34.4477H23.0284C22.4604 34.4477 22 33.9873 22 33.4194Z" fill="#707583"/>
<path d="M74 33.4194C74 32.8514 73.5396 32.391 72.9716 32.391H69.0639V34.4477H72.9716C73.5396 34.4477 74 33.9873 74 33.4194Z" fill="#707583"/>
<path d="M28.0502 41.7489C27.7285 42.0574 27.6389 42.88 27.7417 43.3427C27.8445 43.8055 28.8729 44.9371 29.3357 45.2454C29.8726 45.6032 30.4154 46.1195 31.6495 46.2222C32.2131 46.269 33.3182 46.0165 33.7576 45.708C34.1969 45.3995 34.8824 44.6796 34.8374 44.2683C34.7923 43.8569 34.5077 43.5435 34.0661 43.3427C33.5005 43.0857 32.706 43.0363 31.7523 42.6743C30.7831 42.3065 30.1069 41.5947 29.5928 41.4404C29.0786 41.2861 28.372 41.4403 28.0502 41.7489Z" fill="#FFC943" fill-opacity="0.74"/>
<path d="M68.5277 41.7489C68.8495 42.0574 68.939 42.88 68.8362 43.3427C68.7334 43.8055 67.705 44.9371 67.2423 45.2454C66.7053 45.6032 66.1625 46.1195 64.9285 46.2222C64.3648 46.269 63.2597 46.0165 62.8204 45.708C62.381 45.3995 61.6955 44.6796 61.7406 44.2683C61.7856 43.8569 62.0702 43.5435 62.5118 43.3427C63.0774 43.0857 63.8719 43.0363 64.8256 42.6743C65.7948 42.3065 66.471 41.5947 66.9852 41.4404C67.4994 41.2861 68.206 41.4403 68.5277 41.7489Z" fill="#FFC943" fill-opacity="0.74"/>
<path d="M27.8988 35.9964L30.022 34.6765L27.8988 35.9964ZM28.3955 36.0388L26.527 34.3779H26.527L28.3955 36.0388ZM28.4461 35.7031L30.7208 34.6661L28.4461 35.7031ZM68.1012 35.9964L65.978 34.6765L65.978 34.6765L68.1012 35.9964ZM67.6045 36.0388L69.473 34.3779L67.6045 36.0388ZM67.5539 35.7031L65.2792 34.6661L67.5539 35.7031ZM26.9361 34.4477L24.8129 35.7675L25.7756 37.3162L27.8988 35.9964L30.022 34.6765L29.0593 33.1279L26.9361 34.4477ZM28.4461 35.7031L30.7208 34.6661L29.2109 31.354L26.9361 32.391L24.6614 33.428L26.1713 36.7401L28.4461 35.7031ZM27.8988 35.9964L25.7756 37.3162C26.7676 38.912 29.0157 39.1041 30.264 37.6997L28.3955 36.0388L26.527 34.3779C27.499 33.2844 29.2496 33.4339 30.022 34.6765L27.8988 35.9964ZM28.3955 36.0388L30.264 37.6997C31.0033 36.868 31.1824 35.6786 30.7208 34.6661L28.4461 35.7031L26.1713 36.7401C25.8119 35.9517 25.9513 35.0255 26.527 34.3779L28.3955 36.0388ZM69.0639 34.4477L66.9407 33.1279L65.978 34.6765L68.1012 35.9964L70.2244 37.3162L71.1871 35.7675L69.0639 34.4477ZM67.5539 35.7031L69.8287 36.7401L71.3386 33.428L69.0639 32.391L66.7891 31.354L65.2792 34.6661L67.5539 35.7031ZM68.1012 35.9964L65.978 34.6765C66.7504 33.4339 68.501 33.2844 69.473 34.3779L67.6045 36.0388L65.736 37.6997C66.9843 39.1041 69.2324 38.912 70.2244 37.3162L68.1012 35.9964ZM67.6045 36.0388L69.473 34.3779C70.0487 35.0255 70.1881 35.9518 69.8287 36.7401L67.5539 35.7031L65.2792 34.6661C64.8176 35.6785 64.9967 36.868 65.736 37.6997L67.6045 36.0388ZM29.6016 35.6694L24.8112 34.2371L22.888 40.6694H29.6016V35.6694ZM66.9763 35.6694V40.6694H73.6899L71.7668 34.2371L66.9763 35.6694ZM63.671 24.6143L68.4615 23.182V23.182L63.671 24.6143ZM32.9069 24.6143L28.1165 23.182V23.182L32.9069 24.6143ZM29.1412 36.5044V31.5044C27.5734 31.5044 26.0963 32.2398 25.1514 33.4909L29.1412 36.5044ZM67.1611 36.5044L71.151 33.4909C70.206 32.2398 68.729 31.5044 67.1611 31.5044V36.5044ZM25.1673 51.3128H20.1673C20.1673 54.0742 22.4059 56.3128 25.1673 56.3128V51.3128ZM71.135 51.3128V56.3128C73.8964 56.3128 76.135 54.0742 76.135 51.3128H71.135ZM70.6987 41.188L74.6885 38.1744V38.1744L70.6987 41.188ZM25.6037 41.188L21.6138 38.1744L21.6138 38.1744L25.6037 41.188ZM32.769 33.2999L28.0242 31.723C27.5175 33.2474 27.7742 34.9225 28.7141 36.2253C29.6539 37.5281 31.1625 38.2999 32.769 38.2999V33.2999ZM63.3812 33.2999V38.2999C64.9876 38.2999 66.4962 37.5281 67.4361 36.2253C68.376 34.9225 68.6326 33.2474 68.126 31.723L63.3812 33.2999ZM61.0176 26.1884L56.2728 27.7654V27.7654L61.0176 26.1884ZM35.1325 26.1884L30.3877 24.6115V24.6115L35.1325 26.1884ZM26.9361 32.391H31.9361C31.9361 29.6296 29.6975 27.391 26.9361 27.391V32.391ZM26.9361 34.4477V39.4477H31.9361V34.4477H26.9361ZM69.0639 32.391V27.391C66.3024 27.391 64.0639 29.6296 64.0639 32.391H69.0639ZM69.0639 34.4477H64.0639V39.4477H69.0639V34.4477ZM27.7417 43.3427L32.6227 42.2582L27.7417 43.3427ZM28.0502 41.7489L31.5107 45.3579V45.3579L28.0502 41.7489ZM29.5928 41.4404L31.0296 36.6513L29.5928 41.4404ZM31.7523 42.6743L33.5264 37.9997L31.7523 42.6743ZM34.0661 43.3427L36.1351 38.7909L36.1351 38.7909L34.0661 43.3427ZM34.8374 44.2683L29.8671 44.8129L29.8671 44.8129L34.8374 44.2683ZM33.7576 45.708L36.6309 49.7999L36.6309 49.7999L33.7576 45.708ZM31.6495 46.2222L32.0639 41.2394L31.6495 46.2222ZM29.3357 45.2454L26.5634 49.4065L26.5634 49.4065L29.3357 45.2454ZM68.8362 43.3427L63.9553 42.2582L68.8362 43.3427ZM68.5277 41.7489L65.0673 45.3579L65.0673 45.3579L68.5277 41.7489ZM66.9852 41.4404L65.5483 36.6513L66.9852 41.4404ZM64.8256 42.6743L63.0515 37.9997L64.8256 42.6743ZM62.5118 43.3427L60.4428 38.7909L60.4428 38.7909L62.5118 43.3427ZM61.7406 44.2683L66.7108 44.8129V44.8129L61.7406 44.2683ZM62.8204 45.708L59.947 49.7999V49.7999L62.8204 45.708ZM64.9285 46.2222L64.5141 41.2394L64.9285 46.2222ZM67.2423 45.2454L70.0146 49.4065V49.4065L67.2423 45.2454ZM29.2273 50.0786V55.0786H31.6954V50.0786V45.0786H29.2273V50.0786ZM33.8549 52.2382H28.8549V53.7807H33.8549H38.8549V52.2382H33.8549ZM31.6954 55.9403V50.9403H29.2273V55.9403V60.9403H31.6954V55.9403ZM27.0678 53.7807H32.0678V52.2382H27.0678H22.0678V53.7807H27.0678ZM29.2273 55.9403V50.9403C30.796 50.9403 32.0678 52.212 32.0678 53.7807H27.0678H22.0678C22.0678 57.7348 25.2732 60.9403 29.2273 60.9403V55.9403ZM33.8549 53.7807H28.8549C28.8549 52.212 30.1266 50.9403 31.6954 50.9403V55.9403V60.9403C35.6495 60.9403 38.8549 57.7348 38.8549 53.7807H33.8549ZM31.6954 50.0786V55.0786C30.1266 55.0786 28.8549 53.8069 28.8549 52.2382H33.8549H38.8549C38.8549 48.2841 35.6495 45.0786 31.6954 45.0786V50.0786ZM29.2273 50.0786V45.0786C25.2732 45.0786 22.0678 48.2841 22.0678 52.2382H27.0678H32.0678C32.0678 53.8069 30.796 55.0786 29.2273 55.0786V50.0786ZM64.7016 50.0786V55.0786H67.1696V50.0786V45.0786H64.7016V50.0786ZM69.3292 52.2382H64.3292V53.7807H69.3292H74.3292V52.2382H69.3292ZM67.1696 55.9403V50.9403H64.7016V55.9403V60.9403H67.1696V55.9403ZM62.542 53.7807H67.542V52.2382H62.542H57.542V53.7807H62.542ZM64.7016 55.9403V50.9403C66.2703 50.9403 67.542 52.212 67.542 53.7807H62.542H57.542C57.542 57.7348 60.7475 60.9403 64.7016 60.9403V55.9403ZM69.3292 53.7807H64.3292C64.3292 52.212 65.6009 50.9403 67.1696 50.9403V55.9403V60.9403C71.1238 60.9403 74.3292 57.7348 74.3292 53.7807H69.3292ZM67.1696 50.0786V55.0786C65.6009 55.0786 64.3292 53.8069 64.3292 52.2382H69.3292H74.3292C74.3292 48.2841 71.1238 45.0786 67.1696 45.0786V50.0786ZM64.7016 50.0786V45.0786C60.7475 45.0786 57.542 48.2841 57.542 52.2382H62.542H67.542C67.542 53.8069 66.2703 55.0786 64.7016 55.0786V50.0786ZM29.6016 35.6694L34.3921 37.1017L37.6974 26.0466L32.9069 24.6143L28.1165 23.182L24.8112 34.2371L29.6016 35.6694ZM66.9763 35.6694L71.7668 34.2371L68.4615 23.182L63.671 24.6143L58.8805 26.0466L62.1858 37.1017L66.9763 35.6694ZM63.671 24.6143L68.4615 23.182C67.542 20.1069 64.713 18 61.5034 18V23V28C60.2935 28 59.2271 27.2058 58.8805 26.0466L63.671 24.6143ZM32.9069 24.6143L37.6974 26.0466C37.3508 27.2058 36.2844 28 35.0745 28V23V18C31.8649 18 29.0359 20.1069 28.1165 23.182L32.9069 24.6143ZM29.1412 36.5044L25.1514 33.4909L21.6138 38.1744L25.6037 41.188L29.5935 44.2015L33.131 39.518L29.1412 36.5044ZM25.1673 42.4895H20.1673V51.3128H25.1673H30.1673V42.4895H25.1673ZM67.1611 36.5044L63.1713 39.518L66.7089 44.2015L70.6987 41.188L74.6885 38.1744L71.151 33.4909L67.1611 36.5044ZM71.135 42.4895H66.135V51.3128H71.135H76.135V42.4895H71.135ZM70.6987 41.188L66.7089 44.2015C66.3365 43.7084 66.135 43.1074 66.135 42.4895H71.135H76.135C76.135 40.9321 75.6272 39.4172 74.6885 38.1744L70.6987 41.188ZM25.6037 41.188L21.6138 38.1744C20.6752 39.4172 20.1673 40.9321 20.1673 42.4895H25.1673H30.1673C30.1673 43.1074 29.9659 43.7084 29.5935 44.2015L25.6037 41.188ZM32.769 33.2999L37.5138 34.8769L39.8773 27.7654L35.1325 26.1884L30.3877 24.6115L28.0242 31.723L32.769 33.2999ZM63.3812 33.2999L68.126 31.723L65.7624 24.6115L61.0176 26.1884L56.2728 27.7654L58.6364 34.8769L63.3812 33.2999ZM61.0176 26.1884L65.7624 24.6115C64.9435 22.1473 62.6385 20.4844 60.0418 20.4844V25.4844V30.4844C58.3309 30.4844 56.8124 29.3888 56.2728 27.7654L61.0176 26.1884ZM35.1325 26.1884L39.8773 27.7654C39.3378 29.3889 37.8192 30.4844 36.1084 30.4844V25.4844V20.4844C33.5117 20.4844 31.2067 22.1472 30.3877 24.6115L35.1325 26.1884ZM23.0284 32.391V37.391H26.9361V32.391V27.391H23.0284V32.391ZM26.9361 32.391H21.9361V34.4477H26.9361H31.9361V32.391H26.9361ZM26.9361 34.4477V29.4477H23.0284V34.4477V39.4477H26.9361V34.4477ZM23.0284 34.4477V29.4477C25.2218 29.4477 27 31.2259 27 33.4194H22H17C17 36.7487 19.699 39.4477 23.0284 39.4477V34.4477ZM23.0284 32.391V27.391C19.699 27.391 17 30.09 17 33.4194H22H27C27 35.6128 25.2218 37.391 23.0284 37.391V32.391ZM72.9716 32.391V27.391H69.0639V32.391V37.391H72.9716V32.391ZM69.0639 32.391H64.0639V34.4477H69.0639H74.0639V32.391H69.0639ZM69.0639 34.4477V39.4477H72.9716V34.4477V29.4477H69.0639V34.4477ZM72.9716 34.4477V39.4477C76.301 39.4477 79 36.7487 79 33.4194H74H69C69 31.2259 70.7781 29.4477 72.9716 29.4477V34.4477ZM72.9716 32.391V37.391C70.7781 37.391 69 35.6128 69 33.4194H74H79C79 30.09 76.301 27.391 72.9716 27.391V32.391ZM27.7417 43.3427L32.6227 42.2582C32.691 42.5659 32.7004 42.7918 32.7012 42.9067C32.7021 43.0365 32.6927 43.1645 32.6703 43.3007C32.6495 43.4267 32.602 43.6556 32.4823 43.9493C32.3776 44.2065 32.1092 44.7841 31.5107 45.3579L28.0502 41.7489L24.5898 38.1398C23.2252 39.4481 22.9006 41.0845 22.8032 41.6753C22.6737 42.4615 22.642 43.4431 22.8608 44.4273L27.7417 43.3427ZM28.0502 41.7489L31.5107 45.3579C31.1013 45.7504 30.709 45.9685 30.4582 46.0848C30.1928 46.2079 29.9549 46.2778 29.7567 46.3186C29.4218 46.3875 28.8631 46.4417 28.1559 46.2295L29.5928 41.4404L31.0296 36.6513C29.8082 36.2849 28.6391 36.3391 27.7419 36.5236C26.9023 36.6963 25.6567 37.1168 24.5898 38.1398L28.0502 41.7489ZM29.5928 41.4404L28.1559 46.2295C27.8683 46.1432 27.6595 46.0461 27.5497 45.9909C27.4373 45.9345 27.3692 45.8918 27.3629 45.8879C27.3556 45.8833 27.3711 45.8928 27.4312 45.9338C27.5126 45.9892 27.5416 46.0099 27.6731 46.1001C28.0604 46.3659 28.8921 46.9368 29.9781 47.349L31.7523 42.6743L33.5264 37.9997C33.6433 38.044 33.6523 38.0751 33.3308 37.8545C33.2376 37.7905 32.9305 37.5749 32.6587 37.4053C32.3969 37.2418 31.8062 36.8843 31.0296 36.6513L29.5928 41.4404ZM31.7523 42.6743L29.9781 47.349C30.8038 47.6623 31.5361 47.8288 31.9297 47.9196C32.1598 47.9728 32.2275 47.9889 32.2747 48.0019C32.3102 48.0116 32.1883 47.9815 31.9971 47.8946L34.0661 43.3427L36.1351 38.7909C35.661 38.5754 35.2278 38.4427 34.9254 38.3596C34.6348 38.2797 34.3382 38.2127 34.1798 38.1761C33.7963 38.0875 33.6545 38.0483 33.5264 37.9997L31.7523 42.6743ZM34.0661 43.3427L31.9971 47.8946C31.7119 47.7649 31.2419 47.4942 30.7949 46.9697C30.3161 46.4078 29.9601 45.6613 29.8671 44.8129L34.8374 44.2683L39.8076 43.7236C39.5089 40.9974 37.5928 39.4535 36.1351 38.7909L34.0661 43.3427ZM34.8374 44.2683L29.8671 44.8129C29.7908 44.1167 29.8869 43.5514 29.9785 43.1943C30.0716 42.8307 30.1919 42.5589 30.2734 42.3951C30.4295 42.0815 30.5756 41.9017 30.6079 41.8622C30.6614 41.7968 30.7121 41.7369 30.8843 41.616L33.7576 45.708L36.6309 49.7999C37.2424 49.3705 37.8555 48.7965 38.3504 48.1911C38.6033 47.8817 38.9398 47.4256 39.2255 46.8516C39.4576 46.3854 39.9725 45.2279 39.8076 43.7236L34.8374 44.2683ZM33.7576 45.708L30.8843 41.616C31.0891 41.4722 31.2555 41.3843 31.3447 41.3401C31.4407 41.2925 31.5099 41.2649 31.5429 41.2523C31.6042 41.229 31.6185 41.228 31.5896 41.2349C31.5633 41.2411 31.5551 41.241 31.5814 41.238C31.5967 41.2362 31.6391 41.2317 31.7062 41.2293C31.7682 41.2271 31.8928 41.2251 32.0639 41.2394L31.6495 46.2222L31.235 51.205C32.2768 51.2916 33.2835 51.1114 33.9106 50.9618C34.474 50.8274 35.6156 50.5128 36.6309 49.7999L33.7576 45.708ZM31.6495 46.2222L32.0639 41.2394C32.0753 41.2403 32.1446 41.2477 32.2528 41.2795C32.3049 41.2948 32.3582 41.3135 32.4111 41.3351C32.4639 41.3567 32.5098 41.3787 32.5473 41.3982C32.6196 41.4361 32.6481 41.4592 32.586 41.4165C32.5703 41.4057 32.5509 41.3921 32.5239 41.3731C32.4924 41.3509 32.4702 41.3351 32.4262 41.304C32.3884 41.2773 32.3406 41.2435 32.289 41.2077C32.2368 41.1714 32.1755 41.1294 32.1079 41.0844L29.3357 45.2454L26.5634 49.4065C26.5629 49.4062 26.5688 49.4101 26.5842 49.4208C26.6001 49.4318 26.6202 49.446 26.6511 49.4678C26.7016 49.5035 26.808 49.5793 26.9144 49.6526C27.1437 49.8105 27.4856 50.0362 27.9151 50.2607C28.8412 50.7447 29.9297 51.0964 31.235 51.205L31.6495 46.2222ZM29.3357 45.2454L32.1079 41.0844C32.261 41.1863 32.3517 41.2632 32.3657 41.275C32.3899 41.2955 32.3911 41.2979 32.3698 41.2774C32.325 41.2344 32.2559 41.1626 32.1867 41.0826C32.1107 40.9946 32.0933 40.9647 32.1208 41.0056C32.1348 41.0266 32.1946 41.1164 32.2704 41.2642C32.3097 41.341 32.3654 41.4568 32.4242 41.6061C32.481 41.7504 32.5593 41.9732 32.6227 42.2582L27.7417 43.3427L22.8608 44.4273C23.1041 45.5226 23.6595 46.3429 23.8173 46.5781C24.081 46.9711 24.3689 47.33 24.6207 47.6214C25.0279 48.0925 25.7559 48.8685 26.5634 49.4065L29.3357 45.2454ZM68.8362 43.3427L73.7172 44.4273C73.9359 43.4431 73.9042 42.4615 73.7747 41.6753C73.6774 41.0845 73.3527 39.4481 71.9882 38.1398L68.5277 41.7489L65.0673 45.3579C64.4688 44.7841 64.2004 44.2065 64.0956 43.9494C63.9759 43.6556 63.9284 43.4267 63.9077 43.3007C63.8852 43.1645 63.8759 43.0365 63.8768 42.9067C63.8776 42.7918 63.8869 42.5659 63.9553 42.2582L68.8362 43.3427ZM68.5277 41.7489L71.9882 38.1398C70.9212 37.1168 69.6756 36.6963 68.836 36.5236C67.9388 36.3391 66.7697 36.2849 65.5483 36.6513L66.9852 41.4404L68.422 46.2295C67.7149 46.4417 67.1561 46.3875 66.8212 46.3186C66.6231 46.2778 66.3851 46.2079 66.1197 46.0848C65.8689 45.9685 65.4766 45.7504 65.0673 45.3579L68.5277 41.7489ZM66.9852 41.4404L65.5483 36.6513C64.7717 36.8843 64.1811 37.2418 63.9192 37.4053C63.6475 37.5749 63.3403 37.7905 63.2472 37.8545C62.9256 38.0751 62.9346 38.044 63.0515 37.9997L64.8256 42.6743L66.5998 47.349C67.6858 46.9368 68.5175 46.3659 68.9049 46.1001C69.0364 46.0099 69.0653 45.9892 69.1467 45.9338C69.2069 45.8928 69.2223 45.8833 69.215 45.8879C69.2088 45.8918 69.1406 45.9345 69.0283 45.9909C68.9185 46.0461 68.7096 46.1432 68.422 46.2295L66.9852 41.4404ZM64.8256 42.6743L63.0515 37.9997C62.9234 38.0483 62.7816 38.0875 62.3981 38.1761C62.2397 38.2127 61.9432 38.2797 61.6525 38.3596C61.3501 38.4427 60.9169 38.5754 60.4428 38.7909L62.5118 43.3427L64.5809 47.8946C64.3896 47.9815 64.2678 48.0116 64.3032 48.0019C64.3504 47.9889 64.4181 47.9728 64.6483 47.9196C65.0418 47.8288 65.7741 47.6623 66.5998 47.349L64.8256 42.6743ZM62.5118 43.3427L60.4428 38.7909C58.9851 39.4535 57.0691 40.9974 56.7703 43.7236L61.7406 44.2683L66.7108 44.8129C66.6179 45.6613 66.2618 46.4078 65.7831 46.9697C65.336 47.4942 64.8661 47.7649 64.5809 47.8946L62.5118 43.3427ZM61.7406 44.2683L56.7703 43.7236C56.6055 45.2279 57.1204 46.3854 57.3525 46.8516C57.6382 47.4256 57.9746 47.8817 58.2276 48.1911C58.7224 48.7965 59.3355 49.3705 59.947 49.7999L62.8204 45.708L65.6937 41.616C65.8658 41.7369 65.9165 41.7968 65.97 41.8622C66.0023 41.9017 66.1484 42.0815 66.3045 42.3951C66.386 42.5589 66.5063 42.8307 66.5995 43.1943C66.691 43.5514 66.7871 44.1167 66.7108 44.8129L61.7406 44.2683ZM62.8204 45.708L59.947 49.7999C60.9623 50.5128 62.1039 50.8274 62.6673 50.9618C63.2945 51.1114 64.3012 51.2916 65.3429 51.205L64.9285 46.2222L64.5141 41.2394C64.6851 41.2251 64.8097 41.2271 64.8717 41.2293C64.9388 41.2317 64.9812 41.2362 64.9965 41.238C65.0228 41.241 65.0146 41.2411 64.9883 41.2349C64.9595 41.228 64.9737 41.229 65.035 41.2523C65.068 41.2649 65.1372 41.2925 65.2332 41.3401C65.3225 41.3843 65.4888 41.4722 65.6937 41.616L62.8204 45.708ZM64.9285 46.2222L65.3429 51.205C66.6483 51.0964 67.7368 50.7447 68.6629 50.2607C69.0923 50.0362 69.4343 49.8105 69.6636 49.6526C69.7699 49.5793 69.8764 49.5035 69.9268 49.4678C69.9577 49.446 69.9778 49.4318 69.9937 49.4208C70.0091 49.4101 70.015 49.4062 70.0146 49.4065L67.2423 45.2454L64.47 41.0844C64.4024 41.1294 64.3412 41.1714 64.289 41.2077C64.2373 41.2435 64.1895 41.2773 64.1518 41.304C64.1077 41.3351 64.0856 41.3509 64.054 41.3731C64.027 41.3921 64.0076 41.4057 63.9919 41.4165C63.9299 41.4592 63.9583 41.4361 64.0307 41.3982C64.0681 41.3787 64.1141 41.3567 64.1669 41.3351C64.2197 41.3135 64.2731 41.2948 64.3251 41.2795C64.4333 41.2477 64.5026 41.2403 64.5141 41.2394L64.9285 46.2222ZM67.2423 45.2454L70.0146 49.4065C70.822 48.8685 71.5501 48.0925 71.9572 47.6214C72.209 47.33 72.4969 46.9711 72.7606 46.5781C72.9185 46.3429 73.4738 45.5226 73.7172 44.4273L68.8362 43.3427L63.9553 42.2582C64.0186 41.9732 64.097 41.7504 64.1537 41.6061C64.2125 41.4568 64.2682 41.341 64.3076 41.2642C64.3833 41.1164 64.4431 41.0266 64.4572 41.0056C64.4846 40.9647 64.4672 40.9946 64.3912 41.0826C64.3221 41.1626 64.2529 41.2344 64.2082 41.2774C64.1869 41.2979 64.188 41.2955 64.2123 41.275C64.2263 41.2632 64.3169 41.1863 64.47 41.0844L67.2423 45.2454ZM35.0745 23V28H61.5034V23V18H35.0745V23ZM29.6016 35.6694V40.6694H66.9763V35.6694V30.6694H29.6016V35.6694ZM29.1412 36.5044V41.5044H67.1611V36.5044V31.5044H29.1412V36.5044ZM25.1673 51.3128V56.3128H71.135V51.3128V46.3128H25.1673V51.3128ZM36.1084 25.4844V30.4844H60.0418V25.4844V20.4844H36.1084V25.4844ZM32.769 33.2999V38.2999H63.3812V33.2999V28.2999H32.769V33.2999Z" fill="white" mask="url(#path-5-outside-1_273_167)"/>
<rect x="26.0677" y="49.0786" width="8.78717" height="7.86165" rx="3.93082" fill="#707583" stroke="black" stroke-width="2"/>
<rect x="61.542" y="49.0786" width="8.78717" height="7.86165" rx="3.93082" fill="#707583" stroke="black" stroke-width="2"/>
<path d="M60.5284 22C62.5487 22 64.3295 23.3261 64.9083 25.2617L67.9346 35.3828L68.3194 36.6689H28.2589L28.6436 35.3828L31.67 25.2617L31.7276 25.082C32.3602 23.2446 34.0927 22 36.0499 22H60.5284Z" fill="#D9D9D9" stroke="black" stroke-width="2"/>
<path d="M67.1615 35.5044L67.2777 35.5112C67.5469 35.5428 67.794 35.6829 67.9594 35.9019L71.2445 40.2515L71.4486 40.5454C71.8957 41.2498 72.1351 42.0695 72.1351 42.9087V51.313C72.135 51.8651 71.6873 52.3129 71.1351 52.313H25.1674C24.6151 52.313 24.1675 51.8652 24.1674 51.313V42.9087C24.1674 41.9498 24.4801 41.0167 25.058 40.2515L28.3431 35.9019L28.4193 35.813C28.6067 35.6173 28.8667 35.5045 29.141 35.5044H67.1615Z" fill="#D9D9D9" stroke="black" stroke-width="2" stroke-linejoin="round"/>
<path d="M59.4502 25C60.5146 25 61.474 25.6431 61.8779 26.6279L63.9248 31.6201C64.0513 31.9285 64.0157 32.2798 63.8301 32.5566C63.6444 32.8335 63.3334 33 63 33H34C33.6666 33 33.3556 32.8335 33.1699 32.5566C32.9843 32.2798 32.9487 31.9285 33.0752 31.6201L35.1221 26.6279L35.2041 26.4473C35.6461 25.5651 36.5519 25 37.5498 25H59.4502Z" fill="black" stroke="black" stroke-width="2" stroke-linejoin="round"/>
<path d="M25.9365 31.391L26.0381 31.3959C26.5425 31.4469 26.9365 31.8731 26.9365 32.391V34.4476C26.9365 34.9998 26.4886 35.4474 25.9365 35.4476H22.0283C20.9081 35.4476 20 34.5395 20 33.4193C20 32.2991 20.9081 31.391 22.0283 31.391H25.9365Z" fill="#707583" stroke="black" stroke-width="2" stroke-linejoin="round"/>
<path d="M70.0635 31.391L69.9619 31.3959C69.4575 31.4469 69.0635 31.8731 69.0635 32.391V34.4476C69.0635 34.9998 69.5114 35.4474 70.0635 35.4476H73.9717C75.0919 35.4476 76 34.5395 76 33.4193C76 32.2991 75.0919 31.391 73.9717 31.391H70.0635Z" fill="#707583" stroke="black" stroke-width="2" stroke-linejoin="round"/>
<path d="M28.5479 40.4414C28.9522 40.3583 29.4301 40.3475 29.8799 40.4824L30.0674 40.5498C30.2488 40.6241 30.4103 40.7169 30.5401 40.7979C30.715 40.907 30.9071 41.0423 31.0674 41.1523C31.4153 41.391 31.7432 41.601 32.1075 41.7393L32.4073 41.8438C32.7035 41.9385 32.9887 42.0061 33.2794 42.0732C33.6341 42.1552 34.0857 42.2536 34.4796 42.4326L34.7188 42.5547C35.2299 42.8475 35.679 43.3203 35.8077 43.999L35.8311 44.1592L35.8399 44.3008C35.8416 44.623 35.7305 44.8967 35.6446 45.0693C35.5356 45.2881 35.3918 45.4894 35.253 45.6592C35.0465 45.9118 34.7998 46.1554 34.5635 46.3496L34.3321 46.5264C33.9534 46.7923 33.4164 46.9677 32.9825 47.0713C32.5915 47.1646 32.1326 47.2355 31.7335 47.2275L31.5665 47.2188C30.4072 47.1223 29.6806 46.7024 29.1944 46.3682L28.7813 46.0772C28.4348 45.8462 27.9911 45.4034 27.6475 45.0059C27.4661 44.796 27.2859 44.5689 27.1387 44.3496C27.0285 44.1853 26.8781 43.9425 26.796 43.6758L26.7657 43.5596C26.6808 43.1776 26.6844 42.7241 26.7501 42.3252C26.8094 41.9654 26.9569 41.4123 27.3585 41.0273L27.4913 40.9111C27.8129 40.6564 28.2041 40.5121 28.5479 40.4414Z" fill="black" stroke="black" stroke-width="2"/>
<path d="M68.03 40.4414C67.6258 40.3583 67.1478 40.3475 66.698 40.4824L66.5105 40.5498C66.3292 40.6241 66.1676 40.7169 66.0378 40.7979C65.8629 40.907 65.6708 41.0423 65.5105 41.1523C65.1626 41.391 64.8347 41.601 64.4705 41.7393L64.1707 41.8438C63.8744 41.9385 63.5892 42.0061 63.2986 42.0732C62.9439 42.1552 62.4923 42.2536 62.0984 42.4326L61.8591 42.5547C61.3481 42.8475 60.8989 43.3203 60.7703 43.999L60.7468 44.1592L60.738 44.3008C60.7363 44.623 60.8474 44.8967 60.9333 45.0693C61.0423 45.2881 61.1862 45.4894 61.325 45.6592C61.5314 45.9118 61.7781 46.1554 62.0144 46.3496L62.2458 46.5264C62.6246 46.7923 63.1615 46.9677 63.5955 47.0713C63.9864 47.1646 64.4453 47.2355 64.8445 47.2275L65.0115 47.2188C66.1707 47.1223 66.8973 46.7024 67.3835 46.3682L67.7966 46.0772C68.1431 45.8462 68.5868 45.4034 68.9304 45.0059C69.1118 44.796 69.292 44.5689 69.4392 44.3496C69.5495 44.1853 69.6998 43.9425 69.782 43.6758L69.8123 43.5596C69.8971 43.1776 69.8936 42.7241 69.8279 42.3252C69.7686 41.9654 69.621 41.4123 69.2195 41.0273L69.0867 40.9111C68.7651 40.6564 68.3738 40.5121 68.03 40.4414Z" fill="black" stroke="black" stroke-width="2"/>
</svg>
