<svg width="66" height="69" viewBox="0 0 66 69" fill="none" xmlns="http://www.w3.org/2000/svg">
<path d="M55 2.5C57.4853 2.5 59.5 4.51472 59.5 7V62C59.5 64.4853 57.4853 66.5 55 66.5H20C17.5147 66.5 15.5 64.4853 15.5 62V7C15.5 4.51472 17.5147 2.5 20 2.5H55Z" fill="#D9D9D9" stroke="white" stroke-width="5"/>
<path fill-rule="evenodd" clip-rule="evenodd" d="M20 3H55C57.2091 3 59 4.79086 59 7V62C59 64.2091 57.2091 66 55 66H20C17.7909 66 16 64.2091 16 62V7C16 4.79086 17.7909 3 20 3ZM20 5C18.8954 5 18 5.89543 18 7V62C18 63.1046 18.8954 64 20 64H55C56.1046 64 57 63.1046 57 62V7C57 5.89543 56.1046 5 55 5H20Z" fill="black"/>
<path d="M34 16C34 17.6569 35.3431 19 37 19C38.6569 19 40 17.6569 40 16L34 16ZM37 5L34 5L34 16L37 16L40 16L40 5L37 5Z" fill="white"/>
<path d="M40 55C40 53.3431 38.6569 52 37 52C35.3431 52 34 53.3431 34 55L40 55ZM37 64L40 64L40 55L37 55L34 55L34 64L37 64Z" fill="white"/>
<path d="M15.5 23L14.2931 27.0229C14.109 27.6367 14.2301 28.3015 14.6189 28.8109L27.7693 46.0426C28.2188 46.6316 28.9572 46.9238 29.688 46.802L34.5 46" stroke="white" stroke-width="4" stroke-linecap="round"/>
<path d="M15.5 23L14.2931 27.0229C14.109 27.6367 14.2301 28.3015 14.6189 28.8109L27.7693 46.0426C28.2188 46.6316 28.9572 46.9238 29.688 46.802L34.5 46" stroke="black" stroke-width="2" stroke-linecap="round"/>
<path d="M4.5 34L3.29313 38.0229C3.10899 38.6367 3.23012 39.3015 3.61888 39.8109L16.7693 57.0426C17.2188 57.6316 17.9572 57.9238 18.688 57.802L23.5 57" stroke="white" stroke-width="5" stroke-linecap="round"/>
<path d="M4.5 34L3.29313 38.0229C3.10899 38.6367 3.23012 39.3015 3.61888 39.8109L16.7693 57.0426C17.2188 57.6316 17.9572 57.9238 18.688 57.802L23.5 57" stroke="black" stroke-width="2" stroke-linecap="round"/>
<path d="M52.3845 20.3989L64.5071 50.6786C64.815 51.4476 64.4411 52.3207 63.6721 52.6286L60.4228 53.9295C59.6537 54.2374 58.7806 53.8635 58.4727 53.0944L45.7059 21.2055L52.3845 20.3989Z" fill="#848484" stroke="black"/>
<path d="M44.0377 10.4571L46.5038 18.1493L8.46432 51.6432C7.97394 52.0749 7.20798 51.9281 6.91198 51.3457L6.49728 50.5296C6.30459 50.1504 6.37284 49.6908 6.66739 49.384L44.0377 10.4571Z" fill="#848484" stroke="black"/>
</svg>
