<svg width="128" height="128" viewBox="0 0 128 128" fill="none" xmlns="http://www.w3.org/2000/svg">
<circle cx="64" cy="64" r="64" fill="#3C4043"/>
<path d="M83.0515 39L84.9362 37.3575L83.109 35.2608L81.2182 37.3003L83.0515 39ZM83.0515 39C84.9362 37.3575 84.9366 37.3579 84.937 37.3583L84.9379 37.3594L84.9405 37.3624L84.9482 37.3713L84.9737 37.4008C84.9951 37.4257 85.0252 37.4609 85.0635 37.506C85.1401 37.5961 85.2493 37.726 85.3864 37.8924C85.6607 38.2251 86.0475 38.7045 86.5095 39.3052C87.4314 40.5038 88.6627 42.1983 89.8978 44.1815C92.2945 48.0296 95 53.4204 95 58.5C95 60.7473 94.4578 62.6405 93.4778 64.1821C92.5044 65.7136 91.1899 66.7559 89.8573 67.4565C87.2652 68.8193 84.4172 68.9892 83.0515 68.9892C81.6434 68.9892 78.672 68.8205 75.964 67.4863C74.5761 66.8024 73.1847 65.7766 72.1444 64.2468C71.0916 62.6986 70.5 60.7821 70.5 58.5C70.5 53.375 73.3983 47.961 75.9417 44.1223C77.256 42.1386 78.5658 40.4442 79.5461 39.2462C80.0373 38.6458 80.4486 38.1666 80.7401 37.8343C80.8859 37.6681 81.0019 37.5383 81.0832 37.4483C81.1239 37.4033 81.1559 37.3682 81.1786 37.3434L81.2056 37.314L81.2137 37.3052L81.2164 37.3022L81.2174 37.3011C81.2178 37.3007 81.2182 37.3003 83.0515 39ZM84.8857 40.6988C84.8858 40.6986 84.8858 40.6986 84.8857 40.6988L84.8857 40.6988Z" fill="white" stroke="white" stroke-width="5"/>
<path d="M45 31.5C42.5147 31.5 40.5 33.5147 40.5 36V91C40.5 93.4853 42.5147 95.5 45 95.5H80C82.4853 95.5 84.5 93.4853 84.5 91V36C84.5 33.5147 82.4853 31.5 80 31.5H45Z" fill="#D9D9D9" stroke="white" stroke-width="5"/>
<path fill-rule="evenodd" clip-rule="evenodd" d="M45 32H80C82.2091 32 84 33.7909 84 36V91C84 93.2091 82.2091 95 80 95H45C42.7909 95 41 93.2091 41 91V36C41 33.7909 42.7909 32 45 32ZM45 34C43.8954 34 43 34.8954 43 36V91C43 92.1046 43.8954 93 45 93H80C81.1046 93 82 92.1046 82 91V36C82 34.8954 81.1046 34 80 34H45Z" fill="black"/>
<path d="M58 45C58 46.6569 59.3431 48 61 48C62.6569 48 64 46.6569 64 45L58 45ZM58 34L58 45L64 45L64 34L58 34Z" fill="white"/>
<path d="M64 84C64 82.3431 62.6569 81 61 81C59.3431 81 58 82.3431 58 84L64 84ZM64 93L64 84L58 84L58 93L64 93Z" fill="white"/>
<path d="M46.4163 92.9264C45.8749 92.569 45.8749 92.1403 46.3389 91.4256C45.9522 90.8539 47.9632 89.7104 48.0406 90.0678C48.1179 90.4251 49.2781 90.1392 49.5875 90.2107C49.8969 90.2822 50.2063 91.1397 49.8195 91.4256C49.4328 91.7115 49.6648 91.5685 49.3554 91.9973C49.0461 92.4261 48.814 92.6405 48.1953 92.4261C47.5765 92.2117 46.9577 93.2837 46.4163 92.9264Z" fill="black"/>
<path d="M67.4839 83.3224C67.2273 82.4997 67.58 81.903 68.6399 81.1876C68.717 80.1595 71.7027 79.7775 71.4874 80.3212C71.272 80.8649 72.687 81.1647 72.9429 81.4502C73.1987 81.7356 72.8078 83.1149 72.1793 83.2802C71.5509 83.4455 71.9044 83.3861 71.2371 83.7967C70.5697 84.2074 70.1573 84.3662 69.7045 83.6959C69.2516 83.0255 67.7405 84.1452 67.4839 83.3224Z" fill="black"/>
<path d="M74.5466 87.2227C73.9779 87.3584 73.6368 87.0891 73.3122 86.3314C72.6542 86.2295 72.8012 84.1732 73.1261 84.3462C73.451 84.5193 73.8332 83.5678 74.0526 83.4068C74.272 83.2459 75.1167 83.5788 75.1409 84.0157C75.1651 84.4525 75.1733 84.2084 75.3519 84.6836C75.5304 85.1588 75.579 85.4479 75.0834 85.7248C74.5877 86.0018 75.1154 87.0869 74.5466 87.2227Z" fill="black"/>
<path d="M78.7948 78.0987C80.1629 77.0365 79.9742 76.1525 78.3523 74.9582C79.1903 73.5471 73.1002 71.1974 72.2669 71.1953C70.8451 71.1918 69.5061 74.0737 68.666 74.407C67.8258 74.7404 67.3316 76.6944 68.5469 77.0512C69.7621 77.4079 69.0456 77.2528 70.1058 77.9508C71.1661 78.6487 71.9142 78.9511 73.563 78.1371C75.2119 77.323 77.4268 79.1609 78.7948 78.0987Z" fill="black"/>
<path d="M44.5219 86.4898C42.8553 84.9258 43.1513 83.5391 45.2846 81.5779C44.3126 79.4372 51.0219 78.4218 52.2352 78.4701C53.5 78.5205 55.5701 78.0057 56.6141 78.4702C57.6581 78.9347 58.1694 80.3418 58 82.0204C57.9045 82.9666 56.1169 84.2365 54.7275 85.3899C53.3382 86.5432 53.1926 87.3739 51.1539 86.2138C49.1152 85.0537 46.1886 88.0538 44.5219 86.4898Z" fill="black"/>
<path d="M66.2152 64.1723C67.1502 65.6271 66.8031 67.0019 65.1751 69.0283C65.5867 71.0822 61.0273 72.3996 60.2281 72.4103C59.3949 72.4214 57.9662 73.0256 57.3245 72.6198C56.6827 72.214 56.4968 70.8578 56.7918 69.2026C56.958 68.2697 58.2816 66.9381 59.3283 65.7399C60.375 64.5418 60.562 63.7198 61.7876 64.7605C63.0132 65.8012 65.2802 62.7174 66.2152 64.1723Z" fill="black"/>
<path d="M83.0515 39L83.8054 38.343L83.0745 37.5043L82.3182 38.3201L83.0515 39ZM83.0515 39C83.8054 38.343 83.8056 38.3432 83.8058 38.3434L83.8063 38.3441L83.8081 38.3461L83.8143 38.3532L83.8366 38.3791C83.8559 38.4016 83.8839 38.4342 83.92 38.4767C83.9921 38.5617 84.0967 38.6861 84.2291 38.8466C84.4938 39.1677 84.87 39.6339 85.3205 40.2197C86.2207 41.3901 87.4219 43.0434 88.6246 44.9745C91.0005 48.7894 93.5 53.8707 93.5 58.5C93.5 60.4985 93.0206 62.1052 92.2119 63.3775C91.4058 64.6457 90.3091 65.5243 89.1593 66.1288C86.8888 67.3225 84.3323 67.4892 83.0515 67.4892C81.7228 67.4892 79.0265 67.323 76.627 66.1407C75.4136 65.5429 74.2467 64.6708 73.3848 63.4034C72.5179 62.1285 72 60.5125 72 58.5C72 53.8525 74.6671 48.7619 77.1921 44.9508C78.4717 43.0195 79.7495 41.3663 80.707 40.1961C81.1862 39.6104 81.5863 39.1443 81.8678 38.8234C82.0086 38.6629 82.1198 38.5386 82.1965 38.4536C82.2348 38.4112 82.2645 38.3786 82.285 38.3562L82.3088 38.3303L82.3153 38.3233L82.3172 38.3212L82.3178 38.3205C82.318 38.3203 82.3182 38.3201 83.0515 39Z" fill="black" stroke="black" stroke-width="2"/>
</svg>
