<svg width="72" height="69" viewBox="0 0 72 69" fill="none" xmlns="http://www.w3.org/2000/svg">
<path d="M55.3232 9.52051C56.5531 9.43357 58.347 9.59116 59.9902 10.8115L60.3066 11.0596C61.8241 12.3172 62.4287 13.8467 62.5811 15.1377C62.6585 15.7941 62.6175 16.3606 62.5557 16.7715C62.5245 16.9786 62.4868 17.1527 62.4531 17.2871C62.4362 17.3545 62.4203 17.413 62.4062 17.4609C62.3992 17.4849 62.3927 17.5065 62.3867 17.5254C62.3837 17.5348 62.3806 17.5436 62.3779 17.5518C62.3766 17.5557 62.3762 17.5598 62.375 17.5635L62.3721 17.5723L60 16.7822L62.3711 17.5742C62.2861 17.8285 62.1611 18.0676 62.001 18.2812L61.8291 18.4863L59.1787 21.3301C65.1388 23.1083 69.5 28.5912 69.5 35.1113C69.4997 43.0798 62.986 49.5 55 49.5H31C23.014 49.5 16.5003 43.0798 16.5 35.1113C16.5 27.1426 23.0138 20.7217 31 20.7217H41.9707L52.2402 10.5479L52.4287 10.3789C52.6247 10.2205 52.8439 10.0922 53.0791 9.99902L54 12.3232C53.0836 10.0097 53.0802 9.99846 53.0811 9.99805H53.083C53.0842 9.99756 53.0856 9.99661 53.0869 9.99609C53.0896 9.99503 53.0927 9.99337 53.0957 9.99219C53.1018 9.98983 53.1089 9.98718 53.1162 9.98438C53.1309 9.97876 53.1482 9.9721 53.168 9.96484C53.2079 9.9502 53.2586 9.93307 53.3184 9.91309C53.4375 9.87322 53.5963 9.82372 53.7881 9.77344C54.1678 9.67392 54.6986 9.5647 55.3232 9.52051Z" fill="#B35D0A" stroke="white" stroke-width="5" stroke-linecap="round" stroke-linejoin="round"/>
<path d="M42 2.5C44.4853 2.5 46.5 4.51472 46.5 7V62C46.5 64.4853 44.4853 66.5 42 66.5H7C4.51472 66.5 2.5 64.4853 2.5 62V7C2.5 4.51472 4.51472 2.5 7 2.5H42Z" fill="#D9D9D9" stroke="white" stroke-width="5"/>
<path fill-rule="evenodd" clip-rule="evenodd" d="M7 3H42C44.2091 3 46 4.79086 46 7V62C46 64.2091 44.2091 66 42 66H7C4.79086 66 3 64.2091 3 62V7C3 4.79086 4.79086 3 7 3ZM7 5C5.89543 5 5 5.89543 5 7V62C5 63.1046 5.89543 64 7 64H42C43.1046 64 44 63.1046 44 62V7C44 5.89543 43.1046 5 42 5H7Z" fill="black"/>
<path d="M55.4297 11.0166C56.4466 10.9447 57.8394 11.0817 59.0967 12.0156L59.3447 12.2109C60.5359 13.1965 60.9791 14.358 61.0918 15.3135C61.1504 15.8102 61.1187 16.2394 61.0723 16.5479C61.0489 16.7027 61.0214 16.8297 60.998 16.9229C60.9864 16.9695 60.9764 17.0086 60.9678 17.0381C60.9635 17.0527 60.9592 17.065 60.9561 17.0752C60.9545 17.0802 60.9534 17.085 60.9521 17.0889C60.9515 17.0908 60.9507 17.0931 60.9502 17.0947L60.9492 17.0967V17.0977L60 16.7822L60.9482 17.0986C60.9029 17.2343 60.8289 17.3592 60.7314 17.4639L56.2432 22.2803C62.8326 22.9005 68 28.4008 68 35.1113C67.9997 42.2383 62.1708 48 55 48H31C23.8292 48 18.0003 42.2383 18 35.1113C18 27.9841 23.8291 22.2217 31 22.2217H42.5889L53.2959 11.6133L53.3711 11.5459C53.4496 11.4824 53.5376 11.4309 53.6318 11.3936L54 12.3232C53.6567 11.4566 53.634 11.3977 53.6328 11.3936V11.3926H53.6348C53.636 11.3921 53.6381 11.3912 53.6396 11.3906C53.6427 11.3895 53.6463 11.3883 53.6504 11.3867C53.6592 11.3834 53.6709 11.379 53.6846 11.374C53.7118 11.364 53.7484 11.3502 53.7939 11.335C53.8849 11.3045 54.0117 11.2656 54.168 11.2246C54.4793 11.143 54.9172 11.0528 55.4297 11.0166Z" fill="#B35D0A" stroke="black" stroke-width="2" stroke-linecap="round" stroke-linejoin="round"/>
<path d="M56.5 22L52.5 26" stroke="black" stroke-width="2" stroke-linecap="round"/>
<circle cx="31" cy="35" r="4.5" stroke="white" stroke-opacity="0.59" stroke-width="3"/>
<circle cx="31" cy="35" r="9.5" stroke="white" stroke-opacity="0.59" stroke-width="3"/>
<path d="M21 16C21 17.6569 22.3431 19 24 19C25.6569 19 27 17.6569 27 16L21 16ZM24 5L21 5L21 16L24 16L27 16L27 5L24 5Z" fill="white"/>
<path d="M27 55C27 53.3431 25.6569 52 24 52C22.3431 52 21 53.3431 21 55L27 55ZM24 64L27 64L27 55L24 55L21 55L21 64L24 64Z" fill="white"/>
</svg>
