<svg width="60" height="86" viewBox="0 0 60 86" fill="none" xmlns="http://www.w3.org/2000/svg">
<path d="M52.4355 2.5C55.2435 2.5 57.4999 4.78384 57.5 7.57617V78.4238C57.4999 81.2162 55.2435 83.5 52.4355 83.5H7.56445C4.75651 83.5 2.50005 81.2162 2.5 78.4238V7.57617C2.50005 4.78384 4.75651 2.5 7.56445 2.5H52.4355Z" fill="#D9D9D9" stroke="white" stroke-width="5"/>
<path d="M52.4355 4C54.4084 4 55.9999 5.60557 56 7.57617V78.4238C55.9999 80.3944 54.4084 82 52.4355 82H7.56445C5.59163 82 4.00005 80.3944 4 78.4238V7.57617C4.00005 5.60557 5.59163 4 7.56445 4H52.4355Z" fill="#D9D9D9" stroke="black" stroke-width="2"/>
<path d="M27 17C27 18.6569 28.3431 20 30 20C31.6569 20 33 18.6569 33 17L27 17ZM30 5L27 5L27 17L30 17L33 17L33 5L30 5Z" fill="white"/>
<path d="M30 36L30 50" stroke="white" stroke-width="6" stroke-linecap="round"/>
<path d="M33 69C33 67.3431 31.6569 66 30 66C28.3431 66 27 67.3431 27 69L33 69ZM30 81L33 81L33 69L30 69L27 69L27 81L30 81Z" fill="white"/>
</svg>
