<svg width="91" height="69" viewBox="0 0 91 69" fill="none" xmlns="http://www.w3.org/2000/svg">
<mask id="path-1-outside-1_264_593" maskUnits="userSpaceOnUse" x="-1" y="2" width="92" height="65" fill="black">
<rect fill="white" x="-1" y="2" width="92" height="65"/>
<path d="M10.0833 51.9537C10.0833 51.9537 9.1298 53.1636 9.57495 53.7329C9.94689 54.2084 11.0999 53.987 11.0999 53.987L18.979 50.4287L19.4873 52.2079L21.7748 54.7495L23.8081 55.0037L24.5706 54.2412L21.0123 51.9537V49.4121C21.0123 49.4121 26.4035 47.6855 29.6539 46.1079C32.3343 44.807 36.2622 42.2955 36.2622 42.2955L39.058 46.6163L39.3121 51.6995L35.2455 53.2245L31.6872 50.4287L26.0956 53.4787L27.6206 53.987L32.1955 51.9537L35.2455 55.7662L41.0913 51.9537V48.9037L44.6496 53.2245L45.6662 52.7162L38.2955 41.7872C38.2955 41.7872 42.4343 39.7794 45.4121 38.7372C48.3898 37.695 53.5453 36.4497 53.5453 36.4497L49.987 31.1123L51.2578 29.3331C51.2578 29.3331 50.9976 28.8188 50.7495 28.5706C50.5014 28.3225 49.987 28.0623 49.987 28.0623L42.8704 31.6206L39.058 30.3498L37.0247 27.554L31.6872 21.454L30.4164 17.8957L29.1456 15.8624V13.3208L29.6539 11.5416L28.3831 13.8291L28.8914 16.8791L30.1622 18.6582L30.4164 20.4374L25.8414 17.3874L19.4873 13.0666L23.8081 17.8957L29.6539 21.9624L34.2288 26.2831L24.5706 25.7748C24.5706 25.7748 22.3713 24.9124 21.0123 24.2498C19.3745 23.4513 16.9457 21.9624 16.9457 21.9624C16.9457 21.9624 18.2192 24.1204 19.4873 25.0123C20.5428 25.7547 22.5373 26.2831 22.5373 26.2831C22.5373 26.2831 18.8704 27.5912 16.4374 27.554C15.0338 27.5325 12.8791 27.0456 12.8791 27.0456L15.1666 28.5706H18.4707L23.8081 27.0456C23.8081 27.0456 25.662 27.3883 26.8581 27.554C29.2259 27.8819 32.958 28.0623 32.958 28.0623L35.7538 30.3498L40.3288 33.1456L27.8748 40.5163L23.8081 38.2289C23.8081 38.2289 20.2724 37.3067 17.9624 36.958C15.6965 36.6161 12.1166 36.4497 12.1166 36.4497L5 32.6372L11.6083 37.7205L16.4374 38.9913L12.1166 40.5163L9.57495 39.4997H6.01666L8.04997 40.008L11.0999 41.2788C11.0999 41.2788 12.0294 41.6879 12.6249 41.7872C13.2205 41.8864 13.597 42.0083 14.1499 41.7872C15.4207 41.2788 17.7082 39.4997 17.7082 39.4997H21.0123L25.8414 41.7872L10.0833 51.9537Z"/>
<path d="M63.8994 60.3578C63.8994 60.3578 61.8729 60.4945 61.3578 59.5953C61.1543 59.2402 61.1036 58.5786 61.1036 58.5786C61.1036 58.5786 64.1536 57.562 64.9161 51.7162C66.1062 42.592 55.512 30.1123 55.512 30.1123L58.3078 31.3831L57.5453 28.3331L54.7495 25.5373L56.0203 25.2831L54.7495 22.7415L58.8161 24.0123L58.3078 21.4707L62.1203 28.079L65.6785 32.1456L68.7285 36.9747L69.9993 38.7538C69.9993 38.7538 70.175 32.9129 69.2368 29.3498C68.6689 27.1928 67.2035 24.0123 67.2035 24.0123L64.6619 12.3208L66.6952 16.1332L64.9161 8L67.7119 16.3874L68.7285 20.9624L69.9993 14.8624L70.2535 21.7249C70.2535 21.7249 73.2503 30.7037 73.8118 35.1955C74.8284 43.3288 74.2895 46.4049 77.8784 52.2245C80.1637 55.9303 85.5033 60.3578 85.5033 60.3578C85.5033 60.3578 85.9364 61.1551 85.7575 61.6286C85.4418 62.4643 83.47 61.6286 83.47 61.6286C83.47 61.6286 77.4453 58.7429 73.3035 58.5786C69.5687 58.4305 63.8994 60.3578 63.8994 60.3578Z"/>
</mask>
<path d="M10.0833 51.9537C10.0833 51.9537 9.1298 53.1636 9.57495 53.7329C9.94689 54.2084 11.0999 53.987 11.0999 53.987L18.979 50.4287L19.4873 52.2079L21.7748 54.7495L23.8081 55.0037L24.5706 54.2412L21.0123 51.9537V49.4121C21.0123 49.4121 26.4035 47.6855 29.6539 46.1079C32.3343 44.807 36.2622 42.2955 36.2622 42.2955L39.058 46.6163L39.3121 51.6995L35.2455 53.2245L31.6872 50.4287L26.0956 53.4787L27.6206 53.987L32.1955 51.9537L35.2455 55.7662L41.0913 51.9537V48.9037L44.6496 53.2245L45.6662 52.7162L38.2955 41.7872C38.2955 41.7872 42.4343 39.7794 45.4121 38.7372C48.3898 37.695 53.5453 36.4497 53.5453 36.4497L49.987 31.1123L51.2578 29.3331C51.2578 29.3331 50.9976 28.8188 50.7495 28.5706C50.5014 28.3225 49.987 28.0623 49.987 28.0623L42.8704 31.6206L39.058 30.3498L37.0247 27.554L31.6872 21.454L30.4164 17.8957L29.1456 15.8624V13.3208L29.6539 11.5416L28.3831 13.8291L28.8914 16.8791L30.1622 18.6582L30.4164 20.4374L25.8414 17.3874L19.4873 13.0666L23.8081 17.8957L29.6539 21.9624L34.2288 26.2831L24.5706 25.7748C24.5706 25.7748 22.3713 24.9124 21.0123 24.2498C19.3745 23.4513 16.9457 21.9624 16.9457 21.9624C16.9457 21.9624 18.2192 24.1204 19.4873 25.0123C20.5428 25.7547 22.5373 26.2831 22.5373 26.2831C22.5373 26.2831 18.8704 27.5912 16.4374 27.554C15.0338 27.5325 12.8791 27.0456 12.8791 27.0456L15.1666 28.5706H18.4707L23.8081 27.0456C23.8081 27.0456 25.662 27.3883 26.8581 27.554C29.2259 27.8819 32.958 28.0623 32.958 28.0623L35.7538 30.3498L40.3288 33.1456L27.8748 40.5163L23.8081 38.2289C23.8081 38.2289 20.2724 37.3067 17.9624 36.958C15.6965 36.6161 12.1166 36.4497 12.1166 36.4497L5 32.6372L11.6083 37.7205L16.4374 38.9913L12.1166 40.5163L9.57495 39.4997H6.01666L8.04997 40.008L11.0999 41.2788C11.0999 41.2788 12.0294 41.6879 12.6249 41.7872C13.2205 41.8864 13.597 42.0083 14.1499 41.7872C15.4207 41.2788 17.7082 39.4997 17.7082 39.4997H21.0123L25.8414 41.7872L10.0833 51.9537Z" fill="#B35D0A"/>
<path d="M63.8994 60.3578C63.8994 60.3578 61.8729 60.4945 61.3578 59.5953C61.1543 59.2402 61.1036 58.5786 61.1036 58.5786C61.1036 58.5786 64.1536 57.562 64.9161 51.7162C66.1062 42.592 55.512 30.1123 55.512 30.1123L58.3078 31.3831L57.5453 28.3331L54.7495 25.5373L56.0203 25.2831L54.7495 22.7415L58.8161 24.0123L58.3078 21.4707L62.1203 28.079L65.6785 32.1456L68.7285 36.9747L69.9993 38.7538C69.9993 38.7538 70.175 32.9129 69.2368 29.3498C68.6689 27.1928 67.2035 24.0123 67.2035 24.0123L64.6619 12.3208L66.6952 16.1332L64.9161 8L67.7119 16.3874L68.7285 20.9624L69.9993 14.8624L70.2535 21.7249C70.2535 21.7249 73.2503 30.7037 73.8118 35.1955C74.8284 43.3288 74.2895 46.4049 77.8784 52.2245C80.1637 55.9303 85.5033 60.3578 85.5033 60.3578C85.5033 60.3578 85.9364 61.1551 85.7575 61.6286C85.4418 62.4643 83.47 61.6286 83.47 61.6286C83.47 61.6286 77.4453 58.7429 73.3035 58.5786C69.5687 58.4305 63.8994 60.3578 63.8994 60.3578Z" fill="#B35D0A"/>
<path d="M10.0833 51.9537C10.0833 51.9537 9.1298 53.1636 9.57495 53.7329C9.94689 54.2084 11.0999 53.987 11.0999 53.987L18.979 50.4287L19.4873 52.2079L21.7748 54.7495L23.8081 55.0037L24.5706 54.2412L21.0123 51.9537V49.4121C21.0123 49.4121 26.4035 47.6855 29.6539 46.1079C32.3343 44.807 36.2622 42.2955 36.2622 42.2955L39.058 46.6163L39.3121 51.6995L35.2455 53.2245L31.6872 50.4287L26.0956 53.4787L27.6206 53.987L32.1955 51.9537L35.2455 55.7662L41.0913 51.9537V48.9037L44.6496 53.2245L45.6662 52.7162L38.2955 41.7872C38.2955 41.7872 42.4343 39.7794 45.4121 38.7372C48.3898 37.695 53.5453 36.4497 53.5453 36.4497L49.987 31.1123L51.2578 29.3331C51.2578 29.3331 50.9976 28.8188 50.7495 28.5706C50.5014 28.3225 49.987 28.0623 49.987 28.0623L42.8704 31.6206L39.058 30.3498L37.0247 27.554L31.6872 21.454L30.4164 17.8957L29.1456 15.8624V13.3208L29.6539 11.5416L28.3831 13.8291L28.8914 16.8791L30.1622 18.6582L30.4164 20.4374L25.8414 17.3874L19.4873 13.0666L23.8081 17.8957L29.6539 21.9624L34.2288 26.2831L24.5706 25.7748C24.5706 25.7748 22.3713 24.9124 21.0123 24.2498C19.3745 23.4513 16.9457 21.9624 16.9457 21.9624C16.9457 21.9624 18.2192 24.1204 19.4873 25.0123C20.5428 25.7547 22.5373 26.2831 22.5373 26.2831C22.5373 26.2831 18.8704 27.5912 16.4374 27.554C15.0338 27.5325 12.8791 27.0456 12.8791 27.0456L15.1666 28.5706H18.4707L23.8081 27.0456C23.8081 27.0456 25.662 27.3883 26.8581 27.554C29.2259 27.8819 32.958 28.0623 32.958 28.0623L35.7538 30.3498L40.3288 33.1456L27.8748 40.5163L23.8081 38.2289C23.8081 38.2289 20.2724 37.3067 17.9624 36.958C15.6965 36.6161 12.1166 36.4497 12.1166 36.4497L5 32.6372L11.6083 37.7205L16.4374 38.9913L12.1166 40.5163L9.57495 39.4997H6.01666L8.04997 40.008L11.0999 41.2788C11.0999 41.2788 12.0294 41.6879 12.6249 41.7872C13.2205 41.8864 13.597 42.0083 14.1499 41.7872C15.4207 41.2788 17.7082 39.4997 17.7082 39.4997H21.0123L25.8414 41.7872L10.0833 51.9537Z" stroke="white" stroke-width="10" stroke-linecap="round" stroke-linejoin="round" mask="url(#path-1-outside-1_264_593)"/>
<path d="M63.8994 60.3578C63.8994 60.3578 61.8729 60.4945 61.3578 59.5953C61.1543 59.2402 61.1036 58.5786 61.1036 58.5786C61.1036 58.5786 64.1536 57.562 64.9161 51.7162C66.1062 42.592 55.512 30.1123 55.512 30.1123L58.3078 31.3831L57.5453 28.3331L54.7495 25.5373L56.0203 25.2831L54.7495 22.7415L58.8161 24.0123L58.3078 21.4707L62.1203 28.079L65.6785 32.1456L68.7285 36.9747L69.9993 38.7538C69.9993 38.7538 70.175 32.9129 69.2368 29.3498C68.6689 27.1928 67.2035 24.0123 67.2035 24.0123L64.6619 12.3208L66.6952 16.1332L64.9161 8L67.7119 16.3874L68.7285 20.9624L69.9993 14.8624L70.2535 21.7249C70.2535 21.7249 73.2503 30.7037 73.8118 35.1955C74.8284 43.3288 74.2895 46.4049 77.8784 52.2245C80.1637 55.9303 85.5033 60.3578 85.5033 60.3578C85.5033 60.3578 85.9364 61.1551 85.7575 61.6286C85.4418 62.4643 83.47 61.6286 83.47 61.6286C83.47 61.6286 77.4453 58.7429 73.3035 58.5786C69.5687 58.4305 63.8994 60.3578 63.8994 60.3578Z" stroke="white" stroke-width="10" stroke-linecap="round" stroke-linejoin="round" mask="url(#path-1-outside-1_264_593)"/>
<path d="M69 2.5C71.4853 2.5 73.5 4.51472 73.5 7V62C73.5 64.4853 71.4853 66.5 69 66.5H34C31.5147 66.5 29.5 64.4853 29.5 62V7C29.5 4.51472 31.5147 2.5 34 2.5H69Z" fill="#D9D9D9" stroke="white" stroke-width="5"/>
<path fill-rule="evenodd" clip-rule="evenodd" d="M34 3H69C71.2091 3 73 4.79086 73 7V62C73 64.2091 71.2091 66 69 66H34C31.7909 66 30 64.2091 30 62V7C30 4.79086 31.7909 3 34 3ZM34 5C32.8954 5 32 5.89543 32 7V62C32 63.1046 32.8954 64 34 64H69C70.1046 64 71 63.1046 71 62V7C71 5.89543 70.1046 5 69 5H34Z" fill="black"/>
<path d="M10.0833 51.9537C10.0833 51.9537 9.1298 53.1636 9.57495 53.7329C9.94689 54.2084 11.0999 53.987 11.0999 53.987L18.979 50.4287L19.4873 52.2079L21.7748 54.7495L23.8081 55.0037L24.5706 54.2412L21.0123 51.9537V49.4121C21.0123 49.4121 26.4035 47.6855 29.6539 46.1079C32.3343 44.807 36.2622 42.2955 36.2622 42.2955L39.058 46.6163L39.3121 51.6995L35.2455 53.2245L31.6872 50.4287L26.0956 53.4787L27.6206 53.987L32.1955 51.9537L35.2455 55.7662L41.0913 51.9537V48.9037L44.6496 53.2245L45.6662 52.7162L38.2955 41.7872C38.2955 41.7872 42.4343 39.7794 45.4121 38.7372C48.3898 37.695 53.5453 36.4497 53.5453 36.4497L49.987 31.1123L51.2578 29.3331C51.2578 29.3331 50.9976 28.8188 50.7495 28.5706C50.5014 28.3225 49.987 28.0623 49.987 28.0623L42.8704 31.6206L39.058 30.3498L37.0247 27.554L31.6872 21.454L30.4164 17.8957L29.1456 15.8624V13.3208L29.6539 11.5416L28.3831 13.8291L28.8914 16.8791L30.1622 18.6582L30.4164 20.4374L25.8414 17.3874L19.4873 13.0666L23.8081 17.8957L29.6539 21.9624L34.2288 26.2831L24.5706 25.7748C24.5706 25.7748 22.3713 24.9124 21.0123 24.2498C19.3745 23.4513 16.9457 21.9624 16.9457 21.9624C16.9457 21.9624 18.2192 24.1204 19.4873 25.0123C20.5428 25.7547 22.5373 26.2831 22.5373 26.2831C22.5373 26.2831 18.8704 27.5912 16.4374 27.554C15.0338 27.5325 12.8791 27.0456 12.8791 27.0456L15.1666 28.5706H18.4707L23.8081 27.0456C23.8081 27.0456 25.662 27.3883 26.8581 27.554C29.2259 27.8819 32.958 28.0623 32.958 28.0623L35.7538 30.3498L40.3288 33.1456L27.8748 40.5163L23.8081 38.2289C23.8081 38.2289 20.2724 37.3067 17.9624 36.958C15.6965 36.6161 12.1166 36.4497 12.1166 36.4497L5 32.6372L11.6083 37.7205L16.4374 38.9913L12.1166 40.5163L9.57495 39.4997H6.01666L8.04997 40.008L11.0999 41.2788C11.0999 41.2788 12.0294 41.6879 12.6249 41.7872C13.2205 41.8864 13.597 42.0083 14.1499 41.7872C15.4207 41.2788 17.7082 39.4997 17.7082 39.4997H21.0123L25.8414 41.7872L10.0833 51.9537Z" fill="#B35D0A"/>
<path d="M63.8994 60.3578C63.8994 60.3578 61.8729 60.4945 61.3578 59.5953C61.1543 59.2402 61.1036 58.5786 61.1036 58.5786C61.1036 58.5786 64.1536 57.562 64.9161 51.7162C66.1062 42.592 55.512 30.1123 55.512 30.1123L58.3078 31.3831L57.5453 28.3331L54.7495 25.5373L56.0203 25.2831L54.7495 22.7415L58.8161 24.0123L58.3078 21.4707L62.1203 28.079L65.6785 32.1456L68.7285 36.9747L69.9993 38.7538C69.9993 38.7538 70.175 32.9129 69.2368 29.3498C68.6689 27.1928 67.2035 24.0123 67.2035 24.0123L64.6619 12.3208L66.6952 16.1332L64.9161 8L67.7119 16.3874L68.7285 20.9624L69.9993 14.8624L70.2535 21.7249C70.2535 21.7249 73.2503 30.7037 73.8118 35.1955C74.8284 43.3288 74.2895 46.4049 77.8784 52.2245C80.1637 55.9303 85.5033 60.3578 85.5033 60.3578C85.5033 60.3578 85.9364 61.1551 85.7575 61.6286C85.4418 62.4643 83.47 61.6286 83.47 61.6286C83.47 61.6286 77.4453 58.7429 73.3035 58.5786C69.5687 58.4305 63.8994 60.3578 63.8994 60.3578Z" fill="#B35D0A"/>
<mask id="path-5-outside-2_264_593" maskUnits="userSpaceOnUse" x="2" y="5" width="86" height="59" fill="black">
<rect fill="white" x="2" y="5" width="86" height="59"/>
<path d="M10.0833 51.9537C10.0833 51.9537 9.1298 53.1636 9.57495 53.7329C9.94689 54.2084 11.0999 53.987 11.0999 53.987L18.979 50.4287L19.4873 52.2079L21.7748 54.7495L23.8081 55.0037L24.5706 54.2412L21.0123 51.9537V49.4121C21.0123 49.4121 26.4035 47.6855 29.6539 46.1079C32.3343 44.807 36.2622 42.2955 36.2622 42.2955L39.058 46.6163L39.3121 51.6995L35.2455 53.2245L31.6872 50.4287L26.0956 53.4787L27.6206 53.987L32.1955 51.9537L35.2455 55.7662L41.0913 51.9537V48.9037L44.6496 53.2245L45.6662 52.7162L38.2955 41.7872C38.2955 41.7872 42.4343 39.7794 45.4121 38.7372C48.3898 37.695 53.5453 36.4497 53.5453 36.4497L49.987 31.1123L51.2578 29.3331C51.2578 29.3331 50.9976 28.8188 50.7495 28.5706C50.5014 28.3225 49.987 28.0623 49.987 28.0623L42.8704 31.6206L39.058 30.3498L37.0247 27.554L31.6872 21.454L30.4164 17.8957L29.1456 15.8624V13.3208L29.6539 11.5416L28.3831 13.8291L28.8914 16.8791L30.1622 18.6582L30.4164 20.4374L25.8414 17.3874L19.4873 13.0666L23.8081 17.8957L29.6539 21.9624L34.2288 26.2831L24.5706 25.7748C24.5706 25.7748 22.3713 24.9124 21.0123 24.2498C19.3745 23.4513 16.9457 21.9624 16.9457 21.9624C16.9457 21.9624 18.2192 24.1204 19.4873 25.0123C20.5428 25.7547 22.5373 26.2831 22.5373 26.2831C22.5373 26.2831 18.8704 27.5912 16.4374 27.554C15.0338 27.5325 12.8791 27.0456 12.8791 27.0456L15.1666 28.5706H18.4707L23.8081 27.0456C23.8081 27.0456 25.662 27.3883 26.8581 27.554C29.2259 27.8819 32.958 28.0623 32.958 28.0623L35.7538 30.3498L40.3288 33.1456L27.8748 40.5163L23.8081 38.2289C23.8081 38.2289 20.2724 37.3067 17.9624 36.958C15.6965 36.6161 12.1166 36.4497 12.1166 36.4497L5 32.6372L11.6083 37.7205L16.4374 38.9913L12.1166 40.5163L9.57495 39.4997H6.01666L8.04997 40.008L11.0999 41.2788C11.0999 41.2788 12.0294 41.6879 12.6249 41.7872C13.2205 41.8864 13.597 42.0083 14.1499 41.7872C15.4207 41.2788 17.7082 39.4997 17.7082 39.4997H21.0123L25.8414 41.7872L10.0833 51.9537Z"/>
<path d="M63.8994 60.3578C63.8994 60.3578 61.8729 60.4945 61.3578 59.5953C61.1543 59.2402 61.1036 58.5786 61.1036 58.5786C61.1036 58.5786 64.1536 57.562 64.9161 51.7162C66.1062 42.592 55.512 30.1123 55.512 30.1123L58.3078 31.3831L57.5453 28.3331L54.7495 25.5373L56.0203 25.2831L54.7495 22.7415L58.8161 24.0123L58.3078 21.4707L62.1203 28.079L65.6785 32.1456L68.7285 36.9747L69.9993 38.7538C69.9993 38.7538 70.175 32.9129 69.2368 29.3498C68.6689 27.1928 67.2035 24.0123 67.2035 24.0123L64.6619 12.3208L66.6952 16.1332L64.9161 8L67.7119 16.3874L68.7285 20.9624L69.9993 14.8624L70.2535 21.7249C70.2535 21.7249 73.2503 30.7037 73.8118 35.1955C74.8284 43.3288 74.2895 46.4049 77.8784 52.2245C80.1637 55.9303 85.5033 60.3578 85.5033 60.3578C85.5033 60.3578 85.9364 61.1551 85.7575 61.6286C85.4418 62.4643 83.47 61.6286 83.47 61.6286C83.47 61.6286 77.4453 58.7429 73.3035 58.5786C69.5687 58.4305 63.8994 60.3578 63.8994 60.3578Z"/>
</mask>
<path d="M10.0833 51.9537C10.0833 51.9537 9.1298 53.1636 9.57495 53.7329C9.94689 54.2084 11.0999 53.987 11.0999 53.987L18.979 50.4287L19.4873 52.2079L21.7748 54.7495L23.8081 55.0037L24.5706 54.2412L21.0123 51.9537V49.4121C21.0123 49.4121 26.4035 47.6855 29.6539 46.1079C32.3343 44.807 36.2622 42.2955 36.2622 42.2955L39.058 46.6163L39.3121 51.6995L35.2455 53.2245L31.6872 50.4287L26.0956 53.4787L27.6206 53.987L32.1955 51.9537L35.2455 55.7662L41.0913 51.9537V48.9037L44.6496 53.2245L45.6662 52.7162L38.2955 41.7872C38.2955 41.7872 42.4343 39.7794 45.4121 38.7372C48.3898 37.695 53.5453 36.4497 53.5453 36.4497L49.987 31.1123L51.2578 29.3331C51.2578 29.3331 50.9976 28.8188 50.7495 28.5706C50.5014 28.3225 49.987 28.0623 49.987 28.0623L42.8704 31.6206L39.058 30.3498L37.0247 27.554L31.6872 21.454L30.4164 17.8957L29.1456 15.8624V13.3208L29.6539 11.5416L28.3831 13.8291L28.8914 16.8791L30.1622 18.6582L30.4164 20.4374L25.8414 17.3874L19.4873 13.0666L23.8081 17.8957L29.6539 21.9624L34.2288 26.2831L24.5706 25.7748C24.5706 25.7748 22.3713 24.9124 21.0123 24.2498C19.3745 23.4513 16.9457 21.9624 16.9457 21.9624C16.9457 21.9624 18.2192 24.1204 19.4873 25.0123C20.5428 25.7547 22.5373 26.2831 22.5373 26.2831C22.5373 26.2831 18.8704 27.5912 16.4374 27.554C15.0338 27.5325 12.8791 27.0456 12.8791 27.0456L15.1666 28.5706H18.4707L23.8081 27.0456C23.8081 27.0456 25.662 27.3883 26.8581 27.554C29.2259 27.8819 32.958 28.0623 32.958 28.0623L35.7538 30.3498L40.3288 33.1456L27.8748 40.5163L23.8081 38.2289C23.8081 38.2289 20.2724 37.3067 17.9624 36.958C15.6965 36.6161 12.1166 36.4497 12.1166 36.4497L5 32.6372L11.6083 37.7205L16.4374 38.9913L12.1166 40.5163L9.57495 39.4997H6.01666L8.04997 40.008L11.0999 41.2788C11.0999 41.2788 12.0294 41.6879 12.6249 41.7872C13.2205 41.8864 13.597 42.0083 14.1499 41.7872C15.4207 41.2788 17.7082 39.4997 17.7082 39.4997H21.0123L25.8414 41.7872L10.0833 51.9537Z" fill="#B35D0A"/>
<path d="M63.8994 60.3578C63.8994 60.3578 61.8729 60.4945 61.3578 59.5953C61.1543 59.2402 61.1036 58.5786 61.1036 58.5786C61.1036 58.5786 64.1536 57.562 64.9161 51.7162C66.1062 42.592 55.512 30.1123 55.512 30.1123L58.3078 31.3831L57.5453 28.3331L54.7495 25.5373L56.0203 25.2831L54.7495 22.7415L58.8161 24.0123L58.3078 21.4707L62.1203 28.079L65.6785 32.1456L68.7285 36.9747L69.9993 38.7538C69.9993 38.7538 70.175 32.9129 69.2368 29.3498C68.6689 27.1928 67.2035 24.0123 67.2035 24.0123L64.6619 12.3208L66.6952 16.1332L64.9161 8L67.7119 16.3874L68.7285 20.9624L69.9993 14.8624L70.2535 21.7249C70.2535 21.7249 73.2503 30.7037 73.8118 35.1955C74.8284 43.3288 74.2895 46.4049 77.8784 52.2245C80.1637 55.9303 85.5033 60.3578 85.5033 60.3578C85.5033 60.3578 85.9364 61.1551 85.7575 61.6286C85.4418 62.4643 83.47 61.6286 83.47 61.6286C83.47 61.6286 77.4453 58.7429 73.3035 58.5786C69.5687 58.4305 63.8994 60.3578 63.8994 60.3578Z" fill="#B35D0A"/>
<path d="M10.0833 51.9537C10.0833 51.9537 9.1298 53.1636 9.57495 53.7329C9.94689 54.2084 11.0999 53.987 11.0999 53.987L18.979 50.4287L19.4873 52.2079L21.7748 54.7495L23.8081 55.0037L24.5706 54.2412L21.0123 51.9537V49.4121C21.0123 49.4121 26.4035 47.6855 29.6539 46.1079C32.3343 44.807 36.2622 42.2955 36.2622 42.2955L39.058 46.6163L39.3121 51.6995L35.2455 53.2245L31.6872 50.4287L26.0956 53.4787L27.6206 53.987L32.1955 51.9537L35.2455 55.7662L41.0913 51.9537V48.9037L44.6496 53.2245L45.6662 52.7162L38.2955 41.7872C38.2955 41.7872 42.4343 39.7794 45.4121 38.7372C48.3898 37.695 53.5453 36.4497 53.5453 36.4497L49.987 31.1123L51.2578 29.3331C51.2578 29.3331 50.9976 28.8188 50.7495 28.5706C50.5014 28.3225 49.987 28.0623 49.987 28.0623L42.8704 31.6206L39.058 30.3498L37.0247 27.554L31.6872 21.454L30.4164 17.8957L29.1456 15.8624V13.3208L29.6539 11.5416L28.3831 13.8291L28.8914 16.8791L30.1622 18.6582L30.4164 20.4374L25.8414 17.3874L19.4873 13.0666L23.8081 17.8957L29.6539 21.9624L34.2288 26.2831L24.5706 25.7748C24.5706 25.7748 22.3713 24.9124 21.0123 24.2498C19.3745 23.4513 16.9457 21.9624 16.9457 21.9624C16.9457 21.9624 18.2192 24.1204 19.4873 25.0123C20.5428 25.7547 22.5373 26.2831 22.5373 26.2831C22.5373 26.2831 18.8704 27.5912 16.4374 27.554C15.0338 27.5325 12.8791 27.0456 12.8791 27.0456L15.1666 28.5706H18.4707L23.8081 27.0456C23.8081 27.0456 25.662 27.3883 26.8581 27.554C29.2259 27.8819 32.958 28.0623 32.958 28.0623L35.7538 30.3498L40.3288 33.1456L27.8748 40.5163L23.8081 38.2289C23.8081 38.2289 20.2724 37.3067 17.9624 36.958C15.6965 36.6161 12.1166 36.4497 12.1166 36.4497L5 32.6372L11.6083 37.7205L16.4374 38.9913L12.1166 40.5163L9.57495 39.4997H6.01666L8.04997 40.008L11.0999 41.2788C11.0999 41.2788 12.0294 41.6879 12.6249 41.7872C13.2205 41.8864 13.597 42.0083 14.1499 41.7872C15.4207 41.2788 17.7082 39.4997 17.7082 39.4997H21.0123L25.8414 41.7872L10.0833 51.9537Z" stroke="black" stroke-width="4" stroke-linecap="round" stroke-linejoin="round" mask="url(#path-5-outside-2_264_593)"/>
<path d="M63.8994 60.3578C63.8994 60.3578 61.8729 60.4945 61.3578 59.5953C61.1543 59.2402 61.1036 58.5786 61.1036 58.5786C61.1036 58.5786 64.1536 57.562 64.9161 51.7162C66.1062 42.592 55.512 30.1123 55.512 30.1123L58.3078 31.3831L57.5453 28.3331L54.7495 25.5373L56.0203 25.2831L54.7495 22.7415L58.8161 24.0123L58.3078 21.4707L62.1203 28.079L65.6785 32.1456L68.7285 36.9747L69.9993 38.7538C69.9993 38.7538 70.175 32.9129 69.2368 29.3498C68.6689 27.1928 67.2035 24.0123 67.2035 24.0123L64.6619 12.3208L66.6952 16.1332L64.9161 8L67.7119 16.3874L68.7285 20.9624L69.9993 14.8624L70.2535 21.7249C70.2535 21.7249 73.2503 30.7037 73.8118 35.1955C74.8284 43.3288 74.2895 46.4049 77.8784 52.2245C80.1637 55.9303 85.5033 60.3578 85.5033 60.3578C85.5033 60.3578 85.9364 61.1551 85.7575 61.6286C85.4418 62.4643 83.47 61.6286 83.47 61.6286C83.47 61.6286 77.4453 58.7429 73.3035 58.5786C69.5687 58.4305 63.8994 60.3578 63.8994 60.3578Z" stroke="black" stroke-width="4" stroke-linecap="round" stroke-linejoin="round" mask="url(#path-5-outside-2_264_593)"/>
<path d="M48 16C48 17.6569 49.3431 19 51 19C52.6569 19 54 17.6569 54 16L48 16ZM51 5L48 5L48 16L51 16L54 16L54 5L51 5Z" fill="white"/>
<path d="M54 55C54 53.3431 52.6569 52 51 52C49.3431 52 48 53.3431 48 55L54 55ZM51 64L54 64L54 55L51 55L48 55L48 64L51 64Z" fill="white"/>
</svg>
