<svg width="67" height="69" viewBox="0 0 67 69" fill="none" xmlns="http://www.w3.org/2000/svg">
<path d="M56.0897 60.2707C55.6887 61.0414 55.1434 61.8993 54.3786 62.5726L54.0955 62.8086C51.1249 65.1411 46.9131 64.2484 43.7728 62.4049L43.5909 62.2912C42.7006 61.7056 42.1217 60.8477 41.7394 60.1425C41.3081 59.3468 40.9646 58.4355 40.6785 57.5478C40.2625 56.257 39.8793 54.7123 39.5314 53.3431L39.1953 52.0488C38.9807 51.2502 38.7649 50.6766 38.5257 49.9406C38.3175 49.2999 38.0497 48.4189 38.061 47.4578C38.0864 45.2882 39.4395 43.7667 41.276 42.3866L41.6498 42.1122C41.9812 41.8739 42.2792 41.4601 42.5165 40.6097C42.7681 39.7076 42.8663 38.6551 43.0021 37.303C43.1244 36.0847 43.2842 34.531 43.7862 33.1579C44.2942 31.7685 45.2197 30.3762 46.9013 29.5688L47.2481 29.4157C49.771 28.3878 52.3982 28.1188 54.7126 29.6912C56.4616 30.8798 57.6131 32.873 58.4881 35.1901C58.9669 35.4146 59.4035 35.7265 59.7821 36.1242C60.5518 36.9328 60.9367 37.9328 61.1404 38.8103C61.5418 40.5397 61.4245 42.6269 61.1672 44.4917C60.9011 46.4201 60.4436 48.3896 59.9836 50.0126C59.5391 51.581 59.0404 53.0113 58.6464 53.7868L58.4677 54.1639C58.0591 55.082 57.7018 56.2683 57.1352 57.8175C56.8423 58.6181 56.5008 59.4805 56.0897 60.2707Z" fill="#767676" stroke="white" stroke-width="5"/>
<path d="M43.9999 2.5C46.4852 2.5 48.4999 4.51472 48.4999 7V62C48.4999 64.4853 46.4852 66.5 43.9999 66.5H8.99988C6.5146 66.5 4.49988 64.4853 4.49988 62V7C4.49988 4.51472 6.5146 2.5 8.99988 2.5H43.9999Z" fill="#D9D9D9" stroke="white" stroke-width="5"/>
<path fill-rule="evenodd" clip-rule="evenodd" d="M8.99988 3H43.9999C46.209 3 47.9999 4.79086 47.9999 7V62C47.9999 64.2091 46.209 66 43.9999 66H8.99988C6.79074 66 4.99988 64.2091 4.99988 62V7C4.99988 4.79086 6.79074 3 8.99988 3ZM8.99988 5C7.89531 5 6.99988 5.89543 6.99988 7V62C6.99988 63.1046 7.89531 64 8.99988 64H43.9999C45.1044 64 45.9999 63.1046 45.9999 62V7C45.9999 5.89543 45.1044 5 43.9999 5H8.99988Z" fill="black"/>
<path d="M22.9999 16C22.9999 17.6569 24.343 19 25.9999 19C27.6567 19 28.9999 17.6569 28.9999 16L22.9999 16ZM25.9999 5L22.9999 5L22.9999 16L25.9999 16L28.9999 16L28.9999 5L25.9999 5Z" fill="white"/>
<path d="M28.9999 55C28.9999 53.3431 27.6567 52 25.9999 52C24.343 52 22.9999 53.3431 22.9999 55L28.9999 55ZM25.9999 64L28.9999 64L28.9999 55L25.9999 55L22.9999 55L22.9999 64L25.9999 64Z" fill="white"/>
<path d="M20.9529 57.7641C20.3049 57.7936 20.0526 57.4468 20.0076 56.5959C19.3586 56.361 20.3124 54.2534 20.5851 54.4969C20.8578 54.7404 21.628 53.8268 21.9202 53.7026C22.2125 53.5785 22.9671 54.0901 22.8225 54.5487C22.6779 55.0074 22.7814 54.7553 22.7834 55.284C22.7854 55.8128 22.7239 56.1227 22.0974 56.3132C21.4708 56.5038 21.6009 57.7347 20.9529 57.7641Z" fill="#767676"/>
<path d="M32.3421 37.6057C31.6506 37.0912 31.585 36.4012 32.0213 35.1992C31.479 34.3224 33.6689 32.2573 33.8146 32.8237C33.9603 33.3901 35.2809 32.8002 35.6557 32.8806C36.0305 32.961 36.5257 34.3065 36.1146 34.8097C35.7036 35.313 35.9546 35.0571 35.6564 35.7817C35.3582 36.5064 35.1181 36.8773 34.3576 36.6016C33.5971 36.3258 33.0335 38.1201 32.3421 37.6057Z" fill="#767676"/>
<path d="M40.348 36.6058C39.9679 37.05 39.5336 37.0328 38.8254 36.611C38.2333 36.9156 37.1428 35.1662 37.5073 35.115C37.8718 35.0639 37.6213 34.0696 37.704 33.8104C37.7868 33.5512 38.6658 33.3235 38.9423 33.6626C39.2189 34.0017 39.0819 33.7994 39.5058 34.0787C39.9297 34.358 40.139 34.5632 39.9011 35.0787C39.6632 35.5943 40.7281 36.1615 40.348 36.6058Z" fill="#767676"/>
<path d="M38.4172 26.7282C38.8988 25.0645 38.2263 24.4605 36.2122 24.4487C36.0598 22.8146 29.7526 24.4963 29.0775 24.9848C27.9255 25.8182 28.5377 28.9364 28.0543 29.7002C27.5709 30.4639 28.3205 32.3349 29.5132 31.9086C30.7059 31.4824 30.0351 31.7784 31.3031 31.7192C32.5711 31.66 33.3539 31.4646 34.2086 29.8365C35.0633 28.2083 37.9355 28.3919 38.4172 26.7282Z" fill="#767676"/>
<path d="M15.635 53.6728C13.3672 53.3883 12.7909 52.0927 13.3627 49.2519C11.3175 48.0924 16.1464 43.3249 17.156 42.6503C18.2085 41.9471 19.5799 40.3132 20.6974 40.0748C21.8149 39.8364 23.0561 40.6737 23.9064 42.1309C24.3857 42.9522 23.6869 45.0307 23.2417 46.7806C22.7965 48.5306 23.1673 49.288 20.8362 49.5489C18.5051 49.8098 17.9028 53.9574 15.635 53.6728Z" fill="#767676"/>
<path d="M20.0524 22.8645C21.6643 23.4911 22.1922 24.8071 22.0674 27.4034C23.6084 28.8224 20.6959 32.5696 20.0558 33.0483C19.3885 33.5474 18.5885 34.8763 17.8308 34.9256C17.0731 34.9749 16.1251 33.9874 15.3901 32.4753C14.9758 31.623 15.263 29.7677 15.4048 28.183C15.5466 26.5983 15.2143 25.8236 16.8176 25.9444C18.4209 26.0652 18.4406 22.2378 20.0524 22.8645Z" fill="#767676"/>
<path d="M54.7591 59.5785C54.3967 60.2751 53.9532 60.9483 53.3874 61.4464L53.1747 61.624C50.9334 63.3796 47.4974 62.8518 44.5325 61.1113L44.2987 60.9577C43.7706 60.5713 43.3716 60.0059 43.058 59.4275C42.6904 58.7493 42.38 57.9371 42.106 57.0869C41.7004 55.8281 41.3371 54.3604 40.9883 52.9883L40.6438 51.6596C40.4159 50.8116 40.1699 50.1493 39.9515 49.4772C39.7455 48.8434 39.5524 48.1684 39.5604 47.4756C39.5774 46.0295 40.4415 44.8918 42.1678 43.5922L42.5247 43.3308C43.2346 42.8205 43.6732 42.0469 43.9618 41.0123C44.2561 39.9573 44.3635 38.7555 44.4943 37.4531C44.6198 36.2041 44.7684 34.84 45.195 33.6733C45.6099 32.5385 46.3159 31.5122 47.5586 30.9175L47.8143 30.8048C50.1064 29.871 52.1435 29.7585 53.8698 30.9314C55.381 31.9583 56.4451 33.8457 57.3193 36.3627C57.8531 36.493 58.3178 36.7616 58.6957 37.1585C59.2128 37.7017 59.5096 38.4164 59.6797 39.149C60.0174 40.6041 59.9324 42.4699 59.6816 44.2869C59.4274 46.1292 58.9866 48.0291 58.5402 49.6041C58.1 51.1573 57.6329 52.4693 57.3087 53.1076L57.1097 53.5281C56.6527 54.5532 56.2478 55.8767 55.7265 57.3021C55.4409 58.0827 55.1256 58.8741 54.7591 59.5785Z" fill="#767676" stroke="black" stroke-width="2"/>
</svg>
