<svg width="73" height="87" viewBox="0 0 73 87" fill="none" xmlns="http://www.w3.org/2000/svg">
<mask id="path-1-outside-1_269_684" maskUnits="userSpaceOnUse" x="38.0001" y="24" width="6" height="63" fill="black">
<rect fill="white" x="38.0001" y="24" width="6" height="63"/>
<path d="M40.0001 26H42.0001V87H40.0001V26Z"/>
</mask>
<path d="M40.0001 26H42.0001V87H40.0001V26Z" fill="black"/>
<path d="M40.0001 26V24H38.0001V26H40.0001ZM42.0001 26H44.0001V24H42.0001V26ZM40.0001 26V28H42.0001V26V24H40.0001V26ZM42.0001 26H40.0001V87H42.0001H44.0001V26H42.0001ZM40.0001 87H42.0001V26H40.0001H38.0001V87H40.0001Z" fill="white" mask="url(#path-1-outside-1_269_684)"/>
<path d="M16.0525 16.1947C25.017 7.23019 39.5514 7.23021 48.5159 16.1947C57.4804 25.1592 57.4804 39.6936 48.5159 48.6581C39.5514 57.6226 25.017 57.6226 16.0525 48.6581C7.08802 39.6936 7.08802 25.1592 16.0525 16.1947Z" stroke="white" stroke-width="5"/>
<path d="M46.7482 17.9624C54.7365 25.9507 54.7365 38.9021 46.7482 46.8904C38.76 54.8786 25.8085 54.8786 17.8203 46.8904C9.83209 38.9021 9.83209 25.9507 17.8203 17.9624C25.8085 9.97422 38.76 9.97422 46.7482 17.9624Z" fill="white"/>
<path d="M43.256 27.4329L34.5087 45.8221L22.5486 40.133L23.8769 37.3405L32.5058 41.4451L34.8806 36.4527L26.8712 32.6428L28.1995 29.8503L36.2089 33.6602L38.5964 28.6409L29.8957 24.5021L31.224 21.7096L43.256 27.4329Z" fill="black"/>
<path fill-rule="evenodd" clip-rule="evenodd" d="M48.3554 16.3553C57.2312 25.2311 57.2312 39.6217 48.3554 48.4975C39.4796 57.3733 25.089 57.3733 16.2132 48.4975C7.33741 39.6217 7.33741 25.2311 16.2132 16.3553C25.089 7.47953 39.4796 7.47953 48.3554 16.3553ZM46.7483 46.8904C54.7365 38.9021 54.7365 25.9507 46.7483 17.9624C38.76 9.97422 25.8086 9.97422 17.8203 17.9624C9.8321 25.9507 9.8321 38.9021 17.8203 46.8904C25.8086 54.8786 38.76 54.8786 46.7483 46.8904Z" fill="#FF0000"/>
<path d="M34.6949 11.534L27.4629 6.71269L34.2931 3.90026L38.7127 7.51625L41.1233 12.3376L39.5162 24.3909L35.9002 18.3642L34.6949 11.534Z" fill="#211F1E"/>
<path d="M48.5 43.0266L42.5329 39.8469L47.1697 39.2279L51.4064 43.0266L54.5 43.0266L55.8657 56.2455L51.7014 50.7672L48.5 43.0266Z" fill="#211F1E"/>
</svg>
