<svg width="73" height="93" viewBox="0 0 73 93" fill="none" xmlns="http://www.w3.org/2000/svg">
<mask id="path-1-outside-1_269_931" maskUnits="userSpaceOnUse" x="0" y="0" width="73" height="93" fill="black">
<rect fill="white" width="73" height="93"/>
<path d="M21.0341 26.9505C21.0341 26.761 21.1876 26.6075 21.3771 26.6075H50.3585C50.5479 26.6075 50.7014 26.761 50.7014 26.9505V31.5806C50.7014 31.7701 50.5479 31.9236 50.3585 31.9236H21.3771C21.1876 31.9236 21.0341 31.7701 21.0341 31.5806V26.9505Z"/>
<path d="M30.2087 88H6.88636C5.84455 88 5 87.1555 5 86.1136V70.3331C5 64.334 9.61543 59.3446 15.5964 58.8782L23.3183 58.2761C23.5513 58.2579 23.7775 58.3596 23.9185 58.5459L32.6079 70.0224C32.7186 70.1687 32.7662 70.3533 32.7399 70.5349L30.2087 88Z"/>
<path d="M28.2061 63.7477L24.4899 58.2679C24.1303 57.7377 24.3705 57.0106 24.9753 56.7989C25.2967 56.6864 25.6534 56.7496 25.9167 56.9655L33.124 62.8771L29.8728 64.2426C29.2703 64.4956 28.5729 64.2886 28.2061 63.7477Z"/>
<path d="M29.3395 55.7314L29.0387 56.3878C28.7705 56.9729 28.9452 57.6657 29.4586 58.0538L35.1493 62.3549C35.6278 62.7166 36.2858 62.7255 36.7739 62.3768L42.8346 58.0478C43.3696 57.6656 43.5583 56.9575 43.2843 56.3598L42.9963 55.7314C42.8771 55.4714 42.8422 55.1806 42.8964 54.8998L43.4413 52.0761C43.6047 51.2297 42.9562 50.4442 42.0943 50.4442H30.2416C29.3796 50.4442 28.7312 51.2297 28.8945 52.0761L29.4394 54.8998C29.4936 55.1806 29.4587 55.4714 29.3395 55.7314Z"/>
<path d="M24.8925 32.1552V25.6641C24.8925 24.9064 25.5068 24.2922 26.2644 24.2922H45.4711C46.2287 24.2922 46.8429 24.9064 46.8429 25.6641V32.1552C46.8429 33.0689 47.7193 33.7273 48.5968 33.4729L51.0054 32.7747C51.883 32.5204 52.7593 33.1788 52.7593 34.0924V36.119C52.7593 36.7315 52.3532 37.2698 51.7643 37.4381L50.153 37.8984C49.5641 38.0667 49.155 38.5997 49.0967 39.2094C48.7897 42.4226 46.9455 52.0732 35.8677 52.0732C24.79 52.0732 22.9458 42.4226 22.6388 39.2094C22.5805 38.5997 22.1714 38.0667 21.5824 37.8984L19.9712 37.4381C19.3823 37.2698 18.9762 36.7315 18.9762 36.119V34.0924C18.9762 33.1788 19.8525 32.5204 20.7301 32.7747L23.1387 33.4729C24.0162 33.7273 24.8925 33.0689 24.8925 32.1552Z"/>
<path d="M53.4452 21.8057C53.4452 25.4046 45.8059 28.3222 36.3822 28.3222C26.9586 28.3222 19.3192 25.4046 19.3192 21.8057C19.3192 18.2067 26.9586 15.2891 36.3822 15.2891C45.8059 15.2891 53.4452 18.2067 53.4452 21.8057Z"/>
<path d="M56.875 17.2614C56.875 23.086 47.5081 21.2913 35.9535 21.2913C24.3989 21.2913 15.032 23.086 15.032 17.2614C15.032 11.4367 24.3989 5 35.9535 5C47.5081 5 56.875 11.4367 56.875 17.2614Z"/>
<path d="M7.07977 65.6745C6.54678 65.1359 6.55126 64.2673 7.08977 63.7343L9.83973 61.0126C10.3782 60.4796 11.2469 60.4841 11.7799 61.0226L12.383 61.632C12.916 62.1705 12.9115 63.0391 12.373 63.5721L9.62307 66.2939C9.08455 66.8269 8.21593 66.8224 7.68294 66.2839L7.07977 65.6745Z"/>
<path d="M18.6332 78.911C18.6332 78.5322 18.9404 78.2251 19.3192 78.2251H24.5602C24.9391 78.2251 25.2462 78.5322 25.2462 78.911V81.1404C25.2462 81.5192 24.9391 81.8263 24.5602 81.8263H19.3192C18.9404 81.8263 18.6332 81.5192 18.6332 81.1404V78.911Z"/>
<path d="M35.9535 65.8781L33.5527 67.0785L34.4102 68.5361H37.4969L38.3544 67.0785L35.9535 65.8781Z"/>
<path d="M35.1818 71.1942L33.0382 88H39.0403L36.9824 71.1942H35.1818Z"/>
<path d="M41.9556 88H65.2779C66.3197 88 67.1642 87.1555 67.1642 86.1136V70.3331C67.1642 64.334 62.5488 59.3446 56.5678 58.8782L48.8459 58.2761C48.613 58.2579 48.3868 58.3596 48.2457 58.5459L39.5563 70.0224C39.4456 70.1687 39.3981 70.3533 39.4244 70.5349L41.9556 88Z"/>
<path d="M43.9581 63.7477L47.6743 58.2679C48.0339 57.7377 47.7937 57.0106 47.1889 56.7989C46.8676 56.6864 46.5108 56.7496 46.2475 56.9655L39.0403 62.8771L42.2914 64.2426C42.894 64.4956 43.5913 64.2886 43.9581 63.7477Z"/>
<path d="M65.0846 65.6745C65.6176 65.1359 65.6131 64.2673 65.0746 63.7343L62.3246 61.0126C61.7861 60.4796 60.9175 60.4841 60.3845 61.0226L59.7813 61.632C59.2483 62.1705 59.2528 63.0391 59.7913 63.5721L62.5413 66.2939C63.0798 66.8269 63.9484 66.8224 64.4814 66.2839L65.0846 65.6745Z"/>
<path d="M53.531 78.911C53.531 78.5322 53.2239 78.2251 52.845 78.2251H47.604C47.2252 78.2251 46.9181 78.5322 46.9181 78.911V81.1404C46.9181 81.5192 47.2252 81.8263 47.604 81.8263H52.845C53.2239 81.8263 53.531 81.5192 53.531 81.1404V78.911Z"/>
</mask>
<path d="M21.0341 26.9505C21.0341 26.761 21.1876 26.6075 21.3771 26.6075H50.3585C50.5479 26.6075 50.7014 26.761 50.7014 26.9505V31.5806C50.7014 31.7701 50.5479 31.9236 50.3585 31.9236H21.3771C21.1876 31.9236 21.0341 31.7701 21.0341 31.5806V26.9505Z" fill="#F29900"/>
<path d="M30.2087 88H6.88636C5.84455 88 5 87.1555 5 86.1136V70.3331C5 64.334 9.61543 59.3446 15.5964 58.8782L23.3183 58.2761C23.5513 58.2579 23.7775 58.3596 23.9185 58.5459L32.6079 70.0224C32.7186 70.1687 32.7662 70.3533 32.7399 70.5349L30.2087 88Z" fill="#2D5872"/>
<path d="M28.2061 63.7477L24.4899 58.2679C24.1303 57.7377 24.3705 57.0106 24.9753 56.7989C25.2967 56.6864 25.6534 56.7496 25.9167 56.9655L33.124 62.8771L29.8728 64.2426C29.2703 64.4956 28.5729 64.2886 28.2061 63.7477Z" fill="#1D4559"/>
<path d="M29.3395 55.7314L29.0387 56.3878C28.7705 56.9729 28.9452 57.6657 29.4586 58.0538L35.1493 62.3549C35.6278 62.7166 36.2858 62.7255 36.7739 62.3768L42.8346 58.0478C43.3696 57.6656 43.5583 56.9575 43.2843 56.3598L42.9963 55.7314C42.8771 55.4714 42.8422 55.1806 42.8964 54.8998L43.4413 52.0761C43.6047 51.2297 42.9562 50.4442 42.0943 50.4442H30.2416C29.3796 50.4442 28.7312 51.2297 28.8945 52.0761L29.4394 54.8998C29.4936 55.1806 29.4587 55.4714 29.3395 55.7314Z" fill="#FFE7CF"/>
<path d="M24.8925 32.1552V25.6641C24.8925 24.9064 25.5068 24.2922 26.2644 24.2922H45.4711C46.2287 24.2922 46.8429 24.9064 46.8429 25.6641V32.1552C46.8429 33.0689 47.7193 33.7273 48.5968 33.4729L51.0054 32.7747C51.883 32.5204 52.7593 33.1788 52.7593 34.0924V36.119C52.7593 36.7315 52.3532 37.2698 51.7643 37.4381L50.153 37.8984C49.5641 38.0667 49.155 38.5997 49.0967 39.2094C48.7897 42.4226 46.9455 52.0732 35.8677 52.0732C24.79 52.0732 22.9458 42.4226 22.6388 39.2094C22.5805 38.5997 22.1714 38.0667 21.5824 37.8984L19.9712 37.4381C19.3823 37.2698 18.9762 36.7315 18.9762 36.119V34.0924C18.9762 33.1788 19.8525 32.5204 20.7301 32.7747L23.1387 33.4729C24.0162 33.7273 24.8925 33.0689 24.8925 32.1552Z" fill="#FFE7CF"/>
<path d="M53.4452 21.8057C53.4452 25.4046 45.8059 28.3222 36.3822 28.3222C26.9586 28.3222 19.3192 25.4046 19.3192 21.8057C19.3192 18.2067 26.9586 15.2891 36.3822 15.2891C45.8059 15.2891 53.4452 18.2067 53.4452 21.8057Z" fill="#183C53"/>
<path d="M56.875 17.2614C56.875 23.086 47.5081 21.2913 35.9535 21.2913C24.3989 21.2913 15.032 23.086 15.032 17.2614C15.032 11.4367 24.3989 5 35.9535 5C47.5081 5 56.875 11.4367 56.875 17.2614Z" fill="#2D5872"/>
<path d="M7.07977 65.6745C6.54678 65.1359 6.55126 64.2673 7.08977 63.7343L9.83973 61.0126C10.3782 60.4796 11.2469 60.4841 11.7799 61.0226L12.383 61.632C12.916 62.1705 12.9115 63.0391 12.373 63.5721L9.62307 66.2939C9.08455 66.8269 8.21593 66.8224 7.68294 66.2839L7.07977 65.6745Z" fill="#FFBF14"/>
<path d="M18.6332 78.911C18.6332 78.5322 18.9404 78.2251 19.3192 78.2251H24.5602C24.9391 78.2251 25.2462 78.5322 25.2462 78.911V81.1404C25.2462 81.5192 24.9391 81.8263 24.5602 81.8263H19.3192C18.9404 81.8263 18.6332 81.5192 18.6332 81.1404V78.911Z" fill="#1D4559"/>
<path d="M35.9535 65.8781L33.5527 67.0785L34.4102 68.5361H37.4969L38.3544 67.0785L35.9535 65.8781Z" fill="#282C3A"/>
<path d="M35.1818 71.1942L33.0382 88H39.0403L36.9824 71.1942H35.1818Z" fill="#282C3A"/>
<path d="M41.9556 88H65.2779C66.3197 88 67.1642 87.1555 67.1642 86.1136V70.3331C67.1642 64.334 62.5488 59.3446 56.5678 58.8782L48.8459 58.2761C48.613 58.2579 48.3868 58.3596 48.2457 58.5459L39.5563 70.0224C39.4456 70.1687 39.3981 70.3533 39.4244 70.5349L41.9556 88Z" fill="#2D5872"/>
<path d="M43.9581 63.7477L47.6743 58.2679C48.0339 57.7377 47.7937 57.0106 47.1889 56.7989C46.8676 56.6864 46.5108 56.7496 46.2475 56.9655L39.0403 62.8771L42.2914 64.2426C42.894 64.4956 43.5913 64.2886 43.9581 63.7477Z" fill="#1D4559"/>
<path d="M65.0846 65.6745C65.6176 65.1359 65.6131 64.2673 65.0746 63.7343L62.3246 61.0126C61.7861 60.4796 60.9175 60.4841 60.3845 61.0226L59.7813 61.632C59.2483 62.1705 59.2528 63.0391 59.7913 63.5721L62.5413 66.2939C63.0798 66.8269 63.9484 66.8224 64.4814 66.2839L65.0846 65.6745Z" fill="#FFBF14"/>
<path d="M53.531 78.911C53.531 78.5322 53.2239 78.2251 52.845 78.2251H47.604C47.2252 78.2251 46.9181 78.5322 46.9181 78.911V81.1404C46.9181 81.5192 47.2252 81.8263 47.604 81.8263H52.845C53.2239 81.8263 53.531 81.5192 53.531 81.1404V78.911Z" fill="#1D4559"/>
<path d="M30.2087 88V93H34.5363L35.157 88.7172L30.2087 88ZM32.7399 70.5349L37.6882 71.252V71.252L32.7399 70.5349ZM32.6079 70.0224L36.5942 67.0042L36.5942 67.0042L32.6079 70.0224ZM23.9185 58.5459L27.9048 55.5277H27.9048L23.9185 58.5459ZM23.3183 58.2761L22.9296 53.2912L23.3183 58.2761ZM15.5964 58.8782L15.9851 63.8631H15.9851L15.5964 58.8782ZM24.4899 58.2679L28.6281 55.4616L24.4899 58.2679ZM28.2061 63.7477L32.3443 60.9414L28.2061 63.7477ZM29.8728 64.2426L27.9366 59.6327L29.8728 64.2426ZM33.124 62.8771L35.0601 67.487L42.7108 64.2737L36.2949 59.0112L33.124 62.8771ZM25.9167 56.9655L29.0876 53.0996L25.9167 56.9655ZM24.9753 56.7989L26.627 61.5182L24.9753 56.7989ZM29.0387 56.3878L33.584 58.471L33.584 58.471L29.0387 56.3878ZM29.3395 55.7314L24.7942 53.6481L24.7942 53.6481L29.3395 55.7314ZM29.4394 54.8998L34.3489 53.9524L29.4394 54.8998ZM28.8945 52.0761L23.9851 53.0235V53.0235L28.8945 52.0761ZM43.2843 56.3598L47.8297 54.2765L47.8297 54.2765L43.2843 56.3598ZM42.9963 55.7314L47.5416 53.6481L42.9963 55.7314ZM42.8964 54.8998L47.8058 55.8472L42.8964 54.8998ZM43.4413 52.0761L38.5319 51.1286L43.4413 52.0761ZM29.4586 58.0538L26.4438 62.0427H26.4438L29.4586 58.0538ZM35.1493 62.3549L38.1641 58.3661V58.3661L35.1493 62.3549ZM36.7739 62.3768L39.6801 66.4455L36.7739 62.3768ZM42.8346 58.0478L45.7408 62.1164H45.7408L42.8346 58.0478ZM23.1387 33.4729L21.7467 38.2752L23.1387 33.4729ZM20.7301 32.7747L22.122 27.9724H22.122L20.7301 32.7747ZM19.9712 37.4381L18.5976 42.2457H18.5976L19.9712 37.4381ZM21.5824 37.8984L22.9561 33.0908L22.956 33.0908L21.5824 37.8984ZM22.6388 39.2094L27.6161 38.7339V38.7338L22.6388 39.2094ZM48.5968 33.4729L47.2048 28.6706L48.5968 33.4729ZM51.0054 32.7747L52.3974 37.5771L51.0054 32.7747ZM51.7643 37.4381L53.1379 42.2457H53.1379L51.7643 37.4381ZM50.153 37.8984L48.7794 33.0908L48.7794 33.0908L50.153 37.8984ZM49.0967 39.2094L44.1194 38.7338L49.0967 39.2094ZM9.62307 66.2939L6.10581 62.7402L6.10581 62.7402L9.62307 66.2939ZM7.68294 66.2839L4.12921 69.8011L4.12922 69.8011L7.68294 66.2839ZM12.383 61.632L15.9367 58.1147L15.9367 58.1147L12.383 61.632ZM12.373 63.5721L15.8903 67.1259L15.8903 67.1259L12.373 63.5721ZM9.83973 61.0126L6.32247 57.4589H6.32247L9.83973 61.0126ZM11.7799 61.0226L8.22615 64.5398L8.22615 64.5398L11.7799 61.0226ZM7.08977 63.7343L10.607 67.288H10.607L7.08977 63.7343ZM7.07977 65.6745L10.6335 62.1572L10.6335 62.1572L7.07977 65.6745ZM33.5527 67.0785L31.3167 62.6064C30.0777 63.2258 29.1513 64.3315 28.7582 65.6597C28.3652 66.9879 28.5407 68.4197 29.243 69.6136L33.5527 67.0785ZM35.9535 65.8781L38.1896 61.406C36.782 60.7021 35.1251 60.7021 33.7175 61.406L35.9535 65.8781ZM34.4102 68.5361L30.1005 71.0712C30.9988 72.5984 32.6383 73.5361 34.4102 73.5361V68.5361ZM38.3544 67.0785L42.664 69.6136C43.3663 68.4197 43.5419 66.9879 43.1488 65.6597C42.7558 64.3315 41.8294 63.2258 40.5904 62.6064L38.3544 67.0785ZM37.4969 68.5361V73.5361C39.2688 73.5361 40.9083 72.5984 41.8066 71.0712L37.4969 68.5361ZM33.0382 88L28.0784 87.3673L27.3599 93H33.0382V88ZM35.1818 71.1942V66.1942H30.779L30.222 70.5616L35.1818 71.1942ZM36.9824 71.1942L41.9453 70.5865L41.4075 66.1942H36.9824V71.1942ZM39.0403 88V93H44.6899L44.0032 87.3923L39.0403 88ZM41.9556 88L37.0072 88.7172L37.628 93H41.9556V88ZM39.4244 70.5349L34.4761 71.252L34.4761 71.252L39.4244 70.5349ZM39.5563 70.0224L35.5701 67.0042L35.57 67.0042L39.5563 70.0224ZM48.2457 58.5459L44.2594 55.5277L48.2457 58.5459ZM48.8459 58.2761L49.2347 53.2912L48.8459 58.2761ZM56.5678 58.8782L56.1791 63.8631L56.5678 58.8782ZM47.6743 58.2679L43.5361 55.4616L47.6743 58.2679ZM43.9581 63.7477L48.0963 66.5541L43.9581 63.7477ZM42.2914 64.2426L44.2276 59.6327H44.2276L42.2914 64.2426ZM39.0403 62.8771L35.8693 59.0112L29.4534 64.2737L37.1041 67.487L39.0403 62.8771ZM46.2475 56.9655L43.0766 53.0996L46.2475 56.9655ZM47.1889 56.7989L45.5372 61.5182L47.1889 56.7989ZM62.5413 66.2939L66.0585 62.7402V62.7402L62.5413 66.2939ZM64.4814 66.2839L68.0351 69.8011L64.4814 66.2839ZM59.7813 61.632L56.2276 58.1147L56.2276 58.1147L59.7813 61.632ZM59.7913 63.5721L56.2741 67.1259V67.1259L59.7913 63.5721ZM62.3246 61.0126L65.8419 57.4589L62.3246 61.0126ZM60.3845 61.0226L63.9382 64.5399L63.9382 64.5398L60.3845 61.0226ZM65.0746 63.7343L61.5573 67.288L65.0746 63.7343ZM65.0846 65.6745L61.5308 62.1572L65.0846 65.6745ZM21.3771 26.6075V31.6075H50.3585V26.6075V21.6075H21.3771V26.6075ZM50.7014 26.9505H45.7014V31.5806H50.7014H55.7014V26.9505H50.7014ZM50.3585 31.9236V26.9236H21.3771V31.9236V36.9236H50.3585V31.9236ZM21.0341 31.5806H26.0341V26.9505H21.0341H16.0341V31.5806H21.0341ZM21.3771 31.9236V26.9236C23.9491 26.9236 26.0341 29.0086 26.0341 31.5806H21.0341H16.0341C16.0341 34.5315 18.4262 36.9236 21.3771 36.9236V31.9236ZM50.7014 31.5806H45.7014C45.7014 29.0087 47.7864 26.9236 50.3585 26.9236V31.9236V36.9236C53.3094 36.9236 55.7014 34.5314 55.7014 31.5806H50.7014ZM50.3585 26.6075V31.6075C47.7864 31.6075 45.7014 29.5224 45.7014 26.9505H50.7014H55.7014C55.7014 23.9997 53.3094 21.6075 50.3585 21.6075V26.6075ZM21.3771 26.6075V21.6075C18.4262 21.6075 16.0341 23.9996 16.0341 26.9505H21.0341H26.0341C26.0341 29.5225 23.9491 31.6075 21.3771 31.6075V26.6075ZM6.88636 88V93H30.2087V88V83H6.88636V88ZM30.2087 88L35.157 88.7172L37.6882 71.252L32.7399 70.5349L27.7916 69.8177L25.2604 87.2829L30.2087 88ZM32.6079 70.0224L36.5942 67.0042L27.9048 55.5277L23.9185 58.5459L19.9322 61.5641L28.6216 73.0406L32.6079 70.0224ZM23.3183 58.2761L22.9296 53.2912L15.2077 53.8934L15.5964 58.8782L15.9851 63.8631L23.707 63.2609L23.3183 58.2761ZM5 70.3331H0V86.1136H5H10V70.3331H5ZM15.5964 58.8782L15.2077 53.8934C6.62395 54.5627 0 61.7233 0 70.3331H5H10C10 66.9447 12.6069 64.1265 15.9851 63.8631L15.5964 58.8782ZM23.9185 58.5459L27.9048 55.5277C26.7356 53.9835 24.8607 53.1406 22.9296 53.2912L23.3183 58.2761L23.707 63.2609C22.2418 63.3752 20.8193 62.7357 19.9322 61.5641L23.9185 58.5459ZM32.7399 70.5349L37.6882 71.252C37.9063 69.7468 37.5123 68.2169 36.5942 67.0042L32.6079 70.0224L28.6216 73.0406C27.925 72.1205 27.626 70.9598 27.7916 69.8177L32.7399 70.5349ZM6.88636 88V83C8.60597 83 10 84.394 10 86.1136H5H0C0 89.9169 3.08314 93 6.88636 93V88ZM24.4899 58.2679L20.3518 61.0743L24.0679 66.5541L28.2061 63.7477L32.3443 60.9414L28.6281 55.4616L24.4899 58.2679ZM29.8728 64.2426L31.809 68.8525L35.0601 67.487L33.124 62.8771L31.1878 58.2672L27.9366 59.6327L29.8728 64.2426ZM33.124 62.8771L36.2949 59.0112L29.0876 53.0996L25.9167 56.9655L22.7458 60.8314L29.9531 66.743L33.124 62.8771ZM25.9167 56.9655L29.0876 53.0996C27.4757 51.7774 25.2913 51.3909 23.3235 52.0796L24.9753 56.7989L26.627 61.5182C25.3021 61.9819 23.8312 61.7217 22.7458 60.8314L25.9167 56.9655ZM28.2061 63.7477L24.0679 66.5541C25.7715 69.0661 29.0105 70.0278 31.809 68.8525L29.8728 64.2426L27.9366 59.6327C29.53 58.9635 31.3743 59.511 32.3443 60.9414L28.2061 63.7477ZM24.4899 58.2679L28.6281 55.4616C30.1108 57.6479 29.1203 60.6455 26.627 61.5182L24.9753 56.7989L23.3235 52.0796C19.6207 53.3756 18.1499 57.8274 20.3518 61.0743L24.4899 58.2679ZM29.0387 56.3878L33.584 58.471L33.8849 57.8146L29.3395 55.7314L24.7942 53.6481L24.4934 54.3045L29.0387 56.3878ZM29.4394 54.8998L34.3489 53.9524L33.8039 51.1286L28.8945 52.0761L23.9851 53.0235L24.53 55.8472L29.4394 54.8998ZM43.2843 56.3598L47.8297 54.2765L47.5416 53.6481L42.9963 55.7314L38.451 57.8146L38.739 58.4431L43.2843 56.3598ZM42.8964 54.8998L47.8058 55.8472L48.3507 53.0235L43.4413 52.0761L38.5319 51.1286L37.987 53.9524L42.8964 54.8998ZM42.9963 55.7314L47.5416 53.6481C47.8568 54.3357 47.9491 55.1046 47.8058 55.8472L42.8964 54.8998L37.987 53.9524C37.7353 55.2567 37.8975 56.607 38.451 57.8146L42.9963 55.7314ZM29.4586 58.0538L26.4438 62.0427L32.1345 66.3438L35.1493 62.3549L38.1641 58.3661L32.4735 54.065L29.4586 58.0538ZM36.7739 62.3768L39.6801 66.4455L45.7408 62.1164L42.8346 58.0478L39.9284 53.9791L33.8677 58.3082L36.7739 62.3768ZM30.2416 50.4442V55.4442H42.0943V50.4442V45.4442H30.2416V50.4442ZM35.1493 62.3549L32.1345 66.3438C34.357 68.0236 37.4131 68.0648 39.6801 66.4455L36.7739 62.3768L33.8677 58.3082C35.1585 57.3862 36.8987 57.4096 38.1641 58.3661L35.1493 62.3549ZM43.2843 56.3598L38.739 58.4431C38.0145 56.8623 38.5134 54.9898 39.9284 53.9791L42.8346 58.0478L45.7408 62.1164C48.2259 60.3414 49.1021 57.0527 47.8297 54.2765L43.2843 56.3598ZM28.8945 52.0761L33.8039 51.1286C34.2359 53.3668 32.5211 55.4442 30.2416 55.4442V50.4442V45.4442C26.2381 45.4442 23.2265 49.0926 23.9851 53.0235L28.8945 52.0761ZM43.4413 52.0761L48.3507 53.0235C49.1093 49.0926 46.0977 45.4442 42.0943 45.4442V50.4442V55.4442C39.8148 55.4442 38.1 53.3668 38.5319 51.1286L43.4413 52.0761ZM29.3395 55.7314L33.8849 57.8146C34.4383 56.6071 34.6006 55.2567 34.3489 53.9524L29.4394 54.8998L24.53 55.8472C24.3867 55.1045 24.4791 54.3357 24.7942 53.6481L29.3395 55.7314ZM29.0387 56.3878L24.4934 54.3045C23.2478 57.0221 24.059 60.2402 26.4438 62.0427L29.4586 58.0538L32.4735 54.065C33.8314 55.0913 34.2932 56.9237 33.584 58.471L29.0387 56.3878ZM24.8925 25.6641H19.8925V32.1552H24.8925H29.8925V25.6641H24.8925ZM23.1387 33.4729L24.5307 28.6706L22.122 27.9724L20.7301 32.7747L19.3381 37.5771L21.7467 38.2752L23.1387 33.4729ZM18.9762 34.0924H13.9762V36.119H18.9762H23.9762V34.0924H18.9762ZM19.9712 37.4381L18.5976 42.2457L20.2088 42.706L21.5824 37.8984L22.956 33.0908L21.3448 32.6305L19.9712 37.4381ZM22.6388 39.2094L17.6614 39.685C17.8473 41.6297 18.5027 45.809 21.0594 49.6279C23.818 53.7484 28.5664 57.0732 35.8677 57.0732V52.0732V47.0732C32.0913 47.0732 30.3787 45.5728 29.369 44.0646C28.1574 42.2549 27.7373 40.0023 27.6161 38.7339L22.6388 39.2094ZM46.8429 25.6641H41.8429V32.1552H46.8429H51.8429V25.6641H46.8429ZM48.5968 33.4729L49.9888 38.2752L52.3974 37.5771L51.0054 32.7747L49.6135 27.9724L47.2048 28.6706L48.5968 33.4729ZM52.7593 34.0924H47.7593V36.119H52.7593H57.7593V34.0924H52.7593ZM51.7643 37.4381L50.3907 32.6305L48.7794 33.0908L50.153 37.8984L51.5266 42.706L53.1379 42.2457L51.7643 37.4381ZM49.0967 39.2094L44.1194 38.7338C43.9982 40.0023 43.5781 42.2549 42.3664 44.0646C41.3568 45.5728 39.6442 47.0732 35.8677 47.0732V52.0732V57.0732C43.1691 57.0732 47.9175 53.7484 50.6761 49.6279C53.2328 45.809 53.8882 41.6297 54.0741 39.685L49.0967 39.2094ZM26.2644 24.2922V29.2922H45.4711V24.2922V19.2922H26.2644V24.2922ZM50.153 37.8984L48.7794 33.0908C46.0418 33.873 44.3559 36.2588 44.1194 38.7338L49.0967 39.2094L54.0741 39.685C53.9541 40.9405 53.0864 42.2604 51.5266 42.706L50.153 37.8984ZM52.7593 36.119H47.7593C47.7593 34.4991 48.8331 33.0755 50.3907 32.6305L51.7643 37.4381L53.1379 42.2457C55.8733 41.4641 57.7593 38.9639 57.7593 36.119H52.7593ZM51.0054 32.7747L52.3974 37.5771C50.0767 38.2497 47.7593 36.5086 47.7593 34.0924H52.7593H57.7593C57.7593 29.8489 53.6892 26.791 49.6135 27.9724L51.0054 32.7747ZM46.8429 32.1552H41.8429C41.8429 36.3988 45.913 39.4566 49.9888 38.2752L48.5968 33.4729L47.2048 28.6706C49.5255 27.9979 51.8429 29.739 51.8429 32.1552H46.8429ZM46.8429 25.6641H51.8429C51.8429 22.145 48.9902 19.2922 45.4711 19.2922V24.2922V29.2922C43.4673 29.2922 41.8429 27.6679 41.8429 25.6641H46.8429ZM21.5824 37.8984L20.2088 42.706C18.6491 42.2604 17.7814 40.9405 17.6614 39.685L22.6388 39.2094L27.6161 38.7338C27.3796 36.2588 25.6937 33.873 22.9561 33.0908L21.5824 37.8984ZM18.9762 36.119H13.9762C13.9762 38.9639 15.8621 41.4641 18.5976 42.2457L19.9712 37.4381L21.3448 32.6305C22.9024 33.0755 23.9762 34.4991 23.9762 36.119H18.9762ZM20.7301 32.7747L22.122 27.9724C18.0463 26.791 13.9762 29.8489 13.9762 34.0924H18.9762H23.9762C23.9762 36.5086 21.6588 38.2497 19.3381 37.5771L20.7301 32.7747ZM24.8925 32.1552H19.8925C19.8925 29.739 22.21 27.9979 24.5307 28.6706L23.1387 33.4729L21.7467 38.2752C25.8225 39.4566 29.8925 36.3988 29.8925 32.1552H24.8925ZM24.8925 25.6641H29.8925C29.8925 27.6679 28.2682 29.2922 26.2644 29.2922V24.2922V19.2922C22.7453 19.2922 19.8925 22.145 19.8925 25.6641H24.8925ZM53.4452 21.8057H48.4452C48.4452 20.7982 48.9988 20.4097 48.7535 20.6311C48.5087 20.8522 47.8738 21.2805 46.6637 21.7426C44.2779 22.6537 40.6443 23.3222 36.3822 23.3222V28.3222V33.3222C41.5438 33.3222 46.4416 32.5319 50.2315 31.0845C52.1092 30.3674 53.9731 29.3915 55.4552 28.0532C56.9368 26.7154 58.4452 24.6126 58.4452 21.8057H53.4452ZM36.3822 28.3222V23.3222C32.1201 23.3222 28.4865 22.6537 26.1007 21.7426C24.8907 21.2805 24.2557 20.8522 24.0109 20.6311C23.7657 20.4097 24.3192 20.7982 24.3192 21.8057H19.3192H14.3192C14.3192 24.6126 15.8277 26.7154 17.3093 28.0532C18.7913 29.3915 20.6552 30.3674 22.533 31.0845C26.3228 32.5319 31.2206 33.3222 36.3822 33.3222V28.3222ZM19.3192 21.8057H24.3192C24.3192 22.8131 23.7657 23.2016 24.0109 22.9802C24.2557 22.7591 24.8907 22.3309 26.1007 21.8687C28.4865 20.9576 32.1201 20.2891 36.3822 20.2891V15.2891V10.2891C31.2206 10.2891 26.3228 11.0795 22.533 12.5268C20.6552 13.244 18.7913 14.2199 17.3093 15.5581C15.8277 16.8959 14.3192 18.9987 14.3192 21.8057H19.3192ZM36.3822 15.2891V20.2891C40.6443 20.2891 44.2779 20.9576 46.6637 21.8687C47.8738 22.3309 48.5087 22.7591 48.7535 22.9802C48.9988 23.2016 48.4452 22.8131 48.4452 21.8057H53.4452H58.4452C58.4452 18.9987 56.9368 16.8959 55.4552 15.5581C53.9731 14.2199 52.1092 13.244 50.2315 12.5268C46.4416 11.0795 41.5438 10.2891 36.3822 10.2891V15.2891ZM56.875 17.2614H51.875C51.875 17.3072 51.8707 17.0587 52.0656 16.7033C52.2652 16.3391 52.5178 16.147 52.6123 16.0889C52.619 16.0847 52.0972 16.3474 50.3792 16.4742C48.7827 16.592 46.7761 16.561 44.2513 16.4831C41.8109 16.4078 38.9428 16.2913 35.9535 16.2913V21.2913V26.2913C38.7415 26.2913 41.3772 26.3992 43.9429 26.4784C46.4242 26.5549 48.9257 26.6086 51.1152 26.447C53.1833 26.2944 55.7254 25.9136 57.8494 24.6078C59.0027 23.8988 60.0773 22.8913 60.8343 21.5104C61.5866 20.1382 61.875 18.6717 61.875 17.2614H56.875ZM35.9535 21.2913V16.2913C32.9642 16.2913 30.0961 16.4078 27.6557 16.4831C25.131 16.561 23.1243 16.592 21.5278 16.4742C19.8098 16.3474 19.288 16.0847 19.2947 16.0889C19.3892 16.147 19.6418 16.3391 19.8415 16.7033C20.0363 17.0587 20.032 17.3072 20.032 17.2614H15.032H10.032C10.032 18.6717 10.3204 20.1382 11.0727 21.5104C11.8297 22.8913 12.9044 23.8988 14.0576 24.6078C16.1816 25.9136 18.7237 26.2944 20.7918 26.447C22.9813 26.6086 25.4829 26.5549 27.9642 26.4784C30.5298 26.3992 33.1655 26.2913 35.9535 26.2913V21.2913ZM15.032 17.2614H20.032C20.032 16.9624 20.5278 15.2126 23.7863 13.201C26.7485 11.3723 31.0626 10 35.9535 10V5V0C29.2898 0 23.1431 1.84603 18.5333 4.69185C14.2197 7.3548 10.032 11.7357 10.032 17.2614H15.032ZM35.9535 5V10C40.8444 10 45.1585 11.3723 48.1207 13.201C51.3792 15.2126 51.875 16.9624 51.875 17.2614H56.875H61.875C61.875 11.7357 57.6874 7.3548 53.3737 4.69185C48.7639 1.84603 42.6172 0 35.9535 0V5ZM7.08977 63.7343L10.607 67.288L13.357 64.5663L9.83973 61.0126L6.32247 57.4589L3.57251 60.1806L7.08977 63.7343ZM11.7799 61.0226L8.22615 64.5398L8.82932 65.1493L12.383 61.632L15.9367 58.1147L15.3336 57.5053L11.7799 61.0226ZM12.373 63.5721L8.85577 60.0184L6.10581 62.7402L9.62307 66.2939L13.1403 69.8476L15.8903 67.1259L12.373 63.5721ZM7.68294 66.2839L11.2367 62.7666L10.6335 62.1572L7.07977 65.6745L3.52605 69.1917L4.12921 69.8011L7.68294 66.2839ZM9.62307 66.2939L6.10581 62.7402C7.52995 61.3306 9.82711 61.3425 11.2367 62.7666L7.68294 66.2839L4.12922 69.8011C6.60474 72.3023 10.6392 72.3231 13.1403 69.8476L9.62307 66.2939ZM12.383 61.632L8.82931 65.1493C7.41977 63.7251 7.43162 61.428 8.85577 60.0184L12.373 63.5721L15.8903 67.1259C18.3915 64.6503 18.4123 60.6159 15.9367 58.1147L12.383 61.632ZM9.83973 61.0126L13.357 64.5663C11.9328 65.9758 9.63567 65.964 8.22615 64.5398L11.7799 61.0226L15.3336 57.5053C12.8581 55.0042 8.82366 54.9833 6.32247 57.4589L9.83973 61.0126ZM7.08977 63.7343L3.57252 60.1806C1.07134 62.6561 1.05053 66.6905 3.52605 69.1917L7.07977 65.6745L10.6335 62.1572C12.043 63.5813 12.0312 65.8785 10.607 67.288L7.08977 63.7343ZM19.3192 78.2251V83.2251H24.5602V78.2251V73.2251H19.3192V78.2251ZM25.2462 78.911H20.2462V81.1404H25.2462H30.2462V78.911H25.2462ZM24.5602 81.8263V76.8263H19.3192V81.8263V86.8263H24.5602V81.8263ZM18.6332 81.1404H23.6332V78.911H18.6332H13.6332V81.1404H18.6332ZM19.3192 81.8263V76.8263C21.7018 76.8263 23.6332 78.7578 23.6332 81.1404H18.6332H13.6332C13.6332 84.2806 16.1789 86.8263 19.3192 86.8263V81.8263ZM25.2462 81.1404H20.2462C20.2462 78.7578 22.1776 76.8263 24.5602 76.8263V81.8263V86.8263C27.7005 86.8263 30.2462 84.2806 30.2462 81.1404H25.2462ZM24.5602 78.2251V83.2251C22.1776 83.2251 20.2462 81.2936 20.2462 78.911H25.2462H30.2462C30.2462 75.7708 27.7005 73.2251 24.5602 73.2251V78.2251ZM19.3192 78.2251V73.2251C16.1789 73.2251 13.6332 75.7708 13.6332 78.911H18.6332H23.6332C23.6332 81.2936 21.7018 83.2251 19.3192 83.2251V78.2251ZM33.5527 67.0785L35.7888 71.5506L38.1896 70.3502L35.9535 65.8781L33.7175 61.406L31.3167 62.6064L33.5527 67.0785ZM33.5527 67.0785L29.243 69.6136L30.1005 71.0712L34.4102 68.5361L38.7198 66.001L37.8624 64.5434L33.5527 67.0785ZM38.3544 67.0785L40.5904 62.6064L38.1896 61.406L35.9535 65.8781L33.7175 70.3502L36.1183 71.5506L38.3544 67.0785ZM38.3544 67.0785L34.0447 64.5434L33.1873 66.001L37.4969 68.5361L41.8066 71.0712L42.664 69.6136L38.3544 67.0785ZM33.0382 88L37.998 88.6326L40.1416 71.8268L35.1818 71.1942L30.222 70.5616L28.0784 87.3673L33.0382 88ZM35.1818 71.1942V76.1942H36.9824V71.1942V66.1942H35.1818V71.1942ZM36.9824 71.1942L32.0195 71.8019L34.0773 88.6077L39.0403 88L44.0032 87.3923L41.9453 70.5865L36.9824 71.1942ZM39.0403 88V83H33.0382V88V93H39.0403V88ZM65.2779 88V83H41.9556V88V93H65.2779V88ZM41.9556 88L46.9039 87.2829L44.3727 69.8177L39.4244 70.5349L34.4761 71.252L37.0072 88.7172L41.9556 88ZM39.5563 70.0224L43.5426 73.0406L52.232 61.5641L48.2457 58.5459L44.2594 55.5277L35.5701 67.0042L39.5563 70.0224ZM48.8459 58.2761L48.4572 63.2609L56.1791 63.8631L56.5678 58.8782L56.9566 53.8934L49.2347 53.2912L48.8459 58.2761ZM67.1642 70.3331H62.1642V86.1136H67.1642H72.1642V70.3331H67.1642ZM56.5678 58.8782L56.1791 63.8631C59.5573 64.1265 62.1642 66.9447 62.1642 70.3331H67.1642H72.1642C72.1642 61.7233 65.5403 54.5627 56.9566 53.8934L56.5678 58.8782ZM48.2457 58.5459L52.232 61.5641C51.3449 62.7357 49.9224 63.3752 48.4572 63.2609L48.8459 58.2761L49.2347 53.2912C47.3035 53.1406 45.4286 53.9835 44.2594 55.5277L48.2457 58.5459ZM39.4244 70.5349L44.3727 69.8177C44.5382 70.9598 44.2393 72.1205 43.5426 73.0406L39.5563 70.0224L35.57 67.0042C34.6519 68.2169 34.2579 69.7468 34.4761 71.252L39.4244 70.5349ZM65.2779 88V93C69.0811 93 72.1642 89.9169 72.1642 86.1136H67.1642H62.1642C62.1642 84.394 63.5583 83 65.2779 83V88ZM47.6743 58.2679L43.5361 55.4616L39.82 60.9414L43.9581 63.7477L48.0963 66.5541L51.8125 61.0743L47.6743 58.2679ZM42.2914 64.2426L44.2276 59.6327L40.9764 58.2672L39.0403 62.8771L37.1041 67.487L40.3553 68.8525L42.2914 64.2426ZM39.0403 62.8771L42.2112 66.743L49.4185 60.8314L46.2475 56.9655L43.0766 53.0996L35.8693 59.0112L39.0403 62.8771ZM46.2475 56.9655L49.4185 60.8314C48.333 61.7217 46.8622 61.9819 45.5372 61.5182L47.1889 56.7989L48.8407 52.0796C46.873 51.3909 44.6886 51.7774 43.0766 53.0996L46.2475 56.9655ZM43.9581 63.7477L39.82 60.9414C40.79 59.511 42.6342 58.9635 44.2276 59.6327L42.2914 64.2426L40.3553 68.8525C43.1537 70.0278 46.3927 69.0661 48.0963 66.5541L43.9581 63.7477ZM47.6743 58.2679L51.8125 61.0743C54.0144 57.8274 52.5435 53.3756 48.8407 52.0796L47.1889 56.7989L45.5372 61.5182C43.0439 60.6455 42.0535 57.6479 43.5361 55.4616L47.6743 58.2679ZM65.0746 63.7343L68.5918 60.1806L65.8419 57.4589L62.3246 61.0126L58.8074 64.5663L61.5573 67.288L65.0746 63.7343ZM60.3845 61.0226L56.8308 57.5053L56.2276 58.1147L59.7813 61.632L63.335 65.1493L63.9382 64.5399L60.3845 61.0226ZM59.7913 63.5721L56.2741 67.1259L59.024 69.8476L62.5413 66.2939L66.0585 62.7402L63.3086 60.0184L59.7913 63.5721ZM64.4814 66.2839L68.0351 69.8011L68.6383 69.1917L65.0846 65.6745L61.5308 62.1572L60.9277 62.7666L64.4814 66.2839ZM62.5413 66.2939L59.024 69.8476C61.5252 72.3231 65.5596 72.3023 68.0351 69.8011L64.4814 66.2839L60.9277 62.7666C62.3372 61.3425 64.6344 61.3306 66.0585 62.7402L62.5413 66.2939ZM59.7813 61.632L56.2276 58.1147C53.7521 60.6159 53.7729 64.6503 56.2741 67.1259L59.7913 63.5721L63.3086 60.0184C64.7327 61.4279 64.7446 63.7251 63.335 65.1493L59.7813 61.632ZM62.3246 61.0126L65.8419 57.4589C63.3407 54.9833 59.3063 55.0042 56.8308 57.5053L60.3845 61.0226L63.9382 64.5398C62.5287 65.964 60.2315 65.9758 58.8074 64.5663L62.3246 61.0126ZM65.0746 63.7343L61.5573 67.288C60.1332 65.8785 60.1213 63.5813 61.5308 62.1572L65.0846 65.6745L68.6383 69.1917C71.1138 66.6905 71.093 62.6561 68.5918 60.1806L65.0746 63.7343ZM52.845 78.2251V73.2251H47.604V78.2251V83.2251H52.845V78.2251ZM46.9181 78.911H41.9181V81.1404H46.9181H51.9181V78.911H46.9181ZM47.604 81.8263V86.8263H52.845V81.8263V76.8263H47.604V81.8263ZM53.531 81.1404H58.531V78.911H53.531H48.531V81.1404H53.531ZM52.845 81.8263V86.8263C55.9853 86.8263 58.531 84.2806 58.531 81.1404H53.531H48.531C48.531 78.7578 50.4625 76.8263 52.845 76.8263V81.8263ZM46.9181 81.1404H41.9181C41.9181 84.2806 44.4638 86.8263 47.604 86.8263V81.8263V76.8263C49.9866 76.8263 51.9181 78.7578 51.9181 81.1404H46.9181ZM47.604 78.2251V73.2251C44.4638 73.2251 41.9181 75.7708 41.9181 78.911H46.9181H51.9181C51.9181 81.2936 49.9866 83.2251 47.604 83.2251V78.2251ZM52.845 78.2251V83.2251C50.4625 83.2251 48.531 81.2936 48.531 78.911H53.531H58.531C58.531 75.7708 55.9853 73.2251 52.845 73.2251V78.2251ZM34.4102 68.5361V73.5361H37.4969V68.5361V63.5361H34.4102V68.5361Z" fill="white" mask="url(#path-1-outside-1_269_931)"/>
<rect x="20.0341" y="25.6075" width="31.6674" height="7.31612" rx="1.34298" fill="#F29900" stroke="black" stroke-width="2"/>
<path d="M23.4541 57.2762C23.8781 57.2969 24.2792 57.4769 24.5762 57.7801L24.7158 57.9422L33.4053 69.4188L33.5 69.5575C33.6748 69.8436 33.7599 70.1756 33.7451 70.5106L33.7295 70.6786L31.1983 88.1434L31.0742 88.9998H6.88673C5.29279 88.9998 4.00026 87.708 4.00002 86.1141V70.3329C4.00016 63.8118 9.01721 58.3887 15.5186 57.8817L23.2402 57.2791L23.4541 57.2762Z" fill="#2D5872" stroke="black" stroke-width="2"/>
<path d="M24.7682 55.816C25.3443 55.6557 25.9628 55.7655 26.4488 56.1139L26.5514 56.192L33.7584 62.1041C34.0293 62.3264 34.1643 62.6743 34.1139 63.0211C34.0633 63.3681 33.8346 63.6637 33.5113 63.7994L30.2603 65.1647C29.2836 65.5749 28.1623 65.2857 27.5035 64.4772L27.3785 64.3092L23.6627 58.8287C22.9348 57.7551 23.4208 56.2836 24.6451 55.8551L24.7682 55.816Z" fill="#1D4559" stroke="black" stroke-width="2"/>
<path d="M29.3395 55.439L29.0387 56.0954C28.7705 56.6805 28.9452 57.3734 29.4586 57.7615L35.1493 62.0626C35.6278 62.4243 36.2858 62.4331 36.7739 62.0845L42.8346 57.7554C43.3696 57.3733 43.5583 56.6652 43.2843 56.0675L42.9963 55.439C42.8771 55.179 42.8422 54.8883 42.8964 54.6075L43.4413 51.7837C43.6047 50.9374 42.9562 50.1519 42.0943 50.1519H30.2416C29.3796 50.1519 28.7312 50.9374 28.8945 51.7837L29.4394 54.6075C29.4936 54.8883 29.4587 55.179 29.3395 55.439Z" fill="#6C5C4D" stroke="black" stroke-width="2" stroke-linejoin="round"/>
<path d="M45.4713 23C46.7812 23.0002 47.8434 24.0622 47.8434 25.3721V31.8633C47.8435 32.1107 48.0803 32.2893 48.318 32.2207L50.7272 31.5225L50.8688 31.4854C52.337 31.1535 53.7592 32.2696 53.7594 33.7998V35.8271C53.7592 36.8198 53.1422 37.7001 52.2262 38.0459L52.0387 38.1074L50.4274 38.5674C50.2882 38.6073 50.1529 38.7367 50.1061 38.9268L50.0924 39.0127C49.9324 40.687 49.3707 44.0954 47.3522 47.1104C45.2931 50.1859 41.7591 52.7812 35.8678 52.7812C29.9765 52.7812 26.4425 50.1859 24.3834 47.1104C22.6173 44.4723 21.9665 41.5331 21.7242 39.7178L21.6432 39.0127C21.6234 38.8055 21.5033 38.6546 21.3668 38.5898L21.3073 38.5674L19.6969 38.1074C18.6788 37.8165 17.9764 36.886 17.9762 35.8271V33.7998C17.9764 32.2204 19.4914 31.0827 21.0084 31.5225L23.4166 32.2207L23.5055 32.2344C23.7104 32.2432 23.8921 32.08 23.8922 31.8633V25.3721C23.8922 24.0622 24.9544 23.0001 26.2643 23H45.4713Z" fill="#6C5C4D" stroke="black" stroke-width="2" stroke-linejoin="round"/>
<path d="M36.3827 14.2891C41.1843 14.2892 45.5765 15.0309 48.8046 16.2637C50.4149 16.8788 51.7872 17.6353 52.7743 18.5264C53.7614 19.4177 54.4452 20.5245 54.4452 21.8057C54.4452 23.0869 53.7613 24.1928 52.7743 25.084C51.7872 25.9754 50.4152 26.7326 48.8046 27.3477C45.5765 28.5806 41.1843 29.3223 36.3827 29.3223C31.5809 29.3223 27.188 28.5806 23.9598 27.3477C22.3493 26.7326 20.9772 25.9754 19.9901 25.084C19.0031 24.1928 18.3192 23.0869 18.3192 21.8057C18.3192 20.5245 19.003 19.4177 19.9901 18.5264C20.9772 17.6353 22.3495 16.8788 23.9598 16.2637C27.188 15.0309 31.5809 14.2891 36.3827 14.2891Z" fill="#183C53" stroke="black" stroke-width="2"/>
<path d="M35.9539 4C41.9083 4.00007 47.3216 5.65683 51.2723 8.0957C55.1638 10.4981 57.8748 13.8267 57.8748 17.2617C57.8748 18.1261 57.7003 18.9068 57.327 19.5879C56.9526 20.2706 56.4087 20.7981 55.7547 21.2002C54.483 21.982 52.749 22.3157 50.8211 22.458C48.8688 22.6021 46.5649 22.5576 44.0662 22.4805C41.5508 22.4028 38.8223 22.291 35.9539 22.291C33.0854 22.291 30.3562 22.4028 27.8406 22.4805C25.342 22.5576 23.038 22.6021 21.0858 22.458C19.1579 22.3157 17.4238 21.982 16.1522 21.2002C15.4982 20.7981 14.9542 20.2706 14.5799 19.5879C14.2065 18.9068 14.0321 18.1261 14.032 17.2617C14.032 13.8267 16.743 10.4981 20.6346 8.0957C24.5854 5.65673 29.9993 4 35.9539 4Z" fill="#2D5872" stroke="black" stroke-width="2"/>
<rect x="4.70052" y="64.6921" width="8.61293" height="5.60124" rx="2.3719" transform="rotate(-44.7046 4.70052 64.6921)" fill="#FFBF14" stroke="black" stroke-width="2"/>
<rect x="17.6333" y="77.2251" width="8.61293" height="5.60124" rx="1.68595" fill="#1D4559" stroke="black" stroke-width="2"/>
<path d="M35.7188 64.04C35.9326 63.9773 36.1625 63.9879 36.3711 64.0713L38.8711 65.0713L38.9648 65.1142C39.3838 65.3334 39.5922 65.8198 39.4619 66.2744L39.4287 66.3711L38.4287 68.8711C38.2768 69.2507 37.9089 69.5 37.5 69.5H34.5C34.1424 69.5 33.8164 69.3095 33.6387 69.0078L33.5713 68.8711L32.5713 66.3711C32.3664 65.8584 32.6162 65.2763 33.1289 65.0713L35.6289 64.0713L35.7188 64.04Z" fill="#282C3A" stroke="black" stroke-width="2" stroke-linejoin="round"/>
<path d="M37.8673 70.1942L37.9747 71.0731L40.0333 87.8788L40.17 88.9998H31.9025L32.046 87.8739L34.1896 71.0672L34.3009 70.1942H37.8673Z" fill="#282C3A" stroke="black" stroke-width="2"/>
<path d="M48.7101 57.2762C48.2862 57.2969 47.885 57.4769 47.5881 57.7801L47.4484 57.9422L38.759 69.4188L38.6642 69.5575C38.4895 69.8436 38.4044 70.1756 38.4191 70.5106L38.4348 70.6786L40.966 88.1434L41.09 88.9998H65.2775C66.8715 88.9998 68.164 87.708 68.1642 86.1141V70.3329C68.1641 63.8118 63.1471 58.3887 56.6457 57.8817L48.924 57.2791L48.7101 57.2762Z" fill="#2D5872" stroke="black" stroke-width="2"/>
<path d="M47.3961 55.816C46.82 55.6557 46.2015 55.7655 45.7154 56.1139L45.6129 56.192L38.4059 62.1041C38.135 62.3264 37.9999 62.6743 38.0504 63.0211C38.1009 63.3681 38.3297 63.6637 38.6529 63.7994L41.9039 65.1647C42.8807 65.5749 44.002 65.2857 44.6608 64.4772L44.7858 64.3092L48.5016 58.8287C49.2295 57.7551 48.7435 56.2836 47.5191 55.8551L47.3961 55.816Z" fill="#1D4559" stroke="black" stroke-width="2"/>
<rect x="1.41419" y="-0.0072915" width="8.61293" height="5.60124" rx="2.3719" transform="matrix(-0.710743 -0.703452 -0.703452 0.710743 68.4638 65.6921)" fill="#FFBF14" stroke="black" stroke-width="2"/>
<rect x="1" y="-1" width="8.61293" height="5.60124" rx="1.68595" transform="matrix(-1 0 0 1 55.531 78.2251)" fill="#1D4559" stroke="black" stroke-width="2"/>
</svg>
