<svg width="76" height="67" viewBox="0 0 76 67" fill="none" xmlns="http://www.w3.org/2000/svg">
<path d="M33.5469 3.99512C35.976 2.04249 39.6836 3.7513 39.6836 6.95801V60.3691C39.6835 63.5757 35.976 65.2844 33.5469 63.332L33.3164 63.1309L15.0635 46.0508H6.2832C4.19402 46.0508 2.5002 44.3577 2.5 42.2686V25.0586C2.50002 22.9693 4.1939 21.2754 6.2832 21.2754H15.0635L33.3164 4.19531L33.5469 3.99512Z" stroke="white" stroke-width="5"/>
<path d="M34.4805 5.16992C35.9464 3.99167 38.1836 5.02283 38.1836 6.95801V60.3691C38.1835 62.3042 35.9464 63.3352 34.4805 62.1572L34.3408 62.0361L15.7373 44.6279C15.6849 44.5789 15.6157 44.5508 15.5439 44.5508H6.2832C5.02245 44.5508 4.0002 43.5293 4 42.2686V25.0586C4.00002 23.7977 5.02233 22.7754 6.2832 22.7754H15.5439C15.6157 22.7754 15.6849 22.7481 15.7373 22.6992L34.3408 5.29102L34.4805 5.16992Z" fill="#E3934C" stroke="black" stroke-width="2"/>
<path d="M47.408 40.4491C48.4749 40.0484 49.4444 39.461 50.261 38.7205C51.0775 37.98 51.7253 37.1009 52.1672 36.1334C52.6092 35.1659 52.8366 34.129 52.8366 33.0818C52.8366 32.0346 52.6092 30.9976 52.1672 30.0301C51.7253 29.0626 51.0775 28.1835 50.261 27.443C49.4444 26.7025 48.4749 26.1151 47.408 25.7144" stroke="white" stroke-width="5" stroke-linecap="round"/>
<path d="M53.6121 48.2043C55.5173 47.3817 57.2485 46.176 58.7066 44.6561C60.1648 43.1361 61.3215 41.3316 62.1107 39.3457C62.8999 37.3598 63.306 35.2313 63.306 33.0818C63.306 30.9322 62.8999 28.8037 62.1107 26.8178C61.3215 24.8319 60.1648 23.0275 58.7066 21.5075C57.2485 19.9875 55.5173 18.7819 53.6121 17.9593" stroke="white" stroke-width="5" stroke-linecap="round"/>
<path d="M59.4285 55.1839C62.0958 53.9922 64.5194 52.2455 66.5609 50.0435C68.6023 47.8415 70.2217 45.2274 71.3265 42.3504C72.4314 39.4733 73 36.3897 73 33.2757C73 30.1616 72.4314 27.078 71.3265 24.201C70.2217 21.3239 68.6023 18.7098 66.5609 16.5078C64.5194 14.3058 62.0958 12.5591 59.4285 11.3674" stroke="white" stroke-width="5" stroke-linecap="round"/>
<path d="M47.408 40.4491C48.4749 40.0484 49.4444 39.461 50.261 38.7205C51.0775 37.98 51.7253 37.1009 52.1672 36.1334C52.6092 35.1659 52.8366 34.129 52.8366 33.0818C52.8366 32.0346 52.6092 30.9976 52.1672 30.0301C51.7253 29.0626 51.0775 28.1835 50.261 27.443C49.4444 26.7025 48.4749 26.1151 47.408 25.7144" stroke="black" stroke-width="2" stroke-linecap="round"/>
<path d="M53.6121 48.2043C55.5173 47.3817 57.2485 46.176 58.7066 44.6561C60.1648 43.1361 61.3215 41.3316 62.1107 39.3457C62.8999 37.3598 63.306 35.2313 63.306 33.0818C63.306 30.9322 62.8999 28.8037 62.1107 26.8178C61.3215 24.8319 60.1648 23.0275 58.7066 21.5075C57.2485 19.9875 55.5173 18.7819 53.6121 17.9593" stroke="black" stroke-width="2" stroke-linecap="round"/>
<path d="M59.4285 55.1839C62.0958 53.9922 64.5194 52.2455 66.5609 50.0435C68.6023 47.8415 70.2217 45.2274 71.3265 42.3504C72.4314 39.4733 73 36.3897 73 33.2757C73 30.1616 72.4314 27.078 71.3265 24.201C70.2217 21.3239 68.6023 18.7098 66.5609 16.5078C64.5194 14.3058 62.0958 12.5591 59.4285 11.3674" stroke="black" stroke-width="2" stroke-linecap="round"/>
</svg>
