<svg width="94" height="64" viewBox="0 0 94 64" fill="none" xmlns="http://www.w3.org/2000/svg">
<path d="M67.3174 3.06934C68.0542 2.46276 69.0798 2.32596 69.9561 2.73145C70.8903 3.16394 71.4641 4.12478 71.4014 5.15234L71.0684 10.5781L81.8848 8.67383L82.0752 8.64844C83.0254 8.55533 83.9536 9.01323 84.4551 9.83887C84.9899 10.7196 84.9292 11.8382 84.3027 12.6562L79.3887 19.0723L89.209 20.6787C90.2566 20.8501 91.0814 21.6647 91.2666 22.71C91.4518 23.7553 90.9564 24.8034 90.0312 25.3242L82.2451 29.708L89.9189 38.7061C90.5986 39.5034 90.7088 40.6405 90.1953 41.5537C89.7138 42.4097 88.7796 42.8988 87.8125 42.8193L87.6182 42.7959L73.0156 40.4424L75.3398 48.4883C75.6469 49.5515 75.2189 50.6901 74.2871 51.2871C73.3551 51.8841 72.1412 51.7969 71.3037 51.0732L53.2451 35.4697C52.6627 34.9665 52.3447 34.2228 52.3828 33.4541L53.1719 17.5869L53.1953 17.3496C53.2753 16.8022 53.5352 16.2945 53.9375 15.9082L67.1738 3.19629L67.3174 3.06934Z" fill="#FD8087" stroke="white" stroke-width="5" stroke-linejoin="round"/>
<g filter="url(#filter0_i_265_282)">
<path d="M51.5487 17.2727H10.6542C9.48539 17.2727 8.45682 18.0441 8.12955 19.1662L5.55677 27.9872C5.22737 29.1165 5.68808 30.3273 6.68494 30.952L8.60298 32.1539C10.3549 33.2518 11.1485 35.3912 10.5365 37.366L5.80082 52.6465C5.36224 54.0617 6.1786 55.5596 7.60555 55.958L15.8863 58.2702C17.3163 58.6695 18.7932 57.8065 19.1474 56.3646L24.2321 35.668C24.5209 34.4922 25.5752 33.6656 26.786 33.6656H51.5487C53.0011 33.6656 54.1786 32.4881 54.1786 31.0357V19.9026C54.1786 18.4501 53.0011 17.2727 51.5487 17.2727Z" fill="#999999"/>
</g>
<path d="M51.5488 14.7727C54.3819 14.7728 56.6787 17.0695 56.6787 19.9026V31.0354C56.6787 33.8685 54.3819 36.1652 51.5488 36.1653H26.7861C26.7411 36.1653 26.7002 36.1886 26.6768 36.2249L26.6602 36.2649L21.5752 56.9612C20.9058 59.6858 18.1812 61.3511 15.4756 60.7444L15.2139 60.678L6.93359 58.3655C4.15016 57.5883 2.5576 54.6669 3.41309 51.9065L8.14844 36.6262L8.19336 36.4583C8.36652 35.6717 8.06316 34.8538 7.41895 34.3704L7.27539 34.2727L5.35742 33.0706C3.41295 31.852 2.51472 29.4903 3.15723 27.2874L5.72949 18.4661L5.79297 18.2629C6.49319 16.1848 8.44559 14.7727 10.6543 14.7727H51.5488Z" stroke="white" stroke-width="5" stroke-linejoin="round"/>
<mask id="path-4-outside-1_265_282" maskUnits="userSpaceOnUse" x="37" y="7" width="17" height="13" fill="black">
<rect fill="white" x="37" y="7" width="17" height="13"/>
<path d="M49 15H43C43 15 43.0543 13.6065 43.5455 12.9677C44.0283 12.3398 45.2727 12 45.2727 12H49V15Z"/>
</mask>
<path d="M49 15H43C43 15 43.0543 13.6065 43.5455 12.9677C44.0283 12.3398 45.2727 12 45.2727 12H49V15Z" fill="#999999"/>
<path d="M43 15L38.0038 14.8053L37.8013 20H43V15ZM49 15V20H54V15H49ZM49 12H54C54 9.23858 51.7614 7 49 7V12ZM45.2727 12V7C44.8278 7 44.3848 7.0594 43.9555 7.17662L45.2727 12ZM43.5455 12.9677L47.5091 16.0156V16.0156L43.5455 12.9677ZM43 15V20H49V15V10H43V15ZM49 15H54V12H49H44V15H49ZM49 12V7H45.2727V12V17H49V12ZM45.2727 12C43.9555 7.17662 43.9547 7.17686 43.9538 7.1771C43.9535 7.17718 43.9526 7.17742 43.952 7.17759C43.9508 7.17792 43.9495 7.17826 43.9483 7.1786C43.9458 7.17929 43.9432 7.18001 43.9405 7.18075C43.9351 7.18223 43.9294 7.18382 43.9234 7.18551C43.9112 7.1889 43.8977 7.19272 43.8829 7.19697C43.8532 7.20545 43.8181 7.21571 43.7781 7.22774C43.6985 7.25169 43.5976 7.28326 43.4804 7.32256C43.2516 7.39934 42.9338 7.5146 42.5764 7.67184C42.0841 7.88848 40.6392 8.54471 39.5818 9.91989L43.5455 12.9677L47.5091 16.0156C47.1619 16.4671 46.8296 16.6881 46.747 16.7419C46.637 16.8135 46.5799 16.8355 46.6039 16.825C46.618 16.8188 46.6415 16.8098 46.661 16.8033C46.6681 16.8009 46.6682 16.801 46.6585 16.8039C46.6535 16.8054 46.6456 16.8078 46.6344 16.811C46.6288 16.8126 46.6223 16.8144 46.6149 16.8165C46.6112 16.8175 46.6073 16.8186 46.6031 16.8197C46.6011 16.8203 46.5989 16.8209 46.5967 16.8215C46.5956 16.8218 46.5945 16.8221 46.5934 16.8224C46.5928 16.8226 46.5919 16.8228 46.5916 16.8229C46.5908 16.8231 46.5899 16.8234 45.2727 12ZM43.5455 12.9677L39.5818 9.91989C38.5369 11.2788 38.2519 12.8559 38.1635 13.3611C38.0964 13.7443 38.0584 14.0803 38.0366 14.3202C38.0255 14.4429 38.018 14.5475 38.0129 14.6289C38.0104 14.6697 38.0084 14.7052 38.007 14.7347C38.0062 14.7494 38.0056 14.7627 38.0051 14.7745C38.0048 14.7804 38.0046 14.7859 38.0044 14.791C38.0043 14.7936 38.0042 14.7961 38.0041 14.7984C38.004 14.7996 38.004 14.8008 38.0039 14.8019C38.0039 14.8025 38.0039 14.8033 38.0039 14.8036C38.0038 14.8044 38.0038 14.8053 43 15C47.9962 15.1947 47.9962 15.1956 47.9961 15.1964C47.9961 15.1966 47.9961 15.1974 47.9961 15.198C47.996 15.199 47.996 15.2 47.996 15.2011C47.9959 15.2031 47.9958 15.205 47.9957 15.2069C47.9956 15.2107 47.9954 15.2142 47.9953 15.2174C47.995 15.2239 47.9947 15.2293 47.9945 15.2337C47.9941 15.2425 47.9938 15.2474 47.9937 15.2489C47.9935 15.2515 47.9941 15.2423 47.9957 15.2243C47.9994 15.183 48.0058 15.1307 48.0136 15.0856C48.0235 15.0294 48.0231 15.0568 47.9921 15.1488C47.9745 15.2011 47.8541 15.567 47.5091 16.0156L43.5455 12.9677Z" fill="white" mask="url(#path-4-outside-1_265_282)"/>
<mask id="path-6-outside-2_265_282" maskUnits="userSpaceOnUse" x="18" y="31" width="29" height="19" fill="black">
<rect fill="white" x="18" y="31" width="29" height="19"/>
<path d="M32.1526 42.1364H25.789L25 44.6786H33.7305L38.289 36H35.4838L32.1526 42.1364Z"/>
</mask>
<path d="M32.1526 42.1364H25.789L25 44.6786H33.7305L38.289 36H35.4838L32.1526 42.1364Z" fill="#737373"/>
<path d="M25.789 42.1364V37.1364H22.1054L21.0136 40.6544L25.789 42.1364ZM32.1526 42.1364V47.1364C33.9859 47.1364 35.6722 46.133 36.5469 44.5218L32.1526 42.1364ZM35.4838 36V31C33.6505 31 31.9642 32.0033 31.0895 33.6145L35.4838 36ZM38.289 36L42.7155 38.325L46.563 31H38.289V36ZM33.7305 44.6786V49.6786C35.5884 49.6786 37.2931 48.6484 38.157 47.0036L33.7305 44.6786ZM25 44.6786L20.2247 43.1966L18.213 49.6786H25V44.6786ZM25.789 42.1364V47.1364H32.1526V42.1364V37.1364H25.789V42.1364ZM32.1526 42.1364L36.5469 44.5218L39.878 38.3855L35.4838 36L31.0895 33.6145L27.7583 39.7509L32.1526 42.1364ZM35.4838 36V41H38.289V36V31H35.4838V36ZM38.289 36L33.8624 33.675L29.304 42.3535L33.7305 44.6786L38.157 47.0036L42.7155 38.325L38.289 36ZM33.7305 44.6786V39.6786H25V44.6786V49.6786H33.7305V44.6786ZM25 44.6786L29.7753 46.1606L30.5643 43.6184L25.789 42.1364L21.0136 40.6544L20.2247 43.1966L25 44.6786Z" fill="white" mask="url(#path-6-outside-2_265_282)"/>
<path d="M68.2128 4.27832C68.5099 3.99303 68.9523 3.91979 69.3261 4.09277C69.6529 4.24416 69.869 4.5571 69.9013 4.9082L69.9042 5.06152L69.455 12.3857L82.1445 10.1514C82.5504 10.0799 82.9588 10.2649 83.1728 10.6172C83.3867 10.9694 83.3627 11.4169 83.1122 11.7441L76.6757 20.1484L88.9667 22.1592C89.3857 22.2278 89.7159 22.5536 89.79 22.9717C89.864 23.3898 89.6658 23.8092 89.2958 24.0176L79.9218 29.2939L88.7773 39.6787L88.8681 39.8047C89.056 40.1104 89.0674 40.4987 88.8876 40.8184C88.6822 41.1834 88.271 41.3819 87.8574 41.3154L70.9179 38.5859L73.8994 48.9043C74.0221 49.3296 73.8502 49.7847 73.4775 50.0234C73.1047 50.2622 72.6191 50.2279 72.2841 49.9385L54.2255 34.335C53.9926 34.1337 53.8655 33.8358 53.8808 33.5283L54.6699 17.6611L54.6796 17.5664C54.7116 17.3475 54.8156 17.1447 54.9765 16.9902L68.2128 4.27832Z" fill="#FD8087" stroke="black" stroke-width="2" stroke-linejoin="round"/>
<g filter="url(#filter1_i_265_282)">
<path d="M66.0129 18.4998L56.8961 21.568V29.633L66.5389 31.8245L64.172 28.055L71.2727 24.8992L64.5227 22.2693L66.0129 18.4998Z" fill="#FFBA17"/>
</g>
<path d="M65.8336 17.5164C66.1623 17.4564 66.5033 17.5644 66.7379 17.8114C66.9722 18.0582 67.0626 18.4043 66.9859 18.7293L66.9429 18.867L65.8218 21.702L71.6353 23.9676C72.0114 24.1142 72.2626 24.4723 72.272 24.8758C72.2815 25.2793 72.048 25.6493 71.6793 25.8133L65.6324 28.4998L67.3863 31.2928C67.6011 31.6351 67.5888 32.0735 67.355 32.4032C67.1504 32.6917 66.811 32.8477 66.4654 32.8221L66.317 32.7997L56.6744 30.6082C56.2191 30.5048 55.8961 30.0996 55.8961 29.6327V21.5682C55.8961 21.1389 56.1699 20.757 56.5767 20.62L65.6939 17.5516L65.8336 17.5164Z" stroke="black" stroke-width="2" stroke-linejoin="round"/>
<g filter="url(#filter2_i_265_282)">
<path d="M51.5487 17.2727H10.6542C9.48539 17.2727 8.45682 18.0442 8.12955 19.1662L5.55677 27.9872C5.22737 29.1166 5.68808 30.3273 6.68494 30.952L8.60298 32.154C10.3549 33.2518 11.1485 35.3913 10.5365 37.3661L5.80082 52.6466C5.36224 54.0617 6.1786 55.5596 7.60555 55.9581L15.8863 58.2702C17.3163 58.6695 18.7932 57.8065 19.1474 56.3647L24.2321 35.668C24.5209 34.4922 25.5752 33.6656 26.786 33.6656H51.5487C53.0011 33.6656 54.1786 32.4882 54.1786 31.0357V19.9026C54.1786 18.4502 53.0011 17.2727 51.5487 17.2727Z" fill="#999999"/>
</g>
<path d="M51.5488 16.2727C53.5535 16.2728 55.1787 17.8979 55.1787 19.9026V31.0354C55.1787 33.0401 53.5535 34.6652 51.5488 34.6653H26.7861C26.0826 34.6653 25.4642 35.1159 25.2422 35.7727L25.2031 35.9065L20.1182 56.6028C19.6445 58.5308 17.7172 59.7088 15.8027 59.2796L15.6172 59.2337L7.33691 56.9212C5.36747 56.3713 4.24056 54.304 4.8457 52.3509L9.58105 37.0696L9.6582 36.7796C9.95737 35.4198 9.43306 34.0067 8.31934 33.1712L8.07227 33.0013L6.1543 31.7991C4.77842 30.9369 4.1421 29.2661 4.59668 27.7073L7.16992 18.886L7.26562 18.6018C7.79969 17.2087 9.14182 16.2727 10.6543 16.2727H51.5488Z" stroke="black" stroke-width="2" stroke-linejoin="round"/>
<path d="M5.87668 25.5131L54.2663 25.5131" stroke="black" stroke-width="2.27922" stroke-linejoin="round"/>
<mask id="path-14-outside-3_265_282" maskUnits="userSpaceOnUse" x="40" y="10" width="11" height="7" fill="black">
<rect fill="white" x="40" y="10" width="11" height="7"/>
<path d="M49 15H43C43 15 43.0543 13.6065 43.5455 12.9677C44.0283 12.3398 45.2727 12 45.2727 12H49V15Z"/>
</mask>
<path d="M49 15H43C43 15 43.0543 13.6065 43.5455 12.9677C44.0283 12.3398 45.2727 12 45.2727 12H49V15Z" fill="#999999"/>
<path d="M43 15L41.0015 14.9221L40.9205 17H43V15ZM49 15V17H51V15H49ZM49 12H51C51 10.8954 50.1046 10 49 10V12ZM45.2727 12V10C45.0947 10 44.9176 10.0238 44.7459 10.0706L45.2727 12ZM43.5455 12.9677L45.1309 14.1869H45.1309L43.5455 12.9677ZM43 15V17H49V15V13H43V15ZM49 15H51V12H49H47V15H49ZM49 12V10H45.2727V12V14H49V12ZM45.2727 12C44.7459 10.0706 44.7455 10.0707 44.7451 10.0708C44.745 10.0709 44.7446 10.071 44.7444 10.071C44.7439 10.0712 44.7434 10.0713 44.7428 10.0715C44.7417 10.0718 44.7405 10.0721 44.7393 10.0724C44.7368 10.0731 44.734 10.0739 44.7308 10.0748C44.7246 10.0766 44.717 10.0787 44.7083 10.0812C44.6909 10.0861 44.6687 10.0926 44.6422 10.1006C44.5894 10.1165 44.5187 10.1385 44.4346 10.1668C44.2685 10.2225 44.039 10.3058 43.7847 10.4178C43.3648 10.6025 42.5278 11.0102 41.96 11.7486L43.5455 12.9677L45.1309 14.1869C45.0645 14.2733 45.0325 14.2783 45.1102 14.2277C45.177 14.1843 45.2746 14.1323 45.3956 14.079C45.5127 14.0275 45.6245 13.9867 45.7069 13.9591C45.7469 13.9456 45.7773 13.9362 45.7944 13.9311C45.8029 13.9285 45.8079 13.9271 45.8089 13.9268C45.8095 13.9266 45.809 13.9268 45.8075 13.9272C45.8067 13.9274 45.8057 13.9277 45.8044 13.928C45.8037 13.9282 45.803 13.9284 45.8022 13.9286C45.8018 13.9288 45.8014 13.9289 45.8009 13.929C45.8007 13.929 45.8004 13.9291 45.8003 13.9292C45.7999 13.9293 45.7996 13.9294 45.2727 12ZM43.5455 12.9677L41.96 11.7486C41.3947 12.4838 41.1989 13.4195 41.1185 13.8785C41.0692 14.1602 41.0407 14.4111 41.0244 14.5915C41.0161 14.6827 41.0106 14.7587 41.0071 14.8149C41.0054 14.843 41.0041 14.8664 41.0032 14.8844C41.0028 14.8934 41.0024 14.9011 41.0021 14.9074C41.002 14.9106 41.0019 14.9134 41.0018 14.9158C41.0017 14.917 41.0017 14.9182 41.0016 14.9192C41.0016 14.9197 41.0016 14.9203 41.0016 14.9207C41.0016 14.921 41.0015 14.9213 41.0015 14.9214C41.0015 14.9218 41.0015 14.9221 43 15C44.9985 15.0779 44.9985 15.0782 44.9985 15.0785C44.9985 15.0786 44.9984 15.0789 44.9984 15.0791C44.9984 15.0795 44.9984 15.0799 44.9984 15.0803C44.9984 15.081 44.9983 15.0816 44.9983 15.0822C44.9983 15.0833 44.9982 15.0841 44.9982 15.0846C44.9982 15.0856 44.9982 15.0853 44.9982 15.084C44.9984 15.0813 44.9987 15.0741 44.9994 15.0629C45.0008 15.0403 45.0035 15.0025 45.008 14.9531C45.0171 14.8522 45.0329 14.7148 45.0586 14.5683C45.085 14.4173 45.1165 14.2879 45.1487 14.1924C45.1861 14.081 45.1952 14.1033 45.1309 14.1869L43.5455 12.9677Z" fill="black" mask="url(#path-14-outside-3_265_282)"/>
<mask id="path-16-outside-4_265_282" maskUnits="userSpaceOnUse" x="22" y="34" width="20" height="13" fill="black">
<rect fill="white" x="22" y="34" width="20" height="13"/>
<path d="M32.1526 42.1364H25.789L25 44.6786H33.7305L38.289 36H35.4838L32.1526 42.1364Z"/>
</mask>
<path d="M32.1526 42.1364H25.789L25 44.6786H33.7305L38.289 36H35.4838L32.1526 42.1364Z" fill="#737373"/>
<path d="M25.789 42.1364V40.1364H24.3156L23.8788 41.5436L25.789 42.1364ZM32.1526 42.1364V44.1364C32.8859 44.1364 33.5604 43.735 33.9103 43.0905L32.1526 42.1364ZM35.4838 36V34C34.7504 34 34.0759 34.4013 33.7261 35.0458L35.4838 36ZM38.289 36L40.0596 36.93L41.5986 34H38.289V36ZM33.7305 44.6786V46.6786C34.4737 46.6786 35.1556 46.2665 35.5011 45.6086L33.7305 44.6786ZM25 44.6786L23.0899 44.0858L22.2852 46.6786H25V44.6786ZM25.789 42.1364V44.1364H32.1526V42.1364V40.1364H25.789V42.1364ZM32.1526 42.1364L33.9103 43.0905L37.2415 36.9542L35.4838 36L33.7261 35.0458L30.3949 41.1822L32.1526 42.1364ZM35.4838 36V38H38.289V36V34H35.4838V36ZM38.289 36L36.5183 35.07L31.9599 43.7486L33.7305 44.6786L35.5011 45.6086L40.0596 36.93L38.289 36ZM33.7305 44.6786V42.6786H25V44.6786V46.6786H33.7305V44.6786ZM25 44.6786L26.9101 45.2714L27.6991 42.7292L25.789 42.1364L23.8788 41.5436L23.0899 44.0858L25 44.6786Z" fill="black" mask="url(#path-16-outside-4_265_282)"/>
<circle cx="13.3279" cy="50.8473" r="2.49026" fill="#D9D9D9" stroke="black" stroke-width="2"/>
<defs>
<filter id="filter0_i_265_282" x="0.450928" y="12.2727" width="58.7276" height="51.0965" filterUnits="userSpaceOnUse" color-interpolation-filters="sRGB">
<feFlood flood-opacity="0" result="BackgroundImageFix"/>
<feBlend mode="normal" in="SourceGraphic" in2="BackgroundImageFix" result="shape"/>
<feColorMatrix in="SourceAlpha" type="matrix" values="0 0 0 0 0 0 0 0 0 0 0 0 0 0 0 0 0 0 127 0" result="hardAlpha"/>
<feOffset dx="3.85714" dy="-0.525974"/>
<feComposite in2="hardAlpha" operator="arithmetic" k2="-1" k3="1"/>
<feColorMatrix type="matrix" values="0 0 0 0 0 0 0 0 0 0 0 0 0 0 0 0 0 0 0.25 0"/>
<feBlend mode="normal" in2="shape" result="effect1_innerShadow_265_282"/>
</filter>
<filter id="filter1_i_265_282" x="54.7207" y="16.4998" width="18.5519" height="17.5002" filterUnits="userSpaceOnUse" color-interpolation-filters="sRGB">
<feFlood flood-opacity="0" result="BackgroundImageFix"/>
<feBlend mode="normal" in="SourceGraphic" in2="BackgroundImageFix" result="shape"/>
<feColorMatrix in="SourceAlpha" type="matrix" values="0 0 0 0 0 0 0 0 0 0 0 0 0 0 0 0 0 0 127 0" result="hardAlpha"/>
<feOffset dx="-0.525974" dy="0.701299"/>
<feGaussianBlur stdDeviation="0.0876623"/>
<feComposite in2="hardAlpha" operator="arithmetic" k2="-1" k3="1"/>
<feColorMatrix type="matrix" values="0 0 0 0 0.875 0 0 0 0 0 0 0 0 0 0 0 0 0 0.25 0"/>
<feBlend mode="normal" in2="shape" result="effect1_innerShadow_265_282"/>
</filter>
<filter id="filter2_i_265_282" x="3.45117" y="15.2727" width="52.7274" height="45.0956" filterUnits="userSpaceOnUse" color-interpolation-filters="sRGB">
<feFlood flood-opacity="0" result="BackgroundImageFix"/>
<feBlend mode="normal" in="SourceGraphic" in2="BackgroundImageFix" result="shape"/>
<feColorMatrix in="SourceAlpha" type="matrix" values="0 0 0 0 0 0 0 0 0 0 0 0 0 0 0 0 0 0 127 0" result="hardAlpha"/>
<feOffset dx="3.85714" dy="-0.525974"/>
<feComposite in2="hardAlpha" operator="arithmetic" k2="-1" k3="1"/>
<feColorMatrix type="matrix" values="0 0 0 0 0 0 0 0 0 0 0 0 0 0 0 0 0 0 0.25 0"/>
<feBlend mode="normal" in2="shape" result="effect1_innerShadow_265_282"/>
</filter>
</defs>
</svg>
