<svg width="140" height="140" viewBox="0 0 140 140" fill="none" xmlns="http://www.w3.org/2000/svg">
<path d="M71 1C106.899 1 136 30.1015 136 66C136 101.899 106.899 131 71 131C56.0255 131 44.0339 127.845 33.0469 119.307C32.9367 119.406 32.814 119.519 32.6777 119.642C32.0431 120.214 31.1343 121.028 30.0381 121.999C27.8464 123.94 24.901 126.51 21.8906 129.019C18.8853 131.523 15.7947 133.984 13.3193 135.697C12.0879 136.55 10.9697 137.245 10.0713 137.664C9.62812 137.871 9.18022 138.038 8.7666 138.104C8.39071 138.163 7.76482 138.179 7.29297 137.707C6.86198 137.276 6.81946 136.684 6.82812 136.315C6.8381 135.893 6.92833 135.409 7.05957 134.906C7.32448 133.891 7.80855 132.598 8.42383 131.154C9.65898 128.256 11.4871 124.603 13.3652 121.034C15.2461 117.46 17.1888 113.952 18.6602 111.338C19.3961 110.03 20.0145 108.945 20.4492 108.188C20.57 107.977 20.6766 107.792 20.7676 107.634C10.3734 96.1265 6 82.7067 6 66C6 30.1015 35.1015 1 71 1Z" stroke="black" stroke-width="2"/>
<path d="M71 3.5C105.518 3.5 133.5 31.4822 133.5 66C133.5 100.518 105.518 128.5 71 128.5C56.1345 128.5 44.5569 125.326 33.9375 116.829L32.9355 116.027L31.9883 116.893H31.9873L31.9727 116.907C31.9619 116.917 31.9452 116.932 31.9238 116.951C31.8808 116.99 31.8171 117.049 31.7334 117.125C31.5657 117.277 31.3188 117.5 31.0039 117.784C30.3739 118.352 29.4708 119.162 28.3809 120.127C26.1998 122.059 23.2743 124.611 20.29 127.098C17.2982 129.591 14.2771 131.993 11.8965 133.642C11.0026 134.26 10.2305 134.75 9.60449 135.095C9.84316 134.311 10.2228 133.31 10.7236 132.135C11.9178 129.333 13.7071 125.751 15.5771 122.198C17.4432 118.653 19.3741 115.166 20.8389 112.563C21.5708 111.263 22.1854 110.184 22.6172 109.432C22.8331 109.055 23.0032 108.76 23.1191 108.56C23.1771 108.459 23.2221 108.383 23.252 108.331C23.2667 108.306 23.2777 108.286 23.2852 108.273C23.2889 108.267 23.2921 108.262 23.2939 108.259C23.2947 108.257 23.2955 108.257 23.2959 108.256L23.2969 108.255C23.297 108.255 23.2965 108.254 22 107.5L23.2969 108.254L23.8545 107.296L23.1016 106.481C12.8511 95.3964 8.5 82.4621 8.5 66C8.5 31.4822 36.4822 3.5 71 3.5Z" fill="#0099FF" stroke="white" stroke-width="3"/>
<path d="M70.6777 27.5C71.7537 27.5 72.7094 28.1883 73.0498 29.209C76.6082 39.8843 83.1149 46.3684 89.207 53.2773C95.2726 60.1561 100.856 67.4309 100.856 79.2285L100.857 79.6885C100.856 79.9539 100.85 80.3094 100.831 80.7412C100.793 81.6037 100.705 82.7725 100.504 84.1445C100.104 86.8767 99.2502 90.4781 97.4082 94.082C95.5578 97.7023 92.7009 101.342 88.3203 104.064C84.0735 106.704 78.5369 108.392 71.376 108.495L70.6777 108.5C63.1807 108.5 57.4252 106.801 53.042 104.092C48.6612 101.384 45.8029 97.7625 43.9512 94.1514C42.108 90.5568 41.2529 86.9592 40.8535 84.2178C40.653 82.8412 40.5651 81.6643 40.5273 80.79C40.5085 80.3523 40.5015 79.9899 40.5 79.7168C40.4989 79.5107 40.5016 79.2508 40.502 79.2285L40.5059 78.6787C40.6763 67.2037 46.18 60.0487 52.1504 53.2773C58.242 46.3685 64.7482 39.8842 68.3066 29.209L68.377 29.0225C68.7661 28.1055 69.6689 27.5001 70.6777 27.5Z" fill="#54B3F3" stroke="white" stroke-width="5" stroke-linejoin="round"/>
<g filter="url(#filter0_i_275_181)">
<path d="M70.6781 106C99.117 106 98.3561 80.1089 98.3561 79.2283C98.3557 57.5545 78.1842 52.5185 70.6781 30C63.1719 52.5185 43.002 57.5548 43.002 79.2283C43.002 80.2851 42.2391 106 70.6781 106Z" fill="#54B3F3"/>
</g>
<path d="M70.6777 29C71.1081 29 71.4908 29.2753 71.627 29.6836C75.3022 40.7093 82.0564 47.4362 88.082 54.2695C94.0969 61.0908 99.3563 68.0074 99.3564 79.2285L99.3574 79.6865C99.3479 81.4028 99.1198 87.4369 96.0723 93.3994C94.3227 96.8224 91.6373 100.236 87.5283 102.79C83.5464 105.265 78.2846 106.896 71.3535 106.995L70.6777 107C63.4132 107 57.9399 105.356 53.8301 102.816C49.7211 100.277 47.0351 96.8795 45.2852 93.4668C41.8026 86.6749 42.0019 79.7669 42.002 79.2285L42.0059 78.7051C42.1667 67.791 47.3549 60.9842 53.2754 54.2695C59.3005 47.4362 66.0543 40.7092 69.7295 29.6836L69.792 29.5371C69.9622 29.211 70.3013 29.0001 70.6777 29Z" stroke="black" stroke-width="2" stroke-linejoin="round"/>
<path d="M90.8503 78.7901C90.8503 79.4691 91.4436 99.4321 69.2716 99.4321" stroke="white" stroke-opacity="0.5" stroke-width="4" stroke-linecap="round"/>
<defs>
<filter id="filter0_i_275_181" x="38.9998" y="28" width="61.3582" height="82" filterUnits="userSpaceOnUse" color-interpolation-filters="sRGB">
<feFlood flood-opacity="0" result="BackgroundImageFix"/>
<feBlend mode="normal" in="SourceGraphic" in2="BackgroundImageFix" result="shape"/>
<feColorMatrix in="SourceAlpha" type="matrix" values="0 0 0 0 0 0 0 0 0 0 0 0 0 0 0 0 0 0 127 0" result="hardAlpha"/>
<feOffset dx="-3" dy="4"/>
<feGaussianBlur stdDeviation="1"/>
<feComposite in2="hardAlpha" operator="arithmetic" k2="-1" k3="1"/>
<feColorMatrix type="matrix" values="0 0 0 0 0.0252778 0 0 0 0 0.390963 0 0 0 0 0.733056 0 0 0 0.62 0"/>
<feBlend mode="normal" in2="shape" result="effect1_innerShadow_275_181"/>
</filter>
</defs>
</svg>
