<svg width="140" height="140" viewBox="0 0 140 140" fill="none" xmlns="http://www.w3.org/2000/svg">
<path d="M71 1C106.899 1 136 30.1015 136 66C136 101.899 106.899 131 71 131C56.0255 131 44.0339 127.845 33.0469 119.307C32.9367 119.406 32.814 119.519 32.6777 119.642C32.0431 120.214 31.1343 121.028 30.0381 121.999C27.8464 123.94 24.901 126.51 21.8906 129.019C18.8853 131.523 15.7947 133.984 13.3193 135.697C12.0879 136.55 10.9697 137.245 10.0713 137.664C9.62812 137.871 9.18022 138.038 8.7666 138.104C8.39071 138.163 7.76482 138.179 7.29297 137.707C6.86198 137.276 6.81946 136.684 6.82812 136.315C6.8381 135.893 6.92833 135.409 7.05957 134.906C7.32448 133.891 7.80855 132.598 8.42383 131.154C9.65898 128.256 11.4871 124.603 13.3652 121.034C15.2461 117.46 17.1888 113.952 18.6602 111.338C19.3961 110.03 20.0145 108.945 20.4492 108.188C20.57 107.977 20.6766 107.792 20.7676 107.634C10.3734 96.1265 6 82.7067 6 66C6 30.1015 35.1015 1 71 1Z" stroke="black" stroke-width="2"/>
<path d="M71 3.5C105.518 3.5 133.5 31.4822 133.5 66C133.5 100.518 105.518 128.5 71 128.5C56.1345 128.5 44.5569 125.326 33.9375 116.829L32.9355 116.027L31.9883 116.893H31.9873L31.9727 116.907C31.9619 116.917 31.9452 116.932 31.9238 116.951C31.8808 116.99 31.8171 117.049 31.7334 117.125C31.5657 117.277 31.3188 117.5 31.0039 117.784C30.3739 118.352 29.4708 119.162 28.3809 120.127C26.1998 122.059 23.2743 124.611 20.29 127.098C17.2982 129.591 14.2771 131.993 11.8965 133.642C11.0026 134.26 10.2305 134.75 9.60449 135.095C9.84316 134.311 10.2228 133.31 10.7236 132.135C11.9178 129.333 13.7071 125.751 15.5771 122.198C17.4432 118.653 19.3741 115.166 20.8389 112.563C21.5708 111.263 22.1854 110.184 22.6172 109.432C22.8331 109.055 23.0032 108.76 23.1191 108.56C23.1771 108.459 23.2221 108.383 23.252 108.331C23.2667 108.306 23.2777 108.286 23.2852 108.273C23.2889 108.267 23.2921 108.262 23.2939 108.259C23.2947 108.257 23.2955 108.257 23.2959 108.256L23.2969 108.255C23.297 108.255 23.2965 108.254 22 107.5L23.2969 108.254L23.8545 107.296L23.1016 106.481C12.8511 95.3964 8.5 82.4621 8.5 66C8.5 31.4822 36.4822 3.5 71 3.5Z" fill="#0099FF" stroke="white" stroke-width="3"/>
<path d="M75.7837 37.4923L43.0602 58.83C42.0105 59.5145 40.6086 59.2574 39.8701 58.245C39.0764 57.1571 39.3546 55.6264 40.4803 54.8873L76.8512 31.0054C78.5945 29.8607 80.9249 30.2476 82.2048 31.8943L108.907 66.248C109.733 67.3113 109.502 68.8497 108.399 69.6228C107.373 70.3423 105.964 70.1325 105.191 69.1456L81.1188 38.3781C79.8397 36.7432 77.5225 36.3585 75.7837 37.4923Z" fill="#D7C8C1"/>
<path d="M98.5381 66.5358L92.4786 103.032L44.1403 95.0067L50.1998 58.5103L78.1367 39.8298L98.5381 66.5358Z" fill="#98CFEB"/>
<path d="M75.7475 28.7487C78.5472 27.097 82.1636 27.7681 84.1785 30.3603L110.881 64.7134L111.034 64.9219C112.504 67.0315 112.067 69.9314 110.042 71.5155L109.834 71.67C107.785 73.1062 104.995 72.7452 103.376 70.872L103.222 70.6861L100.88 67.6918L94.9449 103.442C94.7188 104.804 93.4313 105.725 92.0692 105.498L43.7309 97.4729C42.3689 97.2468 41.448 95.9593 41.6742 94.5972L47.6097 58.8473L44.4257 60.9242C42.3298 62.2909 39.5528 61.8362 37.9973 59.9094L37.8508 59.7187C36.2149 57.4763 36.7877 54.3205 39.1079 52.797L75.4792 28.916L75.7475 28.7487Z" stroke="white" stroke-width="5" stroke-linejoin="round"/>
<path d="M76.509 30.0412C78.6625 28.7707 81.4442 29.2865 82.9942 31.2803L109.697 65.6344L109.803 65.7786C110.818 67.2365 110.517 69.2407 109.117 70.3353L108.974 70.4412C107.558 71.434 105.629 71.1848 104.51 69.8901L104.403 69.7616L80.3315 38.9943C79.4321 37.8447 77.8485 37.5198 76.5795 38.1842L76.3296 38.3298L43.6068 59.6676C42.1583 60.6121 40.2386 60.2981 39.1636 58.9665L39.0619 58.8338C37.9318 57.2842 38.328 55.1041 39.9311 54.0513L76.3026 30.1693L76.509 30.0412Z" fill="#D7C8C1" stroke="black" stroke-width="2" stroke-linejoin="round"/>
<path d="M93.4652 103.196C93.3747 103.741 92.8597 104.109 92.3149 104.019L43.9766 95.9931C43.4318 95.9027 43.0635 95.3877 43.1539 94.8429L49.2134 58.3464C49.2586 58.0741 49.4145 57.8328 49.6439 57.6794L77.5809 38.9979L77.6645 38.9474C78.0921 38.718 78.6311 38.8291 78.9315 39.2221L99.3328 65.9291C99.5003 66.1485 99.5698 66.4272 99.5247 66.6995L93.4652 103.196Z" fill="#98CFEB" stroke="black" stroke-width="2" stroke-linejoin="round"/>
<g filter="url(#filter0_i_275_181)">
<circle cx="75.9945" cy="52.5721" r="2.84211" transform="rotate(9.42674 75.9945 52.5721)" fill="#D5F5FC"/>
</g>
<circle cx="75.9945" cy="52.5721" r="3.84211" transform="rotate(9.42674 75.9945 52.5721)" stroke="black" stroke-width="2"/>
<rect x="56.2908" y="70.668" width="14" height="27" transform="rotate(9.42674 56.2908 70.668)" fill="#E06868" stroke="black" stroke-width="2" stroke-linejoin="round"/>
<g filter="url(#filter1_i_275_181)">
<rect x="80.7894" y="75.7492" width="7.57895" height="8.05263" transform="rotate(9.42674 80.7894 75.7492)" fill="#D5F5FC"/>
</g>
<rect x="79.9667" y="74.5989" width="9.57895" height="10.0526" transform="rotate(9.42674 79.9667 74.5989)" stroke="black" stroke-width="2" stroke-linejoin="round"/>
<path d="M41 31L34 41" stroke="white" stroke-width="3" stroke-linecap="round"/>
<path d="M51 30L44 40" stroke="white" stroke-width="3" stroke-linecap="round"/>
<path d="M58 20L54 26" stroke="white" stroke-width="3" stroke-linecap="round"/>
<path d="M94 18L90 24" stroke="white" stroke-width="3" stroke-linecap="round"/>
<path d="M99.5 35L98 37.5" stroke="white" stroke-width="3" stroke-linecap="round"/>
<path d="M107 23L102 31" stroke="white" stroke-width="3" stroke-linecap="round"/>
<path d="M74 12L66 25" stroke="white" stroke-width="3" stroke-linecap="round"/>
<path d="M37 91C43.1818 99 52.4545 99 58.6364 91C64.8182 99 77.1818 99 83.3636 91C89.5455 99 98.8182 99 105 91" stroke="white" stroke-width="9" stroke-linecap="round" stroke-linejoin="round"/>
<path d="M37 91C43.1818 99 52.4545 99 58.6364 91C64.8182 99 77.1818 99 83.3636 91C89.5455 99 98.8182 99 105 91" stroke="black" stroke-width="2" stroke-linecap="round" stroke-linejoin="round"/>
<path d="M63.3825 87.698C63.857 87.9209 64.4479 88.3318 64.7781 89.0664L64.8407 89.2166C65.1281 89.9578 65.0356 90.5906 64.8465 91.0478C64.7482 91.2855 64.6266 91.4703 64.5283 91.5972C64.4789 91.6609 64.4346 91.7114 64.4008 91.7474C64.3838 91.7653 64.3689 91.7794 64.3577 91.7904C64.352 91.7959 64.347 91.8008 64.343 91.8046C64.3411 91.8064 64.3395 91.8082 64.338 91.8096C64.3372 91.8103 64.3364 91.8111 64.3357 91.8117L64.3352 91.8126L64.3339 91.8129C64.2796 91.8624 64.2152 91.8998 64.1453 91.9223L60.9205 92.9584C63.724 94.8898 64.6647 98.6559 62.981 101.669C61.1929 104.868 57.1303 105.993 53.9111 104.194L43.1366 98.173C39.9173 96.374 38.7455 92.3242 40.5334 89.1245C42.3215 85.9248 46.3848 84.8007 49.6041 86.5997L54.806 89.5067L62.2747 87.4302L62.3774 87.4127C62.4117 87.4103 62.4462 87.412 62.4804 87.4165L62.4817 87.4162L62.4826 87.4166L62.4848 87.4167C62.4865 87.417 62.4885 87.4175 62.4908 87.4179C62.4956 87.4186 62.5021 87.4193 62.5095 87.4205C62.5242 87.4228 62.5443 87.4265 62.5685 87.4311C62.617 87.4402 62.6837 87.4547 62.764 87.4755C62.9242 87.517 63.1435 87.5858 63.3825 87.698Z" fill="#B35D0A" stroke="black" stroke-width="1.02857" stroke-linecap="round" stroke-linejoin="round"/>
<circle cx="46.3979" cy="92.3362" r="2.31429" transform="rotate(29.1979 46.3979 92.3362)" stroke="white" stroke-opacity="0.59" stroke-width="1.54286"/>
<circle cx="46.3979" cy="92.3362" r="4.88571" transform="rotate(29.1979 46.3979 92.3362)" stroke="white" stroke-opacity="0.59" stroke-width="1.54286"/>
<path d="M37 100C43.1818 108 52.4545 108 58.6364 100C64.8182 108 77.1818 108 83.3636 100C89.5455 108 98.8182 108 105 100" stroke="white" stroke-width="9" stroke-linecap="round" stroke-linejoin="round"/>
<path d="M37 100C43.1818 108 52.4545 108 58.6364 100C64.8182 108 77.1818 108 83.3636 100C89.5455 108 98.8182 108 105 100" stroke="black" stroke-width="2" stroke-linecap="round" stroke-linejoin="round"/>
<circle cx="64.5" cy="83.5" r="1.5" fill="black"/>
<defs>
<filter id="filter0_i_275_181" x="69.1516" y="47.7292" width="11.6857" height="11.6857" filterUnits="userSpaceOnUse" color-interpolation-filters="sRGB">
<feFlood flood-opacity="0" result="BackgroundImageFix"/>
<feBlend mode="normal" in="SourceGraphic" in2="BackgroundImageFix" result="shape"/>
<feColorMatrix in="SourceAlpha" type="matrix" values="0 0 0 0 0 0 0 0 0 0 0 0 0 0 0 0 0 0 127 0" result="hardAlpha"/>
<feOffset dx="-3" dy="4"/>
<feGaussianBlur stdDeviation="1"/>
<feComposite in2="hardAlpha" operator="arithmetic" k2="-1" k3="1"/>
<feColorMatrix type="matrix" values="0 0 0 0 0.0252778 0 0 0 0 0.390963 0 0 0 0 0.733056 0 0 0 0.62 0"/>
<feBlend mode="normal" in2="shape" result="effect1_innerShadow_275_181"/>
</filter>
<filter id="filter1_i_275_181" x="75.4702" y="73.7489" width="14.7961" height="15.1859" filterUnits="userSpaceOnUse" color-interpolation-filters="sRGB">
<feFlood flood-opacity="0" result="BackgroundImageFix"/>
<feBlend mode="normal" in="SourceGraphic" in2="BackgroundImageFix" result="shape"/>
<feColorMatrix in="SourceAlpha" type="matrix" values="0 0 0 0 0 0 0 0 0 0 0 0 0 0 0 0 0 0 127 0" result="hardAlpha"/>
<feOffset dx="-3" dy="4"/>
<feGaussianBlur stdDeviation="1"/>
<feComposite in2="hardAlpha" operator="arithmetic" k2="-1" k3="1"/>
<feColorMatrix type="matrix" values="0 0 0 0 0.0252778 0 0 0 0 0.390963 0 0 0 0 0.733056 0 0 0 0.62 0"/>
<feBlend mode="normal" in2="shape" result="effect1_innerShadow_275_181"/>
</filter>
</defs>
</svg>
