<svg width="140" height="140" viewBox="0 0 140 140" fill="none" xmlns="http://www.w3.org/2000/svg">
<path d="M71 1C106.899 1 136 30.1015 136 66C136 101.899 106.899 131 71 131C56.0255 131 44.0339 127.845 33.0469 119.307C32.9367 119.406 32.814 119.519 32.6777 119.642C32.0431 120.214 31.1343 121.028 30.0381 121.999C27.8464 123.94 24.901 126.51 21.8906 129.019C18.8853 131.523 15.7947 133.984 13.3193 135.697C12.0879 136.55 10.9697 137.245 10.0713 137.664C9.62812 137.871 9.18022 138.038 8.7666 138.104C8.39071 138.163 7.76482 138.179 7.29297 137.707C6.86198 137.276 6.81946 136.684 6.82812 136.315C6.8381 135.893 6.92833 135.409 7.05957 134.906C7.32448 133.891 7.80855 132.598 8.42383 131.154C9.65898 128.256 11.4871 124.603 13.3652 121.034C15.2461 117.46 17.1888 113.952 18.6602 111.338C19.3961 110.03 20.0145 108.945 20.4492 108.188C20.57 107.977 20.6766 107.792 20.7676 107.634C10.3734 96.1265 6 82.7067 6 66C6 30.1015 35.1015 1 71 1Z" stroke="black" stroke-width="2"/>
<path d="M71 3.5C105.518 3.5 133.5 31.4822 133.5 66C133.5 100.518 105.518 128.5 71 128.5C56.1345 128.5 44.5569 125.326 33.9375 116.829L32.9355 116.027L31.9883 116.893H31.9873L31.9727 116.907C31.9619 116.917 31.9452 116.932 31.9238 116.951C31.8808 116.99 31.8171 117.049 31.7334 117.125C31.5657 117.277 31.3188 117.5 31.0039 117.784C30.3739 118.352 29.4708 119.162 28.3809 120.127C26.1998 122.059 23.2743 124.611 20.29 127.098C17.2982 129.591 14.2771 131.993 11.8965 133.642C11.0026 134.26 10.2305 134.75 9.60449 135.095C9.84316 134.311 10.2228 133.31 10.7236 132.135C11.9178 129.333 13.7071 125.751 15.5771 122.198C17.4432 118.653 19.3741 115.166 20.8389 112.563C21.5708 111.263 22.1854 110.184 22.6172 109.432C22.8331 109.055 23.0032 108.76 23.1191 108.56C23.1771 108.459 23.2221 108.383 23.252 108.331C23.2667 108.306 23.2777 108.286 23.2852 108.273C23.2889 108.267 23.2921 108.262 23.2939 108.259C23.2947 108.257 23.2955 108.257 23.2959 108.256L23.2969 108.255C23.297 108.255 23.2965 108.254 22 107.5L23.2969 108.254L23.8545 107.296L23.1016 106.481C12.8511 95.3964 8.5 82.4621 8.5 66C8.5 31.4822 36.4822 3.5 71 3.5Z" fill="#0099FF" stroke="white" stroke-width="3"/>
<g filter="url(#filter0_i_275_181)">
<path d="M97.2347 47.0451C95.9749 47.0451 93.5605 47.57 92.5107 47.8324C92.7731 47.3075 93.613 45.9428 94.8727 44.6831C96.4473 43.1085 98.022 43.8958 98.8093 43.8958C99.5966 43.8958 100.384 44.6831 100.384 45.4704C100.384 46.2578 98.8093 47.0451 97.2347 47.0451Z" fill="#54B3F3"/>
<path d="M74.724 102.5C74.4615 90.1652 75.1896 109.087 78.3389 102.158C82.2755 93.4977 86.9995 89.5611 85.4248 87.9865C83.8502 86.4118 80.7009 88.7738 78.3389 91.1358C75.9769 93.4977 76.7642 98.2216 75.1896 98.2216C73.6149 98.2216 73.6149 89.561 74.4023 87.1991C75.1896 84.8371 78.3389 77.7512 83.8502 77.7512C89.3614 77.7512 90.1488 75.3892 90.1488 74.6019C90.1488 73.8145 90.9361 71.4526 85.4248 71.4526C81.0158 71.4526 76.7642 75.1267 75.1896 76.9638C74.4023 73.5521 74.2448 66.0988 79.9135 63.5793C86.9995 60.43 91.7234 61.2173 94.0854 59.6427C95.975 58.383 96.7204 57.515 96.4473 55.7057C96.1743 53.8963 92.9831 52.084 88.5741 53.3437C83.0628 54.9183 79.9135 58.8551 79.1262 57.2805C78.3389 55.7058 80.7009 49.4073 86.9995 46.258C93.2981 43.1087 93.2981 39.172 92.5107 37.5974C91.7234 36.0227 86.2121 32.0861 79.9135 40.7467C73.6149 49.4073 74.4023 60.4296 73.6149 60.4296C72.8276 60.4296 70.4656 60.4296 71.253 54.131C72.0403 47.8324 75.1896 43.8958 75.1896 39.9592C75.1896 39.1718 75.1896 33.6606 70.4656 33.6606C65.7417 33.6606 64.9544 38.3845 64.9544 39.1718C64.9544 39.9592 64.9543 41.5338 65.7417 48.6197C66.529 55.7057 68.891 61.2169 68.891 62.0043C68.891 62.6341 68.3661 62.7916 68.1037 62.7916C66.529 58.5925 62.9073 50.1944 61.0177 50.1944C59.1282 50.1944 58.1309 51.2442 57.8684 51.769C57.606 52.5564 57.396 54.2885 58.6558 54.9183C60.2304 55.7057 61.8051 56.493 63.3797 59.6423C64.9544 62.7916 66.529 67.5155 66.529 70.6648C66.529 73.8141 66.529 79.3254 64.9544 80.1127C63.3797 80.9 62.5924 80.1127 61.8051 78.5381C61.0177 76.9634 59.443 73.0268 57.0811 70.6648C55.5064 69.0902 53.3499 68.2001 51.5698 69.0902C50.3854 69.6824 45.2712 73.0268 57.0811 80.9C60.2304 83.262 64.9543 91.4502 64.9543 99.0085C63.9046 97.9587 62.7158 95.9826 61.0177 94.2846C59.3197 92.5865 57.8684 88.7733 56.2938 90.3479C54.2865 92.3552 59.0017 96.9186 59.7891 97.7059C60.5764 98.4932 60.4975 100.572 64.167 102.945C68.891 106 68.5 102 69 102.5C69.5 103 70 102.5 70 102.5H74.724Z" fill="#54B3F3"/>
<path d="M46.0585 58.0676C45.7175 56.3626 46.8458 54.2885 49.9951 54.9183C53.9318 55.7057 56.2937 59.6423 56.2937 62.7916C55.5064 62.2667 53.6168 61.2169 52.3571 61.2169C50.7825 61.2169 46.8458 62.0042 46.0585 58.0676Z" fill="#54B3F3"/>
<path d="M81.4882 33.6606C82.2755 32.8732 84.1651 31.1411 85.4248 30.5113C86.9994 29.7239 89.3614 28.9366 89.3614 27.362C89.3614 25.7873 86.2121 25 85.4248 25C84.6375 25 82.2755 25 80.7008 27.362C79.4411 29.2516 80.7008 32.3484 81.4882 33.6606Z" fill="#54B3F3"/>
<path d="M85.4248 67.5155C84.1651 67.5155 84.1126 68.0404 83.0628 68.3028C83.3252 67.778 83.044 65.9503 84.6375 65.1535C86.2121 64.3662 86.9994 64.3662 87.7868 64.3662C88.5741 64.3662 89.3614 64.8471 89.3614 65.9409C89.3614 67.5155 86.9994 67.5155 85.4248 67.5155Z" fill="#54B3F3"/>
</g>
<path d="M85.7598 22.5146C86.5895 22.5812 87.7329 22.874 88.7041 23.3057C89.287 23.5648 89.9917 23.953 90.5879 24.5254C91.1951 25.1084 91.8613 26.0618 91.8613 27.3623C91.8612 29.5534 90.2017 30.7933 89.3086 31.3516C88.6287 31.7765 87.6918 32.2094 87.0566 32.5039L86.543 32.7471C86.409 32.8141 86.2403 32.9202 86.042 33.0557C86.8349 32.8724 87.6189 32.8025 88.3877 32.8359C90.0053 32.9063 91.3796 33.4341 92.4238 34.0889C93.3449 34.6665 94.1746 35.45 94.6553 36.3066L94.7471 36.4795L94.8779 36.7627C95.437 38.0674 95.5851 39.8257 94.9541 41.6816C97.1276 40.7784 99.2677 41.3953 98.8096 41.3955C100.016 41.3956 101.013 41.9741 101.659 42.6201C102.305 43.2662 102.884 44.264 102.884 45.4707C102.884 46.5259 102.362 47.3037 101.941 47.7549C101.507 48.2201 100.989 48.5533 100.518 48.7891C99.5721 49.2618 98.4008 49.5449 97.2344 49.5449C96.8515 49.545 96.128 49.6367 95.2461 49.7988C94.4119 49.9522 93.5976 50.1377 93.1172 50.2578C92.17 50.4946 91.1715 50.1581 90.5605 49.3965C90.1033 48.8264 89.925 48.096 90.0479 47.3984C89.4588 47.7768 88.8168 48.1443 88.1172 48.4941C85.7262 49.6897 84.0105 51.4225 82.9121 53.0703C84.274 52.3036 85.948 51.4936 87.8877 50.9395L88.3828 50.8076C90.849 50.198 93.1213 50.3474 94.9443 51.0352C96.6931 51.695 98.4759 53.0708 98.8838 55.1309L98.9189 55.333L98.9531 55.5859C99.1016 56.8487 98.9236 58.0835 98.1768 59.2383C97.5713 60.1744 96.6924 60.8829 95.8369 61.4756L95.4717 61.7227C94.4984 62.3714 93.4045 62.6996 92.4131 62.9199C91.9335 63.0265 91.4068 63.1202 90.8652 63.2109C91.5228 63.9528 91.8612 64.9121 91.8613 65.9404C91.8613 67.0535 91.4049 68.0209 90.6406 68.709C90.2333 69.0756 89.783 69.3213 89.3623 69.4922C90.4208 69.8575 91.2813 70.4304 91.8877 71.2793C92.5094 72.1498 92.66 73.0493 92.6836 73.6855C92.695 73.9952 92.677 74.2646 92.6641 74.4326C92.6455 74.6746 92.6484 74.6305 92.6484 74.6016C92.6484 75.7437 92.1132 77.2688 90.6006 78.4453C89.1197 79.5969 86.9244 80.2509 83.8506 80.251C82.2522 80.251 80.734 81.2798 79.3438 83.1045C77.988 84.8839 77.1133 86.9728 76.7744 87.9893C76.702 88.2066 76.6065 88.6897 76.5283 89.4111C76.5425 89.3967 76.5569 89.3825 76.5713 89.3682C77.8102 88.1293 79.392 86.7454 80.9922 85.8838C81.7881 85.4552 82.765 85.0576 83.8193 84.9873C84.8925 84.9158 86.0505 85.1923 87.0049 86.041L87.1924 86.2188L87.3262 86.3584C88.6482 87.8149 88.2437 89.5849 87.8652 90.5557C87.4708 91.5673 86.7484 92.6996 86.043 93.7812C84.636 95.9385 82.7447 98.6972 80.9688 102.433L80.6152 103.192C80.3762 103.718 80.1083 104.213 79.7979 104.64C79.5012 105.047 79.0643 105.535 78.4385 105.866C77.7306 106.241 76.8743 106.359 76.0283 106.079C75.2791 105.831 74.7814 105.351 74.4902 105.003C74.4895 105.002 74.489 105.001 74.4883 105H70.6318C70.582 105.019 70.5318 105.042 70.4785 105.06C70.397 105.087 70.3087 105.11 70.2158 105.133C70.13 105.239 70.0376 105.346 69.9355 105.448C69.1168 106.267 67.9636 106.716 66.6006 106.582C65.5448 106.478 64.4513 106.037 63.3047 105.353L62.8096 105.044C60.6552 103.651 59.4806 102.256 58.7412 100.997C58.3982 100.413 58.1586 99.8681 58.0254 99.584C57.976 99.4787 57.9406 99.4116 57.9199 99.3721C57.4278 98.8834 56.024 97.4842 54.9346 95.9023C54.3564 95.0629 53.7281 93.9797 53.4502 92.8135C53.1573 91.584 53.1998 89.9067 54.5264 88.5801L54.6982 88.417C55.1187 88.0403 55.6618 87.7047 56.3359 87.5547C57.1252 87.379 57.8504 87.5118 58.4316 87.7578C58.9257 87.967 59.3488 88.2745 59.7002 88.5928C58.2713 85.7503 56.6596 83.7241 55.6064 82.9209C52.5853 80.8985 50.4968 79.0721 49.1318 77.3936C47.7519 75.6966 46.997 74.006 46.9531 72.3301C46.8618 68.8436 49.739 67.2111 50.4521 66.8545L50.7549 66.7119C53.8916 65.3489 57.051 67.0998 58.8486 68.8975L59.1152 69.1719C60.4288 70.5659 61.4634 72.265 62.2393 73.7197C62.8136 74.7966 63.3803 76.0132 63.7441 76.791C63.7803 76.5538 63.8161 76.2943 63.8457 76.0127C64.0263 74.2966 64.0293 72.2661 64.0293 70.665C64.0293 68.0823 62.6474 63.7685 61.1436 60.7607C60.4727 59.4191 59.8701 58.713 59.3711 58.2764C58.9832 57.937 58.5957 57.7001 58.0889 57.4346L57.5381 57.1543C57.2361 57.0033 56.9708 56.8283 56.7383 56.6367C58.0825 58.5422 58.7939 60.7923 58.7939 62.792C58.7938 63.7138 58.2864 64.5611 57.4736 64.9961C56.6609 65.4311 55.6743 65.3833 54.9072 64.8721C54.6139 64.6765 54.0642 64.352 53.4756 64.0869C53.1849 63.956 52.9184 63.8552 52.6943 63.79C52.4718 63.7254 52.3658 63.7175 52.3574 63.7168C52.2408 63.7168 52.0792 63.7244 51.7998 63.7393C51.5455 63.7528 51.2189 63.7712 50.8701 63.7783C50.1806 63.7924 49.2812 63.7694 48.3506 63.5547C47.405 63.3365 46.3437 62.9006 45.4307 62.0322C44.5591 61.2031 43.9675 60.1172 43.6641 58.8203L43.6074 58.5576C43.3058 57.0492 43.6185 55.2222 44.9229 53.877C46.3029 52.4537 48.3234 52.0344 50.4854 52.4668L50.9775 52.5781C52.9042 53.0676 54.5035 54.1021 55.7432 55.415C55.4261 54.8255 55.2702 54.2139 55.209 53.6963C55.0832 52.6329 55.2813 51.6257 55.4971 50.9785L55.5586 50.8125C55.5812 50.7579 55.6064 50.7043 55.6328 50.6514L55.7715 50.3984C56.5337 49.1209 58.3193 47.6944 61.0176 47.6943L61.2246 47.7012C62.0972 47.7578 62.7785 48.1623 63.2129 48.4932C62.4662 41.7148 62.4541 40.0794 62.4541 39.1719C62.4541 38.3697 62.7529 36.5277 63.8096 34.8105C64.9626 32.9371 67.0779 31.1602 70.4658 31.1602C72.1714 31.1602 73.616 31.6721 74.7539 32.5781C75.8547 33.4547 76.5169 34.5785 76.9199 35.5859C77.5562 37.1766 77.6637 38.7941 77.6826 39.5684C77.7515 39.4709 77.821 39.3734 77.8916 39.2764C78.8264 37.991 79.7768 36.919 80.7324 36.042C80.2019 35.8736 79.7386 35.5333 79.4219 35.0684L79.3447 34.9473C78.8394 34.1051 78.2083 32.7491 77.8838 31.2598C77.5752 29.8434 77.4297 27.7628 78.6211 25.9756L78.8428 25.6572C81.1778 22.4727 84.5689 22.5 85.4248 22.5L85.7598 22.5146ZM80.9287 65.8643C79.0613 66.6943 78.0382 68.3459 77.5723 70.4717C77.4789 70.8978 77.4117 71.3308 77.3662 71.7617C77.5426 71.6421 77.7224 71.5242 77.9053 71.4082C78.838 70.8168 79.9052 70.2475 81.0664 69.8057C80.5627 69.1368 80.4303 68.2655 80.7012 67.4844C80.706 67.4517 80.7116 67.4123 80.7188 67.3604C80.7497 67.1354 80.807 66.6807 80.9316 66.2012C80.9639 66.077 81.0014 65.9471 81.0459 65.8135L80.9287 65.8643Z" stroke="white" stroke-width="5" stroke-linejoin="round"/>
<path d="M71 76.5C81.0405 76.5 90.0567 78.4832 96.5068 81.6211C103.059 84.8085 106.5 88.9254 106.5 93C106.5 97.0746 103.059 101.191 96.5068 104.379C90.0567 107.517 81.0405 109.5 71 109.5C60.9595 109.5 51.9433 107.517 45.4932 104.379C38.9413 101.191 35.5 97.0746 35.5 93C35.5 88.9254 38.9413 84.8085 45.4932 81.6211C51.9433 78.4832 60.9595 76.5 71 76.5Z" fill="black" stroke="white" stroke-width="3"/>
<g filter="url(#filter1_i_275_181)">
<path d="M97.2347 47.0451C95.9749 47.0451 93.5605 47.57 92.5107 47.8324C92.7731 47.3075 93.613 45.9428 94.8727 44.6831C96.4473 43.1085 98.022 43.8958 98.8093 43.8958C99.5966 43.8958 100.384 44.6831 100.384 45.4704C100.384 46.2578 98.8093 47.0451 97.2347 47.0451Z" fill="#54B3F3"/>
<path d="M74.724 103.5C78.3389 107 75.1896 102.087 78.3389 101.158C87.4639 98.4681 86.9995 89.5611 85.4248 87.9865C83.8502 86.4118 80.7009 88.7738 78.3389 91.1358C75.9769 93.4977 76.7642 98.2216 75.1896 98.2216C73.6149 98.2216 73.6149 89.561 74.4023 87.1991C75.1896 84.8371 78.3389 77.7512 83.8502 77.7512C89.3614 77.7512 90.1488 75.3892 90.1488 74.6019C90.1488 73.8145 90.9361 71.4526 85.4248 71.4526C81.0158 71.4526 76.7642 75.1267 75.1896 76.9638C74.4023 73.5521 74.2448 66.0988 79.9135 63.5793C86.9995 60.43 91.7234 61.2173 94.0854 59.6427C95.975 58.383 96.7204 57.515 96.4473 55.7057C96.1743 53.8963 92.9831 52.084 88.5741 53.3437C83.0628 54.9183 79.9135 58.8551 79.1262 57.2805C78.3389 55.7058 80.7009 49.4073 86.9995 46.258C93.2981 43.1087 93.2981 39.172 92.5107 37.5974C91.7234 36.0227 86.2121 32.0861 79.9135 40.7467C73.6149 49.4073 74.4023 60.4296 73.6149 60.4296C72.8276 60.4296 70.4656 60.4296 71.253 54.131C72.0403 47.8324 75.1896 43.8958 75.1896 39.9592C75.1896 39.1718 75.1896 33.6606 70.4656 33.6606C65.7417 33.6606 64.9544 38.3845 64.9544 39.1718C64.9544 39.9592 64.9543 41.5338 65.7417 48.6197C66.529 55.7057 68.891 61.2169 68.891 62.0043C68.891 62.6341 68.3661 62.7916 68.1037 62.7916C66.529 58.5925 62.9073 50.1944 61.0177 50.1944C59.1282 50.1944 58.1309 51.2442 57.8684 51.769C57.606 52.5564 57.396 54.2885 58.6558 54.9183C60.2304 55.7057 61.8051 56.493 63.3797 59.6423C64.9544 62.7916 66.529 67.5155 66.529 70.6648C66.529 73.8141 66.529 79.3254 64.9544 80.1127C63.3797 80.9 62.5924 80.1127 61.8051 78.5381C61.0177 76.9634 59.443 73.0268 57.0811 70.6648C55.5064 69.0902 53.3499 68.2001 51.5698 69.0902C50.3854 69.6824 45.2712 73.0268 57.0811 80.9C60.2304 83.262 64.9543 91.4502 64.9543 99.0085C63.9046 97.9587 62.7158 95.9826 61.0177 94.2846C59.3197 92.5865 57.8684 88.7733 56.2938 90.3479C54.2865 92.3552 59.0017 96.9186 59.7891 97.7059C60.5764 98.4932 62.5 99.5 64.167 101.945C66.8296 105.851 67.6037 104 68.1037 104.5C68.6037 105 70 103.5 70 103.5H74.724Z" fill="#54B3F3"/>
<path d="M46.0585 58.0676C45.7175 56.3626 46.8458 54.2885 49.9951 54.9183C53.9318 55.7057 56.2937 59.6423 56.2937 62.7916C55.5064 62.2667 53.6168 61.2169 52.3571 61.2169C50.7825 61.2169 46.8458 62.0042 46.0585 58.0676Z" fill="#54B3F3"/>
<path d="M81.4882 33.6606C82.2755 32.8732 84.1651 31.1411 85.4248 30.5113C86.9994 29.7239 89.3614 28.9366 89.3614 27.362C89.3614 25.7873 86.2121 25 85.4248 25C84.6375 25 82.2755 25 80.7008 27.362C79.4411 29.2516 80.7008 32.3484 81.4882 33.6606Z" fill="#54B3F3"/>
<path d="M86.5 67C85.2647 66.7529 84 67.5 83.0628 68.3028C83.3252 67.778 83.2778 66.3047 84.6375 65.1535C86 64 88 63.5 89 64C89.7254 64.3627 90.1488 64.9063 90.1488 66C90.1488 67.5746 89 67.5 86.5 67Z" fill="#54B3F3"/>
</g>
<path d="M70.4658 32.6602C71.8566 32.6602 72.9656 33.0722 73.8193 33.752C74.6583 34.42 75.189 35.2977 75.5273 36.1436C76.1948 37.8122 76.1895 39.5559 76.1895 39.959C76.1895 42.1552 75.3114 44.3152 74.4473 46.5234C73.5621 48.7856 72.6218 51.2417 72.2451 54.2549C71.8587 57.3459 72.2974 58.5804 72.6436 59.042C72.738 59.1679 72.8391 59.2512 72.9443 59.3086C72.977 59.0795 73.0123 58.7974 73.0518 58.457C73.1859 57.2986 73.3617 55.6155 73.7129 53.6592C74.4144 49.7507 75.8291 44.6618 79.1045 40.1582C82.3763 35.6595 85.6142 34.2172 88.3223 34.335C89.6484 34.3926 90.7738 34.8253 91.627 35.3604C92.4555 35.88 93.1024 36.5447 93.4053 37.1504C93.9358 38.2115 94.1321 39.9005 93.3281 41.7383C92.5203 43.5844 90.7409 45.5051 87.4463 47.1523C84.491 48.6301 82.4611 50.8468 81.2666 52.8682C80.6686 53.8801 80.2926 54.8229 80.1104 55.5732C80.0193 55.9485 79.9816 56.2561 79.9805 56.4883C79.9804 56.5082 79.981 56.5276 79.9814 56.5459C80.3364 56.3917 80.8319 56.0936 81.5488 55.6455C83.1145 54.6669 85.3907 53.213 88.2998 52.3818L88.7432 52.2637C90.9479 51.7186 92.9078 51.8698 94.415 52.4385C95.9668 53.024 97.2235 54.145 97.4365 55.5566C97.5999 56.6397 97.4687 57.5708 96.917 58.4238C96.4709 59.1135 95.7909 59.6802 94.9902 60.2363L94.6396 60.4746C93.8961 60.9703 93.0158 61.2489 92.0879 61.4551C91.1674 61.6596 90.0813 61.8159 88.9355 62.0068C86.7559 62.3701 84.1068 62.8964 80.9561 64.2178L80.3193 64.4932C77.8718 65.5811 76.6363 67.7382 76.1074 70.1514C75.7534 71.7672 75.733 73.4422 75.8672 74.8525C76.6543 74.1357 77.6203 73.3651 78.709 72.6748C80.601 71.4752 82.955 70.4521 85.4248 70.4521C88.2395 70.4521 89.8737 71.0402 90.667 72.1504C91.0632 72.7051 91.1677 73.2865 91.1846 73.7402C91.1929 73.9638 91.1806 74.1662 91.1689 74.3174C91.1551 74.4978 91.1485 74.5542 91.1484 74.6016C91.1484 75.2946 90.8162 76.3768 89.6797 77.2607C88.5559 78.1347 86.7333 78.7509 83.8506 78.751C81.5579 78.751 79.6513 80.2255 78.1504 82.1953C76.6632 84.1472 75.7223 86.4005 75.3506 87.5156C75.1951 87.9824 75.0538 88.8629 74.9688 89.9932C74.8856 91.0984 74.8615 92.3637 74.9092 93.5557C74.9557 94.7197 75.0706 95.7681 75.2461 96.5176C75.3206 96.2058 75.3966 95.8268 75.4883 95.3682C75.7748 93.9358 76.205 91.8556 77.6318 90.4287C78.836 89.2246 80.2954 87.9621 81.7031 87.2041C82.4053 86.826 83.1651 86.5346 83.9189 86.4844C84.7089 86.4317 85.5006 86.6481 86.1318 87.2793C86.4711 87.6186 86.7146 88.0793 86.8867 88.5518C87.064 89.0384 87.1904 89.6057 87.2588 90.2197C87.3956 91.4475 87.3063 92.9284 86.8525 94.4414C85.9617 97.4119 83.674 100.474 79.0742 101.977L78.6221 102.117C78.1689 102.251 77.9951 102.484 77.8887 102.764C77.7511 103.125 77.7374 103.535 77.7041 104.054C77.6913 104.252 77.6706 104.589 77.5684 104.877C77.5125 105.034 77.4009 105.273 77.167 105.466C76.9048 105.682 76.5922 105.758 76.3057 105.739C76.0516 105.723 75.8342 105.635 75.6768 105.555C75.5116 105.471 75.3484 105.362 75.1895 105.243C74.9425 105.059 74.6564 104.811 74.3242 104.5H70.4102C70.2604 104.641 70.0628 104.818 69.8438 104.984C69.611 105.161 69.2901 105.377 68.9404 105.499C68.6794 105.59 68.1856 105.695 67.7217 105.449C67.518 105.493 67.1873 105.546 66.7988 105.488C65.8303 105.343 64.8297 104.599 63.5918 102.868L63.3408 102.509C62.5746 101.385 61.7486 100.589 61.0088 99.9727C60.6342 99.6608 60.2869 99.3998 59.9619 99.1504C59.6537 98.9139 59.333 98.664 59.082 98.4131C58.7009 98.032 57.2571 96.6303 56.1699 95.0518C55.6308 94.269 55.1236 93.3657 54.9092 92.4658C54.6888 91.5406 54.7552 90.4724 55.5869 89.6406L55.7002 89.5332C55.9714 89.2903 56.291 89.1021 56.6621 89.0195C57.0941 88.9234 57.5 88.9915 57.8477 89.1387C58.4823 89.4074 58.9976 89.9714 59.3916 90.4658C59.8036 90.9829 60.2258 91.6172 60.6045 92.1592C61.0037 92.7305 61.3688 93.2213 61.7246 93.5771L62.0557 93.917C62.6641 94.5596 63.2019 95.2238 63.6826 95.8418C63.261 93.2654 62.3823 90.7032 61.2969 88.4375C59.7588 85.2268 57.8841 82.7607 56.4961 81.7119C53.514 79.721 51.5397 77.978 50.2949 76.4473C49.0454 74.9106 48.4856 73.5296 48.4531 72.291C48.3868 69.7598 50.4825 68.5156 51.123 68.1953L51.3447 68.0918C53.6472 67.0934 56.1538 68.3237 57.7881 69.958L58.0264 70.2031C59.2022 71.4516 60.1628 73.0136 60.916 74.4258C61.6981 75.8921 62.3546 77.4015 62.6992 78.0908C63.0892 78.8707 63.3761 79.2198 63.5986 79.3535C63.7027 79.416 63.9115 79.5163 64.5068 79.2188C64.4964 79.224 64.5477 79.201 64.6357 79.0654C64.7238 78.9296 64.8199 78.7243 64.9141 78.4365C65.1034 77.8581 65.2424 77.0772 65.3379 76.1699C65.5282 74.3616 65.5293 72.2503 65.5293 70.665C65.5293 67.7424 64.0316 63.1825 62.4854 60.0898C61.7447 58.6086 61.0313 57.7355 60.3594 57.1475C59.8499 56.7016 59.3403 56.3962 58.7832 56.1045L58.209 55.8125C57.1722 55.2941 56.7937 54.3273 56.6982 53.5205C56.6046 52.7292 56.7549 51.9482 56.9199 51.4531L56.9736 51.3223L57.0645 51.1582C57.569 50.3185 58.8755 49.1944 61.0176 49.1943L61.2344 49.208C61.7286 49.2721 62.1421 49.5447 62.4434 49.7979C62.8112 50.1071 63.1674 50.5215 63.5049 50.9785C64.183 51.8969 64.8912 53.1343 65.5693 54.4639C65.6781 54.6771 65.7837 54.8952 65.8916 55.1143C65.4343 53.2298 65.0075 51.0657 64.748 48.7305C63.9594 41.6322 63.9541 40.0144 63.9541 39.1719C63.9541 38.6148 64.1918 37.0512 65.0869 35.5967C66.0205 34.0797 67.6935 32.6602 70.4658 32.6602ZM86.7031 62.9893C87.5952 62.7574 88.6309 62.6973 89.4473 63.1055C89.9206 63.3422 90.375 63.6788 90.6973 64.2002C91.0178 64.7188 91.1484 65.3251 91.1484 66C91.1484 66.4963 91.0611 67.0248 90.7451 67.4697C90.4091 67.9428 89.9261 68.1682 89.4512 68.2598C89.0015 68.3465 88.5037 68.3261 88.0107 68.2695C87.759 68.2406 87.4894 68.1997 87.2041 68.1504L86.3037 67.9805C85.559 67.8316 84.6202 68.2861 83.7139 69.0625C83.3524 69.3721 82.8224 69.3838 82.4473 69.0908C82.0723 68.7979 81.9552 68.2811 82.168 67.8555C82.1713 67.8462 82.1783 67.8257 82.1885 67.79C82.2073 67.724 82.2274 67.641 82.2549 67.5234C82.3066 67.302 82.3773 66.9882 82.4893 66.6494C82.7197 65.9519 83.1323 65.1178 83.9912 64.3906L84.2998 64.1445C85.0375 63.5941 85.8882 63.2011 86.7031 62.9893ZM46 54.9209C46.9319 53.96 48.3819 53.5756 50.1914 53.9375L50.6064 54.0322C54.8439 55.1118 57.2939 59.3723 57.2939 62.792C57.2938 63.1606 57.0906 63.4989 56.7656 63.6729C56.4406 63.8468 56.0461 63.8284 55.7393 63.624C55.3857 63.3883 54.7642 63.0216 54.0918 62.7188C53.3894 62.4024 52.7645 62.2169 52.3574 62.2168C52.1927 62.2168 51.9874 62.227 51.7197 62.2412C51.4621 62.2549 51.1601 62.2718 50.8398 62.2783C50.2023 62.2913 49.4436 62.2673 48.6875 62.0928C47.9255 61.9169 47.1317 61.5805 46.4639 60.9453C45.8737 60.3839 45.4318 59.6368 45.1758 58.6846L45.0781 58.2637C44.8552 57.1488 45.0983 55.8508 46 54.9209ZM94.3516 43.7998C96.2817 42.0655 98.5819 42.8955 98.8096 42.8955C99.5282 42.8956 100.163 43.2452 100.599 43.6807C101.034 44.1163 101.384 44.7518 101.384 45.4707C101.384 46.0105 101.116 46.4393 100.845 46.7305C100.568 47.0273 100.212 47.2644 99.8467 47.4473C99.1142 47.8135 98.1733 48.0449 97.2344 48.0449C96.7033 48.045 95.8627 48.161 94.9746 48.3242C94.1056 48.484 93.26 48.676 92.7529 48.8027C92.3742 48.8973 91.9748 48.7625 91.7305 48.458C91.4862 48.1534 91.4416 47.734 91.6162 47.3848C91.9222 46.7729 92.8235 45.3181 94.166 43.9756L94.3516 43.7998ZM85.4248 24C85.9949 24 87.1193 24.2433 88.0947 24.6768C88.5936 24.8985 89.1268 25.2013 89.5498 25.6074C89.9771 26.0177 90.3613 26.606 90.3613 27.3623C90.3612 28.7111 89.3432 29.5616 88.5137 30.0801C87.8873 30.4715 87.0918 30.8331 86.4502 31.1309L85.8721 31.4053C85.3537 31.6645 84.6415 32.19 83.9219 32.793C83.3944 33.2349 82.8978 33.6885 82.5244 34.0459L82.1953 34.3682C81.9776 34.5857 81.6716 34.6908 81.3662 34.6533C81.0606 34.6157 80.7893 34.4389 80.6309 34.1748C80.1925 33.4442 79.6329 32.2408 79.3496 30.9404C79.0727 29.6693 79.0147 28.0893 79.8691 26.8076L80.0479 26.5508C81.9244 23.989 84.6249 24 85.4248 24Z" stroke="black" stroke-width="2" stroke-linejoin="round"/>
<mask id="mask0_275_181" style="mask-type:alpha" maskUnits="userSpaceOnUse" x="34" y="75" width="74" height="33">
<path d="M71 76.5C81.057 76.5 90.0895 78.3213 96.5518 81.2031C99.7846 82.6448 102.309 84.322 104.004 86.1094C105.692 87.889 106.5 89.7082 106.5 91.5C106.5 93.2918 105.692 95.111 104.004 96.8906C102.309 98.678 99.7846 100.355 96.5518 101.797C90.0895 104.679 81.057 106.5 71 106.5C60.943 106.5 51.9105 104.679 45.4482 101.797C42.2154 100.355 39.6914 98.678 37.9961 96.8906C36.3082 95.111 35.5 93.2918 35.5 91.5C35.5 89.7082 36.3082 87.889 37.9961 86.1094C39.6914 84.322 42.2154 82.6448 45.4482 81.2031C51.9105 78.3213 60.943 76.5 71 76.5Z" fill="black" stroke="white" stroke-width="3"/>
</mask>
<g mask="url(#mask0_275_181)">
<path d="M39 93C39 93 39.7667 89.5499 45 86.3495M103 93C103 93 102.517 90.8284 99.7048 88.3329M49.5 84.1741C52.0236 83.2124 55.1442 82.3762 59 81.8038M61.7902 81.4512C64.5231 81.1631 67.5803 81 71 81C85.6667 81 93.6667 84 98 87" stroke="white" stroke-opacity="0.6" stroke-width="2" stroke-linecap="round"/>
<g filter="url(#filter2_i_275_181)">
<path d="M97.2347 47.0451C95.9749 47.0451 93.5605 47.57 92.5107 47.8324C92.7731 47.3075 93.613 45.9428 94.8727 44.6831C96.4473 43.1085 98.022 43.8958 98.8093 43.8958C99.5966 43.8958 100.384 44.6831 100.384 45.4704C100.384 46.2578 98.8093 47.0451 97.2347 47.0451Z" fill="#54B3F3"/>
<path d="M74.724 114.5C78.3389 118 75.1896 103.087 78.3389 101.158C86.4519 96.1903 86.9995 89.5611 85.4248 87.9865C83.8502 86.4118 80.7009 88.7738 78.3389 91.1358C75.9769 93.4977 76.7642 98.2216 75.1896 98.2216C73.6149 98.2216 73.6149 89.561 74.4023 87.1991C75.1896 84.8371 78.3389 77.7512 83.8502 77.7512C89.3614 77.7512 90.1488 75.3892 90.1488 74.6019C90.1488 73.8145 90.9361 71.4526 85.4248 71.4526C81.0158 71.4526 76.7642 75.1267 75.1896 76.9638C74.4023 73.5521 74.2448 66.0988 79.9135 63.5793C86.9995 60.43 91.7234 61.2173 94.0854 59.6427C95.975 58.383 96.7204 57.515 96.4473 55.7057C96.1743 53.8963 92.9831 52.084 88.5741 53.3437C83.0628 54.9183 79.9135 58.8551 79.1262 57.2805C78.3389 55.7058 80.7009 49.4073 86.9995 46.258C93.2981 43.1087 93.2981 39.172 92.5107 37.5974C91.7234 36.0227 86.2121 32.0861 79.9135 40.7467C73.6149 49.4073 74.4023 60.4296 73.6149 60.4296C72.8276 60.4296 70.4656 60.4296 71.253 54.131C72.0403 47.8324 75.1896 43.8958 75.1896 39.9592C75.1896 39.1718 75.1896 33.6606 70.4656 33.6606C65.7417 33.6606 64.9544 38.3845 64.9544 39.1718C64.9544 39.9592 64.9543 41.5338 65.7417 48.6197C66.529 55.7057 68.891 61.2169 68.891 62.0043C68.891 62.6341 68.3661 62.7916 68.1037 62.7916C66.529 58.5925 62.9073 50.1944 61.0177 50.1944C59.1282 50.1944 58.1309 51.2442 57.8684 51.769C57.606 52.5564 57.396 54.2885 58.6558 54.9183C60.2304 55.7057 61.8051 56.493 63.3797 59.6423C64.9544 62.7916 66.529 67.5155 66.529 70.6648C66.529 73.8141 66.529 79.3254 64.9544 80.1127C63.3797 80.9 62.5924 80.1127 61.8051 78.5381C61.0177 76.9634 59.443 73.0268 57.0811 70.6648C55.5064 69.0902 53.3499 68.2001 51.5698 69.0902C50.3854 69.6824 45.2712 73.0268 57.0811 80.9C60.2304 83.262 64.9543 91.4502 64.9543 99.0085C63.9046 97.9587 62.7158 95.9826 61.0177 94.2846C59.3197 92.5865 57.8684 88.7733 56.2938 90.3479C54.2865 92.3552 59.0017 96.9186 59.7891 97.7059C60.5764 98.4932 62.5 100.5 64.167 102.945C66.8296 106.851 67.6037 115 68.1037 115.5C68.6037 116 70 114.5 70 114.5H74.724Z" fill="#54B3F3"/>
<path d="M46.0585 58.0676C45.7175 56.3626 46.8458 54.2885 49.9951 54.9183C53.9318 55.7057 56.2937 59.6423 56.2937 62.7916C55.5064 62.2667 53.6168 61.2169 52.3571 61.2169C50.7825 61.2169 46.8458 62.0042 46.0585 58.0676Z" fill="#54B3F3"/>
<path d="M81.4882 33.6606C82.2755 32.8732 84.1651 31.1411 85.4248 30.5113C86.9994 29.7239 89.3614 28.9366 89.3614 27.362C89.3614 25.7873 86.2121 25 85.4248 25C84.6375 25 82.2755 25 80.7008 27.362C79.4411 29.2516 80.7008 32.3484 81.4882 33.6606Z" fill="#54B3F3"/>
<path d="M85.4248 67.5155C84.1651 67.5155 84.1126 68.0404 83.0628 68.3028C83.3252 67.778 83.044 65.9503 84.6375 65.1535C86.2121 64.3662 86.9994 64.3662 87.7868 64.3662C88.5741 64.3662 89.3614 64.8471 89.3614 65.9409C89.3614 67.5155 86.9994 67.5155 85.4248 67.5155Z" fill="#54B3F3"/>
</g>
<path d="M70.4658 32.6602C71.8566 32.6602 72.9656 33.0722 73.8193 33.752C74.6583 34.42 75.189 35.2977 75.5273 36.1436C76.1948 37.8122 76.1895 39.5559 76.1895 39.959C76.1895 42.1552 75.3114 44.3152 74.4473 46.5234C73.5621 48.7856 72.6218 51.2417 72.2451 54.2549C71.8587 57.3459 72.2974 58.5804 72.6436 59.042C72.738 59.1679 72.8391 59.2512 72.9443 59.3086C72.977 59.0795 73.0123 58.7974 73.0518 58.457C73.1859 57.2986 73.3617 55.6155 73.7129 53.6592C74.4144 49.7507 75.8291 44.6618 79.1045 40.1582C82.3763 35.6595 85.6142 34.2172 88.3223 34.335C89.6484 34.3926 90.7738 34.8253 91.627 35.3604C92.4555 35.88 93.1024 36.5447 93.4053 37.1504C93.9358 38.2115 94.1321 39.9005 93.3281 41.7383C92.5203 43.5844 90.7409 45.5051 87.4463 47.1523C84.491 48.6301 82.4611 50.8468 81.2666 52.8682C80.6686 53.8801 80.2926 54.8229 80.1104 55.5732C80.0193 55.9485 79.9816 56.2561 79.9805 56.4883C79.9804 56.5082 79.981 56.5276 79.9814 56.5459C80.3364 56.3917 80.8319 56.0936 81.5488 55.6455C83.1145 54.6669 85.3907 53.213 88.2998 52.3818L88.7432 52.2637C90.9479 51.7186 92.9078 51.8698 94.415 52.4385C95.9668 53.024 97.2235 54.145 97.4365 55.5566C97.5999 56.6397 97.4687 57.5708 96.917 58.4238C96.4709 59.1135 95.7909 59.6802 94.9902 60.2363L94.6396 60.4746C93.8961 60.9703 93.0158 61.2489 92.0879 61.4551C91.1674 61.6596 90.0813 61.8159 88.9355 62.0068C86.7559 62.3701 84.1068 62.8964 80.9561 64.2178L80.3193 64.4932C77.8718 65.5811 76.6363 67.7382 76.1074 70.1514C75.7534 71.7672 75.733 73.4422 75.8672 74.8525C76.6543 74.1357 77.6203 73.3651 78.709 72.6748C80.601 71.4752 82.955 70.4521 85.4248 70.4521C88.2395 70.4521 89.8737 71.0402 90.667 72.1504C91.0632 72.7051 91.1677 73.2865 91.1846 73.7402C91.1929 73.9638 91.1806 74.1662 91.1689 74.3174C91.1551 74.4978 91.1485 74.5542 91.1484 74.6016C91.1484 75.2946 90.8162 76.3768 89.6797 77.2607C88.5559 78.1347 86.7333 78.7509 83.8506 78.751C81.5579 78.751 79.6513 80.2255 78.1504 82.1953C76.6632 84.1472 75.7223 86.4005 75.3506 87.5156C75.1951 87.9824 75.0538 88.8629 74.9688 89.9932C74.8856 91.0984 74.8615 92.3637 74.9092 93.5557C74.9557 94.7197 75.0706 95.7681 75.2461 96.5176C75.3206 96.2058 75.3966 95.8268 75.4883 95.3682C75.7748 93.9358 76.205 91.8556 77.6318 90.4287C78.836 89.2246 80.2954 87.9621 81.7031 87.2041C82.4053 86.826 83.1651 86.5346 83.9189 86.4844C84.7089 86.4317 85.5006 86.6481 86.1318 87.2793C86.7729 87.9204 87.0728 88.9176 87.1221 89.9629C87.1728 91.0413 86.9677 92.3116 86.4482 93.6592C85.4376 96.2808 83.2238 99.2368 79.251 101.768L78.8613 102.011C78.7403 102.085 78.55 102.29 78.3623 102.784C78.1802 103.264 78.0438 103.902 77.9463 104.674C77.7507 106.221 77.7356 108.09 77.7061 109.881C77.6915 110.763 77.6731 111.626 77.624 112.39C77.5758 113.141 77.4945 113.86 77.334 114.433C77.2537 114.719 77.1393 115.024 76.9619 115.289C76.7805 115.561 76.4929 115.848 76.0645 115.972C75.6329 116.096 75.2254 116.005 74.9014 115.854C74.7079 115.763 74.525 115.64 74.3496 115.5H70.4102C70.2604 115.641 70.0628 115.818 69.8438 115.984C69.611 116.161 69.2901 116.377 68.9404 116.499C68.6168 116.612 67.9353 116.746 67.3965 116.207C67.2017 116.012 67.1078 115.77 67.0723 115.678C67.0202 115.542 66.9745 115.388 66.9336 115.234C66.8512 114.925 66.765 114.525 66.6729 114.078C66.4847 113.165 66.263 112.002 65.9717 110.722C65.4186 108.291 64.6558 105.642 63.5635 103.854L63.3408 103.509C61.7247 101.138 59.8508 99.1819 59.082 98.4131C58.7009 98.032 57.2571 96.6303 56.1699 95.0518C55.6308 94.269 55.1236 93.3657 54.9092 92.4658C54.6888 91.5406 54.7552 90.4724 55.5869 89.6406L55.7002 89.5332C55.9714 89.2903 56.291 89.1021 56.6621 89.0195C57.0941 88.9234 57.5 88.9915 57.8477 89.1387C58.4823 89.4074 58.9976 89.9714 59.3916 90.4658C59.8036 90.9829 60.2258 91.6172 60.6045 92.1592C61.0037 92.7305 61.3688 93.2213 61.7246 93.5771L62.0557 93.917C62.6641 94.5596 63.2019 95.2238 63.6826 95.8418C63.261 93.2654 62.3823 90.7032 61.2969 88.4375C59.7588 85.2268 57.8841 82.7607 56.4961 81.7119C53.514 79.721 51.5397 77.978 50.2949 76.4473C49.0454 74.9106 48.4856 73.5296 48.4531 72.291C48.3868 69.7598 50.4825 68.5156 51.123 68.1953L51.3447 68.0918C53.6472 67.0934 56.1538 68.3237 57.7881 69.958L58.0264 70.2031C59.2022 71.4516 60.1628 73.0136 60.916 74.4258C61.6981 75.8921 62.3546 77.4015 62.6992 78.0908C63.0892 78.8707 63.3761 79.2198 63.5986 79.3535C63.7027 79.416 63.9115 79.5163 64.5068 79.2188C64.4964 79.224 64.5477 79.201 64.6357 79.0654C64.7238 78.9296 64.8199 78.7243 64.9141 78.4365C65.1034 77.8581 65.2424 77.0772 65.3379 76.1699C65.5282 74.3616 65.5293 72.2503 65.5293 70.665C65.5293 67.7424 64.0316 63.1825 62.4854 60.0898C61.7447 58.6086 61.0313 57.7355 60.3594 57.1475C59.8499 56.7016 59.3403 56.3962 58.7832 56.1045L58.209 55.8125C57.1722 55.2941 56.7937 54.3273 56.6982 53.5205C56.6046 52.7292 56.7549 51.9482 56.9199 51.4531L56.9736 51.3223L57.0645 51.1582C57.569 50.3185 58.8755 49.1944 61.0176 49.1943L61.2344 49.208C61.7286 49.2721 62.1421 49.5447 62.4434 49.7979C62.8112 50.1071 63.1674 50.5215 63.5049 50.9785C64.183 51.8969 64.8912 53.1343 65.5693 54.4639C65.6781 54.6771 65.7837 54.8952 65.8916 55.1143C65.4343 53.2298 65.0075 51.0657 64.748 48.7305C63.9594 41.6322 63.9541 40.0144 63.9541 39.1719C63.9541 38.6148 64.1918 37.0512 65.0869 35.5967C66.0205 34.0797 67.6935 32.6602 70.4658 32.6602ZM87.7871 63.3662C88.3728 63.3663 89.0143 63.5445 89.5254 63.9893C90.059 64.4537 90.3612 65.1325 90.3613 65.9404C90.3613 66.622 90.0902 67.1866 89.6367 67.5947C89.2191 67.9705 88.6967 68.1715 88.2266 68.2891C87.2964 68.5216 86.1795 68.5156 85.4248 68.5156C84.9798 68.5156 84.8146 68.596 84.6426 68.6895C84.4149 68.8132 83.9888 69.1026 83.3057 69.2734C82.9269 69.3681 82.5276 69.2331 82.2832 68.9287C82.0693 68.6621 82.008 68.3077 82.1133 67.9893L82.1484 67.9023C82.1484 67.9023 82.153 67.8871 82.1602 67.8516C82.1736 67.7851 82.1869 67.6979 82.2051 67.5654C82.2387 67.3209 82.2844 66.9567 82.3828 66.5781C82.5871 65.7921 83.0453 64.8313 84.1904 64.2588L84.5 64.1094C85.2055 63.7794 85.7882 63.589 86.3115 63.4844C86.91 63.3647 87.3919 63.3662 87.7871 63.3662ZM46 54.9209C46.9319 53.96 48.3819 53.5756 50.1914 53.9375L50.6064 54.0322C54.8439 55.1118 57.2939 59.3723 57.2939 62.792C57.2938 63.1606 57.0906 63.4989 56.7656 63.6729C56.4406 63.8468 56.0461 63.8284 55.7393 63.624C55.3857 63.3883 54.7642 63.0216 54.0918 62.7188C53.3894 62.4024 52.7645 62.2169 52.3574 62.2168C52.1927 62.2168 51.9874 62.227 51.7197 62.2412C51.4621 62.2549 51.1601 62.2718 50.8398 62.2783C50.2023 62.2913 49.4436 62.2673 48.6875 62.0928C47.9255 61.9169 47.1317 61.5805 46.4639 60.9453C45.8737 60.3839 45.4318 59.6368 45.1758 58.6846L45.0781 58.2637C44.8552 57.1488 45.0983 55.8508 46 54.9209ZM94.3516 43.7998C96.2817 42.0655 98.5819 42.8955 98.8096 42.8955C99.5282 42.8956 100.163 43.2452 100.599 43.6807C101.034 44.1163 101.384 44.7518 101.384 45.4707C101.384 46.0105 101.116 46.4393 100.845 46.7305C100.568 47.0273 100.212 47.2644 99.8467 47.4473C99.1142 47.8135 98.1733 48.0449 97.2344 48.0449C96.7033 48.045 95.8627 48.161 94.9746 48.3242C94.1056 48.484 93.26 48.676 92.7529 48.8027C92.3742 48.8973 91.9748 48.7625 91.7305 48.458C91.4862 48.1534 91.4416 47.734 91.6162 47.3848C91.9222 46.7729 92.8235 45.3181 94.166 43.9756L94.3516 43.7998ZM85.4248 24C85.9949 24 87.1193 24.2433 88.0947 24.6768C88.5936 24.8985 89.1268 25.2013 89.5498 25.6074C89.9771 26.0177 90.3613 26.606 90.3613 27.3623C90.3612 28.7111 89.3432 29.5616 88.5137 30.0801C87.8873 30.4715 87.0918 30.8331 86.4502 31.1309L85.8721 31.4053C85.3537 31.6645 84.6415 32.19 83.9219 32.793C83.3944 33.2349 82.8978 33.6885 82.5244 34.0459L82.1953 34.3682C81.9776 34.5857 81.6716 34.6908 81.3662 34.6533C81.0606 34.6157 80.7893 34.4389 80.6309 34.1748C80.1925 33.4442 79.6329 32.2408 79.3496 30.9404C79.0727 29.6693 79.0147 28.0893 79.8691 26.8076L80.0479 26.5508C81.9244 23.989 84.6249 24 85.4248 24Z" stroke="black" stroke-width="2" stroke-linejoin="round"/>
</g>
<defs>
<filter id="filter0_i_275_181" x="39.0021" y="19.9999" width="66.3818" height="91.1056" filterUnits="userSpaceOnUse" color-interpolation-filters="sRGB">
<feFlood flood-opacity="0" result="BackgroundImageFix"/>
<feBlend mode="normal" in="SourceGraphic" in2="BackgroundImageFix" result="shape"/>
<feColorMatrix in="SourceAlpha" type="matrix" values="0 0 0 0 0 0 0 0 0 0 0 0 0 0 0 0 0 0 127 0" result="hardAlpha"/>
<feOffset dx="-3" dy="4"/>
<feGaussianBlur stdDeviation="1"/>
<feComposite in2="hardAlpha" operator="arithmetic" k2="-1" k3="1"/>
<feColorMatrix type="matrix" values="0 0 0 0 0.0252778 0 0 0 0 0.390963 0 0 0 0 0.733056 0 0 0 0.62 0"/>
<feBlend mode="normal" in2="shape" result="effect1_innerShadow_275_181"/>
</filter>
<filter id="filter1_i_275_181" x="42.0009" y="23" width="60.3831" height="85.7418" filterUnits="userSpaceOnUse" color-interpolation-filters="sRGB">
<feFlood flood-opacity="0" result="BackgroundImageFix"/>
<feBlend mode="normal" in="SourceGraphic" in2="BackgroundImageFix" result="shape"/>
<feColorMatrix in="SourceAlpha" type="matrix" values="0 0 0 0 0 0 0 0 0 0 0 0 0 0 0 0 0 0 127 0" result="hardAlpha"/>
<feOffset dx="-3" dy="4"/>
<feGaussianBlur stdDeviation="1"/>
<feComposite in2="hardAlpha" operator="arithmetic" k2="-1" k3="1"/>
<feColorMatrix type="matrix" values="0 0 0 0 0.0252778 0 0 0 0 0.390963 0 0 0 0 0.733056 0 0 0 0.62 0"/>
<feBlend mode="normal" in2="shape" result="effect1_innerShadow_275_181"/>
</filter>
<filter id="filter2_i_275_181" x="42.0009" y="23" width="60.3831" height="96.6003" filterUnits="userSpaceOnUse" color-interpolation-filters="sRGB">
<feFlood flood-opacity="0" result="BackgroundImageFix"/>
<feBlend mode="normal" in="SourceGraphic" in2="BackgroundImageFix" result="shape"/>
<feColorMatrix in="SourceAlpha" type="matrix" values="0 0 0 0 0 0 0 0 0 0 0 0 0 0 0 0 0 0 127 0" result="hardAlpha"/>
<feOffset dx="-3" dy="4"/>
<feGaussianBlur stdDeviation="1"/>
<feComposite in2="hardAlpha" operator="arithmetic" k2="-1" k3="1"/>
<feColorMatrix type="matrix" values="0 0 0 0 0.0252778 0 0 0 0 0.390963 0 0 0 0 0.733056 0 0 0 0.62 0"/>
<feBlend mode="normal" in2="shape" result="effect1_innerShadow_275_181"/>
</filter>
</defs>
</svg>
