<svg width="140" height="140" viewBox="0 0 140 140" fill="none" xmlns="http://www.w3.org/2000/svg">
<path d="M71 1C106.899 1 136 30.1015 136 66C136 101.899 106.899 131 71 131C56.0255 131 44.0339 127.845 33.0469 119.307C32.9367 119.406 32.814 119.519 32.6777 119.642C32.0431 120.214 31.1343 121.028 30.0381 121.999C27.8464 123.94 24.901 126.51 21.8906 129.019C18.8853 131.523 15.7947 133.984 13.3193 135.697C12.0879 136.55 10.9697 137.245 10.0713 137.664C9.62812 137.871 9.18022 138.038 8.7666 138.104C8.39071 138.163 7.76482 138.179 7.29297 137.707C6.86198 137.276 6.81946 136.684 6.82812 136.315C6.8381 135.893 6.92833 135.409 7.05957 134.906C7.32448 133.891 7.80855 132.598 8.42383 131.154C9.65898 128.256 11.4871 124.603 13.3652 121.034C15.2461 117.46 17.1888 113.952 18.6602 111.338C19.3961 110.03 20.0145 108.945 20.4492 108.188C20.57 107.977 20.6766 107.792 20.7676 107.634C10.3734 96.1265 6 82.7067 6 66C6 30.1015 35.1015 1 71 1Z" stroke="black" stroke-width="2"/>
<path d="M71 3.5C105.518 3.5 133.5 31.4822 133.5 66C133.5 100.518 105.518 128.5 71 128.5C56.1345 128.5 44.5569 125.326 33.9375 116.829L32.9355 116.027L31.9883 116.893H31.9873L31.9727 116.907C31.9619 116.917 31.9452 116.932 31.9238 116.951C31.8808 116.99 31.8171 117.049 31.7334 117.125C31.5657 117.277 31.3188 117.5 31.0039 117.784C30.3739 118.352 29.4708 119.162 28.3809 120.127C26.1998 122.059 23.2743 124.611 20.29 127.098C17.2982 129.591 14.2771 131.993 11.8965 133.642C11.0026 134.26 10.2305 134.75 9.60449 135.095C9.84316 134.311 10.2228 133.31 10.7236 132.135C11.9178 129.333 13.7071 125.751 15.5771 122.198C17.4432 118.653 19.3741 115.166 20.8389 112.563C21.5708 111.263 22.1854 110.184 22.6172 109.432C22.8331 109.055 23.0032 108.76 23.1191 108.56C23.1771 108.459 23.2221 108.383 23.252 108.331C23.2667 108.306 23.2777 108.286 23.2852 108.273C23.2889 108.267 23.2921 108.262 23.2939 108.259C23.2947 108.257 23.2955 108.257 23.2959 108.256L23.2969 108.255C23.297 108.255 23.2965 108.254 22 107.5L23.2969 108.254L23.8545 107.296L23.1016 106.481C12.8511 95.3964 8.5 82.4621 8.5 66C8.5 31.4822 36.4822 3.5 71 3.5Z" fill="#0099FF" stroke="white" stroke-width="3"/>
<path d="M89 35.5C91.4853 35.5 93.5 37.5147 93.5 40V95C93.5 97.4853 91.4853 99.5 89 99.5H54C51.5147 99.5 49.5 97.4853 49.5 95V40C49.5 37.5147 51.5147 35.5 54 35.5H89Z" fill="#D9D9D9" stroke="white" stroke-width="5"/>
<path fill-rule="evenodd" clip-rule="evenodd" d="M54 36H89C91.2091 36 93 37.7909 93 40V95C93 97.2091 91.2091 99 89 99H54C51.7909 99 50 97.2091 50 95V40C50 37.7909 51.7909 36 54 36ZM54 38C52.8954 38 52 38.8954 52 40V95C52 96.1046 52.8954 97 54 97H89C90.1046 97 91 96.1046 91 95V40C91 38.8954 90.1046 38 89 38H54Z" fill="black"/>
<path d="M69 49C69 50.6569 70.3431 52 72 52C73.6569 52 75 50.6569 75 49L69 49ZM72 38L69 38L69 49L72 49L75 49L75 38L72 38Z" fill="white"/>
<path d="M72 73L72 64" stroke="white" stroke-width="6" stroke-linecap="round"/>
<path d="M37 76C43.1818 84 52.4545 84 58.6364 76C64.8182 84 77.1818 84 83.3636 76C89.5455 84 98.8182 84 105 76" stroke="white" stroke-width="9" stroke-linecap="round" stroke-linejoin="round"/>
<path d="M37 76C43.1818 84 52.4545 84 58.6364 76C64.8182 84 77.1818 84 83.3636 76C89.5455 84 98.8182 84 105 76" stroke="#0099FF" stroke-width="2" stroke-linecap="round" stroke-linejoin="round"/>
<path d="M37 85C43.1818 93 52.4545 93 58.6364 85C64.8182 93 77.1818 93 83.3636 85C89.5455 93 98.8182 93 105 85" stroke="white" stroke-width="9" stroke-linecap="round" stroke-linejoin="round"/>
<path d="M37 85C43.1818 93 52.4545 93 58.6364 85C64.8182 93 77.1818 93 83.3636 85C89.5455 93 98.8182 93 105 85" stroke="#0099FF" stroke-width="2" stroke-linecap="round" stroke-linejoin="round"/>
<path d="M37 94C43.1818 102 52.4545 102 58.6364 94C64.8182 102 77.1818 102 83.3636 94C89.5455 102 98.8182 102 105 94" stroke="white" stroke-width="9" stroke-linecap="round" stroke-linejoin="round"/>
<path d="M37 94C43.1818 102 52.4545 102 58.6364 94C64.8182 102 77.1818 102 83.3636 94C89.5455 102 98.8182 102 105 94" stroke="#0099FF" stroke-width="2" stroke-linecap="round" stroke-linejoin="round"/>
</svg>
