<svg width="140" height="140" viewBox="0 0 140 140" fill="none" xmlns="http://www.w3.org/2000/svg">
<path d="M71 1C106.899 1 136 30.1015 136 66C136 101.899 106.899 131 71 131C56.0255 131 44.0339 127.845 33.0469 119.307C32.9367 119.406 32.814 119.519 32.6777 119.642C32.0431 120.214 31.1343 121.028 30.0381 121.999C27.8464 123.94 24.901 126.51 21.8906 129.019C18.8853 131.523 15.7947 133.984 13.3193 135.697C12.0879 136.55 10.9697 137.245 10.0713 137.664C9.62812 137.871 9.18022 138.038 8.7666 138.104C8.39071 138.163 7.76482 138.179 7.29297 137.707C6.86198 137.276 6.81946 136.684 6.82812 136.315C6.8381 135.893 6.92833 135.409 7.05957 134.906C7.32448 133.891 7.80855 132.598 8.42383 131.154C9.65898 128.256 11.4871 124.603 13.3652 121.034C15.2461 117.46 17.1888 113.952 18.6602 111.338C19.3961 110.03 20.0145 108.945 20.4492 108.188C20.57 107.977 20.6766 107.792 20.7676 107.634C10.3734 96.1265 6 82.7067 6 66C6 30.1015 35.1015 1 71 1Z" stroke="black" stroke-width="2"/>
<path d="M71 3.5C105.518 3.5 133.5 31.4822 133.5 66C133.5 100.518 105.518 128.5 71 128.5C56.1345 128.5 44.5569 125.326 33.9375 116.829L32.9355 116.027L31.9883 116.893H31.9873L31.9727 116.907C31.9619 116.917 31.9452 116.932 31.9238 116.951C31.8808 116.99 31.8171 117.049 31.7334 117.125C31.5657 117.277 31.3188 117.5 31.0039 117.784C30.3739 118.352 29.4708 119.162 28.3809 120.127C26.1998 122.059 23.2743 124.611 20.29 127.098C17.2982 129.591 14.2771 131.993 11.8965 133.642C11.0026 134.26 10.2305 134.75 9.60449 135.095C9.84316 134.311 10.2228 133.31 10.7236 132.135C11.9178 129.333 13.7071 125.751 15.5771 122.198C17.4432 118.653 19.3741 115.166 20.8389 112.563C21.5708 111.263 22.1854 110.184 22.6172 109.432C22.8331 109.055 23.0032 108.76 23.1191 108.56C23.1771 108.459 23.2221 108.383 23.252 108.331C23.2667 108.306 23.2777 108.286 23.2852 108.273C23.2889 108.267 23.2921 108.262 23.2939 108.259C23.2947 108.257 23.2955 108.257 23.2959 108.256L23.2969 108.255C23.297 108.255 23.2965 108.254 22 107.5L23.2969 108.254L23.8545 107.296L23.1016 106.481C12.8511 95.3964 8.5 82.4621 8.5 66C8.5 31.4822 36.4822 3.5 71 3.5Z" fill="#0099FF" stroke="white" stroke-width="3"/>
<path d="M85.4531 42.7947C94.0849 43.5749 101.807 45.8439 107.317 48.9235C110.071 50.4626 112.315 52.2278 113.835 54.1506C115.359 56.0791 116.19 58.2154 115.989 60.4393C115.788 62.6632 114.588 64.6159 112.742 66.24C110.902 67.8592 108.378 69.1933 105.393 70.2136C99.4194 72.2552 91.416 73.1029 82.7841 72.3227C74.1522 71.5425 66.4305 69.2735 60.9199 66.1939C58.1659 64.6548 55.9218 62.8897 54.4021 60.9668C52.8779 59.0382 52.0475 56.902 52.2485 54.6781C52.4495 52.4542 53.6495 50.5014 55.4948 48.8774C57.3347 47.2583 59.8589 45.9241 62.8443 44.9037C68.8178 42.8622 76.8212 42.0145 85.4531 42.7947Z" fill="#545454" stroke="black" stroke-width="2"/>
<path d="M63 58.4995C73.0405 58.4995 82.0567 60.4827 88.5068 63.6206C95.0587 66.808 98.5 70.9249 98.5 74.9995C98.5 79.0741 95.0587 83.191 88.5068 86.3784C82.0567 89.5163 73.0405 91.4995 63 91.4995C52.9595 91.4995 43.9433 89.5163 37.4932 86.3784C30.9413 83.191 27.5 79.0741 27.5 74.9995C27.5 70.9249 30.9413 66.808 37.4932 63.6206C43.9433 60.4827 52.9595 58.4995 63 58.4995Z" fill="black" stroke="white" stroke-width="3"/>
<path d="M31 74C31 74 31.7667 70.5499 37 67.3495M95 74C95 74 94.5174 71.8284 91.7048 69.3329M41.5 65.1741C44.0236 64.2124 47.1442 63.3762 51 62.8038M53.7902 62.4512C56.5231 62.1631 59.5803 62 63 62C77.6667 62 85.6667 65 90 68" stroke="white" stroke-opacity="0.6" stroke-width="2" stroke-linecap="round"/>
<path d="M85.408 42.2926C93.9869 43.068 101.638 45.3223 107.074 48.3604C109.791 49.8791 111.977 51.6057 113.443 53.4613C114.912 55.3197 115.677 57.332 115.491 59.3943C115.304 61.4567 114.191 63.3 112.412 64.865C110.637 66.4276 108.177 67.7343 105.232 68.7412C99.3388 70.7552 91.4079 71.6002 82.8291 70.8248C74.2503 70.0493 66.5995 67.7961 61.1633 64.758C58.4458 63.2393 56.2604 61.5127 54.7939 59.6571C53.325 57.7986 52.5601 55.7855 52.7465 53.7231C52.9329 51.6608 54.0465 49.8183 55.8246 48.2534C57.6001 46.6908 60.0597 45.384 63.0054 44.3772C68.8983 42.3631 76.8292 41.5172 85.408 42.2926Z" fill="#545454" stroke="black"/>
<path fill-rule="evenodd" clip-rule="evenodd" d="M110.421 62.6024C111.796 61.3931 112.391 60.2125 112.489 59.1231C112.588 58.0337 112.214 56.7655 111.079 55.3294C109.933 53.8791 108.101 52.386 105.604 50.9906C100.616 48.2029 93.395 46.0403 85.1368 45.2939C76.8785 44.5475 69.3872 45.3803 63.9801 47.2284C61.2734 48.1535 59.2033 49.2939 57.8157 50.5151C56.4416 51.7245 55.8462 52.9051 55.7477 53.9945C55.6493 55.0838 56.0233 56.3521 57.1583 57.7882C58.3045 59.2385 60.1365 60.7316 62.6335 62.127C67.6216 64.9146 74.8422 67.0773 83.1004 67.8237C91.3586 68.5701 98.8499 67.7373 104.257 65.8892C106.964 64.9641 109.034 63.8237 110.421 62.6024ZM82.8741 70.327C99.9254 71.8682 114.305 66.9534 114.993 59.3494C115.68 51.7454 102.414 44.3318 85.363 42.7906C68.3117 41.2494 53.9317 46.1642 53.2444 53.7682C52.5571 61.3722 65.8228 68.7858 82.8741 70.327Z" fill="#878787"/>
<g style="mix-blend-mode:exclusion">
<mask id="mask0_275_181" style="mask-type:alpha" maskUnits="userSpaceOnUse" x="53" y="42" width="63" height="29">
<path d="M114.993 59.3494C114.305 66.9534 99.9254 71.8682 82.8741 70.327C65.8228 68.7858 52.5571 61.3722 53.2444 53.7682C53.9317 46.1642 68.3117 41.2494 85.363 42.7906C102.414 44.3318 115.68 51.7454 114.993 59.3494Z" fill="black"/>
</mask>
<g mask="url(#mask0_275_181)">
<rect x="52.5928" y="49.8694" width="64" height="1" transform="rotate(5.16471 52.5928 49.8694)" fill="#D9D9D9"/>
<rect x="51.5125" y="61.8207" width="64" height="1" transform="rotate(5.16471 51.5125 61.8207)" fill="#D9D9D9"/>
<rect x="51.1525" y="65.8044" width="64" height="1" transform="rotate(5.16471 51.1525 65.8044)" fill="#D9D9D9"/>
<rect x="52.9528" y="45.8856" width="64" height="1" transform="rotate(5.16471 52.9528 45.8856)" fill="#D9D9D9"/>
<rect x="53.3129" y="41.9019" width="64" height="1" transform="rotate(5.16471 53.3129 41.9019)" fill="#D9D9D9"/>
<rect x="51.8726" y="57.8369" width="64" height="1" transform="rotate(5.16471 51.8726 57.8369)" fill="#D9D9D9"/>
<rect x="52.2327" y="53.8531" width="64" height="1" transform="rotate(5.16471 52.2327 53.8531)" fill="#D9D9D9"/>
</g>
<mask id="mask1_275_181" style="mask-type:alpha" maskUnits="userSpaceOnUse" x="53" y="42" width="63" height="29">
<path d="M114.993 59.3494C114.305 66.9534 99.9254 71.8682 82.8741 70.327C65.8228 68.7858 52.5571 61.3722 53.2444 53.7682C53.9317 46.1642 68.3117 41.2494 85.363 42.7906C102.414 44.3318 115.68 51.7454 114.993 59.3494Z" fill="black"/>
</mask>
<g mask="url(#mask1_275_181)">
<rect x="49.2122" y="33.3564" width="84" height="1" transform="rotate(28.3025 49.2122 33.3564)" fill="#D9D9D9"/>
<rect x="43.5226" y="43.9218" width="84" height="1" transform="rotate(28.3025 43.5226 43.9218)" fill="#D9D9D9"/>
<rect x="41.6261" y="47.4437" width="84" height="1" transform="rotate(28.3025 41.6261 47.4437)" fill="#D9D9D9"/>
<rect x="51.1086" y="29.8345" width="84" height="1" transform="rotate(28.3025 51.1086 29.8345)" fill="#D9D9D9"/>
<rect x="53.0051" y="26.3127" width="84" height="1" transform="rotate(28.3025 53.0051 26.3127)" fill="#D9D9D9"/>
<rect x="45.4191" y="40.4" width="84" height="1" transform="rotate(28.3025 45.4191 40.4)" fill="#D9D9D9"/>
<rect x="47.3156" y="36.8782" width="84" height="1" transform="rotate(28.3025 47.3156 36.8782)" fill="#D9D9D9"/>
</g>
</g>
</svg>
