<svg width="140" height="140" viewBox="0 0 140 140" fill="none" xmlns="http://www.w3.org/2000/svg">
<path d="M71 1C106.899 1 136 30.1015 136 66C136 101.899 106.899 131 71 131C56.0255 131 44.0339 127.845 33.0469 119.307C32.9367 119.406 32.814 119.519 32.6777 119.642C32.0431 120.214 31.1343 121.028 30.0381 121.999C27.8464 123.94 24.901 126.51 21.8906 129.019C18.8853 131.523 15.7947 133.984 13.3193 135.697C12.0879 136.55 10.9697 137.245 10.0713 137.664C9.62812 137.871 9.18022 138.038 8.7666 138.104C8.39071 138.163 7.76482 138.179 7.29297 137.707C6.86198 137.276 6.81946 136.684 6.82812 136.315C6.8381 135.893 6.92833 135.409 7.05957 134.906C7.32448 133.891 7.80855 132.598 8.42383 131.154C9.65898 128.256 11.4871 124.603 13.3652 121.034C15.2461 117.46 17.1888 113.952 18.6602 111.338C19.3961 110.03 20.0145 108.945 20.4492 108.188C20.57 107.977 20.6766 107.792 20.7676 107.634C10.3734 96.1265 6 82.7067 6 66C6 30.1015 35.1015 1 71 1Z" stroke="black" stroke-width="2"/>
<path d="M71 3.5C105.518 3.5 133.5 31.4822 133.5 66C133.5 100.518 105.518 128.5 71 128.5C56.1345 128.5 44.5569 125.326 33.9375 116.829L32.9355 116.027L31.9883 116.893H31.9873L31.9727 116.907C31.9619 116.917 31.9452 116.932 31.9238 116.951C31.8808 116.99 31.8171 117.049 31.7334 117.125C31.5657 117.277 31.3188 117.5 31.0039 117.784C30.3739 118.352 29.4708 119.162 28.3809 120.127C26.1998 122.059 23.2743 124.611 20.29 127.098C17.2982 129.591 14.2771 131.993 11.8965 133.642C11.0026 134.26 10.2305 134.75 9.60449 135.095C9.84316 134.311 10.2228 133.31 10.7236 132.135C11.9178 129.333 13.7071 125.751 15.5771 122.198C17.4432 118.653 19.3741 115.166 20.8389 112.563C21.5708 111.263 22.1854 110.184 22.6172 109.432C22.8331 109.055 23.0032 108.76 23.1191 108.56C23.1771 108.459 23.2221 108.383 23.252 108.331C23.2667 108.306 23.2777 108.286 23.2852 108.273C23.2889 108.267 23.2921 108.262 23.2939 108.259C23.2947 108.257 23.2955 108.257 23.2959 108.256L23.2969 108.255C23.297 108.255 23.2965 108.254 22 107.5L23.2969 108.254L23.8545 107.296L23.1016 106.481C12.8511 95.3964 8.5 82.4621 8.5 66C8.5 31.4822 36.4822 3.5 71 3.5Z" fill="#0099FF" stroke="white" stroke-width="3"/>
<path d="M80.4416 26.9551C81.0467 27.0027 81.8452 27.2112 82.5148 27.5088C82.9206 27.6891 83.4311 27.967 83.8703 28.3887C84.3184 28.8189 84.8332 29.546 84.8332 30.5498C84.833 32.2205 83.5665 33.1424 82.9631 33.5195C82.8371 33.5982 82.6959 33.6764 82.55 33.7549C83.5225 33.8626 84.3553 34.2017 85.007 34.6104C85.6084 34.9875 86.1738 35.5005 86.5383 36.0879L86.6818 36.3438L86.7785 36.5518C87.1087 37.3223 87.2367 38.2937 87.0383 39.3311C88.3271 39.0388 89.3771 39.3389 88.9748 39.3389C89.9016 39.3389 90.6567 39.7815 91.1389 40.2637C91.621 40.7458 92.0637 41.5009 92.0637 42.4277C92.0637 43.2628 91.6508 43.8696 91.3332 44.21C91.0048 44.5618 90.62 44.8073 90.2814 44.9766C89.6022 45.3162 88.7698 45.5166 87.9416 45.5166C87.7314 45.5166 87.2889 45.5698 86.7121 45.6758C86.6768 45.6823 86.6417 45.6896 86.6066 45.6963C87.777 46.1431 89.0421 47.0801 89.3986 48.5352L89.4582 48.835L89.5002 49.1953C89.5694 50.038 89.426 50.8856 88.9094 51.6846C88.5311 52.2695 88.0123 52.7229 87.509 53.0918L87.0168 53.4346C86.3147 53.9027 85.5373 54.1309 84.8693 54.2793C84.7409 54.3078 84.607 54.333 84.4699 54.3594C84.7106 54.8129 84.8332 55.3249 84.8332 55.8555C84.8332 56.7053 84.4824 57.4515 83.8947 57.9805C83.8293 58.0393 83.7619 58.0937 83.6945 58.1445C84.1164 58.3895 84.4812 58.7073 84.7726 59.1152C85.2431 59.7738 85.3549 60.4519 85.3723 60.9199C85.3807 61.1469 85.3674 61.3421 85.3586 61.457C85.3511 61.5541 85.3491 61.5807 85.3488 61.5781L85.3449 61.7031C85.2962 62.5495 84.8738 63.5862 83.8459 64.3857C82.7755 65.2183 81.2318 65.6582 79.1623 65.6582C78.3063 65.6582 77.4176 66.2095 76.5363 67.3662C75.8486 68.2689 75.3547 69.3052 75.0773 70.0078C75.6979 69.4683 76.3876 68.9495 77.09 68.5713C77.6382 68.2761 78.3395 67.9862 79.1144 67.9346C79.9104 67.8815 80.7847 68.0876 81.506 68.7285L81.6486 68.8633L81.8478 69.082C82.7587 70.1919 82.4398 71.493 82.1828 72.1523C81.9056 72.8635 81.4057 73.6435 80.9484 74.3447C80.0217 75.7656 78.7977 77.5516 77.6476 79.9707L77.4182 80.4629C76.3302 82.8564 75.9197 83.6594 75.6974 84.8779C75.4632 86.1624 75.4487 87.9045 75.5363 92.0225C75.5481 92.5751 75.3371 93.1099 74.9504 93.5049C74.5638 93.8997 74.0342 94.122 73.4816 94.1221H70.383C69.3837 94.1221 68.529 93.4034 68.3576 92.4189L70.383 92.0664L68.3576 92.418H68.3566V92.415C68.3563 92.4132 68.3562 92.4105 68.3557 92.4072C68.3544 92.3998 68.3523 92.3884 68.3498 92.374C68.3448 92.345 68.3368 92.3019 68.3273 92.2471C68.3084 92.1373 68.2808 91.9784 68.2473 91.7832C68.1803 91.3929 68.0885 90.8552 67.9894 90.2656C67.8912 89.6806 67.7849 89.0363 67.6877 88.4316L67.4426 86.835C67.3852 86.4263 67.354 86.2639 67.3156 86.1338C67.2831 86.0235 67.2266 85.8737 67.0578 85.5566C66.7659 85.0084 66.3101 84.2648 65.4631 82.8389L64.4767 81.167C63.8226 80.0497 63.3308 79.4582 62.9924 79.1104C62.8205 78.9337 62.668 78.7994 62.5109 78.666C62.4166 78.5859 62.2505 78.4492 62.0861 78.2988L61.926 78.1455C61.6936 77.9131 60.6511 76.9042 59.8527 75.7451C59.4627 75.1788 59.0165 74.4179 58.8166 73.5791C58.6044 72.6883 58.6257 71.4195 59.633 70.4121L59.7629 70.2891C60.0799 70.0051 60.4979 69.745 61.0236 69.6279C61.4706 69.5284 61.8902 69.5559 62.257 69.6504C61.5489 68.4908 60.8547 67.6847 60.3879 67.3271C58.3956 65.9919 56.9938 64.7713 56.0656 63.6299C55.1245 62.4725 54.5762 61.278 54.5441 60.0576C54.4773 57.5058 56.5806 56.327 57.0685 56.083L57.2902 55.9795C59.579 54.9845 61.8324 56.2765 63.0568 57.501L63.2394 57.6885C64.1394 58.6434 64.8385 59.7966 65.3537 60.7627C65.4697 60.9802 65.5852 61.2103 65.6984 61.4385C65.7414 60.5932 65.7443 59.7085 65.7443 58.9541C65.7443 57.3541 64.8704 54.593 63.8957 52.6436C63.475 51.8023 63.1106 51.3851 62.8312 51.1406C62.7242 51.047 62.6154 50.9694 62.4973 50.8926C62.9216 51.8543 63.1418 52.8613 63.1418 53.79C63.1416 54.548 62.725 55.2449 62.0568 55.6025C61.4302 55.9379 60.6779 55.9237 60.0666 55.5742L59.9465 55.5C59.7708 55.3829 59.4303 55.182 59.0676 55.0186C58.889 54.9381 58.7329 54.8796 58.6096 54.8438C58.4741 54.8044 58.4467 54.8125 58.5041 54.8125C58.4409 54.8125 58.3469 54.8162 58.1603 54.8262C57.9945 54.835 57.7739 54.8477 57.5373 54.8525C57.0705 54.8621 56.4413 54.8474 55.7824 54.6953C55.1113 54.5404 54.3409 54.2271 53.674 53.5928C53.0785 53.0263 52.6693 52.3027 52.4426 51.4619L52.3566 51.0938C52.137 49.9952 52.362 48.6499 53.3293 47.6523C54.3587 46.5908 55.842 46.3063 57.3576 46.6094L57.7023 46.6875C58.544 46.9012 59.294 47.2637 59.9494 47.7275C59.8905 47.0096 60.0233 46.3466 60.1691 45.9092L60.2199 45.7725C60.2385 45.7276 60.2587 45.6831 60.2805 45.6396L60.3849 45.4492C60.9564 44.4899 62.2609 43.4708 64.1848 43.4707L64.3478 43.4756C64.6363 43.4942 64.8958 43.563 65.1242 43.6523C64.8299 40.8976 64.745 39.6218 64.7209 38.9082L64.7121 38.2959C64.7121 37.7017 64.9245 36.4167 65.6623 35.2178C66.4794 33.89 67.99 32.625 70.383 32.625C71.5888 32.6251 72.6292 32.9886 73.4543 33.6455C74.249 34.2784 74.7199 35.0844 75.0021 35.79C75.2324 36.3658 75.3611 36.9449 75.4357 37.4424C75.758 37.0424 76.084 36.6774 76.4123 36.3457C76.2514 36.2297 76.1051 36.093 75.9826 35.9336L75.8498 35.7383C75.4998 35.1548 75.0672 34.2235 74.843 33.1943C74.6318 32.225 74.5111 30.7216 75.3859 29.4092L75.5441 29.1826C77.2028 26.9219 79.6186 26.9443 80.1955 26.9443L80.4416 26.9551ZM76.7131 56.6152C76.0894 57.1266 75.6927 57.878 75.4709 58.8301C75.8652 58.6003 76.2901 58.3776 76.7424 58.1816C76.5602 57.7351 76.5399 57.2347 76.6906 56.7705C76.6922 56.7591 76.6943 56.7459 76.6965 56.7305C76.7007 56.7 76.7067 56.6609 76.7131 56.6152ZM82.8351 44.4131C82.6146 44.5383 82.3866 44.6637 82.1476 44.7832C81.3773 45.1684 80.7191 45.6427 80.1682 46.1523C80.6448 45.9536 81.1555 45.7698 81.6965 45.6152L82.0353 45.5254C82.4574 45.4211 82.8724 45.3497 83.2775 45.3076C83.265 45.2929 83.2516 45.2788 83.2394 45.2637C83.0363 45.0104 82.9013 44.7182 82.8351 44.4131Z" fill="#54B3F3" stroke="white" stroke-width="4.11137" stroke-linejoin="round"/>
<path d="M47.5294 72.5474V73.9321H51.6837V75.3169H91.0001V73.9321H95.1553V72.5474H101.54V103.86H95.1553V102.475H91.0001V101.09H51.6837V102.475H47.5294V103.86H41.1446V72.5474H47.5294Z" fill="#3D4E6B" stroke="white" stroke-width="5"/>
<path d="M46.0294 74.0474V75.4321H50.1837V76.8169H92.5001V75.4321H96.6553V74.0474H100.04V102.36H96.6553V100.975H92.5001V99.5903H50.1837V100.975H46.0294V102.36H42.6446V74.0474H46.0294Z" fill="#3D4E6B" stroke="black" stroke-width="2"/>
<rect x="49.1841" y="77.8173" width="44.3163" height="20.7733" fill="#A6A4CC"/>
<rect x="49.1841" y="81.9717" width="44.3163" height="2.76977" fill="#CECEE7"/>
<rect x="49.1841" y="88.8964" width="44.3163" height="5.53953" fill="#8B89AE"/>
<rect x="45.0295" y="76.4321" width="4.15465" height="23.543" fill="#6C6B8A"/>
<rect x="43.6446" y="75.0474" width="1.38488" height="26.3128" fill="#494867"/>
<rect x="49.1841" y="79.2021" width="1.38488" height="4.15465" fill="#3D4E6B"/>
<rect x="49.1841" y="86.1264" width="1.38488" height="4.15465" fill="#3D4E6B"/>
<rect x="49.1841" y="93.0507" width="1.38488" height="4.15465" fill="#3D4E6B"/>
<rect width="4.15465" height="23.543" transform="matrix(-1 0 0 1 97.655 76.4321)" fill="#6C6B8A"/>
<rect width="1.38488" height="26.3128" transform="matrix(-1 0 0 1 99.0399 75.0474)" fill="#494867"/>
<rect width="1.38488" height="4.15465" transform="matrix(-1 0 0 1 93.5004 79.2021)" fill="#3D4E6B"/>
<rect width="1.38488" height="4.15465" transform="matrix(-1 0 0 1 93.5004 86.1264)" fill="#3D4E6B"/>
<rect width="1.38488" height="4.15465" transform="matrix(-1 0 0 1 93.5004 93.0507)" fill="#3D4E6B"/>
<g filter="url(#filter0_i_275_181)">
<path d="M87.9419 43.4606C87.1156 43.4606 85.5318 43.8049 84.8432 43.9771C85.0153 43.6328 85.5662 42.7376 86.3925 41.9113C87.4254 40.8784 88.4583 41.3948 88.9748 41.3948C89.4912 41.3948 90.0077 41.9113 90.0077 42.4277C90.0077 42.9442 88.9748 43.4606 87.9419 43.4606Z" fill="#54B3F3"/>
<path d="M54.3726 50.6909C54.1489 49.5725 54.889 48.212 56.9548 48.6251C59.5371 49.1416 61.0864 51.7238 61.0864 53.7896C60.57 53.4453 59.3305 52.7567 58.5042 52.7567C57.4713 52.7567 54.889 53.2732 54.3726 50.6909Z" fill="#54B3F3"/>
<path d="M77.6129 34.681C78.1293 34.1645 79.3688 33.0283 80.1951 32.6152C81.228 32.0987 82.7774 31.5823 82.7774 30.5494C82.7774 29.5165 80.7116 29 80.1951 29C79.6787 29 78.1293 29 77.0964 30.5494C76.2701 31.7888 77.0964 33.8202 77.6129 34.681Z" fill="#54B3F3"/>
<path d="M80.1951 56.8883C79.3688 56.8883 79.3344 57.2326 78.6458 57.4048C78.8179 57.0605 78.6334 55.8616 79.6787 55.339C80.7116 54.8225 81.228 54.8225 81.7445 54.8225C82.2609 54.8225 82.7774 55.138 82.7774 55.8554C82.7774 56.8883 81.228 56.8883 80.1951 56.8883Z" fill="#54B3F3"/>
<path d="M75.5471 79.6125C78.1293 73.9315 81.228 71.3493 80.1951 70.3164C79.1622 69.2835 77.0964 70.8328 75.5471 72.3822C73.9977 73.9315 74.5142 77.0302 73.4813 77.0302C72.4484 77.0302 72.4484 71.3492 72.9648 69.7999C73.4813 68.2505 75.5471 63.6025 79.1622 63.6025C82.7774 63.6025 83.2938 62.0531 83.2938 61.5367C83.2938 61.0202 83.8103 59.4709 80.1951 59.4709C77.303 59.4709 74.5142 61.881 73.4813 63.086C72.9648 60.8481 72.8615 55.959 76.58 54.3064C81.228 52.2406 84.3267 52.757 85.8761 51.7241C87.1156 50.8978 87.6045 50.3285 87.4254 49.1416C87.2463 47.9547 85.1531 46.7659 82.2609 47.5922C78.6458 48.6251 76.58 51.2075 76.0635 50.1746C75.5471 49.1417 77.0964 45.0101 81.228 42.9443C85.3596 40.8785 85.3596 38.2962 84.8432 37.2633C84.3267 36.2304 80.7116 33.6482 76.58 39.3291C72.4484 45.0101 72.9648 52.2403 72.4484 52.2403C71.9319 52.2403 70.3826 52.2403 70.899 48.1087C71.4155 43.9771 73.4813 41.3948 73.4813 38.8126C73.4813 38.2961 73.4813 34.681 70.3826 34.681C67.2838 34.681 66.7674 37.7797 66.7674 38.2961C66.7674 38.8126 66.7674 39.8455 67.2838 44.4935C67.8003 49.1416 69.3497 52.7567 69.3497 53.2732C69.3497 53.6863 69.0054 53.7896 68.8332 53.7896C67.8003 51.0352 65.4246 45.5264 64.1851 45.5264C62.9457 45.5264 62.2915 46.215 62.1193 46.5593C61.9472 47.0758 61.8095 48.212 62.6358 48.6251C63.6687 49.1416 64.7016 49.658 65.7345 51.7238C66.7674 53.7896 67.8003 56.8883 67.8003 58.9541C67.8003 61.0199 67.8003 64.6351 66.7674 65.1516C65.7345 65.668 65.2181 65.1516 64.7016 64.1187C64.1852 63.0858 63.1522 60.5035 61.6029 58.9541C60.57 57.9212 59.1554 57.3374 57.9877 57.9212C57.2108 58.3097 53.8561 60.5035 61.6029 65.668C63.6687 67.2174 66.7674 72.5884 66.7674 77.5464C66.0788 76.8578 65.299 75.5615 64.1851 74.4477C63.0713 73.3338 62.1193 70.8325 61.0864 71.8654C59.7698 73.1821 62.8627 76.1755 63.3792 76.6919C63.8956 77.2084 68.3128 83.2701 69.9574 86.5592L75.5471 79.6125Z" fill="#54B3F3"/>
</g>
<path d="M70.383 33.6807C71.3674 33.6808 72.1719 33.9739 72.7971 34.4717C73.4074 34.9577 73.7859 35.5898 74.0226 36.1816C74.487 37.3426 74.4816 38.545 74.4816 38.8125C74.4816 40.3316 73.874 41.8146 73.3146 43.2441C72.7342 44.7274 72.132 46.3029 71.8908 48.2324C71.7799 49.1198 71.7776 49.7505 71.8215 50.1943C71.9012 49.5143 72.0062 48.673 72.174 47.7383C72.6385 45.1503 73.5798 41.755 75.7717 38.7412C77.9599 35.7324 80.1812 34.6955 82.1105 34.7793C83.0473 34.82 83.843 35.1255 84.4465 35.5039C85.0253 35.8669 85.5024 36.3461 85.7375 36.8164L85.8088 36.9688C86.1466 37.7581 86.2262 38.9019 85.6945 40.1172C85.1238 41.4217 83.8863 42.7332 81.675 43.8389C79.8032 44.7748 78.5182 46.1786 77.7639 47.4551C77.4078 48.0576 77.1809 48.6136 77.0637 49.0557C77.1816 48.9842 77.3179 48.9056 77.4699 48.8105C78.4939 48.1705 80.0255 47.1912 81.9865 46.6309L82.2892 46.5498C83.7953 46.1775 85.152 46.2765 86.2131 46.6768C87.2891 47.0827 88.2481 47.8918 88.4142 48.9922C88.5307 49.7641 88.4407 50.4648 88.0226 51.1113C87.7405 51.5476 87.3385 51.9065 86.8908 52.2354L86.4308 52.5566C85.8905 52.9168 85.264 53.1105 84.6408 53.249C84.0251 53.3859 83.2942 53.491 82.5549 53.6143C82.1809 53.6766 81.7863 53.7458 81.3713 53.8301C81.5108 53.8241 81.6351 53.8223 81.7443 53.8223C82.1947 53.8223 82.7019 53.9589 83.1115 54.3154C83.5436 54.6915 83.7775 55.2355 83.7775 55.8555C83.7775 56.4016 83.5565 56.8644 83.1877 57.1963C82.8548 57.4957 82.4511 57.6458 82.1164 57.7295C81.4573 57.8943 80.6793 57.8887 80.1955 57.8887C80.0605 57.8887 79.9922 57.9019 79.9611 57.9102C79.9332 57.9176 79.905 57.9288 79.8459 57.9609C79.7217 58.0285 79.3899 58.2495 78.8879 58.375C78.5091 58.4695 78.1097 58.3348 77.8654 58.0303C77.6407 57.7499 77.5873 57.3735 77.716 57.043V57.041C77.7224 57.0096 77.7302 56.9624 77.7424 56.874C77.7638 56.7182 77.7968 56.459 77.8674 56.1875C78.016 55.6155 78.3605 54.8799 79.2316 54.4443L79.6301 54.2578C78.9338 54.4587 78.1895 54.7104 77.3967 55.043L76.9865 55.2197C75.514 55.8742 74.7516 57.1734 74.4191 58.6904C74.2502 59.4614 74.2009 60.2569 74.2238 60.9854C74.6375 60.6446 75.1026 60.3014 75.6057 59.9824C76.8747 59.1778 78.4841 58.4707 80.1955 58.4707C82.0622 58.4708 83.2904 58.8552 83.9142 59.7285C84.226 60.1649 84.305 60.6194 84.3176 60.959C84.3237 61.1253 84.3138 61.273 84.3058 61.376C84.3007 61.4432 84.2993 61.4571 84.2961 61.501C84.2945 61.5233 84.2943 61.5341 84.2941 61.5371C84.294 62.0947 84.029 62.906 83.1974 63.5527C82.3784 64.1897 81.0971 64.6025 79.1623 64.6025C77.8176 64.6025 76.6556 65.4677 75.6965 66.7266C74.7513 67.9673 74.1495 69.4075 73.9133 70.1162C73.8255 70.3798 73.7353 70.9215 73.6799 71.6582C73.629 72.3337 73.6132 73.1039 73.6379 73.8379C73.8597 73.1013 74.2122 72.3026 74.84 71.6748C75.6378 70.877 76.6235 70.021 77.591 69.5C78.073 69.2405 78.6215 69.0249 79.1848 68.9873C79.7842 68.9474 80.4068 69.1136 80.9025 69.6094C81.5955 70.3026 81.428 71.182 81.1994 71.7686C80.9693 72.3589 80.5357 73.0453 80.0646 73.7676C79.1476 75.1736 77.8813 77.0195 76.6935 79.5176L76.4572 80.0264C76.4399 80.0644 76.4205 80.1012 76.3986 80.1367L76.3264 80.2393L70.7365 87.1865C70.5231 87.4516 70.1892 87.59 69.8508 87.5537C69.5123 87.5174 69.215 87.3113 69.0627 87.0068C68.2746 85.4307 66.7948 83.1431 65.4221 81.1543C64.7407 80.1672 64.0955 79.2669 63.59 78.584C63.3371 78.2422 63.1214 77.9574 62.9553 77.7451C62.8723 77.6391 62.8038 77.5546 62.7512 77.4912L62.6721 77.3994C62.4264 77.1537 61.456 76.2114 60.7219 75.1455C60.3593 74.619 59.9991 73.9853 59.8439 73.334C59.6828 72.6573 59.7201 71.8172 60.3791 71.1582L60.5607 70.9961C60.7546 70.842 60.9847 70.718 61.2531 70.6582C61.6184 70.5769 61.9578 70.6366 62.2394 70.7559C62.7421 70.9687 63.1267 71.4007 63.3879 71.7285C63.6671 72.0789 63.9552 72.5112 64.1965 72.8564C64.4582 73.2309 64.6821 73.5305 64.8918 73.7402L65.1154 73.9697C65.1821 74.0401 65.2476 74.1108 65.3117 74.1816C65.0066 72.991 64.5686 71.827 64.0578 70.7607C63.0609 68.6798 61.8629 67.1195 61.0158 66.4775C59.0507 65.1644 57.7292 64.002 56.8849 62.9639C56.0356 61.9193 55.6229 60.9429 55.5988 60.0303C55.5496 58.1509 57.1033 57.2448 57.5402 57.0264L57.7053 56.9502C59.4068 56.2119 61.2003 57.1377 62.3098 58.2471L62.631 58.5879C63.3611 59.4075 63.956 60.386 64.4221 61.2598C64.9332 62.2182 65.3867 63.2536 65.5959 63.6719C65.7127 63.9056 65.8129 64.0745 65.9016 64.1943C65.9773 64.2967 66.0276 64.338 66.048 64.3525C66.0732 64.3503 66.1421 64.338 66.2678 64.2803C66.2893 64.2475 66.3458 64.1535 66.4142 63.9443C66.5273 63.5987 66.6153 63.1146 66.6769 62.5293C66.7996 61.3642 66.8 59.9976 66.8 58.9541C66.8 57.1149 65.8446 54.1801 64.84 52.1709C64.3702 51.2313 63.9277 50.6967 63.5266 50.3457C63.2202 50.0777 62.9138 49.8934 62.5598 49.708L62.1887 49.5195C61.3684 49.1094 61.0806 48.345 61.0099 47.748C60.9413 47.1666 61.0512 46.6027 61.1711 46.2432L61.2248 46.1123C61.5587 45.4444 62.5501 44.5265 64.1848 44.5264L64.3713 44.5381C64.7923 44.5925 65.126 44.8214 65.342 45.0029C65.6125 45.2303 65.8648 45.5257 66.0939 45.8359C66.2529 46.0512 66.4101 46.2931 66.5705 46.5508C66.4615 45.9273 66.365 45.2761 66.2902 44.6035C65.7724 39.9434 65.7678 38.8675 65.7678 38.2959C65.7678 37.8741 65.9376 36.7847 66.5617 35.7705C67.2245 34.6938 68.4235 33.6807 70.383 33.6807ZM54.0871 48.3877C54.8011 47.6513 55.8829 47.3911 57.1506 47.6445L57.4416 47.71C60.3996 48.4631 62.0861 51.4201 62.0861 53.79C62.086 54.1587 61.8828 54.4969 61.5578 54.6709C61.2327 54.8448 60.8382 54.8266 60.5314 54.6221C60.3134 54.4767 59.9229 54.2457 59.5012 54.0557C59.0491 53.852 58.6945 53.7568 58.5041 53.7568C58.4071 53.7568 58.2828 53.763 58.1047 53.7725C57.9364 53.7814 57.7325 53.7925 57.5158 53.7969C57.0857 53.8057 56.5558 53.7907 56.0197 53.667C55.4778 53.5419 54.8958 53.2982 54.4016 52.8281C53.9632 52.4112 53.6445 51.8633 53.4621 51.1855L53.3918 50.8867C53.2276 50.0652 53.4034 49.0928 54.0871 48.3877ZM85.8205 41.0762C87.2016 39.8404 88.9474 40.3755 88.9748 40.3945C89.5582 40.3945 90.0578 40.6767 90.3918 41.0107C90.7258 41.3448 91.008 41.8443 91.008 42.4277C91.008 42.9002 90.7733 43.2616 90.5607 43.4893C90.3431 43.7224 90.0737 43.9002 89.8098 44.0322C89.2804 44.2969 88.6097 44.4609 87.9416 44.4609C87.6272 44.461 87.1028 44.5309 86.5217 44.6377C85.9598 44.741 85.4127 44.8656 85.0861 44.9473C84.7073 45.042 84.307 44.9072 84.0627 44.6025C83.8187 44.2981 83.7741 43.8793 83.9484 43.5303C84.164 43.0992 84.7763 42.1135 85.6857 41.2041L85.8205 41.0762ZM80.1955 28C80.6302 28.0001 81.4156 28.1756 82.0861 28.4736C82.4326 28.6277 82.8216 28.8459 83.1389 29.1504C83.4605 29.4591 83.7775 29.9288 83.7775 30.5498C83.7773 31.6276 82.9622 32.2748 82.4035 32.624C82.1214 32.8003 81.7809 32.9717 81.4611 33.124L80.6428 33.5098C80.341 33.6607 79.8991 33.9828 79.4299 34.376C78.977 34.7554 78.5593 35.148 78.3195 35.3877C78.1018 35.6054 77.796 35.7115 77.4904 35.6738C77.2229 35.6408 76.9817 35.5013 76.8195 35.29L76.7551 35.1953C76.4522 34.6905 76.0695 33.8659 75.8742 32.9697C75.6853 32.1026 75.6271 30.9518 76.2648 29.9951L76.3918 29.8125C77.7279 27.9892 79.6579 28 80.1955 28Z" stroke="black" stroke-width="2" stroke-linejoin="round"/>
<path d="M69.8276 83.3569L66.3654 77.8173H77.0116V82.6644L72.1646 88.2039L73.5494 94.5658L66.3654 88.8964L69.8276 83.3569Z" fill="#474662"/>
<mask id="mask0_275_181" style="mask-type:alpha" maskUnits="userSpaceOnUse" x="66" y="77" width="12" height="18">
<path d="M69.8276 83.3569L66.3654 77.8173H77.0116V82.6644L72.1646 88.2039L73.5494 94.5658L66.3654 88.8964L69.8276 83.3569Z" fill="#474662"/>
</mask>
<g mask="url(#mask0_275_181)">
<g filter="url(#filter1_i_275_181)">
<path d="M87.9419 43.4606C87.1156 43.4606 85.5318 43.8049 84.8432 43.9771C85.0153 43.6328 85.5662 42.7376 86.3925 41.9113C87.4254 40.8784 88.4583 41.3948 88.9748 41.3948C89.4912 41.3948 90.0077 41.9113 90.0077 42.4277C90.0077 42.9442 88.9748 43.4606 87.9419 43.4606Z" fill="#54B3F3"/>
<path d="M73.4813 99.7156C73.3091 91.6245 73.4813 84.1573 75.5471 79.6125C78.1293 73.9315 81.228 71.3493 80.1951 70.3164C79.1622 69.2835 77.0964 70.8328 75.5471 72.3822C73.9977 73.9315 74.5142 77.0302 73.4813 77.0302C72.4484 77.0302 72.4484 71.3492 72.9648 69.7999C73.4813 68.2505 75.5471 63.6025 79.1622 63.6025C82.7774 63.6025 83.2938 62.0531 83.2938 61.5367C83.2938 61.0202 83.8103 59.4709 80.1951 59.4709C77.303 59.4709 74.5142 61.881 73.4813 63.086C72.9648 60.8481 72.8615 55.959 76.58 54.3064C81.228 52.2406 84.3267 52.757 85.8761 51.7241C87.1156 50.8978 87.6045 50.3285 87.4254 49.1416C87.2463 47.9547 85.1531 46.7659 82.2609 47.5922C78.6458 48.6251 76.58 51.2075 76.0635 50.1746C75.5471 49.1417 77.0964 45.0101 81.228 42.9443C85.3596 40.8785 85.3596 38.2962 84.8432 37.2633C84.3267 36.2304 80.7116 33.6482 76.58 39.3291C72.4484 45.0101 72.9648 52.2403 72.4484 52.2403C71.9319 52.2403 70.3826 52.2403 70.899 48.1087C71.4155 43.9771 73.4813 41.3948 73.4813 38.8126C73.4813 38.2961 73.4813 34.681 70.3826 34.681C67.2838 34.681 66.7674 37.7797 66.7674 38.2961C66.7674 38.8126 66.7674 39.8455 67.2838 44.4935C67.8003 49.1416 69.3497 52.7567 69.3497 53.2732C69.3497 53.6863 69.0054 53.7896 68.8332 53.7896C67.8003 51.0352 65.4246 45.5264 64.1852 45.5264C62.9457 45.5264 62.2915 46.215 62.1193 46.5593C61.9472 47.0758 61.8095 48.212 62.6358 48.6251C63.6687 49.1416 64.7016 49.658 65.7345 51.7238C66.7674 53.7896 67.8003 56.8883 67.8003 58.9541C67.8003 61.0199 67.8003 64.6351 66.7674 65.1516C65.7345 65.668 65.2181 65.1516 64.7016 64.1187C64.1852 63.0858 63.1522 60.5035 61.6029 58.9541C60.57 57.9212 59.1554 57.3374 57.9877 57.9212C57.2108 58.3097 53.8561 60.5035 61.6029 65.668C63.6687 67.2174 66.7674 72.5884 66.7674 77.5464C66.0788 76.8578 65.299 75.5615 64.1851 74.4477C63.0713 73.3338 62.1193 70.8325 61.0864 71.8654C59.7698 73.1821 63.2243 75.4174 63.6687 75.997C64.2015 76.6919 64.8027 77.6549 66.2509 80.1286C69.1689 85.1127 69.2475 84.9026 69.4786 86.5488C69.7096 88.1949 69.4786 98.071 69.4786 98.071L73.4813 99.7156Z" fill="#54B3F3"/>
<path d="M54.3726 50.6909C54.1489 49.5725 54.889 48.212 56.9548 48.6251C59.5371 49.1416 61.0864 51.7238 61.0864 53.7896C60.57 53.4453 59.3305 52.7567 58.5042 52.7567C57.4713 52.7567 54.889 53.2732 54.3726 50.6909Z" fill="#54B3F3"/>
<path d="M77.6129 34.681C78.1293 34.1645 79.3688 33.0283 80.1951 32.6152C81.228 32.0987 82.7774 31.5823 82.7774 30.5494C82.7774 29.5165 80.7116 29 80.1951 29C79.6787 29 78.1293 29 77.0964 30.5494C76.2701 31.7888 77.0964 33.8202 77.6129 34.681Z" fill="#54B3F3"/>
<path d="M80.1951 56.8883C79.3688 56.8883 79.3344 57.2326 78.6458 57.4048C78.8179 57.0605 78.6334 55.8616 79.6787 55.339C80.7116 54.8225 81.228 54.8225 81.7445 54.8225C82.2609 54.8225 82.7774 55.138 82.7774 55.8554C82.7774 56.8883 81.228 56.8883 80.1951 56.8883Z" fill="#54B3F3"/>
</g>
<path d="M70.383 33.6807C71.3674 33.6808 72.1719 33.9739 72.7971 34.4717C73.4074 34.9577 73.7859 35.5898 74.0226 36.1816C74.487 37.3426 74.4816 38.545 74.4816 38.8125C74.4816 40.3316 73.874 41.8146 73.3146 43.2441C72.7342 44.7274 72.132 46.3029 71.8908 48.2324C71.7799 49.1198 71.7776 49.7505 71.8215 50.1943C71.9012 49.5143 72.0062 48.673 72.174 47.7383C72.6385 45.1503 73.5798 41.755 75.7717 38.7412C77.9599 35.7324 80.1812 34.6955 82.1105 34.7793C83.0473 34.82 83.843 35.1255 84.4465 35.5039C85.0253 35.8669 85.5024 36.3461 85.7375 36.8164C86.1325 37.6067 86.2615 38.8212 85.6945 40.1172C85.1238 41.4217 83.8863 42.7332 81.675 43.8389C79.8032 44.7748 78.5182 46.1786 77.7639 47.4551C77.4078 48.0576 77.1809 48.6136 77.0637 49.0557C77.1816 48.9842 77.3179 48.9056 77.4699 48.8105C78.4939 48.1705 80.0255 47.1912 81.9865 46.6309L82.2892 46.5498C83.7953 46.1775 85.152 46.2765 86.2131 46.6768C87.2891 47.0827 88.2481 47.8918 88.4142 48.9922C88.5307 49.7641 88.4407 50.4648 88.0226 51.1113C87.7405 51.5476 87.3385 51.9065 86.8908 52.2354L86.4308 52.5566C85.8905 52.9168 85.264 53.1105 84.6408 53.249C84.0251 53.3859 83.2942 53.491 82.5549 53.6143C82.1809 53.6766 81.7863 53.7458 81.3713 53.8301C81.5108 53.8241 81.6351 53.8223 81.7443 53.8223C82.1947 53.8223 82.7019 53.9589 83.1115 54.3154C83.5436 54.6915 83.7775 55.2355 83.7775 55.8555C83.7775 56.4016 83.5565 56.8644 83.1877 57.1963C82.8548 57.4957 82.4511 57.6458 82.1164 57.7295C81.4573 57.8943 80.6793 57.8887 80.1955 57.8887C80.0605 57.8887 79.9922 57.9019 79.9611 57.9102C79.9332 57.9176 79.905 57.9288 79.8459 57.9609C79.7217 58.0285 79.3899 58.2495 78.8879 58.375C78.5091 58.4695 78.1097 58.3348 77.8654 58.0303C77.6407 57.7499 77.5873 57.3735 77.716 57.043V57.041C77.7224 57.0096 77.7302 56.9624 77.7424 56.874C77.7638 56.7182 77.7968 56.459 77.8674 56.1875C78.016 55.6155 78.3605 54.8799 79.2316 54.4443L79.6301 54.2578C78.9338 54.4587 78.1895 54.7104 77.3967 55.043L76.9865 55.2197C75.514 55.8742 74.7516 57.1734 74.4191 58.6904C74.2502 59.4614 74.2009 60.2569 74.2238 60.9854C74.6375 60.6446 75.1026 60.3014 75.6057 59.9824C76.8747 59.1778 78.4841 58.4707 80.1955 58.4707C82.0622 58.4708 83.2904 58.8552 83.9142 59.7285C84.226 60.1649 84.305 60.6194 84.3176 60.959C84.3237 61.1253 84.3138 61.273 84.3058 61.376C84.3007 61.4432 84.2993 61.4571 84.2961 61.501C84.2945 61.5233 84.2943 61.5341 84.2941 61.5371C84.294 62.0947 84.029 62.906 83.1974 63.5527C82.3784 64.1897 81.0971 64.6025 79.1623 64.6025C77.8176 64.6025 76.6556 65.4677 75.6965 66.7266C74.7513 67.9673 74.1495 69.4075 73.9133 70.1162C73.8255 70.3798 73.7353 70.9215 73.6799 71.6582C73.629 72.3337 73.6132 73.1039 73.6379 73.8379C73.8597 73.1013 74.2122 72.3026 74.84 71.6748C75.6378 70.877 76.6235 70.021 77.591 69.5C78.073 69.2405 78.6215 69.0249 79.1848 68.9873C79.7842 68.9474 80.4068 69.1136 80.9025 69.6094C81.5955 70.3026 81.428 71.182 81.1994 71.7686C80.9693 72.3589 80.5357 73.0453 80.0646 73.7676C79.1476 75.1736 77.8813 77.0195 76.6935 79.5176L76.4572 80.0264C75.4959 82.1414 74.9486 85.0081 74.6721 88.415C74.3966 91.8083 74.3947 95.6561 74.4807 99.6943C74.4878 100.031 74.325 100.349 74.0471 100.54C73.7689 100.731 73.4127 100.769 73.1008 100.641L69.0988 98.9961C68.7159 98.8388 68.4691 98.4617 68.4787 98.0479V98.041C68.4788 98.0363 68.4795 98.0288 68.4797 98.0195C68.4801 98.001 68.4808 97.9735 68.4816 97.9375C68.4833 97.8651 68.4855 97.7583 68.4885 97.6221C68.4943 97.3496 68.5019 96.9582 68.5109 96.4834C68.5289 95.5335 68.5512 94.2498 68.5656 92.916C68.58 91.5814 68.5871 90.2002 68.5764 89.0527C68.5653 87.8744 68.5352 87.0207 68.4885 86.6875C68.4309 86.2775 68.3908 86.047 68.3283 85.835C68.2686 85.6325 68.1777 85.4141 67.9894 85.0605C67.7886 84.6834 67.5097 84.2102 67.0949 83.5146L65.3879 80.6338C64.1142 78.4583 63.5192 77.4928 63.0637 76.8594L62.8752 76.6055C62.8862 76.6198 62.8543 76.5803 62.7131 76.4551C62.5885 76.3446 62.4346 76.2158 62.2443 76.0537C61.8782 75.7418 61.409 75.3359 60.9914 74.8955C60.5896 74.4718 60.1487 73.9282 59.9308 73.3242C59.8171 73.0088 59.7496 72.6353 59.8146 72.2363C59.8818 71.8244 60.0788 71.4585 60.3791 71.1582L60.5607 70.9961C60.7546 70.842 60.9847 70.718 61.2531 70.6582C61.6184 70.5769 61.9578 70.6366 62.2394 70.7559C62.7421 70.9687 63.1267 71.4007 63.3879 71.7285C63.6671 72.0789 63.9552 72.5112 64.1965 72.8564C64.4582 73.2309 64.6821 73.5305 64.8918 73.7402L65.1154 73.9697C65.1821 74.0401 65.2476 74.1108 65.3117 74.1816C65.0066 72.991 64.5686 71.827 64.0578 70.7607C63.0609 68.6798 61.8629 67.1195 61.0158 66.4775C59.0507 65.1644 57.7292 64.002 56.8849 62.9639C56.0356 61.9193 55.6229 60.9429 55.5988 60.0303C55.5496 58.1509 57.1033 57.2448 57.5402 57.0264L57.7053 56.9502C59.4068 56.2119 61.2003 57.1377 62.3098 58.2471L62.631 58.5879C63.3611 59.4075 63.956 60.386 64.4221 61.2598C64.9332 62.2182 65.3867 63.2536 65.5959 63.6719C65.7127 63.9056 65.8129 64.0745 65.9016 64.1943C65.9773 64.2967 66.0276 64.338 66.048 64.3525C66.0732 64.3503 66.1421 64.338 66.2678 64.2803C66.2893 64.2475 66.3458 64.1535 66.4142 63.9443C66.5273 63.5987 66.6153 63.1146 66.6769 62.5293C66.7996 61.3642 66.8 59.9976 66.8 58.9541C66.8 57.1149 65.8446 54.1801 64.84 52.1709C64.3702 51.2313 63.9277 50.6967 63.5266 50.3457C63.2202 50.0777 62.9138 49.8934 62.5598 49.708L62.1887 49.5195C61.3684 49.1094 61.0806 48.345 61.0099 47.748C60.9413 47.1666 61.0512 46.6027 61.1711 46.2432L61.2248 46.1123C61.5587 45.4444 62.5501 44.5265 64.1848 44.5264L64.3713 44.5381C64.7923 44.5925 65.126 44.8214 65.342 45.0029C65.6125 45.2303 65.8648 45.5257 66.0939 45.8359C66.2529 46.0512 66.4101 46.2931 66.5705 46.5508C66.4615 45.9273 66.365 45.2761 66.2902 44.6035C65.7724 39.9434 65.7678 38.8675 65.7678 38.2959C65.7678 37.8741 65.9376 36.7847 66.5617 35.7705C67.2245 34.6938 68.4235 33.6807 70.383 33.6807ZM54.0871 48.3877C54.8011 47.6513 55.8829 47.3911 57.1506 47.6445L57.4416 47.71C60.3996 48.4631 62.0861 51.4201 62.0861 53.79C62.086 54.1587 61.8828 54.4969 61.5578 54.6709C61.2327 54.8448 60.8382 54.8266 60.5314 54.6221C60.3134 54.4767 59.9229 54.2457 59.5012 54.0557C59.0491 53.852 58.6945 53.7568 58.5041 53.7568C58.4071 53.7568 58.2828 53.763 58.1047 53.7725C57.9364 53.7814 57.7325 53.7925 57.5158 53.7969C57.0857 53.8057 56.5558 53.7907 56.0197 53.667C55.4778 53.5419 54.8958 53.2982 54.4016 52.8281C53.9632 52.4112 53.6445 51.8633 53.4621 51.1855L53.3918 50.8867C53.2276 50.0652 53.4034 49.0928 54.0871 48.3877ZM85.8205 41.0762C87.2016 39.8404 88.9475 40.3756 88.9748 40.3945C89.5582 40.3945 90.0578 40.6767 90.3918 41.0107C90.7258 41.3448 91.008 41.8443 91.008 42.4277C91.008 42.9002 90.7733 43.2616 90.5607 43.4893C90.3431 43.7224 90.0737 43.9002 89.8098 44.0322C89.2804 44.2969 88.6097 44.4609 87.9416 44.4609C87.6272 44.461 87.1028 44.5309 86.5217 44.6377C85.9598 44.741 85.4127 44.8656 85.0861 44.9473C84.7073 45.042 84.307 44.9072 84.0627 44.6025C83.8187 44.2981 83.7741 43.8793 83.9484 43.5303C84.164 43.0992 84.7763 42.1135 85.6857 41.2041L85.8205 41.0762ZM80.1955 28C80.6302 28.0001 81.4156 28.1756 82.0861 28.4736C82.4326 28.6277 82.8216 28.8459 83.1389 29.1504C83.4605 29.4591 83.7775 29.9288 83.7775 30.5498C83.7773 31.6276 82.9622 32.2748 82.4035 32.624C82.1214 32.8003 81.7809 32.9717 81.4611 33.124L80.6428 33.5098C80.341 33.6607 79.8991 33.9828 79.4299 34.376C78.977 34.7554 78.5593 35.148 78.3195 35.3877C78.1018 35.6054 77.796 35.7115 77.4904 35.6738C77.2229 35.6408 76.9817 35.5013 76.8195 35.29L76.7551 35.1953C76.4522 34.6905 76.0695 33.8659 75.8742 32.9697C75.6853 32.1026 75.6271 30.9518 76.2648 29.9951L76.3918 29.8125C77.7279 27.9892 79.6579 28 80.1955 28Z" stroke="black" stroke-width="2" stroke-linejoin="round"/>
</g>
<defs>
<filter id="filter0_i_275_181" x="50.335" y="27" width="41.6727" height="63.5592" filterUnits="userSpaceOnUse" color-interpolation-filters="sRGB">
<feFlood flood-opacity="0" result="BackgroundImageFix"/>
<feBlend mode="normal" in="SourceGraphic" in2="BackgroundImageFix" result="shape"/>
<feColorMatrix in="SourceAlpha" type="matrix" values="0 0 0 0 0 0 0 0 0 0 0 0 0 0 0 0 0 0 127 0" result="hardAlpha"/>
<feOffset dx="-3" dy="4"/>
<feGaussianBlur stdDeviation="1"/>
<feComposite in2="hardAlpha" operator="arithmetic" k2="-1" k3="1"/>
<feColorMatrix type="matrix" values="0 0 0 0 0.0252778 0 0 0 0 0.390963 0 0 0 0 0.733056 0 0 0 0.62 0"/>
<feBlend mode="normal" in2="shape" result="effect1_innerShadow_275_181"/>
</filter>
<filter id="filter1_i_275_181" x="50.335" y="27" width="41.6727" height="76.7156" filterUnits="userSpaceOnUse" color-interpolation-filters="sRGB">
<feFlood flood-opacity="0" result="BackgroundImageFix"/>
<feBlend mode="normal" in="SourceGraphic" in2="BackgroundImageFix" result="shape"/>
<feColorMatrix in="SourceAlpha" type="matrix" values="0 0 0 0 0 0 0 0 0 0 0 0 0 0 0 0 0 0 127 0" result="hardAlpha"/>
<feOffset dx="-3" dy="4"/>
<feGaussianBlur stdDeviation="1"/>
<feComposite in2="hardAlpha" operator="arithmetic" k2="-1" k3="1"/>
<feColorMatrix type="matrix" values="0 0 0 0 0.0252778 0 0 0 0 0.390963 0 0 0 0 0.733056 0 0 0 0.62 0"/>
<feBlend mode="normal" in2="shape" result="effect1_innerShadow_275_181"/>
</filter>
</defs>
</svg>
