<svg width="140" height="140" viewBox="0 0 140 140" fill="none" xmlns="http://www.w3.org/2000/svg">
<path d="M71 1C106.899 1 136 30.1015 136 66C136 101.899 106.899 131 71 131C56.0255 131 44.0339 127.845 33.0469 119.307C32.9367 119.406 32.814 119.519 32.6777 119.642C32.0431 120.214 31.1343 121.028 30.0381 121.999C27.8464 123.94 24.901 126.51 21.8906 129.019C18.8853 131.523 15.7947 133.984 13.3193 135.697C12.0879 136.55 10.9697 137.245 10.0713 137.664C9.62812 137.871 9.18022 138.038 8.7666 138.104C8.39071 138.163 7.76482 138.179 7.29297 137.707C6.86198 137.276 6.81946 136.684 6.82812 136.315C6.8381 135.893 6.92833 135.409 7.05957 134.906C7.32448 133.891 7.80855 132.598 8.42383 131.154C9.65898 128.256 11.4871 124.603 13.3652 121.034C15.2461 117.46 17.1888 113.952 18.6602 111.338C19.3961 110.03 20.0145 108.945 20.4492 108.188C20.57 107.977 20.6766 107.792 20.7676 107.634C10.3734 96.1265 6 82.7067 6 66C6 30.1015 35.1015 1 71 1Z" stroke="black" stroke-width="2"/>
<path d="M71 3.5C105.518 3.5 133.5 31.4822 133.5 66C133.5 100.518 105.518 128.5 71 128.5C56.1345 128.5 44.5569 125.326 33.9375 116.829L32.9355 116.027L31.9883 116.893H31.9873L31.9727 116.907C31.9619 116.917 31.9452 116.932 31.9238 116.951C31.8808 116.99 31.8171 117.049 31.7334 117.125C31.5657 117.277 31.3188 117.5 31.0039 117.784C30.3739 118.352 29.4708 119.162 28.3809 120.127C26.1998 122.059 23.2743 124.611 20.29 127.098C17.2982 129.591 14.2771 131.993 11.8965 133.642C11.0026 134.26 10.2305 134.75 9.60449 135.095C9.84316 134.311 10.2228 133.31 10.7236 132.135C11.9178 129.333 13.7071 125.751 15.5771 122.198C17.4432 118.653 19.3741 115.166 20.8389 112.563C21.5708 111.263 22.1854 110.184 22.6172 109.432C22.8331 109.055 23.0032 108.76 23.1191 108.56C23.1771 108.459 23.2221 108.383 23.252 108.331C23.2667 108.306 23.2777 108.286 23.2852 108.273C23.2889 108.267 23.2921 108.262 23.2939 108.259C23.2947 108.257 23.2955 108.257 23.2959 108.256L23.2969 108.255C23.297 108.255 23.2965 108.254 22 107.5L23.2969 108.254L23.8545 107.296L23.1016 106.481C12.8511 95.3964 8.5 82.4621 8.5 66C8.5 31.4822 36.4822 3.5 71 3.5Z" fill="#0099FF" stroke="white" stroke-width="3"/>
<path d="M71 75.5C81.0405 75.5 90.0567 77.4832 96.5068 80.6211C103.059 83.8085 106.5 87.9254 106.5 92C106.5 96.0746 103.059 100.191 96.5068 103.379C90.0567 106.517 81.0405 108.5 71 108.5C60.9595 108.5 51.9433 106.517 45.4932 103.379C38.9413 100.191 35.5 96.0746 35.5 92C35.5 87.9254 38.9413 83.8085 45.4932 80.6211C51.9433 77.4832 60.9595 75.5 71 75.5Z" fill="black" stroke="white" stroke-width="3"/>
<path d="M39 91C39 91 39.7667 87.5499 45 84.3495M103 91C103 91 102.517 88.8284 99.7048 86.3329M49.5 82.1741C52.0236 81.2124 55.1442 80.3762 59 79.8038M61.7902 79.4512C64.5231 79.1631 67.5803 79 71 79C85.6667 79 93.6667 82 98 85" stroke="white" stroke-opacity="0.6" stroke-width="2" stroke-linecap="round"/>
<path d="M66.2314 30.0303C68.5728 26.5443 73.8387 26.6608 75.9854 30.3789L96.7227 66.2959L96.916 66.6582C98.7636 70.4288 96.0294 74.9307 91.7363 74.9307H73.5645V101.803H68.4355V74.9307H50.2637C45.8322 74.9307 43.0619 70.1337 45.2773 66.2959L66.0146 30.3789L66.2314 30.0303Z" fill="#FEC206" stroke="white" stroke-width="3"/>
<path fill-rule="evenodd" clip-rule="evenodd" d="M50.2632 71.4309C48.5259 71.4309 47.4401 69.5502 48.3087 68.0456L69.0455 32.1284C69.9142 30.6239 72.0858 30.6239 72.9545 32.1284L93.6913 68.0456C94.56 69.5502 93.4741 71.4309 91.7368 71.4309H50.2632ZM72.0642 103.302H69.9358V73.4309H50.2632C46.9863 73.4309 44.9382 69.8835 46.5767 67.0456L67.3135 31.1284C68.9519 28.2905 73.0481 28.2905 74.6865 31.1284L95.4233 67.0456C97.0618 69.8835 95.0137 73.4309 91.7368 73.4309H72.0642V103.302Z" fill="black"/>
<path d="M70.904 43.312C71.4373 43.312 71.8107 43.472 72.024 43.792C72.2373 44.112 72.344 44.464 72.344 44.848C72.344 45.872 72.2907 47.0347 72.184 48.336C72.0773 49.6373 71.96 51.0027 71.832 52.432C71.704 53.84 71.5867 55.2373 71.48 56.624C71.3733 57.9893 71.32 59.248 71.32 60.4H70.52C70.52 59.248 70.4667 57.9893 70.36 56.624C70.2533 55.2373 70.136 53.84 70.008 52.432C69.88 51.0027 69.7627 49.6373 69.656 48.336C69.5493 47.0347 69.496 45.872 69.496 44.848C69.496 44.464 69.6027 44.112 69.816 43.792C70.0293 43.472 70.392 43.312 70.904 43.312ZM70.904 62.928C71.3947 62.928 71.8 63.0987 72.12 63.44C72.44 63.76 72.6 64.1653 72.6 64.656C72.6 65.1253 72.44 65.52 72.12 65.84C71.8 66.16 71.3947 66.32 70.904 66.32C70.456 66.32 70.0613 66.16 69.72 65.84C69.4 65.52 69.24 65.1253 69.24 64.656C69.24 64.1653 69.4 63.76 69.72 63.44C70.0613 63.0987 70.456 62.928 70.904 62.928Z" fill="black"/>
</svg>
