<svg width="140" height="140" viewBox="0 0 140 140" fill="none" xmlns="http://www.w3.org/2000/svg">
<path d="M71 1C106.899 1 136 30.1015 136 66C136 101.899 106.899 131 71 131C56.0255 131 44.0339 127.845 33.0469 119.307C32.9367 119.406 32.814 119.519 32.6777 119.642C32.0431 120.214 31.1343 121.028 30.0381 121.999C27.8464 123.94 24.901 126.51 21.8906 129.019C18.8853 131.523 15.7947 133.984 13.3193 135.697C12.0879 136.55 10.9697 137.245 10.0713 137.664C9.62812 137.871 9.18022 138.038 8.7666 138.104C8.39071 138.163 7.76482 138.179 7.29297 137.707C6.86198 137.276 6.81946 136.684 6.82812 136.315C6.8381 135.893 6.92833 135.409 7.05957 134.906C7.32448 133.891 7.80855 132.598 8.42383 131.154C9.65898 128.256 11.4871 124.603 13.3652 121.034C15.2461 117.46 17.1888 113.952 18.6602 111.338C19.3961 110.03 20.0145 108.945 20.4492 108.188C20.57 107.977 20.6766 107.792 20.7676 107.634C10.3734 96.1265 6 82.7067 6 66C6 30.1015 35.1015 1 71 1Z" stroke="black" stroke-width="2"/>
<path d="M71 3.5C105.518 3.5 133.5 31.4822 133.5 66C133.5 100.518 105.518 128.5 71 128.5C56.1345 128.5 44.5569 125.326 33.9375 116.829L32.9355 116.027L31.9883 116.893H31.9873L31.9727 116.907C31.9619 116.917 31.9452 116.932 31.9238 116.951C31.8808 116.99 31.8171 117.049 31.7334 117.125C31.5657 117.277 31.3188 117.5 31.0039 117.784C30.3739 118.352 29.4708 119.162 28.3809 120.127C26.1998 122.059 23.2743 124.611 20.29 127.098C17.2982 129.591 14.2771 131.993 11.8965 133.642C11.0026 134.26 10.2305 134.75 9.60449 135.095C9.84316 134.311 10.2228 133.31 10.7236 132.135C11.9178 129.333 13.7071 125.751 15.5771 122.198C17.4432 118.653 19.3741 115.166 20.8389 112.563C21.5708 111.263 22.1854 110.184 22.6172 109.432C22.8331 109.055 23.0032 108.76 23.1191 108.56C23.1771 108.459 23.2221 108.383 23.252 108.331C23.2667 108.306 23.2777 108.286 23.2852 108.273C23.2889 108.267 23.2921 108.262 23.2939 108.259C23.2947 108.257 23.2955 108.257 23.2959 108.256L23.2969 108.255C23.297 108.255 23.2965 108.254 22 107.5L23.2969 108.254L23.8545 107.296L23.1016 106.481C12.8511 95.3964 8.5 82.4621 8.5 66C8.5 31.4822 36.4822 3.5 71 3.5Z" fill="#171297" stroke="white" stroke-width="3"/>
<mask id="path-3-outside-1_275_181" maskUnits="userSpaceOnUse" x="36" y="32.7806" width="83" height="74" fill="black">
<rect fill="white" x="36" y="32.7806" width="83" height="74"/>
<path d="M56.0272 46.7054V37.7806H41V79.0481H51.1452C55.0508 78.682 56.0272 75.285 56.0272 73.6323L48.094 66.2331L56.0272 63.5633V55.9353H63.3501C62.6178 53.4333 61.2142 51.7907 60.604 51.2822L56.0272 46.7054Z"/>
<path d="M77.7671 61.2745H100.346V100.788H77.7671V61.2745Z"/>
<path d="M41 82.3281H48.4754V87.0574H41V82.3281Z"/>
<path d="M41 89.0408H52.8997C56.6912 89.0408 59.7649 92.1145 59.7649 95.906V101.246H41V89.0408Z"/>
<path d="M83.1065 88.2781H85.3949V95.601H83.1065V88.2781Z"/>
<path d="M92.8705 88.2781H95.1589V95.601H92.8705V88.2781Z"/>
<path d="M82.4962 65.8518H95.6164V76.2259H82.4962V65.8518Z"/>
<path d="M63.4265 67.5299C63.4265 66.6031 64.1778 65.8518 65.1046 65.8518H72.7326C73.6595 65.8518 74.4108 66.6031 74.4108 67.5299C74.4108 68.4568 73.6595 69.2081 72.7326 69.2081H65.1046C64.1778 69.2081 63.4265 68.4568 63.4265 67.5299Z"/>
<path d="M73.0375 63.2581H75.7836V72.1066H73.0375V63.2581Z"/>
<path d="M104.804 52.6439C103.971 52.2988 103.078 52.1213 102.177 52.1213V54.1046C102.818 54.1046 103.453 54.2308 104.045 54.4762C104.083 54.4921 104.122 54.5086 104.16 54.5256C104.707 54.7688 105.205 55.1106 105.629 55.5344C106.052 55.9582 106.394 56.4562 106.638 57.0032C106.654 57.0413 106.671 57.0797 106.687 57.1182C106.932 57.7105 107.031 58.4217 107.031 59.0628H109.014C109.014 58.1612 108.864 57.1922 108.519 56.3593C108.174 55.5264 107.669 54.7695 107.031 54.132C106.394 53.4945 105.637 52.9889 104.804 52.6439Z"/>
<path d="M106.701 48.1394C105.267 47.5452 103.729 47.2394 102.177 47.2394V49.2227C102.844 49.2227 103.509 49.2906 104.16 49.4246C104.769 49.5498 105.365 49.7327 105.942 49.9717C107.136 50.4662 108.221 51.191 109.135 52.1048C110.048 53.0185 110.773 54.1033 111.268 55.2971C111.507 55.874 111.69 56.4709 111.815 57.0795C111.949 57.7305 112.017 58.3949 112.017 59.0628H114C114 57.5101 113.694 55.9726 113.1 54.5382C112.506 53.1037 111.635 51.8003 110.537 50.7024C109.439 49.6045 108.136 48.7336 106.701 48.1394Z"/>
</mask>
<path d="M56.0272 46.7054V37.7806H41V79.0481H51.1452C55.0508 78.682 56.0272 75.285 56.0272 73.6323L48.094 66.2331L56.0272 63.5633V55.9353H63.3501C62.6178 53.4333 61.2142 51.7907 60.604 51.2822L56.0272 46.7054Z" fill="#F5D8C2"/>
<path d="M77.7671 61.2745H100.346V100.788H77.7671V61.2745Z" fill="#949EAF"/>
<path d="M41 82.3281H48.4754V87.0574H41V82.3281Z" fill="#EFBE9A"/>
<path d="M41 89.0408H52.8997C56.6912 89.0408 59.7649 92.1145 59.7649 95.906V101.246H41V89.0408Z" fill="#96CC7F"/>
<path d="M83.1065 88.2781H85.3949V95.601H83.1065V88.2781Z" fill="#4D5D7A"/>
<path d="M92.8705 88.2781H95.1589V95.601H92.8705V88.2781Z" fill="#4D5D7A"/>
<path d="M82.4962 65.8518H95.6164V76.2259H82.4962V65.8518Z" fill="#EBF7FE"/>
<path d="M63.4265 67.5299C63.4265 66.6031 64.1778 65.8518 65.1046 65.8518H72.7326C73.6595 65.8518 74.4108 66.6031 74.4108 67.5299C74.4108 68.4568 73.6595 69.2081 72.7326 69.2081H65.1046C64.1778 69.2081 63.4265 68.4568 63.4265 67.5299Z" fill="#4D5D7A"/>
<path d="M73.0375 63.2581H75.7836V72.1066H73.0375V63.2581Z" fill="#EBF7FE"/>
<path d="M104.804 52.6439C103.971 52.2988 103.078 52.1213 102.177 52.1213V54.1046C102.818 54.1046 103.453 54.2308 104.045 54.4762C104.083 54.4921 104.122 54.5086 104.16 54.5256C104.707 54.7688 105.205 55.1106 105.629 55.5344C106.052 55.9582 106.394 56.4562 106.638 57.0032C106.654 57.0413 106.671 57.0797 106.687 57.1182C106.932 57.7105 107.031 58.4217 107.031 59.0628H109.014C109.014 58.1612 108.864 57.1922 108.519 56.3593C108.174 55.5264 107.669 54.7695 107.031 54.132C106.394 53.4945 105.637 52.9889 104.804 52.6439Z" fill="black"/>
<path d="M106.701 48.1394C105.267 47.5452 103.729 47.2394 102.177 47.2394V49.2227C102.844 49.2227 103.509 49.2906 104.16 49.4246C104.769 49.5498 105.365 49.7327 105.942 49.9717C107.136 50.4662 108.221 51.191 109.135 52.1048C110.048 53.0185 110.773 54.1033 111.268 55.2971C111.507 55.874 111.69 56.4709 111.815 57.0795C111.949 57.7305 112.017 58.3949 112.017 59.0628H114C114 57.5101 113.694 55.9726 113.1 54.5382C112.506 53.1037 111.635 51.8003 110.537 50.7024C109.439 49.6045 108.136 48.7336 106.701 48.1394Z" fill="black"/>
<path d="M81.3521 79.7516C79.9714 79.7516 78.8521 80.8709 78.8521 82.2516C78.8521 83.6323 79.9714 84.7516 81.3521 84.7516V79.7516ZM81.3521 82.2516V84.7516H96.6844V82.2516V79.7516H81.3521V82.2516ZM56.0272 37.7806H61.0272V32.7806H56.0272V37.7806ZM56.0272 46.7054H51.0272V48.7765L52.4916 50.2409L56.0272 46.7054ZM60.604 51.2822L57.0684 54.8177L57.2288 54.9781L57.403 55.1233L60.604 51.2822ZM63.3501 55.9353V60.9353H70.0232L68.1487 54.5308L63.3501 55.9353ZM56.0272 55.9353V50.9353H51.0272V55.9353H56.0272ZM56.0272 63.5633L57.622 68.3021L61.0272 67.1562V63.5633H56.0272ZM48.094 66.2331L46.4992 61.4943L38.5506 64.1693L44.6837 69.8895L48.094 66.2331ZM56.0272 73.6323H61.0272V71.4585L59.4375 69.9758L56.0272 73.6323ZM51.1452 79.0481V84.0481H51.3791L51.6119 84.0263L51.1452 79.0481ZM41 79.0481H36V84.0481H41V79.0481ZM41 37.7806V32.7806H36V37.7806H41ZM77.7671 61.2745V56.2745H72.7671V61.2745H77.7671ZM100.346 61.2745H105.346V56.2745H100.346V61.2745ZM100.346 100.788V105.788H105.346V100.788H100.346ZM77.7671 100.788H72.7671V105.788H77.7671V100.788ZM41 82.3281V77.3281H36V82.3281H41ZM48.4754 82.3281H53.4754V77.3281H48.4754V82.3281ZM48.4754 87.0574V92.0574H53.4754V87.0574H48.4754ZM41 87.0574H36V92.0574H41V87.0574ZM41 89.0408V84.0408H36V89.0408H41ZM59.7649 101.246V106.246H64.7649V101.246H59.7649ZM41 101.246H36V106.246H41V101.246ZM83.1065 88.2781V83.2781H78.1065V88.2781H83.1065ZM85.3949 88.2781H90.3949V83.2781H85.3949V88.2781ZM85.3949 95.601V100.601H90.3949V95.601H85.3949ZM83.1065 95.601H78.1065V100.601H83.1065V95.601ZM92.8705 88.2781V83.2781H87.8705V88.2781H92.8705ZM95.1589 88.2781H100.159V83.2781H95.1589V88.2781ZM95.1589 95.601V100.601H100.159V95.601H95.1589ZM92.8705 95.601H87.8705V100.601H92.8705V95.601ZM82.4962 65.8518V60.8518H77.4962V65.8518H82.4962ZM95.6164 65.8518H100.616V60.8518H95.6164V65.8518ZM95.6164 76.2259V81.2259H100.616V76.2259H95.6164ZM82.4962 76.2259H77.4962V81.2259H82.4962V76.2259ZM73.0375 63.2581V58.2581H68.0375V63.2581H73.0375ZM75.7836 63.2581H80.7836V58.2581H75.7836V63.2581ZM75.7836 72.1066V77.1066H80.7836V72.1066H75.7836ZM73.0375 72.1066H68.0375V77.1066H73.0375V72.1066ZM102.177 52.1213V47.1213H97.1766V52.1213H102.177ZM104.804 52.6439L102.89 57.2633L102.89 57.2633L104.804 52.6439ZM107.031 54.132L103.495 57.6676L103.495 57.6676L107.031 54.132ZM108.519 56.3593L103.9 58.2727L103.9 58.2727L108.519 56.3593ZM109.014 59.0628V64.0628H114.014V59.0628H109.014ZM106.687 57.1182L111.306 55.2048L111.306 55.2048L106.687 57.1182ZM106.638 57.0032L111.206 54.972L111.206 54.972L106.638 57.0032ZM107.031 59.0628H102.031V64.0628H107.031V59.0628ZM102.177 54.1046H97.1766V59.1046H102.177V54.1046ZM104.045 54.4762L105.958 49.8568L105.958 49.8568L104.045 54.4762ZM104.16 54.5256L106.191 49.9567L106.191 49.9567L104.16 54.5256ZM105.629 55.5344L102.093 59.07L102.093 59.07L105.629 55.5344ZM102.177 47.2394V42.2394H97.1766V47.2394H102.177ZM106.701 48.1394L104.788 52.7588L104.788 52.7588L106.701 48.1394ZM110.537 50.7024L107.001 54.2379L107.001 54.2379L110.537 50.7024ZM114 59.0628V64.0628H119V59.0628H114ZM112.017 59.0628H107.017V64.0628H112.017V59.0628ZM111.815 57.0795L116.712 56.0717L116.712 56.0717L111.815 57.0795ZM102.177 49.2227H97.1766V54.2227H102.177V49.2227ZM104.16 49.4246L103.152 54.322L103.152 54.322L104.16 49.4246ZM105.942 49.9717L104.029 54.5911L104.029 54.5911L105.942 49.9717ZM109.135 52.1048L105.599 55.6403L105.599 55.6403L109.135 52.1048ZM111.268 55.2971L115.887 53.3837L115.887 53.3837L111.268 55.2971ZM56.0272 37.7806H51.0272V46.7054H56.0272H61.0272V37.7806H56.0272ZM56.0272 46.7054L52.4916 50.2409L57.0684 54.8177L60.604 51.2822L64.1395 47.7467L59.5627 43.1699L56.0272 46.7054ZM60.604 51.2822L57.403 55.1233C57.2964 55.0345 57.3059 55.0273 57.4057 55.1427C57.492 55.2425 57.6164 55.4003 57.7565 55.6129C58.0388 56.0412 58.3429 56.6276 58.5514 57.3398L63.3501 55.9353L68.1487 54.5308C67.133 51.0602 65.1651 48.5746 63.8049 47.4411L60.604 51.2822ZM63.3501 55.9353V50.9353H56.0272V55.9353V60.9353H63.3501V55.9353ZM56.0272 55.9353H51.0272V63.5633H56.0272H61.0272V55.9353H56.0272ZM56.0272 63.5633L54.4324 58.8245L46.4992 61.4943L48.094 66.2331L49.6888 70.9719L57.622 68.3021L56.0272 63.5633ZM48.094 66.2331L44.6837 69.8895L52.6168 77.2887L56.0272 73.6323L59.4375 69.9758L51.5044 62.5767L48.094 66.2331ZM56.0272 73.6323H51.0272C51.0272 73.5988 51.0292 73.6067 51.0234 73.649C51.0179 73.6892 51.0078 73.7427 50.9914 73.8025C50.9561 73.9314 50.9121 74.0167 50.8868 74.0547C50.8701 74.0798 50.8837 74.0533 50.9281 74.0259C50.9458 74.015 50.9472 74.0176 50.9201 74.0264C50.8922 74.0356 50.8166 74.057 50.6785 74.07L51.1452 79.0481L51.6119 84.0263C55.1727 83.6925 57.7071 81.8586 59.2147 79.5906C60.5875 77.5255 61.0272 75.256 61.0272 73.6323H56.0272ZM51.1452 79.0481V74.0481H41V79.0481V84.0481H51.1452V79.0481ZM41 79.0481H46V37.7806H41H36V79.0481H41ZM41 37.7806V42.7806H56.0272V37.7806V32.7806H41V37.7806ZM77.7671 61.2745V66.2745H100.346V61.2745V56.2745H77.7671V61.2745ZM100.346 61.2745H95.346V100.788H100.346H105.346V61.2745H100.346ZM100.346 100.788V95.7876H77.7671V100.788V105.788H100.346V100.788ZM77.7671 100.788H82.7671V61.2745H77.7671H72.7671V100.788H77.7671ZM41 82.3281V87.3281H48.4754V82.3281V77.3281H41V82.3281ZM48.4754 82.3281H43.4754V87.0574H48.4754H53.4754V82.3281H48.4754ZM48.4754 87.0574V82.0574H41V87.0574V92.0574H48.4754V87.0574ZM41 87.0574H46V82.3281H41H36V87.0574H41ZM41 89.0408V94.0408H52.8997V89.0408V84.0408H41V89.0408ZM59.7649 95.906H54.7649V101.246H59.7649H64.7649V95.906H59.7649ZM59.7649 101.246V96.2456H41V101.246V106.246H59.7649V101.246ZM41 101.246H46V89.0408H41H36V101.246H41ZM52.8997 89.0408V94.0408C53.9298 94.0408 54.7649 94.8759 54.7649 95.906H59.7649H64.7649C64.7649 89.353 59.4527 84.0408 52.8997 84.0408V89.0408ZM83.1065 88.2781V93.2781H85.3949V88.2781V83.2781H83.1065V88.2781ZM85.3949 88.2781H80.3949V95.601H85.3949H90.3949V88.2781H85.3949ZM85.3949 95.601V90.601H83.1065V95.601V100.601H85.3949V95.601ZM83.1065 95.601H88.1065V88.2781H83.1065H78.1065V95.601H83.1065ZM92.8705 88.2781V93.2781H95.1589V88.2781V83.2781H92.8705V88.2781ZM95.1589 88.2781H90.1589V95.601H95.1589H100.159V88.2781H95.1589ZM95.1589 95.601V90.601H92.8705V95.601V100.601H95.1589V95.601ZM92.8705 95.601H97.8705V88.2781H92.8705H87.8705V95.601H92.8705ZM82.4962 65.8518V70.8518H95.6164V65.8518V60.8518H82.4962V65.8518ZM95.6164 65.8518H90.6164V76.2259H95.6164H100.616V65.8518H95.6164ZM95.6164 76.2259V71.2259H82.4962V76.2259V81.2259H95.6164V76.2259ZM82.4962 76.2259H87.4962V65.8518H82.4962H77.4962V76.2259H82.4962ZM65.1046 65.8518V70.8518H72.7326V65.8518V60.8518H65.1046V65.8518ZM72.7326 69.2081V64.2081H65.1046V69.2081V74.2081H72.7326V69.2081ZM65.1046 69.2081V64.2081C66.9392 64.2081 68.4265 65.6953 68.4265 67.5299H63.4265H58.4265C58.4265 71.2182 61.4164 74.2081 65.1046 74.2081V69.2081ZM74.4108 67.5299H69.4108C69.4108 65.6953 70.898 64.2081 72.7326 64.2081V69.2081V74.2081C76.4209 74.2081 79.4108 71.2182 79.4108 67.5299H74.4108ZM72.7326 65.8518V70.8518C70.898 70.8518 69.4108 69.3645 69.4108 67.5299H74.4108H79.4108C79.4108 63.8417 76.4209 60.8518 72.7326 60.8518V65.8518ZM65.1046 65.8518V60.8518C61.4164 60.8518 58.4265 63.8417 58.4265 67.5299H63.4265H68.4265C68.4265 69.3645 66.9392 70.8518 65.1046 70.8518V65.8518ZM73.0375 63.2581V68.2581H75.7836V63.2581V58.2581H73.0375V63.2581ZM75.7836 63.2581H70.7836V72.1066H75.7836H80.7836V63.2581H75.7836ZM75.7836 72.1066V67.1066H73.0375V72.1066V77.1066H75.7836V72.1066ZM73.0375 72.1066H78.0375V63.2581H73.0375H68.0375V72.1066H73.0375ZM104.804 52.6439L106.717 48.0245C105.278 47.4282 103.735 47.1213 102.177 47.1213V52.1213V57.1213C102.422 57.1213 102.664 57.1695 102.89 57.2633L104.804 52.6439ZM107.031 54.132L110.567 50.5965C109.465 49.4947 108.157 48.6207 106.717 48.0245L104.804 52.6439L102.89 57.2633C103.117 57.357 103.322 57.4944 103.495 57.6676L107.031 54.132ZM108.519 56.3593L113.139 54.4459C112.542 53.0063 111.668 51.6983 110.567 50.5965L107.031 54.132L103.495 57.6676C103.669 57.8408 103.806 58.0464 103.9 58.2727L108.519 56.3593ZM109.014 59.0628H114.014C114.014 57.6658 113.79 56.0184 113.139 54.4459L108.519 56.3593L103.9 58.2727C103.938 58.366 104.014 58.6567 104.014 59.0628H109.014ZM106.687 57.1182L111.306 55.2048C111.274 55.1267 111.241 55.0491 111.206 54.972L106.638 57.0032L102.069 59.0344C102.068 59.0335 102.068 59.0326 102.068 59.0317L106.687 57.1182ZM107.031 59.0628H112.031C112.031 57.9929 111.877 56.5837 111.306 55.2048L106.687 57.1182L102.067 59.0317C102.053 58.9974 102.043 58.9692 102.036 58.948C102.029 58.9267 102.024 58.911 102.021 58.9011C102.016 58.8823 102.017 58.8799 102.019 58.8947C102.021 58.9092 102.025 58.933 102.027 58.9648C102.03 58.9964 102.031 59.0299 102.031 59.0628H107.031ZM104.045 54.4762L105.958 49.8568C104.759 49.3602 103.474 49.1046 102.177 49.1046V54.1046V59.1046C102.161 59.1046 102.146 59.1015 102.131 59.0956L104.045 54.4762ZM104.16 54.5256L106.191 49.9567C106.114 49.9225 106.037 49.8892 105.958 49.8568L104.045 54.4762L102.131 59.0956C102.13 59.0951 102.129 59.0947 102.129 59.0944L104.16 54.5256ZM105.629 55.5344L109.164 51.9989C108.306 51.141 107.298 50.449 106.191 49.9567L104.16 54.5256L102.129 59.0944C102.115 59.0885 102.103 59.0802 102.093 59.07L105.629 55.5344ZM106.638 57.0032L111.206 54.972C110.714 53.8647 110.022 52.8568 109.164 51.9989L105.629 55.5344L102.093 59.07C102.083 59.0597 102.075 59.0477 102.069 59.0344L106.638 57.0032ZM102.177 54.1046H107.177V52.1213H102.177H97.1766V54.1046H102.177ZM107.031 59.0628V64.0628H109.014V59.0628V54.0628H107.031V59.0628ZM106.701 48.1394L108.615 43.52C106.574 42.6745 104.386 42.2394 102.177 42.2394V47.2394V52.2394C103.073 52.2394 103.96 52.4159 104.788 52.7588L106.701 48.1394ZM110.537 50.7024L114.073 47.1668C112.51 45.6046 110.656 44.3654 108.615 43.52L106.701 48.1394L104.788 52.7588C105.616 53.1017 106.368 53.6043 107.001 54.2379L110.537 50.7024ZM113.1 54.5382L117.719 52.6247C116.874 50.5836 115.635 48.729 114.073 47.1668L110.537 50.7024L107.001 54.2379C107.635 54.8715 108.138 55.6237 108.481 56.4516L113.1 54.5382ZM114 59.0628H119C119 56.8535 118.565 54.6658 117.719 52.6247L113.1 54.5382L108.481 56.4516C108.824 57.2794 109 58.1667 109 59.0628H114ZM112.017 59.0628H117.017C117.017 58.0556 116.914 57.0535 116.712 56.0717L111.815 57.0795L106.917 58.0873C106.983 58.4074 107.017 58.7343 107.017 59.0628H112.017ZM104.16 49.4246L105.168 44.5272C104.186 44.3252 103.184 44.2227 102.177 44.2227V49.2227V54.2227C102.505 54.2227 102.832 54.2561 103.152 54.322L104.16 49.4246ZM105.942 49.9717L107.856 45.3523C106.986 44.9919 106.086 44.7161 105.168 44.5272L104.16 49.4246L103.152 54.322C103.452 54.3836 103.745 54.4736 104.029 54.5911L105.942 49.9717ZM109.135 52.1048L112.67 48.5692C111.292 47.1912 109.656 46.0981 107.856 45.3523L105.942 49.9717L104.029 54.5911C104.616 54.8343 105.15 55.1908 105.599 55.6403L109.135 52.1048ZM111.268 55.2971L115.887 53.3837C115.141 51.5832 114.048 49.9473 112.67 48.5692L109.135 52.1048L105.599 55.6403C106.049 56.0897 106.405 56.6233 106.648 57.2105L111.268 55.2971ZM111.815 57.0795L116.712 56.0717C116.523 55.1539 116.247 54.2537 115.887 53.3837L111.268 55.2971L106.648 57.2105C106.766 57.4943 106.856 57.7879 106.917 58.0873L111.815 57.0795ZM102.177 49.2227H107.177V47.2394H102.177H97.1766V49.2227H102.177ZM112.017 59.0628V64.0628H114V59.0628V54.0628H112.017V59.0628Z" fill="white" mask="url(#path-3-outside-1_275_181)"/>
<path d="M61.2168 25.2295C63.4233 23.1752 67.0722 24.7548 67.084 27.7695L67.0723 28.0762L66.4932 35.6895L66.3301 37.8242L64.1963 37.9922L60.4189 38.29C60.3537 38.2952 60.2881 38.2969 60.2227 38.2969H38.5V31C38.5 29.067 40.067 27.5 42 27.5H59.1221L61.001 25.4473L61.2168 25.2295Z" fill="#574537" stroke="white" stroke-width="5"/>
<path d="M57.0273 73.6322C57.0273 74.618 56.7441 76.082 55.8838 77.3763C54.9964 78.7112 53.5127 79.8301 51.2383 80.0433L51.1924 80.0482H40V36.7806H57.0273V46.2914L61.291 50.5551C62.0654 51.2226 63.5367 53.014 64.3096 55.6547L64.6846 56.9349H57.0273V64.2816L56.3457 64.5111L50.0029 66.6449L56.709 72.9008L57.0273 73.1976V73.6322Z" fill="#F5D8C2" stroke="black" stroke-width="2"/>
<path d="M62.2305 26.3359C63.4913 25.1616 65.5763 26.0642 65.583 27.7871L65.5771 27.9619L64.9971 35.5762L64.9316 36.4297L64.0781 36.4971L60.3008 36.7939C60.2748 36.796 60.2487 36.7969 60.2227 36.7969H40V31C40 29.8954 40.8954 29 42 29H59.7832L62.1074 26.46L62.2305 26.3359Z" fill="#574537" stroke="black" stroke-width="2"/>
<rect x="76.7671" y="60.2745" width="24.5789" height="41.5131" fill="#949EAF" stroke="black" stroke-width="2" stroke-linejoin="round"/>
<rect x="40" y="81.3281" width="9.47544" height="6.72936" fill="#EFBE9A" stroke="black" stroke-width="2"/>
<path d="M53.7646 88.0408C57.6306 88.0408 60.7646 91.1748 60.7646 95.0408V102.246H42C40.8955 102.246 40.0001 101.35 40 100.246V88.0408H53.7646Z" fill="#96CC7F" stroke="black" stroke-width="2"/>
<rect x="82.1065" y="87.2781" width="4.2884" height="9.32288" fill="#4D5D7A" stroke="black" stroke-width="2" stroke-linejoin="round"/>
<rect x="91.8705" y="87.2781" width="4.2884" height="9.32288" fill="#4D5D7A" stroke="black" stroke-width="2" stroke-linejoin="round"/>
<rect x="81.4962" y="64.8518" width="15.1202" height="12.3741" fill="#EBF7FE" stroke="black" stroke-width="2" stroke-linejoin="round"/>
<rect x="62.4265" y="64.8518" width="12.9843" height="5.35632" rx="2.67816" fill="#4D5D7A" stroke="black" stroke-width="2" stroke-linejoin="round"/>
<rect x="72.0375" y="62.2581" width="4.74608" height="10.8485" fill="#EBF7FE" stroke="black" stroke-width="2" stroke-linejoin="round"/>
<path d="M81.3522 82.2516H96.6845" stroke="black" stroke-width="2" stroke-linecap="round"/>
<path d="M106.701 48.1394C105.267 47.5452 103.729 47.2394 102.177 47.2394V49.2227C102.844 49.2227 103.509 49.2906 104.16 49.4246C104.768 49.5498 105.365 49.7328 105.942 49.9717C107.136 50.4662 108.221 51.191 109.135 52.1048C110.048 53.0185 110.773 54.1033 111.268 55.2971C111.507 55.874 111.69 56.4709 111.815 57.0795C111.949 57.7305 112.017 58.395 112.017 59.0628H114C114 57.5101 113.694 55.9726 113.1 54.5382C112.506 53.1037 111.635 51.8003 110.537 50.7024C109.439 49.6045 108.136 48.7336 106.701 48.1394Z" fill="black"/>
</svg>
