<svg width="140" height="140" viewBox="0 0 140 140" fill="none" xmlns="http://www.w3.org/2000/svg">
<path d="M71 1C106.899 1 136 30.1015 136 66C136 101.899 106.899 131 71 131C56.0255 131 44.0339 127.845 33.0469 119.307C32.9367 119.406 32.814 119.519 32.6777 119.642C32.0431 120.214 31.1343 121.028 30.0381 121.999C27.8464 123.94 24.901 126.51 21.8906 129.019C18.8853 131.523 15.7947 133.984 13.3193 135.697C12.0879 136.55 10.9697 137.245 10.0713 137.664C9.62812 137.871 9.18022 138.038 8.7666 138.104C8.39071 138.163 7.76482 138.179 7.29297 137.707C6.86198 137.276 6.81946 136.684 6.82812 136.315C6.8381 135.893 6.92833 135.409 7.05957 134.906C7.32448 133.891 7.80855 132.598 8.42383 131.154C9.65898 128.256 11.4871 124.603 13.3652 121.034C15.2461 117.46 17.1888 113.952 18.6602 111.338C19.3961 110.03 20.0145 108.945 20.4492 108.188C20.57 107.977 20.6766 107.792 20.7676 107.634C10.3734 96.1265 6 82.7067 6 66C6 30.1015 35.1015 1 71 1Z" stroke="black" stroke-width="2"/>
<path d="M71 3.5C105.518 3.5 133.5 31.4822 133.5 66C133.5 100.518 105.518 128.5 71 128.5C56.1345 128.5 44.5569 125.326 33.9375 116.829L32.9355 116.027L31.9883 116.893H31.9873L31.9727 116.907C31.9619 116.917 31.9452 116.932 31.9238 116.951C31.8808 116.99 31.8171 117.049 31.7334 117.125C31.5657 117.277 31.3188 117.5 31.0039 117.784C30.3739 118.352 29.4708 119.162 28.3809 120.127C26.1998 122.059 23.2743 124.611 20.29 127.098C17.2982 129.591 14.2771 131.993 11.8965 133.642C11.0026 134.26 10.2305 134.75 9.60449 135.095C9.84316 134.311 10.2228 133.31 10.7236 132.135C11.9178 129.333 13.7071 125.751 15.5771 122.198C17.4432 118.653 19.3741 115.166 20.8389 112.563C21.5708 111.263 22.1854 110.184 22.6172 109.432C22.8331 109.055 23.0032 108.76 23.1191 108.56C23.1771 108.459 23.2221 108.383 23.252 108.331C23.2667 108.306 23.2777 108.286 23.2852 108.273C23.2889 108.267 23.2921 108.262 23.2939 108.259C23.2947 108.257 23.2955 108.257 23.2959 108.256L23.2969 108.255C23.297 108.255 23.2965 108.254 22 107.5L23.2969 108.254L23.8545 107.296L23.1016 106.481C12.8511 95.3964 8.5 82.4621 8.5 66C8.5 31.4822 36.4822 3.5 71 3.5Z" fill="#171297" stroke="white" stroke-width="3"/>
<path d="M78.0666 49.6657L94.1331 56.7871L78.0666 61.9979L62 56.7871L78.0666 49.6657Z" fill="#EF5A1C"/>
<path d="M94.1331 56.7871L78.0666 61.9979L62 56.7871L62 59.5021L78.0666 64.7129L94.1331 59.5021V56.7871Z" fill="#D9D9D9"/>
<path d="M96.1328 60.9557L94.75 61.405L78.6836 66.6149L78.0664 66.8151L77.4492 66.6149L61.3828 61.405L60 60.9557V55.486L61.1895 54.9587L77.2559 47.8376L78.0664 47.4782L78.877 47.8376L94.9434 54.9587L96.1328 55.486V60.9557Z" stroke="white" stroke-width="4"/>
<path d="M73.4665 28.2568C74.6988 23.9144 80.9128 23.9145 82.1452 28.2568L82.2009 28.4707L83.7897 35.1348L88.1276 53.3213L88.1813 53.6074C88.3676 54.945 87.644 56.2839 86.3522 56.8135L86.0671 56.9141C84.4492 57.3977 80.6743 58.4394 77.8063 58.4395C75.2967 58.4395 72.0923 57.6416 70.2468 57.1182L69.5456 56.9141C67.9787 56.4457 67.1208 54.845 67.4841 53.3213L67.5417 53.0811L70.4782 40.7686L71.57 36.1875L71.822 35.1348L73.4108 28.4707L73.4665 28.2568Z" fill="#FF4B00" stroke="white" stroke-width="4"/>
<path d="M84.0419 36.1877L85.4804 42.22L85.9189 44.0588L84.1074 44.6008C82.3653 45.1215 80.6069 45.5696 77.8056 45.5696C75.0043 45.5695 73.246 45.1216 71.5038 44.6008L69.6933 44.0588L70.1318 42.22L71.5703 36.1877L72.0615 34.1292L74.0888 34.7356C74.904 34.9793 75.1838 35.0491 75.5244 35.0872C75.9268 35.1321 76.4356 35.1351 77.7099 35.135H77.9023L79.3222 35.1282C79.6584 35.1218 79.8858 35.1096 80.0869 35.0872C80.4277 35.0491 80.7078 34.9794 81.5234 34.7356L83.5507 34.1292L84.0419 36.1877Z" fill="white" stroke="white" stroke-width="4"/>
<path d="M86.9186 48.2532L88.1276 53.3215L88.1813 53.6077C88.3674 54.945 87.6438 56.2831 86.3522 56.8127L86.0671 56.9143C84.4492 57.3979 80.6743 58.4396 77.8063 58.4397C75.2967 58.4397 72.0923 57.6419 70.2468 57.1184L69.5456 56.9143C67.9787 56.446 67.1209 54.8451 67.4841 53.3215L68.6931 48.2532L69.1843 46.1946L71.2116 46.801C72.841 47.2881 75.5873 48.0051 77.8063 48.0051C80.0255 48.0051 82.7718 47.288 84.4011 46.801L86.4284 46.1946L86.9186 48.2532Z" fill="white" stroke="white" stroke-width="4"/>
<path d="M78.0666 49.6657L94.1331 56.7871L78.0666 61.9979L62 56.7871L78.0666 49.6657Z" fill="#EF5A1C"/>
<path d="M94.1331 56.7871L78.0666 61.9979L62 56.7871L62 59.5021L78.0666 64.7129L94.1331 59.5021V56.7871Z" fill="#D9D9D9"/>
<path d="M95.1328 60.2292L94.4414 60.4528L78.375 65.6638L78.0664 65.7643L77.7578 65.6638L61.6914 60.4528L61 60.2292V56.1364L61.5947 55.8727L77.6611 48.7516L78.0664 48.572L78.4717 48.7516L94.5381 55.8727L95.1328 56.1364V60.2292Z" stroke="black" stroke-width="2"/>
<path d="M74.4763 28.375C75.5241 25.2084 80.0875 25.2084 81.1354 28.375L81.2282 28.7021L82.9948 36.1113L87.155 53.5527L87.1911 53.7451C87.3166 54.6436 86.8303 55.5361 85.9704 55.8887L85.78 55.9561C84.1516 56.4428 80.5087 57.4394 77.8063 57.4395C75.4415 57.4395 72.356 56.6761 70.5309 56.1592L69.8317 55.9561C68.7894 55.6445 68.2124 54.5774 68.4567 53.5527L69.0671 50.9951L72.1403 38.1074L72.5427 36.4199L72.6169 36.1113L74.3835 28.7021L74.4763 28.375Z" fill="#FF4B00" stroke="black" stroke-width="2"/>
<path d="M83.0693 36.4192L84.5078 42.4524L84.7265 43.3713L83.8212 43.6428C82.131 44.1481 80.4749 44.5696 77.8056 44.5696C75.1366 44.5695 73.4811 44.148 71.791 43.6428L70.8847 43.3713L71.1044 42.4524L72.5429 36.4192L72.788 35.3909L73.8017 35.6936C74.6139 35.9364 74.9732 36.032 75.414 36.0813C75.8856 36.134 76.462 36.1351 77.7099 36.135H77.9023L79.3417 36.1282C79.7006 36.1212 79.9624 36.1076 80.1982 36.0813C80.6389 36.0321 80.9975 35.9363 81.8095 35.6936L82.8232 35.3909L83.0693 36.4192Z" fill="white" stroke="black" stroke-width="2"/>
<path d="M85.946 48.4846L87.155 53.553L87.1911 53.7454C87.3164 54.6438 86.8303 55.5364 85.9704 55.8889L85.78 55.9553C84.1517 56.442 80.5088 57.4396 77.8063 57.4397C75.4416 57.4397 72.3561 56.6764 70.5309 56.1594L69.8317 55.9553C68.7894 55.6437 68.2124 54.5776 68.4567 53.553L69.6657 48.4846L69.9108 47.4563L70.9245 47.759C72.5584 48.2474 75.4281 49.0051 77.8063 49.0051C80.1845 49.0051 83.0533 48.2474 84.6872 47.759L85.7009 47.4563L85.946 48.4846Z" fill="white" stroke="black" stroke-width="2"/>
<path d="M93.5 76.9201L114 86.0066L93.5 92.6552L73 86.0066L93.5 76.9201Z" fill="#EF5A1C"/>
<path d="M114 86.0066L93.5 92.6552L73 86.0066L73 89.4707L93.5 96.1194L114 89.4707V86.0066Z" fill="#D9D9D9"/>
<path d="M116.5 91.2883L114.771 91.8488L94.2715 98.4973L93.5 98.7473L92.7285 98.4973L72.2285 91.8488L70.5 91.2883V84.3801L71.9873 83.7209L92.4873 74.6349L93.5 74.1857L94.5127 74.6349L115.013 83.7209L116.5 84.3801V91.2883Z" stroke="white" stroke-width="5"/>
<path d="M87.6807 49.6182C89.2389 44.1273 97.0972 44.1272 98.6553 49.6182L98.7256 49.8877L103.781 71.0898L104.657 74.7637L106.287 81.5967L106.325 81.7764C106.665 83.5791 105.671 85.4249 103.875 86.0596L103.693 86.1182C101.629 86.7354 96.8187 88.0634 93.168 88.0635C89.9738 88.0635 85.892 87.0475 83.5381 86.3799L82.6426 86.1182C80.6705 85.5287 79.5906 83.5148 80.0479 81.5967L81.5898 75.1299L81.6777 74.7637L83.4258 67.4326L87.6104 49.8877L87.6807 49.6182Z" fill="#FF4B00" stroke="white" stroke-width="5"/>
<path d="M101.074 59.7348L102.91 67.4321L103.457 69.7309L101.194 70.4077C98.9734 71.0713 96.7351 71.642 93.1674 71.642C89.5998 71.642 87.3621 71.0713 85.142 70.4077L82.8783 69.7309L83.4261 67.4321L85.2621 59.7348L85.8754 57.1625L88.4095 57.9194C89.4502 58.2304 89.8113 58.3214 90.2513 58.3705C90.7684 58.4283 91.4201 58.4321 93.0443 58.4321H93.2904L94.3402 58.4301C95.2329 58.4264 95.6966 58.4139 96.0844 58.3705C96.5243 58.3214 96.8857 58.2304 97.9261 57.9194L100.46 57.1625L101.074 59.7348Z" fill="white" stroke="white" stroke-width="5"/>
<path d="M104.745 75.1296L106.287 81.5964L106.325 81.7761C106.665 83.5789 105.671 85.4246 103.875 86.0593L103.693 86.1189C101.629 86.7361 96.8187 88.0631 93.168 88.0632C89.9737 88.0632 85.892 87.0472 83.5381 86.3796L82.6426 86.1189C80.6705 85.5294 79.5905 83.5147 80.0479 81.5964L81.5898 75.1296L82.2041 72.5574L84.7383 73.3142C86.8175 73.9357 90.3281 74.8533 93.168 74.8533C96.0077 74.8532 99.5175 73.9357 101.597 73.3142L104.131 72.5574L104.745 75.1296Z" fill="white" stroke="white" stroke-width="5"/>
<mask id="path-18-outside-1_275_181" maskUnits="userSpaceOnUse" x="28" y="33" width="52" height="66" fill="black">
<rect fill="white" x="28" y="33" width="52" height="66"/>
<path d="M43.8182 52.81C43.8182 52.6822 43.9218 52.5785 44.0496 52.5785H63.6033C63.7311 52.5785 63.8347 52.6822 63.8347 52.81V55.9339C63.8347 56.0617 63.7311 56.1653 63.6033 56.1653H44.0496C43.9218 56.1653 43.8182 56.0617 43.8182 55.9339V52.81Z"/>
<path d="M50.0083 94H34.2727C33.5698 94 33 93.4302 33 92.7273V82.0802C33 78.0326 36.114 74.6663 40.1494 74.3516L45.3593 73.9453C45.5165 73.933 45.6691 74.0016 45.7643 74.1273L51.627 81.8705C51.7017 81.9692 51.7338 82.0938 51.716 82.2163L50.0083 94Z"/>
<path d="M48.6571 77.637L46.1498 73.9398C45.9072 73.582 46.0693 73.0915 46.4773 72.9487C46.6941 72.8728 46.9348 72.9154 47.1125 73.0611L51.9752 77.0496L49.7816 77.9709C49.3751 78.1416 48.9046 78.0019 48.6571 77.637Z"/>
<path d="M49.4219 72.2284L49.2189 72.6713C49.0379 73.066 49.1558 73.5335 49.5022 73.7954L53.3417 76.6973C53.6646 76.9413 54.1085 76.9473 54.4378 76.7121L58.5269 73.7913C58.8879 73.5334 59.0152 73.0557 58.8304 72.6524L58.636 72.2284C58.5556 72.053 58.5321 71.8568 58.5686 71.6673L58.9363 69.7622C59.0465 69.1911 58.609 68.6611 58.0275 68.6611H50.0304C49.4489 68.6611 49.0114 69.1911 49.1216 69.7622L49.4893 71.6673C49.5258 71.8568 49.5023 72.053 49.4219 72.2284Z"/>
<path d="M46.4215 56.3216V51.9421C46.4215 51.4308 46.8359 51.0164 47.3471 51.0164H60.3058C60.817 51.0164 61.2314 51.4308 61.2314 51.9421V56.3216C61.2314 56.938 61.8226 57.3823 62.4147 57.2106L64.0398 56.7396C64.6319 56.568 65.2231 57.0122 65.2231 57.6286V58.9959C65.2231 59.4092 64.9492 59.7724 64.5518 59.8859L63.4647 60.1965C63.0673 60.3101 62.7913 60.6697 62.752 61.0811C62.5449 63.249 61.3006 69.7602 53.8264 69.7602C46.3523 69.7602 45.108 63.249 44.9009 61.0811C44.8615 60.6697 44.5855 60.3101 44.1882 60.1965L43.1011 59.8859C42.7037 59.7724 42.4297 59.4092 42.4297 58.9959V57.6286C42.4297 57.0122 43.021 56.568 43.613 56.7396L45.2382 57.2106C45.8302 57.3823 46.4215 56.938 46.4215 56.3216Z"/>
<path d="M65.6859 49.3388C65.6859 51.767 60.5317 53.7355 54.1735 53.7355C47.8154 53.7355 42.6611 51.767 42.6611 49.3388C42.6611 46.9105 47.8154 44.9421 54.1735 44.9421C60.5317 44.9421 65.6859 46.9105 65.6859 49.3388Z"/>
<path d="M68 46.2727C68 50.2026 61.6802 48.9917 53.8843 48.9917C46.0884 48.9917 39.7686 50.2026 39.7686 46.2727C39.7686 42.3428 46.0884 38 53.8843 38C61.6802 38 68 42.3428 68 46.2727Z"/>
<path d="M34.4032 78.937C34.0436 78.5736 34.0466 77.9876 34.41 77.628L36.2654 75.7916C36.6287 75.432 37.2148 75.435 37.5744 75.7984L37.9813 76.2095C38.3409 76.5729 38.3379 77.1589 37.9746 77.5185L36.1192 79.3549C35.7558 79.7145 35.1698 79.7115 34.8102 79.3482L34.4032 78.937Z"/>
<path d="M42.1983 87.8677C42.1983 87.6121 42.4055 87.4049 42.6611 87.4049H46.1973C46.4529 87.4049 46.6601 87.6121 46.6601 87.8677V89.3718C46.6601 89.6274 46.4529 89.8346 46.1973 89.8346H42.6611C42.4055 89.8346 42.1983 89.6274 42.1983 89.3718V87.8677Z"/>
<path d="M53.8843 79.0744L52.2645 79.8843L52.843 80.8678H54.9256L55.5042 79.8843L53.8843 79.0744Z"/>
<path d="M53.3636 82.6611L51.9173 94H55.9669L54.5785 82.6611H53.3636Z"/>
<path d="M57.9339 94H73.6694C74.3723 94 74.9421 93.4302 74.9421 92.7273V82.0802C74.9421 78.0326 71.8281 74.6663 67.7928 74.3516L62.5828 73.9453C62.4256 73.933 62.273 74.0016 62.1778 74.1273L56.3151 81.8705C56.2404 81.9692 56.2083 82.0938 56.2261 82.2163L57.9339 94Z"/>
<path d="M59.285 77.637L61.7923 73.9398C62.0349 73.582 61.8729 73.0915 61.4648 72.9487C61.248 72.8728 61.0073 72.9154 60.8297 73.0611L55.9669 77.0496L58.1605 77.9709C58.567 78.1416 59.0375 78.0019 59.285 77.637Z"/>
<path d="M73.539 78.937C73.8986 78.5736 73.8956 77.9876 73.5322 77.628L71.6768 75.7916C71.3135 75.432 70.7274 75.435 70.3678 75.7984L69.9609 76.2095C69.6013 76.5729 69.6043 77.1589 69.9676 77.5185L71.823 79.3549C72.1864 79.7145 72.7724 79.7115 73.132 79.3482L73.539 78.937Z"/>
<path d="M65.7438 87.8677C65.7438 87.6121 65.5366 87.4049 65.281 87.4049H61.7449C61.4893 87.4049 61.2821 87.6121 61.2821 87.8677V89.3718C61.2821 89.6274 61.4893 89.8346 61.7449 89.8346H65.281C65.5366 89.8346 65.7438 89.6274 65.7438 89.3718V87.8677Z"/>
</mask>
<path d="M43.8182 52.81C43.8182 52.6822 43.9218 52.5785 44.0496 52.5785H63.6033C63.7311 52.5785 63.8347 52.6822 63.8347 52.81V55.9339C63.8347 56.0617 63.7311 56.1653 63.6033 56.1653H44.0496C43.9218 56.1653 43.8182 56.0617 43.8182 55.9339V52.81Z" fill="#F29900"/>
<path d="M50.0083 94H34.2727C33.5698 94 33 93.4302 33 92.7273V82.0802C33 78.0326 36.114 74.6663 40.1494 74.3516L45.3593 73.9453C45.5165 73.933 45.6691 74.0016 45.7643 74.1273L51.627 81.8705C51.7017 81.9692 51.7338 82.0938 51.716 82.2163L50.0083 94Z" fill="#2D5872"/>
<path d="M48.6571 77.637L46.1498 73.9398C45.9072 73.582 46.0693 73.0915 46.4773 72.9487C46.6941 72.8728 46.9348 72.9154 47.1125 73.0611L51.9752 77.0496L49.7816 77.9709C49.3751 78.1416 48.9046 78.0019 48.6571 77.637Z" fill="#1D4559"/>
<path d="M49.4219 72.2284L49.2189 72.6713C49.0379 73.066 49.1558 73.5335 49.5022 73.7954L53.3417 76.6973C53.6646 76.9413 54.1085 76.9473 54.4378 76.7121L58.5269 73.7913C58.8879 73.5334 59.0152 73.0557 58.8304 72.6524L58.636 72.2284C58.5556 72.053 58.5321 71.8568 58.5686 71.6673L58.9363 69.7622C59.0465 69.1911 58.609 68.6611 58.0275 68.6611H50.0304C49.4489 68.6611 49.0114 69.1911 49.1216 69.7622L49.4893 71.6673C49.5258 71.8568 49.5023 72.053 49.4219 72.2284Z" fill="#FFE7CF"/>
<path d="M46.4215 56.3216V51.9421C46.4215 51.4308 46.8359 51.0164 47.3471 51.0164H60.3058C60.817 51.0164 61.2314 51.4308 61.2314 51.9421V56.3216C61.2314 56.938 61.8226 57.3823 62.4147 57.2106L64.0398 56.7396C64.6319 56.568 65.2231 57.0122 65.2231 57.6286V58.9959C65.2231 59.4092 64.9492 59.7724 64.5518 59.8859L63.4647 60.1965C63.0673 60.3101 62.7913 60.6697 62.752 61.0811C62.5449 63.249 61.3006 69.7602 53.8264 69.7602C46.3523 69.7602 45.108 63.249 44.9009 61.0811C44.8615 60.6697 44.5855 60.3101 44.1882 60.1965L43.1011 59.8859C42.7037 59.7724 42.4297 59.4092 42.4297 58.9959V57.6286C42.4297 57.0122 43.021 56.568 43.613 56.7396L45.2382 57.2106C45.8302 57.3823 46.4215 56.938 46.4215 56.3216Z" fill="#FFE7CF"/>
<path d="M65.6859 49.3388C65.6859 51.767 60.5317 53.7355 54.1735 53.7355C47.8154 53.7355 42.6611 51.767 42.6611 49.3388C42.6611 46.9105 47.8154 44.9421 54.1735 44.9421C60.5317 44.9421 65.6859 46.9105 65.6859 49.3388Z" fill="#183C53"/>
<path d="M68 46.2727C68 50.2026 61.6802 48.9917 53.8843 48.9917C46.0884 48.9917 39.7686 50.2026 39.7686 46.2727C39.7686 42.3428 46.0884 38 53.8843 38C61.6802 38 68 42.3428 68 46.2727Z" fill="#2D5872"/>
<path d="M34.4032 78.937C34.0436 78.5736 34.0466 77.9876 34.41 77.628L36.2654 75.7916C36.6287 75.432 37.2148 75.435 37.5744 75.7984L37.9813 76.2095C38.3409 76.5729 38.3379 77.1589 37.9746 77.5185L36.1192 79.3549C35.7558 79.7145 35.1698 79.7115 34.8102 79.3482L34.4032 78.937Z" fill="#FFBF14"/>
<path d="M42.1983 87.8677C42.1983 87.6121 42.4055 87.4049 42.6611 87.4049H46.1973C46.4529 87.4049 46.6601 87.6121 46.6601 87.8677V89.3718C46.6601 89.6274 46.4529 89.8346 46.1973 89.8346H42.6611C42.4055 89.8346 42.1983 89.6274 42.1983 89.3718V87.8677Z" fill="#1D4559"/>
<path d="M53.8843 79.0744L52.2645 79.8843L52.843 80.8678H54.9256L55.5042 79.8843L53.8843 79.0744Z" fill="#282C3A"/>
<path d="M53.3636 82.6611L51.9173 94H55.9669L54.5785 82.6611H53.3636Z" fill="#282C3A"/>
<path d="M57.9339 94H73.6694C74.3723 94 74.9421 93.4302 74.9421 92.7273V82.0802C74.9421 78.0326 71.8281 74.6663 67.7928 74.3516L62.5828 73.9453C62.4256 73.933 62.273 74.0016 62.1778 74.1273L56.3151 81.8705C56.2404 81.9692 56.2083 82.0938 56.2261 82.2163L57.9339 94Z" fill="#2D5872"/>
<path d="M59.285 77.637L61.7923 73.9398C62.0349 73.582 61.8729 73.0915 61.4648 72.9487C61.248 72.8728 61.0073 72.9154 60.8297 73.0611L55.9669 77.0496L58.1605 77.9709C58.567 78.1416 59.0375 78.0019 59.285 77.637Z" fill="#1D4559"/>
<path d="M73.539 78.937C73.8986 78.5736 73.8956 77.9876 73.5322 77.628L71.6768 75.7916C71.3135 75.432 70.7274 75.435 70.3678 75.7984L69.9609 76.2095C69.6013 76.5729 69.6043 77.1589 69.9676 77.5185L71.823 79.3549C72.1864 79.7145 72.7724 79.7115 73.132 79.3482L73.539 78.937Z" fill="#FFBF14"/>
<path d="M65.7438 87.8677C65.7438 87.6121 65.5366 87.4049 65.281 87.4049H61.7449C61.4893 87.4049 61.2821 87.6121 61.2821 87.8677V89.3718C61.2821 89.6274 61.4893 89.8346 61.7449 89.8346H65.281C65.5366 89.8346 65.7438 89.6274 65.7438 89.3718V87.8677Z" fill="#1D4559"/>
<path d="M50.0083 94V99H54.3359L54.9566 94.7171L50.0083 94ZM51.716 82.2163L56.6644 82.9334L56.6644 82.9334L51.716 82.2163ZM51.627 81.8705L55.6133 78.8524L55.6133 78.8523L51.627 81.8705ZM45.7643 74.1273L49.7506 71.1091L49.7506 71.1091L45.7643 74.1273ZM45.3593 73.9453L44.9706 68.9604L44.9706 68.9604L45.3593 73.9453ZM40.1494 74.3516L40.5381 79.3364L40.5381 79.3364L40.1494 74.3516ZM46.1498 73.9398L50.288 71.1335L50.288 71.1335L46.1498 73.9398ZM48.6571 77.637L52.7953 74.8307L52.7953 74.8307L48.6571 77.637ZM49.7816 77.9709L47.8455 73.361L47.8455 73.361L49.7816 77.9709ZM51.9752 77.0496L53.9114 81.6595L61.5621 78.4462L55.1461 73.1837L51.9752 77.0496ZM47.1125 73.0611L50.2834 69.1951L50.2834 69.1951L47.1125 73.0611ZM46.4773 72.9487L48.1291 77.668L48.1291 77.668L46.4773 72.9487ZM49.2189 72.6713L53.7642 74.7545L53.7642 74.7545L49.2189 72.6713ZM49.4219 72.2284L44.8765 70.1451L44.8765 70.1451L49.4219 72.2284ZM49.4893 71.6673L54.3987 70.7199L49.4893 71.6673ZM49.1216 69.7622L44.2122 70.7096L44.2122 70.7096L49.1216 69.7622ZM58.8304 72.6524L63.3757 70.5691L63.3757 70.5691L58.8304 72.6524ZM58.636 72.2284L63.1814 70.1451L63.1814 70.1451L58.636 72.2284ZM58.5686 71.6673L63.4781 72.6148L63.4781 72.6148L58.5686 71.6673ZM58.9363 69.7622L54.0269 68.8147L54.0269 68.8147L58.9363 69.7622ZM49.5022 73.7954L46.4874 77.7842L46.4874 77.7842L49.5022 73.7954ZM53.3417 76.6973L56.3565 72.7085L56.3565 72.7084L53.3417 76.6973ZM54.4378 76.7121L57.344 80.7807L57.344 80.7807L54.4378 76.7121ZM58.5269 73.7913L61.4331 77.8599L61.4331 77.8599L58.5269 73.7913ZM45.2382 57.2106L43.8462 62.013L43.8462 62.013L45.2382 57.2106ZM43.613 56.7396L45.005 51.9373L45.005 51.9373L43.613 56.7396ZM43.1011 59.8859L41.7275 64.6936L41.7275 64.6936L43.1011 59.8859ZM44.1882 60.1965L45.5618 55.3889L45.5618 55.3889L44.1882 60.1965ZM44.9009 61.0811L49.8782 60.6055L49.8782 60.6055L44.9009 61.0811ZM62.4147 57.2106L61.0227 52.4083L61.0227 52.4083L62.4147 57.2106ZM64.0398 56.7396L65.4318 61.5419L65.4318 61.5419L64.0398 56.7396ZM64.5518 59.8859L65.9254 64.6936L65.9254 64.6936L64.5518 59.8859ZM63.4647 60.1965L62.0911 55.3889L62.0911 55.3889L63.4647 60.1965ZM62.752 61.0811L57.7747 60.6055L57.7747 60.6055L62.752 61.0811ZM36.1192 79.3549L32.6019 75.8012L32.6019 75.8012L36.1192 79.3549ZM34.8102 79.3482L31.2565 82.8654L31.2565 82.8654L34.8102 79.3482ZM37.9813 76.2095L41.535 72.6923L41.535 72.6923L37.9813 76.2095ZM37.9746 77.5185L41.4918 81.0723L41.4918 81.0723L37.9746 77.5185ZM36.2654 75.7916L32.7481 72.2379L32.7481 72.2379L36.2654 75.7916ZM37.5744 75.7984L34.0206 79.3156L34.0207 79.3156L37.5744 75.7984ZM34.41 77.628L37.9272 81.1817L37.9272 81.1817L34.41 77.628ZM34.4032 78.937L37.9569 75.4197L37.9569 75.4197L34.4032 78.937ZM52.2645 79.8843L50.0284 75.4121C48.7895 76.0316 47.8631 77.1373 47.47 78.4655C47.077 79.7937 47.2525 81.2255 47.9548 82.4194L52.2645 79.8843ZM53.8843 79.0744L56.1204 74.6022C54.7127 73.8984 53.0559 73.8984 51.6482 74.6022L53.8843 79.0744ZM52.843 80.8678L48.5333 83.4029C49.4317 84.93 51.0712 85.8678 52.843 85.8678V80.8678ZM55.5042 79.8843L59.8138 82.4194C60.5161 81.2255 60.6917 79.7937 60.2986 78.4655C59.9056 77.1373 58.9791 76.0316 57.7402 75.4121L55.5042 79.8843ZM54.9256 80.8678V85.8678C56.6975 85.8678 58.337 84.93 59.2353 83.4029L54.9256 80.8678ZM51.9173 94L46.9575 93.3673L46.2391 99H51.9173V94ZM53.3636 82.6611V77.6611H48.9609L48.4038 82.0285L53.3636 82.6611ZM54.5785 82.6611L59.5414 82.0534L59.0036 77.6611H54.5785V82.6611ZM55.9669 94V99H61.6165L60.9299 93.3923L55.9669 94ZM57.9339 94L52.9856 94.7171L53.6063 99H57.9339V94ZM56.2261 82.2163L51.2778 82.9334L51.2778 82.9334L56.2261 82.2163ZM56.3151 81.8705L52.3288 78.8523L52.3288 78.8524L56.3151 81.8705ZM62.1778 74.1273L58.1915 71.1091L58.1915 71.1091L62.1778 74.1273ZM62.5828 73.9453L62.9715 68.9604L62.9715 68.9604L62.5828 73.9453ZM67.7928 74.3516L67.404 79.3364L67.404 79.3364L67.7928 74.3516ZM61.7923 73.9398L57.6541 71.1335L57.6541 71.1335L61.7923 73.9398ZM59.285 77.637L63.4232 80.4434L63.4232 80.4434L59.285 77.637ZM58.1605 77.9709L60.0967 73.361L60.0967 73.361L58.1605 77.9709ZM55.9669 77.0496L52.796 73.1837L46.38 78.4462L54.0308 81.6595L55.9669 77.0496ZM60.8297 73.0611L57.6587 69.1951L57.6587 69.1951L60.8297 73.0611ZM61.4648 72.9487L59.8131 77.668L59.8131 77.668L61.4648 72.9487ZM71.823 79.3549L75.3403 75.8012L75.3403 75.8012L71.823 79.3549ZM73.132 79.3482L76.6857 82.8654L76.6857 82.8654L73.132 79.3482ZM69.9609 76.2095L66.4072 72.6923L66.4072 72.6923L69.9609 76.2095ZM69.9676 77.5185L66.4504 81.0723L66.4504 81.0723L69.9676 77.5185ZM71.6768 75.7916L75.1941 72.2379L75.1941 72.2379L71.6768 75.7916ZM70.3678 75.7984L73.9215 79.3156L73.9215 79.3156L70.3678 75.7984ZM73.5322 77.628L70.015 81.1817L70.015 81.1817L73.5322 77.628ZM73.539 78.937L69.9853 75.4197L69.9853 75.4197L73.539 78.937ZM44.0496 52.5785V57.5785H63.6033V52.5785V47.5785H44.0496V52.5785ZM63.8347 52.81H58.8347V55.9339H63.8347H68.8347V52.81H63.8347ZM63.6033 56.1653V51.1653H44.0496V56.1653V61.1653H63.6033V56.1653ZM43.8182 55.9339H48.8182V52.81H43.8182H38.8182V55.9339H43.8182ZM44.0496 56.1653V51.1653C46.6832 51.1653 48.8182 53.3003 48.8182 55.9339H43.8182H38.8182C38.8182 58.8231 41.1604 61.1653 44.0496 61.1653V56.1653ZM63.8347 55.9339H58.8347C58.8347 53.3004 60.9696 51.1653 63.6033 51.1653V56.1653V61.1653C66.4926 61.1653 68.8347 58.8231 68.8347 55.9339H63.8347ZM63.6033 52.5785V57.5785C60.9696 57.5785 58.8347 55.4435 58.8347 52.81H63.8347H68.8347C68.8347 49.9208 66.4926 47.5785 63.6033 47.5785V52.5785ZM44.0496 52.5785V47.5785C41.1604 47.5785 38.8182 49.9207 38.8182 52.81H43.8182H48.8182C48.8182 55.4436 46.6832 57.5785 44.0496 57.5785V52.5785ZM34.2727 94V99H50.0083V94V89H34.2727V94ZM50.0083 94L54.9566 94.7171L56.6644 82.9334L51.716 82.2163L46.7677 81.4991L45.06 93.2829L50.0083 94ZM51.627 81.8705L55.6133 78.8523L49.7506 71.1091L45.7643 74.1273L41.778 77.1455L47.6407 84.8887L51.627 81.8705ZM45.3593 73.9453L44.9706 68.9604L39.7606 69.3667L40.1494 74.3516L40.5381 79.3364L45.7481 78.9302L45.3593 73.9453ZM33 82.0802H28V92.7273H33H38V82.0802H33ZM40.1494 74.3516L39.7606 69.3667C33.1225 69.8844 28 75.4219 28 82.0802H33H38C38 80.6432 39.1055 79.4482 40.5381 79.3364L40.1494 74.3516ZM45.7643 74.1273L49.7506 71.1091C48.6273 69.6255 46.8259 68.8157 44.9706 68.9604L45.3593 73.9453L45.7481 78.9302C44.2071 79.0503 42.711 78.3778 41.778 77.1455L45.7643 74.1273ZM51.716 82.2163L56.6644 82.9334C56.8739 81.4873 56.4954 80.0174 55.6133 78.8524L51.627 81.8705L47.6407 84.8887C46.9081 83.9211 46.5937 82.7003 46.7677 81.4991L51.716 82.2163ZM34.2727 94V89C36.3312 89 38 90.6687 38 92.7273H33H28C28 96.1916 30.8084 99 34.2727 99V94ZM46.1498 73.9398L42.0117 76.7462L44.519 80.4434L48.6571 77.637L52.7953 74.8307L50.288 71.1335L46.1498 73.9398ZM49.7816 77.9709L51.7178 82.5808L53.9114 81.6595L51.9752 77.0496L50.039 72.4397L47.8455 73.361L49.7816 77.9709ZM51.9752 77.0496L55.1461 73.1837L50.2834 69.1951L47.1125 73.0611L43.9415 76.927L48.8043 80.9155L51.9752 77.0496ZM47.1125 73.0611L50.2834 69.1951C48.7571 67.9432 46.6887 67.5773 44.8256 68.2294L46.4773 72.9487L48.1291 77.668C46.6996 78.1683 45.1126 77.8875 43.9416 76.927L47.1125 73.0611ZM48.6571 77.637L44.519 80.4434C46.1032 82.7795 49.1154 83.6738 51.7178 82.5808L49.7816 77.9709L47.8455 73.361C49.6349 72.6094 51.706 73.2244 52.7953 74.8307L48.6571 77.637ZM46.1498 73.9398L50.288 71.1335C51.8876 73.4923 50.8191 76.7264 48.1291 77.668L46.4773 72.9487L44.8256 68.2294C41.3195 69.4565 39.9268 73.6718 42.0117 76.7462L46.1498 73.9398ZM49.2189 72.6713L53.7642 74.7545L53.9672 74.3117L49.4219 72.2284L44.8765 70.1451L44.6735 70.588L49.2189 72.6713ZM49.4893 71.6673L54.3987 70.7199L54.031 68.8147L49.1216 69.7622L44.2122 70.7096L44.5798 72.6148L49.4893 71.6673ZM58.8304 72.6524L63.3757 70.5691L63.1814 70.1451L58.636 72.2284L54.0907 74.3117L54.2851 74.7357L58.8304 72.6524ZM58.5686 71.6673L63.4781 72.6148L63.8457 70.7096L58.9363 69.7622L54.0269 68.8147L53.6592 70.7199L58.5686 71.6673ZM58.636 72.2284L63.1814 70.1451C63.5353 70.9173 63.639 71.7808 63.4781 72.6148L58.5686 71.6673L53.6592 70.7199C53.4252 71.9328 53.576 73.1886 54.0907 74.3117L58.636 72.2284ZM49.5022 73.7954L46.4874 77.7842L50.3269 80.6861L53.3417 76.6973L56.3565 72.7084L52.517 69.8065L49.5022 73.7954ZM54.4378 76.7121L57.344 80.7807L61.4331 77.8599L58.5269 73.7913L55.6208 69.7226L51.5316 72.6434L54.4378 76.7121ZM50.0304 68.6611V73.6611H58.0275V68.6611V63.6611H50.0304V68.6611ZM53.3417 76.6973L50.3269 80.6861C52.3937 82.2483 55.2358 82.2866 57.344 80.7807L54.4378 76.7121L51.5316 72.6434C52.9812 71.608 54.9354 71.6343 56.3565 72.7085L53.3417 76.6973ZM58.8304 72.6524L54.2851 74.7357C53.4714 72.9605 54.0317 70.8576 55.6208 69.7226L58.5269 73.7913L61.4331 77.8599C63.7442 76.2092 64.559 73.1509 63.3757 70.5691L58.8304 72.6524ZM49.1216 69.7622L54.031 68.8147C54.5161 71.3282 52.5904 73.6611 50.0304 73.6611V68.6611V63.6611C46.3074 63.6611 43.5067 67.054 44.2122 70.7096L49.1216 69.7622ZM58.9363 69.7622L63.8457 70.7096C64.5512 67.054 61.7505 63.6611 58.0275 63.6611V68.6611V73.6611C55.4675 73.6611 53.5418 71.3282 54.0269 68.8147L58.9363 69.7622ZM49.4219 72.2284L53.9672 74.3117C54.4819 73.1887 54.6328 71.9329 54.3987 70.7199L49.4893 71.6673L44.5798 72.6148C44.4189 71.7807 44.5226 70.9173 44.8765 70.1451L49.4219 72.2284ZM49.2189 72.6713L44.6736 70.588C43.5152 73.1152 44.2696 76.1079 46.4874 77.7842L49.5022 73.7954L52.517 69.8065C54.042 70.9591 54.5606 73.0168 53.7642 74.7545L49.2189 72.6713ZM46.4215 51.9421H41.4215V56.3216H46.4215H51.4215V51.9421H46.4215ZM45.2382 57.2106L46.6301 52.4083L45.005 51.9373L43.613 56.7396L42.2211 61.5419L43.8462 62.013L45.2382 57.2106ZM42.4297 57.6286H37.4297V58.9959H42.4297H47.4297V57.6286H42.4297ZM43.1011 59.8859L41.7275 64.6936L42.8146 65.0041L44.1882 60.1965L45.5618 55.3889L44.4747 55.0783L43.1011 59.8859ZM44.9009 61.0811L39.9235 61.5566C40.0594 62.9787 40.5399 66.1119 42.4837 69.0152C44.6294 72.2202 48.3269 74.7602 53.8264 74.7602V69.7602V64.7602C52.7088 64.7602 52.0742 64.5242 51.7182 64.3284C51.3529 64.1273 51.0553 63.8433 50.7933 63.452C50.1946 62.5577 49.9494 61.3513 49.8782 60.6055L44.9009 61.0811ZM61.2314 51.9421H56.2314V56.3216H61.2314H66.2314V51.9421H61.2314ZM62.4147 57.2106L63.8067 62.013L65.4318 61.5419L64.0398 56.7396L62.6478 51.9373L61.0227 52.4083L62.4147 57.2106ZM65.2231 57.6286H60.2231V58.9959H65.2231H70.2231V57.6286H65.2231ZM64.5518 59.8859L63.1782 55.0783L62.0911 55.3889L63.4647 60.1965L64.8383 65.0041L65.9254 64.6936L64.5518 59.8859ZM62.752 61.0811L57.7747 60.6055C57.7034 61.3513 57.4582 62.5577 56.8595 63.452C56.5975 63.8433 56.3 64.1273 55.9347 64.3284C55.5787 64.5242 54.944 64.7602 53.8264 64.7602V69.7602V74.7602C59.326 74.7602 63.0235 72.2202 65.1692 69.0152C67.1129 66.1119 67.5935 62.9787 67.7293 61.5566L62.752 61.0811ZM47.3471 51.0164V56.0164H60.3058V51.0164V46.0164H47.3471V51.0164ZM63.4647 60.1965L62.0911 55.3889C59.545 56.1164 57.9922 58.3288 57.7747 60.6055L62.752 61.0811L67.7293 61.5566C67.5904 63.0105 66.5897 64.5038 64.8383 65.0041L63.4647 60.1965ZM65.2231 58.9959H60.2231C60.2231 57.1768 61.429 55.5781 63.1782 55.0783L64.5518 59.8859L65.9254 64.6936C68.4693 63.9667 70.2231 61.6416 70.2231 58.9959H65.2231ZM64.0398 56.7396L65.4318 61.5419C62.8256 62.2973 60.2231 60.342 60.2231 57.6286H65.2231H70.2231C70.2231 53.6823 66.4381 50.8386 62.6478 51.9373L64.0398 56.7396ZM61.2314 56.3216H56.2314C56.2314 60.2679 60.0164 63.1116 63.8067 62.013L62.4147 57.2106L61.0227 52.4083C63.6288 51.6529 66.2314 53.6082 66.2314 56.3216H61.2314ZM61.2314 51.9421H66.2314C66.2314 48.6694 63.5784 46.0164 60.3058 46.0164V51.0164V56.0164C58.0555 56.0164 56.2314 54.1923 56.2314 51.9421H61.2314ZM44.1882 60.1965L42.8145 65.0041C41.0632 64.5038 40.0624 63.0105 39.9235 61.5566L44.9009 61.0811L49.8782 60.6055C49.6607 58.3288 48.1079 56.1164 45.5618 55.3889L44.1882 60.1965ZM42.4297 58.9959H37.4297C37.4297 61.6416 39.1836 63.9667 41.7275 64.6936L43.1011 59.8859L44.4747 55.0783C46.2238 55.5781 47.4297 57.1768 47.4297 58.9959H42.4297ZM43.613 56.7396L45.005 51.9373C41.2148 50.8386 37.4297 53.6823 37.4297 57.6286H42.4297H47.4297C47.4297 60.342 44.8272 62.2973 42.2211 61.5419L43.613 56.7396ZM46.4215 56.3216H41.4215C41.4215 53.6082 44.024 51.6529 46.6301 52.4083L45.2382 57.2106L43.8462 62.013C47.6365 63.1116 51.4215 60.2679 51.4215 56.3216H46.4215ZM46.4215 51.9421H51.4215C51.4215 54.1923 49.5973 56.0164 47.3471 56.0164V51.0164V46.0164C44.0745 46.0164 41.4215 48.6694 41.4215 51.9421H46.4215ZM65.6859 49.3388H60.6859C60.6859 48.0386 61.3948 47.3712 61.4304 47.3391C61.4665 47.3065 61.238 47.5064 60.5302 47.7767C59.1488 48.3043 56.9029 48.7355 54.1735 48.7355V53.7355V58.7355C57.8023 58.7355 61.3126 58.1824 64.0979 57.1186C65.4734 56.5933 66.9309 55.8458 68.1321 54.7612C69.3328 53.677 70.6859 51.853 70.6859 49.3388H65.6859ZM54.1735 53.7355V48.7355C51.4442 48.7355 49.1982 48.3043 47.8169 47.7767C47.1091 47.5064 46.8806 47.3065 46.9167 47.3391C46.9523 47.3712 47.6611 48.0386 47.6611 49.3388H42.6611H37.6611C37.6611 51.853 39.0143 53.677 40.215 54.7612C41.4162 55.8458 42.8737 56.5933 44.2492 57.1186C47.0345 58.1824 50.5447 58.7355 54.1735 58.7355V53.7355ZM42.6611 49.3388H47.6611C47.6611 50.6389 46.9523 51.3063 46.9167 51.3384C46.8806 51.371 47.1091 51.1711 47.8169 50.9008C49.1982 50.3732 51.4442 49.9421 54.1735 49.9421V44.9421V39.9421C50.5447 39.9421 47.0345 40.4951 44.2492 41.5589C42.8737 42.0842 41.4162 42.8317 40.215 43.9163C39.0143 45.0005 37.6611 46.8245 37.6611 49.3388H42.6611ZM54.1735 44.9421V49.9421C56.9029 49.9421 59.1488 50.3732 60.5302 50.9008C61.238 51.1711 61.4665 51.371 61.4304 51.3384C61.3948 51.3063 60.6859 50.6389 60.6859 49.3388H65.6859H70.6859C70.6859 46.8245 69.3328 45.0005 68.1321 43.9163C66.9309 42.8317 65.4734 42.0842 64.0979 41.5589C61.3126 40.4951 57.8023 39.9421 54.1735 39.9421V44.9421ZM68 46.2727H63C63 46.0817 63.0433 45.6351 63.3288 45.1143C63.6191 44.5848 64.0054 44.26 64.2721 44.096C64.6232 43.8802 64.5998 44.0382 63.4976 44.1195C62.5169 44.1919 61.2435 44.1747 59.533 44.1219C57.9068 44.0717 55.9339 43.9917 53.8843 43.9917V48.9917V53.9917C55.7326 53.9917 57.4731 54.0631 59.2245 54.1172C60.8916 54.1686 62.6599 54.2085 64.2336 54.0924C65.6859 53.9852 67.7296 53.709 69.5093 52.615C70.4903 52.0119 71.4312 51.137 72.0976 49.9214C72.7592 48.7146 73 47.4462 73 46.2727H68ZM53.8843 48.9917V43.9917C51.8347 43.9917 49.8618 44.0717 48.2356 44.1219C46.5251 44.1747 45.2517 44.1919 44.271 44.1195C43.1688 44.0382 43.1454 43.8802 43.4964 44.096C43.7632 44.26 44.1495 44.5848 44.4398 45.1143C44.7253 45.6351 44.7686 46.0817 44.7686 46.2727H39.7686H34.7686C34.7686 47.4462 35.0094 48.7146 35.671 49.9214C36.3373 51.137 37.2783 52.0119 38.2593 52.615C40.039 53.709 42.0827 53.9852 43.535 54.0924C45.1087 54.2085 46.877 54.1686 48.5441 54.1172C50.2955 54.0631 52.036 53.9917 53.8843 53.9917V48.9917ZM39.7686 46.2727H44.7686C44.7686 46.9211 44.5026 46.1685 46.5295 44.9172C48.2601 43.8489 50.8728 43 53.8843 43V38V33C49.0999 33 44.6547 34.3226 41.2765 36.4081C38.1945 38.3107 34.7686 41.6945 34.7686 46.2727H39.7686ZM53.8843 38V43C56.8958 43 59.5085 43.8489 61.2391 44.9172C63.266 46.1685 63 46.9211 63 46.2727H68H73C73 41.6945 69.5741 38.3107 66.4921 36.4081C63.1139 34.3226 58.6687 33 53.8843 33V38ZM34.41 77.628L37.9272 81.1817L39.7826 79.3453L36.2654 75.7916L32.7481 72.2379L30.8927 74.0743L34.41 77.628ZM37.5744 75.7984L34.0207 79.3156L34.4276 79.7268L37.9813 76.2095L41.535 72.6923L41.1281 72.2811L37.5744 75.7984ZM37.9746 77.5185L34.4573 73.9648L32.6019 75.8012L36.1192 79.3549L39.6364 82.9086L41.4918 81.0723L37.9746 77.5185ZM34.8102 79.3482L38.3639 75.8309L37.9569 75.4197L34.4032 78.937L30.8495 82.4542L31.2565 82.8654L34.8102 79.3482ZM36.1192 79.3549L32.6019 75.8012C34.2012 74.2183 36.781 74.2316 38.3639 75.8309L34.8102 79.3482L31.2565 82.8654C33.5586 85.1914 37.3104 85.2107 39.6364 82.9086L36.1192 79.3549ZM37.9813 76.2095L34.4276 79.7268C32.8447 78.1275 32.858 75.5477 34.4573 73.9648L37.9746 77.5185L41.4918 81.0723C43.8178 78.7701 43.8372 75.0183 41.535 72.6923L37.9813 76.2095ZM36.2654 75.7916L39.7826 79.3453C38.1833 80.9283 35.6036 80.9149 34.0206 79.3156L37.5744 75.7984L41.1281 72.2811C38.826 69.9551 35.0741 69.9357 32.7481 72.2379L36.2654 75.7916ZM34.41 77.628L30.8927 74.0743C28.5667 76.3764 28.5474 80.1282 30.8495 82.4542L34.4032 78.937L37.9569 75.4197C39.5399 77.019 39.5265 79.5988 37.9272 81.1817L34.41 77.628ZM42.6611 87.4049V92.4049H46.1973V87.4049V82.4049H42.6611V87.4049ZM46.6601 87.8677H41.6601V89.3718H46.6601H51.6601V87.8677H46.6601ZM46.1973 89.8346V84.8346H42.6611V89.8346V94.8346H46.1973V89.8346ZM42.1983 89.3718H47.1983V87.8677H42.1983H37.1983V89.3718H42.1983ZM42.6611 89.8346V84.8346C45.167 84.8346 47.1983 86.866 47.1983 89.3718H42.1983H37.1983C37.1983 92.3888 39.6441 94.8346 42.6611 94.8346V89.8346ZM46.6601 89.3718H41.6601C41.6601 86.866 43.6914 84.8346 46.1973 84.8346V89.8346V94.8346C49.2143 94.8346 51.6601 92.3888 51.6601 89.3718H46.6601ZM46.1973 87.4049V92.4049C43.6914 92.4049 41.6601 90.3735 41.6601 87.8677H46.6601H51.6601C51.6601 84.8507 49.2143 82.4049 46.1973 82.4049V87.4049ZM42.6611 87.4049V82.4049C39.6441 82.4049 37.1983 84.8507 37.1983 87.8677H42.1983H47.1983C47.1983 90.3735 45.167 92.4049 42.6611 92.4049V87.4049ZM52.2645 79.8843L54.5006 84.3564L56.1204 83.5465L53.8843 79.0744L51.6482 74.6022L50.0284 75.4121L52.2645 79.8843ZM52.2645 79.8843L47.9548 82.4194L48.5333 83.4029L52.843 80.8678L57.1527 78.3327L56.5742 77.3492L52.2645 79.8843ZM55.5042 79.8843L57.7402 75.4121L56.1204 74.6022L53.8843 79.0744L51.6482 83.5465L53.2681 84.3564L55.5042 79.8843ZM55.5042 79.8843L51.1945 77.3492L50.616 78.3327L54.9256 80.8678L59.2353 83.4029L59.8138 82.4194L55.5042 79.8843ZM51.9173 94L56.8772 94.6326L58.3234 83.2938L53.3636 82.6611L48.4038 82.0285L46.9575 93.3673L51.9173 94ZM53.3636 82.6611V87.6611H54.5785V82.6611V77.6611H53.3636V82.6611ZM54.5785 82.6611L49.6156 83.2688L51.004 94.6077L55.9669 94L60.9299 93.3923L59.5414 82.0534L54.5785 82.6611ZM55.9669 94V89H51.9173V94V99H55.9669V94ZM73.6694 94V89H57.9339V94V99H73.6694V94ZM57.9339 94L62.8822 93.2829L61.1744 81.4991L56.2261 82.2163L51.2778 82.9334L52.9856 94.7171L57.9339 94ZM56.3151 81.8705L60.3014 84.8887L66.1641 77.1455L62.1778 74.1273L58.1915 71.1091L52.3288 78.8523L56.3151 81.8705ZM62.5828 73.9453L62.1941 78.9302L67.404 79.3364L67.7928 74.3516L68.1815 69.3667L62.9715 68.9604L62.5828 73.9453ZM74.9421 82.0802H69.9421V92.7273H74.9421H79.9421V82.0802H74.9421ZM67.7928 74.3516L67.404 79.3364C68.8366 79.4482 69.9421 80.6432 69.9421 82.0802H74.9421H79.9421C79.9421 75.4219 74.8196 69.8844 68.1815 69.3667L67.7928 74.3516ZM62.1778 74.1273L66.1641 77.1455C65.2311 78.3778 63.735 79.0503 62.1941 78.9302L62.5828 73.9453L62.9715 68.9604C61.1162 68.8157 59.3149 69.6255 58.1915 71.1091L62.1778 74.1273ZM56.2261 82.2163L61.1744 81.4991C61.3485 82.7003 61.0341 83.9211 60.3014 84.8887L56.3151 81.8705L52.3288 78.8524C51.4467 80.0174 51.0682 81.4873 51.2778 82.9334L56.2261 82.2163ZM73.6694 94V99C77.1337 99 79.9421 96.1916 79.9421 92.7273H74.9421H69.9421C69.9421 90.6687 71.6109 89 73.6694 89V94ZM61.7923 73.9398L57.6541 71.1335L55.1468 74.8307L59.285 77.637L63.4232 80.4434L65.9305 76.7462L61.7923 73.9398ZM58.1605 77.9709L60.0967 73.361L57.9031 72.4397L55.9669 77.0496L54.0308 81.6595L56.2243 82.5808L58.1605 77.9709ZM55.9669 77.0496L59.1378 80.9155L64.0006 76.927L60.8297 73.0611L57.6587 69.1951L52.796 73.1837L55.9669 77.0496ZM60.8297 73.0611L64.0006 76.927C62.8295 77.8875 61.2426 78.1683 59.8131 77.668L61.4648 72.9487L63.1166 68.2294C61.2534 67.5773 59.185 67.9432 57.6587 69.1951L60.8297 73.0611ZM59.285 77.637L55.1468 74.8307C56.2361 73.2244 58.3073 72.6094 60.0967 73.361L58.1605 77.9709L56.2243 82.5808C58.8267 83.6738 61.8389 82.7795 63.4232 80.4434L59.285 77.637ZM61.7923 73.9398L65.9305 76.7462C68.0154 73.6718 66.6227 69.4565 63.1166 68.2294L61.4648 72.9487L59.8131 77.668C57.123 76.7264 56.0545 73.4923 57.6541 71.1335L61.7923 73.9398ZM73.5322 77.628L77.0495 74.0743L75.1941 72.2379L71.6768 75.7916L68.1596 79.3453L70.015 81.1817L73.5322 77.628ZM70.3678 75.7984L66.8141 72.2811L66.4072 72.6923L69.9609 76.2095L73.5146 79.7268L73.9215 79.3156L70.3678 75.7984ZM69.9676 77.5185L66.4504 81.0723L68.3058 82.9086L71.823 79.3549L75.3403 75.8012L73.4849 73.9648L69.9676 77.5185ZM73.132 79.3482L76.6857 82.8654L77.0927 82.4542L73.539 78.937L69.9853 75.4197L69.5783 75.8309L73.132 79.3482ZM71.823 79.3549L68.3058 82.9086C70.6318 85.2107 74.3836 85.1914 76.6857 82.8654L73.132 79.3482L69.5783 75.8309C71.1612 74.2316 73.741 74.2183 75.3403 75.8012L71.823 79.3549ZM69.9609 76.2095L66.4072 72.6923C64.105 75.0183 64.1244 78.7701 66.4504 81.0723L69.9676 77.5185L73.4849 73.9648C75.0842 75.5477 75.0975 78.1275 73.5146 79.7268L69.9609 76.2095ZM71.6768 75.7916L75.1941 72.2379C72.8681 69.9357 69.1162 69.9551 66.8141 72.2811L70.3678 75.7984L73.9215 79.3156C72.3386 80.9149 69.7589 80.9283 68.1596 79.3453L71.6768 75.7916ZM73.5322 77.628L70.015 81.1817C68.4156 79.5988 68.4023 77.019 69.9853 75.4197L73.539 78.937L77.0927 82.4542C79.3948 80.1282 79.3755 76.3764 77.0495 74.0743L73.5322 77.628ZM65.281 87.4049V82.4049H61.7449V87.4049V92.4049H65.281V87.4049ZM61.2821 87.8677H56.2821V89.3718H61.2821H66.2821V87.8677H61.2821ZM61.7449 89.8346V94.8346H65.281V89.8346V84.8346H61.7449V89.8346ZM65.7438 89.3718H70.7438V87.8677H65.7438H60.7438V89.3718H65.7438ZM65.281 89.8346V94.8346C68.298 94.8346 70.7438 92.3888 70.7438 89.3718H65.7438H60.7438C60.7438 86.866 62.7752 84.8346 65.281 84.8346V89.8346ZM61.2821 89.3718H56.2821C56.2821 92.3888 58.7279 94.8346 61.7449 94.8346V89.8346V84.8346C64.2507 84.8346 66.2821 86.866 66.2821 89.3718H61.2821ZM61.7449 87.4049V82.4049C58.7279 82.4049 56.2821 84.8507 56.2821 87.8677H61.2821H66.2821C66.2821 90.3735 64.2507 92.4049 61.7449 92.4049V87.4049ZM65.281 87.4049V92.4049C62.7752 92.4049 60.7438 90.3735 60.7438 87.8677H65.7438H70.7438C70.7438 84.8507 68.298 82.4049 65.281 82.4049V87.4049ZM52.843 80.8678V85.8678H54.9256V80.8678V75.8678H52.843V80.8678Z" fill="white" mask="url(#path-18-outside-1_275_181)"/>
<rect x="42.8182" y="51.5786" width="22.0165" height="5.58678" rx="1.34298" fill="#F29900" stroke="black" stroke-width="2"/>
<path d="M45.374 72.955C45.7979 72.9758 46.1992 73.1556 46.4961 73.4589L46.6348 73.621L52.3682 81.1923L52.4629 81.3319C52.6376 81.6181 52.7229 81.9501 52.708 82.285L52.6924 82.452L50.998 94.1434L50.874 94.9999H34.8867C33.2928 94.9999 32.0003 93.708 32 92.1141V85.538L32.0146 84.9296C32.3151 78.6822 37.2203 73.577 43.5186 73.0858L45.1602 72.9579L45.374 72.955Z" fill="#2D5872" stroke="black" stroke-width="2"/>
<path d="M46.3541 71.9466C46.7723 71.8587 47.2091 71.9364 47.5718 72.1624L47.7466 72.2874L52.6099 76.2767L53.8931 77.3294L52.3629 77.972L50.5064 78.7513C49.5299 79.1614 48.4084 78.8729 47.7496 78.0648L47.6246 77.8958L45.3218 74.5013C44.7108 73.6002 45.1195 72.3649 46.147 72.0052L46.3541 71.9466Z" fill="#1D4559" stroke="black" stroke-width="2"/>
<path d="M49.2241 70.0958L49.463 71.3337C49.5167 71.6119 49.4821 71.8999 49.364 72.1575C49.0983 72.7372 49.2714 73.4236 49.7801 73.8081L53.0801 76.3023C53.5586 76.664 54.2166 76.6729 54.7047 76.3242L58.2272 73.8082C58.7622 73.426 58.9509 72.718 58.6769 72.1202L58.6361 72.0312C58.5557 71.8558 58.5321 71.6596 58.5687 71.4701L58.8339 70.0958C58.9973 69.2494 58.3488 68.4639 57.4869 68.4639H50.5711C49.7092 68.4639 49.0608 69.2494 49.2241 70.0958Z" fill="#6C5C4D" stroke="black" stroke-width="2" stroke-linejoin="round"/>
<path d="M59.8594 49.8193C61.1694 49.8193 62.2315 50.8814 62.2315 52.1913V55.5302C62.2315 55.7779 62.4692 55.9566 62.7071 55.8876L63.1905 55.747L63.3331 55.7109C64.8012 55.3793 66.2226 56.4951 66.2227 58.0253V58.4619C66.2227 59.4548 65.6058 60.3348 64.6895 60.6806L64.503 60.7431L64.0635 60.8681C63.9274 60.907 63.7815 61.0403 63.7256 61.248L63.7081 61.3417C63.5482 62.6317 63.0752 64.9113 61.6378 66.8906C60.1611 68.9237 57.7169 70.5634 53.8262 70.5634C49.9357 70.5634 47.4923 68.9236 46.0157 66.8906C44.7578 65.1586 44.2388 63.1967 44.0215 61.8691L43.9454 61.3417C43.917 61.1131 43.7852 60.956 43.6485 60.8906L43.5899 60.8681L43.1505 60.7431C42.1322 60.4522 41.4297 59.5209 41.4297 58.4619V58.0253C41.4298 56.4458 42.9449 55.3073 44.462 55.747L44.9464 55.8876L45.0352 55.9023C45.2399 55.9107 45.4219 55.7468 45.4219 55.5302V52.1913C45.4219 50.8815 46.4832 49.8195 47.793 49.8193H59.8594Z" fill="#6C5C4D" stroke="black" stroke-width="2" stroke-linejoin="round"/>
<path d="M54.1739 43.9421C57.4428 43.9421 60.4473 44.4464 62.671 45.2956C63.7794 45.7189 64.745 46.2477 65.4512 46.8854C66.1574 47.523 66.6855 48.3502 66.6856 49.3386C66.6856 50.3271 66.1574 51.155 65.4512 51.7927C64.745 52.4302 63.7792 52.9583 62.671 53.3815C60.4473 54.2308 57.4428 54.735 54.1739 54.735C50.9049 54.735 47.8996 54.2308 45.6758 53.3815C44.5677 52.9583 43.6017 52.4303 42.8956 51.7927C42.1894 51.155 41.6612 50.3271 41.6612 49.3386C41.6613 48.3503 42.1895 47.523 42.8956 46.8854C43.6018 46.2478 44.5676 45.7189 45.6758 45.2956C47.8996 44.4463 50.9049 43.9421 54.1739 43.9421Z" fill="#183C53" stroke="black" stroke-width="2"/>
<path d="M53.8839 37C57.9589 37 61.6715 38.133 64.3907 39.8115C67.0505 41.4535 68.9999 43.7849 69.0001 46.2725C69.0001 46.9001 68.8727 47.4833 68.5899 47.999C68.3062 48.5163 67.8959 48.9108 67.4141 49.207C66.4868 49.7771 65.2516 50.0067 63.9395 50.1035C62.603 50.2021 61.0322 50.1711 59.3477 50.1191C57.6465 50.0666 55.8126 49.9922 53.8839 49.9922C51.9553 49.9922 50.1221 50.0666 48.421 50.1191C46.7365 50.1711 45.1657 50.2021 43.8292 50.1035C42.5171 50.0067 41.2819 49.7771 40.3546 49.207C39.8728 48.9108 39.4625 48.5163 39.1788 47.999C38.896 47.4833 38.7686 46.9001 38.7686 46.2725C38.7688 43.7849 40.7181 41.4535 43.378 39.8115C46.0971 38.133 49.809 37.0001 53.8839 37Z" fill="#2D5872" stroke="black" stroke-width="2"/>
<rect x="32.3379" y="78.2718" width="6.46173" height="4.42975" rx="2.21488" transform="rotate(-44.7046 32.3379 78.2718)" fill="#FFBF14" stroke="black" stroke-width="2"/>
<rect x="41.1984" y="86.4049" width="6.46173" height="4.42975" rx="1.68595" fill="#1D4559" stroke="black" stroke-width="2"/>
<path d="M53.6352 77.522C53.849 77.4595 54.079 77.4698 54.2875 77.5532L55.9741 78.228L56.0639 78.269C56.268 78.3752 56.4305 78.5499 56.5219 78.7632C56.6262 79.0068 56.6291 79.2818 56.5307 79.5278L55.8559 81.2144C55.7041 81.5939 55.3369 81.8431 54.9282 81.8433H52.9037C52.546 81.8433 52.2192 81.6531 52.0414 81.3511L51.975 81.2144L51.3002 79.5278C51.0953 79.0151 51.3451 78.4331 51.8578 78.228L53.5444 77.5532L53.6352 77.522Z" fill="#282C3A" stroke="black" stroke-width="2" stroke-linejoin="round"/>
<path d="M55.4633 81.6611L55.5707 82.54L56.9594 93.8789L57.097 95H50.7816L50.9252 93.873L52.3715 82.5342L52.4828 81.6611H55.4633Z" fill="#282C3A" stroke="black" stroke-width="2"/>
<path d="M62.5681 72.955C62.1442 72.9758 61.7429 73.1556 61.446 73.4589L61.3074 73.621L55.574 81.1923L55.4792 81.3319C55.3046 81.6181 55.2192 81.9501 55.2341 82.285L55.2498 82.452L56.9441 94.1434L57.0681 94.9999H73.0554C74.6494 94.9999 75.9419 93.708 75.9421 92.1141V85.538L75.9275 84.9296C75.627 78.6822 70.7218 73.577 64.4236 73.0858L62.782 72.9579L62.5681 72.955Z" fill="#2D5872" stroke="black" stroke-width="2"/>
<path d="M61.5882 71.9466C61.1699 71.8587 60.7331 71.9364 60.3704 72.1624L60.1956 72.2874L55.3323 76.2767L54.0491 77.3294L55.5794 77.972L57.4359 78.7513C58.4124 79.1614 59.5339 78.8729 60.1927 78.0648L60.3177 77.8958L62.6204 74.5013C63.2314 73.6002 62.8228 72.3649 61.7952 72.0052L61.5882 71.9466Z" fill="#1D4559" stroke="black" stroke-width="2"/>
<rect x="1.41419" y="-0.0072915" width="6.46173" height="4.42975" rx="2.21488" transform="matrix(-0.710743 -0.703452 -0.703452 0.710743 76.6043 79.2718)" fill="#FFBF14" stroke="black" stroke-width="2"/>
<rect x="1" y="-1" width="6.46173" height="4.42975" rx="1.68595" transform="matrix(-1 0 0 1 67.7438 87.4049)" fill="#1D4559" stroke="black" stroke-width="2"/>
<path d="M93.5 76.9201L114 86.0066L93.5 92.6552L73 86.0066L93.5 76.9201Z" fill="#EF5A1C"/>
<path d="M114 86.0066L93.5 92.6552L73 86.0066L73 89.4707L93.5 96.1194L114 89.4707V86.0066Z" fill="#D9D9D9"/>
<path d="M115 90.1974L114.309 90.4221L93.8086 97.0705L93.5 97.1711L93.1914 97.0705L72.6914 90.4221L72 90.1974V85.3557L72.5947 85.092L93.0947 76.006L93.5 75.8264L93.9053 76.006L114.405 85.092L115 85.3557V90.1974Z" stroke="black" stroke-width="2"/>
<path d="M89.1211 50.0371C90.2702 45.9877 96.0648 45.9877 97.2139 50.0371L97.2666 50.2363L102.012 70.1357L103.286 75.4775L104.828 81.9443L104.869 82.1641C105.012 83.1891 104.457 84.2046 103.479 84.6055L103.264 84.6816C101.183 85.3035 96.5707 86.5634 93.168 86.5635C90.1903 86.5635 86.2859 85.5982 83.9629 84.9404L83.0723 84.6816C81.8871 84.3274 81.2279 83.114 81.5068 81.9443L84.5449 69.2051L84.8848 67.7803L84.8926 67.75L86.7207 60.083L89.0693 50.2363L89.1211 50.0371Z" fill="#FF4B00" stroke="black" stroke-width="2"/>
<path d="M99.6146 60.0825L101.451 67.7807L101.669 68.6996L100.764 68.9702C98.6215 69.6106 96.5369 70.142 93.1674 70.142C89.798 70.142 87.714 69.6105 85.5717 68.9702L84.6654 68.6996L84.8851 67.7807L86.7211 60.0825L86.9662 59.0541L87.9799 59.3569C89.0151 59.6663 89.4944 59.7948 90.0844 59.8608C90.7052 59.9301 91.4591 59.9321 93.0443 59.9321H93.2904L94.3344 59.9301C95.2443 59.9265 95.7847 59.9128 96.2504 59.8608C96.8403 59.7949 97.3198 59.6663 98.3549 59.3569L99.3695 59.0541L99.6146 60.0825Z" fill="white" stroke="black" stroke-width="2"/>
<path d="M103.286 75.4773L104.828 81.9441L104.869 82.1638C105.012 83.1889 104.457 84.2043 103.479 84.6052L103.264 84.6814C101.183 85.3032 96.5707 86.5631 93.168 86.5632C90.1904 86.5632 86.2859 85.5989 83.9629 84.9412L83.0723 84.6814C81.8871 84.3271 81.2279 83.1138 81.5068 81.9441L83.0498 75.4773L83.2949 74.449L84.3086 74.7517C86.3947 75.3753 90.0896 76.3533 93.168 76.3533C96.2462 76.3532 99.9403 75.3752 102.026 74.7517L103.04 74.449L103.286 75.4773Z" fill="white" stroke="black" stroke-width="2"/>
</svg>
