<svg width="140" height="140" viewBox="0 0 140 140" fill="none" xmlns="http://www.w3.org/2000/svg">
<path d="M71 1C106.899 1 136 30.1015 136 66C136 101.899 106.899 131 71 131C56.0255 131 44.0339 127.845 33.0469 119.307C32.9367 119.406 32.814 119.519 32.6777 119.642C32.0431 120.214 31.1343 121.028 30.0381 121.999C27.8464 123.94 24.901 126.51 21.8906 129.019C18.8853 131.523 15.7947 133.984 13.3193 135.697C12.0879 136.55 10.9697 137.245 10.0713 137.664C9.62812 137.871 9.18022 138.038 8.7666 138.104C8.39071 138.163 7.76482 138.179 7.29297 137.707C6.86198 137.276 6.81946 136.684 6.82812 136.315C6.8381 135.893 6.92833 135.409 7.05957 134.906C7.32448 133.891 7.80855 132.598 8.42383 131.154C9.65898 128.256 11.4871 124.603 13.3652 121.034C15.2461 117.46 17.1888 113.952 18.6602 111.338C19.3961 110.03 20.0145 108.945 20.4492 108.188C20.57 107.977 20.6766 107.792 20.7676 107.634C10.3734 96.1265 6 82.7067 6 66C6 30.1015 35.1015 1 71 1Z" stroke="black" stroke-width="2"/>
<path d="M71 3.5C105.518 3.5 133.5 31.4822 133.5 66C133.5 100.518 105.518 128.5 71 128.5C56.1345 128.5 44.5569 125.326 33.9375 116.829L32.9355 116.027L31.9883 116.893H31.9873L31.9727 116.907C31.9619 116.917 31.9452 116.932 31.9238 116.951C31.8808 116.99 31.8171 117.049 31.7334 117.125C31.5657 117.277 31.3188 117.5 31.0039 117.784C30.3739 118.352 29.4708 119.162 28.3809 120.127C26.1998 122.059 23.2743 124.611 20.29 127.098C17.2982 129.591 14.2771 131.993 11.8965 133.642C11.0026 134.26 10.2305 134.75 9.60449 135.095C9.84316 134.311 10.2228 133.31 10.7236 132.135C11.9178 129.333 13.7071 125.751 15.5771 122.198C17.4432 118.653 19.3741 115.166 20.8389 112.563C21.5708 111.263 22.1854 110.184 22.6172 109.432C22.8331 109.055 23.0032 108.76 23.1191 108.56C23.1771 108.459 23.2221 108.383 23.252 108.331C23.2667 108.306 23.2777 108.286 23.2852 108.273C23.2889 108.267 23.2921 108.262 23.2939 108.259C23.2947 108.257 23.2955 108.257 23.2959 108.256L23.2969 108.255C23.297 108.255 23.2965 108.254 22 107.5L23.2969 108.254L23.8545 107.296L23.1016 106.481C12.8511 95.3964 8.5 82.4621 8.5 66C8.5 31.4822 36.4822 3.5 71 3.5Z" fill="#FFCE2F" stroke="white" stroke-width="3"/>
<path d="M51.374 26.5049C52.4253 26.5707 53.323 27.2887 53.6182 28.2998V28.3018C53.6184 28.3026 53.6188 28.3037 53.6191 28.3047C53.6198 28.3071 53.621 28.3108 53.6221 28.3145C53.6241 28.3216 53.6266 28.3312 53.6299 28.3428C53.6366 28.3663 53.646 28.3989 53.6572 28.4395C53.6798 28.5208 53.7115 28.6355 53.748 28.7764C53.8209 29.0571 53.9169 29.4496 54.0117 29.8994C54.1404 30.5096 54.2888 31.3355 54.3477 32.1699C54.7814 32.1641 55.2205 32.2705 55.6191 32.498C56.6608 33.0929 57.1333 34.3439 56.7451 35.4785L56.7432 35.4834C56.7413 35.489 56.7383 35.4997 56.7334 35.5146C56.7234 35.5451 56.707 35.5937 56.6875 35.6562C56.6871 35.6576 56.686 35.6588 56.6855 35.6602C56.9522 35.6502 57.2225 35.6828 57.4863 35.7607C58.3607 36.019 59.0256 36.7325 59.2207 37.623L56.7783 38.1582L59.2207 37.624V37.626C59.2209 37.627 59.2214 37.6285 59.2217 37.6299C59.2224 37.6331 59.2235 37.6377 59.2246 37.6426C59.2267 37.6524 59.23 37.6654 59.2334 37.6816C59.2403 37.7142 59.2497 37.7594 59.2607 37.8145C59.2828 37.9238 59.3123 38.0765 59.3428 38.251C59.398 38.5674 59.4782 39.0777 59.4951 39.5469L59.499 40.002C59.4113 44.5252 55.5685 47.9364 51.2715 48.0693L50.8398 48.0713C46.376 47.9801 42.3315 44.4248 42.5049 39.5947L42.5283 39.2412C42.5601 38.8849 42.6147 38.533 42.6553 38.291C42.6852 38.1128 42.7138 37.9561 42.7354 37.8438C42.7462 37.7875 42.7551 37.7412 42.7617 37.708C42.765 37.6915 42.7685 37.6778 42.7705 37.668C42.7715 37.663 42.7718 37.6584 42.7725 37.6553C42.7728 37.6538 42.7732 37.6525 42.7734 37.6514V37.6504L42.7744 37.6494C42.7816 37.6508 42.9072 37.6765 45.1094 38.1348L42.7744 37.6484C42.9834 36.6451 43.7833 35.8711 44.793 35.6953C44.8925 35.678 44.9926 35.6673 45.0918 35.6621C45.1096 35.5379 45.1309 35.4132 45.1562 35.2871C45.2647 34.7471 45.4311 34.268 45.6025 33.8037L45.752 33.4297C46.1147 32.5956 46.5598 32.0176 46.9238 31.5752C47.3388 31.0708 47.5227 30.8721 47.7266 30.5068L47.9121 30.1602C48.1054 29.7863 48.3181 29.3421 48.5068 28.9336C48.6288 28.6696 48.7349 28.4345 48.8096 28.2666C48.8467 28.1831 48.8757 28.1164 48.8955 28.0713C48.9054 28.0487 48.9131 28.0317 48.918 28.0205C48.9202 28.0153 48.9218 28.0113 48.9229 28.0088L48.9238 28.0059C49.3427 27.0395 50.3228 26.4392 51.374 26.5049Z" fill="#FFBA17" stroke="white" stroke-width="5" stroke-linejoin="round"/>
<g filter="url(#filter0_i_275_181)">
<path d="M45.0036 39.6845C45.0243 39.1062 45.2216 38.1582 45.2216 38.1582C45.2216 38.1582 46.3948 40.0737 47.2931 39.6845C48.2261 39.2804 47.5112 37.9756 47.5112 36.9589C47.5112 35.9845 47.6219 35.5503 47.9473 34.6693C48.4322 33.3562 49.2274 32.9479 49.9097 31.7256C50.477 30.7096 51.2181 29 51.2181 29C51.2181 29 51.927 31.4291 51.8722 33.0339C51.827 34.3579 50.451 35.265 51.2181 36.3047C51.4511 36.6206 51.5932 36.8998 51.9812 36.9589C52.5203 37.0409 52.6827 36.463 53.0715 36.0867C53.6382 35.5381 54.3798 34.6693 54.3798 34.6693C54.3798 34.6693 53.8791 36.1262 53.8347 37.1769C53.7902 38.2277 54.1617 39.9026 54.1617 39.9026C55.1474 39.7741 56.7784 38.1582 56.7784 38.1582C56.7784 38.1582 56.9755 39.0584 56.9964 39.6367C57.1164 42.9591 54.2148 45.6398 50.891 45.5719C47.635 45.5054 44.8868 42.9391 45.0036 39.6845Z" fill="#FFBA17"/>
</g>
<path d="M51.2803 28.002C51.7007 28.0283 52.0596 28.3154 52.1777 28.7197V28.7207H52.1787V28.7227C52.1792 28.7243 52.1799 28.7269 52.1807 28.7295C52.1823 28.7352 52.1846 28.7437 52.1875 28.7539C52.1933 28.7743 52.2016 28.8037 52.2119 28.8408C52.2325 28.9151 52.2616 29.0213 52.2959 29.1533C52.3644 29.4173 52.4549 29.7867 52.5439 30.209C52.6957 30.9283 52.8574 31.8659 52.874 32.7119L52.8721 33.0684C52.84 34.0058 52.3215 34.8386 52.1396 35.2129C52.0222 35.4545 51.9915 35.5688 51.9863 35.6279C51.9853 35.6378 51.9762 35.6482 52.0225 35.7109L52.0479 35.7461C52.1295 35.6378 52.2396 35.5002 52.376 35.3682L52.7871 34.9482C52.9276 34.7989 53.0674 34.6454 53.1934 34.5049C53.3175 34.3664 53.4251 34.2444 53.501 34.1572C53.5389 34.1137 53.5685 34.0783 53.5889 34.0547C53.599 34.0429 53.6072 34.0342 53.6123 34.0283C53.6148 34.0254 53.617 34.0229 53.6182 34.0215L53.6191 34.0205L53.6797 33.9551C53.9961 33.6445 54.4848 33.5774 54.876 33.8008C55.267 34.0242 55.4572 34.4789 55.3506 34.9092L55.3252 34.9941V34.9961C55.3246 34.9979 55.3236 35.0009 55.3223 35.0049C55.3193 35.0137 55.3147 35.0282 55.3086 35.0469C55.2963 35.0842 55.2779 35.1402 55.2559 35.2109C55.2116 35.3532 55.1516 35.5536 55.0908 35.7842C54.9961 36.1431 54.9084 36.5379 54.8633 36.8877L54.834 37.2188C54.8201 37.548 54.8583 37.9878 54.917 38.4229C55.0173 38.3505 55.1198 38.2765 55.2188 38.1982C55.4608 38.0068 55.6775 37.8166 55.834 37.6738C55.9117 37.6029 55.974 37.5447 56.0156 37.5049C56.0364 37.485 56.0525 37.4697 56.0625 37.46L56.0752 37.4473C56.3342 37.191 56.7121 37.096 57.0615 37.1992C57.4113 37.3025 57.6769 37.5881 57.7549 37.9443L57.7559 37.9453C57.756 37.946 57.7556 37.9473 57.7559 37.9482C57.7564 37.9505 57.757 37.9541 57.7578 37.958C57.7595 37.9659 57.7626 37.9771 57.7656 37.9912C57.7716 38.0197 57.78 38.0604 57.79 38.1104C57.8101 38.2102 57.8365 38.3498 57.8643 38.5088C57.9175 38.8137 57.983 39.2394 57.9961 39.6006L57.999 39.9688C57.9265 43.623 54.8015 46.4588 51.2295 46.5693L50.8701 46.5713C47.1312 46.4947 43.8645 43.533 44.0039 39.6484L44.0225 39.3682C44.0484 39.0794 44.0942 38.775 44.1338 38.5391C44.1613 38.3752 44.1881 38.2306 44.208 38.127C44.218 38.075 44.2265 38.0324 44.2324 38.0029C44.2353 37.9884 44.2376 37.9769 44.2393 37.9688C44.2401 37.9647 44.2417 37.9613 44.2422 37.959V37.9541L44.2852 37.8086C44.4079 37.4794 44.6973 37.2343 45.0508 37.1729C45.4041 37.1116 45.7588 37.2444 45.9854 37.5127L46.0742 37.6357C46.0753 37.6374 46.0772 37.6409 46.0801 37.6455C46.0862 37.6552 46.0967 37.6706 46.1104 37.6914C46.1379 37.7335 46.1794 37.7959 46.2324 37.8701C46.3406 38.0214 46.4869 38.2095 46.6484 38.3809C46.6738 38.4077 46.6996 38.4322 46.7236 38.4561C46.6977 38.3116 46.6655 38.151 46.626 37.9463C46.5725 37.6692 46.5108 37.3161 46.5107 36.959C46.5107 36.4328 46.5412 36.0093 46.627 35.582C46.7113 35.162 46.8427 34.773 47.0088 34.3232L47.126 34.0322C47.4081 33.3818 47.7555 32.9253 48.082 32.5283C48.4548 32.0752 48.7499 31.7509 49.0361 31.2383L49.2422 30.8545C49.4538 30.4457 49.6783 29.9755 49.8691 29.5625C49.9947 29.2907 50.1028 29.0498 50.1797 28.877C50.2181 28.7906 50.2488 28.7211 50.2695 28.6738C50.2798 28.6503 50.2877 28.6322 50.293 28.6201C50.2956 28.6141 50.2975 28.6094 50.2988 28.6064C50.2993 28.6053 50.2995 28.6042 50.2998 28.6035L50.3008 28.6025L50.373 28.4648C50.566 28.16 50.9122 27.979 51.2803 28.002Z" stroke="black" stroke-width="2" stroke-linejoin="round"/>
<path d="M47.4092 77.5049C48.4605 77.5707 49.3582 78.2887 49.6533 79.2998V79.3018C49.6536 79.3028 49.6549 79.3042 49.6553 79.3057C49.6561 79.3086 49.6569 79.3127 49.6582 79.3174C49.6609 79.3269 49.6643 79.3402 49.6689 79.3564C49.6782 79.3889 49.6911 79.4346 49.707 79.4922C49.739 79.6075 49.7844 79.7711 49.8369 79.9736C49.9418 80.3778 50.0804 80.9429 50.2168 81.5898C50.4616 82.7503 50.7392 84.359 50.7305 85.8018L50.7246 86.0879C50.7225 86.1487 50.7169 86.209 50.7129 86.2686C51.4642 85.8372 52.4094 85.8159 53.1973 86.2656C54.24 86.861 54.7125 88.1135 54.3223 89.249C54.3216 89.2509 54.3209 89.2543 54.3193 89.2588C54.3156 89.2698 54.3091 89.2882 54.3008 89.3135C54.284 89.3644 54.2587 89.443 54.2275 89.543C54.165 89.7439 54.0801 90.0277 53.9941 90.3535C53.8481 90.9073 53.7271 91.4782 53.6729 91.9424C53.6798 91.9357 53.6871 91.9298 53.6934 91.9238C53.7218 91.8967 53.7432 91.8766 53.7559 91.8643L53.7695 91.8506C54.4171 91.2102 55.3618 90.9725 56.2354 91.2305C57.1098 91.4888 57.7747 92.2031 57.9697 93.0938V93.0967C57.97 93.098 57.9712 93.0996 57.9717 93.1016C57.9725 93.1055 57.9732 93.1108 57.9746 93.1172C57.9774 93.1302 57.9816 93.1485 57.9863 93.1709C57.9958 93.216 58.0088 93.2797 58.0244 93.3574C58.0556 93.5124 58.0975 93.7285 58.1406 93.9756C58.2212 94.4371 58.3285 95.1278 58.3506 95.7383L58.3564 96.043C58.4073 102.215 53.1993 106.975 47.2979 107.157L46.7148 107.16C40.662 107.036 35.2765 102.228 35.5068 95.8096L35.5371 95.3428C35.5797 94.8675 35.6543 94.3825 35.7139 94.0273C35.7564 93.7737 35.7974 93.5507 35.8281 93.3906C35.8436 93.3103 35.8569 93.2446 35.8662 93.1982C35.8709 93.175 35.8742 93.1559 35.877 93.1426C35.8783 93.1361 35.88 93.1309 35.8809 93.127C35.8813 93.125 35.8816 93.1234 35.8818 93.1221V93.1191L35.9287 92.9336C36.1924 92.0209 36.9546 91.3297 37.9014 91.165C38.3638 91.0846 38.8271 91.1382 39.2451 91.3027C39.2635 90.7028 39.3163 90.1558 39.4287 89.5957C39.5705 88.8895 39.7901 88.2497 40.041 87.5703L40.2363 87.082C40.7106 85.99 41.2944 85.2289 41.8057 84.6074C42.3887 83.8987 42.7527 83.5011 43.123 82.8379L43.416 82.291C43.7185 81.7063 44.0446 81.0236 44.3271 80.4121C44.5115 80.0131 44.6703 79.6591 44.7832 79.4053C44.8395 79.2788 44.8838 79.1774 44.9141 79.1084C44.9292 79.074 44.9416 79.0477 44.9492 79.0303C44.953 79.0216 44.9553 79.0148 44.957 79.0107C44.9578 79.009 44.9586 79.0077 44.959 79.0068V79.0059L45.0439 78.8291C45.5006 77.9669 46.4235 77.4432 47.4092 77.5049Z" fill="#FFBA17" stroke="white" stroke-width="5" stroke-linejoin="round"/>
<g filter="url(#filter1_i_275_181)">
<path d="M38.0053 96.2372C38.0362 95.3766 38.3298 93.9658 38.3298 93.9658C38.3298 93.9658 40.0756 96.8162 41.4124 96.2372C42.8007 95.6358 41.7369 93.6941 41.7369 92.1811C41.7369 90.7312 41.9017 90.0851 42.3858 88.7741C43.1075 86.82 44.2908 86.2125 45.3062 84.3936C46.1502 82.8816 47.2531 80.3376 47.2531 80.3376C47.2531 80.3376 48.3081 83.9524 48.2265 86.3405C48.1592 88.3107 46.1116 89.6605 47.2531 91.2077C47.5999 91.6778 47.8113 92.0933 48.3887 92.1811C49.1909 92.3032 49.4327 91.4432 50.0112 90.8832C50.8545 90.0668 51.958 88.7741 51.958 88.7741C51.958 88.7741 51.213 90.942 51.1468 92.5056C51.0807 94.0692 51.6336 96.5616 51.6336 96.5616C53.1003 96.3704 55.5273 93.9658 55.5273 93.9658C55.5273 93.9658 55.8207 95.3054 55.8518 96.166C56.0304 101.11 51.7125 105.099 46.7663 104.998C41.9211 104.899 37.8315 101.08 38.0053 96.2372Z" fill="#FFBA17"/>
</g>
<path d="M39.1816 93.4431L39.1953 93.4636C39.2057 93.48 39.2223 93.5055 39.2441 93.5388C39.2882 93.606 39.3542 93.7044 39.4375 93.821C39.6062 94.0569 39.8372 94.3563 40.0977 94.6325C40.3669 94.9181 40.6225 95.1311 40.834 95.2429C40.9404 95.2991 40.9994 95.3109 41.0244 95.3132C41.0988 95.2796 41.0928 95.2674 41.0986 95.2497C41.1242 95.172 41.1432 95.0035 41.1025 94.6735C41.0619 94.3437 40.9852 94.0027 40.8994 93.5583C40.8203 93.1486 40.7373 92.6626 40.7373 92.1813C40.7373 91.4173 40.7803 90.8217 40.8994 90.2282C41.0172 89.6419 41.2027 89.0923 41.4482 88.4274L41.6104 88.0212C42.004 87.1132 42.4901 86.474 42.9639 85.8981C43.5049 85.2405 43.9798 84.717 44.4326 83.9059L44.7451 83.3229C45.0658 82.7033 45.4039 81.9955 45.6885 81.3796C45.8766 80.9724 46.0392 80.6111 46.1543 80.3522C46.2117 80.2232 46.2569 80.1196 46.2881 80.0485C46.3037 80.013 46.3162 79.9848 46.3242 79.9665C46.3281 79.9576 46.3311 79.9504 46.333 79.946C46.3339 79.9439 46.3345 79.9421 46.335 79.9411L46.3359 79.9401L46.4082 79.8024C46.6012 79.4976 46.9473 79.3165 47.3154 79.3395C47.7359 79.3659 48.0948 79.6529 48.2129 80.0573V80.0583L48.2139 80.0593V80.0612C48.2145 80.0635 48.2157 80.067 48.2168 80.071C48.2191 80.0789 48.2224 80.0906 48.2266 80.1052C48.2349 80.1343 48.2468 80.1764 48.2617 80.2302C48.2917 80.3384 48.3345 80.4944 48.3848 80.6882C48.4853 81.0755 48.6184 81.6176 48.749 82.237C48.9735 83.3013 49.2044 84.6589 49.2285 85.8669L49.2256 86.3747C49.1825 87.6353 48.4913 88.7406 48.1855 89.3698C48.0062 89.7388 47.9259 89.9758 47.9102 90.1579C47.8986 90.2908 47.9171 90.4234 48.0576 90.614L48.1934 90.8024C48.2353 90.8615 48.2697 90.9101 48.3037 90.9567C48.372 91.0504 48.4167 91.1048 48.4521 91.1413C48.4683 91.158 48.4807 91.1675 48.4883 91.1735C48.4988 91.1625 48.5131 91.1509 48.5273 91.1345C48.6112 91.0374 48.6834 90.9324 48.8223 90.7448C48.9447 90.5794 49.1087 90.3649 49.3154 90.1647L49.623 89.8581C49.9393 89.5344 50.2736 89.1709 50.5566 88.8552C50.7434 88.6469 50.9044 88.4628 51.0186 88.3317C51.0754 88.2664 51.1207 88.2141 51.1514 88.1784C51.1666 88.1607 51.1787 88.1474 51.1865 88.1384C51.1904 88.1338 51.1934 88.1298 51.1953 88.1276C51.1961 88.1267 51.1969 88.1261 51.1973 88.1257V88.1247L51.2588 88.0593C51.5752 87.7493 52.0632 87.6828 52.4541 87.9059C52.8449 88.1293 53.035 88.5833 52.9287 89.0134L52.9033 89.0993C52.9031 89.0999 52.9028 89.1009 52.9023 89.1022C52.9013 89.1054 52.8998 89.1108 52.8975 89.1179C52.8927 89.132 52.8854 89.1537 52.876 89.1823C52.857 89.2401 52.8286 89.326 52.7949 89.4343C52.7274 89.6512 52.6367 89.9568 52.5439 90.3083C52.354 91.0285 52.1739 91.8768 52.1455 92.5475C52.1169 93.2233 52.2251 94.1548 52.3535 94.9636C52.3658 95.0411 52.3793 95.1166 52.3916 95.1901C52.7592 94.9732 53.1467 94.6951 53.5098 94.4079C53.8815 94.1138 54.2125 93.8228 54.4512 93.6052C54.57 93.4968 54.6651 93.4078 54.7295 93.3464C54.7617 93.3157 54.7858 93.2916 54.8018 93.2761C54.8096 93.2684 54.8157 93.263 54.8193 93.2595L54.8232 93.2556C55.0823 92.9989 55.4608 92.9033 55.8105 93.0065C56.1602 93.1098 56.4258 93.3955 56.5039 93.7516V93.7526L56.5049 93.7536C56.5051 93.7545 56.5055 93.7559 56.5059 93.7575C56.5065 93.7607 56.5066 93.7656 56.5078 93.7712C56.5102 93.7824 56.5143 93.7987 56.5186 93.819C56.5272 93.86 56.5391 93.9185 56.5537 93.9909C56.583 94.1363 56.6227 94.3395 56.6631 94.571C56.7416 95.021 56.8334 95.6273 56.8516 96.1296L56.8555 96.6491C56.7526 101.804 52.3358 105.838 47.2559 105.995L46.7461 105.998C41.4177 105.889 36.8094 101.674 37.0059 96.2009L37.0322 95.8073C37.069 95.3996 37.1348 94.9621 37.1934 94.613C37.2336 94.3735 37.2727 94.1618 37.3018 94.0104C37.3163 93.9348 37.3284 93.8734 37.3369 93.8307C37.3412 93.8096 37.3443 93.7925 37.3467 93.7809C37.3478 93.7753 37.349 93.7704 37.3496 93.7673C37.3499 93.7658 37.3504 93.7642 37.3506 93.7634V93.7624L37.3926 93.6159C37.5153 93.2868 37.8048 93.0417 38.1582 92.9802C38.5621 92.9099 38.9684 93.0936 39.1826 93.4431H39.1816Z" stroke="black" stroke-width="2" stroke-linejoin="round"/>
<path d="M104.927 49.5049C105.982 49.5703 106.882 50.2926 107.175 51.3086V51.3096L107.176 51.3105C107.176 51.3115 107.176 51.3131 107.177 51.3145C107.178 51.3172 107.179 51.3211 107.18 51.3252C107.182 51.3335 107.186 51.3446 107.189 51.3584C107.197 51.3867 107.208 51.4268 107.222 51.4766C107.249 51.5764 107.287 51.718 107.332 51.8926C107.421 52.2405 107.538 52.727 107.654 53.2842C107.851 54.2307 108.077 55.5466 108.091 56.7656C108.702 56.6057 109.369 56.6772 109.952 57.0059C110.934 57.5592 111.416 58.6939 111.154 59.7715L111.093 59.9863V59.9844C111.092 59.9854 111.091 59.988 111.09 59.9922C111.087 60.0008 111.083 60.0163 111.076 60.0371C111.063 60.0789 111.041 60.1435 111.016 60.2266C110.964 60.3939 110.895 60.6309 110.824 60.9023C110.788 61.0401 110.755 61.1782 110.724 61.3135C111.252 61.0829 111.855 61.0373 112.427 61.2051C113.306 61.4629 113.974 62.1809 114.167 63.0762L111.723 63.6045L114.167 63.0771V63.0791L114.171 63.0986C114.173 63.1102 114.177 63.126 114.181 63.1455C114.189 63.1848 114.201 63.2394 114.214 63.3066C114.24 63.4407 114.277 63.628 114.313 63.8418C114.382 64.2374 114.475 64.8446 114.494 65.3887L114.498 65.9248C114.395 71.241 109.922 75.3358 104.824 75.4951L104.312 75.498C99.0008 75.3879 94.3054 71.1169 94.5059 65.4502L94.5322 65.0361C94.5692 64.6162 94.6343 64.1926 94.6846 63.8887C94.7209 63.6693 94.756 63.4762 94.7822 63.3379C94.7954 63.2684 94.8065 63.2112 94.8145 63.1709C94.8184 63.1509 94.8219 63.1347 94.8242 63.123C94.8253 63.1176 94.8255 63.1129 94.8262 63.1094C94.8265 63.1076 94.8269 63.1057 94.8271 63.1045L94.8281 63.1025V63.1016L94.874 62.915C95.1366 61.9985 95.902 61.3044 96.8525 61.1406C97.1286 61.0931 97.4051 61.094 97.6719 61.1367C97.7471 60.1013 97.9589 59.3603 98.335 58.3281L98.5078 57.8926C98.9251 56.9193 99.4377 56.2414 99.877 55.7002C100.377 55.0842 100.656 54.7769 100.947 54.248L101.188 53.792C101.438 53.3023 101.709 52.7269 101.946 52.207C102.1 51.8692 102.233 51.5694 102.327 51.3545C102.374 51.2472 102.411 51.1608 102.437 51.1025C102.449 51.0735 102.46 51.0517 102.466 51.0371C102.469 51.0299 102.471 51.0239 102.473 51.0205C102.473 51.0192 102.473 51.0182 102.474 51.0176V51.0166L102.559 50.8389C103.013 49.9719 103.938 49.4438 104.927 49.5049Z" fill="#FFBA17" stroke="white" stroke-width="5" stroke-linejoin="round"/>
<g filter="url(#filter2_i_275_181)">
<path d="M97.0045 65.5384C97.0304 64.8057 97.2771 63.6044 97.2771 63.6044C97.2771 63.6044 98.7435 66.0315 99.8664 65.5384C101.033 65.0264 100.139 63.373 100.139 62.0848C100.139 60.8501 100.277 60.3 100.684 59.1837C101.29 57.5197 102.284 57.0025 103.137 55.4537C103.846 54.1662 104.773 52 104.773 52C104.773 52 105.659 55.078 105.59 57.1115C105.534 58.7891 103.814 59.9384 104.773 61.2559C105.064 61.6561 105.241 62.0099 105.727 62.0848C106.4 62.1887 106.603 61.4564 107.089 60.9796C107.798 60.2844 108.725 59.1837 108.725 59.1837C108.725 59.1837 108.099 61.0296 108.043 62.3611C107.988 63.6925 108.452 65.8147 108.452 65.8147C109.684 65.6519 111.723 63.6044 111.723 63.6044C111.723 63.6044 111.969 64.7451 111.996 65.4779C112.145 69.6876 108.518 73.0844 104.364 72.9984C100.294 72.9142 96.8585 69.6623 97.0045 65.5384Z" fill="#FFBA17"/>
</g>
<path d="M104.834 51.002C105.256 51.0281 105.616 51.3172 105.733 51.7236L105.734 51.7246V51.7266C105.735 51.7286 105.736 51.7319 105.737 51.7354C105.739 51.7423 105.742 51.7522 105.745 51.7646C105.752 51.7898 105.763 51.8258 105.775 51.8721C105.801 51.9649 105.836 52.0987 105.879 52.2646C105.964 52.596 106.076 53.0599 106.187 53.5898C106.375 54.4979 106.571 55.6644 106.592 56.707L106.59 57.1455C106.552 58.2564 105.949 59.2355 105.702 59.751C105.553 60.0621 105.495 60.2452 105.484 60.374C105.477 60.4549 105.484 60.534 105.581 60.667L105.696 60.8301C105.732 60.8808 105.76 60.9212 105.788 60.96C105.794 60.9681 105.8 60.9751 105.806 60.9824C105.845 60.9296 105.894 60.8672 105.959 60.7783C106.063 60.6364 106.206 60.4453 106.389 60.2656L106.645 60.0068C106.908 59.7339 107.187 59.4264 107.424 59.1582C107.58 58.9816 107.715 58.826 107.811 58.7148C107.858 58.6594 107.896 58.6152 107.922 58.585C107.934 58.5702 107.944 58.5584 107.95 58.5508C107.953 58.5469 107.956 58.5438 107.958 58.542C107.959 58.5411 107.96 58.5404 107.96 58.54V58.5391L108.021 58.4736C108.335 58.1611 108.823 58.0912 109.216 58.3125C109.635 58.5486 109.826 59.0496 109.672 59.5049L109.671 59.5068C109.67 59.5093 109.669 59.5138 109.667 59.5195C109.663 59.5313 109.657 59.55 109.649 59.5742C109.634 59.6227 109.61 59.6949 109.582 59.7861C109.526 59.9694 109.45 60.2284 109.373 60.5254C109.234 61.0599 109.103 61.6706 109.057 62.1875L109.042 62.4023C109.019 62.9527 109.104 63.7151 109.209 64.3926C109.446 64.2368 109.69 64.0555 109.924 63.8682C110.232 63.6207 110.507 63.376 110.706 63.1924C110.805 63.101 110.884 63.0262 110.938 62.9746C110.964 62.949 110.984 62.9289 110.997 62.916L111.015 62.8984L111.116 62.8096C111.367 62.6182 111.696 62.5545 112.004 62.6445C112.356 62.7476 112.623 63.0354 112.7 63.3936L112.701 63.3945C112.701 63.3954 112.701 63.3971 112.701 63.3984C112.702 63.4012 112.703 63.4053 112.704 63.4102C112.706 63.4199 112.709 63.4338 112.713 63.4512C112.72 63.4865 112.731 63.5372 112.743 63.5996C112.768 63.7243 112.801 63.8983 112.835 64.0967C112.901 64.481 112.98 65.0049 112.995 65.4424L112.998 65.8916C112.91 70.3563 109.137 73.8599 104.78 73.9961L104.343 73.998C99.7765 73.9034 95.837 70.244 96.0049 65.5029L96.0273 65.1611C96.0588 64.8078 96.1147 64.4307 96.1641 64.1328C96.198 63.9277 96.2313 63.7469 96.2559 63.6172C96.2682 63.5522 96.2779 63.4996 96.2852 63.4629C96.2888 63.4446 96.2919 63.43 96.2939 63.4199C96.2949 63.415 96.2963 63.411 96.2969 63.4082C96.2971 63.4071 96.2967 63.406 96.2969 63.4053L96.2979 63.4043V63.4033L96.3398 63.2568C96.4624 62.9262 96.7524 62.6803 97.1074 62.6191C97.4622 62.5581 97.8179 62.6925 98.0439 62.9629L98.1328 63.0869L98.1338 63.0879C98.1354 63.0904 98.1384 63.0959 98.1426 63.1025C98.1509 63.1159 98.1638 63.1374 98.1816 63.165C98.2177 63.2209 98.2722 63.3021 98.3408 63.3994C98.4802 63.5971 98.6702 63.8466 98.8828 64.0752C99.1041 64.3132 99.3051 64.4795 99.46 64.5625L99.4619 64.5635C99.4665 64.4945 99.467 64.3864 99.4473 64.2236C99.4139 63.9489 99.3514 63.667 99.2783 63.2832C99.2117 62.9336 99.1387 62.5086 99.1387 62.085C99.1387 60.7072 99.3079 60.0394 99.7441 58.8418L99.8848 58.4873C100.223 57.6969 100.64 57.1406 101.042 56.6455C101.5 56.0806 101.889 55.6478 102.262 54.9717L102.521 54.4785C102.789 53.9541 103.072 53.3533 103.311 52.8291C103.468 52.4832 103.605 52.1769 103.701 51.957C103.749 51.8471 103.787 51.7586 103.813 51.6982C103.826 51.6682 103.837 51.6454 103.844 51.6299C103.847 51.6223 103.849 51.6161 103.851 51.6123C103.851 51.6107 103.852 51.6093 103.853 51.6084L103.854 51.6074V51.6064L103.926 51.4678C104.118 51.1616 104.465 50.9792 104.834 51.002Z" stroke="black" stroke-width="2" stroke-linejoin="round"/>
<path d="M68.7959 41.0796L40.0092 67.4888C39.0857 68.336 37.6607 68.312 36.7663 67.4342C35.8052 66.491 35.8289 64.9354 36.8183 64.0219L68.7865 34.5055C70.3189 33.0906 72.6811 33.0906 74.2135 34.5055L106.182 64.0219C107.171 64.9354 107.195 66.491 106.234 67.4342C105.339 68.312 103.914 68.336 102.991 67.4888L74.2041 41.0796C72.6745 39.6763 70.3256 39.6763 68.7959 41.0796Z" fill="#D7C8C1"/>
<path d="M96 66.004V103H47V66.004L71.5 43.0001L96 66.004Z" fill="#98CFEB"/>
<path d="M67.3282 32.46C69.8195 30.372 73.497 30.4417 75.9092 32.6689L107.878 62.1846L108.063 62.3652C109.858 64.2057 109.903 67.1378 108.164 69.0322L107.984 69.2188C106.199 70.9711 103.387 71.072 101.482 69.4893L101.301 69.3311L98.5001 66.7607V103C98.5001 104.381 97.3807 105.5 96.0001 105.5H47.0001C45.6193 105.5 44.5001 104.381 44.5001 103V66.7607L41.6993 69.3311C39.8555 71.0226 37.0415 71.0288 35.1915 69.3828L35.0157 69.2188C33.0346 67.2745 33.0828 64.0675 35.1221 62.1846L67.0909 32.6689L67.3282 32.46Z" stroke="white" stroke-width="5" stroke-linejoin="round"/>
<path d="M68.291 33.6104C70.2074 32.0042 73.036 32.0574 74.8916 33.7705L106.86 63.2871L106.988 63.4121C108.229 64.684 108.26 66.7105 107.059 68.0195L106.935 68.1475C105.7 69.3587 103.757 69.4288 102.44 68.335L102.314 68.2256L73.5283 41.8164C72.4528 40.8297 70.8374 40.7685 69.6943 41.6318L69.4717 41.8164L40.6855 68.2256C39.4113 69.3946 37.4661 69.3992 36.1875 68.2617L36.0654 68.1475C34.6968 66.8038 34.7306 64.5883 36.1396 63.2871L68.1084 33.7705L68.291 33.6104Z" fill="#D7C8C1" stroke="black" stroke-width="2" stroke-linejoin="round"/>
<path d="M97 103C97 103.552 96.5523 104 96 104H47C46.4477 104 46 103.552 46 103V66.0039C46 65.7279 46.1143 65.4644 46.3154 65.2754L70.8154 42.2705L70.8896 42.207C71.2739 41.9107 71.8238 41.9319 72.1846 42.2705L96.6846 65.2754C96.8857 65.4644 97 65.7279 97 66.0039V103Z" fill="#98CFEB" stroke="black" stroke-width="2" stroke-linejoin="round"/>
<g filter="url(#filter3_i_275_181)">
<circle cx="71.4737" cy="55.9212" r="2.84211" fill="#D5F5FC"/>
</g>
<circle cx="71.4737" cy="55.9212" r="3.84211" stroke="black" stroke-width="2"/>
<rect x="55" y="77" width="14" height="27" fill="#E2E2E2" stroke="black" stroke-width="2" stroke-linejoin="round"/>
<circle cx="65.5" cy="90.5" r="1.5" fill="black"/>
<g filter="url(#filter4_i_275_181)">
<rect x="80" y="78" width="7.57895" height="8.05263" fill="#D5F5FC"/>
</g>
<rect x="79" y="77" width="9.57895" height="10.0526" stroke="black" stroke-width="2" stroke-linejoin="round"/>
<g filter="url(#filter5_i_275_181)">
<path d="M45.0036 39.6845C45.0243 39.1062 45.2216 38.1582 45.2216 38.1582C45.2216 38.1582 46.3948 40.0737 47.2931 39.6845C48.2261 39.2804 47.5112 37.9756 47.5112 36.9589C47.5112 35.9845 47.6219 35.5503 47.9473 34.6693C48.4322 33.3562 49.2274 32.9479 49.9097 31.7256C50.477 30.7096 51.2181 29 51.2181 29C51.2181 29 51.927 31.4291 51.8722 33.0339C51.827 34.3579 50.451 35.265 51.2181 36.3047C51.4511 36.6206 51.5932 36.8998 51.9812 36.9589C52.5203 37.0409 52.6827 36.463 53.0715 36.0867C53.6382 35.5381 54.3798 34.6693 54.3798 34.6693C54.3798 34.6693 53.8791 36.1262 53.8347 37.1769C53.7902 38.2277 54.1617 39.9026 54.1617 39.9026C55.1474 39.7741 56.7784 38.1582 56.7784 38.1582C56.7784 38.1582 56.9755 39.0584 56.9964 39.6367C57.1164 42.9591 54.2148 45.6398 50.891 45.5719C47.635 45.5054 44.8868 42.9391 45.0036 39.6845Z" fill="#FFBA17"/>
</g>
<path d="M51.2803 28.002C51.7007 28.0283 52.0596 28.3154 52.1777 28.7197V28.7207H52.1787V28.7227C52.1792 28.7243 52.1799 28.7269 52.1807 28.7295C52.1823 28.7352 52.1846 28.7437 52.1875 28.7539C52.1933 28.7743 52.2016 28.8037 52.2119 28.8408C52.2325 28.9151 52.2616 29.0213 52.2959 29.1533C52.3644 29.4173 52.4549 29.7867 52.5439 30.209C52.6957 30.9283 52.8574 31.8659 52.874 32.7119L52.8721 33.0684C52.84 34.0058 52.3215 34.8386 52.1396 35.2129C52.0222 35.4545 51.9915 35.5688 51.9863 35.6279C51.9853 35.6378 51.9762 35.6482 52.0225 35.7109L52.0479 35.7461C52.1295 35.6378 52.2396 35.5002 52.376 35.3682L52.7871 34.9482C52.9276 34.7989 53.0674 34.6454 53.1934 34.5049C53.3175 34.3664 53.4251 34.2444 53.501 34.1572C53.5389 34.1137 53.5685 34.0783 53.5889 34.0547C53.599 34.0429 53.6072 34.0342 53.6123 34.0283C53.6148 34.0254 53.617 34.0229 53.6182 34.0215L53.6191 34.0205L53.6797 33.9551C53.9961 33.6445 54.4848 33.5774 54.876 33.8008C55.267 34.0242 55.4572 34.4789 55.3506 34.9092L55.3252 34.9941V34.9961C55.3246 34.9979 55.3236 35.0009 55.3223 35.0049C55.3193 35.0137 55.3147 35.0282 55.3086 35.0469C55.2963 35.0842 55.2779 35.1402 55.2559 35.2109C55.2116 35.3532 55.1516 35.5536 55.0908 35.7842C54.9961 36.1431 54.9084 36.5379 54.8633 36.8877L54.834 37.2188C54.8201 37.548 54.8583 37.9878 54.917 38.4229C55.0173 38.3505 55.1198 38.2765 55.2188 38.1982C55.4608 38.0068 55.6775 37.8166 55.834 37.6738C55.9117 37.6029 55.974 37.5447 56.0156 37.5049C56.0364 37.485 56.0525 37.4697 56.0625 37.46L56.0752 37.4473C56.3342 37.191 56.7121 37.096 57.0615 37.1992C57.4113 37.3025 57.6769 37.5881 57.7549 37.9443L57.7559 37.9453C57.756 37.946 57.7556 37.9473 57.7559 37.9482C57.7564 37.9505 57.757 37.9541 57.7578 37.958C57.7595 37.9659 57.7626 37.9771 57.7656 37.9912C57.7716 38.0197 57.78 38.0604 57.79 38.1104C57.8101 38.2102 57.8365 38.3498 57.8643 38.5088C57.9175 38.8137 57.983 39.2394 57.9961 39.6006L57.999 39.9688C57.9265 43.623 54.8015 46.4588 51.2295 46.5693L50.8701 46.5713C47.1312 46.4947 43.8645 43.533 44.0039 39.6484L44.0225 39.3682C44.0484 39.0794 44.0942 38.775 44.1338 38.5391C44.1613 38.3752 44.1881 38.2306 44.208 38.127C44.218 38.075 44.2265 38.0324 44.2324 38.0029C44.2353 37.9884 44.2376 37.9769 44.2393 37.9688C44.2401 37.9647 44.2417 37.9613 44.2422 37.959V37.9541L44.2852 37.8086C44.4079 37.4794 44.6973 37.2343 45.0508 37.1729C45.4041 37.1116 45.7588 37.2444 45.9854 37.5127L46.0742 37.6357C46.0753 37.6374 46.0772 37.6409 46.0801 37.6455C46.0862 37.6552 46.0967 37.6706 46.1104 37.6914C46.1379 37.7335 46.1794 37.7959 46.2324 37.8701C46.3406 38.0214 46.4869 38.2095 46.6484 38.3809C46.6738 38.4077 46.6996 38.4322 46.7236 38.4561C46.6977 38.3116 46.6655 38.151 46.626 37.9463C46.5725 37.6692 46.5108 37.3161 46.5107 36.959C46.5107 36.4328 46.5412 36.0093 46.627 35.582C46.7113 35.162 46.8427 34.773 47.0088 34.3232L47.126 34.0322C47.4081 33.3818 47.7555 32.9253 48.082 32.5283C48.4548 32.0752 48.7499 31.7509 49.0361 31.2383L49.2422 30.8545C49.4538 30.4457 49.6783 29.9755 49.8691 29.5625C49.9947 29.2907 50.1028 29.0498 50.1797 28.877C50.2181 28.7906 50.2488 28.7211 50.2695 28.6738C50.2798 28.6503 50.2877 28.6322 50.293 28.6201C50.2956 28.6141 50.2975 28.6094 50.2988 28.6064C50.2993 28.6053 50.2995 28.6042 50.2998 28.6035L50.3008 28.6025L50.373 28.4648C50.566 28.16 50.9122 27.979 51.2803 28.002Z" stroke="black" stroke-width="2" stroke-linejoin="round"/>
<g filter="url(#filter6_i_275_181)">
<path d="M97.0045 65.5384C97.0304 64.8057 97.2771 63.6044 97.2771 63.6044C97.2771 63.6044 98.7435 66.0315 99.8664 65.5384C101.033 65.0264 100.139 63.373 100.139 62.0848C100.139 60.8501 100.277 60.3 100.684 59.1837C101.29 57.5197 102.284 57.0025 103.137 55.4537C103.846 54.1662 104.773 52 104.773 52C104.773 52 105.659 55.078 105.59 57.1115C105.534 58.7891 103.814 59.9384 104.773 61.2559C105.064 61.6561 105.241 62.0099 105.727 62.0848C106.4 62.1887 106.603 61.4564 107.089 60.9796C107.798 60.2844 108.725 59.1837 108.725 59.1837C108.725 59.1837 108.099 61.0296 108.043 62.3611C107.988 63.6925 108.452 65.8147 108.452 65.8147C109.684 65.6519 111.723 63.6044 111.723 63.6044C111.723 63.6044 111.969 64.7451 111.996 65.4779C112.145 69.6876 108.518 73.0844 104.364 72.9984C100.294 72.9142 96.8585 69.6623 97.0045 65.5384Z" fill="#FFBA17"/>
</g>
<path d="M104.834 51.002C105.256 51.0281 105.616 51.3172 105.733 51.7236L105.734 51.7246V51.7266C105.735 51.7286 105.736 51.7319 105.737 51.7354C105.739 51.7423 105.742 51.7522 105.745 51.7646C105.752 51.7898 105.763 51.8258 105.775 51.8721C105.801 51.9649 105.836 52.0987 105.879 52.2646C105.964 52.596 106.076 53.0599 106.187 53.5898C106.375 54.4979 106.571 55.6644 106.592 56.707L106.59 57.1455C106.552 58.2564 105.949 59.2355 105.702 59.751C105.553 60.0621 105.495 60.2452 105.484 60.374C105.477 60.4549 105.484 60.534 105.581 60.667L105.696 60.8301C105.732 60.8808 105.76 60.9212 105.788 60.96C105.794 60.9681 105.8 60.9751 105.806 60.9824C105.845 60.9296 105.894 60.8672 105.959 60.7783C106.063 60.6364 106.206 60.4453 106.389 60.2656L106.645 60.0068C106.908 59.7339 107.187 59.4264 107.424 59.1582C107.58 58.9816 107.715 58.826 107.811 58.7148C107.858 58.6594 107.896 58.6152 107.922 58.585C107.934 58.5702 107.944 58.5584 107.95 58.5508C107.953 58.5469 107.956 58.5438 107.958 58.542C107.959 58.5411 107.96 58.5404 107.96 58.54V58.5391L108.021 58.4736C108.335 58.1611 108.823 58.0912 109.216 58.3125C109.635 58.5486 109.826 59.0496 109.672 59.5049L109.671 59.5068C109.67 59.5093 109.669 59.5138 109.667 59.5195C109.663 59.5313 109.657 59.55 109.649 59.5742C109.634 59.6227 109.61 59.6949 109.582 59.7861C109.526 59.9694 109.45 60.2284 109.373 60.5254C109.234 61.0599 109.103 61.6706 109.057 62.1875L109.042 62.4023C109.019 62.9527 109.104 63.7151 109.209 64.3926C109.446 64.2368 109.69 64.0555 109.924 63.8682C110.232 63.6207 110.507 63.376 110.706 63.1924C110.805 63.101 110.884 63.0262 110.938 62.9746C110.964 62.949 110.984 62.9289 110.997 62.916L111.015 62.8984L111.116 62.8096C111.367 62.6182 111.696 62.5545 112.004 62.6445C112.356 62.7476 112.623 63.0354 112.7 63.3936L112.701 63.3945C112.701 63.3954 112.701 63.3971 112.701 63.3984C112.702 63.4012 112.703 63.4053 112.704 63.4102C112.706 63.4199 112.709 63.4338 112.713 63.4512C112.72 63.4865 112.731 63.5372 112.743 63.5996C112.768 63.7243 112.801 63.8983 112.835 64.0967C112.901 64.481 112.98 65.0049 112.995 65.4424L112.998 65.8916C112.91 70.3563 109.137 73.8599 104.78 73.9961L104.343 73.998C99.7765 73.9034 95.837 70.244 96.0049 65.5029L96.0273 65.1611C96.0588 64.8078 96.1147 64.4307 96.1641 64.1328C96.198 63.9277 96.2313 63.7469 96.2559 63.6172C96.2682 63.5522 96.2779 63.4996 96.2852 63.4629C96.2888 63.4446 96.2919 63.43 96.2939 63.4199C96.2949 63.415 96.2963 63.411 96.2969 63.4082C96.2971 63.4071 96.2967 63.406 96.2969 63.4053L96.2979 63.4043V63.4033L96.3398 63.2568C96.4624 62.9262 96.7524 62.6803 97.1074 62.6191C97.4622 62.5581 97.8179 62.6925 98.0439 62.9629L98.1328 63.0869L98.1338 63.0879C98.1354 63.0904 98.1384 63.0959 98.1426 63.1025C98.1509 63.1159 98.1638 63.1374 98.1816 63.165C98.2177 63.2209 98.2722 63.3021 98.3408 63.3994C98.4802 63.5971 98.6702 63.8466 98.8828 64.0752C99.1041 64.3132 99.3051 64.4795 99.46 64.5625L99.4619 64.5635C99.4665 64.4945 99.467 64.3864 99.4473 64.2236C99.4139 63.9489 99.3514 63.667 99.2783 63.2832C99.2117 62.9336 99.1387 62.5086 99.1387 62.085C99.1387 60.7072 99.3079 60.0394 99.7441 58.8418L99.8848 58.4873C100.223 57.6969 100.64 57.1406 101.042 56.6455C101.5 56.0806 101.889 55.6478 102.262 54.9717L102.521 54.4785C102.789 53.9541 103.072 53.3533 103.311 52.8291C103.468 52.4832 103.605 52.1769 103.701 51.957C103.749 51.8471 103.787 51.7586 103.813 51.6982C103.826 51.6682 103.837 51.6454 103.844 51.6299C103.847 51.6223 103.849 51.6161 103.851 51.6123C103.851 51.6107 103.852 51.6093 103.853 51.6084L103.854 51.6074V51.6064L103.926 51.4678C104.118 51.1616 104.465 50.9792 104.834 51.002Z" stroke="black" stroke-width="2" stroke-linejoin="round"/>
<g filter="url(#filter7_i_275_181)">
<path d="M38.0053 96.2372C38.0362 95.3766 38.3298 93.9658 38.3298 93.9658C38.3298 93.9658 40.0756 96.8162 41.4124 96.2372C42.8007 95.6358 41.7369 93.6941 41.7369 92.1811C41.7369 90.7312 41.9017 90.0851 42.3858 88.7741C43.1075 86.82 44.2908 86.2125 45.3062 84.3936C46.1502 82.8816 47.2531 80.3376 47.2531 80.3376C47.2531 80.3376 48.3081 83.9524 48.2265 86.3405C48.1592 88.3107 46.1116 89.6605 47.2531 91.2077C47.5999 91.6778 47.8113 92.0933 48.3887 92.1811C49.1909 92.3032 49.4327 91.4432 50.0112 90.8832C50.8545 90.0668 51.958 88.7741 51.958 88.7741C51.958 88.7741 51.213 90.942 51.1468 92.5056C51.0807 94.0692 51.6336 96.5616 51.6336 96.5616C53.1003 96.3704 55.5273 93.9658 55.5273 93.9658C55.5273 93.9658 55.8207 95.3054 55.8518 96.166C56.0304 101.11 51.7125 105.099 46.7663 104.998C41.9211 104.899 37.8315 101.08 38.0053 96.2372Z" fill="#FFBA17"/>
</g>
<path d="M39.1816 93.4431L39.1953 93.4636C39.2057 93.48 39.2223 93.5055 39.2441 93.5388C39.2882 93.606 39.3542 93.7044 39.4375 93.821C39.6062 94.0569 39.8372 94.3563 40.0977 94.6325C40.3669 94.9181 40.6225 95.1311 40.834 95.2429C40.9404 95.2991 40.9994 95.3109 41.0244 95.3132C41.0988 95.2796 41.0928 95.2674 41.0986 95.2497C41.1242 95.172 41.1432 95.0035 41.1025 94.6735C41.0619 94.3437 40.9852 94.0027 40.8994 93.5583C40.8203 93.1486 40.7373 92.6626 40.7373 92.1813C40.7373 91.4173 40.7803 90.8217 40.8994 90.2282C41.0172 89.6419 41.2027 89.0923 41.4482 88.4274L41.6104 88.0212C42.004 87.1132 42.4901 86.474 42.9639 85.8981C43.5049 85.2405 43.9798 84.717 44.4326 83.9059L44.7451 83.3229C45.0658 82.7033 45.4039 81.9955 45.6885 81.3796C45.8766 80.9724 46.0392 80.6111 46.1543 80.3522C46.2117 80.2232 46.2569 80.1196 46.2881 80.0485C46.3037 80.013 46.3162 79.9848 46.3242 79.9665C46.3281 79.9576 46.3311 79.9504 46.333 79.946C46.3339 79.9439 46.3345 79.9421 46.335 79.9411L46.3359 79.9401L46.4082 79.8024C46.6012 79.4976 46.9473 79.3165 47.3154 79.3395C47.7359 79.3659 48.0948 79.6529 48.2129 80.0573V80.0583L48.2139 80.0593V80.0612C48.2145 80.0635 48.2157 80.067 48.2168 80.071C48.2191 80.0789 48.2224 80.0906 48.2266 80.1052C48.2349 80.1343 48.2468 80.1764 48.2617 80.2302C48.2917 80.3384 48.3345 80.4944 48.3848 80.6882C48.4853 81.0755 48.6184 81.6176 48.749 82.237C48.9735 83.3013 49.2044 84.6589 49.2285 85.8669L49.2256 86.3747C49.1825 87.6353 48.4913 88.7406 48.1855 89.3698C48.0062 89.7388 47.9259 89.9758 47.9102 90.1579C47.8986 90.2908 47.9171 90.4234 48.0576 90.614L48.1934 90.8024C48.2353 90.8615 48.2697 90.9101 48.3037 90.9567C48.372 91.0504 48.4167 91.1048 48.4521 91.1413C48.4683 91.158 48.4807 91.1675 48.4883 91.1735C48.4988 91.1625 48.5131 91.1509 48.5273 91.1345C48.6112 91.0374 48.6834 90.9324 48.8223 90.7448C48.9447 90.5794 49.1087 90.3649 49.3154 90.1647L49.623 89.8581C49.9393 89.5344 50.2736 89.1709 50.5566 88.8552C50.7434 88.6469 50.9044 88.4628 51.0186 88.3317C51.0754 88.2664 51.1207 88.2141 51.1514 88.1784C51.1666 88.1607 51.1787 88.1474 51.1865 88.1384C51.1904 88.1338 51.1934 88.1298 51.1953 88.1276C51.1961 88.1267 51.1969 88.1261 51.1973 88.1257V88.1247L51.2588 88.0593C51.5752 87.7493 52.0632 87.6828 52.4541 87.9059C52.8449 88.1293 53.035 88.5833 52.9287 89.0134L52.9033 89.0993C52.9031 89.0999 52.9028 89.1009 52.9023 89.1022C52.9013 89.1054 52.8998 89.1108 52.8975 89.1179C52.8927 89.132 52.8854 89.1537 52.876 89.1823C52.857 89.2401 52.8286 89.326 52.7949 89.4343C52.7274 89.6512 52.6367 89.9568 52.5439 90.3083C52.354 91.0285 52.1739 91.8768 52.1455 92.5475C52.1169 93.2233 52.2251 94.1548 52.3535 94.9636C52.3658 95.0411 52.3793 95.1166 52.3916 95.1901C52.7592 94.9732 53.1467 94.6951 53.5098 94.4079C53.8815 94.1138 54.2125 93.8228 54.4512 93.6052C54.57 93.4968 54.6651 93.4078 54.7295 93.3464C54.7617 93.3157 54.7858 93.2916 54.8018 93.2761C54.8096 93.2684 54.8157 93.263 54.8193 93.2595L54.8232 93.2556C55.0823 92.9989 55.4608 92.9033 55.8105 93.0065C56.1602 93.1098 56.4258 93.3955 56.5039 93.7516V93.7526L56.5049 93.7536C56.5051 93.7545 56.5055 93.7559 56.5059 93.7575C56.5065 93.7607 56.5066 93.7656 56.5078 93.7712C56.5102 93.7824 56.5143 93.7987 56.5186 93.819C56.5272 93.86 56.5391 93.9185 56.5537 93.9909C56.583 94.1363 56.6227 94.3395 56.6631 94.571C56.7416 95.021 56.8334 95.6273 56.8516 96.1296L56.8555 96.6491C56.7526 101.804 52.3358 105.838 47.2559 105.995L46.7461 105.998C41.4177 105.889 36.8094 101.674 37.0059 96.2009L37.0322 95.8073C37.069 95.3996 37.1348 94.9621 37.1934 94.613C37.2336 94.3735 37.2727 94.1618 37.3018 94.0104C37.3163 93.9348 37.3284 93.8734 37.3369 93.8307C37.3412 93.8096 37.3443 93.7925 37.3467 93.7809C37.3478 93.7753 37.349 93.7704 37.3496 93.7673C37.3499 93.7658 37.3504 93.7642 37.3506 93.7634V93.7624L37.3926 93.6159C37.5153 93.2868 37.8048 93.0417 38.1582 92.9802C38.5621 92.9099 38.9684 93.0936 39.1826 93.4431H39.1816Z" stroke="black" stroke-width="2" stroke-linejoin="round"/>
<defs>
<filter id="filter0_i_275_181" x="41.9999" y="27" width="17.0002" height="21.5731" filterUnits="userSpaceOnUse" color-interpolation-filters="sRGB">
<feFlood flood-opacity="0" result="BackgroundImageFix"/>
<feBlend mode="normal" in="SourceGraphic" in2="BackgroundImageFix" result="shape"/>
<feColorMatrix in="SourceAlpha" type="matrix" values="0 0 0 0 0 0 0 0 0 0 0 0 0 0 0 0 0 0 127 0" result="hardAlpha"/>
<feOffset dx="-3" dy="4"/>
<feGaussianBlur stdDeviation="0.5"/>
<feComposite in2="hardAlpha" operator="arithmetic" k2="-1" k3="1"/>
<feColorMatrix type="matrix" values="0 0 0 0 0.875 0 0 0 0 0 0 0 0 0 0 0 0 0 0.25 0"/>
<feBlend mode="normal" in2="shape" result="effect1_innerShadow_275_181"/>
</filter>
<filter id="filter1_i_275_181" x="34.9999" y="78.3376" width="22.8574" height="29.6624" filterUnits="userSpaceOnUse" color-interpolation-filters="sRGB">
<feFlood flood-opacity="0" result="BackgroundImageFix"/>
<feBlend mode="normal" in="SourceGraphic" in2="BackgroundImageFix" result="shape"/>
<feColorMatrix in="SourceAlpha" type="matrix" values="0 0 0 0 0 0 0 0 0 0 0 0 0 0 0 0 0 0 127 0" result="hardAlpha"/>
<feOffset dx="-3" dy="4"/>
<feGaussianBlur stdDeviation="0.5"/>
<feComposite in2="hardAlpha" operator="arithmetic" k2="-1" k3="1"/>
<feColorMatrix type="matrix" values="0 0 0 0 0.875 0 0 0 0 0 0 0 0 0 0 0 0 0 0.25 0"/>
<feBlend mode="normal" in2="shape" result="effect1_innerShadow_275_181"/>
</filter>
<filter id="filter2_i_275_181" x="93.9999" y="50" width="20.0002" height="26" filterUnits="userSpaceOnUse" color-interpolation-filters="sRGB">
<feFlood flood-opacity="0" result="BackgroundImageFix"/>
<feBlend mode="normal" in="SourceGraphic" in2="BackgroundImageFix" result="shape"/>
<feColorMatrix in="SourceAlpha" type="matrix" values="0 0 0 0 0 0 0 0 0 0 0 0 0 0 0 0 0 0 127 0" result="hardAlpha"/>
<feOffset dx="-3" dy="4"/>
<feGaussianBlur stdDeviation="0.5"/>
<feComposite in2="hardAlpha" operator="arithmetic" k2="-1" k3="1"/>
<feColorMatrix type="matrix" values="0 0 0 0 0.875 0 0 0 0 0 0 0 0 0 0 0 0 0 0.25 0"/>
<feBlend mode="normal" in2="shape" result="effect1_innerShadow_275_181"/>
</filter>
<filter id="filter3_i_275_181" x="64.6316" y="51.0791" width="11.6842" height="11.6842" filterUnits="userSpaceOnUse" color-interpolation-filters="sRGB">
<feFlood flood-opacity="0" result="BackgroundImageFix"/>
<feBlend mode="normal" in="SourceGraphic" in2="BackgroundImageFix" result="shape"/>
<feColorMatrix in="SourceAlpha" type="matrix" values="0 0 0 0 0 0 0 0 0 0 0 0 0 0 0 0 0 0 127 0" result="hardAlpha"/>
<feOffset dx="-3" dy="4"/>
<feGaussianBlur stdDeviation="1"/>
<feComposite in2="hardAlpha" operator="arithmetic" k2="-1" k3="1"/>
<feColorMatrix type="matrix" values="0 0 0 0 0.0252778 0 0 0 0 0.390963 0 0 0 0 0.733056 0 0 0 0.62 0"/>
<feBlend mode="normal" in2="shape" result="effect1_innerShadow_275_181"/>
</filter>
<filter id="filter4_i_275_181" x="76" y="76" width="13.5789" height="14.0526" filterUnits="userSpaceOnUse" color-interpolation-filters="sRGB">
<feFlood flood-opacity="0" result="BackgroundImageFix"/>
<feBlend mode="normal" in="SourceGraphic" in2="BackgroundImageFix" result="shape"/>
<feColorMatrix in="SourceAlpha" type="matrix" values="0 0 0 0 0 0 0 0 0 0 0 0 0 0 0 0 0 0 127 0" result="hardAlpha"/>
<feOffset dx="-3" dy="4"/>
<feGaussianBlur stdDeviation="1"/>
<feComposite in2="hardAlpha" operator="arithmetic" k2="-1" k3="1"/>
<feColorMatrix type="matrix" values="0 0 0 0 0.0252778 0 0 0 0 0.390963 0 0 0 0 0.733056 0 0 0 0.62 0"/>
<feBlend mode="normal" in2="shape" result="effect1_innerShadow_275_181"/>
</filter>
<filter id="filter5_i_275_181" x="41.9999" y="27" width="17.0002" height="21.5731" filterUnits="userSpaceOnUse" color-interpolation-filters="sRGB">
<feFlood flood-opacity="0" result="BackgroundImageFix"/>
<feBlend mode="normal" in="SourceGraphic" in2="BackgroundImageFix" result="shape"/>
<feColorMatrix in="SourceAlpha" type="matrix" values="0 0 0 0 0 0 0 0 0 0 0 0 0 0 0 0 0 0 127 0" result="hardAlpha"/>
<feOffset dx="-3" dy="4"/>
<feGaussianBlur stdDeviation="0.5"/>
<feComposite in2="hardAlpha" operator="arithmetic" k2="-1" k3="1"/>
<feColorMatrix type="matrix" values="0 0 0 0 0.875 0 0 0 0 0 0 0 0 0 0 0 0 0 0.25 0"/>
<feBlend mode="normal" in2="shape" result="effect1_innerShadow_275_181"/>
</filter>
<filter id="filter6_i_275_181" x="93.9999" y="50" width="20.0002" height="26" filterUnits="userSpaceOnUse" color-interpolation-filters="sRGB">
<feFlood flood-opacity="0" result="BackgroundImageFix"/>
<feBlend mode="normal" in="SourceGraphic" in2="BackgroundImageFix" result="shape"/>
<feColorMatrix in="SourceAlpha" type="matrix" values="0 0 0 0 0 0 0 0 0 0 0 0 0 0 0 0 0 0 127 0" result="hardAlpha"/>
<feOffset dx="-3" dy="4"/>
<feGaussianBlur stdDeviation="0.5"/>
<feComposite in2="hardAlpha" operator="arithmetic" k2="-1" k3="1"/>
<feColorMatrix type="matrix" values="0 0 0 0 0.875 0 0 0 0 0 0 0 0 0 0 0 0 0 0.25 0"/>
<feBlend mode="normal" in2="shape" result="effect1_innerShadow_275_181"/>
</filter>
<filter id="filter7_i_275_181" x="34.9999" y="78.3376" width="22.8574" height="29.6624" filterUnits="userSpaceOnUse" color-interpolation-filters="sRGB">
<feFlood flood-opacity="0" result="BackgroundImageFix"/>
<feBlend mode="normal" in="SourceGraphic" in2="BackgroundImageFix" result="shape"/>
<feColorMatrix in="SourceAlpha" type="matrix" values="0 0 0 0 0 0 0 0 0 0 0 0 0 0 0 0 0 0 127 0" result="hardAlpha"/>
<feOffset dx="-3" dy="4"/>
<feGaussianBlur stdDeviation="0.5"/>
<feComposite in2="hardAlpha" operator="arithmetic" k2="-1" k3="1"/>
<feColorMatrix type="matrix" values="0 0 0 0 0.875 0 0 0 0 0 0 0 0 0 0 0 0 0 0.25 0"/>
<feBlend mode="normal" in2="shape" result="effect1_innerShadow_275_181"/>
</filter>
</defs>
</svg>
