<svg width="140" height="140" viewBox="0 0 140 140" fill="none" xmlns="http://www.w3.org/2000/svg">
<path d="M71 1C106.899 1 136 30.1015 136 66C136 101.899 106.899 131 71 131C56.0255 131 44.0339 127.845 33.0469 119.307C32.9367 119.406 32.814 119.519 32.6777 119.642C32.0431 120.214 31.1343 121.028 30.0381 121.999C27.8464 123.94 24.901 126.51 21.8906 129.019C18.8853 131.523 15.7947 133.984 13.3193 135.697C12.0879 136.55 10.9697 137.245 10.0713 137.664C9.62812 137.871 9.18022 138.038 8.7666 138.104C8.39071 138.163 7.76482 138.179 7.29297 137.707C6.86198 137.276 6.81946 136.684 6.82812 136.315C6.8381 135.893 6.92833 135.409 7.05957 134.906C7.32448 133.891 7.80855 132.598 8.42383 131.154C9.65898 128.256 11.4871 124.603 13.3652 121.034C15.2461 117.46 17.1888 113.952 18.6602 111.338C19.3961 110.03 20.0145 108.945 20.4492 108.188C20.57 107.977 20.6766 107.792 20.7676 107.634C10.3734 96.1265 6 82.7067 6 66C6 30.1015 35.1015 1 71 1Z" stroke="black" stroke-width="2"/>
<path d="M71 3.5C105.518 3.5 133.5 31.4822 133.5 66C133.5 100.518 105.518 128.5 71 128.5C56.1345 128.5 44.5569 125.326 33.9375 116.829L32.9355 116.027L31.9883 116.893H31.9873L31.9727 116.907C31.9619 116.917 31.9452 116.932 31.9238 116.951C31.8808 116.99 31.8171 117.049 31.7334 117.125C31.5657 117.277 31.3188 117.5 31.0039 117.784C30.3739 118.352 29.4708 119.162 28.3809 120.127C26.1998 122.059 23.2743 124.611 20.29 127.098C17.2982 129.591 14.2771 131.993 11.8965 133.642C11.0026 134.26 10.2305 134.75 9.60449 135.095C9.84316 134.311 10.2228 133.31 10.7236 132.135C11.9178 129.333 13.7071 125.751 15.5771 122.198C17.4432 118.653 19.3741 115.166 20.8389 112.563C21.5708 111.263 22.1854 110.184 22.6172 109.432C22.8331 109.055 23.0032 108.76 23.1191 108.56C23.1771 108.459 23.2221 108.383 23.252 108.331C23.2667 108.306 23.2777 108.286 23.2852 108.273C23.2889 108.267 23.2921 108.262 23.2939 108.259C23.2947 108.257 23.2955 108.257 23.2959 108.256L23.2969 108.255C23.297 108.255 23.2965 108.254 22 107.5L23.2969 108.254L23.8545 107.296L23.1016 106.481C12.8511 95.3964 8.5 82.4621 8.5 66C8.5 31.4822 36.4822 3.5 71 3.5Z" fill="#FFCE2F" stroke="white" stroke-width="3"/>
<g filter="url(#filter0_i_275_181)">
<path d="M43.0165 78.9707C43.1116 76.3201 44.0159 71.9749 44.0159 71.9749C44.0159 71.9749 49.3928 80.7543 53.5102 78.9707C57.7861 77.1185 54.5096 71.138 54.5096 66.4782C54.5096 62.0124 55.0172 60.0224 56.5084 55.9844C58.731 49.9658 62.3757 48.0947 65.503 42.4925C68.1027 37.8356 71.4994 30 71.4994 30C71.4994 30 74.749 41.1335 74.4976 48.4889C74.2903 54.5572 67.9837 58.7146 71.4994 63.48C72.5676 64.9277 73.2187 66.2075 74.9973 66.4782C77.468 66.8541 78.2126 64.2054 79.9943 62.4806C82.5918 59.9661 85.9908 55.9844 85.9908 55.9844C85.9908 55.9844 83.6959 62.6616 83.4923 67.4776C83.2886 72.2935 84.9914 79.9701 84.9914 79.9701C89.5089 79.3812 96.9842 71.9749 96.9842 71.9749C96.9842 71.9749 97.8878 76.101 97.9835 78.7516C98.5335 93.979 85.2345 106.266 70.0003 105.955C55.0771 105.65 42.4811 93.8875 43.0165 78.9707Z" fill="#FFBA17"/>
</g>
<path d="M71.6553 27.5049C72.7065 27.5707 73.6043 28.2887 73.8994 29.2998V29.3008C73.8996 29.3014 73.9001 29.3027 73.9004 29.3037C73.901 29.3057 73.9014 29.3083 73.9023 29.3115C73.9043 29.3181 73.9077 29.3271 73.9111 29.3389C73.918 29.3628 73.9278 29.398 73.9404 29.4424C73.9657 29.5311 74.0021 29.6601 74.0479 29.8252C74.1395 30.1558 74.2687 30.6328 74.4229 31.2266C74.7308 32.4132 75.1389 34.0735 75.5391 35.9707C76.2783 39.4756 77.0319 43.9742 77.0107 47.8154L76.9961 48.5742C76.8689 52.2971 74.834 55.5416 73.8506 57.5654C73.2927 58.7135 73.0046 59.5236 72.9463 60.1963C72.8986 60.7461 72.9937 61.2953 73.5107 61.9961L73.9229 62.5664C74.0509 62.747 74.1591 62.9005 74.2666 63.0479C74.4828 63.3443 74.6389 63.538 74.7764 63.6797C74.9855 63.8953 75.1166 63.9678 75.373 64.0068L75.459 64.0127C75.4967 63.9915 75.624 63.9087 75.8623 63.6328C76.1397 63.3117 76.3847 62.9593 76.7998 62.3984C77.1734 61.8936 77.655 61.2662 78.2559 60.6846L78.7275 60.2197C79.8477 59.1013 81.0867 57.7563 82.1055 56.6201C82.6827 55.9763 83.1802 55.4093 83.5332 55.0039C83.7094 54.8015 83.8499 54.64 83.9453 54.5293C83.993 54.474 84.0294 54.4307 84.0537 54.4023L84.0879 54.3633L84.0889 54.3613C84.8685 53.4481 86.1877 53.2181 87.2305 53.8135C88.208 54.3717 88.6839 55.5075 88.418 56.583L88.3555 56.7969L88.3545 56.7979C88.3538 56.7998 88.3523 56.8036 88.3506 56.8086C88.3471 56.8189 88.3415 56.836 88.334 56.8584C88.3189 56.9032 88.2962 56.9716 88.2666 57.0615C88.2072 57.2421 88.1204 57.5091 88.0156 57.8457C87.8056 58.5202 87.5236 59.4698 87.2354 60.5625C86.6842 62.6516 86.1514 65.1218 86.0127 67.1777L85.9902 67.583C85.8996 69.7259 86.2384 72.641 86.6348 75.1377C86.7202 75.6757 86.8064 76.1859 86.8896 76.6543C87.0887 76.5495 87.2978 76.4371 87.5137 76.3115C88.7097 75.6158 89.9657 74.7128 91.1309 73.791C92.2892 72.8746 93.3187 71.9706 94.0605 71.2939C94.4304 70.9566 94.7267 70.6784 94.9277 70.4863C95.028 70.3905 95.1049 70.3166 95.1553 70.2676C95.1805 70.243 95.1992 70.2244 95.2109 70.2129C95.2167 70.2072 95.2203 70.2025 95.2227 70.2002L95.2246 70.1982C95.8723 69.5568 96.8181 69.3189 97.6924 69.5771C98.5668 69.8354 99.2317 70.5498 99.4268 71.4404V71.4414C99.4269 71.4423 99.4274 71.444 99.4277 71.4453C99.4283 71.448 99.4287 71.4516 99.4297 71.4561C99.4317 71.4654 99.4348 71.4791 99.4385 71.4961C99.4458 71.5301 99.4566 71.5793 99.4697 71.6416C99.496 71.7664 99.5334 71.9458 99.5781 72.168C99.6675 72.6121 99.7877 73.2324 99.9111 73.9395C100.152 75.3212 100.427 77.1558 100.481 78.6611L100.499 79.4463C100.629 95.6195 86.6678 108.375 70.7227 108.46L69.9492 108.454C53.8181 108.125 39.9267 95.3731 40.5186 78.8809L40.5479 78.3027C40.6397 76.9176 40.8757 75.3167 41.0859 74.0645C41.2089 73.3322 41.329 72.6867 41.418 72.2236C41.4625 71.9917 41.4992 71.804 41.5254 71.6738C41.5384 71.6092 41.5494 71.5586 41.5566 71.5234C41.5602 71.5061 41.5625 71.492 41.5645 71.4824L41.5684 71.4668V71.4658L41.6143 71.2803C41.8779 70.3675 42.641 69.6764 43.5879 69.5117C44.5972 69.3363 45.6109 69.7948 46.1465 70.668V70.667L46.1475 70.668C46.1485 70.6697 46.1507 70.6739 46.1543 70.6797C46.1615 70.6912 46.1737 70.7109 46.1904 70.7373C46.224 70.7905 46.2763 70.8726 46.3457 70.9785C46.4851 71.1912 46.6923 71.499 46.9541 71.8652C47.4829 72.605 48.2117 73.5501 49.0381 74.4268C49.8862 75.3264 50.7253 76.0328 51.458 76.4199C52.1872 76.8051 52.4564 76.7029 52.5166 76.6768L52.6572 76.6094C52.954 76.4533 53.0339 76.2992 53.0957 76.1113C53.215 75.7487 53.2604 75.126 53.1318 74.083C53.0034 73.041 52.7598 71.9549 52.5 70.6094C52.257 69.3507 52.0098 67.901 52.0098 66.4785C52.0098 64.1481 52.1422 62.3565 52.499 60.5791C52.8524 58.819 53.4087 57.161 54.1631 55.1182L54.4033 54.4961C55.6249 51.4491 57.1874 49.3757 58.7354 47.4941C60.3855 45.4884 61.894 43.8294 63.3203 41.2744L63.7979 40.3984C64.9324 38.2789 66.1835 35.6664 67.207 33.4512C67.7879 32.1941 68.2882 31.0803 68.6436 30.2812C68.8211 29.882 68.9622 29.5616 69.0586 29.3418C69.1068 29.2319 69.1441 29.1467 69.1689 29.0898C69.1812 29.0616 69.1911 29.0405 69.1973 29.0264C69.2003 29.0193 69.2026 29.0132 69.2041 29.0098C69.2046 29.0086 69.2048 29.0075 69.2051 29.0068L69.2061 29.0059L69.291 28.8291C69.7476 27.9672 70.6698 27.4433 71.6553 27.5049Z" stroke="white" stroke-width="5" stroke-linejoin="round"/>
<g filter="url(#filter1_i_275_181)">
<path d="M43.0165 78.9707C43.1116 76.3201 44 72 44 72C44 72 49.3928 80.7543 53.5102 78.9707C57.7861 77.1185 54.5096 71.138 54.5096 66.4782C54.5096 62.0124 55.0172 60.0224 56.5084 55.9844C58.731 49.9658 62.3757 48.0947 65.503 42.4925C68.1027 37.8356 71.4994 30 71.4994 30C71.4994 30 74.749 41.1335 74.4976 48.4889C74.2903 54.5572 67.9843 58.7346 71.5 63.5C72.5681 64.9478 73.2213 66.2294 75 66.5C77.4706 66.8759 78.7514 63.8729 80 62C82 59 86 56 86 56C86 56 83.7037 62.6841 83.5 67.5C83.2963 72.3159 84.9914 79.9701 84.9914 79.9701C89.5089 79.3812 96.9842 71.9749 96.9842 71.9749C96.9842 71.9749 97.8878 76.101 97.9835 78.7516C98.5335 93.979 85.2345 106.266 70.0003 105.955C55.0771 105.65 42.4811 93.8875 43.0165 78.9707Z" fill="#FFBA17"/>
</g>
<path d="M71.5615 29.002C71.982 29.0283 72.3409 29.3154 72.459 29.7197L72.46 29.7207V29.7227C72.4604 29.7243 72.4611 29.7266 72.4619 29.7295C72.4636 29.7354 72.4665 29.7438 72.4697 29.7549C72.4762 29.7772 72.4859 29.8099 72.498 29.8525C72.5224 29.938 72.5577 30.0638 72.6025 30.2256C72.6922 30.5491 72.8188 31.0183 72.9707 31.6035C73.2743 32.7734 73.6769 34.4106 74.0713 36.2803C74.8063 39.7651 75.5303 44.1323 75.5107 47.7998L75.4971 48.5234C75.3839 51.8322 73.5941 54.6687 72.5029 56.9189C71.9309 58.0987 71.5355 59.1198 71.4521 60.084C71.3731 60.999 71.5709 61.9116 72.3047 62.9062L73.0762 63.9707C73.748 64.8866 74.1998 65.3671 75.1504 65.5117L75.2842 65.5264C75.9499 65.577 76.5372 65.2327 77.1914 64.4512C77.5367 64.0386 77.8611 63.5491 78.1895 63.0195C78.5024 62.5149 78.8445 61.9305 79.168 61.4453L79.374 61.1445C80.4335 59.6454 81.8919 58.202 83.0811 57.1318C83.722 56.555 84.2989 56.0741 84.7158 55.7373C84.9242 55.569 85.0931 55.4362 85.2109 55.3447C85.2699 55.299 85.3167 55.2636 85.3486 55.2393C85.3645 55.2271 85.3771 55.2175 85.3857 55.2109C85.39 55.2077 85.3931 55.2049 85.3955 55.2031C85.3967 55.2023 85.3977 55.2017 85.3984 55.2012L85.3994 55.2002C85.3995 55.2001 85.4 55.2 86 56L85.4004 55.2002C85.7517 54.9368 86.2339 54.9331 86.5889 55.1914C86.8994 55.4176 87.0494 55.7982 86.9863 56.168L86.9453 56.3252C86.9451 56.3258 86.9448 56.3268 86.9443 56.3281C86.9434 56.3308 86.9423 56.3352 86.9404 56.3408C86.9364 56.3526 86.93 56.3715 86.9219 56.3955C86.9057 56.4436 86.8814 56.5158 86.8506 56.6094C86.7889 56.797 86.7002 57.0719 86.5928 57.417C86.3776 58.1082 86.0882 59.0799 85.793 60.1992C85.2351 62.3142 84.6718 64.899 84.5234 67.1064L84.499 67.542C84.4017 69.8442 84.7605 72.8792 85.1572 75.3848C85.354 76.6275 85.557 77.7221 85.7109 78.5059C85.7289 78.5974 85.7471 78.6848 85.7637 78.7676C86.5101 78.5332 87.36 78.1369 88.2686 77.6084C89.5486 76.8639 90.8654 75.914 92.0615 74.9678C93.2548 74.0237 94.3117 73.0951 95.0713 72.4023C95.4506 72.0564 95.7555 71.7703 95.9639 71.5713C96.0678 71.472 96.1475 71.394 96.2012 71.3418C96.2279 71.3158 96.2485 71.2962 96.2617 71.2832C96.2683 71.2768 96.2733 71.2716 96.2764 71.2686C96.2779 71.267 96.2786 71.2653 96.2793 71.2646H96.2803C96.5393 71.008 96.9178 70.9123 97.2676 71.0156C97.6172 71.1189 97.8829 71.4046 97.9609 71.7607V71.7617C97.9611 71.7623 97.9617 71.7636 97.9619 71.7646C97.9624 71.7669 97.963 71.7703 97.9639 71.7744C97.9657 71.7829 97.9682 71.7955 97.9717 71.8115C97.9786 71.8436 97.9892 71.8908 98.002 71.9512C98.0274 72.0719 98.0637 72.2466 98.1074 72.4639C98.1949 72.8984 98.3119 73.5057 98.4326 74.1973C98.6718 75.5677 98.932 77.3185 98.9824 78.7158L98.999 79.457C99.1207 94.7222 85.9127 106.879 70.7168 106.96L69.9795 106.954C54.5733 106.639 41.4596 94.4814 42.0176 78.9346L42.0449 78.3945C42.1305 77.0977 42.3521 75.5677 42.5576 74.3281C42.6761 73.6133 42.7911 72.9824 42.877 72.5303C42.9199 72.3041 42.9555 72.1218 42.9805 71.9961C42.993 71.9332 43.003 71.884 43.0098 71.8506C43.0131 71.834 43.0158 71.8212 43.0176 71.8125C43.0184 71.8083 43.0191 71.8051 43.0195 71.8027C43.0198 71.8016 43.0204 71.8005 43.0205 71.7998V71.7988L43.0625 71.6523C43.1845 71.3231 43.473 71.078 43.8262 71.0156C44.2299 70.9444 44.6365 71.1265 44.8516 71.4756L44.8535 71.4785C44.8555 71.4817 44.8588 71.4879 44.8633 71.4951C44.8723 71.5096 44.8865 71.532 44.9053 71.5615C44.943 71.6209 44.9998 71.7094 45.0742 71.8223C45.2234 72.0485 45.4429 72.3721 45.7188 72.7559C46.2728 73.5266 47.0464 74.5276 47.9365 75.4668C48.8352 76.415 49.8075 77.2527 50.752 77.749C51.6952 78.2446 52.4696 78.3311 53.1123 78.0527L53.3965 77.915C54.0159 77.5764 54.3414 77.1246 54.5205 76.5801C54.7447 75.8987 54.7579 75.0093 54.6211 73.8994C54.4843 72.7899 54.2208 71.6103 53.9727 70.3252C53.7312 69.0749 53.5098 67.7464 53.5098 66.4785C53.5098 64.2066 53.639 62.5213 53.9697 60.874C54.2991 59.2338 54.8212 57.6662 55.5703 55.6377L55.7939 55.0576C56.9322 52.2168 58.3866 50.2801 59.8945 48.4473C61.5025 46.4927 63.1211 44.7076 64.6299 42.0049L65.1182 41.1104C66.2763 38.9471 67.5425 36.3002 68.5684 34.0801C69.1529 32.815 69.6571 31.6946 70.0146 30.8906C70.1933 30.4889 70.3353 30.1662 70.4326 29.9443C70.4813 29.8334 70.5187 29.7473 70.5439 29.6895C70.5565 29.6606 70.5659 29.6387 70.5723 29.624C70.5755 29.6167 70.5785 29.6111 70.5801 29.6074C70.5808 29.6058 70.5807 29.6044 70.5811 29.6035L70.582 29.6025L70.6553 29.4648C70.8482 29.1603 71.1937 28.9791 71.5615 29.002Z" stroke="black" stroke-width="2" stroke-linejoin="round"/>
<defs>
<filter id="filter0_i_275_181" x="36.9996" y="24.9999" width="66.0007" height="86.9603" filterUnits="userSpaceOnUse" color-interpolation-filters="sRGB">
<feFlood flood-opacity="0" result="BackgroundImageFix"/>
<feBlend mode="normal" in="SourceGraphic" in2="BackgroundImageFix" result="shape"/>
<feColorMatrix in="SourceAlpha" type="matrix" values="0 0 0 0 0 0 0 0 0 0 0 0 0 0 0 0 0 0 127 0" result="hardAlpha"/>
<feOffset dx="-3" dy="4"/>
<feGaussianBlur stdDeviation="0.5"/>
<feComposite in2="hardAlpha" operator="arithmetic" k2="-1" k3="1"/>
<feColorMatrix type="matrix" values="0 0 0 0 0.875 0 0 0 0 0 0 0 0 0 0 0 0 0 0.25 0"/>
<feBlend mode="normal" in2="shape" result="effect1_innerShadow_275_181"/>
</filter>
<filter id="filter1_i_275_181" x="39.9999" y="28" width="60.0002" height="80.9603" filterUnits="userSpaceOnUse" color-interpolation-filters="sRGB">
<feFlood flood-opacity="0" result="BackgroundImageFix"/>
<feBlend mode="normal" in="SourceGraphic" in2="BackgroundImageFix" result="shape"/>
<feColorMatrix in="SourceAlpha" type="matrix" values="0 0 0 0 0 0 0 0 0 0 0 0 0 0 0 0 0 0 127 0" result="hardAlpha"/>
<feOffset dx="-3" dy="4"/>
<feGaussianBlur stdDeviation="0.5"/>
<feComposite in2="hardAlpha" operator="arithmetic" k2="-1" k3="1"/>
<feColorMatrix type="matrix" values="0 0 0 0 0.875 0 0 0 0 0 0 0 0 0 0 0 0 0 0.25 0"/>
<feBlend mode="normal" in2="shape" result="effect1_innerShadow_275_181"/>
</filter>
</defs>
</svg>
