<svg width="140" height="140" viewBox="0 0 140 140" fill="none" xmlns="http://www.w3.org/2000/svg">
<path d="M71 1C106.899 1 136 30.1015 136 66C136 101.899 106.899 131 71 131C56.0255 131 44.0339 127.845 33.0469 119.307C32.9367 119.406 32.814 119.519 32.6777 119.642C32.0431 120.214 31.1343 121.028 30.0381 121.999C27.8464 123.94 24.901 126.51 21.8906 129.019C18.8853 131.523 15.7947 133.984 13.3193 135.697C12.0879 136.55 10.9697 137.245 10.0713 137.664C9.62812 137.871 9.18022 138.038 8.7666 138.104C8.39071 138.163 7.76482 138.179 7.29297 137.707C6.86198 137.276 6.81946 136.684 6.82812 136.315C6.8381 135.893 6.92833 135.409 7.05957 134.906C7.32448 133.891 7.80855 132.598 8.42383 131.154C9.65898 128.256 11.4871 124.603 13.3652 121.034C15.2461 117.46 17.1888 113.952 18.6602 111.338C19.3961 110.03 20.0145 108.945 20.4492 108.188C20.57 107.977 20.6766 107.792 20.7676 107.634C10.3734 96.1265 6 82.7067 6 66C6 30.1015 35.1015 1 71 1Z" stroke="black" stroke-width="2"/>
<path d="M71 3.5C105.518 3.5 133.5 31.4822 133.5 66C133.5 100.518 105.518 128.5 71 128.5C56.1345 128.5 44.5569 125.326 33.9375 116.829L32.9355 116.027L31.9883 116.893H31.9873L31.9727 116.907C31.9619 116.917 31.9452 116.932 31.9238 116.951C31.8808 116.99 31.8171 117.049 31.7334 117.125C31.5657 117.277 31.3188 117.5 31.0039 117.784C30.3739 118.352 29.4708 119.162 28.3809 120.127C26.1998 122.059 23.2743 124.611 20.29 127.098C17.2982 129.591 14.2771 131.993 11.8965 133.642C11.0026 134.26 10.2305 134.75 9.60449 135.095C9.84316 134.311 10.2228 133.31 10.7236 132.135C11.9178 129.333 13.7071 125.751 15.5771 122.198C17.4432 118.653 19.3741 115.166 20.8389 112.563C21.5708 111.263 22.1854 110.184 22.6172 109.432C22.8331 109.055 23.0032 108.76 23.1191 108.56C23.1771 108.459 23.2221 108.383 23.252 108.331C23.2667 108.306 23.2777 108.286 23.2852 108.273C23.2889 108.267 23.2921 108.262 23.2939 108.259C23.2947 108.257 23.2955 108.257 23.2959 108.256L23.2969 108.255C23.297 108.255 23.2965 108.254 22 107.5L23.2969 108.254L23.8545 107.296L23.1016 106.481C12.8511 95.3964 8.5 82.4621 8.5 66C8.5 31.4822 36.4822 3.5 71 3.5Z" fill="#FFCE2F" stroke="white" stroke-width="3"/>
<path d="M78.4092 76.5049C79.4605 76.5707 80.3582 77.2887 80.6533 78.2998V78.3018C80.6536 78.3028 80.6549 78.3042 80.6553 78.3057C80.6561 78.3086 80.6569 78.3127 80.6582 78.3174C80.6609 78.3269 80.6643 78.3402 80.6689 78.3564C80.6782 78.3889 80.6911 78.4346 80.707 78.4922C80.739 78.6075 80.7844 78.7711 80.8369 78.9736C80.9418 79.3778 81.0804 79.9429 81.2168 80.5898C81.4616 81.7503 81.7392 83.359 81.7305 84.8018L81.7246 85.0879C81.7225 85.1487 81.7169 85.209 81.7129 85.2686C82.4642 84.8372 83.4094 84.8159 84.1973 85.2656C85.24 85.861 85.7125 87.1135 85.3223 88.249C85.3216 88.2509 85.3209 88.2543 85.3193 88.2588C85.3156 88.2698 85.3091 88.2882 85.3008 88.3135C85.284 88.3644 85.2587 88.443 85.2275 88.543C85.165 88.7439 85.0801 89.0277 84.9941 89.3535C84.8481 89.9073 84.7271 90.4782 84.6729 90.9424C84.6798 90.9357 84.6871 90.9298 84.6934 90.9238C84.7218 90.8967 84.7432 90.8766 84.7559 90.8643L84.7695 90.8506C85.4171 90.2102 86.3618 89.9725 87.2354 90.2305C88.1098 90.4888 88.7747 91.2031 88.9697 92.0938V92.0967C88.97 92.098 88.9712 92.0996 88.9717 92.1016C88.9725 92.1055 88.9732 92.1108 88.9746 92.1172C88.9774 92.1302 88.9816 92.1485 88.9863 92.1709C88.9958 92.216 89.0088 92.2797 89.0244 92.3574C89.0556 92.5124 89.0975 92.7285 89.1406 92.9756C89.2212 93.4371 89.3285 94.1278 89.3506 94.7383L89.3564 95.043C89.4073 101.215 84.1993 105.975 78.2979 106.157L77.7148 106.16C71.662 106.036 66.2765 101.228 66.5068 94.8096L66.5371 94.3428C66.5797 93.8675 66.6543 93.3825 66.7139 93.0273C66.7564 92.7737 66.7974 92.5507 66.8281 92.3906C66.8436 92.3103 66.8569 92.2446 66.8662 92.1982C66.8709 92.175 66.8742 92.1559 66.877 92.1426C66.8783 92.1361 66.88 92.1309 66.8809 92.127C66.8813 92.125 66.8816 92.1234 66.8818 92.1221V92.1191L66.9287 91.9336C67.1924 91.0209 67.9546 90.3297 68.9014 90.165C69.3638 90.0846 69.8271 90.1382 70.2451 90.3027C70.2635 89.7028 70.3163 89.1558 70.4287 88.5957C70.5705 87.8895 70.7901 87.2497 71.041 86.5703L71.2363 86.082C71.7106 84.99 72.2944 84.2289 72.8057 83.6074C73.3887 82.8987 73.7527 82.5011 74.123 81.8379L74.416 81.291C74.7185 80.7063 75.0446 80.0236 75.3271 79.4121C75.5115 79.0131 75.6703 78.6591 75.7832 78.4053C75.8395 78.2788 75.8838 78.1774 75.9141 78.1084C75.9292 78.074 75.9416 78.0477 75.9492 78.0303C75.953 78.0216 75.9553 78.0148 75.957 78.0107C75.9578 78.009 75.9586 78.0077 75.959 78.0068V78.0059L76.0439 77.8291C76.5006 76.9669 77.4235 76.4432 78.4092 76.5049Z" fill="#FFBA17" stroke="white" stroke-width="5" stroke-linejoin="round"/>
<g filter="url(#filter0_i_275_181)">
<path d="M69.0053 95.2372C69.0362 94.3766 69.3298 92.9658 69.3298 92.9658C69.3298 92.9658 71.0756 95.8162 72.4124 95.2372C73.8007 94.6358 72.7369 92.6941 72.7369 91.1811C72.7369 89.7312 72.9017 89.0851 73.3858 87.7741C74.1075 85.82 75.2908 85.2125 76.3062 83.3936C77.1502 81.8816 78.2531 79.3376 78.2531 79.3376C78.2531 79.3376 79.3081 82.9524 79.2265 85.3405C79.1592 87.3107 77.1116 88.6605 78.2531 90.2077C78.5999 90.6778 78.8113 91.0933 79.3887 91.1811C80.1909 91.3032 80.4327 90.4432 81.0112 89.8832C81.8545 89.0668 82.958 87.7741 82.958 87.7741C82.958 87.7741 82.213 89.942 82.1468 91.5056C82.0807 93.0692 82.6336 95.5616 82.6336 95.5616C84.1003 95.3704 86.5273 92.9658 86.5273 92.9658C86.5273 92.9658 86.8207 94.3054 86.8518 95.166C87.0304 100.11 82.7125 104.099 77.7663 103.998C72.9211 103.899 68.8315 100.08 69.0053 95.2372Z" fill="#FFBA17"/>
</g>
<path d="M70.1816 92.4431L70.1953 92.4636C70.2057 92.48 70.2223 92.5055 70.2441 92.5388C70.2882 92.606 70.3542 92.7044 70.4375 92.821C70.6062 93.0569 70.8372 93.3563 71.0977 93.6325C71.3669 93.9181 71.6225 94.1311 71.834 94.2429C71.9404 94.2991 71.9994 94.3109 72.0244 94.3132C72.0988 94.2796 72.0928 94.2674 72.0986 94.2497C72.1242 94.172 72.1432 94.0035 72.1025 93.6735C72.0619 93.3437 71.9852 93.0027 71.8994 92.5583C71.8203 92.1486 71.7373 91.6626 71.7373 91.1813C71.7373 90.4173 71.7803 89.8217 71.8994 89.2282C72.0172 88.6419 72.2027 88.0923 72.4482 87.4274L72.6104 87.0212C73.004 86.1132 73.4901 85.474 73.9639 84.8981C74.5049 84.2405 74.9798 83.717 75.4326 82.9059L75.7451 82.3229C76.0658 81.7033 76.4039 80.9955 76.6885 80.3796C76.8766 79.9724 77.0392 79.6111 77.1543 79.3522C77.2117 79.2232 77.2569 79.1196 77.2881 79.0485C77.3037 79.013 77.3162 78.9848 77.3242 78.9665C77.3281 78.9576 77.3311 78.9504 77.333 78.946C77.3339 78.9439 77.3345 78.9421 77.335 78.9411L77.3359 78.9401L77.4082 78.8024C77.6012 78.4976 77.9473 78.3165 78.3154 78.3395C78.7359 78.3659 79.0948 78.6529 79.2129 79.0573V79.0583L79.2139 79.0593V79.0612C79.2145 79.0635 79.2157 79.067 79.2168 79.071C79.2191 79.0789 79.2224 79.0906 79.2266 79.1052C79.2349 79.1343 79.2468 79.1764 79.2617 79.2302C79.2917 79.3384 79.3345 79.4944 79.3848 79.6882C79.4853 80.0755 79.6184 80.6176 79.749 81.237C79.9735 82.3013 80.2044 83.6589 80.2285 84.8669L80.2256 85.3747C80.1825 86.6353 79.4913 87.7406 79.1855 88.3698C79.0062 88.7388 78.9259 88.9758 78.9102 89.1579C78.8986 89.2908 78.9171 89.4234 79.0576 89.614L79.1934 89.8024C79.2353 89.8615 79.2697 89.9101 79.3037 89.9567C79.372 90.0504 79.4167 90.1048 79.4521 90.1413C79.4683 90.158 79.4807 90.1675 79.4883 90.1735C79.4988 90.1625 79.5131 90.1509 79.5273 90.1345C79.6112 90.0374 79.6834 89.9324 79.8223 89.7448C79.9447 89.5794 80.1087 89.3649 80.3154 89.1647L80.623 88.8581C80.9393 88.5344 81.2736 88.1709 81.5566 87.8552C81.7434 87.6469 81.9044 87.4628 82.0186 87.3317C82.0754 87.2664 82.1207 87.2141 82.1514 87.1784C82.1666 87.1607 82.1787 87.1474 82.1865 87.1384C82.1904 87.1338 82.1934 87.1298 82.1953 87.1276C82.1961 87.1267 82.1969 87.1261 82.1973 87.1257V87.1247L82.2588 87.0593C82.5752 86.7493 83.0632 86.6828 83.4541 86.9059C83.8449 87.1293 84.035 87.5833 83.9287 88.0134L83.9033 88.0993C83.9031 88.0999 83.9028 88.1009 83.9023 88.1022C83.9013 88.1054 83.8998 88.1108 83.8975 88.1179C83.8927 88.132 83.8854 88.1537 83.876 88.1823C83.857 88.2401 83.8286 88.326 83.7949 88.4343C83.7274 88.6512 83.6367 88.9568 83.5439 89.3083C83.354 90.0285 83.1739 90.8768 83.1455 91.5475C83.1169 92.2233 83.2251 93.1548 83.3535 93.9636C83.3658 94.0411 83.3793 94.1166 83.3916 94.1901C83.7592 93.9732 84.1467 93.6951 84.5098 93.4079C84.8815 93.1138 85.2125 92.8228 85.4512 92.6052C85.57 92.4968 85.6651 92.4078 85.7295 92.3464C85.7617 92.3157 85.7858 92.2916 85.8018 92.2761C85.8096 92.2684 85.8157 92.263 85.8193 92.2595L85.8232 92.2556C86.0823 91.9989 86.4608 91.9033 86.8105 92.0065C87.1602 92.1098 87.4258 92.3955 87.5039 92.7516V92.7526L87.5049 92.7536C87.5051 92.7545 87.5055 92.7559 87.5059 92.7575C87.5065 92.7607 87.5066 92.7656 87.5078 92.7712C87.5102 92.7824 87.5143 92.7987 87.5186 92.819C87.5272 92.86 87.5391 92.9185 87.5537 92.9909C87.583 93.1363 87.6227 93.3395 87.6631 93.571C87.7416 94.021 87.8334 94.6273 87.8516 95.1296L87.8555 95.6491C87.7526 100.804 83.3358 104.838 78.2559 104.995L77.7461 104.998C72.4177 104.889 67.8094 100.674 68.0059 95.2009L68.0322 94.8073C68.069 94.3996 68.1348 93.9621 68.1934 93.613C68.2336 93.3735 68.2727 93.1618 68.3018 93.0104C68.3163 92.9348 68.3284 92.8734 68.3369 92.8307C68.3412 92.8096 68.3443 92.7925 68.3467 92.7809C68.3478 92.7753 68.349 92.7704 68.3496 92.7673C68.3499 92.7658 68.3504 92.7642 68.3506 92.7634V92.7624L68.3926 92.6159C68.5153 92.2868 68.8048 92.0417 69.1582 91.9802C69.5621 91.9099 69.9684 92.0936 70.1826 92.4431H70.1816Z" stroke="black" stroke-width="2" stroke-linejoin="round"/>
<path d="M67.374 33.5049C68.4253 33.5707 69.323 34.2887 69.6182 35.2998V35.3018C69.6184 35.3026 69.6188 35.3037 69.6191 35.3047C69.6198 35.3071 69.621 35.3108 69.6221 35.3145C69.6241 35.3216 69.6266 35.3312 69.6299 35.3428C69.6366 35.3663 69.646 35.3989 69.6572 35.4395C69.6798 35.5208 69.7115 35.6355 69.748 35.7764C69.8209 36.0571 69.9169 36.4496 70.0117 36.8994C70.1404 37.5096 70.2888 38.3355 70.3477 39.1699C70.7814 39.1641 71.2205 39.2705 71.6191 39.498C72.6608 40.0929 73.1333 41.3439 72.7451 42.4785L72.7432 42.4834C72.7413 42.489 72.7383 42.4997 72.7334 42.5146C72.7234 42.5451 72.707 42.5937 72.6875 42.6562C72.6871 42.6576 72.686 42.6588 72.6855 42.6602C72.9522 42.6502 73.2225 42.6828 73.4863 42.7607C74.3607 43.019 75.0256 43.7325 75.2207 44.623L72.7783 45.1582L75.2207 44.624V44.626C75.2209 44.627 75.2214 44.6285 75.2217 44.6299C75.2224 44.6331 75.2235 44.6377 75.2246 44.6426C75.2267 44.6524 75.23 44.6654 75.2334 44.6816C75.2403 44.7142 75.2497 44.7594 75.2607 44.8145C75.2828 44.9238 75.3123 45.0765 75.3428 45.251C75.398 45.5674 75.4782 46.0777 75.4951 46.5469L75.499 47.002C75.4113 51.5252 71.5685 54.9364 67.2715 55.0693L66.8398 55.0713C62.376 54.9801 58.3315 51.4248 58.5049 46.5947L58.5283 46.2412C58.5601 45.8849 58.6147 45.533 58.6553 45.291C58.6852 45.1128 58.7138 44.9561 58.7354 44.8438C58.7462 44.7875 58.7551 44.7412 58.7617 44.708C58.765 44.6915 58.7685 44.6778 58.7705 44.668C58.7715 44.663 58.7718 44.6584 58.7725 44.6553C58.7728 44.6538 58.7732 44.6525 58.7734 44.6514V44.6504L58.7744 44.6494C58.7816 44.6508 58.9072 44.6765 61.1094 45.1348L58.7744 44.6484C58.9834 43.6451 59.7833 42.8711 60.793 42.6953C60.8925 42.678 60.9926 42.6673 61.0918 42.6621C61.1096 42.5379 61.1309 42.4132 61.1562 42.2871C61.2647 41.7471 61.4311 41.268 61.6025 40.8037L61.752 40.4297C62.1147 39.5956 62.5598 39.0176 62.9238 38.5752C63.3388 38.0708 63.5227 37.8721 63.7266 37.5068L63.9121 37.1602C64.1054 36.7863 64.3181 36.3421 64.5068 35.9336C64.6288 35.6696 64.7349 35.4345 64.8096 35.2666C64.8467 35.1831 64.8757 35.1164 64.8955 35.0713C64.9054 35.0487 64.9131 35.0317 64.918 35.0205C64.9202 35.0153 64.9218 35.0113 64.9229 35.0088L64.9238 35.0059C65.3427 34.0395 66.3228 33.4392 67.374 33.5049Z" fill="#FFBA17" stroke="white" stroke-width="5" stroke-linejoin="round"/>
<g filter="url(#filter1_i_275_181)">
<path d="M61.0036 46.6845C61.0243 46.1062 61.2216 45.1582 61.2216 45.1582C61.2216 45.1582 62.3948 47.0737 63.2931 46.6845C64.2261 46.2804 63.5112 44.9756 63.5112 43.9589C63.5112 42.9845 63.6219 42.5503 63.9473 41.6693C64.4322 40.3562 65.2274 39.9479 65.9097 38.7256C66.477 37.7096 67.2181 36 67.2181 36C67.2181 36 67.927 38.4291 67.8722 40.0339C67.827 41.3579 66.451 42.265 67.2181 43.3047C67.4511 43.6206 67.5932 43.8998 67.9812 43.9589C68.5203 44.0409 68.6827 43.463 69.0715 43.0867C69.6382 42.5381 70.3798 41.6693 70.3798 41.6693C70.3798 41.6693 69.8791 43.1262 69.8347 44.1769C69.7902 45.2277 70.1617 46.9026 70.1617 46.9026C71.1474 46.7741 72.7784 45.1582 72.7784 45.1582C72.7784 45.1582 72.9755 46.0584 72.9964 46.6367C73.1164 49.9591 70.2148 52.6398 66.891 52.5719C63.635 52.5054 60.8868 49.9391 61.0036 46.6845Z" fill="#FFBA17"/>
</g>
<path d="M67.2803 35.002C67.7007 35.0283 68.0596 35.3154 68.1777 35.7197V35.7207H68.1787V35.7227C68.1792 35.7243 68.1799 35.7269 68.1807 35.7295C68.1823 35.7352 68.1846 35.7437 68.1875 35.7539C68.1933 35.7743 68.2016 35.8037 68.2119 35.8408C68.2325 35.9151 68.2616 36.0213 68.2959 36.1533C68.3644 36.4173 68.4549 36.7867 68.5439 37.209C68.6957 37.9283 68.8574 38.8659 68.874 39.7119L68.8721 40.0684C68.84 41.0058 68.3215 41.8386 68.1396 42.2129C68.0222 42.4545 67.9915 42.5688 67.9863 42.6279C67.9853 42.6378 67.9762 42.6482 68.0225 42.7109L68.0479 42.7461C68.1295 42.6378 68.2396 42.5002 68.376 42.3682L68.7871 41.9482C68.9276 41.7989 69.0674 41.6454 69.1934 41.5049C69.3175 41.3664 69.4251 41.2444 69.501 41.1572C69.5389 41.1137 69.5685 41.0783 69.5889 41.0547C69.599 41.0429 69.6072 41.0342 69.6123 41.0283C69.6148 41.0254 69.617 41.0229 69.6182 41.0215L69.6191 41.0205L69.6797 40.9551C69.9961 40.6445 70.4848 40.5774 70.876 40.8008C71.267 41.0242 71.4572 41.4789 71.3506 41.9092L71.3252 41.9941V41.9961C71.3246 41.9979 71.3236 42.0009 71.3223 42.0049C71.3193 42.0137 71.3147 42.0282 71.3086 42.0469C71.2963 42.0842 71.2779 42.1402 71.2559 42.2109C71.2116 42.3532 71.1516 42.5536 71.0908 42.7842C70.9961 43.1431 70.9084 43.5379 70.8633 43.8877L70.834 44.2188C70.8201 44.548 70.8583 44.9878 70.917 45.4229C71.0173 45.3505 71.1198 45.2765 71.2188 45.1982C71.4608 45.0068 71.6775 44.8166 71.834 44.6738C71.9117 44.6029 71.974 44.5447 72.0156 44.5049C72.0364 44.485 72.0525 44.4697 72.0625 44.46L72.0752 44.4473C72.3342 44.191 72.7121 44.096 73.0615 44.1992C73.4113 44.3025 73.6769 44.5881 73.7549 44.9443L73.7559 44.9453C73.756 44.946 73.7556 44.9473 73.7559 44.9482C73.7564 44.9505 73.757 44.9541 73.7578 44.958C73.7595 44.9659 73.7626 44.9771 73.7656 44.9912C73.7716 45.0197 73.78 45.0604 73.79 45.1104C73.8101 45.2102 73.8365 45.3498 73.8643 45.5088C73.9175 45.8137 73.983 46.2394 73.9961 46.6006L73.999 46.9688C73.9265 50.623 70.8015 53.4588 67.2295 53.5693L66.8701 53.5713C63.1312 53.4947 59.8645 50.533 60.0039 46.6484L60.0225 46.3682C60.0484 46.0794 60.0942 45.775 60.1338 45.5391C60.1613 45.3752 60.1881 45.2306 60.208 45.127C60.218 45.075 60.2265 45.0324 60.2324 45.0029C60.2353 44.9884 60.2376 44.9769 60.2393 44.9688C60.2401 44.9647 60.2417 44.9613 60.2422 44.959V44.9541L60.2852 44.8086C60.4079 44.4794 60.6973 44.2343 61.0508 44.1729C61.4041 44.1116 61.7588 44.2444 61.9854 44.5127L62.0742 44.6357C62.0753 44.6374 62.0772 44.6409 62.0801 44.6455C62.0862 44.6552 62.0967 44.6706 62.1104 44.6914C62.1379 44.7335 62.1794 44.7959 62.2324 44.8701C62.3406 45.0214 62.4869 45.2095 62.6484 45.3809C62.6738 45.4077 62.6996 45.4322 62.7236 45.4561C62.6977 45.3116 62.6655 45.151 62.626 44.9463C62.5725 44.6692 62.5108 44.3161 62.5107 43.959C62.5107 43.4328 62.5412 43.0093 62.627 42.582C62.7113 42.162 62.8427 41.773 63.0088 41.3232L63.126 41.0322C63.4081 40.3818 63.7555 39.9253 64.082 39.5283C64.4548 39.0752 64.7499 38.7509 65.0361 38.2383L65.2422 37.8545C65.4538 37.4457 65.6783 36.9755 65.8691 36.5625C65.9947 36.2907 66.1028 36.0498 66.1797 35.877C66.2181 35.7906 66.2488 35.7211 66.2695 35.6738C66.2798 35.6503 66.2877 35.6322 66.293 35.6201C66.2956 35.6141 66.2975 35.6094 66.2988 35.6064C66.2993 35.6053 66.2995 35.6042 66.2998 35.6035L66.3008 35.6025L66.373 35.4648C66.566 35.16 66.9122 34.979 67.2803 35.002Z" stroke="black" stroke-width="2" stroke-linejoin="round"/>
<path d="M105.927 48.5049C106.982 48.5703 107.882 49.2926 108.175 50.3086V50.3096L108.176 50.3105C108.176 50.3115 108.176 50.3131 108.177 50.3145C108.178 50.3172 108.179 50.3211 108.18 50.3252C108.182 50.3335 108.186 50.3446 108.189 50.3584C108.197 50.3867 108.208 50.4268 108.222 50.4766C108.249 50.5764 108.287 50.718 108.332 50.8926C108.421 51.2405 108.538 51.727 108.654 52.2842C108.851 53.2307 109.077 54.5466 109.091 55.7656C109.702 55.6057 110.369 55.6772 110.952 56.0059C111.934 56.5592 112.416 57.6939 112.154 58.7715L112.093 58.9863V58.9844C112.092 58.9854 112.091 58.988 112.09 58.9922C112.087 59.0008 112.083 59.0163 112.076 59.0371C112.063 59.0789 112.041 59.1435 112.016 59.2266C111.964 59.3939 111.895 59.6309 111.824 59.9023C111.788 60.0401 111.755 60.1782 111.724 60.3135C112.252 60.0829 112.855 60.0373 113.427 60.2051C114.306 60.4629 114.974 61.1809 115.167 62.0762L112.723 62.6045L115.167 62.0771V62.0791L115.171 62.0986C115.173 62.1102 115.177 62.126 115.181 62.1455C115.189 62.1848 115.201 62.2394 115.214 62.3066C115.24 62.4407 115.277 62.628 115.313 62.8418C115.382 63.2374 115.475 63.8446 115.494 64.3887L115.498 64.9248C115.395 70.241 110.922 74.3358 105.824 74.4951L105.312 74.498C100.001 74.3879 95.3054 70.1169 95.5059 64.4502L95.5322 64.0361C95.5692 63.6162 95.6343 63.1926 95.6846 62.8887C95.7209 62.6693 95.756 62.4762 95.7822 62.3379C95.7954 62.2684 95.8065 62.2112 95.8145 62.1709C95.8184 62.1509 95.8219 62.1347 95.8242 62.123C95.8253 62.1176 95.8255 62.1129 95.8262 62.1094C95.8265 62.1076 95.8269 62.1057 95.8271 62.1045L95.8281 62.1025V62.1016L95.874 61.915C96.1366 60.9985 96.902 60.3044 97.8525 60.1406C98.1286 60.0931 98.4051 60.094 98.6719 60.1367C98.7471 59.1013 98.9589 58.3603 99.335 57.3281L99.5078 56.8926C99.9251 55.9193 100.438 55.2414 100.877 54.7002C101.377 54.0842 101.656 53.7769 101.947 53.248L102.188 52.792C102.438 52.3023 102.709 51.7269 102.946 51.207C103.1 50.8692 103.233 50.5694 103.327 50.3545C103.374 50.2472 103.411 50.1608 103.437 50.1025C103.449 50.0735 103.46 50.0517 103.466 50.0371C103.469 50.0299 103.471 50.0239 103.473 50.0205C103.473 50.0192 103.473 50.0182 103.474 50.0176V50.0166L103.559 49.8389C104.013 48.9719 104.938 48.4438 105.927 48.5049Z" fill="#FFBA17" stroke="white" stroke-width="5" stroke-linejoin="round"/>
<g filter="url(#filter2_i_275_181)">
<path d="M98.0045 64.5384C98.0304 63.8057 98.2771 62.6044 98.2771 62.6044C98.2771 62.6044 99.7435 65.0315 100.866 64.5384C102.033 64.0264 101.139 62.373 101.139 61.0848C101.139 59.8501 101.277 59.3 101.684 58.1837C102.29 56.5197 103.284 56.0025 104.137 54.4537C104.846 53.1662 105.773 51 105.773 51C105.773 51 106.659 54.078 106.59 56.1115C106.534 57.7891 104.814 58.9384 105.773 60.2559C106.064 60.6561 106.241 61.0099 106.727 61.0848C107.4 61.1887 107.603 60.4564 108.089 59.9796C108.798 59.2844 109.725 58.1837 109.725 58.1837C109.725 58.1837 109.099 60.0296 109.043 61.3611C108.988 62.6925 109.452 64.8147 109.452 64.8147C110.684 64.6519 112.723 62.6044 112.723 62.6044C112.723 62.6044 112.969 63.7451 112.996 64.4779C113.145 68.6876 109.518 72.0844 105.364 71.9984C101.294 71.9142 97.8585 68.6623 98.0045 64.5384Z" fill="#FFBA17"/>
</g>
<path d="M105.834 50.002C106.256 50.0281 106.616 50.3172 106.733 50.7236L106.734 50.7246V50.7266C106.735 50.7286 106.736 50.7319 106.737 50.7354C106.739 50.7423 106.742 50.7522 106.745 50.7646C106.752 50.7898 106.763 50.8258 106.775 50.8721C106.801 50.9649 106.836 51.0987 106.879 51.2646C106.964 51.596 107.076 52.0599 107.187 52.5898C107.375 53.4979 107.571 54.6644 107.592 55.707L107.59 56.1455C107.552 57.2564 106.949 58.2355 106.702 58.751C106.553 59.0621 106.495 59.2452 106.484 59.374C106.477 59.4549 106.484 59.534 106.581 59.667L106.696 59.8301C106.732 59.8808 106.76 59.9212 106.788 59.96C106.794 59.9681 106.8 59.9751 106.806 59.9824C106.845 59.9296 106.894 59.8672 106.959 59.7783C107.063 59.6364 107.206 59.4453 107.389 59.2656L107.645 59.0068C107.908 58.7339 108.187 58.4264 108.424 58.1582C108.58 57.9816 108.715 57.826 108.811 57.7148C108.858 57.6594 108.896 57.6152 108.922 57.585C108.934 57.5702 108.944 57.5584 108.95 57.5508C108.953 57.5469 108.956 57.5438 108.958 57.542C108.959 57.5411 108.96 57.5404 108.96 57.54V57.5391L109.021 57.4736C109.335 57.1611 109.823 57.0912 110.216 57.3125C110.635 57.5486 110.826 58.0496 110.672 58.5049L110.671 58.5068C110.67 58.5093 110.669 58.5138 110.667 58.5195C110.663 58.5313 110.657 58.55 110.649 58.5742C110.634 58.6227 110.61 58.6949 110.582 58.7861C110.526 58.9694 110.45 59.2284 110.373 59.5254C110.234 60.0599 110.103 60.6706 110.057 61.1875L110.042 61.4023C110.019 61.9527 110.104 62.7151 110.209 63.3926C110.446 63.2368 110.69 63.0555 110.924 62.8682C111.232 62.6207 111.507 62.376 111.706 62.1924C111.805 62.101 111.884 62.0262 111.938 61.9746C111.964 61.949 111.984 61.9289 111.997 61.916L112.015 61.8984L112.116 61.8096C112.367 61.6182 112.696 61.5545 113.004 61.6445C113.356 61.7476 113.623 62.0354 113.7 62.3936L113.701 62.3945C113.701 62.3954 113.701 62.3971 113.701 62.3984C113.702 62.4012 113.703 62.4053 113.704 62.4102C113.706 62.4199 113.709 62.4338 113.713 62.4512C113.72 62.4865 113.731 62.5372 113.743 62.5996C113.768 62.7243 113.801 62.8983 113.835 63.0967C113.901 63.481 113.98 64.0049 113.995 64.4424L113.998 64.8916C113.91 69.3563 110.137 72.8599 105.78 72.9961L105.343 72.998C100.776 72.9034 96.837 69.244 97.0049 64.5029L97.0273 64.1611C97.0588 63.8078 97.1147 63.4307 97.1641 63.1328C97.198 62.9277 97.2313 62.7469 97.2559 62.6172C97.2682 62.5522 97.2779 62.4996 97.2852 62.4629C97.2888 62.4446 97.2919 62.43 97.2939 62.4199C97.2949 62.415 97.2963 62.411 97.2969 62.4082C97.2971 62.4071 97.2967 62.406 97.2969 62.4053L97.2979 62.4043V62.4033L97.3398 62.2568C97.4624 61.9262 97.7524 61.6803 98.1074 61.6191C98.4622 61.5581 98.8179 61.6925 99.0439 61.9629L99.1328 62.0869L99.1338 62.0879C99.1354 62.0904 99.1384 62.0959 99.1426 62.1025C99.1509 62.1159 99.1638 62.1374 99.1816 62.165C99.2177 62.2209 99.2722 62.3021 99.3408 62.3994C99.4802 62.5971 99.6702 62.8466 99.8828 63.0752C100.104 63.3132 100.305 63.4795 100.46 63.5625L100.462 63.5635C100.467 63.4945 100.467 63.3864 100.447 63.2236C100.414 62.9489 100.351 62.667 100.278 62.2832C100.212 61.9336 100.139 61.5086 100.139 61.085C100.139 59.7072 100.308 59.0394 100.744 57.8418L100.885 57.4873C101.223 56.6969 101.64 56.1406 102.042 55.6455C102.5 55.0806 102.889 54.6478 103.262 53.9717L103.521 53.4785C103.789 52.9541 104.072 52.3533 104.311 51.8291C104.468 51.4832 104.605 51.1769 104.701 50.957C104.749 50.8471 104.787 50.7586 104.813 50.6982C104.826 50.6682 104.837 50.6454 104.844 50.6299C104.847 50.6223 104.849 50.6161 104.851 50.6123C104.851 50.6107 104.852 50.6093 104.853 50.6084L104.854 50.6074V50.6064L104.926 50.4678C105.118 50.1616 105.465 49.9792 105.834 50.002Z" stroke="black" stroke-width="2" stroke-linejoin="round"/>
<mask id="path-12-outside-1_275_181" maskUnits="userSpaceOnUse" x="22" y="34" width="92" height="65" fill="black">
<rect fill="white" x="22" y="34" width="92" height="65"/>
<path d="M33.0833 83.9537C33.0833 83.9537 32.1298 85.1636 32.575 85.7329C32.9469 86.2084 34.0999 85.987 34.0999 85.987L41.979 82.4287L42.4873 84.2079L44.7748 86.7495L46.8081 87.0037L47.5706 86.2412L44.0123 83.9537V81.4121C44.0123 81.4121 49.4035 79.6855 52.6539 78.1079C55.3343 76.807 59.2622 74.2955 59.2622 74.2955L62.058 78.6163L62.3121 83.6995L58.2455 85.2245L54.6872 82.4287L49.0956 85.4787L50.6206 85.987L55.1955 83.9537L58.2455 87.7662L64.0913 83.9537V80.9037L67.6496 85.2245L68.6662 84.7162L61.2955 73.7872C61.2955 73.7872 65.4343 71.7794 68.4121 70.7372C71.3898 69.695 76.5453 68.4497 76.5453 68.4497L72.987 63.1123L74.2578 61.3331C74.2578 61.3331 73.9976 60.8188 73.7495 60.5706C73.5014 60.3225 72.987 60.0623 72.987 60.0623L65.8704 63.6206L62.058 62.3498L60.0247 59.554L54.6872 53.454L53.4164 49.8957L52.1456 47.8624V45.3208L52.6539 43.5416L51.3831 45.8291L51.8914 48.8791L53.1622 50.6582L53.4164 52.4374L48.8414 49.3874L42.4873 45.0666L46.8081 49.8957L52.6539 53.9624L57.2288 58.2831L47.5706 57.7748C47.5706 57.7748 45.3713 56.9124 44.0123 56.2498C42.3745 55.4513 39.9457 53.9624 39.9457 53.9624C39.9457 53.9624 41.2192 56.1204 42.4873 57.0123C43.5428 57.7547 45.5373 58.2831 45.5373 58.2831C45.5373 58.2831 41.8704 59.5912 39.4374 59.554C38.0338 59.5325 35.8791 59.0456 35.8791 59.0456L38.1666 60.5706H41.4707L46.8081 59.0456C46.8081 59.0456 48.662 59.3883 49.8581 59.554C52.2259 59.8819 55.958 60.0623 55.958 60.0623L58.7538 62.3498L63.3288 65.1456L50.8748 72.5163L46.8081 70.2289C46.8081 70.2289 43.2724 69.3067 40.9624 68.958C38.6965 68.6161 35.1166 68.4497 35.1166 68.4497L28 64.6372L34.6083 69.7205L39.4374 70.9913L35.1166 72.5163L32.575 71.4997H29.0167L31.05 72.008L34.0999 73.2788C34.0999 73.2788 35.0294 73.6879 35.6249 73.7872C36.2205 73.8864 36.597 74.0083 37.1499 73.7872C38.4207 73.2788 40.7082 71.4997 40.7082 71.4997H44.0123L48.8414 73.7872L33.0833 83.9537Z"/>
<path d="M86.8994 92.3578C86.8994 92.3578 84.8729 92.4945 84.3578 91.5953C84.1543 91.2402 84.1036 90.5786 84.1036 90.5786C84.1036 90.5786 87.1536 89.562 87.9161 83.7162C89.1062 74.592 78.512 62.1123 78.512 62.1123L81.3078 63.3831L80.5453 60.3331L77.7495 57.5373L79.0203 57.2831L77.7495 54.7415L81.8161 56.0123L81.3078 53.4707L85.1203 60.079L88.6785 64.1456L91.7285 68.9747L92.9993 70.7538C92.9993 70.7538 93.175 64.9129 92.2368 61.3498C91.6689 59.1928 90.2035 56.0123 90.2035 56.0123L87.6619 44.3208L89.6952 48.1332L87.9161 40L90.7119 48.3874L91.7285 52.9624L92.9993 46.8624L93.2535 53.7249C93.2535 53.7249 96.2503 62.7037 96.8118 67.1955C97.8284 75.3288 97.2895 78.4049 100.878 84.2245C103.164 87.9303 108.503 92.3578 108.503 92.3578C108.503 92.3578 108.936 93.1551 108.757 93.6286C108.442 94.4643 106.47 93.6286 106.47 93.6286C106.47 93.6286 100.445 90.7429 96.3035 90.5786C92.5687 90.4305 86.8994 92.3578 86.8994 92.3578Z"/>
</mask>
<path d="M33.0833 83.9537C33.0833 83.9537 32.1298 85.1636 32.575 85.7329C32.9469 86.2084 34.0999 85.987 34.0999 85.987L41.979 82.4287L42.4873 84.2079L44.7748 86.7495L46.8081 87.0037L47.5706 86.2412L44.0123 83.9537V81.4121C44.0123 81.4121 49.4035 79.6855 52.6539 78.1079C55.3343 76.807 59.2622 74.2955 59.2622 74.2955L62.058 78.6163L62.3121 83.6995L58.2455 85.2245L54.6872 82.4287L49.0956 85.4787L50.6206 85.987L55.1955 83.9537L58.2455 87.7662L64.0913 83.9537V80.9037L67.6496 85.2245L68.6662 84.7162L61.2955 73.7872C61.2955 73.7872 65.4343 71.7794 68.4121 70.7372C71.3898 69.695 76.5453 68.4497 76.5453 68.4497L72.987 63.1123L74.2578 61.3331C74.2578 61.3331 73.9976 60.8188 73.7495 60.5706C73.5014 60.3225 72.987 60.0623 72.987 60.0623L65.8704 63.6206L62.058 62.3498L60.0247 59.554L54.6872 53.454L53.4164 49.8957L52.1456 47.8624V45.3208L52.6539 43.5416L51.3831 45.8291L51.8914 48.8791L53.1622 50.6582L53.4164 52.4374L48.8414 49.3874L42.4873 45.0666L46.8081 49.8957L52.6539 53.9624L57.2288 58.2831L47.5706 57.7748C47.5706 57.7748 45.3713 56.9124 44.0123 56.2498C42.3745 55.4513 39.9457 53.9624 39.9457 53.9624C39.9457 53.9624 41.2192 56.1204 42.4873 57.0123C43.5428 57.7547 45.5373 58.2831 45.5373 58.2831C45.5373 58.2831 41.8704 59.5912 39.4374 59.554C38.0338 59.5325 35.8791 59.0456 35.8791 59.0456L38.1666 60.5706H41.4707L46.8081 59.0456C46.8081 59.0456 48.662 59.3883 49.8581 59.554C52.2259 59.8819 55.958 60.0623 55.958 60.0623L58.7538 62.3498L63.3288 65.1456L50.8748 72.5163L46.8081 70.2289C46.8081 70.2289 43.2724 69.3067 40.9624 68.958C38.6965 68.6161 35.1166 68.4497 35.1166 68.4497L28 64.6372L34.6083 69.7205L39.4374 70.9913L35.1166 72.5163L32.575 71.4997H29.0167L31.05 72.008L34.0999 73.2788C34.0999 73.2788 35.0294 73.6879 35.6249 73.7872C36.2205 73.8864 36.597 74.0083 37.1499 73.7872C38.4207 73.2788 40.7082 71.4997 40.7082 71.4997H44.0123L48.8414 73.7872L33.0833 83.9537Z" fill="#B35D0A"/>
<path d="M86.8994 92.3578C86.8994 92.3578 84.8729 92.4945 84.3578 91.5953C84.1543 91.2402 84.1036 90.5786 84.1036 90.5786C84.1036 90.5786 87.1536 89.562 87.9161 83.7162C89.1062 74.592 78.512 62.1123 78.512 62.1123L81.3078 63.3831L80.5453 60.3331L77.7495 57.5373L79.0203 57.2831L77.7495 54.7415L81.8161 56.0123L81.3078 53.4707L85.1203 60.079L88.6785 64.1456L91.7285 68.9747L92.9993 70.7538C92.9993 70.7538 93.175 64.9129 92.2368 61.3498C91.6689 59.1928 90.2035 56.0123 90.2035 56.0123L87.6619 44.3208L89.6952 48.1332L87.9161 40L90.7119 48.3874L91.7285 52.9624L92.9993 46.8624L93.2535 53.7249C93.2535 53.7249 96.2503 62.7037 96.8118 67.1955C97.8284 75.3288 97.2895 78.4049 100.878 84.2245C103.164 87.9303 108.503 92.3578 108.503 92.3578C108.503 92.3578 108.936 93.1551 108.757 93.6286C108.442 94.4643 106.47 93.6286 106.47 93.6286C106.47 93.6286 100.445 90.7429 96.3035 90.5786C92.5687 90.4305 86.8994 92.3578 86.8994 92.3578Z" fill="#B35D0A"/>
<path d="M33.0833 83.9537C33.0833 83.9537 32.1298 85.1636 32.575 85.7329C32.9469 86.2084 34.0999 85.987 34.0999 85.987L41.979 82.4287L42.4873 84.2079L44.7748 86.7495L46.8081 87.0037L47.5706 86.2412L44.0123 83.9537V81.4121C44.0123 81.4121 49.4035 79.6855 52.6539 78.1079C55.3343 76.807 59.2622 74.2955 59.2622 74.2955L62.058 78.6163L62.3121 83.6995L58.2455 85.2245L54.6872 82.4287L49.0956 85.4787L50.6206 85.987L55.1955 83.9537L58.2455 87.7662L64.0913 83.9537V80.9037L67.6496 85.2245L68.6662 84.7162L61.2955 73.7872C61.2955 73.7872 65.4343 71.7794 68.4121 70.7372C71.3898 69.695 76.5453 68.4497 76.5453 68.4497L72.987 63.1123L74.2578 61.3331C74.2578 61.3331 73.9976 60.8188 73.7495 60.5706C73.5014 60.3225 72.987 60.0623 72.987 60.0623L65.8704 63.6206L62.058 62.3498L60.0247 59.554L54.6872 53.454L53.4164 49.8957L52.1456 47.8624V45.3208L52.6539 43.5416L51.3831 45.8291L51.8914 48.8791L53.1622 50.6582L53.4164 52.4374L48.8414 49.3874L42.4873 45.0666L46.8081 49.8957L52.6539 53.9624L57.2288 58.2831L47.5706 57.7748C47.5706 57.7748 45.3713 56.9124 44.0123 56.2498C42.3745 55.4513 39.9457 53.9624 39.9457 53.9624C39.9457 53.9624 41.2192 56.1204 42.4873 57.0123C43.5428 57.7547 45.5373 58.2831 45.5373 58.2831C45.5373 58.2831 41.8704 59.5912 39.4374 59.554C38.0338 59.5325 35.8791 59.0456 35.8791 59.0456L38.1666 60.5706H41.4707L46.8081 59.0456C46.8081 59.0456 48.662 59.3883 49.8581 59.554C52.2259 59.8819 55.958 60.0623 55.958 60.0623L58.7538 62.3498L63.3288 65.1456L50.8748 72.5163L46.8081 70.2289C46.8081 70.2289 43.2724 69.3067 40.9624 68.958C38.6965 68.6161 35.1166 68.4497 35.1166 68.4497L28 64.6372L34.6083 69.7205L39.4374 70.9913L35.1166 72.5163L32.575 71.4997H29.0167L31.05 72.008L34.0999 73.2788C34.0999 73.2788 35.0294 73.6879 35.6249 73.7872C36.2205 73.8864 36.597 74.0083 37.1499 73.7872C38.4207 73.2788 40.7082 71.4997 40.7082 71.4997H44.0123L48.8414 73.7872L33.0833 83.9537Z" stroke="white" stroke-width="10" stroke-linecap="round" stroke-linejoin="round" mask="url(#path-12-outside-1_275_181)"/>
<path d="M86.8994 92.3578C86.8994 92.3578 84.8729 92.4945 84.3578 91.5953C84.1543 91.2402 84.1036 90.5786 84.1036 90.5786C84.1036 90.5786 87.1536 89.562 87.9161 83.7162C89.1062 74.592 78.512 62.1123 78.512 62.1123L81.3078 63.3831L80.5453 60.3331L77.7495 57.5373L79.0203 57.2831L77.7495 54.7415L81.8161 56.0123L81.3078 53.4707L85.1203 60.079L88.6785 64.1456L91.7285 68.9747L92.9993 70.7538C92.9993 70.7538 93.175 64.9129 92.2368 61.3498C91.6689 59.1928 90.2035 56.0123 90.2035 56.0123L87.6619 44.3208L89.6952 48.1332L87.9161 40L90.7119 48.3874L91.7285 52.9624L92.9993 46.8624L93.2535 53.7249C93.2535 53.7249 96.2503 62.7037 96.8118 67.1955C97.8284 75.3288 97.2895 78.4049 100.878 84.2245C103.164 87.9303 108.503 92.3578 108.503 92.3578C108.503 92.3578 108.936 93.1551 108.757 93.6286C108.442 94.4643 106.47 93.6286 106.47 93.6286C106.47 93.6286 100.445 90.7429 96.3035 90.5786C92.5687 90.4305 86.8994 92.3578 86.8994 92.3578Z" stroke="white" stroke-width="10" stroke-linecap="round" stroke-linejoin="round" mask="url(#path-12-outside-1_275_181)"/>
<path d="M33.0833 83.9537C33.0833 83.9537 32.1298 85.1636 32.575 85.7329C32.9469 86.2084 34.0999 85.987 34.0999 85.987L41.979 82.4287L42.4873 84.2079L44.7748 86.7495L46.8081 87.0037L47.5706 86.2412L44.0123 83.9537V81.4121C44.0123 81.4121 49.4035 79.6855 52.6539 78.1079C55.3343 76.807 59.2622 74.2955 59.2622 74.2955L62.058 78.6163L62.3121 83.6995L58.2455 85.2245L54.6872 82.4287L49.0956 85.4787L50.6206 85.987L55.1955 83.9537L58.2455 87.7662L64.0913 83.9537V80.9037L67.6496 85.2245L68.6662 84.7162L61.2955 73.7872C61.2955 73.7872 65.4343 71.7794 68.4121 70.7372C71.3898 69.695 76.5453 68.4497 76.5453 68.4497L72.987 63.1123L74.2578 61.3331C74.2578 61.3331 73.9976 60.8188 73.7495 60.5706C73.5014 60.3225 72.987 60.0623 72.987 60.0623L65.8704 63.6206L62.058 62.3498L60.0247 59.554L54.6872 53.454L53.4164 49.8957L52.1456 47.8624V45.3208L52.6539 43.5416L51.3831 45.8291L51.8914 48.8791L53.1622 50.6582L53.4164 52.4374L48.8414 49.3874L42.4873 45.0666L46.8081 49.8957L52.6539 53.9624L57.2288 58.2831L47.5706 57.7748C47.5706 57.7748 45.3713 56.9124 44.0123 56.2498C42.3745 55.4513 39.9457 53.9624 39.9457 53.9624C39.9457 53.9624 41.2192 56.1204 42.4873 57.0123C43.5428 57.7547 45.5373 58.2831 45.5373 58.2831C45.5373 58.2831 41.8704 59.5912 39.4374 59.554C38.0338 59.5325 35.8791 59.0456 35.8791 59.0456L38.1666 60.5706H41.4707L46.8081 59.0456C46.8081 59.0456 48.662 59.3883 49.8581 59.554C52.2259 59.8819 55.958 60.0623 55.958 60.0623L58.7538 62.3498L63.3288 65.1456L50.8748 72.5163L46.8081 70.2289C46.8081 70.2289 43.2724 69.3067 40.9624 68.958C38.6965 68.6161 35.1166 68.4497 35.1166 68.4497L28 64.6372L34.6083 69.7205L39.4374 70.9913L35.1166 72.5163L32.575 71.4997H29.0167L31.05 72.008L34.0999 73.2788C34.0999 73.2788 35.0294 73.6879 35.6249 73.7872C36.2205 73.8864 36.597 74.0083 37.1499 73.7872C38.4207 73.2788 40.7082 71.4997 40.7082 71.4997H44.0123L48.8414 73.7872L33.0833 83.9537Z" fill="#B35D0A"/>
<path d="M86.8994 92.3578C86.8994 92.3578 84.8729 92.4945 84.3578 91.5953C84.1543 91.2402 84.1036 90.5786 84.1036 90.5786C84.1036 90.5786 87.1536 89.562 87.9161 83.7162C89.1062 74.592 78.512 62.1123 78.512 62.1123L81.3078 63.3831L80.5453 60.3331L77.7495 57.5373L79.0203 57.2831L77.7495 54.7415L81.8161 56.0123L81.3078 53.4707L85.1203 60.079L88.6785 64.1456L91.7285 68.9747L92.9993 70.7538C92.9993 70.7538 93.175 64.9129 92.2368 61.3498C91.6689 59.1928 90.2035 56.0123 90.2035 56.0123L87.6619 44.3208L89.6952 48.1332L87.9161 40L90.7119 48.3874L91.7285 52.9624L92.9993 46.8624L93.2535 53.7249C93.2535 53.7249 96.2503 62.7037 96.8118 67.1955C97.8284 75.3288 97.2895 78.4049 100.878 84.2245C103.164 87.9303 108.503 92.3578 108.503 92.3578C108.503 92.3578 108.936 93.1551 108.757 93.6286C108.442 94.4643 106.47 93.6286 106.47 93.6286C106.47 93.6286 100.445 90.7429 96.3035 90.5786C92.5687 90.4305 86.8994 92.3578 86.8994 92.3578Z" fill="#B35D0A"/>
<mask id="path-14-outside-2_275_181" maskUnits="userSpaceOnUse" x="25" y="37" width="86" height="59" fill="black">
<rect fill="white" x="25" y="37" width="86" height="59"/>
<path d="M33.0833 83.9537C33.0833 83.9537 32.1298 85.1636 32.575 85.7329C32.9469 86.2084 34.0999 85.987 34.0999 85.987L41.979 82.4287L42.4873 84.2079L44.7748 86.7495L46.8081 87.0037L47.5706 86.2412L44.0123 83.9537V81.4121C44.0123 81.4121 49.4035 79.6855 52.6539 78.1079C55.3343 76.807 59.2622 74.2955 59.2622 74.2955L62.058 78.6163L62.3121 83.6995L58.2455 85.2245L54.6872 82.4287L49.0956 85.4787L50.6206 85.987L55.1955 83.9537L58.2455 87.7662L64.0913 83.9537V80.9037L67.6496 85.2245L68.6662 84.7162L61.2955 73.7872C61.2955 73.7872 65.4343 71.7794 68.4121 70.7372C71.3898 69.695 76.5453 68.4497 76.5453 68.4497L72.987 63.1123L74.2578 61.3331C74.2578 61.3331 73.9976 60.8188 73.7495 60.5706C73.5014 60.3225 72.987 60.0623 72.987 60.0623L65.8704 63.6206L62.058 62.3498L60.0247 59.554L54.6872 53.454L53.4164 49.8957L52.1456 47.8624V45.3208L52.6539 43.5416L51.3831 45.8291L51.8914 48.8791L53.1622 50.6582L53.4164 52.4374L48.8414 49.3874L42.4873 45.0666L46.8081 49.8957L52.6539 53.9624L57.2288 58.2831L47.5706 57.7748C47.5706 57.7748 45.3713 56.9124 44.0123 56.2498C42.3745 55.4513 39.9457 53.9624 39.9457 53.9624C39.9457 53.9624 41.2192 56.1204 42.4873 57.0123C43.5428 57.7547 45.5373 58.2831 45.5373 58.2831C45.5373 58.2831 41.8704 59.5912 39.4374 59.554C38.0338 59.5325 35.8791 59.0456 35.8791 59.0456L38.1666 60.5706H41.4707L46.8081 59.0456C46.8081 59.0456 48.662 59.3883 49.8581 59.554C52.2259 59.8819 55.958 60.0623 55.958 60.0623L58.7538 62.3498L63.3288 65.1456L50.8748 72.5163L46.8081 70.2289C46.8081 70.2289 43.2724 69.3067 40.9624 68.958C38.6965 68.6161 35.1166 68.4497 35.1166 68.4497L28 64.6372L34.6083 69.7205L39.4374 70.9913L35.1166 72.5163L32.575 71.4997H29.0167L31.05 72.008L34.0999 73.2788C34.0999 73.2788 35.0294 73.6879 35.6249 73.7872C36.2205 73.8864 36.597 74.0083 37.1499 73.7872C38.4207 73.2788 40.7082 71.4997 40.7082 71.4997H44.0123L48.8414 73.7872L33.0833 83.9537Z"/>
<path d="M86.8994 92.3578C86.8994 92.3578 84.8729 92.4945 84.3578 91.5953C84.1543 91.2402 84.1036 90.5786 84.1036 90.5786C84.1036 90.5786 87.1536 89.562 87.9161 83.7162C89.1062 74.592 78.512 62.1123 78.512 62.1123L81.3078 63.3831L80.5453 60.3331L77.7495 57.5373L79.0203 57.2831L77.7495 54.7415L81.8161 56.0123L81.3078 53.4707L85.1203 60.079L88.6785 64.1456L91.7285 68.9747L92.9993 70.7538C92.9993 70.7538 93.175 64.9129 92.2368 61.3498C91.6689 59.1928 90.2035 56.0123 90.2035 56.0123L87.6619 44.3208L89.6952 48.1332L87.9161 40L90.7119 48.3874L91.7285 52.9624L92.9993 46.8624L93.2535 53.7249C93.2535 53.7249 96.2503 62.7037 96.8118 67.1955C97.8284 75.3288 97.2895 78.4049 100.878 84.2245C103.164 87.9303 108.503 92.3578 108.503 92.3578C108.503 92.3578 108.936 93.1551 108.757 93.6286C108.442 94.4643 106.47 93.6286 106.47 93.6286C106.47 93.6286 100.445 90.7429 96.3035 90.5786C92.5687 90.4305 86.8994 92.3578 86.8994 92.3578Z"/>
</mask>
<path d="M33.0833 83.9537C33.0833 83.9537 32.1298 85.1636 32.575 85.7329C32.9469 86.2084 34.0999 85.987 34.0999 85.987L41.979 82.4287L42.4873 84.2079L44.7748 86.7495L46.8081 87.0037L47.5706 86.2412L44.0123 83.9537V81.4121C44.0123 81.4121 49.4035 79.6855 52.6539 78.1079C55.3343 76.807 59.2622 74.2955 59.2622 74.2955L62.058 78.6163L62.3121 83.6995L58.2455 85.2245L54.6872 82.4287L49.0956 85.4787L50.6206 85.987L55.1955 83.9537L58.2455 87.7662L64.0913 83.9537V80.9037L67.6496 85.2245L68.6662 84.7162L61.2955 73.7872C61.2955 73.7872 65.4343 71.7794 68.4121 70.7372C71.3898 69.695 76.5453 68.4497 76.5453 68.4497L72.987 63.1123L74.2578 61.3331C74.2578 61.3331 73.9976 60.8188 73.7495 60.5706C73.5014 60.3225 72.987 60.0623 72.987 60.0623L65.8704 63.6206L62.058 62.3498L60.0247 59.554L54.6872 53.454L53.4164 49.8957L52.1456 47.8624V45.3208L52.6539 43.5416L51.3831 45.8291L51.8914 48.8791L53.1622 50.6582L53.4164 52.4374L48.8414 49.3874L42.4873 45.0666L46.8081 49.8957L52.6539 53.9624L57.2288 58.2831L47.5706 57.7748C47.5706 57.7748 45.3713 56.9124 44.0123 56.2498C42.3745 55.4513 39.9457 53.9624 39.9457 53.9624C39.9457 53.9624 41.2192 56.1204 42.4873 57.0123C43.5428 57.7547 45.5373 58.2831 45.5373 58.2831C45.5373 58.2831 41.8704 59.5912 39.4374 59.554C38.0338 59.5325 35.8791 59.0456 35.8791 59.0456L38.1666 60.5706H41.4707L46.8081 59.0456C46.8081 59.0456 48.662 59.3883 49.8581 59.554C52.2259 59.8819 55.958 60.0623 55.958 60.0623L58.7538 62.3498L63.3288 65.1456L50.8748 72.5163L46.8081 70.2289C46.8081 70.2289 43.2724 69.3067 40.9624 68.958C38.6965 68.6161 35.1166 68.4497 35.1166 68.4497L28 64.6372L34.6083 69.7205L39.4374 70.9913L35.1166 72.5163L32.575 71.4997H29.0167L31.05 72.008L34.0999 73.2788C34.0999 73.2788 35.0294 73.6879 35.6249 73.7872C36.2205 73.8864 36.597 74.0083 37.1499 73.7872C38.4207 73.2788 40.7082 71.4997 40.7082 71.4997H44.0123L48.8414 73.7872L33.0833 83.9537Z" fill="#B35D0A"/>
<path d="M86.8994 92.3578C86.8994 92.3578 84.8729 92.4945 84.3578 91.5953C84.1543 91.2402 84.1036 90.5786 84.1036 90.5786C84.1036 90.5786 87.1536 89.562 87.9161 83.7162C89.1062 74.592 78.512 62.1123 78.512 62.1123L81.3078 63.3831L80.5453 60.3331L77.7495 57.5373L79.0203 57.2831L77.7495 54.7415L81.8161 56.0123L81.3078 53.4707L85.1203 60.079L88.6785 64.1456L91.7285 68.9747L92.9993 70.7538C92.9993 70.7538 93.175 64.9129 92.2368 61.3498C91.6689 59.1928 90.2035 56.0123 90.2035 56.0123L87.6619 44.3208L89.6952 48.1332L87.9161 40L90.7119 48.3874L91.7285 52.9624L92.9993 46.8624L93.2535 53.7249C93.2535 53.7249 96.2503 62.7037 96.8118 67.1955C97.8284 75.3288 97.2895 78.4049 100.878 84.2245C103.164 87.9303 108.503 92.3578 108.503 92.3578C108.503 92.3578 108.936 93.1551 108.757 93.6286C108.442 94.4643 106.47 93.6286 106.47 93.6286C106.47 93.6286 100.445 90.7429 96.3035 90.5786C92.5687 90.4305 86.8994 92.3578 86.8994 92.3578Z" fill="#B35D0A"/>
<path d="M33.0833 83.9537C33.0833 83.9537 32.1298 85.1636 32.575 85.7329C32.9469 86.2084 34.0999 85.987 34.0999 85.987L41.979 82.4287L42.4873 84.2079L44.7748 86.7495L46.8081 87.0037L47.5706 86.2412L44.0123 83.9537V81.4121C44.0123 81.4121 49.4035 79.6855 52.6539 78.1079C55.3343 76.807 59.2622 74.2955 59.2622 74.2955L62.058 78.6163L62.3121 83.6995L58.2455 85.2245L54.6872 82.4287L49.0956 85.4787L50.6206 85.987L55.1955 83.9537L58.2455 87.7662L64.0913 83.9537V80.9037L67.6496 85.2245L68.6662 84.7162L61.2955 73.7872C61.2955 73.7872 65.4343 71.7794 68.4121 70.7372C71.3898 69.695 76.5453 68.4497 76.5453 68.4497L72.987 63.1123L74.2578 61.3331C74.2578 61.3331 73.9976 60.8188 73.7495 60.5706C73.5014 60.3225 72.987 60.0623 72.987 60.0623L65.8704 63.6206L62.058 62.3498L60.0247 59.554L54.6872 53.454L53.4164 49.8957L52.1456 47.8624V45.3208L52.6539 43.5416L51.3831 45.8291L51.8914 48.8791L53.1622 50.6582L53.4164 52.4374L48.8414 49.3874L42.4873 45.0666L46.8081 49.8957L52.6539 53.9624L57.2288 58.2831L47.5706 57.7748C47.5706 57.7748 45.3713 56.9124 44.0123 56.2498C42.3745 55.4513 39.9457 53.9624 39.9457 53.9624C39.9457 53.9624 41.2192 56.1204 42.4873 57.0123C43.5428 57.7547 45.5373 58.2831 45.5373 58.2831C45.5373 58.2831 41.8704 59.5912 39.4374 59.554C38.0338 59.5325 35.8791 59.0456 35.8791 59.0456L38.1666 60.5706H41.4707L46.8081 59.0456C46.8081 59.0456 48.662 59.3883 49.8581 59.554C52.2259 59.8819 55.958 60.0623 55.958 60.0623L58.7538 62.3498L63.3288 65.1456L50.8748 72.5163L46.8081 70.2289C46.8081 70.2289 43.2724 69.3067 40.9624 68.958C38.6965 68.6161 35.1166 68.4497 35.1166 68.4497L28 64.6372L34.6083 69.7205L39.4374 70.9913L35.1166 72.5163L32.575 71.4997H29.0167L31.05 72.008L34.0999 73.2788C34.0999 73.2788 35.0294 73.6879 35.6249 73.7872C36.2205 73.8864 36.597 74.0083 37.1499 73.7872C38.4207 73.2788 40.7082 71.4997 40.7082 71.4997H44.0123L48.8414 73.7872L33.0833 83.9537Z" stroke="black" stroke-width="4" stroke-linecap="round" stroke-linejoin="round" mask="url(#path-14-outside-2_275_181)"/>
<path d="M86.8994 92.3578C86.8994 92.3578 84.8729 92.4945 84.3578 91.5953C84.1543 91.2402 84.1036 90.5786 84.1036 90.5786C84.1036 90.5786 87.1536 89.562 87.9161 83.7162C89.1062 74.592 78.512 62.1123 78.512 62.1123L81.3078 63.3831L80.5453 60.3331L77.7495 57.5373L79.0203 57.2831L77.7495 54.7415L81.8161 56.0123L81.3078 53.4707L85.1203 60.079L88.6785 64.1456L91.7285 68.9747L92.9993 70.7538C92.9993 70.7538 93.175 64.9129 92.2368 61.3498C91.6689 59.1928 90.2035 56.0123 90.2035 56.0123L87.6619 44.3208L89.6952 48.1332L87.9161 40L90.7119 48.3874L91.7285 52.9624L92.9993 46.8624L93.2535 53.7249C93.2535 53.7249 96.2503 62.7037 96.8118 67.1955C97.8284 75.3288 97.2895 78.4049 100.878 84.2245C103.164 87.9303 108.503 92.3578 108.503 92.3578C108.503 92.3578 108.936 93.1551 108.757 93.6286C108.442 94.4643 106.47 93.6286 106.47 93.6286C106.47 93.6286 100.445 90.7429 96.3035 90.5786C92.5687 90.4305 86.8994 92.3578 86.8994 92.3578Z" stroke="black" stroke-width="4" stroke-linecap="round" stroke-linejoin="round" mask="url(#path-14-outside-2_275_181)"/>
<path d="M69.0053 94.8996C69.0362 94.039 69.3298 92.6282 69.3298 92.6282C69.3298 92.6282 71.0756 95.4787 72.4124 94.8996C73.8007 94.2982 72.7369 92.3565 72.7369 90.8436C72.7369 89.3936 72.9017 88.7475 73.3858 87.4365C74.1075 85.4824 75.2908 84.8749 76.3062 83.056C77.1502 81.544 78.2531 79 78.2531 79C78.2531 79 79.3081 82.6148 79.2265 85.0029C79.1592 86.9731 77.1116 88.3229 78.2531 89.8701C78.5999 90.3402 78.8113 90.7557 79.3887 90.8436C80.1909 90.9656 80.4327 90.1056 81.0112 89.5456C81.8545 88.7293 82.958 87.4365 82.958 87.4365C82.958 87.4365 82.213 89.6044 82.1468 91.168C82.0807 92.7317 82.6336 95.2241 82.6336 95.2241C84.1003 95.0329 86.5273 92.6282 86.5273 92.6282C86.5273 92.6282 86.8207 93.9679 86.8518 94.8285C87.0304 99.7724 82.7125 103.762 77.7663 103.661C72.9211 103.562 68.8315 99.7427 69.0053 94.8996Z" fill="#FFBA17"/>
<g filter="url(#filter3_i_275_181)">
<path d="M69.0053 95.2372C69.0362 94.3766 69.3298 92.9659 69.3298 92.9659C69.3298 92.9659 71.0756 95.8163 72.4124 95.2372C73.8007 94.6358 72.7369 92.6941 72.7369 91.1812C72.7369 89.7313 72.9017 89.0852 73.3858 87.7742C74.1075 85.82 75.2908 85.2125 76.3062 83.3937C77.1502 81.8817 78.2531 79.3376 78.2531 79.3376C78.2531 79.3376 79.3081 82.9524 79.2265 85.3405C79.1592 87.3108 77.1116 88.6606 78.2531 90.2078C78.5999 90.6778 78.8113 91.0933 79.3887 91.1812C80.1909 91.3033 80.4327 90.4433 81.0112 89.8833C81.8545 89.0669 82.958 87.7742 82.958 87.7742C82.958 87.7742 82.213 89.9421 82.1468 91.5057C82.0807 93.0693 82.6336 95.5617 82.6336 95.5617C84.1003 95.3705 86.5273 92.9659 86.5273 92.9659C86.5273 92.9659 86.8207 94.3055 86.8518 95.1661C87.0304 100.11 82.7125 104.099 77.7663 103.998C72.9211 103.899 68.8315 100.08 69.0053 95.2372Z" fill="#FFBA17"/>
</g>
<path d="M70.1816 92.4431L70.1953 92.4636C70.2057 92.4801 70.2223 92.5055 70.2441 92.5388C70.2882 92.6061 70.3542 92.7045 70.4375 92.821C70.6062 93.057 70.8372 93.3563 71.0977 93.6326C71.3669 93.9182 71.6225 94.1312 71.834 94.2429C71.9404 94.2991 71.9994 94.311 72.0244 94.3132C72.0988 94.2796 72.0928 94.2675 72.0986 94.2498C72.1242 94.172 72.1432 94.0035 72.1025 93.6736C72.0619 93.3438 71.9852 93.0028 71.8994 92.5583C71.8203 92.1487 71.7373 91.6626 71.7373 91.1814C71.7373 90.4174 71.7803 89.8217 71.8994 89.2283C72.0172 88.642 72.2027 88.0924 72.4482 87.4275L72.6104 87.0212C73.004 86.1132 73.4901 85.474 73.9639 84.8982C74.5049 84.2405 74.9798 83.7171 75.4326 82.906L75.7451 82.323C76.0658 81.7034 76.4039 80.9956 76.6885 80.3796C76.8766 79.9724 77.0392 79.6111 77.1543 79.3523C77.2117 79.2233 77.2569 79.1196 77.2881 79.0486C77.3037 79.013 77.3162 78.9849 77.3242 78.9666C77.3281 78.9576 77.3311 78.9505 77.333 78.946C77.3339 78.9439 77.3345 78.9422 77.335 78.9412L77.3359 78.9402L77.4082 78.8025C77.6012 78.4977 77.9473 78.3166 78.3154 78.3396C78.7359 78.3659 79.0948 78.653 79.2129 79.0574V79.0583L79.2139 79.0593V79.0613C79.2145 79.0635 79.2157 79.0671 79.2168 79.071C79.2191 79.079 79.2224 79.0906 79.2266 79.1052C79.2349 79.1344 79.2468 79.1764 79.2617 79.2302C79.2917 79.3384 79.3345 79.4944 79.3848 79.6882C79.4853 80.0756 79.6184 80.6176 79.749 81.2371C79.9735 82.3014 80.2044 83.659 80.2285 84.8669L80.2256 85.3748C80.1825 86.6354 79.4913 87.7407 79.1855 88.3699C79.0062 88.7389 78.9259 88.9759 78.9102 89.158C78.8986 89.2909 78.9171 89.4235 79.0576 89.614L79.1934 89.8025C79.2353 89.8616 79.2697 89.9102 79.3037 89.9568C79.372 90.0505 79.4167 90.1048 79.4521 90.1414C79.4683 90.158 79.4807 90.1676 79.4883 90.1736C79.4988 90.1626 79.5131 90.151 79.5273 90.1345C79.6112 90.0374 79.6834 89.9325 79.8223 89.7449C79.9447 89.5795 80.1087 89.3649 80.3154 89.1648L80.623 88.8582C80.9393 88.5344 81.2736 88.1709 81.5566 87.8552C81.7434 87.647 81.9044 87.4629 82.0186 87.3318C82.0754 87.2665 82.1207 87.2141 82.1514 87.1785C82.1666 87.1608 82.1787 87.1475 82.1865 87.1384C82.1904 87.1339 82.1934 87.1299 82.1953 87.1277C82.1961 87.1267 82.1969 87.1262 82.1973 87.1257V87.1248L82.2588 87.0593C82.5752 86.7494 83.0632 86.6828 83.4541 86.906C83.8449 87.1293 84.035 87.5834 83.9287 88.0134L83.9033 88.0994C83.9031 88.0999 83.9028 88.1009 83.9023 88.1023C83.9013 88.1054 83.8998 88.1108 83.8975 88.1179C83.8927 88.132 83.8854 88.1537 83.876 88.1824C83.857 88.2401 83.8286 88.3261 83.7949 88.4343C83.7274 88.6513 83.6367 88.9569 83.5439 89.3083C83.354 90.0285 83.1739 90.8769 83.1455 91.5476C83.1169 92.2234 83.2251 93.1548 83.3535 93.9636C83.3658 94.0411 83.3793 94.1167 83.3916 94.1902C83.7592 93.9732 84.1467 93.6952 84.5098 93.408C84.8815 93.1139 85.2125 92.8229 85.4512 92.6052C85.57 92.4969 85.6651 92.4079 85.7295 92.3464C85.7617 92.3157 85.7858 92.2917 85.8018 92.2761C85.8096 92.2685 85.8157 92.2631 85.8193 92.2595L85.8232 92.2556C86.0823 91.999 86.4608 91.9033 86.8105 92.0066C87.1602 92.1099 87.4258 92.3956 87.5039 92.7517V92.7527L87.5049 92.7537C87.5051 92.7546 87.5055 92.756 87.5059 92.7576C87.5065 92.7607 87.5066 92.7657 87.5078 92.7712C87.5102 92.7825 87.5143 92.7988 87.5186 92.8191C87.5272 92.86 87.5391 92.9185 87.5537 92.991C87.583 93.1363 87.6227 93.3396 87.6631 93.571C87.7416 94.021 87.8334 94.6273 87.8516 95.1296L87.8555 95.6492C87.7526 100.805 83.3358 104.838 78.2559 104.995L77.7461 104.998C72.4177 104.889 67.8094 100.674 68.0059 95.2009L68.0322 94.8074C68.069 94.3997 68.1348 93.9621 68.1934 93.613C68.2336 93.3735 68.2727 93.1619 68.3018 93.0105C68.3163 92.9349 68.3284 92.8734 68.3369 92.8308C68.3412 92.8096 68.3443 92.7926 68.3467 92.781C68.3478 92.7753 68.349 92.7705 68.3496 92.7673C68.3499 92.7659 68.3504 92.7643 68.3506 92.7634V92.7625L68.3926 92.616C68.5153 92.2869 68.8048 92.0418 69.1582 91.9802C69.5621 91.91 69.9684 92.0936 70.1826 92.4431H70.1816Z" stroke="black" stroke-width="2" stroke-linejoin="round"/>
<path d="M100.004 64.5384C100.03 63.8057 100.277 62.6044 100.277 62.6044C100.277 62.6044 101.743 65.0315 102.866 64.5384C104.033 64.0264 103.139 62.373 103.139 61.0848C103.139 59.8501 103.277 59.3 103.684 58.1837C104.29 56.5197 105.284 56.0025 106.137 54.4537C106.846 53.1662 107.773 51 107.773 51C107.773 51 108.659 54.078 108.59 56.1115C108.534 57.7891 106.814 58.9384 107.773 60.2559C108.064 60.6561 108.241 61.0099 108.727 61.0848C109.4 61.1887 109.603 60.4564 110.089 59.9796C110.798 59.2844 111.725 58.1837 111.725 58.1837C111.725 58.1837 111.099 60.0296 111.043 61.3611C110.988 62.6925 111.452 64.8147 111.452 64.8147C112.684 64.6519 114.723 62.6044 114.723 62.6044C114.723 62.6044 114.969 63.7451 114.996 64.4779C115.145 68.6876 111.518 72.0844 107.364 71.9984C103.294 71.9142 99.8585 68.6623 100.004 64.5384Z" fill="#FFBA17"/>
<g filter="url(#filter4_i_275_181)">
<path d="M98.0045 64.5384C98.0304 63.8057 98.2771 62.6044 98.2771 62.6044C98.2771 62.6044 99.7435 65.0315 100.866 64.5384C102.033 64.0264 101.139 62.373 101.139 61.0848C101.139 59.8501 101.277 59.3 101.684 58.1837C102.29 56.5197 103.284 56.0025 104.137 54.4537C104.846 53.1662 105.773 51 105.773 51C105.773 51 106.659 54.078 106.59 56.1115C106.534 57.7891 104.814 58.9384 105.773 60.2559C106.064 60.6561 106.241 61.0099 106.727 61.0848C107.4 61.1887 107.603 60.4564 108.089 59.9796C108.798 59.2844 109.725 58.1837 109.725 58.1837C109.725 58.1837 109.099 60.0296 109.043 61.3611C108.988 62.6925 109.452 64.8147 109.452 64.8147C110.684 64.6519 112.723 62.6044 112.723 62.6044C112.723 62.6044 112.969 63.7451 112.996 64.4779C113.145 68.6876 109.518 72.0844 105.364 71.9984C101.294 71.9142 97.8585 68.6623 98.0045 64.5384Z" fill="#FFBA17"/>
</g>
<path d="M105.834 50.002C106.256 50.0281 106.616 50.3172 106.733 50.7236L106.734 50.7246V50.7266C106.735 50.7286 106.736 50.7319 106.737 50.7354C106.739 50.7423 106.742 50.7522 106.745 50.7646C106.752 50.7898 106.763 50.8258 106.775 50.8721C106.801 50.9649 106.836 51.0987 106.879 51.2646C106.964 51.596 107.076 52.0599 107.187 52.5898C107.375 53.4979 107.571 54.6644 107.592 55.707L107.59 56.1455C107.552 57.2564 106.949 58.2355 106.702 58.751C106.553 59.0621 106.495 59.2452 106.484 59.374C106.477 59.4549 106.484 59.534 106.581 59.667L106.696 59.8301C106.732 59.8808 106.76 59.9212 106.788 59.96C106.794 59.9681 106.8 59.9751 106.806 59.9824C106.845 59.9296 106.894 59.8672 106.959 59.7783C107.063 59.6364 107.206 59.4453 107.389 59.2656L107.645 59.0068C107.908 58.7339 108.187 58.4264 108.424 58.1582C108.58 57.9816 108.715 57.826 108.811 57.7148C108.858 57.6594 108.896 57.6152 108.922 57.585C108.934 57.5702 108.944 57.5584 108.95 57.5508C108.953 57.5469 108.956 57.5438 108.958 57.542C108.959 57.5411 108.96 57.5404 108.96 57.54V57.5391L109.021 57.4736C109.335 57.1611 109.823 57.0912 110.216 57.3125C110.635 57.5486 110.826 58.0496 110.672 58.5049L110.671 58.5068C110.67 58.5093 110.669 58.5138 110.667 58.5195C110.663 58.5313 110.657 58.55 110.649 58.5742C110.634 58.6227 110.61 58.6949 110.582 58.7861C110.526 58.9694 110.45 59.2284 110.373 59.5254C110.234 60.0599 110.103 60.6706 110.057 61.1875L110.042 61.4023C110.019 61.9527 110.104 62.7151 110.209 63.3926C110.446 63.2368 110.69 63.0555 110.924 62.8682C111.232 62.6207 111.507 62.376 111.706 62.1924C111.805 62.101 111.884 62.0262 111.938 61.9746C111.964 61.949 111.984 61.9289 111.997 61.916L112.015 61.8984L112.116 61.8096C112.367 61.6182 112.696 61.5545 113.004 61.6445C113.356 61.7476 113.623 62.0354 113.7 62.3936L113.701 62.3945C113.701 62.3954 113.701 62.3971 113.701 62.3984C113.702 62.4012 113.703 62.4053 113.704 62.4102C113.706 62.4199 113.709 62.4338 113.713 62.4512C113.72 62.4865 113.731 62.5372 113.743 62.5996C113.768 62.7243 113.801 62.8983 113.835 63.0967C113.901 63.481 113.98 64.0049 113.995 64.4424L113.998 64.8916C113.91 69.3563 110.137 72.8599 105.78 72.9961L105.343 72.998C100.776 72.9034 96.837 69.244 97.0049 64.5029L97.0273 64.1611C97.0588 63.8078 97.1147 63.4307 97.1641 63.1328C97.198 62.9277 97.2313 62.7469 97.2559 62.6172C97.2682 62.5522 97.2779 62.4996 97.2852 62.4629C97.2888 62.4446 97.2919 62.43 97.2939 62.4199C97.2949 62.415 97.2963 62.411 97.2969 62.4082C97.2971 62.4071 97.2967 62.406 97.2969 62.4053L97.2979 62.4043V62.4033L97.3398 62.2568C97.4624 61.9262 97.7524 61.6803 98.1074 61.6191C98.4622 61.5581 98.8179 61.6925 99.0439 61.9629L99.1328 62.0869L99.1338 62.0879C99.1354 62.0904 99.1384 62.0959 99.1426 62.1025C99.1509 62.1159 99.1638 62.1374 99.1816 62.165C99.2177 62.2209 99.2722 62.3021 99.3408 62.3994C99.4802 62.5971 99.6702 62.8466 99.8828 63.0752C100.104 63.3132 100.305 63.4795 100.46 63.5625L100.462 63.5635C100.467 63.4945 100.467 63.3864 100.447 63.2236C100.414 62.9489 100.351 62.667 100.278 62.2832C100.212 61.9336 100.139 61.5086 100.139 61.085C100.139 59.7072 100.308 59.0394 100.744 57.8418L100.885 57.4873C101.223 56.6969 101.64 56.1406 102.042 55.6455C102.5 55.0806 102.889 54.6478 103.262 53.9717L103.521 53.4785C103.789 52.9541 104.072 52.3533 104.311 51.8291C104.468 51.4832 104.605 51.1769 104.701 50.957C104.749 50.8471 104.787 50.7586 104.813 50.6982C104.826 50.6682 104.837 50.6454 104.844 50.6299C104.847 50.6223 104.849 50.6161 104.851 50.6123C104.851 50.6107 104.852 50.6093 104.853 50.6084L104.854 50.6074V50.6064L104.926 50.4678C105.118 50.1616 105.465 49.9792 105.834 50.002Z" stroke="black" stroke-width="2" stroke-linejoin="round"/>
<defs>
<filter id="filter0_i_275_181" x="65.9999" y="77.3376" width="22.8574" height="29.6624" filterUnits="userSpaceOnUse" color-interpolation-filters="sRGB">
<feFlood flood-opacity="0" result="BackgroundImageFix"/>
<feBlend mode="normal" in="SourceGraphic" in2="BackgroundImageFix" result="shape"/>
<feColorMatrix in="SourceAlpha" type="matrix" values="0 0 0 0 0 0 0 0 0 0 0 0 0 0 0 0 0 0 127 0" result="hardAlpha"/>
<feOffset dx="-3" dy="4"/>
<feGaussianBlur stdDeviation="0.5"/>
<feComposite in2="hardAlpha" operator="arithmetic" k2="-1" k3="1"/>
<feColorMatrix type="matrix" values="0 0 0 0 0.875 0 0 0 0 0 0 0 0 0 0 0 0 0 0.25 0"/>
<feBlend mode="normal" in2="shape" result="effect1_innerShadow_275_181"/>
</filter>
<filter id="filter1_i_275_181" x="57.9999" y="34" width="17.0002" height="21.5731" filterUnits="userSpaceOnUse" color-interpolation-filters="sRGB">
<feFlood flood-opacity="0" result="BackgroundImageFix"/>
<feBlend mode="normal" in="SourceGraphic" in2="BackgroundImageFix" result="shape"/>
<feColorMatrix in="SourceAlpha" type="matrix" values="0 0 0 0 0 0 0 0 0 0 0 0 0 0 0 0 0 0 127 0" result="hardAlpha"/>
<feOffset dx="-3" dy="4"/>
<feGaussianBlur stdDeviation="0.5"/>
<feComposite in2="hardAlpha" operator="arithmetic" k2="-1" k3="1"/>
<feColorMatrix type="matrix" values="0 0 0 0 0.875 0 0 0 0 0 0 0 0 0 0 0 0 0 0.25 0"/>
<feBlend mode="normal" in2="shape" result="effect1_innerShadow_275_181"/>
</filter>
<filter id="filter2_i_275_181" x="94.9999" y="49" width="20.0002" height="26" filterUnits="userSpaceOnUse" color-interpolation-filters="sRGB">
<feFlood flood-opacity="0" result="BackgroundImageFix"/>
<feBlend mode="normal" in="SourceGraphic" in2="BackgroundImageFix" result="shape"/>
<feColorMatrix in="SourceAlpha" type="matrix" values="0 0 0 0 0 0 0 0 0 0 0 0 0 0 0 0 0 0 127 0" result="hardAlpha"/>
<feOffset dx="-3" dy="4"/>
<feGaussianBlur stdDeviation="0.5"/>
<feComposite in2="hardAlpha" operator="arithmetic" k2="-1" k3="1"/>
<feColorMatrix type="matrix" values="0 0 0 0 0.875 0 0 0 0 0 0 0 0 0 0 0 0 0 0.25 0"/>
<feBlend mode="normal" in2="shape" result="effect1_innerShadow_275_181"/>
</filter>
<filter id="filter3_i_275_181" x="65.9999" y="77.3376" width="22.8574" height="29.6624" filterUnits="userSpaceOnUse" color-interpolation-filters="sRGB">
<feFlood flood-opacity="0" result="BackgroundImageFix"/>
<feBlend mode="normal" in="SourceGraphic" in2="BackgroundImageFix" result="shape"/>
<feColorMatrix in="SourceAlpha" type="matrix" values="0 0 0 0 0 0 0 0 0 0 0 0 0 0 0 0 0 0 127 0" result="hardAlpha"/>
<feOffset dx="-3" dy="4"/>
<feGaussianBlur stdDeviation="0.5"/>
<feComposite in2="hardAlpha" operator="arithmetic" k2="-1" k3="1"/>
<feColorMatrix type="matrix" values="0 0 0 0 0.875 0 0 0 0 0 0 0 0 0 0 0 0 0 0.25 0"/>
<feBlend mode="normal" in2="shape" result="effect1_innerShadow_275_181"/>
</filter>
<filter id="filter4_i_275_181" x="94.9999" y="49" width="20.0002" height="26" filterUnits="userSpaceOnUse" color-interpolation-filters="sRGB">
<feFlood flood-opacity="0" result="BackgroundImageFix"/>
<feBlend mode="normal" in="SourceGraphic" in2="BackgroundImageFix" result="shape"/>
<feColorMatrix in="SourceAlpha" type="matrix" values="0 0 0 0 0 0 0 0 0 0 0 0 0 0 0 0 0 0 127 0" result="hardAlpha"/>
<feOffset dx="-3" dy="4"/>
<feGaussianBlur stdDeviation="0.5"/>
<feComposite in2="hardAlpha" operator="arithmetic" k2="-1" k3="1"/>
<feColorMatrix type="matrix" values="0 0 0 0 0.875 0 0 0 0 0 0 0 0 0 0 0 0 0 0.25 0"/>
<feBlend mode="normal" in2="shape" result="effect1_innerShadow_275_181"/>
</filter>
</defs>
</svg>
