<svg width="140" height="140" viewBox="0 0 140 140" fill="none" xmlns="http://www.w3.org/2000/svg">
<path d="M71 1C106.899 1 136 30.1015 136 66C136 101.899 106.899 131 71 131C56.0255 131 44.0339 127.845 33.0469 119.307C32.9367 119.406 32.814 119.519 32.6777 119.642C32.0431 120.214 31.1343 121.028 30.0381 121.999C27.8464 123.94 24.901 126.51 21.8906 129.019C18.8853 131.523 15.7947 133.984 13.3193 135.697C12.0879 136.55 10.9697 137.245 10.0713 137.664C9.62812 137.871 9.18022 138.038 8.7666 138.104C8.39071 138.163 7.76482 138.179 7.29297 137.707C6.86198 137.276 6.81946 136.684 6.82812 136.315C6.8381 135.893 6.92833 135.409 7.05957 134.906C7.32448 133.891 7.80855 132.598 8.42383 131.154C9.65898 128.256 11.4871 124.603 13.3652 121.034C15.2461 117.46 17.1888 113.952 18.6602 111.338C19.3961 110.03 20.0145 108.945 20.4492 108.188C20.57 107.977 20.6766 107.792 20.7676 107.634C10.3734 96.1265 6 82.7067 6 66C6 30.1015 35.1015 1 71 1Z" stroke="black" stroke-width="2"/>
<path d="M71 3.5C105.518 3.5 133.5 31.4822 133.5 66C133.5 100.518 105.518 128.5 71 128.5C56.1345 128.5 44.5569 125.326 33.9375 116.829L32.9355 116.027L31.9883 116.893H31.9873L31.9727 116.907C31.9619 116.917 31.9452 116.932 31.9238 116.951C31.8808 116.99 31.8171 117.049 31.7334 117.125C31.5657 117.277 31.3188 117.5 31.0039 117.784C30.3739 118.352 29.4708 119.162 28.3809 120.127C26.1998 122.059 23.2743 124.611 20.29 127.098C17.2982 129.591 14.2771 131.993 11.8965 133.642C11.0026 134.26 10.2305 134.75 9.60449 135.095C9.84316 134.311 10.2228 133.31 10.7236 132.135C11.9178 129.333 13.7071 125.751 15.5771 122.198C17.4432 118.653 19.3741 115.166 20.8389 112.563C21.5708 111.263 22.1854 110.184 22.6172 109.432C22.8331 109.055 23.0032 108.76 23.1191 108.56C23.1771 108.459 23.2221 108.383 23.252 108.331C23.2667 108.306 23.2777 108.286 23.2852 108.273C23.2889 108.267 23.2921 108.262 23.2939 108.259C23.2947 108.257 23.2955 108.257 23.2959 108.256L23.2969 108.255C23.297 108.255 23.2965 108.254 22 107.5L23.2969 108.254L23.8545 107.296L23.1016 106.481C12.8511 95.3964 8.5 82.4621 8.5 66C8.5 31.4822 36.4822 3.5 71 3.5Z" fill="#FFCE2F" stroke="white" stroke-width="3"/>
<g filter="url(#filter0_i_275_181)">
<path d="M46.0078 58.2088C46.0529 56.9526 46.4815 54.8932 46.4815 54.8932C46.4815 54.8932 49.0297 59.0541 50.9811 58.2088C53.0076 57.3309 51.4548 54.4966 51.4548 52.2882C51.4548 50.1717 51.6953 49.2286 52.4021 47.3149C53.4554 44.4624 55.1827 43.5756 56.6649 40.9206C57.897 38.7135 59.5068 35 59.5068 35C59.5068 35 61.0468 40.2765 60.9277 43.7625C60.8295 46.6384 57.8406 48.6088 59.5068 50.8672C60.013 51.5534 60.3216 52.1599 61.1646 52.2882C62.3355 52.4663 62.6884 51.211 63.5328 50.3936C64.7638 49.2019 66.3747 47.3149 66.3747 47.3149C66.3747 47.3149 65.2871 50.4794 65.1906 52.7618C65.094 55.0442 65.901 58.6824 65.901 58.6824C68.042 58.4033 71.5848 54.8932 71.5848 54.8932C71.5848 54.8932 72.0131 56.8487 72.0584 58.1049C72.3191 65.3217 66.0163 71.1447 58.7963 70.9973C51.7237 70.8529 45.7541 65.2783 46.0078 58.2088Z" fill="#FFBA17"/>
</g>
<path d="M59.6631 32.5049C60.7143 32.5707 61.6111 33.2887 61.9062 34.2998L59.5068 35C61.8928 34.3036 61.9071 34.2996 61.9072 34.2998V34.3027C61.9076 34.304 61.9087 34.3058 61.9092 34.3076C61.9103 34.3113 61.9114 34.3163 61.9131 34.3223C61.9167 34.3349 61.9223 34.3526 61.9287 34.375C61.9415 34.4198 61.9589 34.4841 61.9814 34.5654C62.0266 34.7284 62.09 34.9618 62.165 35.251C62.3148 35.828 62.5133 36.6345 62.708 37.5576C63.0621 39.2363 63.4451 41.4841 63.4336 43.457L63.4268 43.8477C63.3572 45.882 62.2764 47.709 61.8574 48.5332C62.3944 48.0079 63.0284 47.3242 63.5537 46.7383C63.8222 46.4388 64.0546 46.1748 64.2188 45.9863C64.3005 45.8924 64.3654 45.8174 64.4092 45.7666C64.431 45.7413 64.4471 45.7217 64.458 45.709C64.4635 45.7026 64.4682 45.6982 64.4707 45.6953C64.4717 45.6941 64.4722 45.693 64.4727 45.6924L64.4736 45.6914L64.626 45.5283C65.417 44.753 66.6369 44.5856 67.6143 45.1436C68.6568 45.7389 69.1292 46.9915 68.7393 48.127L68.7383 48.1289C68.7371 48.1325 68.7346 48.1392 68.7314 48.1484C68.7252 48.167 68.7152 48.1966 68.7021 48.2363C68.676 48.3159 68.6372 48.4357 68.5898 48.5879C68.4947 48.8935 68.367 49.3249 68.2363 49.8203C67.9977 50.7247 67.7848 51.7184 67.7109 52.5312L67.6885 52.8672C67.6651 53.4201 67.7118 54.1309 67.7969 54.874C67.8625 54.8234 67.9299 54.7743 67.9951 54.7227C68.5133 54.3127 68.9774 53.9051 69.3135 53.5986C69.4802 53.4465 69.6123 53.3212 69.7012 53.2363C69.7456 53.1939 69.7797 53.1621 69.8008 53.1416L69.8262 53.1162C70.4738 52.4752 71.419 52.2379 72.293 52.4961C73.1673 52.7544 73.8323 53.4678 74.0273 54.3584V54.3623C74.0277 54.3639 74.0288 54.3658 74.0293 54.3682C74.0304 54.3734 74.0323 54.3808 74.0342 54.3896C74.038 54.4074 74.0432 54.4326 74.0498 54.4639C74.063 54.5265 74.0815 54.6152 74.1035 54.7246C74.1476 54.9435 74.2067 55.2498 74.2676 55.5986C74.3836 56.2635 74.5275 57.2066 74.5566 58.0146L74.5654 58.4258C74.6344 66.8866 67.3571 73.4565 59.1436 73.5L58.7451 73.4971C50.4647 73.3279 43.1995 66.7641 43.5098 58.1191L43.5254 57.8115C43.5736 57.0798 43.6953 56.2656 43.7959 55.666C43.8563 55.3063 43.9153 54.9898 43.959 54.7627C43.9809 54.6488 43.9987 54.5561 44.0117 54.4912C44.0182 54.4589 44.0236 54.4332 44.0273 54.415C44.0292 54.4061 44.0311 54.3988 44.0322 54.3936C44.0327 54.3912 44.0329 54.3892 44.0332 54.3877V54.3848H44.0342V54.3838L44.0801 54.1982C44.3438 53.2858 45.1062 52.5955 46.0527 52.4307C47.0624 52.2551 48.0767 52.7133 48.6123 53.5869C48.6144 53.5902 48.6181 53.5957 48.623 53.6035C48.6354 53.6231 48.6567 53.6563 48.6855 53.7002C48.7434 53.7884 48.832 53.9191 48.9443 54.0762C49.0203 54.1824 49.1052 54.2964 49.1963 54.415C49.0832 53.822 48.9551 53.0625 48.9551 52.2881C48.9551 51.1323 49.0199 50.1899 49.2119 49.2334C49.4004 48.2944 49.6945 47.4298 50.0566 46.4492L50.1846 46.1172C50.8367 44.492 51.6735 43.3897 52.4424 42.4551C53.2613 41.4597 53.8787 40.7836 54.4824 39.7021L54.9238 38.876C55.3794 37.9957 55.8643 36.9801 56.2783 36.084C56.5504 35.4951 56.7857 34.973 56.9521 34.5986C57.0351 34.412 57.1007 34.2624 57.1455 34.1602L57.209 34.0137C57.2103 34.0106 57.2113 34.0082 57.2119 34.0068L57.2129 34.0059L57.2979 33.8291C57.7545 32.9669 58.6774 32.4432 59.6631 32.5049Z" stroke="white" stroke-width="5" stroke-linejoin="round"/>
<g filter="url(#filter1_i_275_181)">
<path d="M78.005 89.8278C78.0338 89.0252 78.3076 87.7096 78.3076 87.7096C78.3076 87.7096 79.9357 90.3679 81.1824 89.8278C82.4771 89.267 81.485 87.4562 81.485 86.0452C81.485 84.693 81.6387 84.0905 82.0902 82.8678C82.7632 81.0454 83.8668 80.4789 84.8137 78.7826C85.6008 77.3725 86.6293 75 86.6293 75C86.6293 75 87.6133 78.3711 87.5372 80.5983C87.4744 82.4357 85.5648 83.6945 86.6293 85.1374C86.9528 85.5758 87.1499 85.9633 87.6885 86.0452C88.4366 86.159 88.662 85.357 89.2015 84.8348C89.988 84.0734 91.0172 82.8678 91.0172 82.8678C91.0172 82.8678 90.3223 84.8896 90.2606 86.3478C90.199 87.806 90.7146 90.1304 90.7146 90.1304C92.0824 89.9521 94.3459 87.7096 94.3459 87.7096C94.3459 87.7096 94.6195 88.9589 94.6484 89.7615C94.815 94.3722 90.7882 98.0924 86.1754 97.9983C81.6568 97.906 77.8429 94.3445 78.005 89.8278Z" fill="#FFBA17"/>
</g>
<path d="M86.7852 72.5049C87.8364 72.5707 88.7342 73.2887 89.0293 74.2998V74.3008L89.0303 74.3018L89.0342 74.3174C89.0368 74.3264 89.0406 74.3384 89.0449 74.3535C89.0537 74.3842 89.066 74.4272 89.0811 74.4814C89.1111 74.5898 89.1529 74.7437 89.2021 74.9336C89.3004 75.3124 89.4297 75.8419 89.5576 76.4482C89.7952 77.5745 90.0669 79.1647 90.0361 80.5693C90.7371 80.2706 91.5586 80.2986 92.2568 80.6973C93.2994 81.2927 93.7721 82.5452 93.3818 83.6807L93.3809 83.6797C93.3803 83.6814 93.3802 83.6845 93.3789 83.6885C93.3756 83.6984 93.3699 83.7152 93.3623 83.7383C93.347 83.7849 93.3236 83.8572 93.2949 83.9492C93.2372 84.1348 93.1585 84.3973 93.0791 84.6982C92.9888 85.0405 92.9101 85.3871 92.8525 85.7041C93.4779 85.2383 94.2929 85.087 95.0537 85.3115C95.9281 85.5698 96.593 86.2842 96.7881 87.1748V87.1758L96.7891 87.1777C96.7894 87.1791 96.7896 87.1807 96.79 87.1826C96.7909 87.1865 96.7916 87.192 96.793 87.1982C96.7956 87.2107 96.7993 87.2279 96.8037 87.249C96.8127 87.2915 96.8252 87.3509 96.8398 87.4238C96.8692 87.5694 96.9087 87.7727 96.9492 88.0049C97.0245 88.4365 97.1255 89.0896 97.1465 89.6709L97.1533 89.96C97.2019 95.8161 92.2624 100.323 86.6758 100.495L86.124 100.498C80.3977 100.381 75.2883 95.8302 75.5068 89.7383L75.5352 89.2939C75.5755 88.8432 75.6455 88.3855 75.7012 88.0537C75.7412 87.8155 75.7807 87.6063 75.8096 87.4561C75.8241 87.3807 75.836 87.3191 75.8447 87.2754C75.8491 87.2537 75.8529 87.2362 75.8555 87.2236C75.8568 87.2174 75.8576 87.2119 75.8584 87.208C75.8588 87.2061 75.8591 87.2044 75.8594 87.2031V87.2012H75.8604V87.2002L75.9062 87.0146C76.17 86.1021 76.9323 85.4108 77.8789 85.2461C78.2619 85.1795 78.6459 85.2047 79.0039 85.3086C79.027 84.8288 79.0743 84.3775 79.167 83.916C79.3019 83.244 79.5106 82.6371 79.7451 82.002L79.9316 81.5371C80.383 80.4981 80.9379 79.7742 81.4189 79.1895C81.9674 78.5228 82.2948 78.1664 82.6309 77.5645L82.9014 77.0586C83.1815 76.5172 83.4838 75.8833 83.7471 75.3135C83.9186 74.9422 84.0669 74.6131 84.1719 74.377C84.2243 74.2591 84.2658 74.1647 84.2939 74.1006C84.3079 74.0687 84.3192 74.0444 84.3262 74.0283C84.3297 74.0203 84.3324 74.0135 84.334 74.0098C84.3347 74.0082 84.3347 74.0066 84.335 74.0059H84.3359C84.7548 73.0395 85.734 72.4392 86.7852 72.5049Z" stroke="white" stroke-width="5" stroke-linejoin="round"/>
<mask id="path-7-outside-1_275_181" maskUnits="userSpaceOnUse" x="25" y="37" width="93" height="62" fill="black">
<rect fill="white" x="25" y="37" width="93" height="62"/>
<path d="M38 88.1557C38 86.2729 39.5263 84.7466 41.4091 84.7466H45.3052C47.188 84.7466 48.7143 86.2729 48.7143 88.1557V90.5907C48.7143 92.4735 47.188 93.9998 45.3052 93.9998H41.4091C39.5263 93.9998 38 92.4735 38 90.5907V88.1557Z"/>
<path d="M94 88.1557C94 86.2729 95.5263 84.7466 97.4091 84.7466H101.305C103.188 84.7466 104.714 86.2729 104.714 88.1557V90.5907C104.714 92.4735 103.188 93.9998 101.305 93.9998H97.4091C95.5263 93.9998 94 92.4735 94 90.5907V88.1557Z"/>
<path d="M42 62L47.2178 44.5484C47.6699 43.0361 49.0612 42 50.6396 42H92.3604C93.9388 42 95.3301 43.0361 95.7822 44.5484L101 62H42Z"/>
<path d="M41.2731 63.3182H101.292L106.876 70.7117C107.323 71.3034 107.565 72.0248 107.565 72.7664V86.6948H35V72.7664C35 72.0248 35.2418 71.3034 35.6888 70.7117L41.2731 63.3182Z"/>
<path d="M47 58.2595L50.7311 47.0333C50.9517 46.3697 51.5724 45.9219 52.2716 45.9219H90.0531C90.7523 45.9219 91.373 46.3697 91.5936 47.0333L95.3247 58.2595H47Z"/>
<path d="M30 58.4481C30 57.5515 30.7268 56.8247 31.6234 56.8247H37.7922V60.0715H31.6234C30.7268 60.0715 30 59.3446 30 58.4481Z"/>
<path d="M112.088 58.4481C112.088 57.5515 111.361 56.8247 110.464 56.8247H104.295V60.0715H110.464C111.361 60.0715 112.088 59.3446 112.088 58.4481Z"/>
<path d="M39.5509 71.5971C39.043 72.0841 38.9016 73.3828 39.0639 74.1132C39.2262 74.8437 40.8496 76.6301 41.5801 77.1168C42.4278 77.6816 43.2847 78.4967 45.2327 78.6587C46.1225 78.7327 47.8671 78.334 48.5606 77.847C49.2542 77.36 50.3363 76.2236 50.2652 75.5743C50.194 74.9249 49.7447 74.4301 49.0476 74.1132C48.1548 73.7074 46.9007 73.6295 45.395 73.058C43.8651 72.4774 42.7977 71.3537 41.986 71.1102C41.1743 70.8667 40.0589 71.1101 39.5509 71.5971Z"/>
<path d="M103.449 71.5971C103.957 72.0841 104.098 73.3828 103.936 74.1132C103.774 74.8437 102.15 76.6301 101.42 77.1168C100.572 77.6816 99.7153 78.4967 97.7673 78.6587C96.8775 78.7327 95.1329 78.334 94.4394 77.847C93.7458 77.36 92.6637 76.2236 92.7348 75.5743C92.806 74.9249 93.2553 74.4301 93.9524 74.1132C94.8452 73.7074 96.0993 73.6295 97.6049 73.058C99.1349 72.4774 100.202 71.3537 101.014 71.1102C101.826 70.8667 102.941 71.1101 103.449 71.5971Z"/>
</mask>
<path d="M38 88.1557C38 86.2729 39.5263 84.7466 41.4091 84.7466H45.3052C47.188 84.7466 48.7143 86.2729 48.7143 88.1557V90.5907C48.7143 92.4735 47.188 93.9998 45.3052 93.9998H41.4091C39.5263 93.9998 38 92.4735 38 90.5907V88.1557Z" fill="#707583"/>
<path d="M94 88.1557C94 86.2729 95.5263 84.7466 97.4091 84.7466H101.305C103.188 84.7466 104.714 86.2729 104.714 88.1557V90.5907C104.714 92.4735 103.188 93.9998 101.305 93.9998H97.4091C95.5263 93.9998 94 92.4735 94 90.5907V88.1557Z" fill="#707583"/>
<path d="M42 62L47.2178 44.5484C47.6699 43.0361 49.0612 42 50.6396 42H92.3604C93.9388 42 95.3301 43.0361 95.7822 44.5484L101 62H42Z" fill="#D9D9D9"/>
<path d="M41.2731 63.3182H101.292L106.876 70.7117C107.323 71.3034 107.565 72.0248 107.565 72.7664V86.6948H35V72.7664C35 72.0248 35.2418 71.3034 35.6888 70.7117L41.2731 63.3182Z" fill="#D9D9D9"/>
<path d="M47 58.2595L50.7311 47.0333C50.9517 46.3697 51.5724 45.9219 52.2716 45.9219H90.0531C90.7523 45.9219 91.373 46.3697 91.5936 47.0333L95.3247 58.2595H47Z" fill="#81DAFC"/>
<path d="M30 58.4481C30 57.5515 30.7268 56.8247 31.6234 56.8247H37.7922V60.0715H31.6234C30.7268 60.0715 30 59.3446 30 58.4481Z" fill="#707583"/>
<path d="M112.088 58.4481C112.088 57.5515 111.361 56.8247 110.464 56.8247H104.295V60.0715H110.464C111.361 60.0715 112.088 59.3446 112.088 58.4481Z" fill="#707583"/>
<path d="M39.5509 71.5971C39.043 72.0841 38.9016 73.3828 39.0639 74.1132C39.2262 74.8437 40.8496 76.6301 41.5801 77.1168C42.4278 77.6816 43.2847 78.4967 45.2327 78.6587C46.1225 78.7327 47.8671 78.334 48.5606 77.847C49.2542 77.36 50.3363 76.2236 50.2652 75.5743C50.194 74.9249 49.7447 74.4301 49.0476 74.1132C48.1548 73.7074 46.9007 73.6295 45.395 73.058C43.8651 72.4774 42.7977 71.3537 41.986 71.1102C41.1743 70.8667 40.0589 71.1101 39.5509 71.5971Z" fill="#FFC943" fill-opacity="0.74"/>
<path d="M103.449 71.5971C103.957 72.0841 104.098 73.3828 103.936 74.1132C103.774 74.8437 102.15 76.6301 101.42 77.1168C100.572 77.6816 99.7153 78.4967 97.7673 78.6587C96.8775 78.7327 95.1329 78.334 94.4394 77.847C93.7458 77.36 92.6637 76.2236 92.7348 75.5743C92.806 74.9249 93.2553 74.4301 93.9524 74.1132C94.8452 73.7074 96.0993 73.6295 97.6049 73.058C99.1349 72.4774 100.202 71.3537 101.014 71.1102C101.826 70.8667 102.941 71.1101 103.449 71.5971Z" fill="#FFC943" fill-opacity="0.74"/>
<path d="M39.3119 62.5162L41.4351 61.1964L41.4351 61.1964L39.3119 62.5162ZM40.096 62.5832L38.2275 60.9223L40.096 62.5832ZM40.1758 62.0532L42.4506 61.0162L40.1758 62.0532ZM102.776 62.5162L100.653 61.1963L100.653 61.1964L102.776 62.5162ZM101.992 62.5832L103.86 60.9223L101.992 62.5832ZM101.912 62.0532L99.6371 61.0162L101.912 62.0532ZM37.7922 60.0715L35.669 61.3913L37.1887 63.836L39.3119 62.5162L41.4351 61.1964L39.9154 58.7516L37.7922 60.0715ZM40.1758 62.0532L42.4506 61.0162L40.067 55.7877L37.7922 56.8247L35.5174 57.8617L37.901 63.0903L40.1758 62.0532ZM39.3119 62.5162L37.1887 63.836C38.2442 65.534 40.6363 65.7384 41.9645 64.2441L40.096 62.5832L38.2275 60.9223C39.1196 59.9187 40.7262 60.0559 41.4351 61.1964L39.3119 62.5162ZM40.096 62.5832L41.9645 64.2441C42.7511 63.3592 42.9417 62.0935 42.4506 61.0162L40.1758 62.0532L37.901 63.0903C37.5712 62.3667 37.6992 61.5166 38.2275 60.9223L40.096 62.5832ZM104.295 60.0715L102.172 58.7516L100.653 61.1963L102.776 62.5162L104.899 63.836L106.419 61.3913L104.295 60.0715ZM101.912 62.0532L104.187 63.0903L106.57 57.8617L104.295 56.8247L102.021 55.7877L99.6371 61.0162L101.912 62.0532ZM102.776 62.5162L100.653 61.1964C101.361 60.0559 102.968 59.9187 103.86 60.9223L101.992 62.5832L100.123 64.2441C101.451 65.7384 103.843 65.534 104.899 63.836L102.776 62.5162ZM101.992 62.5832L103.86 60.9223C104.389 61.5167 104.516 62.3667 104.187 63.0903L101.912 62.0532L99.6371 61.0162C99.146 62.0935 99.3365 63.3591 100.123 64.2441L101.992 62.5832ZM42 62L37.2095 60.5677L35.2864 67H42V62ZM101 62V67H107.714L105.79 60.5677L101 62ZM95.7822 44.5484L100.573 43.1161L100.573 43.1161L95.7822 44.5484ZM47.2178 44.5484L42.4273 43.1161L42.4273 43.1161L47.2178 44.5484ZM41.2731 63.3182V58.3182C39.7053 58.3182 38.2283 59.0536 37.2833 60.3046L41.2731 63.3182ZM101.292 63.3182L105.282 60.3046C104.337 59.0536 102.86 58.3182 101.292 58.3182V63.3182ZM35 86.6948H30C30 89.4562 32.2386 91.6948 35 91.6948V86.6948ZM107.565 86.6948V91.6948C110.326 91.6948 112.565 89.4562 112.565 86.6948H107.565ZM106.876 70.7117L110.866 67.6981L110.866 67.6981L106.876 70.7117ZM35.6888 70.7117L31.699 67.6981L31.699 67.6981L35.6888 70.7117ZM47 58.2595L42.2552 56.6826C41.7485 58.207 42.0052 59.8821 42.9451 61.1849C43.885 62.4877 45.3936 63.2595 47 63.2595V58.2595ZM95.3247 58.2595V63.2595C96.9311 63.2595 98.4397 62.4877 99.3796 61.1849C100.319 59.8821 100.576 58.207 100.069 56.6826L95.3247 58.2595ZM91.5936 47.0333L86.8488 48.6102L86.8488 48.6102L91.5936 47.0333ZM50.7311 47.0333L45.9863 45.4563L45.9863 45.4563L50.7311 47.0333ZM37.7922 56.8247H42.7922C42.7922 54.0633 40.5536 51.8247 37.7922 51.8247V56.8247ZM37.7922 60.0715V65.0715H42.7922V60.0715H37.7922ZM104.295 56.8247V51.8247C101.534 51.8247 99.2954 54.0633 99.2954 56.8247H104.295ZM104.295 60.0715H99.2954V65.0715H104.295V60.0715ZM39.0639 74.1132L43.9449 73.0287L43.9449 73.0287L39.0639 74.1132ZM39.5509 71.5971L43.0114 75.2062L43.0114 75.2062L39.5509 71.5971ZM41.986 71.1102L43.4228 66.3211L41.986 71.1102ZM45.395 73.058L47.1692 68.3834L47.1692 68.3834L45.395 73.058ZM49.0476 74.1132L51.1167 69.5614L51.1167 69.5614L49.0476 74.1132ZM50.2652 75.5743L45.2949 76.1189L45.2949 76.1189L50.2652 75.5743ZM48.5606 77.847L51.434 81.939L51.434 81.9389L48.5606 77.847ZM45.2327 78.6587L45.6471 73.6759L45.2327 78.6587ZM41.5801 77.1168L38.8079 81.2779L38.8079 81.2779L41.5801 77.1168ZM103.936 74.1132L99.0551 73.0287L99.0551 73.0287L103.936 74.1132ZM103.449 71.5971L99.9886 75.2062L99.9886 75.2062L103.449 71.5971ZM101.014 71.1102L99.5772 66.3211L101.014 71.1102ZM97.6049 73.058L95.8308 68.3834L95.8308 68.3834L97.6049 73.058ZM93.9524 74.1132L91.8833 69.5614L91.8833 69.5614L93.9524 74.1132ZM92.7348 75.5743L97.7051 76.1189L97.7051 76.1189L92.7348 75.5743ZM94.4394 77.847L91.566 81.9389L91.566 81.939L94.4394 77.847ZM97.7673 78.6587L97.3529 73.6759L97.7673 78.6587ZM101.42 77.1168L104.192 81.2779L104.192 81.2779L101.42 77.1168ZM41.4091 84.7466V89.7466H45.3052V84.7466V79.7466H41.4091V84.7466ZM48.7143 88.1557H43.7143V90.5907H48.7143H53.7143V88.1557H48.7143ZM45.3052 93.9998V88.9998H41.4091V93.9998V98.9998H45.3052V93.9998ZM38 90.5907H43V88.1557H38H33V90.5907H38ZM41.4091 93.9998V88.9998C42.2877 88.9998 43 89.7121 43 90.5907H38H33C33 95.2349 36.7649 98.9998 41.4091 98.9998V93.9998ZM48.7143 90.5907H43.7143C43.7143 89.7121 44.4266 88.9998 45.3052 88.9998V93.9998V98.9998C49.9494 98.9998 53.7143 95.2349 53.7143 90.5907H48.7143ZM45.3052 84.7466V89.7466C44.4266 89.7466 43.7143 89.0343 43.7143 88.1557H48.7143H53.7143C53.7143 83.5115 49.9494 79.7466 45.3052 79.7466V84.7466ZM41.4091 84.7466V79.7466C36.7649 79.7466 33 83.5115 33 88.1557H38H43C43 89.0343 42.2877 89.7466 41.4091 89.7466V84.7466ZM97.4091 84.7466V89.7466H101.305V84.7466V79.7466H97.4091V84.7466ZM104.714 88.1557H99.7143V90.5907H104.714H109.714V88.1557H104.714ZM101.305 93.9998V88.9998H97.4091V93.9998V98.9998H101.305V93.9998ZM94 90.5907H99V88.1557H94H89V90.5907H94ZM97.4091 93.9998V88.9998C98.2877 88.9998 99 89.7121 99 90.5907H94H89C89 95.2349 92.7649 98.9998 97.4091 98.9998V93.9998ZM104.714 90.5907H99.7143C99.7143 89.7121 100.427 88.9998 101.305 88.9998V93.9998V98.9998C105.949 98.9998 109.714 95.2349 109.714 90.5907H104.714ZM101.305 84.7466V89.7466C100.427 89.7466 99.7143 89.0343 99.7143 88.1557H104.714H109.714C109.714 83.5115 105.949 79.7466 101.305 79.7466V84.7466ZM97.4091 84.7466V79.7466C92.7649 79.7466 89 83.5115 89 88.1557H94H99C99 89.0343 98.2877 89.7466 97.4091 89.7466V84.7466ZM42 62L46.7905 63.4323L52.0083 45.9807L47.2178 44.5484L42.4273 43.1161L37.2095 60.5677L42 62ZM101 62L105.79 60.5677L100.573 43.1161L95.7822 44.5484L90.9917 45.9806L96.2095 63.4323L101 62ZM95.7822 44.5484L100.573 43.1161C99.4875 39.4867 96.1486 37 92.3604 37V42V47C91.7291 47 91.1726 46.5856 90.9917 45.9807L95.7822 44.5484ZM47.2178 44.5484L52.0083 45.9807C51.8274 46.5856 51.2709 47 50.6396 47V42V37C46.8514 37 43.5125 39.4867 42.4273 43.1161L47.2178 44.5484ZM41.2731 63.3182L37.2833 60.3046L31.699 67.6981L35.6888 70.7117L39.6786 73.7252L45.2629 66.3317L41.2731 63.3182ZM35 72.7664H30V86.6948H35H40V72.7664H35ZM101.292 63.3182L97.302 66.3317L102.886 73.7252L106.876 70.7117L110.866 67.6981L105.282 60.3046L101.292 63.3182ZM107.565 72.7664H102.565V86.6948H107.565H112.565V72.7664H107.565ZM106.876 70.7117L102.886 73.7252C102.678 73.4491 102.565 73.1124 102.565 72.7664H107.565H112.565C112.565 70.9371 111.968 69.1578 110.866 67.6981L106.876 70.7117ZM35.6888 70.7117L31.699 67.6981C30.5965 69.1578 30 70.9371 30 72.7664H35H40C40 73.1124 39.8872 73.4491 39.6786 73.7252L35.6888 70.7117ZM47 58.2595L51.7448 59.8365L55.4759 48.6102L50.7311 47.0333L45.9863 45.4563L42.2552 56.6826L47 58.2595ZM95.3247 58.2595L100.069 56.6826L96.3384 45.4563L91.5936 47.0333L86.8488 48.6102L90.5799 59.8365L95.3247 58.2595ZM91.5936 47.0333L96.3384 45.4563C95.4386 42.7489 92.9061 40.9219 90.0531 40.9219V45.9219V50.9219C88.5986 50.9219 87.3075 49.9905 86.8488 48.6102L91.5936 47.0333ZM50.7311 47.0333L55.4759 48.6102C55.0172 49.9905 53.7261 50.9219 52.2716 50.9219V45.9219V40.9219C49.4186 40.9219 46.8861 42.7489 45.9863 45.4563L50.7311 47.0333ZM31.6234 56.8247V61.8247H37.7922V56.8247V51.8247H31.6234V56.8247ZM37.7922 56.8247H32.7922V60.0715H37.7922H42.7922V56.8247H37.7922ZM37.7922 60.0715V55.0715H31.6234V60.0715V65.0715H37.7922V60.0715ZM31.6234 60.0715V55.0715C33.4882 55.0715 35 56.5832 35 58.4481H30H25C25 62.1061 27.9654 65.0715 31.6234 65.0715V60.0715ZM31.6234 56.8247V51.8247C27.9654 51.8247 25 54.7901 25 58.4481H30H35C35 60.3129 33.4882 61.8247 31.6234 61.8247V56.8247ZM110.464 56.8247V51.8247H104.295V56.8247V61.8247H110.464V56.8247ZM104.295 56.8247H99.2954V60.0715H104.295H109.295V56.8247H104.295ZM104.295 60.0715V65.0715H110.464V60.0715V55.0715H104.295V60.0715ZM110.464 60.0715V65.0715C114.122 65.0715 117.088 62.1061 117.088 58.4481H112.088H107.088C107.088 56.5832 108.599 55.0715 110.464 55.0715V60.0715ZM110.464 56.8247V61.8247C108.599 61.8247 107.088 60.3129 107.088 58.4481H112.088H117.088C117.088 54.7901 114.122 51.8247 110.464 51.8247V56.8247ZM39.0639 74.1132L43.9449 73.0287C43.9984 73.2695 43.9998 73.4154 44 73.4453C44.0003 73.49 43.9976 73.5278 43.9896 73.5766C43.9832 73.6152 43.9578 73.7595 43.8682 73.9794C43.7936 74.1626 43.5633 74.6769 43.0114 75.2062L39.5509 71.5971L36.0905 67.9881C34.6329 69.3857 34.2487 71.1856 34.1226 71.9512C33.9643 72.9122 33.9345 74.0797 34.183 75.1978L39.0639 74.1132ZM39.5509 71.5971L43.0114 75.2062C42.6486 75.554 42.3168 75.7331 42.1351 75.8173C41.9389 75.9083 41.7787 75.9531 41.6619 75.9772C41.4897 76.0126 41.1076 76.0668 40.5491 75.8993L41.986 71.1102L43.4228 66.3211C42.0527 65.91 40.707 65.9642 39.6471 66.1822C38.6449 66.3884 37.2505 66.8758 36.0905 67.9881L39.5509 71.5971ZM41.986 71.1102L40.5491 75.8993C40.104 75.7657 39.8709 75.5976 39.998 75.6769C40.1153 75.7501 40.2285 75.8309 40.5923 76.0805C41.1848 76.4871 42.2545 77.2141 43.6209 77.7327L45.395 73.058L47.1692 68.3834C47.0057 68.3213 46.7767 68.1962 46.25 67.8349C46.0543 67.7006 45.6529 67.4185 45.2938 67.1943C44.9447 66.9764 44.2738 66.5764 43.4228 66.3211L41.986 71.1102ZM45.395 73.058L43.6209 77.7327C44.7225 78.1508 45.7077 78.3767 46.3261 78.5195C46.6686 78.5986 46.8417 78.6388 46.9866 78.6786C47.1198 78.7153 47.0881 78.7148 46.9786 78.6651L49.0476 74.1132L51.1167 69.5614C50.1145 69.1059 49.0208 68.8786 48.5762 68.776C47.9679 68.6355 47.5732 68.5367 47.1692 68.3834L45.395 73.058ZM49.0476 74.1132L46.9786 78.6651C46.8212 78.5935 46.4563 78.3972 46.0856 77.9622C45.6832 77.49 45.3749 76.8483 45.2949 76.1189L50.2652 75.5743L55.2354 75.0296C54.9106 72.0654 52.8299 70.3401 51.1167 69.5614L49.0476 74.1132ZM50.2652 75.5743L45.2949 76.1189C45.2219 75.4525 45.3147 74.9197 45.3973 74.5971C45.4817 74.2681 45.5876 74.0327 45.6504 73.9066C45.769 73.6683 45.86 73.5685 45.8285 73.6071C45.8129 73.6262 45.7709 73.6729 45.7132 73.727C45.6504 73.7857 45.6337 73.7927 45.6873 73.7551L48.5606 77.847L51.434 81.9389C52.1725 81.4203 52.9484 80.6975 53.5709 79.936C53.8877 79.5484 54.2792 79.0123 54.6024 78.3631C54.872 77.8216 55.4068 76.5934 55.2354 75.0296L50.2652 75.5743ZM48.5606 77.847L45.6873 73.7551C45.7781 73.6913 45.8541 73.6445 45.9089 73.6128C45.9643 73.5806 46.0076 73.5582 46.0358 73.5442C46.0643 73.5301 46.0834 73.5217 46.0915 73.5182C46.0998 73.5146 46.1008 73.5143 46.094 73.517C46.0789 73.5227 46.0446 73.535 45.9915 73.551C45.9391 73.5668 45.8775 73.5836 45.8098 73.5998C45.7421 73.6159 45.6748 73.6299 45.6113 73.6413C45.5474 73.6528 45.4951 73.6602 45.4571 73.6646C45.4386 73.6667 45.4261 73.6678 45.4195 73.6683C45.4128 73.6689 45.4148 73.6686 45.4251 73.6682C45.4351 73.6678 45.4578 73.6672 45.4921 73.6678C45.5258 73.6684 45.5784 73.6702 45.6471 73.6759L45.2327 78.6587L44.8183 83.6415C46.0231 83.7417 47.2712 83.5318 48.1307 83.3267C48.9266 83.1368 50.2916 82.7411 51.434 81.939L48.5606 77.847ZM45.2327 78.6587L45.6471 73.6759C45.48 73.662 45.3959 73.6396 45.3694 73.6318C45.3455 73.6248 45.3318 73.619 45.3099 73.6076C45.2789 73.5914 45.2167 73.556 45.0703 73.4552C44.9889 73.3991 44.9146 73.3462 44.7881 73.2567C44.6767 73.1779 44.5213 73.0683 44.3524 72.9558L41.5801 77.1168L38.8079 81.2779C39.2869 81.597 41.3116 83.3499 44.8183 83.6415L45.2327 78.6587ZM41.5801 77.1168L44.3524 72.9558C44.419 73.0001 44.4624 73.0328 44.4796 73.0461C44.4983 73.0605 44.5041 73.0656 44.4961 73.0589C44.4783 73.0439 44.434 73.005 44.3655 72.9392C44.2264 72.8055 44.056 72.6268 43.892 72.4371C43.8122 72.3447 43.7422 72.2594 43.6845 72.1852C43.6254 72.1093 43.59 72.059 43.5745 72.036C43.5544 72.006 43.585 72.0476 43.6383 72.1515C43.6664 72.2064 43.7126 72.3014 43.7636 72.4311C43.8127 72.5559 43.8852 72.7604 43.9449 73.0287L39.0639 74.1132L34.183 75.1978C34.4412 76.36 35.0449 77.2714 35.2711 77.6085C35.6031 78.1033 35.9793 78.5748 36.3259 78.9758C36.9228 79.6664 37.8665 80.6507 38.8079 81.2779L41.5801 77.1168ZM103.936 74.1132L108.817 75.1978C109.066 74.0797 109.036 72.9122 108.877 71.9512C108.751 71.1856 108.367 69.3857 106.91 67.9881L103.449 71.5971L99.9886 75.2062C99.4367 74.6769 99.2064 74.1626 99.1318 73.9794C99.0422 73.7595 99.0168 73.6153 99.0104 73.5766C99.0024 73.5278 98.9997 73.49 99 73.4453C99.0002 73.4154 99.0016 73.2695 99.0551 73.0287L103.936 74.1132ZM103.449 71.5971L106.91 67.9881C105.749 66.8758 104.355 66.3884 103.353 66.1822C102.293 65.9642 100.947 65.91 99.5772 66.3211L101.014 71.1102L102.451 75.8993C101.892 76.0668 101.51 76.0126 101.338 75.9772C101.221 75.9531 101.061 75.9083 100.865 75.8173C100.683 75.7331 100.351 75.554 99.9886 75.2062L103.449 71.5971ZM101.014 71.1102L99.5772 66.3211C98.7262 66.5764 98.0553 66.9764 97.7062 67.1943C97.3471 67.4185 96.9457 67.7006 96.75 67.8349C96.2233 68.1962 95.9943 68.3213 95.8308 68.3834L97.6049 73.058L99.3791 77.7327C100.746 77.2141 101.815 76.4871 102.408 76.0805C102.772 75.8309 102.885 75.7501 103.002 75.6769C103.129 75.5976 102.896 75.7657 102.451 75.8993L101.014 71.1102ZM97.6049 73.058L95.8308 68.3834C95.4268 68.5367 95.0321 68.6355 94.4238 68.776C93.9792 68.8786 92.8855 69.1059 91.8833 69.5614L93.9524 74.1132L96.0214 78.6651C95.9119 78.7148 95.8802 78.7153 96.0134 78.6786C96.1583 78.6388 96.3314 78.5986 96.6739 78.5195C97.2923 78.3767 98.2775 78.1508 99.3791 77.7327L97.6049 73.058ZM93.9524 74.1132L91.8833 69.5614C90.1702 70.3401 88.0894 72.0654 87.7646 75.0296L92.7348 75.5743L97.7051 76.1189C97.6251 76.8483 97.3168 77.49 96.9144 77.9622C96.5437 78.3972 96.1788 78.5935 96.0214 78.6651L93.9524 74.1132ZM92.7348 75.5743L87.7646 75.0296C87.5932 76.5934 88.128 77.8216 88.3976 78.3631C88.7208 79.0123 89.1123 79.5484 89.4291 79.936C90.0516 80.6975 90.8275 81.4203 91.566 81.9389L94.4394 77.847L97.3127 73.7551C97.3663 73.7927 97.3496 73.7857 97.2868 73.727C97.2291 73.6729 97.1871 73.6262 97.1715 73.6071C97.14 73.5685 97.231 73.6683 97.3496 73.9066C97.4124 74.0327 97.5183 74.2681 97.6027 74.5971C97.6853 74.9197 97.7781 75.4525 97.7051 76.1189L92.7348 75.5743ZM94.4394 77.847L91.566 81.939C92.7084 82.7411 94.0734 83.1368 94.8693 83.3267C95.7288 83.5318 96.9769 83.7417 98.1817 83.6415L97.7673 78.6587L97.3529 73.6759C97.4216 73.6702 97.4742 73.6684 97.5079 73.6678C97.5422 73.6672 97.5649 73.6678 97.5749 73.6682C97.5852 73.6686 97.5872 73.6689 97.5804 73.6683C97.5739 73.6678 97.5614 73.6667 97.5429 73.6646C97.5049 73.6602 97.4526 73.6528 97.3887 73.6413C97.3252 73.6299 97.2579 73.6159 97.1902 73.5998C97.1225 73.5836 97.0609 73.5668 97.0085 73.551C96.9554 73.535 96.9211 73.5227 96.906 73.517C96.8992 73.5143 96.9002 73.5146 96.9085 73.5182C96.9166 73.5217 96.9357 73.5301 96.9642 73.5442C96.9924 73.5582 97.0357 73.5806 97.0911 73.6128C97.1459 73.6445 97.2219 73.6913 97.3127 73.7551L94.4394 77.847ZM97.7673 78.6587L98.1817 83.6415C101.688 83.3499 103.713 81.597 104.192 81.2779L101.42 77.1168L98.6476 72.9558C98.4787 73.0683 98.3233 73.1779 98.2119 73.2567C98.0854 73.3462 98.0111 73.3991 97.9297 73.4552C97.7833 73.556 97.7211 73.5914 97.6901 73.6076C97.6682 73.619 97.6545 73.6248 97.6306 73.6318C97.6041 73.6396 97.52 73.662 97.3529 73.6759L97.7673 78.6587ZM101.42 77.1168L104.192 81.2779C105.133 80.6507 106.077 79.6664 106.674 78.9758C107.021 78.5748 107.397 78.1033 107.729 77.6085C107.955 77.2715 108.559 76.36 108.817 75.1978L103.936 74.1132L99.0551 73.0287C99.1148 72.7604 99.1873 72.5559 99.2364 72.4311C99.2874 72.3014 99.3336 72.2064 99.3617 72.1515C99.415 72.0476 99.4456 72.006 99.4255 72.036C99.41 72.059 99.3746 72.1093 99.3155 72.1852C99.2578 72.2594 99.1878 72.3447 99.108 72.4371C98.944 72.6268 98.7736 72.8055 98.6345 72.9392C98.566 73.005 98.5217 73.0439 98.5039 73.0589C98.4959 73.0656 98.5017 73.0605 98.5204 73.0461C98.5376 73.0328 98.581 73.0001 98.6476 72.9558L101.42 77.1168ZM50.6396 42V47H92.3604V42V37H50.6396V42ZM42 62V67H101V62V57H42V62ZM41.2731 63.3182V68.3182H101.292V63.3182V58.3182H41.2731V63.3182ZM35 86.6948V91.6948H107.565V86.6948V81.6948H35V86.6948ZM52.2716 45.9219V50.9219H90.0531V45.9219V40.9219H52.2716V45.9219ZM47 58.2595V63.2595H95.3247V58.2595V53.2595H47V58.2595Z" fill="white" mask="url(#path-7-outside-1_275_181)"/>
<rect x="37" y="83.7466" width="12.7143" height="11.2532" rx="4.40909" fill="#707583" stroke="black" stroke-width="2"/>
<rect x="93" y="83.7466" width="12.7143" height="11.2532" rx="4.40909" fill="#707583" stroke="black" stroke-width="2"/>
<path d="M92.3604 41C94.3806 41 96.1614 42.3261 96.7402 44.2617L101.958 61.7139L102.343 63H40.6572L41.042 61.7139L46.2598 44.2617L46.3174 44.082C46.95 42.2445 48.6825 41 50.6396 41H92.3604Z" fill="#D9D9D9" stroke="black" stroke-width="2"/>
<path d="M101.292 62.3182L101.408 62.325C101.677 62.3566 101.924 62.4967 102.09 62.7156L107.674 70.1092L107.878 70.4031C108.325 71.1076 108.564 71.927 108.564 72.7664V86.6951C108.564 87.2473 108.117 87.6951 107.564 87.6951H35C34.4478 87.6951 34.0002 87.2473 34 86.6951V72.7664C34 71.8074 34.3127 70.8745 34.8906 70.1092L40.4756 62.7156L40.5508 62.6268C40.7382 62.4309 40.999 62.3182 41.2734 62.3182H101.292Z" fill="#D9D9D9" stroke="black" stroke-width="2" stroke-linejoin="round"/>
<g filter="url(#filter2_i_275_181)">
<path d="M47 58.2595L50.7311 47.0333C50.9516 46.3697 51.5723 45.9219 52.2716 45.9219H71.1623H90.0531C90.7523 45.9219 91.373 46.3697 91.5936 47.0333L95.3247 58.2595H71.1623H47Z" fill="#81DAFC"/>
</g>
<path d="M90.0527 44.9219C91.1828 44.9219 92.1866 45.6454 92.543 46.7178L96.2734 57.9443C96.3747 58.2492 96.3237 58.5842 96.1357 58.8447C95.9478 59.1053 95.6455 59.2598 95.3242 59.2598H47C46.6788 59.2598 46.3774 59.1051 46.1895 58.8447C46.0015 58.5842 45.9496 58.2492 46.0508 57.9443L49.7822 46.7178L49.8564 46.5205C50.2645 45.5577 51.2123 44.9219 52.2715 44.9219H90.0527Z" stroke="black" stroke-width="2" stroke-linejoin="round"/>
<path d="M37.792 55.8247L37.8945 55.8296C38.2547 55.8662 38.5571 56.0948 38.7012 56.4106L38.7021 56.4097L41.0859 61.6382L41.1279 61.7397C41.3053 62.2191 41.2237 62.7567 40.9131 63.1626L40.8438 63.2476C40.2229 63.946 39.1353 63.9001 38.5684 63.1938L38.4629 63.0444L37.2373 61.0718H31.623C30.1743 61.0716 29 59.8965 29 58.4478C29.0002 56.9992 30.1745 55.8249 31.623 55.8247H37.792Z" fill="#707583" stroke="black" stroke-width="2" stroke-linejoin="round"/>
<path d="M104.296 55.8247L104.193 55.8296C103.833 55.8662 103.531 56.0948 103.386 56.4106L103.385 56.4097L101.002 61.6382L100.96 61.7397C100.782 62.2191 100.864 62.7567 101.175 63.1626L101.244 63.2476C101.865 63.946 102.952 63.9001 103.519 63.1938L103.625 63.0444L104.85 61.0718H110.465C111.913 61.0716 113.088 59.8965 113.088 58.4478C113.087 56.9992 111.913 55.8249 110.465 55.8247H104.296Z" fill="#707583" stroke="black" stroke-width="2" stroke-linejoin="round"/>
<g filter="url(#filter3_i_275_181)">
<path d="M39.5509 71.5971C39.043 72.0841 38.9016 73.3828 39.0639 74.1132C39.2262 74.8437 40.8496 76.6301 41.5801 77.1168C42.4278 77.6816 43.2847 78.4967 45.2327 78.6587C46.1225 78.7327 47.8671 78.334 48.5606 77.847C49.2542 77.36 50.3363 76.2236 50.2652 75.5743C50.194 74.9249 49.7447 74.4301 49.0476 74.1132C48.1548 73.7074 46.9007 73.6295 45.395 73.058C43.8651 72.4774 42.7977 71.3537 41.986 71.1102C41.1743 70.8667 40.0589 71.1101 39.5509 71.5971Z" fill="white" fill-opacity="0.74"/>
</g>
<path d="M40.4531 70.1006C41.0202 69.9839 41.6747 69.9727 42.2734 70.1523L42.5176 70.2393C42.7572 70.3376 42.9804 70.4649 43.1758 70.5869C43.4381 70.7507 43.7243 70.9524 43.9873 71.1328C44.5403 71.5122 45.1054 71.8784 45.75 72.123L46.2529 72.2988C46.7471 72.4569 47.2166 72.5678 47.6758 72.6738C48.2554 72.8077 48.9043 72.9497 49.4619 73.2031L49.6289 73.2832C50.4564 73.7059 51.1445 74.423 51.2588 75.4658L51.2686 75.6289C51.2705 76.0056 51.1402 76.3415 51.0215 76.5801C50.875 76.8743 50.6763 77.1563 50.4736 77.4043C50.1209 77.8357 49.6867 78.2494 49.2988 78.5459L49.1357 78.665C48.6298 79.0203 47.8686 79.2765 47.2021 79.4355C46.608 79.5773 45.9395 79.6775 45.3818 79.667L45.1494 79.6553C43.4546 79.5142 42.4178 78.9146 41.6787 78.4062L41.0254 77.9492C40.545 77.6291 39.8858 76.9774 39.3525 76.3604C39.0764 76.0408 38.8083 75.701 38.5928 75.3799C38.4226 75.1264 38.2283 74.8023 38.126 74.4717L38.0879 74.3301C37.9733 73.8143 37.9749 73.1752 38.0693 72.6016C38.1574 72.067 38.3638 71.3493 38.8584 70.875L39.0293 70.7266C39.4439 70.3989 39.9671 70.2006 40.4531 70.1006Z" stroke="black" stroke-width="2"/>
<g filter="url(#filter4_i_275_181)">
<path d="M103.449 71.5971C103.957 72.0841 104.098 73.3828 103.936 74.1132C103.774 74.8437 102.15 76.6301 101.42 77.1168C100.572 77.6816 99.7153 78.4967 97.7673 78.6587C96.8775 78.7327 95.1329 78.334 94.4394 77.847C93.7458 77.36 92.6637 76.2236 92.7348 75.5743C92.806 74.9249 93.2553 74.4301 93.9524 74.1132C94.8452 73.7074 96.0993 73.6295 97.605 73.058C99.1349 72.4774 100.202 71.3537 101.014 71.1102C101.826 70.8667 102.941 71.1101 103.449 71.5971Z" fill="white" fill-opacity="0.74"/>
</g>
<path d="M102.547 70.1006C101.98 69.9839 101.325 69.9727 100.727 70.1523L100.482 70.2393C100.243 70.3376 100.02 70.4649 99.8242 70.5869C99.5619 70.7507 99.2757 70.9524 99.0127 71.1328C98.4597 71.5122 97.8946 71.8784 97.25 72.123L96.7471 72.2988C96.2529 72.4569 95.7834 72.5678 95.3242 72.6738C94.7446 72.8077 94.0957 72.9497 93.5381 73.2031L93.3711 73.2832C92.5436 73.7059 91.8555 74.423 91.7412 75.4658L91.7314 75.6289C91.7295 76.0056 91.8598 76.3415 91.9785 76.5801C92.125 76.8743 92.3237 77.1563 92.5264 77.4043C92.8791 77.8357 93.3133 78.2494 93.7012 78.5459L93.8643 78.665C94.3702 79.0203 95.1314 79.2765 95.7979 79.4355C96.392 79.5773 97.0605 79.6775 97.6182 79.667L97.8506 79.6553C99.5454 79.5142 100.582 78.9146 101.321 78.4062L101.975 77.9492C102.455 77.6291 103.114 76.9774 103.647 76.3604C103.924 76.0408 104.192 75.701 104.407 75.3799C104.577 75.1264 104.772 74.8023 104.874 74.4717L104.912 74.3301C105.027 73.8143 105.025 73.1752 104.931 72.6016C104.843 72.067 104.636 71.3493 104.142 70.875L103.971 70.7266C103.556 70.3989 103.033 70.2006 102.547 70.1006Z" stroke="black" stroke-width="2"/>
<g filter="url(#filter5_i_275_181)">
<path d="M46.0078 58.2088C46.0529 56.9526 46.4815 54.8932 46.4815 54.8932C46.4815 54.8932 49.0297 59.0541 50.9811 58.2088C53.0076 57.3309 51.4548 54.4966 51.4548 52.2882C51.4548 50.1717 51.6953 49.2286 52.4021 47.3149C53.4554 44.4624 55.1827 43.5756 56.6649 40.9206C57.897 38.7135 59.5068 35 59.5068 35C59.5068 35 61.0468 40.2765 60.9277 43.7625C60.8295 46.6384 57.8406 48.6088 59.5068 50.8672C60.013 51.5534 60.3216 52.1599 61.1646 52.2882C62.3355 52.4663 62.6884 51.211 63.5328 50.3936C64.7638 49.2019 66.3747 47.3149 66.3747 47.3149C66.3747 47.3149 65.2871 50.4794 65.1906 52.7618C65.094 55.0442 65.901 58.6824 65.901 58.6824C68.042 58.4033 71.5848 54.8932 71.5848 54.8932C71.5848 54.8932 72.0131 56.8487 72.0584 58.1049C72.3191 65.3217 66.0163 71.1447 58.7963 70.9973C51.7237 70.8529 45.7541 65.2783 46.0078 58.2088Z" fill="#FFBA17"/>
</g>
<path d="M59.5693 34.002C59.9898 34.0283 60.3487 34.3153 60.4668 34.7197V34.7217C60.4671 34.7226 60.4683 34.7241 60.4688 34.7256C60.4696 34.7286 60.4702 34.733 60.4717 34.7383C60.4749 34.7494 60.4794 34.7654 60.4854 34.7861C60.4972 34.8278 60.5145 34.8889 60.5361 34.9668C60.5793 35.1226 60.6411 35.3477 60.7139 35.6279C60.8593 36.1881 61.0514 36.9718 61.2402 37.8672C61.5901 39.5258 61.9434 41.6422 61.9336 43.4414L61.9268 43.7969C61.8681 45.5102 60.9344 46.997 60.4551 47.9834C60.189 48.531 60.0396 48.9405 60.0088 49.2949C59.9823 49.6002 60.0398 49.9051 60.3115 50.2734L60.5039 50.541C60.5643 50.6261 60.6171 50.7004 60.6689 50.7715C60.773 50.9142 60.8527 51.0144 60.9268 51.0908C61.0488 51.2166 61.147 51.2742 61.3154 51.2998L61.417 51.3027C61.4392 51.2993 61.4526 51.2932 61.4629 51.2881C61.5059 51.2666 61.5851 51.2107 61.7148 51.0605C61.8522 50.9015 61.9746 50.7248 62.167 50.4648C62.343 50.2271 62.5637 49.9393 62.8369 49.6748L63.2949 49.2188C63.764 48.7386 64.2565 48.2015 64.6709 47.7393C64.9452 47.4334 65.1819 47.1643 65.3496 46.9717C65.4332 46.8757 65.4995 46.7988 65.5449 46.7461C65.5675 46.7199 65.5851 46.6991 65.5967 46.6855C65.6025 46.6788 65.6075 46.6733 65.6104 46.6699L65.6143 46.666L65.6748 46.6006C65.9911 46.2902 66.4791 46.2232 66.8701 46.4463C67.2613 46.6696 67.4523 47.1244 67.3457 47.5547L67.3203 47.6396V47.6406L67.3105 47.6699C67.3033 47.6916 67.2915 47.7244 67.2773 47.7676C67.2489 47.854 67.2082 47.982 67.1582 48.1426C67.0581 48.4642 66.9236 48.9166 66.7861 49.4375C66.5416 50.3644 66.3021 51.4581 66.2168 52.4072L66.1895 52.8037C66.1457 53.8388 66.309 55.2359 66.4971 56.4209C66.5531 56.7737 66.6107 57.1016 66.6631 57.3867C66.8266 57.3084 67.003 57.2168 67.1895 57.1084C67.7666 56.7727 68.3698 56.3383 68.9258 55.8984C69.4789 55.4608 69.9705 55.0296 70.3242 54.707C70.5005 54.5463 70.6412 54.4131 70.7373 54.3213C70.7854 54.2754 70.8224 54.2395 70.8467 54.2158C70.8587 54.2041 70.8683 54.1961 70.874 54.1904C70.8769 54.1876 70.8787 54.1848 70.8799 54.1836L70.8809 54.1826L70.9834 54.0938C71.2341 53.9051 71.5622 53.8442 71.8682 53.9346C72.2178 54.0379 72.4835 54.3235 72.5615 54.6797L72.5625 54.6816C72.5628 54.6828 72.563 54.6845 72.5635 54.6865C72.5644 54.6909 72.5657 54.6972 72.5674 54.7051C72.5708 54.721 72.5758 54.7441 72.582 54.7734C72.5944 54.8321 72.6117 54.9168 72.6328 55.0215C72.6749 55.2308 72.7319 55.5234 72.79 55.8564C72.9041 56.5099 73.0323 57.3693 73.0576 58.0693L73.0654 58.4355C73.1261 65.9887 66.6023 71.9605 59.1377 72L58.7764 71.9971C51.2206 71.8428 44.7325 65.8726 45.0088 58.1729L45.0449 57.6211C45.0969 57.0464 45.1901 56.422 45.2754 55.9141C45.3334 55.5688 45.3897 55.2643 45.4316 55.0459C45.4527 54.9365 45.4701 54.8483 45.4824 54.7871C45.4886 54.7565 45.4937 54.7323 45.4971 54.7158C45.4987 54.7079 45.5001 54.7017 45.501 54.6973C45.5014 54.695 45.5017 54.6927 45.502 54.6914V54.6895L45.5449 54.5439C45.6676 54.2146 45.957 53.9697 46.3105 53.9082C46.6639 53.8469 47.0185 53.9797 47.2451 54.248L47.334 54.3711C47.3346 54.3721 47.3361 54.3741 47.3379 54.377C47.3415 54.3828 47.3473 54.3924 47.3555 54.4053C47.3719 54.4313 47.3971 54.4713 47.4307 54.5225C47.4979 54.625 47.598 54.7724 47.7236 54.9482C47.9772 55.303 48.3282 55.7581 48.7275 56.1816C49.1355 56.6144 49.5487 56.9659 49.9219 57.1631C50.2938 57.3596 50.4838 57.3344 50.584 57.291L50.668 57.251C50.8485 57.1545 50.9162 57.0442 50.96 56.9111C51.0294 56.7001 51.0472 56.3724 50.9854 55.8701C50.9235 55.3679 50.8053 54.8412 50.6836 54.2109C50.5686 53.6154 50.4551 52.9432 50.4551 52.2881C50.4551 51.1908 50.5167 50.3547 50.6826 49.5283C50.8471 48.7091 51.1071 47.9349 51.4639 46.9688L51.5752 46.6787C52.1439 45.2599 52.8718 44.294 53.6006 43.4082C54.3774 42.464 55.1059 41.6626 55.792 40.4336L56.0195 40.0156C56.5601 39.0058 57.1543 37.7633 57.6396 36.7129C57.9154 36.1161 58.1536 35.5873 58.3223 35.208C58.4064 35.0188 58.4738 34.8671 58.5195 34.7627C58.5424 34.7105 58.5595 34.6697 58.5713 34.6426C58.5771 34.6292 58.582 34.6191 58.585 34.6123C58.5864 34.609 58.5872 34.6061 58.5879 34.6045L58.5889 34.6025L58.6621 34.4648C58.8551 34.16 59.2012 33.9789 59.5693 34.002Z" stroke="black" stroke-width="2" stroke-linejoin="round"/>
<g filter="url(#filter6_i_275_181)">
<path d="M78.005 89.8278C78.0338 89.0252 78.3076 87.7096 78.3076 87.7096C78.3076 87.7096 79.9357 90.3679 81.1824 89.8278C82.4771 89.267 81.485 87.4562 81.485 86.0452C81.485 84.693 81.6387 84.0905 82.0902 82.8678C82.7632 81.0454 83.8668 80.4789 84.8137 78.7826C85.6008 77.3725 86.6293 75 86.6293 75C86.6293 75 87.6133 78.3711 87.5372 80.5983C87.4744 82.4357 85.5648 83.6945 86.6293 85.1374C86.9528 85.5758 87.1499 85.9633 87.6885 86.0452C88.4366 86.159 88.662 85.357 89.2015 84.8348C89.988 84.0734 91.0172 82.8678 91.0172 82.8678C91.0172 82.8678 90.3223 84.8896 90.2606 86.3478C90.199 87.806 90.7146 90.1304 90.7146 90.1304C92.0824 89.9521 94.3459 87.7096 94.3459 87.7096C94.3459 87.7096 94.6195 88.9589 94.6484 89.7615C94.815 94.3722 90.7882 98.0924 86.1754 97.9983C81.6568 97.906 77.8429 94.3445 78.005 89.8278Z" fill="#FFBA17"/>
</g>
<path d="M86.6914 74.002C87.1118 74.0283 87.4708 74.3154 87.5889 74.7197L87.5898 74.7207C87.59 74.7214 87.5905 74.7226 87.5908 74.7236C87.5914 74.7257 87.5917 74.7288 87.5928 74.7324C87.5949 74.7399 87.5986 74.7509 87.6025 74.7646C87.6103 74.792 87.6208 74.8315 87.6348 74.8818C87.6628 74.9831 87.703 75.1293 87.75 75.3105C87.8439 75.6725 87.9678 76.179 88.0898 76.7578C88.2994 77.7513 88.5165 79.0226 88.5391 80.1562L88.5361 80.6328C88.4952 81.8269 87.8398 82.8763 87.5596 83.4531C87.3931 83.7957 87.3232 84.0073 87.3096 84.1641C87.3002 84.2717 87.3123 84.3795 87.4336 84.5439L87.5615 84.7207C87.6005 84.7757 87.6319 84.8205 87.6631 84.8633C87.7137 84.9327 87.7509 84.9761 87.7783 85.0068C87.8488 84.9232 87.9159 84.8314 88.0391 84.665C88.1536 84.5103 88.3089 84.3068 88.5059 84.1162L88.792 83.8311C89.0857 83.5304 89.3965 83.1925 89.6602 82.8984C89.834 82.7045 89.9835 82.5332 90.0898 82.4111C90.1429 82.3502 90.1853 82.3018 90.2139 82.2686C90.2282 82.2519 90.2388 82.2389 90.2461 82.2305C90.2494 82.2266 90.2522 82.2237 90.2539 82.2217C90.2548 82.2207 90.2555 82.2192 90.2559 82.2188H90.2568L90.3174 82.1533C90.6337 81.8431 91.1217 81.776 91.5127 81.999C91.9038 82.2223 92.0947 82.6772 91.9883 83.1074L91.9629 83.1924L91.957 83.21C91.9527 83.223 91.9462 83.2431 91.9375 83.2695C91.9199 83.3231 91.8936 83.4033 91.8623 83.5039C91.7995 83.7055 91.7151 83.9898 91.6289 84.3164C91.4521 84.9867 91.286 85.7718 91.2598 86.3896C91.2334 87.0127 91.3325 87.8754 91.4521 88.6289C91.4582 88.6668 91.4647 88.7043 91.4707 88.7412C91.7846 88.549 92.1134 88.3141 92.4229 88.0693C92.7678 87.7964 93.0751 87.5265 93.2969 87.3242C93.4073 87.2235 93.496 87.14 93.5557 87.083C93.5851 87.0548 93.6074 87.0329 93.6221 87.0186C93.6294 87.0114 93.6354 87.0062 93.6387 87.0029L93.6416 86.999C93.9007 86.7424 94.2792 86.6477 94.6289 86.751C94.9787 86.8543 95.2442 87.1398 95.3223 87.4961H95.3232V87.4971C95.3234 87.498 95.3239 87.4995 95.3242 87.501C95.3249 87.504 95.325 87.5084 95.3262 87.5137C95.3284 87.5243 95.3319 87.5395 95.3359 87.5586C95.344 87.597 95.3555 87.6518 95.3691 87.7197C95.3965 87.8558 95.4339 88.046 95.4717 88.2627C95.545 88.683 95.6304 89.2523 95.6475 89.7256L95.6514 90.2139C95.5545 95.0606 91.4038 98.8478 86.6338 98.9951L86.1553 98.998C81.1535 98.8959 76.8212 94.9388 77.0059 89.792L77.0303 89.4219C77.0648 89.0384 77.1259 88.6278 77.1807 88.3018C77.2182 88.078 77.255 87.8808 77.2822 87.7393C77.2959 87.6683 77.3074 87.6103 77.3154 87.5703C77.3194 87.5507 77.323 87.5353 77.3252 87.5244C77.3263 87.5189 77.3265 87.5138 77.3271 87.5107C77.3274 87.5095 77.328 87.5086 77.3281 87.5078V87.5059L77.3711 87.3594C77.494 87.0305 77.7834 86.786 78.1367 86.7246C78.5402 86.6546 78.9449 86.8377 79.1592 87.1865H79.1602C79.1604 87.187 79.1604 87.1883 79.1611 87.1895C79.163 87.1925 79.1663 87.1977 79.1709 87.2051C79.1804 87.2201 79.1965 87.2434 79.2168 87.2744C79.2575 87.3365 79.3175 87.4274 79.3945 87.5352C79.5508 87.7537 79.7647 88.0304 80.0049 88.2852C80.2538 88.5492 80.487 88.7416 80.6748 88.8408C80.7443 88.8775 80.7882 88.8902 80.8115 88.8955C80.8166 88.8928 80.8212 88.8916 80.8242 88.8896C80.8246 88.8885 80.8257 88.8871 80.8262 88.8857C80.8453 88.8274 80.8646 88.6821 80.8271 88.3779C80.7896 88.0734 80.7182 87.759 80.6377 87.3418C80.5639 86.9594 80.4854 86.5006 80.4854 86.0449C80.4854 85.3299 80.5254 84.7702 80.6377 84.2109C80.7486 83.6587 80.9231 83.1423 81.1523 82.5215L81.3057 82.1387C81.6764 81.2836 82.1336 80.6817 82.5771 80.1426C83.0836 79.527 83.5219 79.0447 83.9404 78.2949L84.2314 77.7529C84.5297 77.1767 84.8441 76.5176 85.1094 75.9434C85.2847 75.564 85.4357 75.2275 85.543 74.9863C85.5965 74.8659 85.6389 74.7693 85.668 74.7031C85.6825 74.67 85.6937 74.644 85.7012 74.627C85.7047 74.6188 85.7072 74.6125 85.709 74.6084C85.7099 74.6064 85.7105 74.6045 85.7109 74.6035L85.7119 74.6025L85.7852 74.4648C85.9781 74.1603 86.3236 73.9791 86.6914 74.002Z" stroke="black" stroke-width="2" stroke-linejoin="round"/>
<defs>
<filter id="filter0_i_275_181" x="39.9996" y="29.9999" width="37.0669" height="47" filterUnits="userSpaceOnUse" color-interpolation-filters="sRGB">
<feFlood flood-opacity="0" result="BackgroundImageFix"/>
<feBlend mode="normal" in="SourceGraphic" in2="BackgroundImageFix" result="shape"/>
<feColorMatrix in="SourceAlpha" type="matrix" values="0 0 0 0 0 0 0 0 0 0 0 0 0 0 0 0 0 0 127 0" result="hardAlpha"/>
<feOffset dx="-3" dy="4"/>
<feGaussianBlur stdDeviation="0.5"/>
<feComposite in2="hardAlpha" operator="arithmetic" k2="-1" k3="1"/>
<feColorMatrix type="matrix" values="0 0 0 0 0.875 0 0 0 0 0 0 0 0 0 0 0 0 0 0.25 0"/>
<feBlend mode="normal" in2="shape" result="effect1_innerShadow_275_181"/>
</filter>
<filter id="filter1_i_275_181" x="71.9996" y="69.9999" width="27.6541" height="34" filterUnits="userSpaceOnUse" color-interpolation-filters="sRGB">
<feFlood flood-opacity="0" result="BackgroundImageFix"/>
<feBlend mode="normal" in="SourceGraphic" in2="BackgroundImageFix" result="shape"/>
<feColorMatrix in="SourceAlpha" type="matrix" values="0 0 0 0 0 0 0 0 0 0 0 0 0 0 0 0 0 0 127 0" result="hardAlpha"/>
<feOffset dx="-3" dy="4"/>
<feGaussianBlur stdDeviation="0.5"/>
<feComposite in2="hardAlpha" operator="arithmetic" k2="-1" k3="1"/>
<feColorMatrix type="matrix" values="0 0 0 0 0.875 0 0 0 0 0 0 0 0 0 0 0 0 0 0.25 0"/>
<feBlend mode="normal" in2="shape" result="effect1_innerShadow_275_181"/>
</filter>
<filter id="filter2_i_275_181" x="43" y="43.9219" width="54.3247" height="18.3376" filterUnits="userSpaceOnUse" color-interpolation-filters="sRGB">
<feFlood flood-opacity="0" result="BackgroundImageFix"/>
<feBlend mode="normal" in="SourceGraphic" in2="BackgroundImageFix" result="shape"/>
<feColorMatrix in="SourceAlpha" type="matrix" values="0 0 0 0 0 0 0 0 0 0 0 0 0 0 0 0 0 0 127 0" result="hardAlpha"/>
<feOffset dx="-3" dy="4"/>
<feGaussianBlur stdDeviation="1"/>
<feComposite in2="hardAlpha" operator="arithmetic" k2="-1" k3="1"/>
<feColorMatrix type="matrix" values="0 0 0 0 0.0252778 0 0 0 0 0.390963 0 0 0 0 0.733056 0 0 0 0.62 0"/>
<feBlend mode="normal" in2="shape" result="effect1_innerShadow_275_181"/>
</filter>
<filter id="filter3_i_275_181" x="35" y="69.0146" width="17.2686" height="13.6528" filterUnits="userSpaceOnUse" color-interpolation-filters="sRGB">
<feFlood flood-opacity="0" result="BackgroundImageFix"/>
<feBlend mode="normal" in="SourceGraphic" in2="BackgroundImageFix" result="shape"/>
<feColorMatrix in="SourceAlpha" type="matrix" values="0 0 0 0 0 0 0 0 0 0 0 0 0 0 0 0 0 0 127 0" result="hardAlpha"/>
<feOffset dx="-3" dy="4"/>
<feGaussianBlur stdDeviation="1"/>
<feComposite in2="hardAlpha" operator="arithmetic" k2="-1" k3="1"/>
<feColorMatrix type="matrix" values="0 0 0 0 0.0252778 0 0 0 0 0.390963 0 0 0 0 0.733056 0 0 0 0.62 0"/>
<feBlend mode="normal" in2="shape" result="effect1_innerShadow_275_181"/>
</filter>
<filter id="filter4_i_275_181" x="88.7314" y="69.0146" width="17.2686" height="13.6528" filterUnits="userSpaceOnUse" color-interpolation-filters="sRGB">
<feFlood flood-opacity="0" result="BackgroundImageFix"/>
<feBlend mode="normal" in="SourceGraphic" in2="BackgroundImageFix" result="shape"/>
<feColorMatrix in="SourceAlpha" type="matrix" values="0 0 0 0 0 0 0 0 0 0 0 0 0 0 0 0 0 0 127 0" result="hardAlpha"/>
<feOffset dx="-3" dy="4"/>
<feGaussianBlur stdDeviation="1"/>
<feComposite in2="hardAlpha" operator="arithmetic" k2="-1" k3="1"/>
<feColorMatrix type="matrix" values="0 0 0 0 0.0252778 0 0 0 0 0.390963 0 0 0 0 0.733056 0 0 0 0.62 0"/>
<feBlend mode="normal" in2="shape" result="effect1_innerShadow_275_181"/>
</filter>
<filter id="filter5_i_275_181" x="42.9999" y="33" width="31.0665" height="41" filterUnits="userSpaceOnUse" color-interpolation-filters="sRGB">
<feFlood flood-opacity="0" result="BackgroundImageFix"/>
<feBlend mode="normal" in="SourceGraphic" in2="BackgroundImageFix" result="shape"/>
<feColorMatrix in="SourceAlpha" type="matrix" values="0 0 0 0 0 0 0 0 0 0 0 0 0 0 0 0 0 0 127 0" result="hardAlpha"/>
<feOffset dx="-3" dy="4"/>
<feGaussianBlur stdDeviation="0.5"/>
<feComposite in2="hardAlpha" operator="arithmetic" k2="-1" k3="1"/>
<feColorMatrix type="matrix" values="0 0 0 0 0.875 0 0 0 0 0 0 0 0 0 0 0 0 0 0.25 0"/>
<feBlend mode="normal" in2="shape" result="effect1_innerShadow_275_181"/>
</filter>
<filter id="filter6_i_275_181" x="74.9999" y="73" width="21.6537" height="28" filterUnits="userSpaceOnUse" color-interpolation-filters="sRGB">
<feFlood flood-opacity="0" result="BackgroundImageFix"/>
<feBlend mode="normal" in="SourceGraphic" in2="BackgroundImageFix" result="shape"/>
<feColorMatrix in="SourceAlpha" type="matrix" values="0 0 0 0 0 0 0 0 0 0 0 0 0 0 0 0 0 0 127 0" result="hardAlpha"/>
<feOffset dx="-3" dy="4"/>
<feGaussianBlur stdDeviation="0.5"/>
<feComposite in2="hardAlpha" operator="arithmetic" k2="-1" k3="1"/>
<feColorMatrix type="matrix" values="0 0 0 0 0.875 0 0 0 0 0 0 0 0 0 0 0 0 0 0.25 0"/>
<feBlend mode="normal" in2="shape" result="effect1_innerShadow_275_181"/>
</filter>
</defs>
</svg>
