<svg width="140" height="140" viewBox="0 0 140 140" fill="none" xmlns="http://www.w3.org/2000/svg">
<path d="M71 1C106.899 1 136 30.1015 136 66C136 101.899 106.899 131 71 131C56.0255 131 44.0339 127.845 33.0469 119.307C32.9367 119.406 32.814 119.519 32.6777 119.642C32.0431 120.214 31.1343 121.028 30.0381 121.999C27.8464 123.94 24.901 126.51 21.8906 129.019C18.8853 131.523 15.7947 133.984 13.3193 135.697C12.0879 136.55 10.9697 137.245 10.0713 137.664C9.62812 137.871 9.18022 138.038 8.7666 138.104C8.39071 138.163 7.76482 138.179 7.29297 137.707C6.86198 137.276 6.81946 136.684 6.82812 136.315C6.8381 135.893 6.92833 135.409 7.05957 134.906C7.32448 133.891 7.80855 132.598 8.42383 131.154C9.65898 128.256 11.4871 124.603 13.3652 121.034C15.2461 117.46 17.1888 113.952 18.6602 111.338C19.3961 110.03 20.0145 108.945 20.4492 108.188C20.57 107.977 20.6766 107.792 20.7676 107.634C10.3734 96.1265 6 82.7067 6 66C6 30.1015 35.1015 1 71 1Z" stroke="black" stroke-width="2"/>
<path d="M71 3.5C105.518 3.5 133.5 31.4822 133.5 66C133.5 100.518 105.518 128.5 71 128.5C56.1345 128.5 44.5569 125.326 33.9375 116.829L32.9355 116.027L31.9883 116.893H31.9873L31.9727 116.907C31.9619 116.917 31.9452 116.932 31.9238 116.951C31.8808 116.99 31.8171 117.049 31.7334 117.125C31.5657 117.277 31.3188 117.5 31.0039 117.784C30.3739 118.352 29.4708 119.162 28.3809 120.127C26.1998 122.059 23.2743 124.611 20.29 127.098C17.2982 129.591 14.2771 131.993 11.8965 133.642C11.0026 134.26 10.2305 134.75 9.60449 135.095C9.84316 134.311 10.2228 133.31 10.7236 132.135C11.9178 129.333 13.7071 125.751 15.5771 122.198C17.4432 118.653 19.3741 115.166 20.8389 112.563C21.5708 111.263 22.1854 110.184 22.6172 109.432C22.8331 109.055 23.0032 108.76 23.1191 108.56C23.1771 108.459 23.2221 108.383 23.252 108.331C23.2667 108.306 23.2777 108.286 23.2852 108.273C23.2889 108.267 23.2921 108.262 23.2939 108.259C23.2947 108.257 23.2955 108.257 23.2959 108.256L23.2969 108.255C23.297 108.255 23.2965 108.254 22 107.5L23.2969 108.254L23.8545 107.296L23.1016 106.481C12.8511 95.3964 8.5 82.4621 8.5 66C8.5 31.4822 36.4822 3.5 71 3.5Z" fill="#211F1E" stroke="white" stroke-width="3"/>
<path d="M71.2002 35.5C85.3584 35.5001 96.842 46.9488 96.8994 61.0938L96.8955 61.3154L96.8779 61.5469C96.8122 62.1863 96.2923 67.0847 95.041 70.4062L94.918 70.7227C94.0813 72.7928 92.5982 75.0057 91.3682 76.6689C90.1311 78.3417 89.0172 79.6328 88.7393 79.9512C88.5563 80.1925 87.8128 81.1869 87.0049 82.4512C86.2609 83.6154 85.5511 84.8732 85.1338 85.9307L84.9736 86.3701C84.613 87.4619 84.3855 89.0513 84.2529 90.459L84.2012 91.0488C84.0182 93.3614 82.1067 95.2997 79.6475 95.2998H62.7529C60.2936 95.2998 58.3812 93.3615 58.1982 91.0488C58.0845 89.6108 57.8673 87.8535 57.501 86.6113L57.4258 86.3701C57.0504 85.234 56.2446 83.7815 55.3945 82.4512C54.5869 81.1874 53.8443 80.1928 53.6611 79.9512C53.3835 79.6331 52.2695 78.342 51.0322 76.6689C49.879 75.1096 48.5034 73.0674 47.6465 71.1123L47.4824 70.7227C46.1418 67.4054 45.5903 62.2071 45.5225 61.5469C45.5062 61.389 45.4994 61.239 45.5 61.0938L45.5107 60.4336C45.9162 46.5943 57.2629 35.5 71.2002 35.5ZM53.668 79.96L53.6748 79.9678C53.6722 79.9647 53.6698 79.9613 53.667 79.958L53.668 79.96ZM88.7256 79.9678C88.7265 79.9668 88.729 79.9641 88.7324 79.96L88.7334 79.958C88.7306 79.9613 88.7282 79.9647 88.7256 79.9678Z" fill="#FFE158" stroke="white" stroke-width="5"/>
<path d="M80 43C80 43 85.3457 46.6063 87.75 50.5C89.9341 54.0371 91.5 60 91.5 60" stroke="white" stroke-width="5" stroke-linecap="round"/>
<rect x="59.5" y="95.5" width="23" height="7" rx="3.5" fill="#ACACAC" stroke="white" stroke-width="5"/>
<rect x="60.5" y="102.5" width="21" height="7" rx="3.5" fill="#ACACAC" stroke="white" stroke-width="5"/>
<path d="M70 21V33" stroke="white" stroke-width="6" stroke-linecap="round"/>
<path d="M91.4703 27L85 37.1062" stroke="white" stroke-width="6" stroke-linecap="round"/>
<path d="M104.378 40L95 47.4875" stroke="white" stroke-width="6" stroke-linecap="round"/>
<path d="M50.9072 27L57.3775 37.1062" stroke="white" stroke-width="6" stroke-linecap="round"/>
<path d="M38 40L47.3775 47.4875" stroke="white" stroke-width="6" stroke-linecap="round"/>
<path d="M71.2002 37C84.5321 37.0001 95.3456 47.7812 95.3994 61.1006L95.3965 61.2451L95.3857 61.3936C95.3186 62.0474 94.8405 66.4678 93.7529 69.5615L93.5273 70.1611C92.7648 72.0479 91.3764 74.1353 90.1621 75.7773C89.2425 77.0208 88.3923 78.0481 87.9248 78.5986L87.5967 78.9805L87.5557 79.0303C87.3787 79.2632 86.5952 80.3072 85.7412 81.6436C84.9307 82.912 84.0974 84.3818 83.6367 85.6494L83.5498 85.8994C83.0764 87.3326 82.8282 89.3873 82.7061 90.9307C82.5815 92.5052 81.2827 93.7997 79.6475 93.7998H62.7529C61.1176 93.7998 59.8179 92.5053 59.6934 90.9307C59.5789 89.4839 59.3542 87.588 58.9365 86.1758L58.8506 85.8994C58.414 84.578 57.5236 82.9963 56.6592 81.6436C56.0185 80.6409 55.4171 79.8031 55.082 79.3486L54.8438 79.0303L54.8037 78.9805C54.5664 78.7092 53.4644 77.4352 52.2383 75.7773C51.0998 74.2379 49.8088 72.3066 49.0234 70.5166L48.873 70.1611C47.7813 67.4598 47.2317 63.3068 47.0635 61.8438L47.0146 61.3936C47.0043 61.2926 46.9996 61.1966 47 61.1006L47.0107 60.4775C47.3928 47.4464 58.0766 37 71.2002 37Z" fill="#FFE158" stroke="black" stroke-width="2"/>
<path d="M73.0186 60.8643L72.8398 61.5H82.0127L67.5752 81.1865L70.9863 67.1182L71.1357 66.5H61.0547L76.8691 47.1699L73.0186 60.8643Z" fill="white" stroke="black" stroke-linecap="round"/>
<rect x="61" y="97" width="20" height="4" rx="2" fill="#ACACAC" stroke="black" stroke-width="2"/>
<rect x="62" y="104" width="18" height="4" rx="2" fill="#ACACAC" stroke="black" stroke-width="2"/>
<path d="M70 21V33" stroke="black" stroke-width="2" stroke-linecap="round"/>
<path d="M91.4703 27L85 37.1062" stroke="black" stroke-width="2" stroke-linecap="round"/>
<path d="M104.378 40L95 47.4875" stroke="black" stroke-width="2" stroke-linecap="round"/>
<path d="M50.9072 27L57.3775 37.1062" stroke="black" stroke-width="2" stroke-linecap="round"/>
<path d="M38 40L47.3775 47.4875" stroke="black" stroke-width="2" stroke-linecap="round"/>
</svg>
