<svg width="140" height="140" viewBox="0 0 140 140" fill="none" xmlns="http://www.w3.org/2000/svg">
<path d="M71 1C106.899 1 136 30.1015 136 66C136 101.899 106.899 131 71 131C56.0255 131 44.0339 127.845 33.0469 119.307C32.9367 119.406 32.814 119.519 32.6777 119.642C32.0431 120.214 31.1343 121.028 30.0381 121.999C27.8464 123.94 24.901 126.51 21.8906 129.019C18.8853 131.523 15.7947 133.984 13.3193 135.697C12.0879 136.55 10.9697 137.245 10.0713 137.664C9.62812 137.871 9.18022 138.038 8.7666 138.104C8.39071 138.163 7.76482 138.179 7.29297 137.707C6.86198 137.276 6.81946 136.684 6.82812 136.315C6.8381 135.893 6.92833 135.409 7.05957 134.906C7.32448 133.891 7.80855 132.598 8.42383 131.154C9.65898 128.256 11.4871 124.603 13.3652 121.034C15.2461 117.46 17.1888 113.952 18.6602 111.338C19.3961 110.03 20.0145 108.945 20.4492 108.188C20.57 107.977 20.6766 107.792 20.7676 107.634C10.3734 96.1265 6 82.7067 6 66C6 30.1015 35.1015 1 71 1Z" stroke="black" stroke-width="2"/>
<path d="M71 3.5C105.518 3.5 133.5 31.4822 133.5 66C133.5 100.518 105.518 128.5 71 128.5C56.1345 128.5 44.5569 125.326 33.9375 116.829L32.9355 116.027L31.9883 116.893H31.9873L31.9727 116.907C31.9619 116.917 31.9452 116.932 31.9238 116.951C31.8808 116.99 31.8171 117.049 31.7334 117.125C31.5657 117.277 31.3188 117.5 31.0039 117.784C30.3739 118.352 29.4708 119.162 28.3809 120.127C26.1998 122.059 23.2743 124.611 20.29 127.098C17.2982 129.591 14.2771 131.993 11.8965 133.642C11.0026 134.26 10.2305 134.75 9.60449 135.095C9.84316 134.311 10.2228 133.31 10.7236 132.135C11.9178 129.333 13.7071 125.751 15.5771 122.198C17.4432 118.653 19.3741 115.166 20.8389 112.563C21.5708 111.263 22.1854 110.184 22.6172 109.432C22.8331 109.055 23.0032 108.76 23.1191 108.56C23.1771 108.459 23.2221 108.383 23.252 108.331C23.2667 108.306 23.2777 108.286 23.2852 108.273C23.2889 108.267 23.2921 108.262 23.2939 108.259C23.2947 108.257 23.2955 108.257 23.2959 108.256L23.2969 108.255C23.297 108.255 23.2965 108.254 22 107.5L23.2969 108.254L23.8545 107.296L23.1016 106.481C12.8511 95.3964 8.5 82.4621 8.5 66C8.5 31.4822 36.4822 3.5 71 3.5Z" fill="#211F1E" stroke="white" stroke-width="3"/>
<path d="M87.7714 54.5C99.0932 54.5 108.271 63.6782 108.271 75C108.271 86.3218 99.0932 95.5 87.7714 95.5C76.4495 95.5 67.2714 86.3218 67.2714 75C67.2714 63.6782 76.4495 54.5 87.7714 54.5Z" stroke="white" stroke-width="5"/>
<mask id="path-4-outside-1_275_181" maskUnits="userSpaceOnUse" x="44.7714" y="23" width="40" height="74" fill="black">
<rect fill="white" x="44.7714" y="23" width="40" height="74"/>
<path d="M80.7714 28C80.7714 27.4477 80.3236 27 79.7714 27H69.7714H50.7711C50.2188 27 49.7711 27.4477 49.7711 28L49.7714 52.9999V67.4999C49.7714 67.776 49.5475 67.9999 49.2714 67.9999C48.9952 67.9999 48.7714 68.2237 48.7714 68.4999V92.9999H53.7714V68.5026C53.7714 68.225 53.5463 67.9999 53.2686 67.9999C52.9931 67.9999 52.769 67.7835 52.7664 67.508C52.7474 65.5334 52.6848 58.0467 52.7714 52.9999C52.8998 45.5096 53.5085 34.6158 53.7079 31.858C53.7438 31.3622 54.1395 30.9755 54.6356 30.9424L68.7714 30.0001H69.0214C69.4356 30.0001 69.7714 30.3359 69.7714 30.7501C69.7714 31.1642 70.1071 31.5 70.5213 31.5L79.7714 31.5001C80.3236 31.5001 80.7714 31.0524 80.7714 30.5001V28Z"/>
</mask>
<path d="M80.7714 28C80.7714 27.4477 80.3236 27 79.7714 27H69.7714H50.7711C50.2188 27 49.7711 27.4477 49.7711 28L49.7714 52.9999V67.4999C49.7714 67.776 49.5475 67.9999 49.2714 67.9999C48.9952 67.9999 48.7714 68.2237 48.7714 68.4999V92.9999H53.7714V68.5026C53.7714 68.225 53.5463 67.9999 53.2686 67.9999C52.9931 67.9999 52.769 67.7835 52.7664 67.508C52.7474 65.5334 52.6848 58.0467 52.7714 52.9999C52.8998 45.5096 53.5085 34.6158 53.7079 31.858C53.7438 31.3622 54.1395 30.9755 54.6356 30.9424L68.7714 30.0001H69.0214C69.4356 30.0001 69.7714 30.3359 69.7714 30.7501C69.7714 31.1642 70.1071 31.5 70.5213 31.5L79.7714 31.5001C80.3236 31.5001 80.7714 31.0524 80.7714 30.5001V28Z" fill="#D9D9D9"/>
<path d="M68.7714 30.0001V26.0001C68.6826 26.0001 68.5939 26.0031 68.5053 26.009L68.7714 30.0001ZM49.7714 52.9999L53.7714 52.9999L53.7714 52.9998L49.7714 52.9999ZM48.7714 92.9999H44.7714V96.9999H48.7714V92.9999ZM53.7714 92.9999V96.9999H57.7714V92.9999H53.7714ZM52.7714 52.9999L56.7708 53.0684L56.7708 53.0684L52.7714 52.9999ZM52.7664 67.508L56.7662 67.4695L52.7664 67.508ZM53.7079 31.858L57.6975 32.1465L53.7079 31.858ZM54.6356 30.9424L54.9016 34.9335L54.6356 30.9424ZM79.7714 31.5001L79.7713 35.5001L79.7714 31.5001ZM70.5213 31.5L70.5213 27.5L70.5213 31.5ZM49.7711 28L53.7711 28L53.7711 28L49.7711 28ZM79.7714 27V23H69.7714V27V31H79.7714V27ZM70.5213 31.5L70.5213 35.5L79.7713 35.5001L79.7714 31.5001L79.7714 27.5001L70.5213 27.5L70.5213 31.5ZM80.7714 30.5001H84.7714V28H80.7714H76.7714V30.5001H80.7714ZM50.7711 27V31H69.7714V27V23H50.7711V27ZM49.7714 52.9999L53.7714 52.9998L53.7711 28L49.7711 28L45.7711 28.0001L45.7714 52.9999L49.7714 52.9999ZM48.7714 92.9999H52.7714V68.4999H48.7714H44.7714V92.9999H48.7714ZM53.7714 92.9999V88.9999H48.7714V92.9999V96.9999H53.7714V92.9999ZM53.7714 68.5026H49.7714V92.9999H53.7714H57.7714V68.5026H53.7714ZM53.7079 31.858L49.7184 31.5695C49.5151 34.3805 48.9019 45.35 48.7719 52.9313L52.7714 52.9999L56.7708 53.0684C56.8976 45.6692 57.5019 34.8511 57.6975 32.1465L53.7079 31.858ZM68.7714 30.0001L68.5053 26.009L54.3695 26.9513L54.6356 30.9424L54.9016 34.9335L69.0374 33.9913L68.7714 30.0001ZM52.7714 52.9999L48.7719 52.9313C48.6844 58.0397 48.7477 65.5783 48.7666 67.5464L52.7664 67.508L56.7662 67.4695C56.7472 65.4884 56.6853 58.0537 56.7708 53.0684L52.7714 52.9999ZM49.7714 67.4999H53.7714V52.9999H49.7714H45.7714V67.4999H49.7714ZM68.7714 30.0001V34.0001H69.0214V30.0001V26.0001H68.7714V30.0001ZM69.7714 30.7501H73.7714C73.7714 28.1267 71.6447 26.0001 69.0214 26.0001V30.0001V34.0001C67.2265 34.0001 65.7714 32.545 65.7714 30.7501H69.7714ZM53.2686 67.9999V63.9999C55.1293 63.9999 56.7472 65.4934 56.7662 67.4695L52.7664 67.508L48.7666 67.5464C48.7909 70.0735 50.857 71.9999 53.2686 71.9999V67.9999ZM49.2714 67.9999V63.9999C46.7861 63.9999 44.7714 66.0146 44.7714 68.4999H48.7714H52.7714C52.7714 70.4329 51.2044 71.9999 49.2714 71.9999V67.9999ZM53.7079 31.858L57.6975 32.1465C57.5868 33.6774 56.3598 34.8363 54.9016 34.9335L54.6356 30.9424L54.3695 26.9513C51.9192 27.1146 49.9008 29.047 49.7184 31.5695L53.7079 31.858ZM79.7714 31.5001L79.7713 35.5001C82.5328 35.5001 84.7714 33.2615 84.7714 30.5001H80.7714H76.7714C76.7714 28.8432 78.1145 27.5001 79.7714 27.5001L79.7714 31.5001ZM49.2714 67.9999V71.9999C51.7566 71.9999 53.7714 69.9852 53.7714 67.4999H49.7714H45.7714C45.7714 65.5669 47.3384 63.9999 49.2714 63.9999V67.9999ZM70.5213 31.5L70.5213 27.5C72.3163 27.5 73.7714 28.9551 73.7714 30.7501H69.7714H65.7714C65.7714 33.3734 67.898 35.5 70.5213 35.5L70.5213 31.5ZM50.7711 27V23C48.0096 23 45.771 25.2386 45.7711 28.0001L49.7711 28L53.7711 28C53.7711 29.6568 52.4279 31 50.7711 31V27ZM53.7714 68.5026H57.7714C57.7714 66.0158 55.7554 63.9999 53.2686 63.9999V67.9999V71.9999C51.3371 71.9999 49.7714 70.4341 49.7714 68.5026H53.7714ZM79.7714 27V31C78.1145 31 76.7714 29.6569 76.7714 28H80.7714H84.7714C84.7714 25.2386 82.5328 23 79.7714 23V27Z" fill="white" mask="url(#path-4-outside-1_275_181)"/>
<path d="M80.0778 29.5V35.7539C80.0776 37.4572 78.6971 38.8377 76.9938 38.8379H73.8248C72.1214 38.8379 70.74 37.4573 70.7399 35.7539V29.5H80.0778Z" stroke="white" stroke-width="3" stroke-linecap="round"/>
<path d="M78.81 39.4829L82.7713 43.4443M75.4089 40.5073V45.2609M72.525 39.8986L67.7714 43.8599" stroke="white" stroke-width="5" stroke-linecap="round"/>
<path d="M78.81 39.4829L82.7713 43.4443" stroke="#FEC206" stroke-width="1.58454" stroke-linecap="round"/>
<path d="M75.4089 40.5073V45.2609" stroke="#FEC206" stroke-width="1.58454" stroke-linecap="round"/>
<path d="M72.525 39.8987L67.7714 43.86" stroke="#FEC206" stroke-width="1.58454" stroke-linecap="round"/>
<path d="M81.007 86C81.9909 86 82.9406 86.3626 83.674 87.0186L98.2042 100.019L98.4474 100.255C100.83 102.747 99.0931 107 95.5363 107H46.006C42.3344 107 40.6027 102.467 43.339 100.019L57.8683 87.0186L58.0079 86.8994C58.7202 86.3188 59.6126 86.0001 60.5353 86H81.007Z" fill="#D9D9D9" stroke="white" stroke-width="4" stroke-linejoin="round"/>
<path fill-rule="evenodd" clip-rule="evenodd" d="M58.5351 87.7643C59.0851 87.2721 59.7973 87 60.5354 87H81.0072C81.7453 87 82.4575 87.2721 83.0076 87.7643L97.537 100.764C99.5892 102.6 98.2903 106 95.5366 106H46.006C43.2523 106 41.9534 102.6 44.0056 100.764L58.5351 87.7643ZM60.5354 89C60.2894 89 60.052 89.0907 59.8687 89.2548L45.3392 102.255C44.6552 102.867 45.0881 104 46.006 104H95.5366C96.4545 104 96.8875 102.867 96.2034 102.255L81.674 89.2548C81.4906 89.0907 81.2532 89 81.0072 89H60.5354Z" fill="black"/>
<path d="M69.2714 100C69.2714 99.1716 69.9429 98.5 70.7714 98.5C71.5998 98.5 72.2714 99.1716 72.2714 100L69.2714 100ZM70.7714 104L69.2714 104L69.2714 100L70.7714 100L72.2714 100L72.2714 104L70.7714 104Z" fill="white"/>
<path d="M69.7714 91C69.7714 91.5523 70.2191 92 70.7714 92C71.3236 92 71.7714 91.5523 71.7714 91L69.7714 91ZM70.7714 89L69.7714 89L69.7714 91L70.7714 91L71.7714 91L71.7714 89L70.7714 89Z" fill="white"/>
<path d="M80.7714 28C80.7714 27.4477 80.3236 27 79.7714 27H69.7714H50.7711C50.2188 27 49.7711 27.4477 49.7711 28L49.7714 52.9999V67.4999C49.7714 67.776 49.5475 67.9999 49.2714 67.9999C48.9952 67.9999 48.7714 68.2237 48.7714 68.4999V99.9999L53.7714 94.9999V68.5026C53.7714 68.225 53.5463 67.9999 53.2686 67.9999C52.9931 67.9999 52.769 67.7835 52.7664 67.508C52.7474 65.5334 52.6848 58.0467 52.7714 52.9999C52.8998 45.5096 53.5085 34.6158 53.7079 31.858C53.7438 31.3622 54.1395 30.9755 54.6356 30.9424L68.7714 30.0001H69.0214C69.4356 30.0001 69.7714 30.3359 69.7714 30.7501C69.7714 31.1642 70.1071 31.5 70.5213 31.5L79.7714 31.5001C80.3236 31.5001 80.7714 31.0524 80.7714 30.5001V28Z" fill="#D9D9D9"/>
<mask id="path-16-outside-2_275_181" maskUnits="userSpaceOnUse" x="47.7714" y="26" width="34" height="75" fill="black">
<rect fill="white" x="47.7714" y="26" width="34" height="75"/>
<path d="M80.7714 28C80.7714 27.4477 80.3236 27 79.7714 27H69.7714H50.7711C50.2188 27 49.7711 27.4477 49.7711 28L49.7714 52.9999V67.4999C49.7714 67.776 49.5475 67.9999 49.2714 67.9999C48.9952 67.9999 48.7714 68.2237 48.7714 68.4999V97.837L53.7714 93.3669V68.5026C53.7714 68.225 53.5463 67.9999 53.2686 67.9999C52.9931 67.9999 52.769 67.7835 52.7664 67.508C52.7474 65.5334 52.6848 58.0467 52.7714 52.9999C52.8998 45.5096 53.5085 34.6158 53.7079 31.858C53.7438 31.3622 54.1395 30.9755 54.6356 30.9424L68.7714 30.0001H69.0214C69.4356 30.0001 69.7714 30.3359 69.7714 30.7501C69.7714 31.1642 70.1071 31.5 70.5213 31.5L79.7714 31.5001C80.3236 31.5001 80.7714 31.0524 80.7714 30.5001V28Z"/>
</mask>
<path d="M80.7714 28C80.7714 27.4477 80.3236 27 79.7714 27H69.7714H50.7711C50.2188 27 49.7711 27.4477 49.7711 28L49.7714 52.9999V67.4999C49.7714 67.776 49.5475 67.9999 49.2714 67.9999C48.9952 67.9999 48.7714 68.2237 48.7714 68.4999V97.837L53.7714 93.3669V68.5026C53.7714 68.225 53.5463 67.9999 53.2686 67.9999C52.9931 67.9999 52.769 67.7835 52.7664 67.508C52.7474 65.5334 52.6848 58.0467 52.7714 52.9999C52.8998 45.5096 53.5085 34.6158 53.7079 31.858C53.7438 31.3622 54.1395 30.9755 54.6356 30.9424L68.7714 30.0001H69.0214C69.4356 30.0001 69.7714 30.3359 69.7714 30.7501C69.7714 31.1642 70.1071 31.5 70.5213 31.5L79.7714 31.5001C80.3236 31.5001 80.7714 31.0524 80.7714 30.5001V28Z" fill="#D9D9D9"/>
<path d="M68.7714 30.0001V29.0001C68.7492 29.0001 68.727 29.0009 68.7049 29.0023L68.7714 30.0001ZM49.7714 52.9999L50.7714 52.9999L50.7714 52.9999L49.7714 52.9999ZM48.7714 97.837H47.7714V100.072L49.4379 98.5825L48.7714 97.837ZM53.7714 93.3669L54.4379 94.1125L54.7714 93.8143V93.3669H53.7714ZM52.7714 52.9999L53.7712 53.017L53.7712 53.017L52.7714 52.9999ZM52.7664 67.508L53.7663 67.4984L52.7664 67.508ZM53.7079 31.858L54.7053 31.9302L53.7079 31.858ZM54.6356 30.9424L54.7021 31.9402L54.6356 30.9424ZM79.7714 31.5001L79.7713 32.5001L79.7714 31.5001ZM70.5213 31.5L70.5213 30.5L70.5213 31.5ZM49.7711 28L50.7711 28L50.7711 28L49.7711 28ZM79.7714 27V26H69.7714V27V28H79.7714V27ZM70.5213 31.5L70.5213 32.5L79.7713 32.5001L79.7714 31.5001L79.7714 30.5001L70.5213 30.5L70.5213 31.5ZM80.7714 30.5001H81.7714V28H80.7714H79.7714V30.5001H80.7714ZM50.7711 27V28H69.7714V27V26H50.7711V27ZM49.7714 52.9999L50.7714 52.9999L50.7711 28L49.7711 28L48.7711 28L48.7714 52.9999L49.7714 52.9999ZM48.7714 97.837H49.7714V68.4999H48.7714H47.7714V97.837H48.7714ZM53.7714 93.3669L53.1049 92.6214L48.1049 97.0915L48.7714 97.837L49.4379 98.5825L54.4379 94.1125L53.7714 93.3669ZM53.7714 68.5026H52.7714V93.3669H53.7714H54.7714V68.5026H53.7714ZM53.7079 31.858L52.7105 31.7859C52.5101 34.557 51.9003 45.4697 51.7715 52.9827L52.7714 52.9999L53.7712 53.017C53.8992 45.5495 54.5069 34.6746 54.7053 31.9302L53.7079 31.858ZM68.7714 30.0001L68.7049 29.0023L54.5691 29.9446L54.6356 30.9424L54.7021 31.9402L68.8379 30.9979L68.7714 30.0001ZM52.7714 52.9999L51.7715 52.9827C51.6847 58.045 51.7475 65.5446 51.7664 67.5176L52.7664 67.508L53.7663 67.4984C53.7474 65.5221 53.685 58.0485 53.7712 53.017L52.7714 52.9999ZM49.7714 67.4999H50.7714V52.9999H49.7714H48.7714V67.4999H49.7714ZM68.7714 30.0001V31.0001H69.0214V30.0001V29.0001H68.7714V30.0001ZM69.7714 30.7501H70.7714C70.7714 29.7836 69.9879 29.0001 69.0214 29.0001V30.0001V31.0001C68.8833 31.0001 68.7714 30.8882 68.7714 30.7501H69.7714ZM53.2686 67.9999V66.9999C53.5271 66.9999 53.7636 67.2109 53.7663 67.4984L52.7664 67.508L51.7664 67.5176C51.7745 68.356 52.4591 68.9999 53.2686 68.9999V67.9999ZM49.2714 67.9999V66.9999C48.4429 66.9999 47.7714 67.6715 47.7714 68.4999H48.7714H49.7714C49.7714 68.776 49.5475 68.9999 49.2714 68.9999V67.9999ZM53.7079 31.858L54.7053 31.9302C54.7054 31.9297 54.7052 31.9318 54.7038 31.9347C54.7026 31.9371 54.7014 31.9387 54.7006 31.9394C54.6999 31.9401 54.6993 31.9405 54.699 31.9406C54.6983 31.9409 54.699 31.9404 54.7021 31.9402L54.6356 30.9424L54.5691 29.9446C53.5845 30.0102 52.783 30.7834 52.7105 31.7859L53.7079 31.858ZM79.7714 31.5001L79.7713 32.5001C80.8759 32.5001 81.7714 31.6047 81.7714 30.5001H80.7714H79.7714L79.7714 30.5001L79.7714 31.5001ZM49.2714 67.9999V68.9999C50.0998 68.9999 50.7714 68.3283 50.7714 67.4999H49.7714H48.7714C48.7714 67.2237 48.9952 66.9999 49.2714 66.9999V67.9999ZM70.5213 31.5L70.5213 30.5C70.6594 30.5 70.7714 30.612 70.7714 30.7501H69.7714H68.7714C68.7714 31.7165 69.5548 32.5 70.5213 32.5L70.5213 31.5ZM50.7711 27V26C49.6665 26 48.7711 26.8954 48.7711 28L49.7711 28L50.7711 28L50.7711 28V27ZM53.7714 68.5026H54.7714C54.7714 67.6727 54.0986 66.9999 53.2686 66.9999V67.9999V68.9999C52.994 68.9999 52.7714 68.7773 52.7714 68.5026H53.7714ZM79.7714 27V28V28H80.7714H81.7714C81.7714 26.8954 80.8759 26 79.7714 26V27Z" fill="black" mask="url(#path-16-outside-2_275_181)"/>
<path d="M105.771 75C105.771 84.9411 97.7125 93 87.7714 93C77.8302 93 69.7714 84.9411 69.7714 75C69.7714 65.0589 77.8302 57 87.7714 57C97.7125 57 105.771 65.0589 105.771 75Z" fill="#FF5053"/>
<path d="M94.7557 69.4219L89.1776 75L94.7557 80.5781L93.3495 81.9844L87.7714 76.4062L82.1932 81.9844L80.787 80.5781L86.3651 75L80.787 69.4219L82.1932 68.0156L87.7714 73.5938L93.3495 68.0156L94.7557 69.4219Z" fill="white"/>
<path fill-rule="evenodd" clip-rule="evenodd" d="M107.771 75C107.771 86.0457 98.8171 95 87.7714 95C76.7257 95 67.7714 86.0457 67.7714 75C67.7714 63.9543 76.7257 55 87.7714 55C98.8171 55 107.771 63.9543 107.771 75ZM87.7714 93C97.7125 93 105.771 84.9411 105.771 75C105.771 65.0589 97.7125 57 87.7714 57C77.8302 57 69.7714 65.0589 69.7714 75C69.7714 84.9411 77.8302 93 87.7714 93Z" fill="black"/>
</svg>
