<svg width="140" height="140" viewBox="0 0 140 140" fill="none" xmlns="http://www.w3.org/2000/svg">
<path d="M70 1C105.899 1 135 30.1015 135 66C135 101.899 105.899 131 70 131C55.0255 131 43.0339 127.845 32.0469 119.307C31.9367 119.406 31.814 119.519 31.6777 119.642C31.0431 120.214 30.1343 121.028 29.0381 121.999C26.8464 123.94 23.901 126.51 20.8906 129.019C17.8853 131.523 14.7947 133.984 12.3193 135.697C11.0879 136.55 9.96974 137.245 9.07129 137.664C8.62812 137.871 8.18022 138.038 7.7666 138.104C7.39071 138.163 6.76482 138.179 6.29297 137.707C5.86198 137.276 5.81946 136.684 5.82812 136.315C5.8381 135.893 5.92833 135.409 6.05957 134.906C6.32448 133.891 6.80855 132.598 7.42383 131.154C8.65898 128.256 10.4871 124.603 12.3652 121.034C14.2461 117.46 16.1888 113.952 17.6602 111.338C18.3961 110.03 19.0145 108.945 19.4492 108.188C19.57 107.977 19.6766 107.792 19.7676 107.634C9.37343 96.1265 5 82.7067 5 66C5 30.1015 34.1015 1 70 1Z" stroke="black" stroke-width="2"/>
<path d="M70 3.5C104.518 3.5 132.5 31.4822 132.5 66C132.5 100.518 104.518 128.5 70 128.5C55.1345 128.5 43.5569 125.326 32.9375 116.829L31.9355 116.027L30.9883 116.893H30.9873L30.9727 116.907C30.9619 116.917 30.9452 116.932 30.9238 116.951C30.8808 116.99 30.8171 117.049 30.7334 117.125C30.5657 117.277 30.3188 117.5 30.0039 117.784C29.3739 118.352 28.4708 119.162 27.3809 120.127C25.1998 122.059 22.2743 124.611 19.29 127.098C16.2982 129.591 13.2771 131.993 10.8965 133.642C10.0026 134.26 9.23052 134.75 8.60449 135.095C8.84316 134.311 9.22278 133.31 9.72363 132.135C10.9178 129.333 12.7071 125.751 14.5771 122.198C16.4432 118.653 18.3741 115.166 19.8389 112.563C20.5708 111.263 21.1854 110.184 21.6172 109.432C21.8331 109.055 22.0032 108.76 22.1191 108.56C22.1771 108.459 22.2221 108.383 22.252 108.331C22.2667 108.306 22.2777 108.286 22.2852 108.273C22.2889 108.267 22.2921 108.262 22.2939 108.259C22.2947 108.257 22.2955 108.257 22.2959 108.256L22.2969 108.255C22.297 108.255 22.2965 108.254 21 107.5L22.2969 108.254L22.8545 107.296L22.1016 106.481C11.8511 95.3964 7.5 82.4621 7.5 66C7.5 31.4822 35.4822 3.5 70 3.5Z" fill="#FFCE2F" stroke="white" stroke-width="3"/>
<path d="M64.9414 32.5498C67.5178 28.4175 73.6173 28.4844 76.0801 32.75L105.524 83.75L105.638 83.9541C107.928 88.2515 104.821 93.5 99.8955 93.5H41.0059C36.0022 93.4999 32.8751 88.0833 35.377 83.75L64.8213 32.75L64.9414 32.5498Z" fill="#FEC206" stroke="white" stroke-width="5"/>
<path d="M66.3096 33.1973C68.3433 30.17 72.9169 30.2709 74.7812 33.5L104.226 84.5L104.394 84.8145C105.999 88.0894 103.624 92 99.8955 92H41.0059C37.1569 91.9999 34.7513 87.8333 36.6758 84.5L66.1211 33.5L66.3096 33.1973Z" fill="#FEC206" stroke="black" stroke-width="2"/>
<path d="M69.7208 52.185C70.3041 52.185 70.7125 52.36 70.9458 52.71C71.1791 53.06 71.2958 53.445 71.2958 53.865C71.2958 54.985 71.2375 56.2567 71.1208 57.68C71.0041 59.1033 70.8758 60.5967 70.7358 62.16C70.5958 63.7 70.4675 65.2283 70.3508 66.745C70.2341 68.2383 70.1758 69.615 70.1758 70.875H69.3008C69.3008 69.615 69.2425 68.2383 69.1258 66.745C69.0091 65.2283 68.8808 63.7 68.7408 62.16C68.6008 60.5967 68.4725 59.1033 68.3558 57.68C68.2391 56.2567 68.1808 54.985 68.1808 53.865C68.1808 53.445 68.2975 53.06 68.5308 52.71C68.7641 52.36 69.1608 52.185 69.7208 52.185ZM69.7208 73.64C70.2575 73.64 70.7008 73.8267 71.0508 74.2C71.4008 74.55 71.5758 74.9933 71.5758 75.53C71.5758 76.0433 71.4008 76.475 71.0508 76.825C70.7008 77.175 70.2575 77.35 69.7208 77.35C69.2308 77.35 68.7991 77.175 68.4258 76.825C68.0758 76.475 67.9008 76.0433 67.9008 75.53C67.9008 74.9933 68.0758 74.55 68.4258 74.2C68.7991 73.8267 69.2308 73.64 69.7208 73.64Z" fill="black"/>
</svg>
