<svg width="140" height="140" viewBox="0 0 140 140" fill="none" xmlns="http://www.w3.org/2000/svg">
<path d="M71 1C106.899 1 136 30.1015 136 66C136 101.899 106.899 131 71 131C56.0255 131 44.0339 127.845 33.0469 119.307C32.9367 119.406 32.814 119.519 32.6777 119.642C32.0431 120.214 31.1343 121.028 30.0381 121.999C27.8464 123.94 24.901 126.51 21.8906 129.019C18.8853 131.523 15.7947 133.984 13.3193 135.697C12.0879 136.55 10.9697 137.245 10.0713 137.664C9.62812 137.871 9.18022 138.038 8.7666 138.104C8.39071 138.163 7.76482 138.179 7.29297 137.707C6.86198 137.276 6.81946 136.684 6.82812 136.315C6.8381 135.893 6.92833 135.409 7.05957 134.906C7.32448 133.891 7.80855 132.598 8.42383 131.154C9.65898 128.256 11.4871 124.603 13.3652 121.034C15.2461 117.46 17.1888 113.952 18.6602 111.338C19.3961 110.03 20.0145 108.945 20.4492 108.188C20.57 107.977 20.6766 107.792 20.7676 107.634C10.3734 96.1265 6 82.7067 6 66C6 30.1015 35.1015 1 71 1Z" stroke="black" stroke-width="2"/>
<path d="M71 3.5C105.518 3.5 133.5 31.4822 133.5 66C133.5 100.518 105.518 128.5 71 128.5C56.1345 128.5 44.5569 125.326 33.9375 116.829L32.9355 116.027L31.9883 116.893H31.9873L31.9727 116.907C31.9619 116.917 31.9452 116.932 31.9238 116.951C31.8808 116.99 31.8171 117.049 31.7334 117.125C31.5657 117.277 31.3188 117.5 31.0039 117.784C30.3739 118.352 29.4708 119.162 28.3809 120.127C26.1998 122.059 23.2743 124.611 20.29 127.098C17.2982 129.591 14.2771 131.993 11.8965 133.642C11.0026 134.26 10.2305 134.75 9.60449 135.095C9.84316 134.311 10.2228 133.31 10.7236 132.135C11.9178 129.333 13.7071 125.751 15.5771 122.198C17.4432 118.653 19.3741 115.166 20.8389 112.563C21.5708 111.263 22.1854 110.184 22.6172 109.432C22.8331 109.055 23.0032 108.76 23.1191 108.56C23.1771 108.459 23.2221 108.383 23.252 108.331C23.2667 108.306 23.2777 108.286 23.2852 108.273C23.2889 108.267 23.2921 108.262 23.2939 108.259C23.2947 108.257 23.2955 108.257 23.2959 108.256L23.2969 108.255C23.297 108.255 23.2965 108.254 22 107.5L23.2969 108.254L23.8545 107.296L23.1016 106.481C12.8511 95.3964 8.5 82.4621 8.5 66C8.5 31.4822 36.4822 3.5 71 3.5Z" fill="#787878" stroke="white" stroke-width="3"/>
<path d="M97.0897 92.2707C96.6887 93.0413 96.1434 93.8993 95.3786 94.5726L95.0955 94.8086C92.1249 97.1411 87.9131 96.2484 84.7728 94.4049L84.5909 94.2912C83.7006 93.7056 83.1217 92.8477 82.7394 92.1425C82.3081 91.3467 81.9646 90.4355 81.6785 89.5478C81.2625 88.257 80.8793 86.7123 80.5314 85.3431L80.1953 84.0488C79.9807 83.2501 79.7649 82.6766 79.5257 81.9406C79.3175 81.2999 79.0497 80.4189 79.061 79.4578C79.0864 77.2882 80.4395 75.7667 82.276 74.3866L82.6498 74.1122C82.9812 73.8739 83.2792 73.4601 83.5165 72.6097C83.7681 71.7076 83.8663 70.6551 84.0021 69.303C84.1244 68.0847 84.2842 66.531 84.7862 65.1579C85.2942 63.7685 86.2197 62.3762 87.9013 61.5688L88.2481 61.4157C90.771 60.3878 93.3982 60.1188 95.7126 61.6912C97.4616 62.8797 98.6131 64.873 99.4881 67.1901C99.9669 67.4146 100.403 67.7265 100.782 68.1242C101.552 68.9328 101.937 69.9328 102.14 70.8103C102.542 72.5397 102.425 74.6269 102.167 76.4917C101.901 78.4201 101.444 80.3896 100.984 82.0126C100.539 83.581 100.04 85.0113 99.6464 85.7868L99.4677 86.1639C99.0591 87.082 98.7018 88.2683 98.1352 89.8174C97.8423 90.6181 97.5008 91.4805 97.0897 92.2707Z" fill="#767676" stroke="white" stroke-width="5"/>
<path d="M84.9998 34.5C87.4851 34.5 89.4998 36.5147 89.4998 39V94C89.4998 96.4853 87.4851 98.5 84.9998 98.5H49.9998C47.5146 98.5 45.4998 96.4853 45.4998 94V39C45.4998 36.5147 47.5146 34.5 49.9998 34.5H84.9998Z" fill="#D9D9D9" stroke="white" stroke-width="5"/>
<path fill-rule="evenodd" clip-rule="evenodd" d="M49.9998 35H84.9998C87.209 35 88.9998 36.7909 88.9998 39V94C88.9998 96.2091 87.209 98 84.9998 98H49.9998C47.7907 98 45.9998 96.2091 45.9998 94V39C45.9998 36.7909 47.7907 35 49.9998 35ZM49.9998 37C48.8953 37 47.9998 37.8954 47.9998 39V94C47.9998 95.1046 48.8953 96 49.9998 96H84.9998C86.1044 96 86.9998 95.1046 86.9998 94V39C86.9998 37.8954 86.1044 37 84.9998 37H49.9998Z" fill="black"/>
<path d="M63.9998 48C63.9998 49.6569 65.343 51 66.9998 51C68.6567 51 69.9998 49.6569 69.9998 48L63.9998 48ZM66.9998 37L63.9998 37L63.9998 48L66.9998 48L69.9998 48L69.9998 37L66.9998 37Z" fill="white"/>
<path d="M69.9998 87C69.9998 85.3431 68.6567 84 66.9998 84C65.343 84 63.9998 85.3431 63.9998 87L69.9998 87ZM66.9998 96L69.9998 96L69.9998 87L66.9998 87L63.9998 87L63.9998 96L66.9998 96Z" fill="white"/>
<path d="M61.9529 89.7641C61.3049 89.7936 61.0526 89.4468 61.0076 88.5959C60.3586 88.361 61.3124 86.2534 61.5851 86.4969C61.8578 86.7404 62.628 85.8268 62.9202 85.7026C63.2125 85.5785 63.9671 86.0901 63.8225 86.5487C63.6779 87.0074 63.7814 86.7553 63.7834 87.284C63.7854 87.8128 63.7239 88.1227 63.0974 88.3132C62.4708 88.5038 62.6009 89.7347 61.9529 89.7641Z" fill="#767676"/>
<path d="M73.3421 69.6057C72.6507 69.0912 72.585 68.4012 73.0214 67.1992C72.479 66.3224 74.6689 64.2573 74.8146 64.8237C74.9603 65.3901 76.281 64.8002 76.6557 64.8806C77.0305 64.961 77.5257 66.3065 77.1146 66.8098C76.7036 67.313 76.9546 67.0571 76.6564 67.7817C76.3582 68.5064 76.1182 68.8773 75.3576 68.6016C74.5971 68.3258 74.0335 70.1201 73.3421 69.6057Z" fill="#767676"/>
<path d="M81.348 68.6058C80.9679 69.05 80.5336 69.0328 79.8254 68.611C79.2334 68.9156 78.1428 67.1662 78.5073 67.115C78.8718 67.0639 78.6213 66.0696 78.7041 65.8104C78.7868 65.5512 79.6658 65.3235 79.9423 65.6626C80.2189 66.0017 80.0819 65.7994 80.5058 66.0787C80.9297 66.358 81.1391 66.5632 80.9011 67.0787C80.6632 67.5943 81.7281 68.1615 81.348 68.6058Z" fill="#767676"/>
<path d="M79.4172 58.7282C79.8988 57.0645 79.2263 56.4605 77.2122 56.4487C77.0598 54.8146 70.7526 56.4963 70.0775 56.9848C68.9255 57.8182 69.5377 60.9364 69.0543 61.7002C68.5709 62.4639 69.3205 64.3349 70.5132 63.9086C71.7059 63.4824 71.0351 63.7784 72.3031 63.7192C73.5711 63.66 74.354 63.4646 75.2086 61.8365C76.0633 60.2083 78.9356 60.3919 79.4172 58.7282Z" fill="#767676"/>
<path d="M56.635 85.6729C54.3672 85.3883 53.7909 84.0927 54.3627 81.2519C52.3175 80.0924 57.1464 75.3249 58.156 74.6503C59.2085 73.9471 60.5799 72.3132 61.6974 72.0748C62.8149 71.8364 64.0561 72.6737 64.9064 74.1309C65.3857 74.9522 64.6869 77.0307 64.2417 78.7806C63.7965 80.5306 64.1673 81.288 61.8362 81.5489C59.5051 81.8098 58.9028 85.9574 56.635 85.6729Z" fill="#767676"/>
<path d="M61.0524 54.8645C62.6643 55.4911 63.1922 56.8071 63.0674 59.4035C64.6084 60.8224 61.6959 64.5696 61.0558 65.0483C60.3885 65.5474 59.5885 66.8763 58.8308 66.9256C58.0731 66.9749 57.1251 65.9874 56.3901 64.4753C55.9758 63.6231 56.263 61.7677 56.4048 60.183C56.5466 58.5984 56.2143 57.8236 57.8176 57.9444C59.4209 58.0652 59.4406 54.2379 61.0524 54.8645Z" fill="#767676"/>
<path d="M95.7591 91.5785C95.3967 92.2751 94.9532 92.9483 94.3874 93.4464L94.1747 93.624C91.9334 95.3796 88.4974 94.8518 85.5325 93.1113L85.2987 92.9577C84.7706 92.5713 84.3716 92.0059 84.058 91.4275C83.6904 90.7492 83.38 89.9371 83.106 89.0869C82.7004 87.8281 82.3371 86.3604 81.9883 84.9882L81.6438 83.6596C81.4159 82.8116 81.1699 82.1492 80.9515 81.4772C80.7455 80.8434 80.5524 80.1683 80.5604 79.4756C80.5774 78.0295 81.4415 76.8918 83.1678 75.5922L83.5247 75.3308C84.2346 74.8205 84.6732 74.0469 84.9618 73.0123C85.2561 71.9573 85.3635 70.7555 85.4943 69.4531C85.6198 68.2041 85.7684 66.84 86.195 65.6733C86.6099 64.5385 87.3159 63.5121 88.5586 62.9175L88.8143 62.8048C91.1064 61.871 93.1435 61.7585 94.8698 62.9314C96.381 63.9583 97.4451 65.8457 98.3193 68.3627C98.8531 68.493 99.3178 68.7616 99.6957 69.1585C100.213 69.7017 100.51 70.4164 100.68 71.149C101.017 72.6041 100.932 74.4699 100.682 76.2869C100.427 78.1292 99.9866 80.029 99.5402 81.6041C99.1 83.1573 98.6329 84.4693 98.3087 85.1075L98.1097 85.5281C97.6527 86.5532 97.2478 87.8767 96.7265 89.302C96.4409 90.0827 96.1256 90.8741 95.7591 91.5785Z" fill="#767676" stroke="black" stroke-width="2"/>
</svg>
