<svg width="140" height="140" viewBox="0 0 140 140" fill="none" xmlns="http://www.w3.org/2000/svg">
<path d="M71 1C106.899 1 136 30.1015 136 66C136 101.899 106.899 131 71 131C56.0255 131 44.0339 127.845 33.0469 119.307C32.9367 119.406 32.814 119.519 32.6777 119.642C32.0431 120.214 31.1343 121.028 30.0381 121.999C27.8464 123.94 24.901 126.51 21.8906 129.019C18.8853 131.523 15.7947 133.984 13.3193 135.697C12.0879 136.55 10.9697 137.245 10.0713 137.664C9.62812 137.871 9.18022 138.038 8.7666 138.104C8.39071 138.163 7.76482 138.179 7.29297 137.707C6.86198 137.276 6.81946 136.684 6.82812 136.315C6.8381 135.893 6.92833 135.409 7.05957 134.906C7.32448 133.891 7.80855 132.598 8.42383 131.154C9.65898 128.256 11.4871 124.603 13.3652 121.034C15.2461 117.46 17.1888 113.952 18.6602 111.338C19.3961 110.03 20.0145 108.945 20.4492 108.188C20.57 107.977 20.6766 107.792 20.7676 107.634C10.3734 96.1265 6 82.7067 6 66C6 30.1015 35.1015 1 71 1Z" stroke="black" stroke-width="2"/>
<path d="M71 3.5C105.518 3.5 133.5 31.4822 133.5 66C133.5 100.518 105.518 128.5 71 128.5C56.1345 128.5 44.5569 125.326 33.9375 116.829L32.9355 116.027L31.9883 116.893H31.9873L31.9727 116.907C31.9619 116.917 31.9452 116.932 31.9238 116.951C31.8808 116.99 31.8171 117.049 31.7334 117.125C31.5657 117.277 31.3188 117.5 31.0039 117.784C30.3739 118.352 29.4708 119.162 28.3809 120.127C26.1998 122.059 23.2743 124.611 20.29 127.098C17.2982 129.591 14.2771 131.993 11.8965 133.642C11.0026 134.26 10.2305 134.75 9.60449 135.095C9.84316 134.311 10.2228 133.31 10.7236 132.135C11.9178 129.333 13.7071 125.751 15.5771 122.198C17.4432 118.653 19.3741 115.166 20.8389 112.563C21.5708 111.263 22.1854 110.184 22.6172 109.432C22.8331 109.055 23.0032 108.76 23.1191 108.56C23.1771 108.459 23.2221 108.383 23.252 108.331C23.2667 108.306 23.2777 108.286 23.2852 108.273C23.2889 108.267 23.2921 108.262 23.2939 108.259C23.2947 108.257 23.2955 108.257 23.2959 108.256L23.2969 108.255C23.297 108.255 23.2965 108.254 22 107.5L23.2969 108.254L23.8545 107.296L23.1016 106.481C12.8511 95.3964 8.5 82.4621 8.5 66C8.5 31.4822 36.4822 3.5 71 3.5Z" fill="#787878" stroke="white" stroke-width="3"/>
<path d="M91.9365 41.3574L90.0518 43C91.8353 41.4457 91.931 41.3624 91.9365 41.3584L91.9404 41.3623C91.9424 41.3646 91.9451 41.3675 91.9482 41.3711C91.9545 41.3783 91.963 41.3881 91.9736 41.4004C91.995 41.4253 92.0252 41.4608 92.0635 41.5059C92.14 41.596 92.2495 41.7262 92.3867 41.8926C92.6609 42.2252 93.048 42.7043 93.5098 43.3047C94.4317 44.5033 95.6623 46.1985 96.8975 48.1816C99.2941 52.0297 102 57.4204 102 62.5C102 64.7473 101.457 66.6409 100.478 68.1826C99.5042 69.7137 98.1898 70.7555 96.8574 71.4561C94.2655 72.8187 91.4176 72.9892 90.0518 72.9893C88.6436 72.9893 85.6718 72.8205 82.9639 71.4863C81.576 70.8025 80.1847 69.7767 79.1445 68.2471C78.0917 66.6988 77.5 64.7821 77.5 62.5C77.5 57.375 80.3981 51.9608 82.9414 48.1221C84.2557 46.1384 85.5656 44.4441 86.5459 43.2461C87.0371 42.6457 87.4488 42.1663 87.7402 41.834C87.8859 41.6679 88.0018 41.5382 88.083 41.4482C88.1236 41.4033 88.156 41.3685 88.1787 41.3438L88.2139 41.3047L88.2178 41.3008L90.1094 39.2607L91.9365 41.3574Z" fill="white" stroke="white" stroke-width="5"/>
<path d="M87 35.5C89.4853 35.5 91.5 37.5147 91.5 40V95C91.5 97.4853 89.4853 99.5 87 99.5H52C49.5147 99.5 47.5 97.4853 47.5 95V40C47.5 37.5147 49.5147 35.5 52 35.5H87Z" fill="#D9D9D9" stroke="white" stroke-width="5"/>
<path fill-rule="evenodd" clip-rule="evenodd" d="M52 36H87C89.2091 36 91 37.7909 91 40V95C91 97.2091 89.2091 99 87 99H52C49.7909 99 48 97.2091 48 95V40C48 37.7909 49.7909 36 52 36ZM52 38C50.8954 38 50 38.8954 50 40V95C50 96.1046 50.8954 97 52 97H87C88.1046 97 89 96.1046 89 95V40C89 38.8954 88.1046 38 87 38H52Z" fill="black"/>
<path d="M66 49C66 50.6569 67.3431 52 69 52C70.6569 52 72 50.6569 72 49L66 49ZM69 38L66 38L66 49L69 49L72 49L72 38L69 38Z" fill="white"/>
<path d="M72 88C72 86.3431 70.6569 85 69 85C67.3431 85 66 86.3431 66 88L72 88ZM69 97L72 97L72 88L69 88L66 88L66 97L69 97Z" fill="white"/>
<path d="M53.4163 96.9264C52.8749 96.569 52.8749 96.1403 53.3389 95.4256C52.9522 94.8539 54.9632 93.7104 55.0406 94.0678C55.1179 94.4251 56.2781 94.1392 56.5875 94.2107C56.8969 94.2822 57.2063 95.1397 56.8195 95.4256C56.4328 95.7115 56.6648 95.5685 56.3554 95.9973C56.0461 96.4261 55.814 96.6405 55.1953 96.4261C54.5765 96.2117 53.9577 97.2837 53.4163 96.9264Z" fill="black"/>
<path d="M74.4839 87.3224C74.2273 86.4997 74.58 85.903 75.6399 85.1876C75.717 84.1595 78.7027 83.7775 78.4874 84.3212C78.272 84.8649 79.687 85.1647 79.9429 85.4502C80.1987 85.7356 79.8078 87.1149 79.1793 87.2802C78.5509 87.4455 78.9044 87.3861 78.2371 87.7967C77.5697 88.2074 77.1573 88.3662 76.7045 87.6959C76.2516 87.0255 74.7405 88.1452 74.4839 87.3224Z" fill="black"/>
<path d="M81.5466 91.2227C80.9779 91.3584 80.6368 91.0891 80.3122 90.3314C79.6542 90.2295 79.8012 88.1732 80.1261 88.3462C80.451 88.5193 80.8332 87.5678 81.0526 87.4068C81.272 87.2459 82.1167 87.5788 82.1409 88.0157C82.1651 88.4525 82.1733 88.2084 82.3519 88.6836C82.5304 89.1588 82.579 89.4479 82.0834 89.7248C81.5877 90.0018 82.1154 91.0869 81.5466 91.2227Z" fill="black"/>
<path d="M85.7948 82.0987C87.1629 81.0365 86.9742 80.1525 85.3523 78.9582C86.1903 77.5471 80.1002 75.1974 79.2669 75.1953C77.8451 75.1918 76.5061 78.0737 75.666 78.407C74.8258 78.7404 74.3316 80.6944 75.5469 81.0512C76.7621 81.4079 76.0456 81.2528 77.1058 81.9508C78.1661 82.6487 78.9142 82.9511 80.563 82.1371C82.2119 81.323 84.4268 83.1609 85.7948 82.0987Z" fill="black"/>
<path d="M51.5219 90.4898C49.8553 88.9258 50.1513 87.5391 52.2846 85.5779C51.3126 83.4372 58.0219 82.4218 59.2352 82.4701C60.5 82.5205 62.5701 82.0057 63.6141 82.4702C64.6581 82.9347 65.1694 84.3418 65 86.0204C64.9045 86.9666 63.1169 88.2365 61.7275 89.3899C60.3382 90.5432 60.1926 91.3739 58.1539 90.2138C56.1152 89.0537 53.1886 92.0538 51.5219 90.4898Z" fill="black"/>
<path d="M73.2152 68.1723C74.1502 69.6271 73.8031 71.0019 72.1751 73.0283C72.5867 75.0822 68.0273 76.3996 67.2281 76.4103C66.3949 76.4214 64.9662 77.0256 64.3245 76.6198C63.6827 76.214 63.4968 74.8578 63.7918 73.2026C63.958 72.2697 65.2816 70.9381 66.3283 69.7399C67.375 68.5418 67.562 67.7198 68.7876 68.7605C70.0132 69.8012 72.2802 66.7174 73.2152 68.1723Z" fill="black"/>
<path d="M90.0518 43L90.8057 42.3428L90.0742 41.5039L89.3184 42.3203L90.0518 43ZM90.0518 43C90.7565 42.3859 90.8025 42.3461 90.8057 42.3438H90.8066C90.8071 42.3443 90.8079 42.3449 90.8086 42.3457C90.8101 42.3474 90.8118 42.3505 90.8145 42.3535C90.8197 42.3595 90.8274 42.3678 90.8369 42.3789C90.8562 42.4013 90.8839 42.4341 90.9199 42.4766C90.9921 42.5615 91.0971 42.6861 91.2295 42.8467C91.4942 43.1677 91.8699 43.6341 92.3203 44.2197C93.2206 45.3902 94.4223 47.0435 95.625 48.9746C98.0009 52.7895 100.5 57.8708 100.5 62.5C100.5 64.4985 100.021 66.1057 99.2119 67.3779C98.4058 68.6459 97.3089 69.5244 96.1592 70.1289C93.8889 71.3224 91.3326 71.4892 90.0518 71.4893C88.723 71.4893 86.0265 71.3229 83.627 70.1406C82.4136 69.5428 81.2466 68.6708 80.3848 67.4033C79.5179 66.1285 79 64.5125 79 62.5C79 57.8526 81.6673 52.7623 84.1924 48.9512C85.4719 47.0199 86.7495 45.3665 87.707 44.1963C88.1862 43.6106 88.5867 43.1442 88.8682 42.8232C89.0086 42.6631 89.1197 42.539 89.1963 42.4541C89.2346 42.4117 89.2647 42.3788 89.2852 42.3564C89.2954 42.3453 89.303 42.3361 89.3086 42.3301L89.3174 42.3213V42.3203C89.3176 42.3201 89.3184 42.3201 90.0518 43Z" fill="black" stroke="black" stroke-width="2"/>
</svg>
