<svg width="140" height="140" viewBox="0 0 140 140" fill="none" xmlns="http://www.w3.org/2000/svg">
<path d="M71 1C106.899 1 136 30.1015 136 66C136 101.899 106.899 131 71 131C56.0255 131 44.0339 127.845 33.0469 119.307C32.9367 119.406 32.814 119.519 32.6777 119.642C32.0431 120.214 31.1343 121.028 30.0381 121.999C27.8464 123.94 24.901 126.51 21.8906 129.019C18.8853 131.523 15.7947 133.984 13.3193 135.697C12.0879 136.55 10.9697 137.245 10.0713 137.664C9.62812 137.871 9.18022 138.038 8.7666 138.104C8.39071 138.163 7.76482 138.179 7.29297 137.707C6.86198 137.276 6.81946 136.684 6.82812 136.315C6.8381 135.893 6.92833 135.409 7.05957 134.906C7.32448 133.891 7.80855 132.598 8.42383 131.154C9.65898 128.256 11.4871 124.603 13.3652 121.034C15.2461 117.46 17.1888 113.952 18.6602 111.338C19.3961 110.03 20.0145 108.945 20.4492 108.188C20.57 107.977 20.6766 107.792 20.7676 107.634C10.3734 96.1265 6 82.7067 6 66C6 30.1015 35.1015 1 71 1Z" stroke="black" stroke-width="2"/>
<path d="M71 3.5C105.518 3.5 133.5 31.4822 133.5 66C133.5 100.518 105.518 128.5 71 128.5C56.1345 128.5 44.5569 125.326 33.9375 116.829L32.9355 116.027L31.9883 116.893H31.9873L31.9727 116.907C31.9619 116.917 31.9452 116.932 31.9238 116.951C31.8808 116.99 31.8171 117.049 31.7334 117.125C31.5657 117.277 31.3188 117.5 31.0039 117.784C30.3739 118.352 29.4708 119.162 28.3809 120.127C26.1998 122.059 23.2743 124.611 20.29 127.098C17.2982 129.591 14.2771 131.993 11.8965 133.642C11.0026 134.26 10.2305 134.75 9.60449 135.095C9.84316 134.311 10.2228 133.31 10.7236 132.135C11.9178 129.333 13.7071 125.751 15.5771 122.198C17.4432 118.653 19.3741 115.166 20.8389 112.563C21.5708 111.263 22.1854 110.184 22.6172 109.432C22.8331 109.055 23.0032 108.76 23.1191 108.56C23.1771 108.459 23.2221 108.383 23.252 108.331C23.2667 108.306 23.2777 108.286 23.2852 108.273C23.2889 108.267 23.2921 108.262 23.2939 108.259C23.2947 108.257 23.2955 108.257 23.2959 108.256L23.2969 108.255C23.297 108.255 23.2965 108.254 22 107.5L23.2969 108.254L23.8545 107.296L23.1016 106.481C12.8511 95.3964 8.5 82.4621 8.5 66C8.5 31.4822 36.4822 3.5 71 3.5Z" fill="#787878" stroke="white" stroke-width="3"/>
<path d="M80.4563 50.8443L80.6562 51.4673L80.1647 51.8996L42.1256 85.3938C41.2062 86.2034 39.8022 85.9956 39.1425 85.0067L39.0201 84.7984L38.6056 83.9831C38.2203 83.2248 38.357 82.3054 38.946 81.6917L76.316 42.7641L77.478 41.5547L80.4563 50.8443Z" fill="#848484" stroke="white" stroke-width="2"/>
<path d="M98.8996 83.121C99.5155 84.6592 98.7677 86.4053 97.2296 87.0212L93.9803 88.322C92.4421 88.9378 90.696 88.1901 90.0802 86.6519L76.5878 52.9507L77.8804 52.7951L85.5864 51.8643L86.3488 51.7715L98.8996 83.121Z" fill="#848484" stroke="white" stroke-width="2"/>
<path d="M88 35.5C90.4853 35.5 92.5 37.5147 92.5 40V95C92.5 97.4853 90.4853 99.5 88 99.5H53C50.5147 99.5 48.5 97.4853 48.5 95V40C48.5 37.5147 50.5147 35.5 53 35.5H88Z" fill="#D9D9D9" stroke="white" stroke-width="5"/>
<path fill-rule="evenodd" clip-rule="evenodd" d="M53 36H88C90.2091 36 92 37.7909 92 40V95C92 97.2091 90.2091 99 88 99H53C50.7909 99 49 97.2091 49 95V40C49 37.7909 50.7909 36 53 36ZM53 38C51.8954 38 51 38.8954 51 40V95C51 96.1046 51.8954 97 53 97H88C89.1046 97 90 96.1046 90 95V40C90 38.8954 89.1046 38 88 38H53Z" fill="black"/>
<path d="M67 49C67 50.6569 68.3431 52 70 52C71.6569 52 73 50.6569 73 49L67 49ZM70 38L67 38L67 49L70 49L73 49L73 38L70 38Z" fill="white"/>
<path d="M73 88C73 86.3431 71.6569 85 70 85C68.3431 85 67 86.3431 67 88L73 88ZM70 97L73 97L73 88L70 88L67 88L67 97L70 97Z" fill="white"/>
<path d="M48.5 56L47.2931 60.0229C47.109 60.6367 47.2301 61.3015 47.6189 61.8109L60.7693 79.0426C61.2188 79.6316 61.9572 79.9238 62.688 79.802L67.5 79" stroke="white" stroke-width="4" stroke-linecap="round"/>
<path d="M48.5 56L47.2931 60.0229C47.109 60.6367 47.2301 61.3015 47.6189 61.8109L60.7693 79.0426C61.2188 79.6316 61.9572 79.9238 62.688 79.802L67.5 79" stroke="black" stroke-width="2" stroke-linecap="round"/>
<path d="M37.5 67L36.2931 71.0229C36.109 71.6367 36.2301 72.3015 36.6189 72.8109L49.7693 90.0426C50.2188 90.6316 50.9572 90.9238 51.688 90.802L56.5 90" stroke="white" stroke-width="5" stroke-linecap="round"/>
<path d="M37.5 67L36.2931 71.0229C36.109 71.6367 36.2301 72.3015 36.6189 72.8109L49.7693 90.0426C50.2188 90.6316 50.9572 90.9238 51.688 90.802L56.5 90" stroke="black" stroke-width="2" stroke-linecap="round"/>
<path d="M85.3845 53.3988L97.5071 83.6786C97.815 84.4476 97.4411 85.3207 96.6721 85.6286L93.4228 86.9295C92.6537 87.2374 91.7806 86.8635 91.4727 86.0944L78.7059 54.2055L85.3845 53.3988Z" fill="#848484" stroke="black"/>
<path d="M77.0377 43.4571L79.5038 51.1493L41.4643 84.6432C40.9739 85.0749 40.208 84.9281 39.912 84.3457L39.4973 83.5296C39.3046 83.1504 39.3728 82.6908 39.6674 82.384L77.0377 43.4571Z" fill="#848484" stroke="black"/>
</svg>
