<svg width="140" height="140" viewBox="0 0 140 140" fill="none" xmlns="http://www.w3.org/2000/svg">
<path d="M71 1C106.899 1 136 30.1015 136 66C136 101.899 106.899 131 71 131C56.0255 131 44.0339 127.845 33.0469 119.307C32.9367 119.406 32.814 119.519 32.6777 119.642C32.0431 120.214 31.1343 121.028 30.0381 121.999C27.8464 123.94 24.901 126.51 21.8906 129.019C18.8853 131.523 15.7947 133.984 13.3193 135.697C12.0879 136.55 10.9697 137.245 10.0713 137.664C9.62812 137.871 9.18022 138.038 8.7666 138.104C8.39071 138.163 7.76482 138.179 7.29297 137.707C6.86198 137.276 6.81946 136.684 6.82812 136.315C6.8381 135.893 6.92833 135.409 7.05957 134.906C7.32448 133.891 7.80855 132.598 8.42383 131.154C9.65898 128.256 11.4871 124.603 13.3652 121.034C15.2461 117.46 17.1888 113.952 18.6602 111.338C19.3961 110.03 20.0145 108.945 20.4492 108.188C20.57 107.977 20.6766 107.792 20.7676 107.634C10.3734 96.1265 6 82.7067 6 66C6 30.1015 35.1015 1 71 1Z" stroke="black" stroke-width="2"/>
<path d="M71 3.5C105.518 3.5 133.5 31.4822 133.5 66C133.5 100.518 105.518 128.5 71 128.5C56.1345 128.5 44.5569 125.326 33.9375 116.829L32.9355 116.027L31.9883 116.893H31.9873L31.9727 116.907C31.9619 116.917 31.9452 116.932 31.9238 116.951C31.8808 116.99 31.8171 117.049 31.7334 117.125C31.5657 117.277 31.3188 117.5 31.0039 117.784C30.3739 118.352 29.4708 119.162 28.3809 120.127C26.1998 122.059 23.2743 124.611 20.29 127.098C17.2982 129.591 14.2771 131.993 11.8965 133.642C11.0026 134.26 10.2305 134.75 9.60449 135.095C9.84316 134.311 10.2228 133.31 10.7236 132.135C11.9178 129.333 13.7071 125.751 15.5771 122.198C17.4432 118.653 19.3741 115.166 20.8389 112.563C21.5708 111.263 22.1854 110.184 22.6172 109.432C22.8331 109.055 23.0032 108.76 23.1191 108.56C23.1771 108.459 23.2221 108.383 23.252 108.331C23.2667 108.306 23.2777 108.286 23.2852 108.273C23.2889 108.267 23.2921 108.262 23.2939 108.259C23.2947 108.257 23.2955 108.257 23.2959 108.256L23.2969 108.255C23.297 108.255 23.2965 108.254 22 107.5L23.2969 108.254L23.8545 107.296L23.1016 106.481C12.8511 95.3964 8.5 82.4621 8.5 66C8.5 31.4822 36.4822 3.5 71 3.5Z" fill="#787878" stroke="white" stroke-width="3"/>
<path d="M82.8037 42.8545C84.678 40.0641 88.8181 40.064 90.6924 42.8545L90.8721 43.1426L107.521 71.9795L107.681 72.2793C109.209 75.398 106.948 79.1218 103.397 79.1221H70.0986C66.4333 79.1218 64.1429 75.1539 65.9756 71.9795L82.624 43.1426L82.8037 42.8545Z" fill="#FEC206" stroke="white" stroke-width="5"/>
<path d="M82 35.5C84.4853 35.5 86.5 37.5147 86.5 40V95C86.5 97.4853 84.4853 99.5 82 99.5H47C44.5147 99.5 42.5 97.4853 42.5 95V40C42.5 37.5147 44.5147 35.5 47 35.5H82Z" fill="#D9D9D9" stroke="white" stroke-width="5"/>
<path fill-rule="evenodd" clip-rule="evenodd" d="M47 36H82C84.2091 36 86 37.7909 86 40V95C86 97.2091 84.2091 99 82 99H47C44.7909 99 43 97.2091 43 95V40C43 37.7909 44.7909 36 47 36ZM47 38C45.8954 38 45 38.8954 45 40V95C45 96.1046 45.8954 97 47 97H82C83.1046 97 84 96.1046 84 95V40C84 38.8954 83.1046 38 82 38H47Z" fill="black"/>
<path d="M61 49C61 50.6569 62.3431 52 64 52C65.6569 52 67 50.6569 67 49L61 49ZM64 38L61 38L61 49L64 49L67 49L67 38L64 38Z" fill="white"/>
<path d="M67 88C67 86.3431 65.6569 85 64 85C62.3431 85 61 86.3431 61 88L67 88ZM64 97L67 97L67 88L64 88L61 88L61 97L64 97Z" fill="white"/>
<path d="M84.0469 43.6953C85.3736 41.7205 88.3571 41.7861 89.5732 43.8926L106.222 72.7295L106.331 72.9346C107.378 75.0709 105.83 77.6218 103.397 77.6221H70.0986C67.588 77.6218 66.019 74.9039 67.2744 72.7295L83.9229 43.8926L84.0469 43.6953Z" fill="#FEC206" stroke="black" stroke-width="2"/>
<path d="M86.684 55.402C87.0507 55.402 87.3073 55.512 87.454 55.732C87.6007 55.952 87.674 56.194 87.674 56.458C87.674 57.162 87.6373 57.9613 87.564 58.856C87.4907 59.7507 87.41 60.6893 87.322 61.672C87.234 62.64 87.1533 63.6007 87.08 64.554C87.0067 65.4927 86.97 66.358 86.97 67.15H86.42C86.42 66.358 86.3833 65.4927 86.31 64.554C86.2367 63.6007 86.156 62.64 86.068 61.672C85.98 60.6893 85.8993 59.7507 85.826 58.856C85.7527 57.9613 85.716 57.162 85.716 56.458C85.716 56.194 85.7893 55.952 85.936 55.732C86.0827 55.512 86.332 55.402 86.684 55.402ZM86.684 68.888C87.0213 68.888 87.3 69.0053 87.52 69.24C87.74 69.46 87.85 69.7387 87.85 70.076C87.85 70.3987 87.74 70.67 87.52 70.89C87.3 71.11 87.0213 71.22 86.684 71.22C86.376 71.22 86.1047 71.11 85.87 70.89C85.65 70.67 85.54 70.3987 85.54 70.076C85.54 69.7387 85.65 69.46 85.87 69.24C86.1047 69.0053 86.376 68.888 86.684 68.888Z" fill="black"/>
</svg>
