<svg width="140" height="140" viewBox="0 0 140 140" fill="none" xmlns="http://www.w3.org/2000/svg">
<path d="M71 1C106.899 1 136 30.1015 136 66C136 101.899 106.899 131 71 131C56.0255 131 44.0339 127.845 33.0469 119.307C32.9367 119.406 32.814 119.519 32.6777 119.642C32.0431 120.214 31.1343 121.028 30.0381 121.999C27.8464 123.94 24.901 126.51 21.8906 129.019C18.8853 131.523 15.7947 133.984 13.3193 135.697C12.0879 136.55 10.9697 137.245 10.0713 137.664C9.62812 137.871 9.18022 138.038 8.7666 138.104C8.39071 138.163 7.76482 138.179 7.29297 137.707C6.86198 137.276 6.81946 136.684 6.82812 136.315C6.8381 135.893 6.92833 135.409 7.05957 134.906C7.32448 133.891 7.80855 132.598 8.42383 131.154C9.65898 128.256 11.4871 124.603 13.3652 121.034C15.2461 117.46 17.1888 113.952 18.6602 111.338C19.3961 110.03 20.0145 108.945 20.4492 108.188C20.57 107.977 20.6766 107.792 20.7676 107.634C10.3734 96.1265 6 82.7067 6 66C6 30.1015 35.1015 1 71 1Z" stroke="black" stroke-width="2"/>
<path d="M71 3.5C105.518 3.5 133.5 31.4822 133.5 66C133.5 100.518 105.518 128.5 71 128.5C56.1345 128.5 44.5569 125.326 33.9375 116.829L32.9355 116.027L31.9883 116.893H31.9873L31.9727 116.907C31.9619 116.917 31.9452 116.932 31.9238 116.951C31.8808 116.99 31.8171 117.049 31.7334 117.125C31.5657 117.277 31.3188 117.5 31.0039 117.784C30.3739 118.352 29.4708 119.162 28.3809 120.127C26.1998 122.059 23.2743 124.611 20.29 127.098C17.2982 129.591 14.2771 131.993 11.8965 133.642C11.0026 134.26 10.2305 134.75 9.60449 135.095C9.84316 134.311 10.2228 133.31 10.7236 132.135C11.9178 129.333 13.7071 125.751 15.5771 122.198C17.4432 118.653 19.3741 115.166 20.8389 112.563C21.5708 111.263 22.1854 110.184 22.6172 109.432C22.8331 109.055 23.0032 108.76 23.1191 108.56C23.1771 108.459 23.2221 108.383 23.252 108.331C23.2667 108.306 23.2777 108.286 23.2852 108.273C23.2889 108.267 23.2921 108.262 23.2939 108.259C23.2947 108.257 23.2955 108.257 23.2959 108.256L23.2969 108.255C23.297 108.255 23.2965 108.254 22 107.5L23.2969 108.254L23.8545 107.296L23.1016 106.481C12.8511 95.3964 8.5 82.4621 8.5 66C8.5 31.4822 36.4822 3.5 71 3.5Z" fill="#787878" stroke="white" stroke-width="3"/>
<path d="M80 33.5C82.4853 33.5 84.5 35.5147 84.5 38V93C84.5 95.4853 82.4853 97.5 80 97.5H45C42.5147 97.5 40.5 95.4853 40.5 93V38C40.5 35.5147 42.5147 33.5 45 33.5H80Z" fill="#D9D9D9" stroke="white" stroke-width="5"/>
<path fill-rule="evenodd" clip-rule="evenodd" d="M45 34H80C82.2091 34 84 35.7909 84 38V93C84 95.2091 82.2091 97 80 97H45C42.7909 97 41 95.2091 41 93V38C41 35.7909 42.7909 34 45 34ZM45 36C43.8954 36 43 36.8954 43 38V93C43 94.1046 43.8954 95 45 95H80C81.1046 95 82 94.1046 82 93V38C82 36.8954 81.1046 36 80 36H45Z" fill="black"/>
<path d="M59 47C59 48.6569 60.3431 50 62 50C63.6569 50 65 48.6569 65 47L59 47ZM62 36L59 36L59 47L62 47L65 47L65 36L62 36Z" fill="white"/>
<path d="M65 86C65 84.3431 63.6569 83 62 83C60.3431 83 59 84.3431 59 86L65 86ZM62 95L65 95L65 86L62 86L59 86L59 95L62 95Z" fill="white"/>
<mask id="path-7-outside-1_275_181" maskUnits="userSpaceOnUse" x="55" y="49" width="62" height="43" fill="black">
<rect fill="white" x="55" y="49" width="62" height="43"/>
<path d="M65.0678 83.2382C65.0678 82.0455 66.0346 81.0786 67.2273 81.0786H69.6954C70.8881 81.0786 71.8549 82.0455 71.8549 83.2382V84.7807C71.8549 85.9734 70.8881 86.9403 69.6954 86.9403H67.2273C66.0346 86.9403 65.0678 85.9734 65.0678 84.7807V83.2382Z"/>
<path d="M100.542 83.2382C100.542 82.0455 101.509 81.0786 102.702 81.0786H105.17C106.362 81.0786 107.329 82.0455 107.329 83.2382V84.7807C107.329 85.9734 106.362 86.9403 105.17 86.9403H102.702C101.509 86.9403 100.542 85.9734 100.542 84.7807V83.2382Z"/>
<path d="M67.6016 66.6694L70.9069 55.6143C71.1934 54.6563 72.0747 54 73.0745 54H99.5034C100.503 54 101.385 54.6563 101.671 55.6143L104.976 66.6694H67.6016Z"/>
<path d="M67.1412 67.5044H105.161L108.699 72.188C108.982 72.5628 109.135 73.0198 109.135 73.4895V82.3128H63.1673V73.4895C63.1673 73.0198 63.3205 72.5628 63.6037 72.188L67.1412 67.5044Z"/>
<path d="M70.769 64.2999L73.1325 57.1884C73.2722 56.768 73.6654 56.4844 74.1084 56.4844H98.0418C98.4847 56.4844 98.8779 56.768 99.0176 57.1884L101.381 64.2999H70.769Z"/>
<path d="M60 64.4194C60 63.8514 60.4604 63.391 61.0284 63.391H64.9361V65.4477H61.0284C60.4604 65.4477 60 64.9873 60 64.4194Z"/>
<path d="M112 64.4194C112 63.8514 111.54 63.391 110.972 63.391H107.064V65.4477H110.972C111.54 65.4477 112 64.9873 112 64.4194Z"/>
<path d="M66.0502 72.7489C65.7285 73.0574 65.6389 73.88 65.7417 74.3427C65.8445 74.8055 66.8729 75.9371 67.3357 76.2454C67.8726 76.6032 68.4154 77.1195 69.6495 77.2222C70.2131 77.269 71.3182 77.0165 71.7576 76.708C72.1969 76.3995 72.8824 75.6796 72.8374 75.2683C72.7923 74.8569 72.5077 74.5435 72.0661 74.3427C71.5005 74.0857 70.706 74.0363 69.7523 73.6743C68.7831 73.3065 68.1069 72.5947 67.5928 72.4404C67.0786 72.2861 66.372 72.4403 66.0502 72.7489Z"/>
<path d="M106.528 72.7489C106.849 73.0574 106.939 73.88 106.836 74.3427C106.733 74.8055 105.705 75.9371 105.242 76.2454C104.705 76.6032 104.162 77.1195 102.928 77.2222C102.365 77.269 101.26 77.0165 100.82 76.708C100.381 76.3995 99.6955 75.6796 99.7406 75.2683C99.7857 74.8569 100.07 74.5435 100.512 74.3427C101.077 74.0857 101.872 74.0363 102.826 73.6743C103.795 73.3065 104.471 72.5947 104.985 72.4404C105.499 72.2861 106.206 72.4403 106.528 72.7489Z"/>
</mask>
<path d="M65.0678 83.2382C65.0678 82.0455 66.0346 81.0786 67.2273 81.0786H69.6954C70.8881 81.0786 71.8549 82.0455 71.8549 83.2382V84.7807C71.8549 85.9734 70.8881 86.9403 69.6954 86.9403H67.2273C66.0346 86.9403 65.0678 85.9734 65.0678 84.7807V83.2382Z" fill="#707583"/>
<path d="M100.542 83.2382C100.542 82.0455 101.509 81.0786 102.702 81.0786H105.17C106.362 81.0786 107.329 82.0455 107.329 83.2382V84.7807C107.329 85.9734 106.362 86.9403 105.17 86.9403H102.702C101.509 86.9403 100.542 85.9734 100.542 84.7807V83.2382Z" fill="#707583"/>
<path d="M67.6016 66.6694L70.9069 55.6143C71.1934 54.6563 72.0747 54 73.0745 54H99.5034C100.503 54 101.385 54.6563 101.671 55.6143L104.976 66.6694H67.6016Z" fill="#D9D9D9"/>
<path d="M67.1412 67.5044H105.161L108.699 72.188C108.982 72.5628 109.135 73.0198 109.135 73.4895V82.3128H63.1673V73.4895C63.1673 73.0198 63.3205 72.5628 63.6037 72.188L67.1412 67.5044Z" fill="#D9D9D9"/>
<path d="M70.769 64.2999L73.1325 57.1884C73.2722 56.768 73.6654 56.4844 74.1084 56.4844H98.0418C98.4847 56.4844 98.8779 56.768 99.0176 57.1884L101.381 64.2999H70.769Z" fill="#81DAFC"/>
<path d="M60 64.4194C60 63.8514 60.4604 63.391 61.0284 63.391H64.9361V65.4477H61.0284C60.4604 65.4477 60 64.9873 60 64.4194Z" fill="#707583"/>
<path d="M112 64.4194C112 63.8514 111.54 63.391 110.972 63.391H107.064V65.4477H110.972C111.54 65.4477 112 64.9873 112 64.4194Z" fill="#707583"/>
<path d="M66.0502 72.7489C65.7285 73.0574 65.6389 73.88 65.7417 74.3427C65.8445 74.8055 66.8729 75.9371 67.3357 76.2454C67.8726 76.6032 68.4154 77.1195 69.6495 77.2222C70.2131 77.269 71.3182 77.0165 71.7576 76.708C72.1969 76.3995 72.8824 75.6796 72.8374 75.2683C72.7923 74.8569 72.5077 74.5435 72.0661 74.3427C71.5005 74.0857 70.706 74.0363 69.7523 73.6743C68.7831 73.3065 68.1069 72.5947 67.5928 72.4404C67.0786 72.2861 66.372 72.4403 66.0502 72.7489Z" fill="#FFC943" fill-opacity="0.74"/>
<path d="M106.528 72.7489C106.849 73.0574 106.939 73.88 106.836 74.3427C106.733 74.8055 105.705 75.9371 105.242 76.2454C104.705 76.6032 104.162 77.1195 102.928 77.2222C102.365 77.269 101.26 77.0165 100.82 76.708C100.381 76.3995 99.6955 75.6796 99.7406 75.2683C99.7857 74.8569 100.07 74.5435 100.512 74.3427C101.077 74.0857 101.872 74.0363 102.826 73.6743C103.795 73.3065 104.471 72.5947 104.985 72.4404C105.499 72.2861 106.206 72.4403 106.528 72.7489Z" fill="#FFC943" fill-opacity="0.74"/>
<path d="M65.8988 66.9964L68.022 65.6765L68.022 65.6765L65.8988 66.9964ZM66.3955 67.0388L64.527 65.3779L64.527 65.3779L66.3955 67.0388ZM66.4461 66.7031L68.7208 65.6661L66.4461 66.7031ZM106.101 66.9964L103.978 65.6765L103.978 65.6765L106.101 66.9964ZM105.604 67.0388L107.473 65.3779L107.473 65.3779L105.604 67.0388ZM105.554 66.7031L103.279 65.6661L105.554 66.7031ZM64.9361 65.4477L62.8129 66.7675L63.7756 68.3162L65.8988 66.9964L68.022 65.6765L67.0593 64.1279L64.9361 65.4477ZM66.4461 66.7031L68.7208 65.6661L67.2109 62.354L64.9361 63.391L62.6614 64.428L64.1713 67.7401L66.4461 66.7031ZM65.8988 66.9964L63.7756 68.3162C64.7676 69.912 67.0157 70.1041 68.264 68.6997L66.3955 67.0388L64.527 65.3779C65.499 64.2844 67.2496 64.4339 68.022 65.6765L65.8988 66.9964ZM66.3955 67.0388L68.264 68.6997C69.0033 67.868 69.1824 66.6786 68.7208 65.6661L66.4461 66.7031L64.1713 67.7401C63.8119 66.9517 63.9513 66.0255 64.527 65.3779L66.3955 67.0388ZM107.064 65.4477L104.941 64.1279L103.978 65.6765L106.101 66.9964L108.224 68.3162L109.187 66.7675L107.064 65.4477ZM105.554 66.7031L107.829 67.7401L109.339 64.428L107.064 63.391L104.789 62.354L103.279 65.6661L105.554 66.7031ZM106.101 66.9964L103.978 65.6765C104.75 64.4339 106.501 64.2844 107.473 65.3779L105.604 67.0388L103.736 68.6997C104.984 70.1041 107.232 69.912 108.224 68.3162L106.101 66.9964ZM105.604 67.0388L107.473 65.3779C108.049 66.0255 108.188 66.9518 107.829 67.7401L105.554 66.7031L103.279 65.6661C102.818 66.6785 102.997 67.868 103.736 68.6997L105.604 67.0388ZM67.6016 66.6694L62.8112 65.2371L60.888 71.6694H67.6016V66.6694ZM104.976 66.6694V71.6694H111.69L109.767 65.2371L104.976 66.6694ZM101.671 55.6143L106.461 54.182L106.461 54.182L101.671 55.6143ZM70.9069 55.6143L66.1165 54.182L66.1165 54.182L70.9069 55.6143ZM67.1412 67.5044V62.5044C65.5734 62.5044 64.0963 63.2398 63.1514 64.4909L67.1412 67.5044ZM105.161 67.5044L109.151 64.4909C108.206 63.2398 106.729 62.5044 105.161 62.5044V67.5044ZM63.1673 82.3128H58.1673C58.1673 85.0742 60.4059 87.3128 63.1673 87.3128V82.3128ZM109.135 82.3128V87.3128C111.896 87.3128 114.135 85.0742 114.135 82.3128H109.135ZM108.699 72.188L112.688 69.1744L112.688 69.1744L108.699 72.188ZM63.6037 72.188L59.6138 69.1744L59.6138 69.1744L63.6037 72.188ZM70.769 64.2999L66.0242 62.723C65.5175 64.2474 65.7742 65.9225 66.7141 67.2253C67.6539 68.5281 69.1625 69.2999 70.769 69.2999V64.2999ZM101.381 64.2999V69.2999C102.988 69.2999 104.496 68.5281 105.436 67.2253C106.376 65.9225 106.633 64.2474 106.126 62.723L101.381 64.2999ZM99.0176 57.1884L94.2728 58.7654L94.2728 58.7654L99.0176 57.1884ZM73.1325 57.1884L68.3877 55.6115L68.3877 55.6115L73.1325 57.1884ZM64.9361 63.391H69.9361C69.9361 60.6296 67.6975 58.391 64.9361 58.391V63.391ZM64.9361 65.4477V70.4477H69.9361V65.4477H64.9361ZM107.064 63.391V58.391C104.302 58.391 102.064 60.6296 102.064 63.391H107.064ZM107.064 65.4477H102.064V70.4477H107.064V65.4477ZM65.7417 74.3427L70.6227 73.2582L70.6227 73.2582L65.7417 74.3427ZM66.0502 72.7489L69.5107 76.3579L69.5107 76.3579L66.0502 72.7489ZM67.5928 72.4404L69.0296 67.6513L67.5928 72.4404ZM69.7523 73.6743L71.5264 68.9997L71.5264 68.9997L69.7523 73.6743ZM72.0661 74.3427L74.1351 69.7909L74.1351 69.7909L72.0661 74.3427ZM72.8374 75.2683L67.8671 75.8129L67.8671 75.8129L72.8374 75.2683ZM71.7576 76.708L74.6309 80.7999L74.6309 80.7999L71.7576 76.708ZM69.6495 77.2222L70.0639 72.2394L69.6495 77.2222ZM67.3357 76.2454L64.5634 80.4065L64.5634 80.4065L67.3357 76.2454ZM106.836 74.3427L101.955 73.2582L101.955 73.2582L106.836 74.3427ZM106.528 72.7489L103.067 76.3579L103.067 76.3579L106.528 72.7489ZM104.985 72.4404L103.548 67.6513L104.985 72.4404ZM102.826 73.6743L101.052 68.9997L101.051 68.9997L102.826 73.6743ZM100.512 74.3427L98.4428 69.7909L98.4428 69.7909L100.512 74.3427ZM99.7406 75.2683L104.711 75.8129L104.711 75.8129L99.7406 75.2683ZM100.82 76.708L97.947 80.7999L97.947 80.7999L100.82 76.708ZM102.928 77.2222L102.514 72.2394L102.928 77.2222ZM105.242 76.2454L108.015 80.4065L108.015 80.4065L105.242 76.2454ZM67.2273 81.0786V86.0786H69.6954V81.0786V76.0786H67.2273V81.0786ZM71.8549 83.2382H66.8549V84.7807H71.8549H76.8549V83.2382H71.8549ZM69.6954 86.9403V81.9403H67.2273V86.9403V91.9403H69.6954V86.9403ZM65.0678 84.7807H70.0678V83.2382H65.0678H60.0678V84.7807H65.0678ZM67.2273 86.9403V81.9403C68.796 81.9403 70.0678 83.212 70.0678 84.7807H65.0678H60.0678C60.0678 88.7348 63.2732 91.9403 67.2273 91.9403V86.9403ZM71.8549 84.7807H66.8549C66.8549 83.212 68.1266 81.9403 69.6954 81.9403V86.9403V91.9403C73.6495 91.9403 76.8549 88.7348 76.8549 84.7807H71.8549ZM69.6954 81.0786V86.0786C68.1266 86.0786 66.8549 84.8069 66.8549 83.2382H71.8549H76.8549C76.8549 79.2841 73.6495 76.0786 69.6954 76.0786V81.0786ZM67.2273 81.0786V76.0786C63.2732 76.0786 60.0678 79.2841 60.0678 83.2382H65.0678H70.0678C70.0678 84.8069 68.796 86.0786 67.2273 86.0786V81.0786ZM102.702 81.0786V86.0786H105.17V81.0786V76.0786H102.702V81.0786ZM107.329 83.2382H102.329V84.7807H107.329H112.329V83.2382H107.329ZM105.17 86.9403V81.9403H102.702V86.9403V91.9403H105.17V86.9403ZM100.542 84.7807H105.542V83.2382H100.542H95.542V84.7807H100.542ZM102.702 86.9403V81.9403C104.27 81.9403 105.542 83.212 105.542 84.7807H100.542H95.542C95.542 88.7348 98.7475 91.9403 102.702 91.9403V86.9403ZM107.329 84.7807H102.329C102.329 83.212 103.601 81.9403 105.17 81.9403V86.9403V91.9403C109.124 91.9403 112.329 88.7348 112.329 84.7807H107.329ZM105.17 81.0786V86.0786C103.601 86.0786 102.329 84.8069 102.329 83.2382H107.329H112.329C112.329 79.2841 109.124 76.0786 105.17 76.0786V81.0786ZM102.702 81.0786V76.0786C98.7475 76.0786 95.542 79.2841 95.542 83.2382H100.542H105.542C105.542 84.8069 104.27 86.0786 102.702 86.0786V81.0786ZM67.6016 66.6694L72.3921 68.1017L75.6974 57.0466L70.9069 55.6143L66.1165 54.182L62.8112 65.2371L67.6016 66.6694ZM104.976 66.6694L109.767 65.2371L106.461 54.182L101.671 55.6143L96.8805 57.0466L100.186 68.1017L104.976 66.6694ZM101.671 55.6143L106.461 54.182C105.542 51.1069 102.713 49 99.5034 49V54V59C98.2935 59 97.2271 58.2058 96.8805 57.0466L101.671 55.6143ZM70.9069 55.6143L75.6974 57.0466C75.3508 58.2058 74.2844 59 73.0745 59V54V49C69.8649 49 67.0359 51.1069 66.1165 54.182L70.9069 55.6143ZM67.1412 67.5044L63.1514 64.4909L59.6138 69.1744L63.6037 72.188L67.5935 75.2015L71.131 70.518L67.1412 67.5044ZM63.1673 73.4895H58.1673V82.3128H63.1673H68.1673V73.4895H63.1673ZM105.161 67.5044L101.171 70.518L104.709 75.2015L108.699 72.188L112.688 69.1744L109.151 64.4909L105.161 67.5044ZM109.135 73.4895H104.135V82.3128H109.135H114.135V73.4895H109.135ZM108.699 72.188L104.709 75.2015C104.336 74.7084 104.135 74.1074 104.135 73.4895H109.135H114.135C114.135 71.9321 113.627 70.4172 112.688 69.1744L108.699 72.188ZM63.6037 72.188L59.6138 69.1744C58.6752 70.4172 58.1673 71.9321 58.1673 73.4895H63.1673H68.1673C68.1673 74.1074 67.9659 74.7084 67.5935 75.2015L63.6037 72.188ZM70.769 64.2999L75.5138 65.8769L77.8773 58.7654L73.1325 57.1884L68.3877 55.6115L66.0242 62.723L70.769 64.2999ZM101.381 64.2999L106.126 62.723L103.762 55.6115L99.0176 57.1884L94.2728 58.7654L96.6364 65.8769L101.381 64.2999ZM99.0176 57.1884L103.762 55.6115C102.943 53.1473 100.639 51.4844 98.0418 51.4844V56.4844V61.4844C96.3309 61.4844 94.8124 60.3888 94.2728 58.7654L99.0176 57.1884ZM73.1325 57.1884L77.8773 58.7654C77.3378 60.3889 75.8192 61.4844 74.1084 61.4844V56.4844V51.4844C71.5117 51.4844 69.2067 53.1472 68.3877 55.6115L73.1325 57.1884ZM61.0284 63.391V68.391H64.9361V63.391V58.391H61.0284V63.391ZM64.9361 63.391H59.9361V65.4477H64.9361H69.9361V63.391H64.9361ZM64.9361 65.4477V60.4477H61.0284V65.4477V70.4477H64.9361V65.4477ZM61.0284 65.4477V60.4477C63.2218 60.4477 65 62.2259 65 64.4194H60H55C55 67.7487 57.699 70.4477 61.0284 70.4477V65.4477ZM61.0284 63.391V58.391C57.699 58.391 55 61.09 55 64.4194H60H65C65 66.6128 63.2218 68.391 61.0284 68.391V63.391ZM110.972 63.391V58.391H107.064V63.391V68.391H110.972V63.391ZM107.064 63.391H102.064V65.4477H107.064H112.064V63.391H107.064ZM107.064 65.4477V70.4477H110.972V65.4477V60.4477H107.064V65.4477ZM110.972 65.4477V70.4477C114.301 70.4477 117 67.7487 117 64.4194H112H107C107 62.2259 108.778 60.4477 110.972 60.4477V65.4477ZM110.972 63.391V68.391C108.778 68.391 107 66.6128 107 64.4194H112H117C117 61.09 114.301 58.391 110.972 58.391V63.391ZM65.7417 74.3427L70.6227 73.2582C70.691 73.5659 70.7004 73.7918 70.7012 73.9067C70.7021 74.0365 70.6927 74.1645 70.6703 74.3007C70.6495 74.4267 70.602 74.6556 70.4823 74.9493C70.3776 75.2065 70.1092 75.7841 69.5107 76.3579L66.0502 72.7489L62.5898 69.1398C61.2252 70.4481 60.9006 72.0845 60.8032 72.6753C60.6737 73.4615 60.642 74.4431 60.8608 75.4273L65.7417 74.3427ZM66.0502 72.7489L69.5107 76.3579C69.1013 76.7504 68.709 76.9685 68.4582 77.0848C68.1928 77.2079 67.9549 77.2778 67.7567 77.3186C67.4218 77.3875 66.8631 77.4417 66.1559 77.2295L67.5928 72.4404L69.0296 67.6513C67.8082 67.2849 66.6391 67.3391 65.7419 67.5236C64.9023 67.6963 63.6567 68.1168 62.5898 69.1398L66.0502 72.7489ZM67.5928 72.4404L66.1559 77.2295C65.8683 77.1432 65.6595 77.0461 65.5497 76.9909C65.4373 76.9345 65.3692 76.8918 65.3629 76.8879C65.3556 76.8833 65.3711 76.8928 65.4312 76.9338C65.5126 76.9892 65.5416 77.0099 65.6731 77.1001C66.0604 77.3659 66.8921 77.9368 67.9781 78.349L69.7523 73.6743L71.5264 68.9997C71.6433 69.044 71.6523 69.0751 71.3308 68.8545C71.2376 68.7905 70.9305 68.5749 70.6587 68.4053C70.3969 68.2418 69.8062 67.8843 69.0296 67.6513L67.5928 72.4404ZM69.7523 73.6743L67.9781 78.349C68.8038 78.6623 69.5361 78.8288 69.9297 78.9196C70.1598 78.9728 70.2275 78.9889 70.2747 79.0019C70.3102 79.0116 70.1883 78.9815 69.9971 78.8946L72.0661 74.3427L74.1351 69.7909C73.661 69.5754 73.2278 69.4427 72.9254 69.3596C72.6348 69.2797 72.3382 69.2127 72.1798 69.1761C71.7963 69.0875 71.6545 69.0483 71.5264 68.9997L69.7523 73.6743ZM72.0661 74.3427L69.9971 78.8946C69.7119 78.7649 69.2419 78.4942 68.7949 77.9697C68.3161 77.4078 67.9601 76.6613 67.8671 75.8129L72.8374 75.2683L77.8076 74.7236C77.5089 71.9974 75.5928 70.4535 74.1351 69.7909L72.0661 74.3427ZM72.8374 75.2683L67.8671 75.8129C67.7908 75.1167 67.8869 74.5514 67.9785 74.1943C68.0716 73.8307 68.1919 73.5589 68.2734 73.3951C68.4295 73.0815 68.5756 72.9017 68.6079 72.8622C68.6614 72.7968 68.7121 72.7369 68.8843 72.616L71.7576 76.708L74.6309 80.7999C75.2424 80.3705 75.8555 79.7965 76.3504 79.1911C76.6033 78.8817 76.9398 78.4256 77.2255 77.8516C77.4576 77.3854 77.9725 76.2279 77.8076 74.7236L72.8374 75.2683ZM71.7576 76.708L68.8843 72.616C69.0891 72.4722 69.2555 72.3843 69.3447 72.3401C69.4407 72.2925 69.5099 72.2649 69.5429 72.2523C69.6042 72.229 69.6185 72.228 69.5896 72.2349C69.5633 72.2412 69.5551 72.241 69.5814 72.238C69.5967 72.2362 69.6391 72.2317 69.7062 72.2293C69.7682 72.2271 69.8928 72.2251 70.0639 72.2394L69.6495 77.2222L69.235 82.205C70.2768 82.2916 71.2835 82.1114 71.9106 81.9618C72.474 81.8274 73.6156 81.5128 74.6309 80.7999L71.7576 76.708ZM69.6495 77.2222L70.0639 72.2394C70.0753 72.2403 70.1446 72.2477 70.2528 72.2795C70.3049 72.2948 70.3582 72.3135 70.4111 72.3351C70.4639 72.3567 70.5098 72.3787 70.5473 72.3982C70.6196 72.4361 70.6481 72.4592 70.586 72.4165C70.5703 72.4057 70.5509 72.3921 70.5239 72.3731C70.4924 72.3509 70.4702 72.3351 70.4262 72.304C70.3884 72.2773 70.3406 72.2435 70.289 72.2077C70.2368 72.1714 70.1755 72.1294 70.1079 72.0844L67.3357 76.2454L64.5634 80.4065C64.5629 80.4062 64.5688 80.4101 64.5842 80.4208C64.6001 80.4318 64.6202 80.446 64.6511 80.4678C64.7016 80.5035 64.808 80.5793 64.9144 80.6526C65.1437 80.8105 65.4856 81.0362 65.9151 81.2607C66.8412 81.7447 67.9297 82.0964 69.235 82.205L69.6495 77.2222ZM67.3357 76.2454L70.1079 72.0844C70.261 72.1863 70.3517 72.2632 70.3657 72.275C70.3899 72.2955 70.3911 72.2979 70.3698 72.2774C70.325 72.2344 70.2559 72.1626 70.1867 72.0826C70.1107 71.9946 70.0933 71.9647 70.1208 72.0056C70.1348 72.0266 70.1946 72.1164 70.2704 72.2642C70.3097 72.341 70.3654 72.4568 70.4242 72.6061C70.481 72.7504 70.5593 72.9732 70.6227 73.2582L65.7417 74.3427L60.8608 75.4273C61.1041 76.5226 61.6595 77.3429 61.8173 77.5781C62.081 77.9711 62.3689 78.33 62.6207 78.6214C63.0279 79.0925 63.7559 79.8685 64.5634 80.4065L67.3357 76.2454ZM106.836 74.3427L111.717 75.4273C111.936 74.4431 111.904 73.4615 111.775 72.6753C111.677 72.0845 111.353 70.4481 109.988 69.1398L106.528 72.7489L103.067 76.3579C102.469 75.7841 102.2 75.2065 102.096 74.9494C101.976 74.6556 101.928 74.4267 101.908 74.3007C101.885 74.1645 101.876 74.0365 101.877 73.9067C101.878 73.7918 101.887 73.5659 101.955 73.2582L106.836 74.3427ZM106.528 72.7489L109.988 69.1398C108.921 68.1168 107.676 67.6963 106.836 67.5236C105.939 67.3391 104.77 67.2849 103.548 67.6513L104.985 72.4404L106.422 77.2295C105.715 77.4417 105.156 77.3875 104.821 77.3186C104.623 77.2778 104.385 77.2079 104.12 77.0848C103.869 76.9685 103.477 76.7504 103.067 76.3579L106.528 72.7489ZM104.985 72.4404L103.548 67.6513C102.772 67.8843 102.181 68.2418 101.919 68.4053C101.647 68.5749 101.34 68.7905 101.247 68.8545C100.926 69.0751 100.935 69.044 101.052 68.9997L102.826 73.6743L104.6 78.349C105.686 77.9368 106.517 77.3659 106.905 77.1001C107.036 77.0099 107.065 76.9892 107.147 76.9338C107.207 76.8928 107.222 76.8833 107.215 76.8879C107.209 76.8918 107.141 76.9345 107.028 76.9909C106.918 77.0461 106.71 77.1432 106.422 77.2295L104.985 72.4404ZM102.826 73.6743L101.051 68.9997C100.923 69.0483 100.782 69.0875 100.398 69.1761C100.24 69.2127 99.9432 69.2797 99.6525 69.3596C99.3501 69.4427 98.9169 69.5754 98.4428 69.7909L100.512 74.3427L102.581 78.8946C102.39 78.9815 102.268 79.0116 102.303 79.0019C102.35 78.9889 102.418 78.9728 102.648 78.9196C103.042 78.8288 103.774 78.6623 104.6 78.349L102.826 73.6743ZM100.512 74.3427L98.4428 69.7909C96.9851 70.4535 95.0691 71.9974 94.7703 74.7236L99.7406 75.2683L104.711 75.8129C104.618 76.6613 104.262 77.4078 103.783 77.9697C103.336 78.4942 102.866 78.7649 102.581 78.8946L100.512 74.3427ZM99.7406 75.2683L94.7703 74.7236C94.6055 76.2279 95.1204 77.3854 95.3525 77.8516C95.6382 78.4256 95.9746 78.8817 96.2276 79.1911C96.7224 79.7965 97.3355 80.3705 97.947 80.7999L100.82 76.708L103.694 72.616C103.866 72.7369 103.917 72.7968 103.97 72.8622C104.002 72.9017 104.148 73.0815 104.305 73.3951C104.386 73.5589 104.506 73.8307 104.599 74.1943C104.691 74.5514 104.787 75.1167 104.711 75.8129L99.7406 75.2683ZM100.82 76.708L97.947 80.7999C98.9623 81.5128 100.104 81.8274 100.667 81.9618C101.294 82.1114 102.301 82.2916 103.343 82.205L102.928 77.2222L102.514 72.2394C102.685 72.2251 102.81 72.2271 102.872 72.2293C102.939 72.2317 102.981 72.2362 102.997 72.238C103.023 72.241 103.015 72.2412 102.988 72.2349C102.959 72.228 102.974 72.229 103.035 72.2523C103.068 72.2649 103.137 72.2925 103.233 72.3401C103.322 72.3843 103.489 72.4722 103.694 72.616L100.82 76.708ZM102.928 77.2222L103.343 82.205C104.648 82.0964 105.737 81.7447 106.663 81.2607C107.092 81.0362 107.434 80.8105 107.664 80.6526C107.77 80.5793 107.876 80.5035 107.927 80.4678C107.958 80.446 107.978 80.4318 107.994 80.4208C108.009 80.4101 108.015 80.4062 108.015 80.4065L105.242 76.2454L102.47 72.0844C102.402 72.1294 102.341 72.1714 102.289 72.2077C102.237 72.2435 102.19 72.2773 102.152 72.304C102.108 72.3351 102.086 72.3509 102.054 72.3731C102.027 72.3921 102.008 72.4057 101.992 72.4165C101.93 72.4592 101.958 72.4361 102.031 72.3982C102.068 72.3787 102.114 72.3567 102.167 72.3351C102.22 72.3135 102.273 72.2948 102.325 72.2795C102.433 72.2477 102.503 72.2403 102.514 72.2394L102.928 77.2222ZM105.242 76.2454L108.015 80.4065C108.822 79.8685 109.55 79.0925 109.957 78.6214C110.209 78.33 110.497 77.9711 110.761 77.5781C110.918 77.3429 111.474 76.5226 111.717 75.4273L106.836 74.3427L101.955 73.2582C102.019 72.9732 102.097 72.7504 102.154 72.6061C102.212 72.4568 102.268 72.341 102.308 72.2642C102.383 72.1164 102.443 72.0266 102.457 72.0056C102.485 71.9647 102.467 71.9946 102.391 72.0826C102.322 72.1626 102.253 72.2344 102.208 72.2774C102.187 72.2979 102.188 72.2955 102.212 72.275C102.226 72.2632 102.317 72.1863 102.47 72.0844L105.242 76.2454ZM73.0745 54V59H99.5034V54V49H73.0745V54ZM67.6016 66.6694V71.6694H104.976V66.6694V61.6694H67.6016V66.6694ZM67.1412 67.5044V72.5044H105.161V67.5044V62.5044H67.1412V67.5044ZM63.1673 82.3128V87.3128H109.135V82.3128V77.3128H63.1673V82.3128ZM74.1084 56.4844V61.4844H98.0418V56.4844V51.4844H74.1084V56.4844ZM70.769 64.2999V69.2999H101.381V64.2999V59.2999H70.769V64.2999Z" fill="white" mask="url(#path-7-outside-1_275_181)"/>
<rect x="64.0677" y="80.0786" width="8.78717" height="7.86165" rx="3.93082" fill="#707583" stroke="black" stroke-width="2"/>
<rect x="99.542" y="80.0786" width="8.78717" height="7.86165" rx="3.93082" fill="#707583" stroke="black" stroke-width="2"/>
<path d="M98.5284 53L98.7169 53.0039C100.659 53.0834 102.348 54.3865 102.908 56.2617L105.935 66.3828L106.319 67.6689H66.2589L66.6436 66.3828L69.67 56.2617C70.2488 54.3262 72.0296 53 74.0499 53H98.5284Z" fill="#D9D9D9" stroke="black" stroke-width="2"/>
<path d="M105.161 66.5044L105.278 66.5112C105.547 66.5428 105.794 66.6829 105.959 66.9019L109.245 71.2515L109.449 71.5454C109.896 72.2498 110.135 73.0695 110.135 73.9087V82.313C110.135 82.8651 109.687 83.3129 109.135 83.313H63.1674C62.6151 83.313 62.1675 82.8652 62.1674 82.313V73.9087C62.1674 72.9497 62.4801 72.0167 63.058 71.2515L66.3431 66.9019L66.4193 66.813C66.6067 66.6173 66.8667 66.5045 67.141 66.5044H105.161Z" fill="#D9D9D9" stroke="black" stroke-width="2" stroke-linejoin="round"/>
<path d="M97.4502 56L97.6484 56.0078C98.6324 56.082 99.4993 56.7046 99.8779 57.6279L101.925 62.6201C102.051 62.9285 102.016 63.2798 101.83 63.5566C101.644 63.8335 101.333 64 101 64H72C71.6666 64 71.3556 63.8335 71.1699 63.5566C70.9843 63.2798 70.9487 62.9285 71.0752 62.6201L73.1221 57.6279C73.526 56.6431 74.4854 56 75.5498 56H97.4502Z" fill="black" stroke="black" stroke-width="2" stroke-linejoin="round"/>
<path d="M63.9365 62.391L64.0381 62.3959C64.3984 62.4324 64.7005 62.6611 64.8447 62.9769L64.8457 62.976L66.3564 66.2885L66.4229 66.4691C66.5286 66.8357 66.4688 67.231 66.2598 67.5502L66.1426 67.7035C65.5967 68.3171 64.6411 68.2771 64.1426 67.6566L64.0498 67.5248L63.3799 66.4476H60.0283C58.9081 66.4476 58 65.5395 58 64.4193C58 63.2991 58.9081 62.391 60.0283 62.391H63.9365Z" fill="#707583" stroke="black" stroke-width="2" stroke-linejoin="round"/>
<path d="M108.063 62.391L107.962 62.3959C107.602 62.4324 107.299 62.6611 107.155 62.9769L107.154 62.976L105.644 66.2885L105.577 66.4691C105.471 66.8357 105.531 67.231 105.74 67.5502L105.857 67.7035C106.403 68.3171 107.359 68.2771 107.857 67.6566L107.95 67.5248L108.62 66.4476H111.972C113.092 66.4476 114 65.5395 114 64.4193C114 63.2991 113.092 62.391 111.972 62.391H108.063Z" fill="#707583" stroke="black" stroke-width="2" stroke-linejoin="round"/>
<path d="M66.5479 71.4414C66.9522 71.3583 67.4301 71.3475 67.8799 71.4824L68.0674 71.5498C68.2488 71.6241 68.4103 71.7169 68.5401 71.7979C68.715 71.907 68.9071 72.0423 69.0674 72.1523C69.4153 72.391 69.7432 72.601 70.1075 72.7393L70.4073 72.8438C70.7035 72.9385 70.9887 73.0061 71.2794 73.0732C71.6341 73.1552 72.0857 73.2536 72.4796 73.4326L72.7188 73.5547C73.2299 73.8475 73.679 74.3203 73.8077 74.999L73.8311 75.1592L73.8399 75.3008C73.8416 75.623 73.7305 75.8967 73.6446 76.0693C73.5356 76.2881 73.3918 76.4894 73.253 76.6592C73.0465 76.9118 72.7998 77.1554 72.5635 77.3496L72.3321 77.5264C71.9534 77.7923 71.4164 77.9677 70.9825 78.0713C70.5915 78.1646 70.1326 78.2355 69.7335 78.2275L69.5665 78.2188C68.4072 78.1223 67.6806 77.7024 67.1944 77.3682L66.7813 77.0771C66.4348 76.8462 65.9911 76.4034 65.6475 76.0059C65.4661 75.796 65.2859 75.5689 65.1387 75.3496C65.0285 75.1853 64.8781 74.9425 64.796 74.6758L64.7657 74.5596C64.6808 74.1776 64.6844 73.7241 64.7501 73.3252C64.8094 72.9654 64.9569 72.4123 65.3585 72.0273L65.4913 71.9111C65.8129 71.6564 66.2041 71.5121 66.5479 71.4414Z" fill="black" stroke="black" stroke-width="2"/>
<path d="M106.03 71.4414C105.626 71.3583 105.148 71.3475 104.698 71.4824L104.51 71.5498C104.329 71.6241 104.168 71.7169 104.038 71.7979C103.863 71.907 103.671 72.0423 103.51 72.1523C103.163 72.391 102.835 72.601 102.47 72.7393L102.171 72.8438C101.874 72.9385 101.589 73.0061 101.299 73.0732C100.944 73.1552 100.492 73.2536 100.098 73.4326L99.8591 73.5547C99.3481 73.8475 98.8989 74.3203 98.7703 74.999L98.7468 75.1592L98.738 75.3008C98.7363 75.623 98.8474 75.8967 98.9333 76.0693C99.0423 76.2881 99.1862 76.4894 99.325 76.6592C99.5314 76.9118 99.7781 77.1554 100.014 77.3496L100.246 77.5264C100.625 77.7923 101.162 77.9677 101.595 78.0713C101.986 78.1646 102.445 78.2355 102.844 78.2275L103.011 78.2188C104.171 78.1223 104.897 77.7024 105.384 77.3682L105.797 77.0771C106.143 76.8462 106.587 76.4034 106.93 76.0059C107.112 75.796 107.292 75.5689 107.439 75.3496C107.549 75.1853 107.7 74.9425 107.782 74.6758L107.812 74.5596C107.897 74.1776 107.894 73.7241 107.828 73.3252C107.769 72.9654 107.621 72.4123 107.219 72.0273L107.087 71.9111C106.765 71.6564 106.374 71.5121 106.03 71.4414Z" fill="black" stroke="black" stroke-width="2"/>
</svg>
