<svg width="140" height="140" viewBox="0 0 140 140" fill="none" xmlns="http://www.w3.org/2000/svg">
<path d="M71 1C106.899 1 136 30.1015 136 66C136 101.899 106.899 131 71 131C56.0255 131 44.0339 127.845 33.0469 119.307C32.9367 119.406 32.814 119.519 32.6777 119.642C32.0431 120.214 31.1343 121.028 30.0381 121.999C27.8464 123.94 24.901 126.51 21.8906 129.019C18.8853 131.523 15.7947 133.984 13.3193 135.697C12.0879 136.55 10.9697 137.245 10.0713 137.664C9.62812 137.871 9.18022 138.038 8.7666 138.104C8.39071 138.163 7.76482 138.179 7.29297 137.707C6.86198 137.276 6.81946 136.684 6.82812 136.315C6.8381 135.893 6.92833 135.409 7.05957 134.906C7.32448 133.891 7.80855 132.598 8.42383 131.154C9.65898 128.256 11.4871 124.603 13.3652 121.034C15.2461 117.46 17.1888 113.952 18.6602 111.338C19.3961 110.03 20.0145 108.945 20.4492 108.188C20.57 107.977 20.6766 107.792 20.7676 107.634C10.3734 96.1265 6 82.7067 6 66C6 30.1015 35.1015 1 71 1Z" stroke="black" stroke-width="2"/>
<path d="M71 3.5C105.518 3.5 133.5 31.4822 133.5 66C133.5 100.518 105.518 128.5 71 128.5C56.1345 128.5 44.5569 125.326 33.9375 116.829L32.9355 116.027L31.9883 116.893H31.9873L31.9727 116.907C31.9619 116.917 31.9452 116.932 31.9238 116.951C31.8808 116.99 31.8171 117.049 31.7334 117.125C31.5657 117.277 31.3188 117.5 31.0039 117.784C30.3739 118.352 29.4708 119.162 28.3809 120.127C26.1998 122.059 23.2743 124.611 20.29 127.098C17.2982 129.591 14.2771 131.993 11.8965 133.642C11.0026 134.26 10.2305 134.75 9.60449 135.095C9.84316 134.311 10.2228 133.31 10.7236 132.135C11.9178 129.333 13.7071 125.751 15.5771 122.198C17.4432 118.653 19.3741 115.166 20.8389 112.563C21.5708 111.263 22.1854 110.184 22.6172 109.432C22.8331 109.055 23.0032 108.76 23.1191 108.56C23.1771 108.459 23.2221 108.383 23.252 108.331C23.2667 108.306 23.2777 108.286 23.2852 108.273C23.2889 108.267 23.2921 108.262 23.2939 108.259C23.2947 108.257 23.2955 108.257 23.2959 108.256L23.2969 108.255C23.297 108.255 23.2965 108.254 22 107.5L23.2969 108.254L23.8545 107.296L23.1016 106.481C12.8511 95.3964 8.5 82.4621 8.5 66C8.5 31.4822 36.4822 3.5 71 3.5Z" fill="#787878" stroke="white" stroke-width="3"/>
<mask id="path-3-outside-1_275_181" maskUnits="userSpaceOnUse" x="23" y="35" width="92" height="65" fill="black">
<rect fill="white" x="23" y="35" width="92" height="65"/>
<path d="M34.0833 84.9537C34.0833 84.9537 33.1298 86.1636 33.575 86.7329C33.9469 87.2084 35.0999 86.987 35.0999 86.987L42.979 83.4287L43.4873 85.2079L45.7748 87.7495L47.8081 88.0037L48.5706 87.2412L45.0123 84.9537V82.4121C45.0123 82.4121 50.4035 80.6855 53.6539 79.1079C56.3343 77.807 60.2622 75.2955 60.2622 75.2955L63.058 79.6163L63.3121 84.6995L59.2455 86.2245L55.6872 83.4287L50.0956 86.4787L51.6206 86.987L56.1955 84.9537L59.2455 88.7662L65.0913 84.9537V81.9037L68.6496 86.2245L69.6662 85.7162L62.2955 74.7872C62.2955 74.7872 66.4343 72.7794 69.4121 71.7372C72.3898 70.695 77.5453 69.4497 77.5453 69.4497L73.987 64.1123L75.2578 62.3331C75.2578 62.3331 74.9976 61.8188 74.7495 61.5706C74.5014 61.3225 73.987 61.0623 73.987 61.0623L66.8704 64.6206L63.058 63.3498L61.0247 60.554L55.6872 54.454L54.4164 50.8957L53.1456 48.8624V46.3208L53.6539 44.5416L52.3831 46.8291L52.8914 49.8791L54.1622 51.6582L54.4164 53.4374L49.8414 50.3874L43.4873 46.0666L47.8081 50.8957L53.6539 54.9624L58.2288 59.2831L48.5706 58.7748C48.5706 58.7748 46.3713 57.9124 45.0123 57.2498C43.3745 56.4513 40.9457 54.9624 40.9457 54.9624C40.9457 54.9624 42.2192 57.1204 43.4873 58.0123C44.5428 58.7547 46.5373 59.2831 46.5373 59.2831C46.5373 59.2831 42.8704 60.5912 40.4374 60.554C39.0338 60.5325 36.8791 60.0456 36.8791 60.0456L39.1666 61.5706H42.4707L47.8081 60.0456C47.8081 60.0456 49.662 60.3883 50.8581 60.554C53.2259 60.8819 56.958 61.0623 56.958 61.0623L59.7538 63.3498L64.3288 66.1456L51.8748 73.5163L47.8081 71.2289C47.8081 71.2289 44.2724 70.3067 41.9624 69.958C39.6965 69.6161 36.1166 69.4497 36.1166 69.4497L29 65.6372L35.6083 70.7205L40.4374 71.9913L36.1166 73.5163L33.575 72.4997H30.0167L32.05 73.008L35.0999 74.2788C35.0999 74.2788 36.0294 74.6879 36.6249 74.7872C37.2205 74.8864 37.597 75.0083 38.1499 74.7872C39.4207 74.2788 41.7082 72.4997 41.7082 72.4997H45.0123L49.8414 74.7872L34.0833 84.9537Z"/>
<path d="M87.8994 93.3578C87.8994 93.3578 85.8729 93.4945 85.3578 92.5953C85.1543 92.2402 85.1036 91.5786 85.1036 91.5786C85.1036 91.5786 88.1536 90.562 88.9161 84.7162C90.1062 75.592 79.512 63.1123 79.512 63.1123L82.3078 64.3831L81.5453 61.3331L78.7495 58.5373L80.0203 58.2831L78.7495 55.7415L82.8161 57.0123L82.3078 54.4707L86.1203 61.079L89.6785 65.1456L92.7285 69.9747L93.9993 71.7538C93.9993 71.7538 94.175 65.9129 93.2368 62.3498C92.6689 60.1928 91.2035 57.0123 91.2035 57.0123L88.6619 45.3208L90.6952 49.1332L88.9161 41L91.7119 49.3874L92.7285 53.9624L93.9993 47.8624L94.2535 54.7249C94.2535 54.7249 97.2503 63.7037 97.8118 68.1955C98.8284 76.3288 98.2895 79.4049 101.878 85.2245C104.164 88.9303 109.503 93.3578 109.503 93.3578C109.503 93.3578 109.936 94.1551 109.757 94.6286C109.442 95.4643 107.47 94.6286 107.47 94.6286C107.47 94.6286 101.445 91.7429 97.3035 91.5786C93.5687 91.4305 87.8994 93.3578 87.8994 93.3578Z"/>
</mask>
<path d="M34.0833 84.9537C34.0833 84.9537 33.1298 86.1636 33.575 86.7329C33.9469 87.2084 35.0999 86.987 35.0999 86.987L42.979 83.4287L43.4873 85.2079L45.7748 87.7495L47.8081 88.0037L48.5706 87.2412L45.0123 84.9537V82.4121C45.0123 82.4121 50.4035 80.6855 53.6539 79.1079C56.3343 77.807 60.2622 75.2955 60.2622 75.2955L63.058 79.6163L63.3121 84.6995L59.2455 86.2245L55.6872 83.4287L50.0956 86.4787L51.6206 86.987L56.1955 84.9537L59.2455 88.7662L65.0913 84.9537V81.9037L68.6496 86.2245L69.6662 85.7162L62.2955 74.7872C62.2955 74.7872 66.4343 72.7794 69.4121 71.7372C72.3898 70.695 77.5453 69.4497 77.5453 69.4497L73.987 64.1123L75.2578 62.3331C75.2578 62.3331 74.9976 61.8188 74.7495 61.5706C74.5014 61.3225 73.987 61.0623 73.987 61.0623L66.8704 64.6206L63.058 63.3498L61.0247 60.554L55.6872 54.454L54.4164 50.8957L53.1456 48.8624V46.3208L53.6539 44.5416L52.3831 46.8291L52.8914 49.8791L54.1622 51.6582L54.4164 53.4374L49.8414 50.3874L43.4873 46.0666L47.8081 50.8957L53.6539 54.9624L58.2288 59.2831L48.5706 58.7748C48.5706 58.7748 46.3713 57.9124 45.0123 57.2498C43.3745 56.4513 40.9457 54.9624 40.9457 54.9624C40.9457 54.9624 42.2192 57.1204 43.4873 58.0123C44.5428 58.7547 46.5373 59.2831 46.5373 59.2831C46.5373 59.2831 42.8704 60.5912 40.4374 60.554C39.0338 60.5325 36.8791 60.0456 36.8791 60.0456L39.1666 61.5706H42.4707L47.8081 60.0456C47.8081 60.0456 49.662 60.3883 50.8581 60.554C53.2259 60.8819 56.958 61.0623 56.958 61.0623L59.7538 63.3498L64.3288 66.1456L51.8748 73.5163L47.8081 71.2289C47.8081 71.2289 44.2724 70.3067 41.9624 69.958C39.6965 69.6161 36.1166 69.4497 36.1166 69.4497L29 65.6372L35.6083 70.7205L40.4374 71.9913L36.1166 73.5163L33.575 72.4997H30.0167L32.05 73.008L35.0999 74.2788C35.0999 74.2788 36.0294 74.6879 36.6249 74.7872C37.2205 74.8864 37.597 75.0083 38.1499 74.7872C39.4207 74.2788 41.7082 72.4997 41.7082 72.4997H45.0123L49.8414 74.7872L34.0833 84.9537Z" fill="#B35D0A"/>
<path d="M87.8994 93.3578C87.8994 93.3578 85.8729 93.4945 85.3578 92.5953C85.1543 92.2402 85.1036 91.5786 85.1036 91.5786C85.1036 91.5786 88.1536 90.562 88.9161 84.7162C90.1062 75.592 79.512 63.1123 79.512 63.1123L82.3078 64.3831L81.5453 61.3331L78.7495 58.5373L80.0203 58.2831L78.7495 55.7415L82.8161 57.0123L82.3078 54.4707L86.1203 61.079L89.6785 65.1456L92.7285 69.9747L93.9993 71.7538C93.9993 71.7538 94.175 65.9129 93.2368 62.3498C92.6689 60.1928 91.2035 57.0123 91.2035 57.0123L88.6619 45.3208L90.6952 49.1332L88.9161 41L91.7119 49.3874L92.7285 53.9624L93.9993 47.8624L94.2535 54.7249C94.2535 54.7249 97.2503 63.7037 97.8118 68.1955C98.8284 76.3288 98.2895 79.4049 101.878 85.2245C104.164 88.9303 109.503 93.3578 109.503 93.3578C109.503 93.3578 109.936 94.1551 109.757 94.6286C109.442 95.4643 107.47 94.6286 107.47 94.6286C107.47 94.6286 101.445 91.7429 97.3035 91.5786C93.5687 91.4305 87.8994 93.3578 87.8994 93.3578Z" fill="#B35D0A"/>
<path d="M34.0833 84.9537C34.0833 84.9537 33.1298 86.1636 33.575 86.7329C33.9469 87.2084 35.0999 86.987 35.0999 86.987L42.979 83.4287L43.4873 85.2079L45.7748 87.7495L47.8081 88.0037L48.5706 87.2412L45.0123 84.9537V82.4121C45.0123 82.4121 50.4035 80.6855 53.6539 79.1079C56.3343 77.807 60.2622 75.2955 60.2622 75.2955L63.058 79.6163L63.3121 84.6995L59.2455 86.2245L55.6872 83.4287L50.0956 86.4787L51.6206 86.987L56.1955 84.9537L59.2455 88.7662L65.0913 84.9537V81.9037L68.6496 86.2245L69.6662 85.7162L62.2955 74.7872C62.2955 74.7872 66.4343 72.7794 69.4121 71.7372C72.3898 70.695 77.5453 69.4497 77.5453 69.4497L73.987 64.1123L75.2578 62.3331C75.2578 62.3331 74.9976 61.8188 74.7495 61.5706C74.5014 61.3225 73.987 61.0623 73.987 61.0623L66.8704 64.6206L63.058 63.3498L61.0247 60.554L55.6872 54.454L54.4164 50.8957L53.1456 48.8624V46.3208L53.6539 44.5416L52.3831 46.8291L52.8914 49.8791L54.1622 51.6582L54.4164 53.4374L49.8414 50.3874L43.4873 46.0666L47.8081 50.8957L53.6539 54.9624L58.2288 59.2831L48.5706 58.7748C48.5706 58.7748 46.3713 57.9124 45.0123 57.2498C43.3745 56.4513 40.9457 54.9624 40.9457 54.9624C40.9457 54.9624 42.2192 57.1204 43.4873 58.0123C44.5428 58.7547 46.5373 59.2831 46.5373 59.2831C46.5373 59.2831 42.8704 60.5912 40.4374 60.554C39.0338 60.5325 36.8791 60.0456 36.8791 60.0456L39.1666 61.5706H42.4707L47.8081 60.0456C47.8081 60.0456 49.662 60.3883 50.8581 60.554C53.2259 60.8819 56.958 61.0623 56.958 61.0623L59.7538 63.3498L64.3288 66.1456L51.8748 73.5163L47.8081 71.2289C47.8081 71.2289 44.2724 70.3067 41.9624 69.958C39.6965 69.6161 36.1166 69.4497 36.1166 69.4497L29 65.6372L35.6083 70.7205L40.4374 71.9913L36.1166 73.5163L33.575 72.4997H30.0167L32.05 73.008L35.0999 74.2788C35.0999 74.2788 36.0294 74.6879 36.6249 74.7872C37.2205 74.8864 37.597 75.0083 38.1499 74.7872C39.4207 74.2788 41.7082 72.4997 41.7082 72.4997H45.0123L49.8414 74.7872L34.0833 84.9537Z" stroke="white" stroke-width="10" stroke-linecap="round" stroke-linejoin="round" mask="url(#path-3-outside-1_275_181)"/>
<path d="M87.8994 93.3578C87.8994 93.3578 85.8729 93.4945 85.3578 92.5953C85.1543 92.2402 85.1036 91.5786 85.1036 91.5786C85.1036 91.5786 88.1536 90.562 88.9161 84.7162C90.1062 75.592 79.512 63.1123 79.512 63.1123L82.3078 64.3831L81.5453 61.3331L78.7495 58.5373L80.0203 58.2831L78.7495 55.7415L82.8161 57.0123L82.3078 54.4707L86.1203 61.079L89.6785 65.1456L92.7285 69.9747L93.9993 71.7538C93.9993 71.7538 94.175 65.9129 93.2368 62.3498C92.6689 60.1928 91.2035 57.0123 91.2035 57.0123L88.6619 45.3208L90.6952 49.1332L88.9161 41L91.7119 49.3874L92.7285 53.9624L93.9993 47.8624L94.2535 54.7249C94.2535 54.7249 97.2503 63.7037 97.8118 68.1955C98.8284 76.3288 98.2895 79.4049 101.878 85.2245C104.164 88.9303 109.503 93.3578 109.503 93.3578C109.503 93.3578 109.936 94.1551 109.757 94.6286C109.442 95.4643 107.47 94.6286 107.47 94.6286C107.47 94.6286 101.445 91.7429 97.3035 91.5786C93.5687 91.4305 87.8994 93.3578 87.8994 93.3578Z" stroke="white" stroke-width="10" stroke-linecap="round" stroke-linejoin="round" mask="url(#path-3-outside-1_275_181)"/>
<path d="M93 35.5C95.4853 35.5 97.5 37.5147 97.5 40V95C97.5 97.4853 95.4853 99.5 93 99.5H58C55.5147 99.5 53.5 97.4853 53.5 95V40C53.5 37.5147 55.5147 35.5 58 35.5H93Z" fill="#D9D9D9" stroke="white" stroke-width="5"/>
<path fill-rule="evenodd" clip-rule="evenodd" d="M58 36H93C95.2091 36 97 37.7909 97 40V95C97 97.2091 95.2091 99 93 99H58C55.7909 99 54 97.2091 54 95V40C54 37.7909 55.7909 36 58 36ZM58 38C56.8954 38 56 38.8954 56 40V95C56 96.1046 56.8954 97 58 97H93C94.1046 97 95 96.1046 95 95V40C95 38.8954 94.1046 38 93 38H58Z" fill="black"/>
<path d="M34.0833 84.9537C34.0833 84.9537 33.1298 86.1636 33.575 86.7329C33.9469 87.2084 35.0999 86.987 35.0999 86.987L42.979 83.4287L43.4873 85.2079L45.7748 87.7495L47.8081 88.0037L48.5706 87.2412L45.0123 84.9537V82.4121C45.0123 82.4121 50.4035 80.6855 53.6539 79.1079C56.3343 77.807 60.2622 75.2955 60.2622 75.2955L63.058 79.6163L63.3121 84.6995L59.2455 86.2245L55.6872 83.4287L50.0956 86.4787L51.6206 86.987L56.1955 84.9537L59.2455 88.7662L65.0913 84.9537V81.9037L68.6496 86.2245L69.6662 85.7162L62.2955 74.7872C62.2955 74.7872 66.4343 72.7794 69.4121 71.7372C72.3898 70.695 77.5453 69.4497 77.5453 69.4497L73.987 64.1123L75.2578 62.3331C75.2578 62.3331 74.9976 61.8188 74.7495 61.5706C74.5014 61.3225 73.987 61.0623 73.987 61.0623L66.8704 64.6206L63.058 63.3498L61.0247 60.554L55.6872 54.454L54.4164 50.8957L53.1456 48.8624V46.3208L53.6539 44.5416L52.3831 46.8291L52.8914 49.8791L54.1622 51.6582L54.4164 53.4374L49.8414 50.3874L43.4873 46.0666L47.8081 50.8957L53.6539 54.9624L58.2288 59.2831L48.5706 58.7748C48.5706 58.7748 46.3713 57.9124 45.0123 57.2498C43.3745 56.4513 40.9457 54.9624 40.9457 54.9624C40.9457 54.9624 42.2192 57.1204 43.4873 58.0123C44.5428 58.7547 46.5373 59.2831 46.5373 59.2831C46.5373 59.2831 42.8704 60.5912 40.4374 60.554C39.0338 60.5325 36.8791 60.0456 36.8791 60.0456L39.1666 61.5706H42.4707L47.8081 60.0456C47.8081 60.0456 49.662 60.3883 50.8581 60.554C53.2259 60.8819 56.958 61.0623 56.958 61.0623L59.7538 63.3498L64.3288 66.1456L51.8748 73.5163L47.8081 71.2289C47.8081 71.2289 44.2724 70.3067 41.9624 69.958C39.6965 69.6161 36.1166 69.4497 36.1166 69.4497L29 65.6372L35.6083 70.7205L40.4374 71.9913L36.1166 73.5163L33.575 72.4997H30.0167L32.05 73.008L35.0999 74.2788C35.0999 74.2788 36.0294 74.6879 36.6249 74.7872C37.2205 74.8864 37.597 75.0083 38.1499 74.7872C39.4207 74.2788 41.7082 72.4997 41.7082 72.4997H45.0123L49.8414 74.7872L34.0833 84.9537Z" fill="#B35D0A"/>
<path d="M87.8994 93.3578C87.8994 93.3578 85.8729 93.4945 85.3578 92.5953C85.1543 92.2402 85.1036 91.5786 85.1036 91.5786C85.1036 91.5786 88.1536 90.562 88.9161 84.7162C90.1062 75.592 79.512 63.1123 79.512 63.1123L82.3078 64.3831L81.5453 61.3331L78.7495 58.5373L80.0203 58.2831L78.7495 55.7415L82.8161 57.0123L82.3078 54.4707L86.1203 61.079L89.6785 65.1456L92.7285 69.9747L93.9993 71.7538C93.9993 71.7538 94.175 65.9129 93.2368 62.3498C92.6689 60.1928 91.2035 57.0123 91.2035 57.0123L88.6619 45.3208L90.6952 49.1332L88.9161 41L91.7119 49.3874L92.7285 53.9624L93.9993 47.8624L94.2535 54.7249C94.2535 54.7249 97.2503 63.7037 97.8118 68.1955C98.8284 76.3288 98.2895 79.4049 101.878 85.2245C104.164 88.9303 109.503 93.3578 109.503 93.3578C109.503 93.3578 109.936 94.1551 109.757 94.6286C109.442 95.4643 107.47 94.6286 107.47 94.6286C107.47 94.6286 101.445 91.7429 97.3035 91.5786C93.5687 91.4305 87.8994 93.3578 87.8994 93.3578Z" fill="#B35D0A"/>
<mask id="path-7-outside-2_275_181" maskUnits="userSpaceOnUse" x="26" y="38" width="86" height="59" fill="black">
<rect fill="white" x="26" y="38" width="86" height="59"/>
<path d="M34.0833 84.9537C34.0833 84.9537 33.1298 86.1636 33.575 86.7329C33.9469 87.2084 35.0999 86.987 35.0999 86.987L42.979 83.4287L43.4873 85.2079L45.7748 87.7495L47.8081 88.0037L48.5706 87.2412L45.0123 84.9537V82.4121C45.0123 82.4121 50.4035 80.6855 53.6539 79.1079C56.3343 77.807 60.2622 75.2955 60.2622 75.2955L63.058 79.6163L63.3121 84.6995L59.2455 86.2245L55.6872 83.4287L50.0956 86.4787L51.6206 86.987L56.1955 84.9537L59.2455 88.7662L65.0913 84.9537V81.9037L68.6496 86.2245L69.6662 85.7162L62.2955 74.7872C62.2955 74.7872 66.4343 72.7794 69.4121 71.7372C72.3898 70.695 77.5453 69.4497 77.5453 69.4497L73.987 64.1123L75.2578 62.3331C75.2578 62.3331 74.9976 61.8188 74.7495 61.5706C74.5014 61.3225 73.987 61.0623 73.987 61.0623L66.8704 64.6206L63.058 63.3498L61.0247 60.554L55.6872 54.454L54.4164 50.8957L53.1456 48.8624V46.3208L53.6539 44.5416L52.3831 46.8291L52.8914 49.8791L54.1622 51.6582L54.4164 53.4374L49.8414 50.3874L43.4873 46.0666L47.8081 50.8957L53.6539 54.9624L58.2288 59.2831L48.5706 58.7748C48.5706 58.7748 46.3713 57.9124 45.0123 57.2498C43.3745 56.4513 40.9457 54.9624 40.9457 54.9624C40.9457 54.9624 42.2192 57.1204 43.4873 58.0123C44.5428 58.7547 46.5373 59.2831 46.5373 59.2831C46.5373 59.2831 42.8704 60.5912 40.4374 60.554C39.0338 60.5325 36.8791 60.0456 36.8791 60.0456L39.1666 61.5706H42.4707L47.8081 60.0456C47.8081 60.0456 49.662 60.3883 50.8581 60.554C53.2259 60.8819 56.958 61.0623 56.958 61.0623L59.7538 63.3498L64.3288 66.1456L51.8748 73.5163L47.8081 71.2289C47.8081 71.2289 44.2724 70.3067 41.9624 69.958C39.6965 69.6161 36.1166 69.4497 36.1166 69.4497L29 65.6372L35.6083 70.7205L40.4374 71.9913L36.1166 73.5163L33.575 72.4997H30.0167L32.05 73.008L35.0999 74.2788C35.0999 74.2788 36.0294 74.6879 36.6249 74.7872C37.2205 74.8864 37.597 75.0083 38.1499 74.7872C39.4207 74.2788 41.7082 72.4997 41.7082 72.4997H45.0123L49.8414 74.7872L34.0833 84.9537Z"/>
<path d="M87.8994 93.3578C87.8994 93.3578 85.8729 93.4945 85.3578 92.5953C85.1543 92.2402 85.1036 91.5786 85.1036 91.5786C85.1036 91.5786 88.1536 90.562 88.9161 84.7162C90.1062 75.592 79.512 63.1123 79.512 63.1123L82.3078 64.3831L81.5453 61.3331L78.7495 58.5373L80.0203 58.2831L78.7495 55.7415L82.8161 57.0123L82.3078 54.4707L86.1203 61.079L89.6785 65.1456L92.7285 69.9747L93.9993 71.7538C93.9993 71.7538 94.175 65.9129 93.2368 62.3498C92.6689 60.1928 91.2035 57.0123 91.2035 57.0123L88.6619 45.3208L90.6952 49.1332L88.9161 41L91.7119 49.3874L92.7285 53.9624L93.9993 47.8624L94.2535 54.7249C94.2535 54.7249 97.2503 63.7037 97.8118 68.1955C98.8284 76.3288 98.2895 79.4049 101.878 85.2245C104.164 88.9303 109.503 93.3578 109.503 93.3578C109.503 93.3578 109.936 94.1551 109.757 94.6286C109.442 95.4643 107.47 94.6286 107.47 94.6286C107.47 94.6286 101.445 91.7429 97.3035 91.5786C93.5687 91.4305 87.8994 93.3578 87.8994 93.3578Z"/>
</mask>
<path d="M34.0833 84.9537C34.0833 84.9537 33.1298 86.1636 33.575 86.7329C33.9469 87.2084 35.0999 86.987 35.0999 86.987L42.979 83.4287L43.4873 85.2079L45.7748 87.7495L47.8081 88.0037L48.5706 87.2412L45.0123 84.9537V82.4121C45.0123 82.4121 50.4035 80.6855 53.6539 79.1079C56.3343 77.807 60.2622 75.2955 60.2622 75.2955L63.058 79.6163L63.3121 84.6995L59.2455 86.2245L55.6872 83.4287L50.0956 86.4787L51.6206 86.987L56.1955 84.9537L59.2455 88.7662L65.0913 84.9537V81.9037L68.6496 86.2245L69.6662 85.7162L62.2955 74.7872C62.2955 74.7872 66.4343 72.7794 69.4121 71.7372C72.3898 70.695 77.5453 69.4497 77.5453 69.4497L73.987 64.1123L75.2578 62.3331C75.2578 62.3331 74.9976 61.8188 74.7495 61.5706C74.5014 61.3225 73.987 61.0623 73.987 61.0623L66.8704 64.6206L63.058 63.3498L61.0247 60.554L55.6872 54.454L54.4164 50.8957L53.1456 48.8624V46.3208L53.6539 44.5416L52.3831 46.8291L52.8914 49.8791L54.1622 51.6582L54.4164 53.4374L49.8414 50.3874L43.4873 46.0666L47.8081 50.8957L53.6539 54.9624L58.2288 59.2831L48.5706 58.7748C48.5706 58.7748 46.3713 57.9124 45.0123 57.2498C43.3745 56.4513 40.9457 54.9624 40.9457 54.9624C40.9457 54.9624 42.2192 57.1204 43.4873 58.0123C44.5428 58.7547 46.5373 59.2831 46.5373 59.2831C46.5373 59.2831 42.8704 60.5912 40.4374 60.554C39.0338 60.5325 36.8791 60.0456 36.8791 60.0456L39.1666 61.5706H42.4707L47.8081 60.0456C47.8081 60.0456 49.662 60.3883 50.8581 60.554C53.2259 60.8819 56.958 61.0623 56.958 61.0623L59.7538 63.3498L64.3288 66.1456L51.8748 73.5163L47.8081 71.2289C47.8081 71.2289 44.2724 70.3067 41.9624 69.958C39.6965 69.6161 36.1166 69.4497 36.1166 69.4497L29 65.6372L35.6083 70.7205L40.4374 71.9913L36.1166 73.5163L33.575 72.4997H30.0167L32.05 73.008L35.0999 74.2788C35.0999 74.2788 36.0294 74.6879 36.6249 74.7872C37.2205 74.8864 37.597 75.0083 38.1499 74.7872C39.4207 74.2788 41.7082 72.4997 41.7082 72.4997H45.0123L49.8414 74.7872L34.0833 84.9537Z" fill="#B35D0A"/>
<path d="M87.8994 93.3578C87.8994 93.3578 85.8729 93.4945 85.3578 92.5953C85.1543 92.2402 85.1036 91.5786 85.1036 91.5786C85.1036 91.5786 88.1536 90.562 88.9161 84.7162C90.1062 75.592 79.512 63.1123 79.512 63.1123L82.3078 64.3831L81.5453 61.3331L78.7495 58.5373L80.0203 58.2831L78.7495 55.7415L82.8161 57.0123L82.3078 54.4707L86.1203 61.079L89.6785 65.1456L92.7285 69.9747L93.9993 71.7538C93.9993 71.7538 94.175 65.9129 93.2368 62.3498C92.6689 60.1928 91.2035 57.0123 91.2035 57.0123L88.6619 45.3208L90.6952 49.1332L88.9161 41L91.7119 49.3874L92.7285 53.9624L93.9993 47.8624L94.2535 54.7249C94.2535 54.7249 97.2503 63.7037 97.8118 68.1955C98.8284 76.3288 98.2895 79.4049 101.878 85.2245C104.164 88.9303 109.503 93.3578 109.503 93.3578C109.503 93.3578 109.936 94.1551 109.757 94.6286C109.442 95.4643 107.47 94.6286 107.47 94.6286C107.47 94.6286 101.445 91.7429 97.3035 91.5786C93.5687 91.4305 87.8994 93.3578 87.8994 93.3578Z" fill="#B35D0A"/>
<path d="M34.0833 84.9537C34.0833 84.9537 33.1298 86.1636 33.575 86.7329C33.9469 87.2084 35.0999 86.987 35.0999 86.987L42.979 83.4287L43.4873 85.2079L45.7748 87.7495L47.8081 88.0037L48.5706 87.2412L45.0123 84.9537V82.4121C45.0123 82.4121 50.4035 80.6855 53.6539 79.1079C56.3343 77.807 60.2622 75.2955 60.2622 75.2955L63.058 79.6163L63.3121 84.6995L59.2455 86.2245L55.6872 83.4287L50.0956 86.4787L51.6206 86.987L56.1955 84.9537L59.2455 88.7662L65.0913 84.9537V81.9037L68.6496 86.2245L69.6662 85.7162L62.2955 74.7872C62.2955 74.7872 66.4343 72.7794 69.4121 71.7372C72.3898 70.695 77.5453 69.4497 77.5453 69.4497L73.987 64.1123L75.2578 62.3331C75.2578 62.3331 74.9976 61.8188 74.7495 61.5706C74.5014 61.3225 73.987 61.0623 73.987 61.0623L66.8704 64.6206L63.058 63.3498L61.0247 60.554L55.6872 54.454L54.4164 50.8957L53.1456 48.8624V46.3208L53.6539 44.5416L52.3831 46.8291L52.8914 49.8791L54.1622 51.6582L54.4164 53.4374L49.8414 50.3874L43.4873 46.0666L47.8081 50.8957L53.6539 54.9624L58.2288 59.2831L48.5706 58.7748C48.5706 58.7748 46.3713 57.9124 45.0123 57.2498C43.3745 56.4513 40.9457 54.9624 40.9457 54.9624C40.9457 54.9624 42.2192 57.1204 43.4873 58.0123C44.5428 58.7547 46.5373 59.2831 46.5373 59.2831C46.5373 59.2831 42.8704 60.5912 40.4374 60.554C39.0338 60.5325 36.8791 60.0456 36.8791 60.0456L39.1666 61.5706H42.4707L47.8081 60.0456C47.8081 60.0456 49.662 60.3883 50.8581 60.554C53.2259 60.8819 56.958 61.0623 56.958 61.0623L59.7538 63.3498L64.3288 66.1456L51.8748 73.5163L47.8081 71.2289C47.8081 71.2289 44.2724 70.3067 41.9624 69.958C39.6965 69.6161 36.1166 69.4497 36.1166 69.4497L29 65.6372L35.6083 70.7205L40.4374 71.9913L36.1166 73.5163L33.575 72.4997H30.0167L32.05 73.008L35.0999 74.2788C35.0999 74.2788 36.0294 74.6879 36.6249 74.7872C37.2205 74.8864 37.597 75.0083 38.1499 74.7872C39.4207 74.2788 41.7082 72.4997 41.7082 72.4997H45.0123L49.8414 74.7872L34.0833 84.9537Z" stroke="black" stroke-width="4" stroke-linecap="round" stroke-linejoin="round" mask="url(#path-7-outside-2_275_181)"/>
<path d="M87.8994 93.3578C87.8994 93.3578 85.8729 93.4945 85.3578 92.5953C85.1543 92.2402 85.1036 91.5786 85.1036 91.5786C85.1036 91.5786 88.1536 90.562 88.9161 84.7162C90.1062 75.592 79.512 63.1123 79.512 63.1123L82.3078 64.3831L81.5453 61.3331L78.7495 58.5373L80.0203 58.2831L78.7495 55.7415L82.8161 57.0123L82.3078 54.4707L86.1203 61.079L89.6785 65.1456L92.7285 69.9747L93.9993 71.7538C93.9993 71.7538 94.175 65.9129 93.2368 62.3498C92.6689 60.1928 91.2035 57.0123 91.2035 57.0123L88.6619 45.3208L90.6952 49.1332L88.9161 41L91.7119 49.3874L92.7285 53.9624L93.9993 47.8624L94.2535 54.7249C94.2535 54.7249 97.2503 63.7037 97.8118 68.1955C98.8284 76.3288 98.2895 79.4049 101.878 85.2245C104.164 88.9303 109.503 93.3578 109.503 93.3578C109.503 93.3578 109.936 94.1551 109.757 94.6286C109.442 95.4643 107.47 94.6286 107.47 94.6286C107.47 94.6286 101.445 91.7429 97.3035 91.5786C93.5687 91.4305 87.8994 93.3578 87.8994 93.3578Z" stroke="black" stroke-width="4" stroke-linecap="round" stroke-linejoin="round" mask="url(#path-7-outside-2_275_181)"/>
<path d="M72 49C72 50.6569 73.3431 52 75 52C76.6569 52 78 50.6569 78 49L72 49ZM75 38L72 38L72 49L75 49L78 49L78 38L75 38Z" fill="white"/>
<path d="M78 88C78 86.3431 76.6569 85 75 85C73.3431 85 72 86.3431 72 88L78 88ZM75 97L78 97L78 88L75 88L72 88L72 97L75 97Z" fill="white"/>
</svg>
