<svg width="140" height="140" viewBox="0 0 140 140" fill="none" xmlns="http://www.w3.org/2000/svg">
<path d="M71 1C106.899 1 136 30.1015 136 66C136 101.899 106.899 131 71 131C56.0255 131 44.0339 127.845 33.0469 119.307C32.9367 119.406 32.814 119.519 32.6777 119.642C32.0431 120.214 31.1343 121.028 30.0381 121.999C27.8464 123.94 24.901 126.51 21.8906 129.019C18.8853 131.523 15.7947 133.984 13.3193 135.697C12.0879 136.55 10.9697 137.245 10.0713 137.664C9.62812 137.871 9.18022 138.038 8.7666 138.104C8.39071 138.163 7.76482 138.179 7.29297 137.707C6.86198 137.276 6.81946 136.684 6.82812 136.315C6.8381 135.893 6.92833 135.409 7.05957 134.906C7.32448 133.891 7.80855 132.598 8.42383 131.154C9.65898 128.256 11.4871 124.603 13.3652 121.034C15.2461 117.46 17.1888 113.952 18.6602 111.338C19.3961 110.03 20.0145 108.945 20.4492 108.188C20.57 107.977 20.6766 107.792 20.7676 107.634C10.3734 96.1265 6 82.7067 6 66C6 30.1015 35.1015 1 71 1Z" stroke="black" stroke-width="2"/>
<path d="M71 3.5C105.518 3.5 133.5 31.4822 133.5 66C133.5 100.518 105.518 128.5 71 128.5C56.1345 128.5 44.5569 125.326 33.9375 116.829L32.9355 116.027L31.9883 116.893H31.9873L31.9727 116.907C31.9619 116.917 31.9452 116.932 31.9238 116.951C31.8808 116.99 31.8171 117.049 31.7334 117.125C31.5657 117.277 31.3188 117.5 31.0039 117.784C30.3739 118.352 29.4708 119.162 28.3809 120.127C26.1998 122.059 23.2743 124.611 20.29 127.098C17.2982 129.591 14.2771 131.993 11.8965 133.642C11.0026 134.26 10.2305 134.75 9.60449 135.095C9.84316 134.311 10.2228 133.31 10.7236 132.135C11.9178 129.333 13.7071 125.751 15.5771 122.198C17.4432 118.653 19.3741 115.166 20.8389 112.563C21.5708 111.263 22.1854 110.184 22.6172 109.432C22.8331 109.055 23.0032 108.76 23.1191 108.56C23.1771 108.459 23.2221 108.383 23.252 108.331C23.2667 108.306 23.2777 108.286 23.2852 108.273C23.2889 108.267 23.2921 108.262 23.2939 108.259C23.2947 108.257 23.2955 108.257 23.2959 108.256L23.2969 108.255C23.297 108.255 23.2965 108.254 22 107.5L23.2969 108.254L23.8545 107.296L23.1016 106.481C12.8511 95.3964 8.5 82.4621 8.5 66C8.5 31.4822 36.4822 3.5 71 3.5Z" fill="#787878" stroke="white" stroke-width="3"/>
<path d="M95.3232 42.5205C96.5531 42.4336 98.347 42.5912 99.9902 43.8115L100.307 44.0596C101.824 45.3172 102.429 46.8467 102.581 48.1377C102.659 48.7941 102.618 49.3606 102.556 49.7715C102.524 49.9786 102.487 50.1527 102.453 50.2871C102.436 50.3545 102.42 50.413 102.406 50.4609C102.399 50.4849 102.393 50.5065 102.387 50.5254C102.384 50.5348 102.381 50.5436 102.378 50.5518C102.377 50.5557 102.376 50.5598 102.375 50.5635L102.372 50.5723L100 49.7822L102.371 50.5742C102.258 50.9133 102.073 51.2248 101.829 51.4863L99.1787 54.3301C105.139 56.1083 109.5 61.5912 109.5 68.1113C109.5 76.0798 102.986 82.5 95 82.5H71C63.014 82.5 56.5003 76.0798 56.5 68.1113C56.5 60.1426 63.0138 53.7217 71 53.7217H81.9707L92.2402 43.5479L92.4287 43.3789C92.6247 43.2205 92.8439 43.0922 93.0791 42.999L94 45.3232C93.0836 43.0097 93.0802 42.9985 93.0811 42.998H93.083C93.0842 42.9976 93.0856 42.9966 93.0869 42.9961C93.0896 42.995 93.0927 42.9934 93.0957 42.9922C93.1018 42.9898 93.1089 42.9872 93.1162 42.9844C93.1309 42.9788 93.1482 42.9721 93.168 42.9648C93.2079 42.9502 93.2586 42.9331 93.3184 42.9131C93.4375 42.8732 93.5963 42.8237 93.7881 42.7734C94.1678 42.6739 94.6986 42.5647 95.3232 42.5205Z" fill="#B35D0A" stroke="white" stroke-width="5" stroke-linecap="round" stroke-linejoin="round"/>
<path d="M82 35.5C84.4853 35.5 86.5 37.5147 86.5 40V95C86.5 97.4853 84.4853 99.5 82 99.5H47C44.5147 99.5 42.5 97.4853 42.5 95V40C42.5 37.5147 44.5147 35.5 47 35.5H82Z" fill="#D9D9D9" stroke="white" stroke-width="5"/>
<path fill-rule="evenodd" clip-rule="evenodd" d="M47 36H82C84.2091 36 86 37.7909 86 40V95C86 97.2091 84.2091 99 82 99H47C44.7909 99 43 97.2091 43 95V40C43 37.7909 44.7909 36 47 36ZM47 38C45.8954 38 45 38.8954 45 40V95C45 96.1046 45.8954 97 47 97H82C83.1046 97 84 96.1046 84 95V40C84 38.8954 83.1046 38 82 38H47Z" fill="black"/>
<path d="M95.4297 44.0166C96.4466 43.9447 97.8394 44.0817 99.0967 45.0156L99.3447 45.2109C100.536 46.1965 100.979 47.358 101.092 48.3135C101.15 48.8102 101.119 49.2394 101.072 49.5479C101.049 49.7027 101.021 49.8297 100.998 49.9229C100.986 49.9695 100.976 50.0086 100.968 50.0381C100.963 50.0527 100.959 50.065 100.956 50.0752C100.954 50.0802 100.953 50.085 100.952 50.0889C100.952 50.0908 100.951 50.0931 100.95 50.0947L100.949 50.0967V50.0977L100 49.7822L100.948 50.0986C100.903 50.2343 100.829 50.3592 100.731 50.4639L96.2432 55.2803C102.833 55.9005 108 61.4009 108 68.1113C108 75.2383 102.171 81 95 81H71C63.8292 81 58.0003 75.2383 58 68.1113C58 60.9841 63.8291 55.2217 71 55.2217H82.5889L93.2959 44.6133L93.3711 44.5459C93.4496 44.4824 93.5376 44.4309 93.6318 44.3936L94 45.3232C93.6567 44.4566 93.634 44.3977 93.6328 44.3936V44.3926H93.6348C93.636 44.3921 93.6381 44.3912 93.6396 44.3906C93.6427 44.3895 93.6463 44.3883 93.6504 44.3867C93.6592 44.3834 93.6709 44.379 93.6846 44.374C93.7118 44.364 93.7484 44.3502 93.7939 44.335C93.8849 44.3045 94.0117 44.2656 94.168 44.2246C94.4793 44.143 94.9172 44.0528 95.4297 44.0166Z" fill="#B35D0A" stroke="black" stroke-width="2" stroke-linecap="round" stroke-linejoin="round"/>
<path d="M96.5 55L92.5 59" stroke="black" stroke-width="2" stroke-linecap="round"/>
<circle cx="71" cy="68" r="4.5" stroke="white" stroke-opacity="0.59" stroke-width="3"/>
<circle cx="71" cy="68" r="9.5" stroke="white" stroke-opacity="0.59" stroke-width="3"/>
<path d="M61 49C61 50.6569 62.3431 52 64 52C65.6569 52 67 50.6569 67 49L61 49ZM64 38L61 38L61 49L64 49L67 49L67 38L64 38Z" fill="white"/>
<path d="M67 88C67 86.3431 65.6569 85 64 85C62.3431 85 61 86.3431 61 88L67 88ZM64 97L67 97L67 88L64 88L61 88L61 97L64 97Z" fill="white"/>
</svg>
