<svg width="140" height="140" viewBox="0 0 140 140" fill="none" xmlns="http://www.w3.org/2000/svg">
<path d="M71 1C106.899 1 136 30.1015 136 66C136 101.899 106.899 131 71 131C56.0255 131 44.0339 127.845 33.0469 119.307C32.9367 119.406 32.814 119.519 32.6777 119.642C32.0431 120.214 31.1343 121.028 30.0381 121.999C27.8464 123.94 24.901 126.51 21.8906 129.019C18.8853 131.523 15.7947 133.984 13.3193 135.697C12.0879 136.55 10.9697 137.245 10.0713 137.664C9.62812 137.871 9.18022 138.038 8.7666 138.104C8.39071 138.163 7.76482 138.179 7.29297 137.707C6.86198 137.276 6.81946 136.684 6.82812 136.315C6.8381 135.893 6.92833 135.409 7.05957 134.906C7.32448 133.891 7.80855 132.598 8.42383 131.154C9.65898 128.256 11.4871 124.603 13.3652 121.034C15.2461 117.46 17.1888 113.952 18.6602 111.338C19.3961 110.03 20.0145 108.945 20.4492 108.188C20.57 107.977 20.6766 107.792 20.7676 107.634C10.3734 96.1265 6 82.7067 6 66C6 30.1015 35.1015 1 71 1Z" stroke="black" stroke-width="2"/>
<path d="M71 3.5C105.518 3.5 133.5 31.4822 133.5 66C133.5 100.518 105.518 128.5 71 128.5C56.1345 128.5 44.5569 125.326 33.9375 116.829L32.9355 116.027L31.9883 116.893H31.9873L31.9727 116.907C31.9619 116.917 31.9452 116.932 31.9238 116.951C31.8808 116.99 31.8171 117.049 31.7334 117.125C31.5657 117.277 31.3188 117.5 31.0039 117.784C30.3739 118.352 29.4708 119.162 28.3809 120.127C26.1998 122.059 23.2743 124.611 20.29 127.098C17.2982 129.591 14.2771 131.993 11.8965 133.642C11.0026 134.26 10.2305 134.75 9.60449 135.095C9.84316 134.311 10.2228 133.31 10.7236 132.135C11.9178 129.333 13.7071 125.751 15.5771 122.198C17.4432 118.653 19.3741 115.166 20.8389 112.563C21.5708 111.263 22.1854 110.184 22.6172 109.432C22.8331 109.055 23.0032 108.76 23.1191 108.56C23.1771 108.459 23.2221 108.383 23.252 108.331C23.2667 108.306 23.2777 108.286 23.2852 108.273C23.2889 108.267 23.2921 108.262 23.2939 108.259C23.2947 108.257 23.2955 108.257 23.2959 108.256L23.2969 108.255C23.297 108.255 23.2965 108.254 22 107.5L23.2969 108.254L23.8545 107.296L23.1016 106.481C12.8511 95.3964 8.5 82.4621 8.5 66C8.5 31.4822 36.4822 3.5 71 3.5Z" fill="#211F1E" stroke="white" stroke-width="3"/>
<mask id="path-3-outside-1_275_181" maskUnits="userSpaceOnUse" x="74.0001" y="42" width="6" height="63" fill="black">
<rect fill="white" x="74.0001" y="42" width="6" height="63"/>
<path d="M76.0001 44H78.0001V105H76.0001V44Z"/>
</mask>
<path d="M76.0001 44H78.0001V105H76.0001V44Z" fill="black"/>
<path d="M76.0001 44V42H74.0001V44H76.0001ZM78.0001 44H80.0001V42H78.0001V44ZM76.0001 44V46H78.0001V44V42H76.0001V44ZM78.0001 44H76.0001V105H78.0001H80.0001V44H78.0001ZM76.0001 105H78.0001V44H76.0001H74.0001V105H76.0001Z" fill="white" mask="url(#path-3-outside-1_275_181)"/>
<path d="M52.0525 34.1947C61.017 25.2302 75.5513 25.2302 84.5159 34.1947C93.4804 43.1592 93.4804 57.6935 84.5159 66.6581C75.5513 75.6226 61.017 75.6226 52.0525 66.6581C43.088 57.6936 43.088 43.1592 52.0525 34.1947Z" stroke="white" stroke-width="5"/>
<path d="M82.7482 35.9624C90.7364 43.9507 90.7364 56.9021 82.7482 64.8904C74.76 72.8786 61.8085 72.8786 53.8203 64.8904C45.8321 56.9021 45.8321 43.9507 53.8203 35.9624C61.8085 27.9742 74.76 27.9742 82.7482 35.9624Z" fill="white"/>
<path d="M79.256 45.4329L70.5087 63.8221L58.5485 58.133L59.8769 55.3405L68.5058 59.445L70.8805 54.4526L62.8712 50.6428L64.1995 47.8503L72.2089 51.6601L74.5964 46.6408L65.8957 42.5021L67.224 39.7096L79.256 45.4329Z" fill="black"/>
<path fill-rule="evenodd" clip-rule="evenodd" d="M84.3554 34.3553C93.2312 43.2311 93.2312 57.6217 84.3554 66.4975C75.4796 75.3733 61.089 75.3733 52.2132 66.4975C43.3374 57.6217 43.3374 43.2311 52.2132 34.3553C61.089 25.4795 75.4796 25.4795 84.3554 34.3553ZM82.7483 64.8904C90.7365 56.9021 90.7365 43.9507 82.7483 35.9624C74.76 27.9742 61.8086 27.9742 53.8203 35.9624C45.8321 43.9507 45.8321 56.9021 53.8203 64.8904C61.8086 72.8786 74.76 72.8786 82.7483 64.8904Z" fill="#FF0000"/>
<path d="M70.6949 29.534L63.4629 24.7127L70.2932 21.9003L74.7127 25.5163L77.1234 30.3376L75.5163 42.3909L71.9003 36.3642L70.6949 29.534Z" fill="#211F1E"/>
<path d="M84.5 61.0266L78.5329 57.8468L83.1697 57.2278L87.4064 61.0266L90.5 61.0266L91.8657 74.2455L87.7014 68.7672L84.5 61.0266Z" fill="#211F1E"/>
</svg>
