<svg width="140" height="140" viewBox="0 0 140 140" fill="none" xmlns="http://www.w3.org/2000/svg">
<path d="M71 1C106.899 1 136 30.1015 136 66C136 101.899 106.899 131 71 131C56.0255 131 44.0339 127.845 33.0469 119.307C32.9367 119.406 32.814 119.519 32.6777 119.642C32.0431 120.214 31.1343 121.028 30.0381 121.999C27.8464 123.94 24.901 126.51 21.8906 129.019C18.8853 131.523 15.7947 133.984 13.3193 135.697C12.0879 136.55 10.9697 137.245 10.0713 137.664C9.62812 137.871 9.18022 138.038 8.7666 138.104C8.39071 138.163 7.76482 138.179 7.29297 137.707C6.86198 137.276 6.81946 136.684 6.82812 136.315C6.8381 135.893 6.92833 135.409 7.05957 134.906C7.32448 133.891 7.80855 132.598 8.42383 131.154C9.65898 128.256 11.4871 124.603 13.3652 121.034C15.2461 117.46 17.1888 113.952 18.6602 111.338C19.3961 110.03 20.0145 108.945 20.4492 108.188C20.57 107.977 20.6766 107.792 20.7676 107.634C10.3734 96.1265 6 82.7067 6 66C6 30.1015 35.1015 1 71 1Z" stroke="black" stroke-width="2"/>
<path d="M71 3.5C105.518 3.5 133.5 31.4822 133.5 66C133.5 100.518 105.518 128.5 71 128.5C56.1345 128.5 44.5569 125.326 33.9375 116.829L32.9355 116.027L31.9883 116.893H31.9873L31.9727 116.907C31.9619 116.917 31.9452 116.932 31.9238 116.951C31.8808 116.99 31.8171 117.049 31.7334 117.125C31.5657 117.277 31.3188 117.5 31.0039 117.784C30.3739 118.352 29.4708 119.162 28.3809 120.127C26.1998 122.059 23.2743 124.611 20.29 127.098C17.2982 129.591 14.2771 131.993 11.8965 133.642C11.0026 134.26 10.2305 134.75 9.60449 135.095C9.84316 134.311 10.2228 133.31 10.7236 132.135C11.9178 129.333 13.7071 125.751 15.5771 122.198C17.4432 118.653 19.3741 115.166 20.8389 112.563C21.5708 111.263 22.1854 110.184 22.6172 109.432C22.8331 109.055 23.0032 108.76 23.1191 108.56C23.1771 108.459 23.2221 108.383 23.252 108.331C23.2667 108.306 23.2777 108.286 23.2852 108.273C23.2889 108.267 23.2921 108.262 23.2939 108.259C23.2947 108.257 23.2955 108.257 23.2959 108.256L23.2969 108.255C23.297 108.255 23.2965 108.254 22 107.5L23.2969 108.254L23.8545 107.296L23.1016 106.481C12.8511 95.3964 8.5 82.4621 8.5 66C8.5 31.4822 36.4822 3.5 71 3.5Z" fill="#171297" stroke="white" stroke-width="3"/>
<mask id="path-3-outside-1_275_181" maskUnits="userSpaceOnUse" x="35" y="18" width="73" height="93" fill="black">
<rect fill="white" x="35" y="18" width="73" height="93"/>
<path d="M56.0341 44.9505C56.0341 44.7611 56.1876 44.6075 56.3771 44.6075H85.3585C85.5479 44.6075 85.7014 44.7611 85.7014 44.9505V49.5806C85.7014 49.7701 85.5479 49.9236 85.3585 49.9236H56.3771C56.1876 49.9236 56.0341 49.7701 56.0341 49.5806V44.9505Z"/>
<path d="M65.2087 106H41.8864C40.8446 106 40 105.155 40 104.114V88.3331C40 82.334 44.6154 77.3446 50.5964 76.8782L58.3183 76.2761C58.5513 76.2579 58.7775 76.3596 58.9185 76.5459L67.6079 88.0224C67.7186 88.1687 67.7662 88.3533 67.7399 88.5349L65.2087 106Z"/>
<path d="M63.2061 81.7477L59.4899 76.2679C59.1303 75.7377 59.3705 75.0106 59.9753 74.7989C60.2967 74.6864 60.6534 74.7496 60.9167 74.9655L68.124 80.8771L64.8728 82.2426C64.2703 82.4956 63.5729 82.2886 63.2061 81.7477Z"/>
<path d="M64.3395 73.7314L64.0387 74.3878C63.7705 74.9729 63.9452 75.6657 64.4586 76.0538L70.1493 80.3549C70.6278 80.7166 71.2858 80.7255 71.7739 80.3768L77.8346 76.0478C78.3696 75.6656 78.5583 74.9575 78.2843 74.3598L77.9963 73.7314C77.8771 73.4714 77.8422 73.1806 77.8964 72.8998L78.4413 70.0761C78.6047 69.2297 77.9562 68.4442 77.0943 68.4442H65.2416C64.3796 68.4442 63.7312 69.2297 63.8945 70.0761L64.4394 72.8998C64.4936 73.1806 64.4587 73.4714 64.3395 73.7314Z"/>
<path d="M59.8925 50.1552V43.6641C59.8925 42.9064 60.5068 42.2922 61.2644 42.2922H80.4711C81.2287 42.2922 81.8429 42.9064 81.8429 43.6641V50.1552C81.8429 51.0689 82.7193 51.7273 83.5968 51.4729L86.0054 50.7747C86.883 50.5204 87.7593 51.1788 87.7593 52.0924V54.119C87.7593 54.7315 87.3532 55.2698 86.7643 55.4381L85.153 55.8984C84.5641 56.0667 84.155 56.5997 84.0967 57.2094C83.7897 60.4226 81.9455 70.0732 70.8677 70.0732C59.79 70.0732 57.9458 60.4226 57.6388 57.2094C57.5805 56.5997 57.1714 56.0667 56.5824 55.8984L54.9712 55.4381C54.3823 55.2698 53.9762 54.7315 53.9762 54.119V52.0924C53.9762 51.1788 54.8525 50.5204 55.7301 50.7747L58.1387 51.4729C59.0162 51.7273 59.8925 51.0689 59.8925 50.1552Z"/>
<path d="M88.4452 39.8057C88.4452 43.4046 80.8059 46.3222 71.3822 46.3222C61.9586 46.3222 54.3192 43.4046 54.3192 39.8057C54.3192 36.2067 61.9586 33.2891 71.3822 33.2891C80.8059 33.2891 88.4452 36.2067 88.4452 39.8057Z"/>
<path d="M91.875 35.2614C91.875 41.086 82.5081 39.2913 70.9535 39.2913C59.3989 39.2913 50.032 41.086 50.032 35.2614C50.032 29.4367 59.3989 23 70.9535 23C82.5081 23 91.875 29.4367 91.875 35.2614Z"/>
<path d="M42.0798 83.6745C41.5468 83.1359 41.5513 82.2673 42.0898 81.7343L44.8397 79.0126C45.3782 78.4796 46.2469 78.4841 46.7799 79.0226L47.383 79.632C47.916 80.1705 47.9115 81.0391 47.373 81.5721L44.6231 84.2939C44.0846 84.8269 43.2159 84.8224 42.6829 84.2839L42.0798 83.6745Z"/>
<path d="M53.6332 96.911C53.6332 96.5322 53.9404 96.2251 54.3192 96.2251H59.5602C59.9391 96.2251 60.2462 96.5322 60.2462 96.911V99.1404C60.2462 99.5192 59.9391 99.8263 59.5602 99.8263H54.3192C53.9404 99.8263 53.6332 99.5192 53.6332 99.1404V96.911Z"/>
<path d="M70.9535 83.8781L68.5527 85.0785L69.4102 86.5361H72.4969L73.3544 85.0785L70.9535 83.8781Z"/>
<path d="M70.1818 89.1942L68.0382 106H74.0403L71.9824 89.1942H70.1818Z"/>
<path d="M76.9556 106H100.278C101.32 106 102.164 105.155 102.164 104.114V88.3331C102.164 82.334 97.5488 77.3446 91.5678 76.8782L83.8459 76.2761C83.613 76.2579 83.3868 76.3596 83.2457 76.5459L74.5563 88.0224C74.4456 88.1687 74.3981 88.3533 74.4244 88.5349L76.9556 106Z"/>
<path d="M78.9581 81.7477L82.6743 76.2679C83.0339 75.7377 82.7937 75.0106 82.1889 74.7989C81.8676 74.6864 81.5108 74.7496 81.2475 74.9655L74.0403 80.8771L77.2914 82.2426C77.894 82.4956 78.5913 82.2886 78.9581 81.7477Z"/>
<path d="M100.085 83.6745C100.618 83.1359 100.613 82.2673 100.075 81.7343L97.3246 79.0126C96.7861 78.4796 95.9175 78.4841 95.3845 79.0226L94.7813 79.632C94.2483 80.1705 94.2528 81.0391 94.7913 81.5721L97.5413 84.2939C98.0798 84.8269 98.9484 84.8224 99.4814 84.2839L100.085 83.6745Z"/>
<path d="M88.531 96.911C88.531 96.5322 88.2239 96.2251 87.845 96.2251H82.604C82.2252 96.2251 81.9181 96.5322 81.9181 96.911V99.1404C81.9181 99.5192 82.2252 99.8263 82.604 99.8263H87.845C88.2239 99.8263 88.531 99.5192 88.531 99.1404V96.911Z"/>
</mask>
<path d="M56.0341 44.9505C56.0341 44.7611 56.1876 44.6075 56.3771 44.6075H85.3585C85.5479 44.6075 85.7014 44.7611 85.7014 44.9505V49.5806C85.7014 49.7701 85.5479 49.9236 85.3585 49.9236H56.3771C56.1876 49.9236 56.0341 49.7701 56.0341 49.5806V44.9505Z" fill="#F29900"/>
<path d="M65.2087 106H41.8864C40.8446 106 40 105.155 40 104.114V88.3331C40 82.334 44.6154 77.3446 50.5964 76.8782L58.3183 76.2761C58.5513 76.2579 58.7775 76.3596 58.9185 76.5459L67.6079 88.0224C67.7186 88.1687 67.7662 88.3533 67.7399 88.5349L65.2087 106Z" fill="#2D5872"/>
<path d="M63.2061 81.7477L59.4899 76.2679C59.1303 75.7377 59.3705 75.0106 59.9753 74.7989C60.2967 74.6864 60.6534 74.7496 60.9167 74.9655L68.124 80.8771L64.8728 82.2426C64.2703 82.4956 63.5729 82.2886 63.2061 81.7477Z" fill="#1D4559"/>
<path d="M64.3395 73.7314L64.0387 74.3878C63.7705 74.9729 63.9452 75.6657 64.4586 76.0538L70.1493 80.3549C70.6278 80.7166 71.2858 80.7255 71.7739 80.3768L77.8346 76.0478C78.3696 75.6656 78.5583 74.9575 78.2843 74.3598L77.9963 73.7314C77.8771 73.4714 77.8422 73.1806 77.8964 72.8998L78.4413 70.0761C78.6047 69.2297 77.9562 68.4442 77.0943 68.4442H65.2416C64.3796 68.4442 63.7312 69.2297 63.8945 70.0761L64.4394 72.8998C64.4936 73.1806 64.4587 73.4714 64.3395 73.7314Z" fill="#FFE7CF"/>
<path d="M59.8925 50.1552V43.6641C59.8925 42.9064 60.5068 42.2922 61.2644 42.2922H80.4711C81.2287 42.2922 81.8429 42.9064 81.8429 43.6641V50.1552C81.8429 51.0689 82.7193 51.7273 83.5968 51.4729L86.0054 50.7747C86.883 50.5204 87.7593 51.1788 87.7593 52.0924V54.119C87.7593 54.7315 87.3532 55.2698 86.7643 55.4381L85.153 55.8984C84.5641 56.0667 84.155 56.5997 84.0967 57.2094C83.7897 60.4226 81.9455 70.0732 70.8677 70.0732C59.79 70.0732 57.9458 60.4226 57.6388 57.2094C57.5805 56.5997 57.1714 56.0667 56.5824 55.8984L54.9712 55.4381C54.3823 55.2698 53.9762 54.7315 53.9762 54.119V52.0924C53.9762 51.1788 54.8525 50.5204 55.7301 50.7747L58.1387 51.4729C59.0162 51.7273 59.8925 51.0689 59.8925 50.1552Z" fill="#FFE7CF"/>
<path d="M88.4452 39.8057C88.4452 43.4046 80.8059 46.3222 71.3822 46.3222C61.9586 46.3222 54.3192 43.4046 54.3192 39.8057C54.3192 36.2067 61.9586 33.2891 71.3822 33.2891C80.8059 33.2891 88.4452 36.2067 88.4452 39.8057Z" fill="#183C53"/>
<path d="M91.875 35.2614C91.875 41.086 82.5081 39.2913 70.9535 39.2913C59.3989 39.2913 50.032 41.086 50.032 35.2614C50.032 29.4367 59.3989 23 70.9535 23C82.5081 23 91.875 29.4367 91.875 35.2614Z" fill="#2D5872"/>
<path d="M42.0798 83.6745C41.5468 83.1359 41.5513 82.2673 42.0898 81.7343L44.8397 79.0126C45.3782 78.4796 46.2469 78.4841 46.7799 79.0226L47.383 79.632C47.916 80.1705 47.9115 81.0391 47.373 81.5721L44.6231 84.2939C44.0846 84.8269 43.2159 84.8224 42.6829 84.2839L42.0798 83.6745Z" fill="#FFBF14"/>
<path d="M53.6332 96.911C53.6332 96.5322 53.9404 96.2251 54.3192 96.2251H59.5602C59.9391 96.2251 60.2462 96.5322 60.2462 96.911V99.1404C60.2462 99.5192 59.9391 99.8263 59.5602 99.8263H54.3192C53.9404 99.8263 53.6332 99.5192 53.6332 99.1404V96.911Z" fill="#1D4559"/>
<path d="M70.9535 83.8781L68.5527 85.0785L69.4102 86.5361H72.4969L73.3544 85.0785L70.9535 83.8781Z" fill="#282C3A"/>
<path d="M70.1818 89.1942L68.0382 106H74.0403L71.9824 89.1942H70.1818Z" fill="#282C3A"/>
<path d="M76.9556 106H100.278C101.32 106 102.164 105.155 102.164 104.114V88.3331C102.164 82.334 97.5488 77.3446 91.5678 76.8782L83.8459 76.2761C83.613 76.2579 83.3868 76.3596 83.2457 76.5459L74.5563 88.0224C74.4456 88.1687 74.3981 88.3533 74.4244 88.5349L76.9556 106Z" fill="#2D5872"/>
<path d="M78.9581 81.7477L82.6743 76.2679C83.0339 75.7377 82.7937 75.0106 82.1889 74.7989C81.8676 74.6864 81.5108 74.7496 81.2475 74.9655L74.0403 80.8771L77.2914 82.2426C77.894 82.4956 78.5913 82.2886 78.9581 81.7477Z" fill="#1D4559"/>
<path d="M100.085 83.6745C100.618 83.1359 100.613 82.2673 100.075 81.7343L97.3246 79.0126C96.7861 78.4796 95.9175 78.4841 95.3845 79.0226L94.7813 79.632C94.2483 80.1705 94.2528 81.0391 94.7913 81.5721L97.5413 84.2939C98.0798 84.8269 98.9484 84.8224 99.4814 84.2839L100.085 83.6745Z" fill="#FFBF14"/>
<path d="M88.531 96.911C88.531 96.5322 88.2239 96.2251 87.845 96.2251H82.604C82.2252 96.2251 81.9181 96.5322 81.9181 96.911V99.1404C81.9181 99.5192 82.2252 99.8263 82.604 99.8263H87.845C88.2239 99.8263 88.531 99.5192 88.531 99.1404V96.911Z" fill="#1D4559"/>
<path d="M65.2087 106V111H69.5363L70.157 106.717L65.2087 106ZM67.7399 88.5349L72.6882 89.252L72.6882 89.252L67.7399 88.5349ZM67.6079 88.0224L71.5942 85.0042L71.5942 85.0042L67.6079 88.0224ZM58.9185 76.5459L62.9048 73.5277L62.9048 73.5277L58.9185 76.5459ZM58.3183 76.2761L57.9296 71.2912L57.9296 71.2912L58.3183 76.2761ZM50.5964 76.8782L50.9851 81.8631L50.9851 81.8631L50.5964 76.8782ZM59.4899 76.2679L63.6281 73.4616L63.6281 73.4616L59.4899 76.2679ZM63.2061 81.7477L67.3443 78.9414L67.3443 78.9414L63.2061 81.7477ZM64.8728 82.2426L62.9366 77.6327L62.9366 77.6327L64.8728 82.2426ZM68.124 80.8771L70.0601 85.487L77.7109 82.2737L71.2949 77.0112L68.124 80.8771ZM60.9167 74.9655L64.0876 71.0996L64.0876 71.0996L60.9167 74.9655ZM59.9753 74.7989L61.627 79.5182L61.627 79.5182L59.9753 74.7989ZM64.0387 74.3878L68.584 76.471L68.584 76.471L64.0387 74.3878ZM64.3395 73.7314L59.7942 71.6481L59.7942 71.6481L64.3395 73.7314ZM64.4394 72.8998L69.3489 71.9524L64.4394 72.8998ZM63.8945 70.0761L58.9851 71.0235L58.9851 71.0235L63.8945 70.0761ZM78.2843 74.3598L82.8297 72.2765L82.8296 72.2765L78.2843 74.3598ZM77.9963 73.7314L82.5416 71.6481L82.5416 71.6481L77.9963 73.7314ZM77.8964 72.8998L82.8058 73.8472L82.8058 73.8472L77.8964 72.8998ZM78.4413 70.0761L73.5319 69.1286L73.5319 69.1286L78.4413 70.0761ZM64.4586 76.0538L61.4438 80.0427L61.4438 80.0427L64.4586 76.0538ZM70.1493 80.3549L73.1641 76.3661L73.1641 76.3661L70.1493 80.3549ZM71.7739 80.3768L74.6801 84.4455L74.6801 84.4455L71.7739 80.3768ZM77.8346 76.0478L80.7408 80.1164L80.7408 80.1164L77.8346 76.0478ZM58.1387 51.4729L56.7467 56.2752L56.7467 56.2752L58.1387 51.4729ZM55.7301 50.7747L57.122 45.9724L57.122 45.9724L55.7301 50.7747ZM54.9712 55.4381L53.5976 60.2457L53.5976 60.2457L54.9712 55.4381ZM56.5824 55.8984L57.9561 51.0908L57.956 51.0908L56.5824 55.8984ZM57.6388 57.2094L62.6161 56.7339L62.6161 56.7339L57.6388 57.2094ZM83.5968 51.4729L82.2048 46.6706L82.2048 46.6706L83.5968 51.4729ZM86.0054 50.7747L87.3974 55.5771L87.3974 55.5771L86.0054 50.7747ZM86.7643 55.4381L88.1379 60.2457L88.1379 60.2457L86.7643 55.4381ZM85.153 55.8984L83.7794 51.0908L83.7794 51.0908L85.153 55.8984ZM84.0967 57.2094L79.1194 56.7338L79.1194 56.7338L84.0967 57.2094ZM44.6231 84.2939L41.1058 80.7402L41.1058 80.7402L44.6231 84.2939ZM42.6829 84.2839L39.1292 87.8011L39.1292 87.8011L42.6829 84.2839ZM47.383 79.632L50.9367 76.1147L50.9367 76.1147L47.383 79.632ZM47.373 81.5721L50.8903 85.1259L50.8903 85.1259L47.373 81.5721ZM44.8397 79.0126L41.3225 75.4589L41.3225 75.4589L44.8397 79.0126ZM46.7799 79.0226L43.2261 82.5398L43.2262 82.5398L46.7799 79.0226ZM42.0898 81.7343L45.607 85.288L45.607 85.288L42.0898 81.7343ZM42.0798 83.6745L45.6335 80.1572L45.6335 80.1572L42.0798 83.6745ZM68.5527 85.0785L66.3167 80.6064C65.0777 81.2258 64.1513 82.3315 63.7582 83.6597C63.3652 84.9879 63.5407 86.4197 64.243 87.6136L68.5527 85.0785ZM70.9535 83.8781L73.1896 79.406C71.782 78.7021 70.1251 78.7021 68.7175 79.406L70.9535 83.8781ZM69.4102 86.5361L65.1005 89.0712C65.9988 90.5984 67.6383 91.5361 69.4102 91.5361V86.5361ZM73.3544 85.0785L77.664 87.6136C78.3663 86.4197 78.5419 84.9879 78.1488 83.6597C77.7558 82.3315 76.8294 81.2258 75.5904 80.6064L73.3544 85.0785ZM72.4969 86.5361V91.5361C74.2688 91.5361 75.9083 90.5984 76.8066 89.0712L72.4969 86.5361ZM68.0382 106L63.0784 105.367L62.3599 111H68.0382V106ZM70.1818 89.1942V84.1942H65.779L65.222 88.5616L70.1818 89.1942ZM71.9824 89.1942L76.9453 88.5865L76.4075 84.1942H71.9824V89.1942ZM74.0403 106V111H79.6899L79.0032 105.392L74.0403 106ZM76.9556 106L72.0072 106.717L72.628 111H76.9556V106ZM74.4244 88.5349L69.4761 89.252L69.4761 89.252L74.4244 88.5349ZM74.5563 88.0224L70.5701 85.0042L70.57 85.0042L74.5563 88.0224ZM83.2457 76.5459L79.2594 73.5277L79.2594 73.5277L83.2457 76.5459ZM83.8459 76.2761L84.2347 71.2912L84.2347 71.2912L83.8459 76.2761ZM91.5678 76.8782L91.1791 81.8631L91.1791 81.8631L91.5678 76.8782ZM82.6743 76.2679L78.5361 73.4616L78.5361 73.4616L82.6743 76.2679ZM78.9581 81.7477L83.0963 84.5541L83.0963 84.5541L78.9581 81.7477ZM77.2914 82.2426L79.2276 77.6327L79.2276 77.6327L77.2914 82.2426ZM74.0403 80.8771L70.8693 77.0112L64.4534 82.2737L72.1041 85.487L74.0403 80.8771ZM81.2475 74.9655L78.0766 71.0996L78.0766 71.0996L81.2475 74.9655ZM82.1889 74.7989L80.5372 79.5182L80.5372 79.5182L82.1889 74.7989ZM97.5413 84.2939L101.059 80.7402L101.059 80.7402L97.5413 84.2939ZM99.4814 84.2839L103.035 87.8011L103.035 87.8011L99.4814 84.2839ZM94.7813 79.632L91.2276 76.1147L91.2276 76.1147L94.7813 79.632ZM94.7913 81.5721L91.2741 85.1259L91.2741 85.1259L94.7913 81.5721ZM97.3246 79.0126L100.842 75.4589L100.842 75.4589L97.3246 79.0126ZM95.3845 79.0226L98.9382 82.5399L98.9382 82.5398L95.3845 79.0226ZM100.075 81.7343L96.5573 85.288L96.5573 85.288L100.075 81.7343ZM100.085 83.6745L96.5308 80.1572L96.5308 80.1572L100.085 83.6745ZM56.3771 44.6075V49.6075H85.3585V44.6075V39.6075H56.3771V44.6075ZM85.7014 44.9505H80.7014V49.5806H85.7014H90.7014V44.9505H85.7014ZM85.3585 49.9236V44.9236H56.3771V49.9236V54.9236H85.3585V49.9236ZM56.0341 49.5806H61.0341V44.9505H56.0341H51.0341V49.5806H56.0341ZM56.3771 49.9236V44.9236C58.9491 44.9236 61.0341 47.0086 61.0341 49.5806H56.0341H51.0341C51.0341 52.5315 53.4262 54.9236 56.3771 54.9236V49.9236ZM85.7014 49.5806H80.7014C80.7014 47.0087 82.7864 44.9236 85.3585 44.9236V49.9236V54.9236C88.3094 54.9236 90.7014 52.5314 90.7014 49.5806H85.7014ZM85.3585 44.6075V49.6075C82.7864 49.6075 80.7014 47.5224 80.7014 44.9505H85.7014H90.7014C90.7014 41.9997 88.3094 39.6075 85.3585 39.6075V44.6075ZM56.3771 44.6075V39.6075C53.4262 39.6075 51.0341 41.9996 51.0341 44.9505H56.0341H61.0341C61.0341 47.5225 58.9491 49.6075 56.3771 49.6075V44.6075ZM41.8864 106V111H65.2087V106V101H41.8864V106ZM65.2087 106L70.157 106.717L72.6882 89.252L67.7399 88.5349L62.7916 87.8177L60.2604 105.283L65.2087 106ZM67.6079 88.0224L71.5942 85.0042L62.9048 73.5277L58.9185 76.5459L54.9322 79.5641L63.6216 91.0406L67.6079 88.0224ZM58.3183 76.2761L57.9296 71.2912L50.2077 71.8934L50.5964 76.8782L50.9851 81.8631L58.707 81.2609L58.3183 76.2761ZM40 88.3331H35V104.114H40H45V88.3331H40ZM50.5964 76.8782L50.2077 71.8934C41.6239 72.5627 35 79.7233 35 88.3331H40H45C45 84.9447 47.6069 82.1265 50.9851 81.8631L50.5964 76.8782ZM58.9185 76.5459L62.9048 73.5277C61.7356 71.9835 59.8607 71.1406 57.9296 71.2912L58.3183 76.2761L58.707 81.2609C57.2418 81.3752 55.8193 80.7357 54.9322 79.5641L58.9185 76.5459ZM67.7399 88.5349L72.6882 89.252C72.9063 87.7468 72.5123 86.2169 71.5942 85.0042L67.6079 88.0224L63.6216 91.0406C62.925 90.1205 62.626 88.9598 62.7916 87.8177L67.7399 88.5349ZM41.8864 106V101C43.606 101 45 102.394 45 104.114H40H35C35 107.917 38.0831 111 41.8864 111V106ZM59.4899 76.2679L55.3518 79.0743L59.0679 84.5541L63.2061 81.7477L67.3443 78.9414L63.6281 73.4616L59.4899 76.2679ZM64.8728 82.2426L66.809 86.8525L70.0601 85.487L68.124 80.8771L66.1878 76.2672L62.9366 77.6327L64.8728 82.2426ZM68.124 80.8771L71.2949 77.0112L64.0876 71.0996L60.9167 74.9655L57.7458 78.8314L64.9531 84.743L68.124 80.8771ZM60.9167 74.9655L64.0876 71.0996C62.4757 69.7774 60.2913 69.3909 58.3235 70.0796L59.9753 74.7989L61.627 79.5182C60.3021 79.9819 58.8312 79.7217 57.7458 78.8314L60.9167 74.9655ZM63.2061 81.7477L59.0679 84.5541C60.7715 87.0661 64.0105 88.0278 66.809 86.8525L64.8728 82.2426L62.9366 77.6327C64.53 76.9635 66.3743 77.511 67.3443 78.9414L63.2061 81.7477ZM59.4899 76.2679L63.6281 73.4616C65.1108 75.6479 64.1203 78.6455 61.627 79.5182L59.9753 74.7989L58.3235 70.0796C54.6207 71.3756 53.1499 75.8274 55.3518 79.0743L59.4899 76.2679ZM64.0387 74.3878L68.584 76.471L68.8849 75.8146L64.3395 73.7314L59.7942 71.6481L59.4934 72.3045L64.0387 74.3878ZM64.4394 72.8998L69.3489 71.9524L68.8039 69.1286L63.8945 70.0761L58.9851 71.0235L59.53 73.8472L64.4394 72.8998ZM78.2843 74.3598L82.8296 72.2765L82.5416 71.6481L77.9963 73.7314L73.451 75.8146L73.739 76.4431L78.2843 74.3598ZM77.8964 72.8998L82.8058 73.8472L83.3507 71.0235L78.4413 70.0761L73.5319 69.1286L72.987 71.9524L77.8964 72.8998ZM77.9963 73.7314L82.5416 71.6481C82.8568 72.3357 82.9491 73.1046 82.8058 73.8472L77.8964 72.8998L72.987 71.9524C72.7353 73.2567 72.8975 74.607 73.451 75.8146L77.9963 73.7314ZM64.4586 76.0538L61.4438 80.0427L67.1345 84.3438L70.1493 80.3549L73.1641 76.3661L67.4735 72.065L64.4586 76.0538ZM71.7739 80.3768L74.6801 84.4455L80.7408 80.1164L77.8346 76.0478L74.9284 71.9791L68.8677 76.3082L71.7739 80.3768ZM65.2416 68.4442V73.4442H77.0943V68.4442V63.4442H65.2416V68.4442ZM70.1493 80.3549L67.1345 84.3438C69.357 86.0236 72.4131 86.0648 74.6801 84.4455L71.7739 80.3768L68.8677 76.3082C70.1585 75.3862 71.8987 75.4096 73.1641 76.3661L70.1493 80.3549ZM78.2843 74.3598L73.739 76.4431C73.0145 74.8623 73.5134 72.9898 74.9284 71.9791L77.8346 76.0478L80.7408 80.1164C83.2259 78.3414 84.1021 75.0527 82.8297 72.2765L78.2843 74.3598ZM63.8945 70.0761L68.8039 69.1286C69.2359 71.3668 67.5211 73.4442 65.2416 73.4442V68.4442V63.4442C61.2381 63.4442 58.2265 67.0926 58.9851 71.0235L63.8945 70.0761ZM78.4413 70.0761L83.3507 71.0235C84.1093 67.0926 81.0977 63.4442 77.0943 63.4442V68.4442V73.4442C74.8148 73.4442 73.1 71.3668 73.5319 69.1286L78.4413 70.0761ZM64.3395 73.7314L68.8849 75.8146C69.4383 74.6071 69.6006 73.2567 69.3489 71.9524L64.4394 72.8998L59.53 73.8472C59.3867 73.1045 59.4791 72.3357 59.7942 71.6481L64.3395 73.7314ZM64.0387 74.3878L59.4934 72.3045C58.2478 75.0221 59.059 78.2402 61.4438 80.0427L64.4586 76.0538L67.4735 72.065C68.8314 73.0913 69.2932 74.9237 68.584 76.471L64.0387 74.3878ZM59.8925 43.6641H54.8925V50.1552H59.8925H64.8925V43.6641H59.8925ZM58.1387 51.4729L59.5307 46.6706L57.122 45.9724L55.7301 50.7747L54.3381 55.5771L56.7467 56.2752L58.1387 51.4729ZM53.9762 52.0924H48.9762V54.119H53.9762H58.9762V52.0924H53.9762ZM54.9712 55.4381L53.5976 60.2457L55.2088 60.706L56.5824 55.8984L57.956 51.0908L56.3448 50.6305L54.9712 55.4381ZM57.6388 57.2094L52.6614 57.685C52.8473 59.6297 53.5027 63.809 56.0594 67.6279C58.818 71.7484 63.5664 75.0732 70.8677 75.0732V70.0732V65.0732C67.0913 65.0732 65.3787 63.5728 64.369 62.0646C63.1574 60.2549 62.7373 58.0023 62.6161 56.7339L57.6388 57.2094ZM81.8429 43.6641H76.8429V50.1552H81.8429H86.8429V43.6641H81.8429ZM83.5968 51.4729L84.9888 56.2752L87.3974 55.5771L86.0054 50.7747L84.6135 45.9724L82.2048 46.6706L83.5968 51.4729ZM87.7593 52.0924H82.7593V54.119H87.7593H92.7593V52.0924H87.7593ZM86.7643 55.4381L85.3907 50.6305L83.7794 51.0908L85.153 55.8984L86.5266 60.706L88.1379 60.2457L86.7643 55.4381ZM84.0967 57.2094L79.1194 56.7338C78.9982 58.0023 78.5781 60.2549 77.3664 62.0646C76.3568 63.5728 74.6442 65.0732 70.8677 65.0732V70.0732V75.0732C78.1691 75.0732 82.9175 71.7484 85.6761 67.6279C88.2328 63.809 88.8882 59.6297 89.074 57.685L84.0967 57.2094ZM61.2644 42.2922V47.2922H80.4711V42.2922V37.2922H61.2644V42.2922ZM85.153 55.8984L83.7794 51.0908C81.0418 51.873 79.3559 54.2588 79.1194 56.7338L84.0967 57.2094L89.074 57.685C88.9541 58.9405 88.0864 60.2604 86.5267 60.706L85.153 55.8984ZM87.7593 54.119H82.7593C82.7593 52.4991 83.8331 51.0755 85.3907 50.6305L86.7643 55.4381L88.1379 60.2457C90.8733 59.4641 92.7593 56.9639 92.7593 54.119H87.7593ZM86.0054 50.7747L87.3974 55.5771C85.0767 56.2497 82.7593 54.5086 82.7593 52.0924H87.7593H92.7593C92.7593 47.8489 88.6892 44.791 84.6135 45.9724L86.0054 50.7747ZM81.8429 50.1552H76.8429C76.8429 54.3988 80.913 57.4566 84.9888 56.2752L83.5968 51.4729L82.2048 46.6706C84.5255 45.9979 86.8429 47.739 86.8429 50.1552H81.8429ZM81.8429 43.6641H86.8429C86.8429 40.145 83.9902 37.2922 80.4711 37.2922V42.2922V47.2922C78.4673 47.2922 76.8429 45.6679 76.8429 43.6641H81.8429ZM56.5824 55.8984L55.2088 60.706C53.6491 60.2604 52.7814 58.9405 52.6614 57.685L57.6388 57.2094L62.6161 56.7339C62.3796 54.2588 60.6937 51.873 57.9561 51.0908L56.5824 55.8984ZM53.9762 54.119H48.9762C48.9762 56.9639 50.8621 59.4641 53.5976 60.2457L54.9712 55.4381L56.3448 50.6305C57.9024 51.0755 58.9762 52.4991 58.9762 54.119H53.9762ZM55.7301 50.7747L57.122 45.9724C53.0463 44.791 48.9762 47.8489 48.9762 52.0924H53.9762H58.9762C58.9762 54.5086 56.6588 56.2497 54.3381 55.5771L55.7301 50.7747ZM59.8925 50.1552H54.8925C54.8925 47.739 57.21 45.9979 59.5307 46.6706L58.1387 51.4729L56.7467 56.2752C60.8225 57.4566 64.8925 54.3988 64.8925 50.1552H59.8925ZM59.8925 43.6641H64.8925C64.8925 45.6679 63.2682 47.2922 61.2644 47.2922V42.2922V37.2922C57.7453 37.2922 54.8925 40.145 54.8925 43.6641H59.8925ZM88.4452 39.8057H83.4452C83.4452 38.7982 83.9988 38.4097 83.7535 38.6311C83.5087 38.8522 82.8738 39.2805 81.6637 39.7426C79.2779 40.6537 75.6443 41.3222 71.3822 41.3222V46.3222V51.3222C76.5438 51.3222 81.4416 50.5319 85.2315 49.0845C87.1092 48.3674 88.9731 47.3915 90.4552 46.0532C91.9368 44.7154 93.4452 42.6126 93.4452 39.8057H88.4452ZM71.3822 46.3222V41.3222C67.1201 41.3222 63.4865 40.6537 61.1007 39.7426C59.8907 39.2805 59.2557 38.8522 59.0109 38.6311C58.7657 38.4097 59.3192 38.7982 59.3192 39.8057H54.3192H49.3192C49.3192 42.6126 50.8277 44.7154 52.3093 46.0532C53.7913 47.3915 55.6552 48.3674 57.533 49.0845C61.3228 50.5319 66.2206 51.3222 71.3822 51.3222V46.3222ZM54.3192 39.8057H59.3192C59.3192 40.8131 58.7657 41.2016 59.0109 40.9802C59.2557 40.7591 59.8907 40.3309 61.1007 39.8687C63.4865 38.9576 67.1201 38.2891 71.3822 38.2891V33.2891V28.2891C66.2206 28.2891 61.3228 29.0795 57.533 30.5268C55.6552 31.244 53.7913 32.2199 52.3093 33.5581C50.8277 34.8959 49.3192 36.9987 49.3192 39.8057H54.3192ZM71.3822 33.2891V38.2891C75.6443 38.2891 79.2779 38.9576 81.6637 39.8687C82.8738 40.3309 83.5087 40.7591 83.7535 40.9802C83.9988 41.2016 83.4452 40.8131 83.4452 39.8057H88.4452H93.4452C93.4452 36.9987 91.9368 34.8959 90.4552 33.5581C88.9731 32.2199 87.1092 31.244 85.2315 30.5268C81.4416 29.0795 76.5438 28.2891 71.3822 28.2891V33.2891ZM91.875 35.2614H86.875C86.875 35.3072 86.8707 35.0587 87.0656 34.7033C87.2652 34.3391 87.5178 34.147 87.6123 34.0889C87.619 34.0847 87.0972 34.3474 85.3792 34.4742C83.7827 34.592 81.7761 34.561 79.2513 34.4831C76.8109 34.4078 73.9428 34.2913 70.9535 34.2913V39.2913V44.2913C73.7415 44.2913 76.3772 44.3992 78.9429 44.4784C81.4242 44.5549 83.9257 44.6086 86.1152 44.447C88.1833 44.2944 90.7254 43.9136 92.8495 42.6078C94.0027 41.8988 95.0773 40.8913 95.8343 39.5104C96.5866 38.1382 96.875 36.6717 96.875 35.2614H91.875ZM70.9535 39.2913V34.2913C67.9642 34.2913 65.0961 34.4078 62.6557 34.4831C60.131 34.561 58.1243 34.592 56.5278 34.4742C54.8098 34.3474 54.288 34.0847 54.2947 34.0889C54.3892 34.147 54.6418 34.3391 54.8415 34.7033C55.0363 35.0587 55.032 35.3072 55.032 35.2614H50.032H45.032C45.032 36.6717 45.3204 38.1382 46.0727 39.5104C46.8297 40.8913 47.9044 41.8988 49.0576 42.6078C51.1816 43.9136 53.7237 44.2944 55.7918 44.447C57.9813 44.6086 60.4829 44.5549 62.9642 44.4784C65.5298 44.3992 68.1655 44.2913 70.9535 44.2913V39.2913ZM50.032 35.2614H55.032C55.032 34.9624 55.5278 33.2126 58.7863 31.201C61.7485 29.3723 66.0626 28 70.9535 28V23V18C64.2898 18 58.1431 19.846 53.5333 22.6918C49.2197 25.3548 45.032 29.7357 45.032 35.2614H50.032ZM70.9535 23V28C75.8444 28 80.1585 29.3723 83.1207 31.201C86.3792 33.2126 86.875 34.9624 86.875 35.2614H91.875H96.875C96.875 29.7357 92.6874 25.3548 88.3737 22.6918C83.7639 19.846 77.6172 18 70.9535 18V23ZM42.0898 81.7343L45.607 85.288L48.357 82.5663L44.8397 79.0126L41.3225 75.4589L38.5725 78.1806L42.0898 81.7343ZM46.7799 79.0226L43.2262 82.5398L43.8293 83.1493L47.383 79.632L50.9367 76.1147L50.3336 75.5053L46.7799 79.0226ZM47.373 81.5721L43.8558 78.0184L41.1058 80.7402L44.6231 84.2939L48.1403 87.8476L50.8903 85.1259L47.373 81.5721ZM42.6829 84.2839L46.2367 80.7666L45.6335 80.1572L42.0798 83.6745L38.526 87.1917L39.1292 87.8011L42.6829 84.2839ZM44.6231 84.2939L41.1058 80.7402C42.53 79.3306 44.8271 79.3425 46.2367 80.7666L42.6829 84.2839L39.1292 87.8011C41.6047 90.3023 45.6392 90.3231 48.1403 87.8476L44.6231 84.2939ZM47.383 79.632L43.8293 83.1493C42.4198 81.7251 42.4316 79.428 43.8558 78.0184L47.373 81.5721L50.8903 85.1259C53.3915 82.6503 53.4123 78.6159 50.9367 76.1147L47.383 79.632ZM44.8397 79.0126L48.357 82.5663C46.9328 83.9758 44.6357 83.964 43.2261 82.5398L46.7799 79.0226L50.3336 75.5053C47.8581 73.0042 43.8237 72.9833 41.3225 75.4589L44.8397 79.0126ZM42.0898 81.7343L38.5725 78.1806C36.0713 80.6561 36.0505 84.6905 38.5261 87.1917L42.0798 83.6745L45.6335 80.1572C47.043 81.5813 47.0312 83.8785 45.607 85.288L42.0898 81.7343ZM54.3192 96.2251V101.225H59.5602V96.2251V91.2251H54.3192V96.2251ZM60.2462 96.911H55.2462V99.1404H60.2462H65.2462V96.911H60.2462ZM59.5602 99.8263V94.8263H54.3192V99.8263V104.826H59.5602V99.8263ZM53.6332 99.1404H58.6332V96.911H53.6332H48.6332V99.1404H53.6332ZM54.3192 99.8263V94.8263C56.7018 94.8263 58.6332 96.7578 58.6332 99.1404H53.6332H48.6332C48.6332 102.281 51.1789 104.826 54.3192 104.826V99.8263ZM60.2462 99.1404H55.2462C55.2462 96.7578 57.1776 94.8263 59.5602 94.8263V99.8263V104.826C62.7005 104.826 65.2462 102.281 65.2462 99.1404H60.2462ZM59.5602 96.2251V101.225C57.1776 101.225 55.2462 99.2936 55.2462 96.911H60.2462H65.2462C65.2462 93.7708 62.7005 91.2251 59.5602 91.2251V96.2251ZM54.3192 96.2251V91.2251C51.1789 91.2251 48.6332 93.7708 48.6332 96.911H53.6332H58.6332C58.6332 99.2936 56.7018 101.225 54.3192 101.225V96.2251ZM68.5527 85.0785L70.7888 89.5506L73.1896 88.3502L70.9535 83.8781L68.7175 79.406L66.3167 80.6064L68.5527 85.0785ZM68.5527 85.0785L64.243 87.6136L65.1005 89.0712L69.4102 86.5361L73.7198 84.0011L72.8624 82.5434L68.5527 85.0785ZM73.3544 85.0785L75.5904 80.6064L73.1896 79.406L70.9535 83.8781L68.7175 88.3502L71.1183 89.5506L73.3544 85.0785ZM73.3544 85.0785L69.0447 82.5434L68.1873 84.0011L72.4969 86.5361L76.8066 89.0712L77.664 87.6136L73.3544 85.0785ZM68.0382 106L72.998 106.633L75.1416 89.8268L70.1818 89.1942L65.222 88.5616L63.0784 105.367L68.0382 106ZM70.1818 89.1942V94.1942H71.9824V89.1942V84.1942H70.1818V89.1942ZM71.9824 89.1942L67.0195 89.8019L69.0773 106.608L74.0403 106L79.0032 105.392L76.9453 88.5865L71.9824 89.1942ZM74.0403 106V101H68.0382V106V111H74.0403V106ZM100.278 106V101H76.9556V106V111H100.278V106ZM76.9556 106L81.9039 105.283L79.3727 87.8177L74.4244 88.5349L69.4761 89.252L72.0072 106.717L76.9556 106ZM74.5563 88.0224L78.5426 91.0406L87.232 79.5641L83.2457 76.5459L79.2594 73.5277L70.5701 85.0042L74.5563 88.0224ZM83.8459 76.2761L83.4572 81.2609L91.1791 81.8631L91.5678 76.8782L91.9566 71.8934L84.2347 71.2912L83.8459 76.2761ZM102.164 88.3331H97.1642V104.114H102.164H107.164V88.3331H102.164ZM91.5678 76.8782L91.1791 81.8631C94.5573 82.1265 97.1642 84.9447 97.1642 88.3331H102.164H107.164C107.164 79.7233 100.54 72.5627 91.9566 71.8934L91.5678 76.8782ZM83.2457 76.5459L87.232 79.5641C86.3449 80.7357 84.9224 81.3752 83.4572 81.2609L83.8459 76.2761L84.2347 71.2912C82.3035 71.1406 80.4286 71.9835 79.2594 73.5277L83.2457 76.5459ZM74.4244 88.5349L79.3727 87.8177C79.5382 88.9598 79.2393 90.1205 78.5426 91.0406L74.5563 88.0224L70.57 85.0042C69.6519 86.2169 69.2579 87.7468 69.4761 89.252L74.4244 88.5349ZM100.278 106V111C104.081 111 107.164 107.917 107.164 104.114H102.164H97.1642C97.1642 102.394 98.5583 101 100.278 101V106ZM82.6743 76.2679L78.5361 73.4616L74.82 78.9414L78.9581 81.7477L83.0963 84.5541L86.8125 79.0743L82.6743 76.2679ZM77.2914 82.2426L79.2276 77.6327L75.9764 76.2672L74.0403 80.8771L72.1041 85.487L75.3553 86.8525L77.2914 82.2426ZM74.0403 80.8771L77.2112 84.743L84.4185 78.8314L81.2475 74.9655L78.0766 71.0996L70.8693 77.0112L74.0403 80.8771ZM81.2475 74.9655L84.4185 78.8314C83.333 79.7217 81.8622 79.9819 80.5372 79.5182L82.1889 74.7989L83.8407 70.0796C81.873 69.3909 79.6886 69.7774 78.0766 71.0996L81.2475 74.9655ZM78.9581 81.7477L74.82 78.9414C75.79 77.511 77.6342 76.9635 79.2276 77.6327L77.2914 82.2426L75.3553 86.8525C78.1537 88.0278 81.3927 87.0661 83.0963 84.5541L78.9581 81.7477ZM82.6743 76.2679L86.8125 79.0743C89.0144 75.8274 87.5435 71.3756 83.8407 70.0796L82.1889 74.7989L80.5372 79.5182C78.0439 78.6455 77.0535 75.6479 78.5361 73.4616L82.6743 76.2679ZM100.075 81.7343L103.592 78.1806L100.842 75.4589L97.3246 79.0126L93.8073 82.5663L96.5573 85.288L100.075 81.7343ZM95.3845 79.0226L91.8308 75.5053L91.2276 76.1147L94.7813 79.632L98.335 83.1493L98.9382 82.5399L95.3845 79.0226ZM94.7913 81.5721L91.2741 85.1259L94.024 87.8476L97.5413 84.2939L101.059 80.7402L98.3086 78.0184L94.7913 81.5721ZM99.4814 84.2839L103.035 87.8011L103.638 87.1917L100.085 83.6745L96.5308 80.1572L95.9277 80.7666L99.4814 84.2839ZM97.5413 84.2939L94.024 87.8476C96.5252 90.3231 100.56 90.3023 103.035 87.8011L99.4814 84.2839L95.9277 80.7666C97.3372 79.3425 99.6344 79.3306 101.059 80.7402L97.5413 84.2939ZM94.7813 79.632L91.2276 76.1147C88.7521 78.6159 88.7729 82.6503 91.2741 85.1259L94.7913 81.5721L98.3086 78.0184C99.7327 79.4279 99.7446 81.7251 98.335 83.1493L94.7813 79.632ZM97.3246 79.0126L100.842 75.4589C98.3407 72.9833 94.3063 73.0042 91.8308 75.5053L95.3845 79.0226L98.9382 82.5398C97.5287 83.964 95.2315 83.9758 93.8073 82.5663L97.3246 79.0126ZM100.075 81.7343L96.5573 85.288C95.1332 83.8785 95.1213 81.5813 96.5308 80.1572L100.085 83.6745L103.638 87.1917C106.114 84.6905 106.093 80.6561 103.592 78.1806L100.075 81.7343ZM87.845 96.2251V91.2251H82.604V96.2251V101.225H87.845V96.2251ZM81.9181 96.911H76.9181V99.1404H81.9181H86.9181V96.911H81.9181ZM82.604 99.8263V104.826H87.845V99.8263V94.8263H82.604V99.8263ZM88.531 99.1404H93.531V96.911H88.531H83.531V99.1404H88.531ZM87.845 99.8263V104.826C90.9853 104.826 93.531 102.281 93.531 99.1404H88.531H83.531C83.531 96.7578 85.4625 94.8263 87.845 94.8263V99.8263ZM81.9181 99.1404H76.9181C76.9181 102.281 79.4638 104.826 82.604 104.826V99.8263V94.8263C84.9866 94.8263 86.9181 96.7578 86.9181 99.1404H81.9181ZM82.604 96.2251V91.2251C79.4638 91.2251 76.9181 93.7708 76.9181 96.911H81.9181H86.9181C86.9181 99.2936 84.9866 101.225 82.604 101.225V96.2251ZM87.845 96.2251V101.225C85.4625 101.225 83.531 99.2936 83.531 96.911H88.531H93.531C93.531 93.7708 90.9853 91.2251 87.845 91.2251V96.2251ZM69.4102 86.5361V91.5361H72.4969V86.5361V81.5361H69.4102V86.5361Z" fill="white" mask="url(#path-3-outside-1_275_181)"/>
<rect x="55.0341" y="43.6075" width="31.6674" height="7.31612" rx="1.34298" fill="#F29900" stroke="black" stroke-width="2"/>
<path d="M58.4541 75.2762C58.8781 75.2969 59.2792 75.4768 59.5762 75.7801L59.7158 75.9422L68.4053 87.4188L68.5 87.5574C68.6748 87.8436 68.7599 88.1756 68.7451 88.5106L68.7295 88.6785L66.1982 106.143L66.0742 107H41.8867C40.2928 107 39.0002 105.708 39 104.114V88.3328C39.0001 81.8117 44.0172 76.3887 50.5186 75.8817L58.2402 75.2791L58.4541 75.2762Z" fill="#2D5872" stroke="black" stroke-width="2"/>
<path d="M59.7681 73.816C60.3442 73.6557 60.9628 73.7655 61.4488 74.1139L61.5513 74.192L68.7584 80.1041L70.0416 81.1569L68.5113 81.7994L65.2603 83.1647C64.2836 83.5749 63.1622 83.2857 62.5035 82.4772L62.3785 82.3092L58.6627 76.8287C57.9347 75.7551 58.4208 74.2836 59.6451 73.8551L59.7681 73.816Z" fill="#1D4559" stroke="black" stroke-width="2"/>
<path d="M64.3395 73.439L64.0387 74.0954C63.7705 74.6805 63.9452 75.3734 64.4586 75.7615L70.1493 80.0626C70.6278 80.4243 71.2858 80.4331 71.7739 80.0845L77.8346 75.7554C78.3696 75.3733 78.5583 74.6652 78.2843 74.0675L77.9963 73.439C77.8771 73.179 77.8422 72.8883 77.8964 72.6075L78.4413 69.7837C78.6047 68.9374 77.9562 68.1519 77.0943 68.1519H65.2416C64.3796 68.1519 63.7312 68.9374 63.8945 69.7837L64.4394 72.6075C64.4936 72.8883 64.4587 73.179 64.3395 73.439Z" fill="#6C5C4D" stroke="black" stroke-width="2" stroke-linejoin="round"/>
<path d="M80.4713 41C81.7812 41.0002 82.8434 42.0622 82.8434 43.3721V49.8633C82.8435 50.1107 83.0803 50.2893 83.318 50.2207L85.7272 49.5225L85.8688 49.4854C87.337 49.1535 88.7592 50.2696 88.7594 51.7998V53.8271C88.7592 54.8198 88.1422 55.7001 87.2262 56.0459L87.0387 56.1074L85.4274 56.5674C85.2882 56.6073 85.1529 56.7367 85.1061 56.9268L85.0924 57.0127C84.9324 58.687 84.3707 62.0954 82.3522 65.1104C80.2931 68.1859 76.7591 70.7812 70.8678 70.7812C64.9765 70.7812 61.4425 68.1859 59.3834 65.1104C57.6173 62.4723 56.9665 59.5331 56.7242 57.7178L56.6432 57.0127C56.6234 56.8055 56.5033 56.6546 56.3668 56.5898L56.3073 56.5674L54.6969 56.1074C53.6788 55.8165 52.9764 54.886 52.9762 53.8271V51.7998C52.9764 50.2204 54.4914 49.0827 56.0084 49.5225L58.4166 50.2207L58.5055 50.2344C58.7104 50.2432 58.8921 50.08 58.8922 49.8633V43.3721C58.8922 42.0622 59.9544 41.0001 61.2643 41H80.4713Z" fill="#6C5C4D" stroke="black" stroke-width="2" stroke-linejoin="round"/>
<path d="M71.3827 32.2891C76.1843 32.2892 80.5765 33.0309 83.8046 34.2637C85.4149 34.8788 86.7872 35.6353 87.7743 36.5264C88.7614 37.4177 89.4452 38.5245 89.4452 39.8057C89.4452 41.0869 88.7613 42.1928 87.7743 43.084C86.7872 43.9754 85.4152 44.7326 83.8046 45.3477C80.5765 46.5806 76.1843 47.3223 71.3827 47.3223C66.5809 47.3223 62.188 46.5806 58.9598 45.3477C57.3493 44.7326 55.9772 43.9754 54.9901 43.084C54.0031 42.1928 53.3192 41.0869 53.3192 39.8057C53.3192 38.5245 54.003 37.4177 54.9901 36.5264C55.9772 35.6353 57.3495 34.8788 58.9598 34.2637C62.188 33.0309 66.5809 32.2891 71.3827 32.2891Z" fill="#183C53" stroke="black" stroke-width="2"/>
<path d="M70.9539 22C76.9083 22.0001 82.3216 23.6568 86.2723 26.0957C90.1638 28.4981 92.8748 31.8267 92.8748 35.2617C92.8748 36.1261 92.7003 36.9068 92.327 37.5879C91.9526 38.2706 91.4087 38.7981 90.7547 39.2002C89.483 39.982 87.749 40.3157 85.8211 40.458C83.8688 40.6021 81.5649 40.5576 79.0662 40.4805C76.5508 40.4028 73.8223 40.291 70.9539 40.291C68.0854 40.291 65.3562 40.4028 62.8406 40.4805C60.342 40.5576 58.038 40.6021 56.0858 40.458C54.1579 40.3157 52.4238 39.982 51.1522 39.2002C50.4982 38.7981 49.9542 38.2706 49.5799 37.5879C49.2065 36.9068 49.0321 36.1261 49.032 35.2617C49.032 31.8267 51.743 28.4981 55.6346 26.0957C59.5854 23.6567 64.9993 22 70.9539 22Z" fill="#2D5872" stroke="black" stroke-width="2"/>
<rect x="39.7006" y="82.6921" width="8.61293" height="5.60124" rx="2.3719" transform="rotate(-44.7046 39.7006 82.6921)" fill="#FFBF14" stroke="black" stroke-width="2"/>
<rect x="52.6332" y="95.2251" width="8.61293" height="5.60124" rx="1.68595" fill="#1D4559" stroke="black" stroke-width="2"/>
<path d="M70.7188 82.04C70.9326 81.9774 71.1625 81.9879 71.3711 82.0713L73.8711 83.0713L73.9648 83.1143C74.3838 83.3335 74.5922 83.8199 74.4619 84.2744L74.4287 84.3711L73.4287 86.8711C73.2768 87.2508 72.9089 87.5 72.5 87.5H69.5C69.1424 87.5 68.8164 87.3095 68.6387 87.0078L68.5713 86.8711L67.5713 84.3711C67.3664 83.8584 67.6162 83.2764 68.1289 83.0713L70.6289 82.0713L70.7188 82.04Z" fill="#282C3A" stroke="black" stroke-width="2" stroke-linejoin="round"/>
<path d="M72.8673 88.1942L72.9747 89.0731L75.0333 105.879L75.17 107H66.9025L67.046 105.874L69.1896 89.0673L69.3009 88.1942H72.8673Z" fill="#282C3A" stroke="black" stroke-width="2"/>
<path d="M83.7101 75.2762C83.2862 75.2969 82.885 75.4768 82.5881 75.7801L82.4484 75.9422L73.759 87.4188L73.6642 87.5574C73.4895 87.8436 73.4044 88.1756 73.4191 88.5106L73.4348 88.6785L75.966 106.143L76.09 107H100.278C101.871 107 103.164 105.708 103.164 104.114V88.3328C103.164 81.8117 98.1471 76.3887 91.6457 75.8817L83.924 75.2791L83.7101 75.2762Z" fill="#2D5872" stroke="black" stroke-width="2"/>
<path d="M82.3961 73.816C81.82 73.6557 81.2015 73.7655 80.7155 74.1139L80.6129 74.192L73.4059 80.1041L72.1227 81.1569L73.653 81.7994L76.9039 83.1647C77.8807 83.5749 79.002 83.2857 79.6608 82.4772L79.7858 82.3092L83.5016 76.8287C84.2295 75.7551 83.7435 74.2836 82.5192 73.8551L82.3961 73.816Z" fill="#1D4559" stroke="black" stroke-width="2"/>
<rect x="1.41419" y="-0.0072915" width="8.61293" height="5.60124" rx="2.3719" transform="matrix(-0.710743 -0.703452 -0.703452 0.710743 103.464 83.6921)" fill="#FFBF14" stroke="black" stroke-width="2"/>
<rect x="1" y="-1" width="8.61293" height="5.60124" rx="1.68595" transform="matrix(-1 0 0 1 90.531 96.2251)" fill="#1D4559" stroke="black" stroke-width="2"/>
</svg>
