<svg width="140" height="140" viewBox="0 0 140 140" fill="none" xmlns="http://www.w3.org/2000/svg">
<path d="M71 1C106.899 1 136 30.1015 136 66C136 101.899 106.899 131 71 131C56.0255 131 44.0339 127.845 33.0469 119.307C32.9367 119.406 32.814 119.519 32.6777 119.642C32.0431 120.214 31.1343 121.028 30.0381 121.999C27.8464 123.94 24.901 126.51 21.8906 129.019C18.8853 131.523 15.7947 133.984 13.3193 135.697C12.0879 136.55 10.9697 137.245 10.0713 137.664C9.62812 137.871 9.18022 138.038 8.7666 138.104C8.39071 138.163 7.76482 138.179 7.29297 137.707C6.86198 137.276 6.81946 136.684 6.82812 136.315C6.8381 135.893 6.92833 135.409 7.05957 134.906C7.32448 133.891 7.80855 132.598 8.42383 131.154C9.65898 128.256 11.4871 124.603 13.3652 121.034C15.2461 117.46 17.1888 113.952 18.6602 111.338C19.3961 110.03 20.0145 108.945 20.4492 108.188C20.57 107.977 20.6766 107.792 20.7676 107.634C10.3734 96.1265 6 82.7067 6 66C6 30.1015 35.1015 1 71 1Z" stroke="black" stroke-width="2"/>
<path d="M71 3.5C105.518 3.5 133.5 31.4822 133.5 66C133.5 100.518 105.518 128.5 71 128.5C56.1345 128.5 44.5569 125.326 33.9375 116.829L32.9355 116.027L31.9883 116.893H31.9873L31.9727 116.907C31.9619 116.917 31.9452 116.932 31.9238 116.951C31.8808 116.99 31.8171 117.049 31.7334 117.125C31.5657 117.277 31.3188 117.5 31.0039 117.784C30.3739 118.352 29.4708 119.162 28.3809 120.127C26.1998 122.059 23.2743 124.611 20.29 127.098C17.2982 129.591 14.2771 131.993 11.8965 133.642C11.0026 134.26 10.2305 134.75 9.60449 135.095C9.84316 134.311 10.2228 133.31 10.7236 132.135C11.9178 129.333 13.7071 125.751 15.5771 122.198C17.4432 118.653 19.3741 115.166 20.8389 112.563C21.5708 111.263 22.1854 110.184 22.6172 109.432C22.8331 109.055 23.0032 108.76 23.1191 108.56C23.1771 108.459 23.2221 108.383 23.252 108.331C23.2667 108.306 23.2777 108.286 23.2852 108.273C23.2889 108.267 23.2921 108.262 23.2939 108.259C23.2947 108.257 23.2955 108.257 23.2959 108.256L23.2969 108.255C23.297 108.255 23.2965 108.254 22 107.5L23.2969 108.254L23.8545 107.296L23.1016 106.481C12.8511 95.3964 8.5 82.4621 8.5 66C8.5 31.4822 36.4822 3.5 71 3.5Z" fill="#171297" stroke="white" stroke-width="3"/>
<path d="M68.5469 35.9951C70.976 34.0425 74.6836 35.7513 74.6836 38.958V92.3691C74.6835 95.5757 70.976 97.2844 68.5469 95.332L68.3164 95.1309L50.0635 78.0508H41.2832C39.194 78.0508 37.5002 76.3577 37.5 74.2686V57.0586C37.5 54.9693 39.1939 53.2754 41.2832 53.2754H50.0635L68.3164 36.1953L68.5469 35.9951Z" stroke="white" stroke-width="5"/>
<path d="M69.4805 37.1699C70.9464 35.9917 73.1836 37.0228 73.1836 38.958V92.3691C73.1835 94.3042 70.9464 95.3352 69.4805 94.1572L69.3408 94.0361L50.7373 76.6279C50.6849 76.5789 50.6157 76.5508 50.5439 76.5508H41.2832C40.0224 76.5508 39.0002 75.5293 39 74.2686V57.0586C39 55.7977 40.0223 54.7754 41.2832 54.7754H50.5439C50.6157 54.7754 50.6849 54.7481 50.7373 54.6992L69.3408 37.291L69.4805 37.1699Z" fill="#E3934C" stroke="black" stroke-width="2"/>
<path d="M82.408 72.4491C83.4749 72.0484 84.4444 71.461 85.261 70.7205C86.0775 69.98 86.7253 69.1009 87.1672 68.1334C87.6092 67.1659 87.8366 66.1289 87.8366 65.0817C87.8366 64.0345 87.6092 62.9976 87.1672 62.0301C86.7253 61.0626 86.0775 60.1835 85.261 59.443C84.4444 58.7025 83.4749 58.1151 82.408 57.7144" stroke="white" stroke-width="5" stroke-linecap="round"/>
<path d="M88.6121 80.2043C90.5173 79.3817 92.2485 78.176 93.7066 76.656C95.1648 75.1361 96.3215 73.3316 97.1107 71.3457C97.8999 69.3598 98.306 67.2313 98.306 65.0817C98.306 62.9322 97.8999 60.8037 97.1107 58.8178C96.3215 56.8319 95.1648 55.0274 93.7066 53.5075C92.2485 51.9875 90.5173 50.7818 88.6121 49.9592" stroke="white" stroke-width="5" stroke-linecap="round"/>
<path d="M94.4285 87.1839C97.0958 85.9922 99.5194 84.2455 101.561 82.0435C103.602 79.8415 105.222 77.2274 106.327 74.3503C107.431 71.4733 108 68.3897 108 65.2756C108 62.1616 107.431 59.078 106.327 56.2009C105.222 53.3239 103.602 50.7098 101.561 48.5078C99.5194 46.3058 97.0958 44.5591 94.4285 43.3674" stroke="white" stroke-width="5" stroke-linecap="round"/>
<path d="M82.408 72.4491C83.4749 72.0484 84.4444 71.461 85.261 70.7205C86.0775 69.98 86.7253 69.1009 87.1672 68.1334C87.6092 67.1659 87.8366 66.1289 87.8366 65.0817C87.8366 64.0345 87.6092 62.9976 87.1672 62.0301C86.7253 61.0626 86.0775 60.1835 85.261 59.443C84.4444 58.7025 83.4749 58.1151 82.408 57.7144" stroke="black" stroke-width="2" stroke-linecap="round"/>
<path d="M88.6121 80.2043C90.5173 79.3817 92.2485 78.176 93.7066 76.656C95.1648 75.1361 96.3215 73.3316 97.1107 71.3457C97.8999 69.3598 98.306 67.2313 98.306 65.0817C98.306 62.9322 97.8999 60.8037 97.1107 58.8178C96.3215 56.8319 95.1648 55.0274 93.7066 53.5075C92.2485 51.9875 90.5173 50.7818 88.6121 49.9592" stroke="black" stroke-width="2" stroke-linecap="round"/>
<path d="M94.4285 87.1839C97.0958 85.9922 99.5194 84.2455 101.561 82.0435C103.602 79.8415 105.222 77.2274 106.327 74.3503C107.431 71.4733 108 68.3897 108 65.2756C108 62.1616 107.431 59.078 106.327 56.2009C105.222 53.3239 103.602 50.7098 101.561 48.5078C99.5194 46.3058 97.0958 44.5591 94.4285 43.3674" stroke="black" stroke-width="2" stroke-linecap="round"/>
</svg>
