<svg width="140" height="140" viewBox="0 0 140 140" fill="none" xmlns="http://www.w3.org/2000/svg">
<path d="M71 1C106.899 1 136 30.1015 136 66C136 101.899 106.899 131 71 131C56.0255 131 44.0339 127.845 33.0469 119.307C32.9367 119.406 32.814 119.519 32.6777 119.642C32.0431 120.214 31.1343 121.028 30.0381 121.999C27.8464 123.94 24.901 126.51 21.8906 129.019C18.8853 131.523 15.7947 133.984 13.3193 135.697C12.0879 136.55 10.9697 137.245 10.0713 137.664C9.62812 137.871 9.18022 138.038 8.7666 138.104C8.39071 138.163 7.76482 138.179 7.29297 137.707C6.86198 137.276 6.81946 136.684 6.82812 136.315C6.8381 135.893 6.92833 135.409 7.05957 134.906C7.32448 133.891 7.80855 132.598 8.42383 131.154C9.65898 128.256 11.4871 124.603 13.3652 121.034C15.2461 117.46 17.1888 113.952 18.6602 111.338C19.3961 110.03 20.0145 108.945 20.4492 108.188C20.57 107.977 20.6766 107.792 20.7676 107.634C10.3734 96.1265 6 82.7067 6 66C6 30.1015 35.1015 1 71 1Z" stroke="black" stroke-width="2"/>
<path d="M71 3.5C105.518 3.5 133.5 31.4822 133.5 66C133.5 100.518 105.518 128.5 71 128.5C56.1345 128.5 44.5569 125.326 33.9375 116.829L32.9355 116.027L31.9883 116.893H31.9873L31.9727 116.907C31.9619 116.917 31.9452 116.932 31.9238 116.951C31.8808 116.99 31.8171 117.049 31.7334 117.125C31.5657 117.277 31.3188 117.5 31.0039 117.784C30.3739 118.352 29.4708 119.162 28.3809 120.127C26.1998 122.059 23.2743 124.611 20.29 127.098C17.2982 129.591 14.2771 131.993 11.8965 133.642C11.0026 134.26 10.2305 134.75 9.60449 135.095C9.84316 134.311 10.2228 133.31 10.7236 132.135C11.9178 129.333 13.7071 125.751 15.5771 122.198C17.4432 118.653 19.3741 115.166 20.8389 112.563C21.5708 111.263 22.1854 110.184 22.6172 109.432C22.8331 109.055 23.0032 108.76 23.1191 108.56C23.1771 108.459 23.2221 108.383 23.252 108.331C23.2667 108.306 23.2777 108.286 23.2852 108.273C23.2889 108.267 23.2921 108.262 23.2939 108.259C23.2947 108.257 23.2955 108.257 23.2959 108.256L23.2969 108.255C23.297 108.255 23.2965 108.254 22 107.5L23.2969 108.254L23.8545 107.296L23.1016 106.481C12.8511 95.3964 8.5 82.4621 8.5 66C8.5 31.4822 36.4822 3.5 71 3.5Z" fill="#171297" stroke="white" stroke-width="3"/>
<path d="M94.3174 38.0693C95.0542 37.4628 96.0798 37.326 96.9561 37.7314C97.8903 38.1639 98.4641 39.1248 98.4014 40.1523L98.0684 45.5781L108.885 43.6738L109.075 43.6484C110.025 43.5553 110.954 44.0132 111.455 44.8389C111.99 45.7196 111.929 46.8382 111.303 47.6562L106.389 54.0723L116.209 55.6787C117.257 55.8501 118.081 56.6647 118.267 57.71C118.452 58.7553 117.956 59.8034 117.031 60.3242L109.245 64.708L116.919 73.7061C117.599 74.5034 117.709 75.6405 117.195 76.5537C116.714 77.4097 115.78 77.8988 114.812 77.8193L114.618 77.7959L100.016 75.4424L102.34 83.4883C102.647 84.5515 102.219 85.6901 101.287 86.2871C100.355 86.8841 99.1412 86.7969 98.3037 86.0732L80.2451 70.4697C79.6627 69.9665 79.3447 69.2228 79.3828 68.4541L80.1719 52.5869L80.1953 52.3496C80.2753 51.8022 80.5352 51.2945 80.9375 50.9082L94.1738 38.1963L94.3174 38.0693Z" fill="#FD8087" stroke="white" stroke-width="5" stroke-linejoin="round"/>
<g filter="url(#filter0_i_275_181)">
<path d="M78.5487 52.2727H37.6542C36.4854 52.2727 35.4568 53.0441 35.1295 54.1662L32.5568 62.9872C32.2274 64.1165 32.6881 65.3273 33.6849 65.952L35.603 67.1539C37.3549 68.2518 38.1485 70.3912 37.5365 72.366L32.8008 87.6465C32.3622 89.0617 33.1786 90.5596 34.6056 90.958L42.8863 93.2702C44.3163 93.6695 45.7932 92.8065 46.1474 91.3646L51.2321 70.668C51.5209 69.4922 52.5752 68.6656 53.786 68.6656H78.5487C80.0011 68.6656 81.1786 67.4881 81.1786 66.0357V54.9026C81.1786 53.4501 80.0011 52.2727 78.5487 52.2727Z" fill="#999999"/>
</g>
<path d="M78.5488 49.7727C81.3819 49.7728 83.6787 52.0695 83.6787 54.9026V66.0354C83.6787 68.8685 81.3819 71.1652 78.5488 71.1653H53.7861C53.7411 71.1653 53.7002 71.1886 53.6768 71.2249L53.6602 71.2649L48.5752 91.9612C47.9058 94.6858 45.1812 96.3511 42.4756 95.7444L42.2139 95.678L33.9336 93.3655C31.1502 92.5883 29.5576 89.6669 30.4131 86.9065L35.1484 71.6262L35.1934 71.4583C35.3665 70.6717 35.0632 69.8538 34.4189 69.3704L34.2754 69.2727L32.3574 68.0706C30.4129 66.852 29.5147 64.4903 30.1572 62.2874L32.7295 53.4661L32.793 53.2629C33.4932 51.1848 35.4456 49.7727 37.6543 49.7727H78.5488Z" stroke="white" stroke-width="5" stroke-linejoin="round"/>
<mask id="path-6-outside-1_275_181" maskUnits="userSpaceOnUse" x="64" y="42" width="17" height="13" fill="black">
<rect fill="white" x="64" y="42" width="17" height="13"/>
<path d="M76 50H70C70 50 70.0543 48.6065 70.5455 47.9677C71.0283 47.3398 72.2727 47 72.2727 47H76V50Z"/>
</mask>
<path d="M76 50H70C70 50 70.0543 48.6065 70.5455 47.9677C71.0283 47.3398 72.2727 47 72.2727 47H76V50Z" fill="#999999"/>
<path d="M70 50L65.0038 49.8053L64.8013 55H70V50ZM76 50V55H81V50H76ZM76 47H81C81 44.2386 78.7614 42 76 42V47ZM72.2727 47V42C71.8278 42 71.3848 42.0594 70.9555 42.1766L72.2727 47ZM70.5455 47.9677L74.5091 51.0156L74.5091 51.0156L70.5455 47.9677ZM70 50V55H76V50V45H70V50ZM76 50H81V47H76H71V50H76ZM76 47V42H72.2727V47V52H76V47ZM72.2727 47C70.9555 42.1766 70.9547 42.1769 70.9538 42.1771C70.9535 42.1772 70.9526 42.1774 70.952 42.1776C70.9508 42.1779 70.9495 42.1783 70.9483 42.1786C70.9458 42.1793 70.9432 42.18 70.9405 42.1807C70.9351 42.1822 70.9294 42.1838 70.9234 42.1855C70.9112 42.1889 70.8977 42.1927 70.8829 42.197C70.8532 42.2055 70.8181 42.2157 70.7781 42.2277C70.6985 42.2517 70.5976 42.2833 70.4804 42.3226C70.2516 42.3993 69.9338 42.5146 69.5764 42.6718C69.0841 42.8885 67.6392 43.5447 66.5818 44.9199L70.5455 47.9677L74.5091 51.0156C74.1619 51.4671 73.8296 51.6881 73.747 51.7419C73.637 51.8135 73.5799 51.8355 73.6039 51.825C73.618 51.8188 73.6415 51.8098 73.661 51.8033C73.6681 51.8009 73.6682 51.801 73.6585 51.8039C73.6535 51.8054 73.6456 51.8078 73.6344 51.811C73.6288 51.8126 73.6223 51.8144 73.6149 51.8165C73.6112 51.8175 73.6073 51.8186 73.6031 51.8197C73.6011 51.8203 73.5989 51.8209 73.5967 51.8215C73.5956 51.8218 73.5945 51.8221 73.5934 51.8224C73.5928 51.8226 73.5919 51.8228 73.5916 51.8229C73.5908 51.8231 73.5899 51.8234 72.2727 47ZM70.5455 47.9677L66.5818 44.9199C65.5369 46.2788 65.2519 47.8559 65.1635 48.3611C65.0964 48.7443 65.0584 49.0803 65.0366 49.3202C65.0255 49.4429 65.018 49.5475 65.0129 49.6289C65.0104 49.6697 65.0084 49.7052 65.007 49.7347C65.0062 49.7494 65.0056 49.7627 65.0051 49.7745C65.0048 49.7804 65.0046 49.7859 65.0044 49.791C65.0043 49.7936 65.0042 49.7961 65.0041 49.7984C65.004 49.7996 65.004 49.8008 65.0039 49.8019C65.0039 49.8025 65.0039 49.8033 65.0039 49.8036C65.0038 49.8044 65.0038 49.8053 70 50C74.9962 50.1947 74.9962 50.1956 74.9961 50.1964C74.9961 50.1966 74.9961 50.1974 74.9961 50.198C74.996 50.199 74.996 50.2 74.996 50.2011C74.9959 50.2031 74.9958 50.205 74.9957 50.2069C74.9956 50.2107 74.9954 50.2142 74.9953 50.2174C74.995 50.2239 74.9947 50.2293 74.9945 50.2337C74.9941 50.2425 74.9938 50.2474 74.9937 50.2489C74.9935 50.2515 74.9941 50.2423 74.9957 50.2243C74.9994 50.183 75.0058 50.1307 75.0136 50.0856C75.0235 50.0294 75.0231 50.0568 74.9921 50.1488C74.9745 50.2011 74.8541 50.567 74.5091 51.0156L70.5455 47.9677Z" fill="white" mask="url(#path-6-outside-1_275_181)"/>
<mask id="path-8-outside-2_275_181" maskUnits="userSpaceOnUse" x="45" y="66" width="29" height="19" fill="black">
<rect fill="white" x="45" y="66" width="29" height="19"/>
<path d="M59.1526 77.1364H52.789L52 79.6786H60.7305L65.289 71H62.4838L59.1526 77.1364Z"/>
</mask>
<path d="M59.1526 77.1364H52.789L52 79.6786H60.7305L65.289 71H62.4838L59.1526 77.1364Z" fill="#737373"/>
<path d="M52.789 77.1364V72.1364H49.1054L48.0136 75.6544L52.789 77.1364ZM59.1526 77.1364V82.1364C60.9859 82.1364 62.6722 81.133 63.5469 79.5218L59.1526 77.1364ZM62.4838 71V66C60.6505 66 58.9642 67.0033 58.0895 68.6145L62.4838 71ZM65.289 71L69.7155 73.325L73.563 66H65.289V71ZM60.7305 79.6786V84.6786C62.5884 84.6786 64.2931 83.6484 65.157 82.0036L60.7305 79.6786ZM52 79.6786L47.2247 78.1966L45.213 84.6786H52V79.6786ZM52.789 77.1364V82.1364H59.1526V77.1364V72.1364H52.789V77.1364ZM59.1526 77.1364L63.5469 79.5218L66.878 73.3855L62.4838 71L58.0895 68.6145L54.7583 74.7509L59.1526 77.1364ZM62.4838 71V76H65.289V71V66H62.4838V71ZM65.289 71L60.8624 68.675L56.304 77.3535L60.7305 79.6786L65.157 82.0036L69.7155 73.325L65.289 71ZM60.7305 79.6786V74.6786H52V79.6786V84.6786H60.7305V79.6786ZM52 79.6786L56.7753 81.1606L57.5643 78.6184L52.789 77.1364L48.0136 75.6544L47.2247 78.1966L52 79.6786Z" fill="white" mask="url(#path-8-outside-2_275_181)"/>
<path d="M95.2128 39.2783C95.5099 38.993 95.9523 38.9198 96.3261 39.0928C96.6529 39.2442 96.869 39.5571 96.9013 39.9082L96.9042 40.0615L96.455 47.3857L109.144 45.1514C109.55 45.0799 109.959 45.2649 110.173 45.6172C110.387 45.9694 110.363 46.4169 110.112 46.7441L103.676 55.1484L115.967 57.1592C116.386 57.2278 116.716 57.5536 116.79 57.9717C116.864 58.3898 116.666 58.8092 116.296 59.0176L106.922 64.2939L115.777 74.6787L115.868 74.8047C116.056 75.1104 116.067 75.4987 115.888 75.8184C115.682 76.1834 115.271 76.3819 114.857 76.3154L97.9179 73.5859L100.899 83.9043C101.022 84.3296 100.85 84.7847 100.477 85.0234C100.105 85.2622 99.6191 85.2279 99.2841 84.9385L81.2255 69.335C80.9926 69.1337 80.8655 68.8358 80.8808 68.5283L81.6699 52.6611L81.6796 52.5664C81.7116 52.3475 81.8156 52.1447 81.9765 51.9902L95.2128 39.2783Z" fill="#FD8087" stroke="black" stroke-width="2" stroke-linejoin="round"/>
<g filter="url(#filter1_i_275_181)">
<path d="M93.0129 53.4999L83.8961 56.5681V64.633L93.5389 66.8246L91.172 63.0551L98.2727 59.8992L91.5227 57.2694L93.0129 53.4999Z" fill="#FFBA17"/>
</g>
<path d="M92.8336 52.5165C93.1623 52.4564 93.5033 52.5645 93.7379 52.8114C93.9722 53.0583 94.0626 53.4043 93.9859 53.7294L93.9429 53.8671L92.8218 56.702L98.6353 58.9677C99.0114 59.1142 99.2626 59.4723 99.272 59.8759C99.2815 60.2793 99.048 60.6494 98.6793 60.8134L92.6324 63.4999L94.3863 66.2928C94.6011 66.6351 94.5888 67.0735 94.355 67.4032C94.1504 67.6917 93.811 67.8477 93.4654 67.8221L93.317 67.7997L83.6744 65.6083C83.2191 65.5048 82.8961 65.0996 82.8961 64.6327V56.5682C82.8961 56.139 83.1699 55.757 83.5767 55.62L92.6939 52.5516L92.8336 52.5165Z" stroke="black" stroke-width="2" stroke-linejoin="round"/>
<g filter="url(#filter2_i_275_181)">
<path d="M78.5487 52.2727H37.6542C36.4854 52.2727 35.4568 53.0441 35.1295 54.1662L32.5568 62.9872C32.2274 64.1165 32.6881 65.3273 33.6849 65.952L35.603 67.1539C37.3549 68.2518 38.1485 70.3912 37.5365 72.366L32.8008 87.6465C32.3622 89.0617 33.1786 90.5596 34.6056 90.958L42.8863 93.2702C44.3163 93.6695 45.7932 92.8065 46.1474 91.3646L51.2321 70.668C51.5209 69.4922 52.5752 68.6656 53.786 68.6656H78.5487C80.0011 68.6656 81.1786 67.4881 81.1786 66.0357V54.9026C81.1786 53.4501 80.0011 52.2727 78.5487 52.2727Z" fill="#999999"/>
</g>
<path d="M78.5488 51.2727C80.5535 51.2728 82.1787 52.8979 82.1787 54.9026V66.0354C82.1787 68.0401 80.5535 69.6652 78.5488 69.6653H53.7861C53.0826 69.6653 52.4642 70.1159 52.2422 70.7727L52.2031 70.9065L47.1182 91.6028C46.6445 93.5307 44.7172 94.7088 42.8027 94.2795L42.6172 94.2336L34.3369 91.9211C32.3675 91.3712 31.2406 89.304 31.8457 87.3508L36.5811 72.0696L36.6582 71.7795C36.9574 70.4198 36.4331 69.0067 35.3193 68.1711L35.0723 68.0012L33.1543 66.7991C31.7784 65.9369 31.1421 64.266 31.5967 62.7073L34.1699 53.886L34.2656 53.6018C34.7997 52.2087 36.1418 51.2727 37.6543 51.2727H78.5488Z" stroke="black" stroke-width="2" stroke-linejoin="round"/>
<path d="M32.8767 60.5131L81.2663 60.5131" stroke="black" stroke-width="2.27922" stroke-linejoin="round"/>
<mask id="path-16-outside-3_275_181" maskUnits="userSpaceOnUse" x="67" y="45" width="11" height="7" fill="black">
<rect fill="white" x="67" y="45" width="11" height="7"/>
<path d="M76 50H70C70 50 70.0543 48.6065 70.5455 47.9677C71.0283 47.3398 72.2727 47 72.2727 47H76V50Z"/>
</mask>
<path d="M76 50H70C70 50 70.0543 48.6065 70.5455 47.9677C71.0283 47.3398 72.2727 47 72.2727 47H76V50Z" fill="#999999"/>
<path d="M70 50L68.0015 49.9221L67.9205 52H70V50ZM76 50V52H78V50H76ZM76 47H78C78 45.8954 77.1046 45 76 45V47ZM72.2727 47V45C72.0947 45 71.9176 45.0238 71.7459 45.0706L72.2727 47ZM70.5455 47.9677L72.1309 49.1869L72.1309 49.1869L70.5455 47.9677ZM70 50V52H76V50V48H70V50ZM76 50H78V47H76H74V50H76ZM76 47V45H72.2727V47V49H76V47ZM72.2727 47C71.7459 45.0706 71.7455 45.0707 71.7451 45.0708C71.745 45.0709 71.7446 45.071 71.7444 45.071C71.7439 45.0712 71.7434 45.0713 71.7428 45.0715C71.7417 45.0718 71.7405 45.0721 71.7393 45.0724C71.7368 45.0731 71.734 45.0739 71.7308 45.0748C71.7246 45.0766 71.717 45.0787 71.7083 45.0812C71.6909 45.0861 71.6687 45.0926 71.6422 45.1006C71.5894 45.1165 71.5187 45.1385 71.4346 45.1668C71.2685 45.2225 71.039 45.3058 70.7847 45.4178C70.3648 45.6025 69.5278 46.0102 68.96 46.7486L70.5455 47.9677L72.1309 49.1869C72.0645 49.2733 72.0325 49.2783 72.1102 49.2277C72.177 49.1843 72.2746 49.1323 72.3956 49.079C72.5127 49.0275 72.6245 48.9867 72.7069 48.9591C72.7469 48.9456 72.7773 48.9362 72.7944 48.9311C72.8029 48.9285 72.8079 48.9271 72.8089 48.9268C72.8095 48.9266 72.809 48.9268 72.8075 48.9272C72.8067 48.9274 72.8057 48.9277 72.8044 48.928C72.8037 48.9282 72.803 48.9284 72.8022 48.9286C72.8018 48.9288 72.8014 48.9289 72.8009 48.929C72.8007 48.929 72.8004 48.9291 72.8003 48.9292C72.7999 48.9293 72.7996 48.9294 72.2727 47ZM70.5455 47.9677L68.96 46.7486C68.3947 47.4838 68.1989 48.4195 68.1185 48.8785C68.0692 49.1602 68.0407 49.4111 68.0244 49.5915C68.0161 49.6827 68.0106 49.7587 68.0071 49.8149C68.0054 49.843 68.0041 49.8664 68.0032 49.8844C68.0028 49.8934 68.0024 49.9011 68.0021 49.9074C68.002 49.9106 68.0019 49.9134 68.0018 49.9158C68.0017 49.917 68.0017 49.9182 68.0016 49.9192C68.0016 49.9197 68.0016 49.9203 68.0016 49.9207C68.0016 49.921 68.0015 49.9213 68.0015 49.9214C68.0015 49.9218 68.0015 49.9221 70 50C71.9985 50.0779 71.9985 50.0782 71.9985 50.0785C71.9985 50.0786 71.9984 50.0789 71.9984 50.0791C71.9984 50.0795 71.9984 50.0799 71.9984 50.0803C71.9984 50.081 71.9983 50.0816 71.9983 50.0822C71.9983 50.0833 71.9982 50.0841 71.9982 50.0846C71.9982 50.0856 71.9982 50.0853 71.9982 50.084C71.9984 50.0813 71.9987 50.0741 71.9994 50.0629C72.0008 50.0403 72.0035 50.0025 72.008 49.9531C72.0171 49.8522 72.0329 49.7148 72.0586 49.5683C72.085 49.4173 72.1165 49.2879 72.1487 49.1924C72.1861 49.081 72.1952 49.1033 72.1309 49.1869L70.5455 47.9677Z" fill="black" mask="url(#path-16-outside-3_275_181)"/>
<mask id="path-18-outside-4_275_181" maskUnits="userSpaceOnUse" x="49" y="69" width="20" height="13" fill="black">
<rect fill="white" x="49" y="69" width="20" height="13"/>
<path d="M59.1526 77.1364H52.789L52 79.6786H60.7305L65.289 71H62.4838L59.1526 77.1364Z"/>
</mask>
<path d="M59.1526 77.1364H52.789L52 79.6786H60.7305L65.289 71H62.4838L59.1526 77.1364Z" fill="#737373"/>
<path d="M52.789 77.1364V75.1364H51.3156L50.8788 76.5436L52.789 77.1364ZM59.1526 77.1364V79.1364C59.8859 79.1364 60.5604 78.735 60.9103 78.0905L59.1526 77.1364ZM62.4838 71V69C61.7504 69 61.0759 69.4013 60.7261 70.0458L62.4838 71ZM65.289 71L67.0596 71.93L68.5986 69H65.289V71ZM60.7305 79.6786V81.6786C61.4737 81.6786 62.1556 81.2665 62.5011 80.6086L60.7305 79.6786ZM52 79.6786L50.0899 79.0858L49.2852 81.6786H52V79.6786ZM52.789 77.1364V79.1364H59.1526V77.1364V75.1364H52.789V77.1364ZM59.1526 77.1364L60.9103 78.0905L64.2415 71.9542L62.4838 71L60.7261 70.0458L57.3949 76.1822L59.1526 77.1364ZM62.4838 71V73H65.289V71V69H62.4838V71ZM65.289 71L63.5183 70.07L58.9599 78.7486L60.7305 79.6786L62.5011 80.6086L67.0596 71.93L65.289 71ZM60.7305 79.6786V77.6786H52V79.6786V81.6786H60.7305V79.6786ZM52 79.6786L53.9101 80.2714L54.6991 77.7292L52.789 77.1364L50.8788 76.5436L50.0899 79.0858L52 79.6786Z" fill="black" mask="url(#path-18-outside-4_275_181)"/>
<circle cx="40.328" cy="85.8473" r="2.49026" fill="#D9D9D9" stroke="black" stroke-width="2"/>
<defs>
<filter id="filter0_i_275_181" x="27.4509" y="47.2727" width="58.7277" height="51.0965" filterUnits="userSpaceOnUse" color-interpolation-filters="sRGB">
<feFlood flood-opacity="0" result="BackgroundImageFix"/>
<feBlend mode="normal" in="SourceGraphic" in2="BackgroundImageFix" result="shape"/>
<feColorMatrix in="SourceAlpha" type="matrix" values="0 0 0 0 0 0 0 0 0 0 0 0 0 0 0 0 0 0 127 0" result="hardAlpha"/>
<feOffset dx="3.85714" dy="-0.525974"/>
<feComposite in2="hardAlpha" operator="arithmetic" k2="-1" k3="1"/>
<feColorMatrix type="matrix" values="0 0 0 0 0 0 0 0 0 0 0 0 0 0 0 0 0 0 0.25 0"/>
<feBlend mode="normal" in2="shape" result="effect1_innerShadow_275_181"/>
</filter>
<filter id="filter1_i_275_181" x="81.7207" y="51.4998" width="18.552" height="17.5002" filterUnits="userSpaceOnUse" color-interpolation-filters="sRGB">
<feFlood flood-opacity="0" result="BackgroundImageFix"/>
<feBlend mode="normal" in="SourceGraphic" in2="BackgroundImageFix" result="shape"/>
<feColorMatrix in="SourceAlpha" type="matrix" values="0 0 0 0 0 0 0 0 0 0 0 0 0 0 0 0 0 0 127 0" result="hardAlpha"/>
<feOffset dx="-0.525974" dy="0.701299"/>
<feGaussianBlur stdDeviation="0.0876623"/>
<feComposite in2="hardAlpha" operator="arithmetic" k2="-1" k3="1"/>
<feColorMatrix type="matrix" values="0 0 0 0 0.875 0 0 0 0 0 0 0 0 0 0 0 0 0 0.25 0"/>
<feBlend mode="normal" in2="shape" result="effect1_innerShadow_275_181"/>
</filter>
<filter id="filter2_i_275_181" x="30.4512" y="50.2727" width="52.7274" height="45.0956" filterUnits="userSpaceOnUse" color-interpolation-filters="sRGB">
<feFlood flood-opacity="0" result="BackgroundImageFix"/>
<feBlend mode="normal" in="SourceGraphic" in2="BackgroundImageFix" result="shape"/>
<feColorMatrix in="SourceAlpha" type="matrix" values="0 0 0 0 0 0 0 0 0 0 0 0 0 0 0 0 0 0 127 0" result="hardAlpha"/>
<feOffset dx="3.85714" dy="-0.525974"/>
<feComposite in2="hardAlpha" operator="arithmetic" k2="-1" k3="1"/>
<feColorMatrix type="matrix" values="0 0 0 0 0 0 0 0 0 0 0 0 0 0 0 0 0 0 0.25 0"/>
<feBlend mode="normal" in2="shape" result="effect1_innerShadow_275_181"/>
</filter>
</defs>
</svg>
