<svg width="128" height="128" viewBox="0 0 128 128" fill="none" xmlns="http://www.w3.org/2000/svg">
<circle cx="64" cy="64" r="64" fill="#3C4043"/>
<mask id="path-2-outside-1_228_347" maskUnits="userSpaceOnUse" x="28" y="17" width="73" height="93" fill="black">
<rect fill="white" x="28" y="17" width="73" height="93"/>
<path d="M49.0341 43.9505C49.0341 43.761 49.1876 43.6075 49.3771 43.6075H78.3585C78.5479 43.6075 78.7014 43.761 78.7014 43.9505V48.5806C78.7014 48.7701 78.5479 48.9236 78.3585 48.9236H49.3771C49.1876 48.9236 49.0341 48.7701 49.0341 48.5806V43.9505Z"/>
<path d="M58.2087 105H34.8864C33.8446 105 33 104.155 33 103.114V87.3331C33 81.334 37.6154 76.3446 43.5964 75.8782L51.3183 75.2761C51.5513 75.2579 51.7775 75.3596 51.9185 75.5459L60.6079 87.0224C60.7186 87.1687 60.7662 87.3533 60.7399 87.5349L58.2087 105Z"/>
<path d="M56.2061 80.7477L52.4899 75.2679C52.1303 74.7377 52.3705 74.0106 52.9753 73.7989C53.2967 73.6864 53.6534 73.7496 53.9167 73.9655L61.124 79.8771L57.8728 81.2426C57.2703 81.4956 56.5729 81.2886 56.2061 80.7477Z"/>
<path d="M57.3395 72.7314L57.0387 73.3878C56.7705 73.9729 56.9452 74.6657 57.4586 75.0538L63.1493 79.3549C63.6278 79.7166 64.2858 79.7255 64.7739 79.3768L70.8346 75.0478C71.3696 74.6656 71.5583 73.9575 71.2843 73.3598L70.9963 72.7314C70.8771 72.4714 70.8422 72.1806 70.8964 71.8998L71.4413 69.0761C71.6047 68.2297 70.9562 67.4442 70.0943 67.4442H58.2416C57.3796 67.4442 56.7312 68.2297 56.8945 69.0761L57.4394 71.8998C57.4936 72.1806 57.4587 72.4714 57.3395 72.7314Z"/>
<path d="M52.8925 49.1552V42.6641C52.8925 41.9064 53.5068 41.2922 54.2644 41.2922H73.4711C74.2287 41.2922 74.8429 41.9064 74.8429 42.6641V49.1552C74.8429 50.0689 75.7193 50.7273 76.5968 50.4729L79.0054 49.7747C79.883 49.5204 80.7593 50.1788 80.7593 51.0924V53.119C80.7593 53.7315 80.3532 54.2698 79.7643 54.4381L78.153 54.8984C77.5641 55.0667 77.155 55.5997 77.0967 56.2094C76.7897 59.4226 74.9455 69.0732 63.8677 69.0732C52.79 69.0732 50.9458 59.4226 50.6388 56.2094C50.5805 55.5997 50.1714 55.0667 49.5824 54.8984L47.9712 54.4381C47.3823 54.2698 46.9762 53.7315 46.9762 53.119V51.0924C46.9762 50.1788 47.8525 49.5204 48.7301 49.7747L51.1387 50.4729C52.0162 50.7273 52.8925 50.0689 52.8925 49.1552Z"/>
<path d="M81.4452 38.8057C81.4452 42.4046 73.8059 45.3222 64.3822 45.3222C54.9586 45.3222 47.3192 42.4046 47.3192 38.8057C47.3192 35.2067 54.9586 32.2891 64.3822 32.2891C73.8059 32.2891 81.4452 35.2067 81.4452 38.8057Z"/>
<path d="M84.875 34.2614C84.875 40.086 75.5081 38.2913 63.9535 38.2913C52.3989 38.2913 43.032 40.086 43.032 34.2614C43.032 28.4367 52.3989 22 63.9535 22C75.5081 22 84.875 28.4367 84.875 34.2614Z"/>
<path d="M35.0798 82.6745C34.5468 82.1359 34.5513 81.2673 35.0898 80.7343L37.8397 78.0126C38.3782 77.4796 39.2469 77.4841 39.7799 78.0226L40.383 78.632C40.916 79.1705 40.9115 80.0391 40.373 80.5721L37.6231 83.2939C37.0846 83.8269 36.2159 83.8224 35.6829 83.2839L35.0798 82.6745Z"/>
<path d="M46.6332 95.911C46.6332 95.5322 46.9404 95.2251 47.3192 95.2251H52.5602C52.9391 95.2251 53.2462 95.5322 53.2462 95.911V98.1404C53.2462 98.5192 52.9391 98.8263 52.5602 98.8263H47.3192C46.9404 98.8263 46.6332 98.5192 46.6332 98.1404V95.911Z"/>
<path d="M63.9535 82.8781L61.5527 84.0785L62.4102 85.5361H65.4969L66.3544 84.0785L63.9535 82.8781Z"/>
<path d="M63.1818 88.1942L61.0382 105H67.0403L64.9824 88.1942H63.1818Z"/>
<path d="M69.9556 105H93.2779C94.3197 105 95.1642 104.155 95.1642 103.114V87.3331C95.1642 81.334 90.5488 76.3446 84.5678 75.8782L76.8459 75.2761C76.613 75.2579 76.3868 75.3596 76.2457 75.5459L67.5563 87.0224C67.4456 87.1687 67.3981 87.3533 67.4244 87.5349L69.9556 105Z"/>
<path d="M71.9581 80.7477L75.6743 75.2679C76.0339 74.7377 75.7937 74.0106 75.1889 73.7989C74.8676 73.6864 74.5108 73.7496 74.2475 73.9655L67.0403 79.8771L70.2914 81.2426C70.894 81.4956 71.5913 81.2886 71.9581 80.7477Z"/>
<path d="M93.0846 82.6745C93.6176 82.1359 93.6131 81.2673 93.0746 80.7343L90.3246 78.0126C89.7861 77.4796 88.9175 77.4841 88.3845 78.0226L87.7813 78.632C87.2483 79.1705 87.2528 80.0391 87.7913 80.5721L90.5413 83.2939C91.0798 83.8269 91.9484 83.8224 92.4814 83.2839L93.0846 82.6745Z"/>
<path d="M81.531 95.911C81.531 95.5322 81.2239 95.2251 80.845 95.2251H75.604C75.2252 95.2251 74.9181 95.5322 74.9181 95.911V98.1404C74.9181 98.5192 75.2252 98.8263 75.604 98.8263H80.845C81.2239 98.8263 81.531 98.5192 81.531 98.1404V95.911Z"/>
</mask>
<path d="M49.0341 43.9505C49.0341 43.761 49.1876 43.6075 49.3771 43.6075H78.3585C78.5479 43.6075 78.7014 43.761 78.7014 43.9505V48.5806C78.7014 48.7701 78.5479 48.9236 78.3585 48.9236H49.3771C49.1876 48.9236 49.0341 48.7701 49.0341 48.5806V43.9505Z" fill="#F29900"/>
<path d="M58.2087 105H34.8864C33.8446 105 33 104.155 33 103.114V87.3331C33 81.334 37.6154 76.3446 43.5964 75.8782L51.3183 75.2761C51.5513 75.2579 51.7775 75.3596 51.9185 75.5459L60.6079 87.0224C60.7186 87.1687 60.7662 87.3533 60.7399 87.5349L58.2087 105Z" fill="#2D5872"/>
<path d="M56.2061 80.7477L52.4899 75.2679C52.1303 74.7377 52.3705 74.0106 52.9753 73.7989C53.2967 73.6864 53.6534 73.7496 53.9167 73.9655L61.124 79.8771L57.8728 81.2426C57.2703 81.4956 56.5729 81.2886 56.2061 80.7477Z" fill="#1D4559"/>
<path d="M57.3395 72.7314L57.0387 73.3878C56.7705 73.9729 56.9452 74.6657 57.4586 75.0538L63.1493 79.3549C63.6278 79.7166 64.2858 79.7255 64.7739 79.3768L70.8346 75.0478C71.3696 74.6656 71.5583 73.9575 71.2843 73.3598L70.9963 72.7314C70.8771 72.4714 70.8422 72.1806 70.8964 71.8998L71.4413 69.0761C71.6047 68.2297 70.9562 67.4442 70.0943 67.4442H58.2416C57.3796 67.4442 56.7312 68.2297 56.8945 69.0761L57.4394 71.8998C57.4936 72.1806 57.4587 72.4714 57.3395 72.7314Z" fill="#FFE7CF"/>
<path d="M52.8925 49.1552V42.6641C52.8925 41.9064 53.5068 41.2922 54.2644 41.2922H73.4711C74.2287 41.2922 74.8429 41.9064 74.8429 42.6641V49.1552C74.8429 50.0689 75.7193 50.7273 76.5968 50.4729L79.0054 49.7747C79.883 49.5204 80.7593 50.1788 80.7593 51.0924V53.119C80.7593 53.7315 80.3532 54.2698 79.7643 54.4381L78.153 54.8984C77.5641 55.0667 77.155 55.5997 77.0967 56.2094C76.7897 59.4226 74.9455 69.0732 63.8677 69.0732C52.79 69.0732 50.9458 59.4226 50.6388 56.2094C50.5805 55.5997 50.1714 55.0667 49.5824 54.8984L47.9712 54.4381C47.3823 54.2698 46.9762 53.7315 46.9762 53.119V51.0924C46.9762 50.1788 47.8525 49.5204 48.7301 49.7747L51.1387 50.4729C52.0162 50.7273 52.8925 50.0689 52.8925 49.1552Z" fill="#FFE7CF"/>
<path d="M81.4452 38.8057C81.4452 42.4046 73.8059 45.3222 64.3822 45.3222C54.9586 45.3222 47.3192 42.4046 47.3192 38.8057C47.3192 35.2067 54.9586 32.2891 64.3822 32.2891C73.8059 32.2891 81.4452 35.2067 81.4452 38.8057Z" fill="#183C53"/>
<path d="M84.875 34.2614C84.875 40.086 75.5081 38.2913 63.9535 38.2913C52.3989 38.2913 43.032 40.086 43.032 34.2614C43.032 28.4367 52.3989 22 63.9535 22C75.5081 22 84.875 28.4367 84.875 34.2614Z" fill="#2D5872"/>
<path d="M35.0798 82.6745C34.5468 82.1359 34.5513 81.2673 35.0898 80.7343L37.8397 78.0126C38.3782 77.4796 39.2469 77.4841 39.7799 78.0226L40.383 78.632C40.916 79.1705 40.9115 80.0391 40.373 80.5721L37.6231 83.2939C37.0846 83.8269 36.2159 83.8224 35.6829 83.2839L35.0798 82.6745Z" fill="#FFBF14"/>
<path d="M46.6332 95.911C46.6332 95.5322 46.9404 95.2251 47.3192 95.2251H52.5602C52.9391 95.2251 53.2462 95.5322 53.2462 95.911V98.1404C53.2462 98.5192 52.9391 98.8263 52.5602 98.8263H47.3192C46.9404 98.8263 46.6332 98.5192 46.6332 98.1404V95.911Z" fill="#1D4559"/>
<path d="M63.9535 82.8781L61.5527 84.0785L62.4102 85.5361H65.4969L66.3544 84.0785L63.9535 82.8781Z" fill="#282C3A"/>
<path d="M63.1818 88.1942L61.0382 105H67.0403L64.9824 88.1942H63.1818Z" fill="#282C3A"/>
<path d="M69.9556 105H93.2779C94.3197 105 95.1642 104.155 95.1642 103.114V87.3331C95.1642 81.334 90.5488 76.3446 84.5678 75.8782L76.8459 75.2761C76.613 75.2579 76.3868 75.3596 76.2457 75.5459L67.5563 87.0224C67.4456 87.1687 67.3981 87.3533 67.4244 87.5349L69.9556 105Z" fill="#2D5872"/>
<path d="M71.9581 80.7477L75.6743 75.2679C76.0339 74.7377 75.7937 74.0106 75.1889 73.7989C74.8676 73.6864 74.5108 73.7496 74.2475 73.9655L67.0403 79.8771L70.2914 81.2426C70.894 81.4956 71.5913 81.2886 71.9581 80.7477Z" fill="#1D4559"/>
<path d="M93.0846 82.6745C93.6176 82.1359 93.6131 81.2673 93.0746 80.7343L90.3246 78.0126C89.7861 77.4796 88.9175 77.4841 88.3845 78.0226L87.7813 78.632C87.2483 79.1705 87.2528 80.0391 87.7913 80.5721L90.5413 83.2939C91.0798 83.8269 91.9484 83.8224 92.4814 83.2839L93.0846 82.6745Z" fill="#FFBF14"/>
<path d="M81.531 95.911C81.531 95.5322 81.2239 95.2251 80.845 95.2251H75.604C75.2252 95.2251 74.9181 95.5322 74.9181 95.911V98.1404C74.9181 98.5192 75.2252 98.8263 75.604 98.8263H80.845C81.2239 98.8263 81.531 98.5192 81.531 98.1404V95.911Z" fill="#1D4559"/>
<path d="M58.2087 105V110H62.5363L63.157 105.717L58.2087 105ZM60.7399 87.5349L65.6882 88.252V88.252L60.7399 87.5349ZM60.6079 87.0224L64.5942 84.0042L64.5942 84.0042L60.6079 87.0224ZM51.9185 75.5459L55.9048 72.5277H55.9048L51.9185 75.5459ZM51.3183 75.2761L50.9296 70.2912L51.3183 75.2761ZM43.5964 75.8782L43.9851 80.8631H43.9851L43.5964 75.8782ZM52.4899 75.2679L56.6281 72.4616L52.4899 75.2679ZM56.2061 80.7477L60.3443 77.9414L56.2061 80.7477ZM57.8728 81.2426L55.9366 76.6327L57.8728 81.2426ZM61.124 79.8771L63.0601 84.487L70.7108 81.2737L64.2949 76.0112L61.124 79.8771ZM53.9167 73.9655L57.0876 70.0996L53.9167 73.9655ZM52.9753 73.7989L54.627 78.5182L52.9753 73.7989ZM57.0387 73.3878L61.584 75.471L61.584 75.471L57.0387 73.3878ZM57.3395 72.7314L52.7942 70.6481L52.7942 70.6481L57.3395 72.7314ZM57.4394 71.8998L62.3489 70.9524L57.4394 71.8998ZM56.8945 69.0761L51.9851 70.0235V70.0235L56.8945 69.0761ZM71.2843 73.3598L75.8297 71.2765L75.8297 71.2765L71.2843 73.3598ZM70.9963 72.7314L75.5416 70.6481L70.9963 72.7314ZM70.8964 71.8998L75.8058 72.8472L70.8964 71.8998ZM71.4413 69.0761L66.5319 68.1286L71.4413 69.0761ZM57.4586 75.0538L54.4438 79.0427H54.4438L57.4586 75.0538ZM63.1493 79.3549L66.1641 75.3661V75.3661L63.1493 79.3549ZM64.7739 79.3768L67.6801 83.4455L64.7739 79.3768ZM70.8346 75.0478L73.7408 79.1164H73.7408L70.8346 75.0478ZM51.1387 50.4729L49.7467 55.2752L51.1387 50.4729ZM48.7301 49.7747L50.122 44.9724H50.122L48.7301 49.7747ZM47.9712 54.4381L46.5976 59.2457H46.5976L47.9712 54.4381ZM49.5824 54.8984L50.9561 50.0908L50.956 50.0908L49.5824 54.8984ZM50.6388 56.2094L55.6161 55.7339V55.7338L50.6388 56.2094ZM76.5968 50.4729L75.2048 45.6706L76.5968 50.4729ZM79.0054 49.7747L80.3974 54.5771L79.0054 49.7747ZM79.7643 54.4381L81.1379 59.2457H81.1379L79.7643 54.4381ZM78.153 54.8984L76.7794 50.0908L76.7794 50.0908L78.153 54.8984ZM77.0967 56.2094L72.1194 55.7338L77.0967 56.2094ZM37.6231 83.2939L34.1058 79.7402L34.1058 79.7402L37.6231 83.2939ZM35.6829 83.2839L32.1292 86.8011L32.1292 86.8011L35.6829 83.2839ZM40.383 78.632L43.9367 75.1147L43.9367 75.1147L40.383 78.632ZM40.373 80.5721L43.8903 84.1259L43.8903 84.1259L40.373 80.5721ZM37.8397 78.0126L34.3225 74.4589H34.3225L37.8397 78.0126ZM39.7799 78.0226L36.2261 81.5398L36.2262 81.5398L39.7799 78.0226ZM35.0898 80.7343L38.607 84.288H38.607L35.0898 80.7343ZM35.0798 82.6745L38.6335 79.1572L38.6335 79.1572L35.0798 82.6745ZM61.5527 84.0785L59.3167 79.6064C58.0777 80.2258 57.1513 81.3315 56.7582 82.6597C56.3652 83.9879 56.5407 85.4197 57.243 86.6136L61.5527 84.0785ZM63.9535 82.8781L66.1896 78.406C64.782 77.7021 63.1251 77.7021 61.7175 78.406L63.9535 82.8781ZM62.4102 85.5361L58.1005 88.0712C58.9988 89.5984 60.6383 90.5361 62.4102 90.5361V85.5361ZM66.3544 84.0785L70.664 86.6136C71.3663 85.4197 71.5419 83.9879 71.1488 82.6597C70.7558 81.3315 69.8294 80.2258 68.5904 79.6064L66.3544 84.0785ZM65.4969 85.5361V90.5361C67.2688 90.5361 68.9083 89.5984 69.8066 88.0712L65.4969 85.5361ZM61.0382 105L56.0784 104.367L55.3599 110H61.0382V105ZM63.1818 88.1942V83.1942H58.779L58.222 87.5616L63.1818 88.1942ZM64.9824 88.1942L69.9453 87.5865L69.4075 83.1942H64.9824V88.1942ZM67.0403 105V110H72.6899L72.0032 104.392L67.0403 105ZM69.9556 105L65.0072 105.717L65.628 110H69.9556V105ZM67.4244 87.5349L62.4761 88.252L62.4761 88.252L67.4244 87.5349ZM67.5563 87.0224L63.5701 84.0042L63.57 84.0042L67.5563 87.0224ZM76.2457 75.5459L72.2594 72.5277L76.2457 75.5459ZM76.8459 75.2761L77.2347 70.2912L76.8459 75.2761ZM84.5678 75.8782L84.1791 80.8631L84.5678 75.8782ZM75.6743 75.2679L71.5361 72.4616L75.6743 75.2679ZM71.9581 80.7477L76.0963 83.5541L71.9581 80.7477ZM70.2914 81.2426L72.2276 76.6327H72.2276L70.2914 81.2426ZM67.0403 79.8771L63.8693 76.0112L57.4534 81.2737L65.1041 84.487L67.0403 79.8771ZM74.2475 73.9655L71.0766 70.0996L74.2475 73.9655ZM75.1889 73.7989L73.5372 78.5182L75.1889 73.7989ZM90.5413 83.2939L94.0585 79.7402V79.7402L90.5413 83.2939ZM92.4814 83.2839L96.0351 86.8011L92.4814 83.2839ZM87.7813 78.632L84.2276 75.1147L84.2276 75.1147L87.7813 78.632ZM87.7913 80.5721L84.2741 84.1259V84.1259L87.7913 80.5721ZM90.3246 78.0126L93.8419 74.4589L90.3246 78.0126ZM88.3845 78.0226L91.9382 81.5399L91.9382 81.5398L88.3845 78.0226ZM93.0746 80.7343L89.5573 84.288L93.0746 80.7343ZM93.0846 82.6745L89.5308 79.1572L93.0846 82.6745ZM49.3771 48.6075H78.3585V38.6075H49.3771V48.6075ZM73.7014 43.9505V48.5806H83.7014V43.9505H73.7014ZM78.3585 43.9236H49.3771V53.9236H78.3585V43.9236ZM54.0341 48.5806V43.9505H44.0341V48.5806H54.0341ZM49.3771 43.9236C51.9491 43.9236 54.0341 46.0086 54.0341 48.5806H44.0341C44.0341 51.5315 46.4262 53.9236 49.3771 53.9236V43.9236ZM73.7014 48.5806C73.7014 46.0087 75.7864 43.9236 78.3585 43.9236V53.9236C81.3094 53.9236 83.7014 51.5314 83.7014 48.5806H73.7014ZM78.3585 48.6075C75.7864 48.6075 73.7014 46.5224 73.7014 43.9505H83.7014C83.7014 40.9997 81.3094 38.6075 78.3585 38.6075V48.6075ZM49.3771 38.6075C46.4262 38.6075 44.0341 40.9996 44.0341 43.9505H54.0341C54.0341 46.5225 51.9491 48.6075 49.3771 48.6075V38.6075ZM34.8864 110H58.2087V100H34.8864V110ZM63.157 105.717L65.6882 88.252L55.7916 86.8177L53.2604 104.283L63.157 105.717ZM64.5942 84.0042L55.9048 72.5277L47.9322 78.5641L56.6216 90.0406L64.5942 84.0042ZM50.9296 70.2912L43.2077 70.8934L43.9851 80.8631L51.707 80.2609L50.9296 70.2912ZM28 87.3331V103.114H38V87.3331H28ZM43.2077 70.8934C34.6239 71.5627 28 78.7233 28 87.3331H38C38 83.9447 40.6069 81.1265 43.9851 80.8631L43.2077 70.8934ZM55.9048 72.5277C54.7356 70.9835 52.8607 70.1406 50.9296 70.2912L51.707 80.2609C50.2418 80.3752 48.8193 79.7357 47.9322 78.5641L55.9048 72.5277ZM65.6882 88.252C65.9063 86.7468 65.5123 85.2169 64.5942 84.0042L56.6216 90.0406C55.925 89.1205 55.626 87.9598 55.7916 86.8177L65.6882 88.252ZM34.8864 100C36.606 100 38 101.394 38 103.114H28C28 106.917 31.0831 110 34.8864 110V100ZM48.3518 78.0743L52.0679 83.5541L60.3443 77.9414L56.6281 72.4616L48.3518 78.0743ZM59.809 85.8525L63.0601 84.487L59.1878 75.2672L55.9366 76.6327L59.809 85.8525ZM64.2949 76.0112L57.0876 70.0996L50.7458 77.8314L57.9531 83.743L64.2949 76.0112ZM57.0876 70.0996C55.4757 68.7774 53.2913 68.3909 51.3235 69.0796L54.627 78.5182C53.3021 78.9819 51.8312 78.7217 50.7458 77.8314L57.0876 70.0996ZM52.0679 83.5541C53.7715 86.0661 57.0105 87.0278 59.809 85.8525L55.9366 76.6327C57.53 75.9635 59.3743 76.511 60.3443 77.9414L52.0679 83.5541ZM56.6281 72.4616C58.1108 74.6479 57.1203 77.6455 54.627 78.5182L51.3235 69.0796C47.6207 70.3756 46.1499 74.8274 48.3518 78.0743L56.6281 72.4616ZM61.584 75.471L61.8849 74.8146L52.7942 70.6481L52.4934 71.3045L61.584 75.471ZM62.3489 70.9524L61.8039 68.1286L51.9851 70.0235L52.53 72.8472L62.3489 70.9524ZM75.8297 71.2765L75.5416 70.6481L66.451 74.8146L66.739 75.4431L75.8297 71.2765ZM75.8058 72.8472L76.3507 70.0235L66.5319 68.1286L65.987 70.9524L75.8058 72.8472ZM75.5416 70.6481C75.8568 71.3357 75.9491 72.1046 75.8058 72.8472L65.987 70.9524C65.7353 72.2567 65.8975 73.607 66.451 74.8146L75.5416 70.6481ZM54.4438 79.0427L60.1345 83.3438L66.1641 75.3661L60.4735 71.065L54.4438 79.0427ZM67.6801 83.4455L73.7408 79.1164L67.9284 70.9791L61.8677 75.3082L67.6801 83.4455ZM58.2416 72.4442H70.0943V62.4442H58.2416V72.4442ZM60.1345 83.3438C62.357 85.0236 65.4131 85.0648 67.6801 83.4455L61.8677 75.3082C63.1585 74.3862 64.8987 74.4096 66.1641 75.3661L60.1345 83.3438ZM66.739 75.4431C66.0145 73.8623 66.5134 71.9898 67.9284 70.9791L73.7408 79.1164C76.2259 77.3414 77.1021 74.0527 75.8297 71.2765L66.739 75.4431ZM61.8039 68.1286C62.2359 70.3668 60.5211 72.4442 58.2416 72.4442V62.4442C54.2381 62.4442 51.2265 66.0926 51.9851 70.0235L61.8039 68.1286ZM76.3507 70.0235C77.1093 66.0926 74.0977 62.4442 70.0943 62.4442V72.4442C67.8148 72.4442 66.1 70.3668 66.5319 68.1286L76.3507 70.0235ZM61.8849 74.8146C62.4383 73.6071 62.6006 72.2567 62.3489 70.9524L52.53 72.8472C52.3867 72.1045 52.4791 71.3357 52.7942 70.6481L61.8849 74.8146ZM52.4934 71.3045C51.2478 74.0221 52.059 77.2402 54.4438 79.0427L60.4735 71.065C61.8314 72.0913 62.2932 73.9237 61.584 75.471L52.4934 71.3045ZM47.8925 42.6641V49.1552H57.8925V42.6641H47.8925ZM52.5307 45.6706L50.122 44.9724L47.3381 54.5771L49.7467 55.2752L52.5307 45.6706ZM41.9762 51.0924V53.119H51.9762V51.0924H41.9762ZM46.5976 59.2457L48.2088 59.706L50.956 50.0908L49.3448 49.6305L46.5976 59.2457ZM45.6614 56.685C45.8473 58.6297 46.5027 62.809 49.0594 66.6279C51.818 70.7484 56.5664 74.0732 63.8677 74.0732V64.0732C60.0913 64.0732 58.3787 62.5728 57.369 61.0646C56.1574 59.2549 55.7373 57.0023 55.6161 55.7339L45.6614 56.685ZM69.8429 42.6641V49.1552H79.8429V42.6641H69.8429ZM77.9888 55.2752L80.3974 54.5771L77.6135 44.9724L75.2048 45.6706L77.9888 55.2752ZM75.7593 51.0924V53.119H85.7593V51.0924H75.7593ZM78.3907 49.6305L76.7794 50.0908L79.5266 59.706L81.1379 59.2457L78.3907 49.6305ZM72.1194 55.7338C71.9982 57.0023 71.5781 59.2549 70.3664 61.0646C69.3568 62.5728 67.6442 64.0732 63.8677 64.0732V74.0732C71.1691 74.0732 75.9175 70.7484 78.6761 66.6279C81.2328 62.809 81.8882 58.6297 82.0741 56.685L72.1194 55.7338ZM54.2644 46.2922H73.4711V36.2922H54.2644V46.2922ZM76.7794 50.0908C74.0418 50.873 72.3559 53.2588 72.1194 55.7338L82.0741 56.685C81.9541 57.9405 81.0864 59.2604 79.5266 59.706L76.7794 50.0908ZM75.7593 53.119C75.7593 51.4991 76.8331 50.0755 78.3907 49.6305L81.1379 59.2457C83.8733 58.4641 85.7593 55.9639 85.7593 53.119H75.7593ZM80.3974 54.5771C78.0767 55.2497 75.7593 53.5086 75.7593 51.0924H85.7593C85.7593 46.8489 81.6892 43.791 77.6135 44.9724L80.3974 54.5771ZM69.8429 49.1552C69.8429 53.3988 73.913 56.4566 77.9888 55.2752L75.2048 45.6706C77.5255 44.9979 79.8429 46.739 79.8429 49.1552H69.8429ZM79.8429 42.6641C79.8429 39.145 76.9902 36.2922 73.4711 36.2922V46.2922C71.4673 46.2922 69.8429 44.6679 69.8429 42.6641H79.8429ZM48.2088 59.706C46.6491 59.2604 45.7814 57.9405 45.6614 56.685L55.6161 55.7338C55.3796 53.2588 53.6937 50.873 50.9561 50.0908L48.2088 59.706ZM41.9762 53.119C41.9762 55.9639 43.8621 58.4641 46.5976 59.2457L49.3448 49.6305C50.9024 50.0755 51.9762 51.4991 51.9762 53.119H41.9762ZM50.122 44.9724C46.0463 43.791 41.9762 46.8489 41.9762 51.0924H51.9762C51.9762 53.5086 49.6588 55.2497 47.3381 54.5771L50.122 44.9724ZM47.8925 49.1552C47.8925 46.739 50.21 44.9979 52.5307 45.6706L49.7467 55.2752C53.8225 56.4566 57.8925 53.3988 57.8925 49.1552H47.8925ZM57.8925 42.6641C57.8925 44.6679 56.2682 46.2922 54.2644 46.2922V36.2922C50.7453 36.2922 47.8925 39.145 47.8925 42.6641H57.8925ZM76.4452 38.8057C76.4452 37.7982 76.9988 37.4097 76.7535 37.6311C76.5087 37.8522 75.8738 38.2805 74.6637 38.7426C72.2779 39.6537 68.6443 40.3222 64.3822 40.3222V50.3222C69.5438 50.3222 74.4416 49.5319 78.2315 48.0845C80.1092 47.3674 81.9731 46.3915 83.4552 45.0532C84.9368 43.7154 86.4452 41.6126 86.4452 38.8057H76.4452ZM64.3822 40.3222C60.1201 40.3222 56.4865 39.6537 54.1007 38.7426C52.8907 38.2805 52.2557 37.8522 52.0109 37.6311C51.7657 37.4097 52.3192 37.7982 52.3192 38.8057H42.3192C42.3192 41.6126 43.8277 43.7154 45.3093 45.0532C46.7913 46.3915 48.6552 47.3674 50.533 48.0845C54.3228 49.5319 59.2206 50.3222 64.3822 50.3222V40.3222ZM52.3192 38.8057C52.3192 39.8131 51.7657 40.2016 52.0109 39.9802C52.2557 39.7591 52.8907 39.3309 54.1007 38.8687C56.4865 37.9576 60.1201 37.2891 64.3822 37.2891V27.2891C59.2206 27.2891 54.3228 28.0795 50.533 29.5268C48.6552 30.244 46.7913 31.2199 45.3093 32.5581C43.8277 33.8959 42.3192 35.9987 42.3192 38.8057H52.3192ZM64.3822 37.2891C68.6443 37.2891 72.2779 37.9576 74.6637 38.8687C75.8738 39.3309 76.5087 39.7591 76.7535 39.9802C76.9988 40.2016 76.4452 39.8131 76.4452 38.8057H86.4452C86.4452 35.9987 84.9368 33.8959 83.4552 32.5581C81.9731 31.2199 80.1092 30.244 78.2315 29.5268C74.4416 28.0795 69.5438 27.2891 64.3822 27.2891V37.2891ZM79.875 34.2614C79.875 34.3072 79.8707 34.0587 80.0656 33.7033C80.2652 33.3391 80.5178 33.147 80.6123 33.0889C80.619 33.0847 80.0972 33.3474 78.3792 33.4742C76.7827 33.592 74.7761 33.561 72.2513 33.4831C69.8109 33.4078 66.9428 33.2913 63.9535 33.2913V43.2913C66.7415 43.2913 69.3772 43.3992 71.9429 43.4784C74.4242 43.5549 76.9257 43.6086 79.1152 43.447C81.1833 43.2944 83.7254 42.9136 85.8494 41.6078C87.0027 40.8988 88.0773 39.8913 88.8343 38.5104C89.5866 37.1382 89.875 35.6717 89.875 34.2614H79.875ZM63.9535 33.2913C60.9642 33.2913 58.0961 33.4078 55.6557 33.4831C53.131 33.561 51.1243 33.592 49.5278 33.4742C47.8098 33.3474 47.288 33.0847 47.2947 33.0889C47.3892 33.147 47.6418 33.3391 47.8415 33.7033C48.0363 34.0587 48.032 34.3072 48.032 34.2614H38.032C38.032 35.6717 38.3204 37.1382 39.0727 38.5104C39.8297 39.8913 40.9044 40.8988 42.0576 41.6078C44.1816 42.9136 46.7237 43.2944 48.7918 43.447C50.9813 43.6086 53.4829 43.5549 55.9642 43.4784C58.5298 43.3992 61.1655 43.2913 63.9535 43.2913V33.2913ZM48.032 34.2614C48.032 33.9624 48.5278 32.2126 51.7863 30.201C54.7485 28.3723 59.0626 27 63.9535 27V17C57.2898 17 51.1431 18.846 46.5333 21.6918C42.2197 24.3548 38.032 28.7357 38.032 34.2614H48.032ZM63.9535 27C68.8444 27 73.1585 28.3723 76.1207 30.201C79.3792 32.2126 79.875 33.9624 79.875 34.2614H89.875C89.875 28.7357 85.6874 24.3548 81.3737 21.6918C76.7639 18.846 70.6172 17 63.9535 17V27ZM38.607 84.288L41.357 81.5663L34.3225 74.4589L31.5725 77.1806L38.607 84.288ZM36.2262 81.5398L36.8293 82.1493L43.9367 75.1147L43.3336 74.5053L36.2262 81.5398ZM36.8558 77.0184L34.1058 79.7402L41.1403 86.8476L43.8903 84.1259L36.8558 77.0184ZM39.2367 79.7666L38.6335 79.1572L31.526 86.1917L32.1292 86.8011L39.2367 79.7666ZM34.1058 79.7402C35.53 78.3306 37.8271 78.3425 39.2367 79.7666L32.1292 86.8011C34.6047 89.3023 38.6392 89.3231 41.1403 86.8476L34.1058 79.7402ZM36.8293 82.1493C35.4198 80.7251 35.4316 78.428 36.8558 77.0184L43.8903 84.1259C46.3915 81.6503 46.4123 77.6159 43.9367 75.1147L36.8293 82.1493ZM41.357 81.5663C39.9328 82.9758 37.6357 82.964 36.2261 81.5398L43.3336 74.5053C40.8581 72.0042 36.8237 71.9833 34.3225 74.4589L41.357 81.5663ZM31.5725 77.1806C29.0713 79.6561 29.0505 83.6905 31.5261 86.1917L38.6335 79.1572C40.043 80.5813 40.0312 82.8785 38.607 84.288L31.5725 77.1806ZM47.3192 100.225H52.5602V90.2251H47.3192V100.225ZM48.2462 95.911V98.1404H58.2462V95.911H48.2462ZM52.5602 93.8263H47.3192V103.826H52.5602V93.8263ZM51.6332 98.1404V95.911H41.6332V98.1404H51.6332ZM47.3192 93.8263C49.7018 93.8263 51.6332 95.7578 51.6332 98.1404H41.6332C41.6332 101.281 44.1789 103.826 47.3192 103.826V93.8263ZM48.2462 98.1404C48.2462 95.7578 50.1776 93.8263 52.5602 93.8263V103.826C55.7005 103.826 58.2462 101.281 58.2462 98.1404H48.2462ZM52.5602 100.225C50.1776 100.225 48.2462 98.2936 48.2462 95.911H58.2462C58.2462 92.7708 55.7005 90.2251 52.5602 90.2251V100.225ZM47.3192 90.2251C44.1789 90.2251 41.6332 92.7708 41.6332 95.911H51.6332C51.6332 98.2936 49.7018 100.225 47.3192 100.225V90.2251ZM63.7888 88.5506L66.1896 87.3502L61.7175 78.406L59.3167 79.6064L63.7888 88.5506ZM57.243 86.6136L58.1005 88.0712L66.7198 83.001L65.8624 81.5434L57.243 86.6136ZM68.5904 79.6064L66.1896 78.406L61.7175 87.3502L64.1183 88.5506L68.5904 79.6064ZM62.0447 81.5434L61.1873 83.001L69.8066 88.0712L70.664 86.6136L62.0447 81.5434ZM65.998 105.633L68.1416 88.8268L58.222 87.5616L56.0784 104.367L65.998 105.633ZM63.1818 93.1942H64.9824V83.1942H63.1818V93.1942ZM60.0195 88.8019L62.0773 105.608L72.0032 104.392L69.9453 87.5865L60.0195 88.8019ZM67.0403 100H61.0382V110H67.0403V100ZM93.2779 100H69.9556V110H93.2779V100ZM74.9039 104.283L72.3727 86.8177L62.4761 88.252L65.0072 105.717L74.9039 104.283ZM71.5426 90.0406L80.232 78.5641L72.2594 72.5277L63.5701 84.0042L71.5426 90.0406ZM76.4572 80.2609L84.1791 80.8631L84.9566 70.8934L77.2347 70.2912L76.4572 80.2609ZM90.1642 87.3331V103.114H100.164V87.3331H90.1642ZM84.1791 80.8631C87.5573 81.1265 90.1642 83.9447 90.1642 87.3331H100.164C100.164 78.7233 93.5403 71.5627 84.9566 70.8934L84.1791 80.8631ZM80.232 78.5641C79.3449 79.7357 77.9224 80.3752 76.4572 80.2609L77.2347 70.2912C75.3035 70.1406 73.4286 70.9835 72.2594 72.5277L80.232 78.5641ZM72.3727 86.8177C72.5382 87.9598 72.2393 89.1205 71.5426 90.0406L63.57 84.0042C62.6519 85.2169 62.2579 86.7468 62.4761 88.252L72.3727 86.8177ZM93.2779 110C97.0811 110 100.164 106.917 100.164 103.114H90.1642C90.1642 101.394 91.5583 100 93.2779 100V110ZM71.5361 72.4616L67.82 77.9414L76.0963 83.5541L79.8125 78.0743L71.5361 72.4616ZM72.2276 76.6327L68.9764 75.2672L65.1041 84.487L68.3553 85.8525L72.2276 76.6327ZM70.2112 83.743L77.4185 77.8314L71.0766 70.0996L63.8693 76.0112L70.2112 83.743ZM77.4185 77.8314C76.333 78.7217 74.8622 78.9819 73.5372 78.5182L76.8407 69.0796C74.873 68.3909 72.6886 68.7774 71.0766 70.0996L77.4185 77.8314ZM67.82 77.9414C68.79 76.511 70.6342 75.9635 72.2276 76.6327L68.3553 85.8525C71.1537 87.0278 74.3927 86.0661 76.0963 83.5541L67.82 77.9414ZM79.8125 78.0743C82.0144 74.8274 80.5435 70.3756 76.8407 69.0796L73.5372 78.5182C71.0439 77.6455 70.0535 74.6479 71.5361 72.4616L79.8125 78.0743ZM96.5918 77.1806L93.8419 74.4589L86.8074 81.5663L89.5573 84.288L96.5918 77.1806ZM84.8308 74.5053L84.2276 75.1147L91.335 82.1493L91.9382 81.5399L84.8308 74.5053ZM84.2741 84.1259L87.024 86.8476L94.0585 79.7402L91.3086 77.0184L84.2741 84.1259ZM96.0351 86.8011L96.6383 86.1917L89.5308 79.1572L88.9277 79.7666L96.0351 86.8011ZM87.024 86.8476C89.5252 89.3231 93.5596 89.3023 96.0351 86.8011L88.9277 79.7666C90.3372 78.3425 92.6344 78.3306 94.0585 79.7402L87.024 86.8476ZM84.2276 75.1147C81.7521 77.6159 81.7729 81.6503 84.2741 84.1259L91.3086 77.0184C92.7327 78.4279 92.7446 80.7251 91.335 82.1493L84.2276 75.1147ZM93.8419 74.4589C91.3407 71.9833 87.3063 72.0042 84.8308 74.5053L91.9382 81.5398C90.5287 82.964 88.2315 82.9758 86.8074 81.5663L93.8419 74.4589ZM89.5573 84.288C88.1332 82.8785 88.1213 80.5813 89.5308 79.1572L96.6383 86.1917C99.1138 83.6905 99.093 79.6561 96.5918 77.1806L89.5573 84.288ZM80.845 90.2251H75.604V100.225H80.845V90.2251ZM69.9181 95.911V98.1404H79.9181V95.911H69.9181ZM75.604 103.826H80.845V93.8263H75.604V103.826ZM86.531 98.1404V95.911H76.531V98.1404H86.531ZM80.845 103.826C83.9853 103.826 86.531 101.281 86.531 98.1404H76.531C76.531 95.7578 78.4625 93.8263 80.845 93.8263V103.826ZM69.9181 98.1404C69.9181 101.281 72.4638 103.826 75.604 103.826V93.8263C77.9866 93.8263 79.9181 95.7578 79.9181 98.1404H69.9181ZM75.604 90.2251C72.4638 90.2251 69.9181 92.7708 69.9181 95.911H79.9181C79.9181 98.2936 77.9866 100.225 75.604 100.225V90.2251ZM80.845 100.225C78.4625 100.225 76.531 98.2936 76.531 95.911H86.531C86.531 92.7708 83.9853 90.2251 80.845 90.2251V100.225ZM62.4102 90.5361H65.4969V80.5361H62.4102V90.5361Z" fill="white" mask="url(#path-2-outside-1_228_347)"/>
<rect x="48.0341" y="42.6075" width="31.6674" height="7.31612" rx="1.34298" fill="#F29900" stroke="black" stroke-width="2"/>
<path d="M58.2087 106H59.0742L59.1983 105.143L61.7295 87.6783C61.7942 87.2319 61.6774 86.7783 61.4051 86.4187L52.7158 74.9422C52.3691 74.4843 51.8131 74.2344 51.2406 74.2791L43.5187 74.8812C37.0171 75.3882 32 80.8118 32 87.3331V103.114C32 104.708 33.2923 106 34.8864 106H58.2087Z" fill="#2D5872" stroke="black" stroke-width="2"/>
<path d="M62.1136 80.0213C62.063 80.3682 61.8345 80.6633 61.5112 80.7991L58.26 82.1646C57.2183 82.6021 56.0126 82.2441 55.3785 81.309L51.6623 75.8292M62.1136 80.0213L51.6623 75.8292M62.1136 80.0213C62.1641 79.6743 62.0293 79.3263 61.7582 79.1039M62.1136 80.0213L61.7582 79.1039M51.6623 75.8292C50.9342 74.7556 51.4206 73.2836 52.645 72.8551C53.2956 72.6273 54.0179 72.7551 54.5509 73.1923L61.7582 79.1039M51.6623 75.8292L61.7582 79.1039" fill="#1D4559" stroke="black" stroke-width="2"/>
<path d="M57.3395 72.439L57.0387 73.0954C56.7705 73.6805 56.9452 74.3734 57.4586 74.7615L63.1493 79.0626C63.6278 79.4243 64.2858 79.4331 64.7739 79.0845L70.8346 74.7554C71.3696 74.3733 71.5583 73.6652 71.2843 73.0675L70.9963 72.439C70.8771 72.179 70.8422 71.8883 70.8964 71.6075L71.4413 68.7837C71.6047 67.9374 70.9562 67.1519 70.0943 67.1519H58.2416C57.3796 67.1519 56.7312 67.9374 56.8945 68.7837L57.4394 71.6075C57.4936 71.8883 57.4587 72.179 57.3395 72.439Z" fill="#6C5C4D" stroke="black" stroke-width="2" stroke-linejoin="round"/>
<path d="M51.8925 42.3719V48.863C51.8925 49.1107 51.655 49.2892 51.4171 49.2202L49.0084 48.5221C47.4913 48.0823 45.9762 49.2206 45.9762 50.8002V52.8267C45.9762 53.8857 46.6782 54.8165 47.6965 55.1074L49.3077 55.5677C49.4669 55.6132 49.6207 55.7756 49.6433 56.0123C49.8033 57.6865 50.3646 61.0952 52.3832 64.1104C54.4423 67.1859 57.9763 69.781 63.8677 69.781C69.7591 69.781 73.2932 67.1859 75.3522 64.1104C77.3709 61.0952 77.9322 57.6865 78.0922 56.0123C78.1148 55.7756 78.2685 55.6132 78.4277 55.5677L80.039 55.1074C81.0572 54.8165 81.7593 53.8857 81.7593 52.8267V50.8002C81.7593 49.2206 80.2442 48.0823 78.727 48.5221L76.3184 49.2202C76.0805 49.2892 75.8429 49.1107 75.8429 48.863V42.3719C75.8429 41.0619 74.781 40 73.471 40H54.2644C52.9545 40 51.8925 41.0619 51.8925 42.3719Z" fill="#6C5C4D" stroke="black" stroke-width="2" stroke-linejoin="round"/>
<path d="M64.3822 46.3222C69.184 46.3222 73.5762 45.5806 76.8044 44.3477C78.415 43.7326 79.7874 42.9757 80.7745 42.0844C81.7616 41.1931 82.4452 40.0868 82.4452 38.8057C82.4452 37.5245 81.7616 36.4182 80.7745 35.5269C79.7874 34.6356 78.415 33.8787 76.8044 33.2636C73.5762 32.0307 69.184 31.2891 64.3822 31.2891C59.5805 31.2891 55.1883 32.0307 51.9601 33.2636C50.3494 33.8787 48.9771 34.6356 47.9899 35.5269C47.0029 36.4182 46.3192 37.5245 46.3192 38.8057C46.3192 40.0868 47.0029 41.1931 47.9899 42.0844C48.9771 42.9757 50.3494 43.7326 51.9601 44.3477C55.1883 45.5806 59.5805 46.3222 64.3822 46.3222Z" fill="#183C53" stroke="black" stroke-width="2"/>
<path d="M63.9535 39.2913C66.2853 39.2913 68.5247 39.3649 70.6323 39.4341C71.1175 39.45 71.5956 39.4657 72.0663 39.4803C74.5649 39.5574 76.8685 39.602 78.8209 39.4579C80.7489 39.3156 82.4829 38.982 83.7546 38.2002C84.4087 37.7981 84.9525 37.2704 85.3268 36.5876C85.7003 35.9064 85.875 35.1259 85.875 34.2614C85.875 30.8264 83.1641 27.4979 79.2726 25.0955C75.3218 22.6565 69.9081 21 63.9535 21C57.9989 21 52.5853 22.6565 48.6345 25.0955C44.7429 27.4979 42.032 30.8264 42.032 34.2614C42.032 35.1259 42.2068 35.9064 42.5802 36.5876C42.9546 37.2704 43.4983 37.7981 44.1524 38.2002C45.4242 38.982 47.1582 39.3156 49.0862 39.4579C51.0385 39.602 53.3421 39.5574 55.8408 39.4803C56.3115 39.4657 56.7896 39.45 57.2747 39.4341C59.3823 39.3649 61.6217 39.2913 63.9535 39.2913Z" fill="#2D5872" stroke="black" stroke-width="2"/>
<rect x="32.7005" y="81.6921" width="8.61293" height="5.60124" rx="2.3719" transform="rotate(-44.7046 32.7005 81.6921)" fill="#FFBF14" stroke="black" stroke-width="2"/>
<rect x="45.6332" y="94.2251" width="8.61293" height="5.60124" rx="1.68595" fill="#1D4559" stroke="black" stroke-width="2"/>
<path d="M64.3714 81.0715C64.133 80.9762 63.867 80.9762 63.6286 81.0715L61.1286 82.0715C60.6158 82.2766 60.3664 82.8586 60.5715 83.3714L61.5715 85.8714C61.7234 86.251 62.0911 86.5 62.5 86.5H64H65.5C65.9089 86.5 66.2766 86.251 66.4285 85.8714L67.4285 83.3714C67.6336 82.8586 67.3842 82.2766 66.8714 82.0715L64.3714 81.0715Z" fill="#282C3A" stroke="black" stroke-width="2" stroke-linejoin="round"/>
<path d="M63.1818 87.1942H62.3013L62.1898 88.0677L60.0462 104.873L59.9026 106H61.0382H67.0403H68.1702L68.0329 104.878L65.975 88.0727L65.8674 87.1942H64.9824H63.1818Z" fill="#282C3A" stroke="black" stroke-width="2"/>
<path d="M69.9556 106H69.09L68.9659 105.143L66.4347 87.6783C66.37 87.2319 66.4869 86.7783 66.7591 86.4187L75.4485 74.9422C75.7952 74.4843 76.3511 74.2344 76.9237 74.2791L84.6456 74.8812C91.1471 75.3882 96.1642 80.8118 96.1642 87.3331V103.114C96.1642 104.708 94.872 106 93.2779 106H69.9556Z" fill="#2D5872" stroke="black" stroke-width="2"/>
<path d="M66.0507 80.0213C66.1013 80.3682 66.3298 80.6633 66.653 80.7991L69.9042 82.1646C70.9459 82.6021 72.1516 82.2441 72.7858 81.309L76.502 75.8292M66.0507 80.0213L76.502 75.8292M66.0507 80.0213C66.0002 79.6743 66.135 79.3263 66.4061 79.1039M66.0507 80.0213L66.4061 79.1039M76.502 75.8292C77.23 74.7556 76.7437 73.2836 75.5193 72.8551C74.8687 72.6273 74.1464 72.7551 73.6134 73.1923L66.4061 79.1039M76.502 75.8292L66.4061 79.1039" fill="#1D4559" stroke="black" stroke-width="2"/>
<rect x="1.41419" y="-0.0072915" width="8.61293" height="5.60124" rx="2.3719" transform="matrix(-0.710743 -0.703452 -0.703452 0.710743 96.4638 82.6921)" fill="#FFBF14" stroke="black" stroke-width="2"/>
<rect x="1" y="-1" width="8.61293" height="5.60124" rx="1.68595" transform="matrix(-1 0 0 1 83.531 95.2251)" fill="#1D4559" stroke="black" stroke-width="2"/>
</svg>
