<svg width="128" height="128" viewBox="0 0 128 128" fill="none" xmlns="http://www.w3.org/2000/svg">
<circle cx="64" cy="64" r="64" fill="#3C4043"/>
<path d="M23.1302 58.9201C18.4129 64.9117 22.281 82.3958 25.5 85.5003C50.9302 84.4655 87.5 73.5003 97.7095 70.3478C103.07 68.6926 100.5 65.9201 100.5 58.9201C100.5 53.988 95.7085 38.8873 87.5 38.0003C79.2915 37.1133 74.9654 29.7455 62.8873 34.2658C38.9493 43.2249 32.1888 47.4147 23.1302 58.9201Z" fill="#383838"/>
<g filter="url(#filter0_i_228_301)">
<path d="M78.9443 40.3762C75.971 41.217 72.0065 38.6947 71.511 37.854C71.511 36.4526 73.9887 37.0132 75.4754 37.854C76.9621 38.6947 78.9443 37.0132 81.4221 37.854C83.8998 38.6947 81.9176 39.5355 78.9443 40.3762Z" fill="#54B3F3"/>
<path d="M44.7511 47.663C47.5262 45.4209 53.1755 45.0472 55.6533 45.1406C59.7829 45.3274 67.943 45.4209 67.5465 44.2999C67.051 42.8986 61.5999 41.7776 60.1132 42.0578C58.6265 42.3381 47.7244 41.7778 44.7511 47.663Z" fill="#54B3F3"/>
<path d="M62.591 56.3507C63.5821 50.7456 58.131 51.5863 60.1132 48.2233C62.0954 44.8602 77.4576 45.7012 85.3865 47.663C93.3154 49.6248 100.253 51.5866 94.802 54.6693C90.4412 57.1356 72.1717 55.977 62.591 56.3507Z" fill="#54B3F3"/>
<path d="M56.8396 58.8412C54.6908 53.8412 46.133 52.9351 48.4152 49.0641C48.9107 48.2235 49.5592 49.7091 51.6908 48.5038C53.673 47.383 54.3619 47.1024 55.8485 47.663C59.1725 48.9165 57.3352 49.3447 56.8396 49.905C56.1303 50.7071 58.1908 56.8412 56.8396 58.8412Z" fill="#54B3F3"/>
<path d="M30.2445 74.1626C26.1149 72.7614 23.092 61.9301 26.66 57.4461C31.12 51.841 32.7623 54.2774 34.7445 52.5959C36.7267 50.9143 43.2605 50.1682 46.5 52.0004C54.2087 56.3603 51.999 58.0959 49.7445 58.8474C46.7445 59.8474 37.5126 71.0798 30.2445 74.1626Z" fill="#54B3F3"/>
<path d="M68 65.0004C75.4333 61.9176 63.5821 61.6216 60.1132 60.5004C56.6443 59.3793 47.7244 64.0227 48.7155 65.0004C49.7066 65.9781 66.8437 62.4782 68 65.0004Z" fill="#54B3F3"/>
<path d="M78.9443 40.3762C75.971 41.217 72.0065 38.6947 71.511 37.854C71.511 36.4526 73.9887 37.0132 75.4754 37.854C76.9621 38.6947 78.9443 37.0132 81.4221 37.854C83.8998 38.6947 81.9176 39.5355 78.9443 40.3762Z" stroke="black"/>
<path d="M44.7511 47.663C47.5262 45.4209 53.1755 45.0472 55.6533 45.1406C59.7829 45.3274 67.943 45.4209 67.5465 44.2999C67.051 42.8986 61.5999 41.7776 60.1132 42.0578C58.6265 42.3381 47.7244 41.7778 44.7511 47.663Z" stroke="black"/>
<path d="M62.591 56.3507C63.5821 50.7456 58.131 51.5863 60.1132 48.2233C62.0954 44.8602 77.4576 45.7012 85.3865 47.663C93.3154 49.6248 100.253 51.5866 94.802 54.6693C90.4412 57.1356 72.1717 55.977 62.591 56.3507Z" stroke="black"/>
<path d="M56.8396 58.8412C54.6908 53.8412 46.133 52.9351 48.4152 49.0641C48.9107 48.2235 49.5592 49.7091 51.6908 48.5038C53.673 47.383 54.3619 47.1024 55.8485 47.663C59.1725 48.9165 57.3352 49.3447 56.8396 49.905C56.1303 50.7071 58.1908 56.8412 56.8396 58.8412Z" stroke="black"/>
<path d="M30.2445 74.1626C26.1149 72.7614 23.092 61.9301 26.66 57.4461C31.12 51.841 32.7623 54.2774 34.7445 52.5959C36.7267 50.9143 43.2605 50.1682 46.5 52.0004C54.2087 56.3603 51.999 58.0959 49.7445 58.8474C46.7445 59.8474 37.5126 71.0798 30.2445 74.1626Z" stroke="black"/>
<path d="M68 65.0004C75.4333 61.9176 63.5821 61.6216 60.1132 60.5004C56.6443 59.3793 47.7244 64.0227 48.7155 65.0004C49.7066 65.9781 66.8437 62.4782 68 65.0004Z" stroke="black"/>
</g>
<path d="M80.7841 94.3234C89.4162 95.1036 97.4198 94.256 103.393 92.2143C106.379 91.1939 108.903 89.8597 110.743 88.2404C112.588 86.6164 113.788 84.6637 113.989 82.4398C114.19 80.2159 113.36 78.0798 111.835 76.1513C110.316 74.2283 108.072 72.4631 105.318 70.924C99.8071 67.8443 92.0851 65.5753 83.4531 64.7951C74.821 64.0149 66.8174 64.8625 60.8438 66.9041C57.8583 67.9245 55.3343 69.2588 53.4944 70.878C51.6491 72.5021 50.4495 74.4547 50.2485 76.6786C50.0475 78.9025 50.8775 81.0386 52.4017 82.9672C53.9215 84.8901 56.1653 86.6553 58.9195 88.1945C64.4301 91.2742 72.1521 93.5431 80.7841 94.3234Z" fill="#545454" stroke="black" stroke-width="2"/>
<path d="M96.5 80.9999C96.5 85.0746 93.0587 89.1916 86.5068 92.379C80.0566 95.5169 71.0405 97.4999 61 97.4999C50.9595 97.4999 41.9434 95.5169 35.4932 92.379C28.9413 89.1916 25.5 85.0746 25.5 80.9999C25.5 76.9253 28.9413 72.8083 35.4932 69.6209C41.9434 66.483 50.9595 64.4999 61 64.4999C71.0405 64.4999 80.0566 66.483 86.5068 69.6209C93.0587 72.8083 96.5 76.9253 96.5 80.9999Z" fill="black" stroke="white" stroke-width="3"/>
<path d="M29 80.0004C29 80.0004 29.7667 76.5503 35 73.35M93 80.0004C93 80.0004 92.5174 77.8289 89.7048 75.3333M39.5 71.1745C42.0236 70.2128 45.1442 69.3766 49 68.8042M51.7902 68.4517C54.5231 68.1635 57.5803 68.0004 61 68.0004C75.6667 68.0004 83.6667 71.0004 88 74.0004" stroke="white" stroke-opacity="0.6" stroke-width="2" stroke-linecap="round"/>
<path d="M81.8291 92.8254C90.408 93.6008 98.3387 92.7553 104.232 90.7412C107.177 89.7343 109.637 88.4277 111.412 86.8651C113.191 85.3001 114.304 83.4573 114.491 81.3948C114.677 79.3324 113.912 77.3198 112.443 75.4613C110.977 73.6056 108.791 71.8791 106.074 70.3604C100.637 67.3223 92.9869 65.0685 84.408 64.2931C75.8292 63.5176 67.8984 64.3632 62.0055 66.3773C59.0597 67.3841 56.6003 68.6907 54.8247 70.2534C53.0465 71.8184 51.9329 73.6612 51.7465 75.7236C51.5601 77.7861 52.3252 79.7987 53.794 81.6572C55.2606 83.5128 57.4458 85.2393 60.1634 86.758C65.5997 89.7961 73.2503 92.05 81.8291 92.8254Z" fill="#545454" stroke="black"/>
<path fill-rule="evenodd" clip-rule="evenodd" d="M109.421 84.6029C110.796 83.3935 111.391 82.2129 111.489 81.1236C111.588 80.0342 111.214 78.7659 110.079 77.3298C108.933 75.8795 107.101 74.3865 104.604 72.991C99.6156 70.2034 92.395 68.0408 84.1368 67.2943C75.8785 66.5479 68.3872 67.3808 62.9801 69.2288C60.2734 70.1539 58.2033 71.2943 56.8157 72.5156C55.4416 73.7249 54.8462 74.9055 54.7477 75.9949C54.6493 77.0843 55.0233 78.3525 56.1583 79.7886C57.3045 81.2389 59.1365 82.732 61.6335 84.1274C66.6216 86.9151 73.8422 89.0777 82.1004 89.8241C90.3586 90.5705 97.8499 89.7377 103.257 87.8896C105.964 86.9645 108.034 85.8241 109.421 84.6029ZM81.8741 92.3274C98.9254 93.8686 113.305 88.9538 113.993 81.3498C114.68 73.7458 101.414 66.3322 84.363 64.791C67.3117 63.2498 52.9317 68.1647 52.2444 75.7686C51.5571 83.3726 64.8228 90.7862 81.8741 92.3274Z" fill="#878787"/>
<g style="mix-blend-mode:exclusion">
<mask id="mask0_228_301" style="mask-type:alpha" maskUnits="userSpaceOnUse" x="52" y="64" width="63" height="29">
<path d="M113.993 81.3498C113.305 88.9538 98.9254 93.8686 81.8741 92.3274C64.8228 90.7862 51.5571 83.3726 52.2444 75.7686C52.9317 68.1647 67.3117 63.2498 84.363 64.791C101.414 66.3322 114.68 73.7458 113.993 81.3498Z" fill="black"/>
</mask>
<g mask="url(#mask0_228_301)">
<rect x="51.5928" y="71.8698" width="64" height="1" transform="rotate(5.16471 51.5928 71.8698)" fill="#D9D9D9"/>
<rect x="50.5125" y="83.8211" width="64" height="1" transform="rotate(5.16471 50.5125 83.8211)" fill="#D9D9D9"/>
<rect x="50.1525" y="87.8049" width="64" height="1" transform="rotate(5.16471 50.1525 87.8049)" fill="#D9D9D9"/>
<rect x="51.9528" y="67.886" width="64" height="1" transform="rotate(5.16471 51.9528 67.886)" fill="#D9D9D9"/>
<rect x="52.3129" y="63.9023" width="64" height="1" transform="rotate(5.16471 52.3129 63.9023)" fill="#D9D9D9"/>
<rect x="50.8726" y="79.8373" width="64" height="1" transform="rotate(5.16471 50.8726 79.8373)" fill="#D9D9D9"/>
<rect x="51.2327" y="75.8536" width="64" height="1" transform="rotate(5.16471 51.2327 75.8536)" fill="#D9D9D9"/>
</g>
<mask id="mask1_228_301" style="mask-type:alpha" maskUnits="userSpaceOnUse" x="52" y="64" width="63" height="29">
<path d="M113.993 81.3498C113.305 88.9538 98.9254 93.8686 81.8741 92.3274C64.8228 90.7862 51.5571 83.3726 52.2444 75.7686C52.9317 68.1647 67.3117 63.2498 84.363 64.791C101.414 66.3322 114.68 73.7458 113.993 81.3498Z" fill="black"/>
</mask>
<g mask="url(#mask1_228_301)">
<rect x="48.2122" y="55.3568" width="84" height="1" transform="rotate(28.3025 48.2122 55.3568)" fill="#D9D9D9"/>
<rect x="42.5226" y="65.9222" width="84" height="1" transform="rotate(28.3025 42.5226 65.9222)" fill="#D9D9D9"/>
<rect x="40.6261" y="69.4441" width="84" height="1" transform="rotate(28.3025 40.6261 69.4441)" fill="#D9D9D9"/>
<rect x="50.1086" y="51.835" width="84" height="1" transform="rotate(28.3025 50.1086 51.835)" fill="#D9D9D9"/>
<rect x="52.0051" y="48.3131" width="84" height="1" transform="rotate(28.3025 52.0051 48.3131)" fill="#D9D9D9"/>
<rect x="44.4191" y="62.4005" width="84" height="1" transform="rotate(28.3025 44.4191 62.4005)" fill="#D9D9D9"/>
<rect x="46.3156" y="58.8786" width="84" height="1" transform="rotate(28.3025 46.3156 58.8786)" fill="#D9D9D9"/>
</g>
</g>
<defs>
<filter id="filter0_i_228_301" x="23.0786" y="37.0004" width="73.6671" height="39.1622" filterUnits="userSpaceOnUse" color-interpolation-filters="sRGB">
<feFlood flood-opacity="0" result="BackgroundImageFix"/>
<feBlend mode="normal" in="SourceGraphic" in2="BackgroundImageFix" result="shape"/>
<feColorMatrix in="SourceAlpha" type="matrix" values="0 0 0 0 0 0 0 0 0 0 0 0 0 0 0 0 0 0 127 0" result="hardAlpha"/>
<feOffset dx="-3" dy="4"/>
<feGaussianBlur stdDeviation="1"/>
<feComposite in2="hardAlpha" operator="arithmetic" k2="-1" k3="1"/>
<feColorMatrix type="matrix" values="0 0 0 0 0.0252778 0 0 0 0 0.390963 0 0 0 0 0.733056 0 0 0 0.62 0"/>
<feBlend mode="normal" in2="shape" result="effect1_innerShadow_228_301"/>
</filter>
</defs>
</svg>
