<svg width="128" height="128" viewBox="0 0 128 128" fill="none" xmlns="http://www.w3.org/2000/svg">
<circle cx="64" cy="64" r="64" fill="#3C4043"/>
<g filter="url(#filter0_i_228_291)">
<path d="M90.2347 43.0451C88.9749 43.0451 86.5605 43.57 85.5107 43.8324C85.7731 43.3075 86.613 41.9428 87.8727 40.6831C89.4473 39.1085 91.022 39.8958 91.8093 39.8958C92.5966 39.8958 93.384 40.6831 93.384 41.4704C93.384 42.2578 91.8093 43.0451 90.2347 43.0451Z" fill="#54B3F3"/>
<path d="M67.724 98.5C67.4615 86.1653 68.1896 105.087 71.3389 98.1583C75.2755 89.4977 79.9995 85.5611 78.4248 83.9865C76.8502 82.4118 73.7009 84.7738 71.3389 87.1358C68.9769 89.4977 69.7642 94.2216 68.1896 94.2216C66.6149 94.2216 66.6149 85.561 67.4023 83.1991C68.1896 80.8371 71.3389 73.7512 76.8502 73.7512C82.3614 73.7512 83.1488 71.3892 83.1488 70.6019C83.1488 69.8145 83.9361 67.4526 78.4248 67.4526C74.0158 67.4526 69.7642 71.1267 68.1896 72.9638C67.4023 69.5521 67.2448 62.0988 72.9135 59.5793C79.9995 56.43 84.7234 57.2173 87.0854 55.6427C88.975 54.383 89.7204 53.515 89.4473 51.7057C89.1743 49.8963 85.9831 48.084 81.5741 49.3437C76.0628 50.9183 72.9135 54.8551 72.1262 53.2805C71.3389 51.7058 73.7009 45.4073 79.9995 42.258C86.2981 39.1087 86.2981 35.172 85.5107 33.5974C84.7234 32.0227 79.2121 28.0861 72.9135 36.7467C66.6149 45.4073 67.4023 56.4296 66.6149 56.4296C65.8276 56.4296 63.4656 56.4296 64.253 50.131C65.0403 43.8324 68.1896 39.8958 68.1896 35.9592C68.1896 35.1718 68.1896 29.6606 63.4656 29.6606C58.7417 29.6606 57.9544 34.3845 57.9544 35.1718C57.9544 35.9592 57.9543 37.5338 58.7417 44.6197C59.529 51.7057 61.891 57.2169 61.891 58.0043C61.891 58.6341 61.3661 58.7916 61.1037 58.7916C59.529 54.5925 55.9073 46.1944 54.0177 46.1944C52.1282 46.1944 51.1309 47.2442 50.8684 47.769C50.606 48.5564 50.396 50.2885 51.6558 50.9183C53.2304 51.7057 54.8051 52.493 56.3797 55.6423C57.9544 58.7916 59.529 63.5155 59.529 66.6648C59.529 69.8141 59.529 75.3254 57.9544 76.1127C56.3797 76.9 55.5924 76.1127 54.8051 74.5381C54.0177 72.9634 52.443 69.0268 50.0811 66.6648C48.5064 65.0902 46.3499 64.2001 44.5698 65.0902C43.3854 65.6824 38.2712 69.0268 50.0811 76.9C53.2304 79.262 57.9543 87.4502 57.9543 95.0085C56.9046 93.9587 55.7158 91.9826 54.0177 90.2846C52.3197 88.5865 50.8684 84.7733 49.2938 86.3479C47.2865 88.3552 52.0017 92.9186 52.7891 93.7059C53.5764 94.4932 53.4975 96.5721 57.167 98.9451C61.891 102 61.5 98 62 98.5C62.5 99 63 98.5 63 98.5H67.724Z" fill="#54B3F3"/>
<path d="M39.0585 54.0676C38.7175 52.3626 39.8458 50.2885 42.9951 50.9183C46.9318 51.7057 49.2937 55.6423 49.2937 58.7916C48.5064 58.2667 46.6168 57.2169 45.3571 57.2169C43.7825 57.2169 39.8458 58.0042 39.0585 54.0676Z" fill="#54B3F3"/>
<path d="M74.4882 29.6606C75.2755 28.8732 77.1651 27.1411 78.4248 26.5113C79.9994 25.7239 82.3614 24.9366 82.3614 23.362C82.3614 21.7873 79.2121 21 78.4248 21C77.6375 21 75.2755 21 73.7008 23.362C72.4411 25.2516 73.7008 28.3484 74.4882 29.6606Z" fill="#54B3F3"/>
<path d="M78.4248 63.5155C77.1651 63.5155 77.1126 64.0404 76.0628 64.3028C76.3252 63.778 76.044 61.9503 77.6375 61.1535C79.2121 60.3662 79.9994 60.3662 80.7868 60.3662C81.5741 60.3662 82.3614 60.8471 82.3614 61.9409C82.3614 63.5155 79.9994 63.5155 78.4248 63.5155Z" fill="#54B3F3"/>
</g>
<path d="M83.048 43.4013C82.9262 44.0981 83.1038 44.8273 83.5606 45.3967C84.1715 46.1583 85.1699 46.4946 86.117 46.2578C86.5974 46.1377 87.4117 45.9525 88.2459 45.7991C89.1282 45.637 89.8518 45.5451 90.2347 45.5451C91.4012 45.5451 92.5723 45.2618 93.5178 44.7891C93.9893 44.5533 94.5068 44.2196 94.9409 43.7544C95.3621 43.3032 95.884 42.5258 95.884 41.4704C95.884 40.2637 95.3058 39.2662 94.6596 38.6201C94.0135 37.974 93.016 37.3958 91.8093 37.3958C92.2682 37.3958 90.131 36.7788 87.9588 37.6794C88.6353 35.6867 88.4099 33.8056 87.7468 32.4794C87.2849 31.5556 86.4069 30.7055 85.4242 30.0893C84.3799 29.4344 83.0054 28.9065 81.3875 28.8362C80.6165 28.8027 79.8304 28.8726 79.0351 29.057C79.2357 28.9198 79.4076 28.8149 79.5428 28.7473C79.6716 28.683 79.8588 28.5961 80.0814 28.4929C80.7159 28.1987 81.6374 27.7713 82.3086 27.3519C83.2017 26.7937 84.8614 25.5534 84.8614 23.362C84.8614 22.0614 84.1956 21.1081 83.5884 20.5251C82.992 19.9527 82.2867 19.5651 81.7037 19.306C80.5938 18.8127 79.2595 18.5 78.4248 18.5L78.4032 18.5C77.4844 18.4998 73.9383 18.4989 71.6207 21.9752C70.4291 23.7626 70.5756 25.8436 70.8842 27.26C71.2087 28.7494 71.8391 30.1046 72.3444 30.9468C72.6603 31.4733 73.1556 31.8603 73.7309 32.0431C72.7757 32.92 71.8261 33.9915 70.8917 35.2763C70.8222 35.3718 70.7535 35.4676 70.6856 35.5637C70.6663 34.7876 70.5553 33.1736 69.9203 31.5861C69.5173 30.5787 68.8549 29.4549 67.754 28.5783C66.616 27.6722 65.1713 27.1606 63.4656 27.1606C60.0776 27.1606 57.9623 28.9372 56.8094 30.8107C55.7527 32.5278 55.4544 34.3697 55.4544 35.1718C55.4544 36.0793 55.4657 37.7147 56.2123 44.4923C55.7441 44.1359 54.9893 43.6944 54.0177 43.6944C51.1397 43.6944 49.2994 45.317 48.6324 46.651C48.5795 46.7568 48.5341 46.8662 48.4967 46.9785C48.281 47.6257 48.0828 48.6329 48.2086 49.6964C48.2695 50.2113 48.4224 50.8203 48.7361 51.4071C47.3933 49.9877 45.6292 48.8956 43.4854 48.4669C41.3235 48.0345 39.3032 48.4538 37.9232 49.8771C36.6187 51.2224 36.3054 53.0494 36.6071 54.5579L39.0585 54.0676L36.6071 54.5579C36.8897 55.9712 37.5006 57.1475 38.4304 58.0319C39.3434 58.9004 40.4047 59.3363 41.3504 59.5545C42.2812 59.7693 43.1808 59.792 43.8704 59.7779C44.209 59.771 44.5262 59.7541 44.7771 59.7407L44.7996 59.7395C45.0791 59.7246 45.2405 59.7169 45.3571 59.7169C45.3566 59.7169 45.3569 59.7169 45.3581 59.717C45.3707 59.718 45.4771 59.7264 45.6948 59.7897C45.9189 59.8549 46.185 59.9559 46.4758 60.0868C47.0644 60.352 47.6137 60.6762 47.907 60.8717C48.6741 61.3831 49.6605 61.4308 50.4734 60.9958C51.2863 60.5607 51.7937 59.7136 51.7937 58.7916C51.7937 56.7948 51.0866 54.5474 49.7463 52.6437C49.9768 52.8327 50.2393 53.0052 50.5377 53.1544C51.3371 53.5541 51.8542 53.8234 52.3715 54.276C52.8705 54.7127 53.4728 55.4187 54.1436 56.7603C55.6475 59.7681 57.029 64.082 57.029 66.6648C57.029 68.266 57.0266 70.2966 56.8459 72.0128C56.8159 72.2975 56.7823 72.5599 56.7457 72.7993C56.7239 72.7526 56.7013 72.7044 56.6781 72.6547C56.314 71.8758 55.781 70.7357 55.2394 69.7202C54.4118 68.1684 53.29 66.3382 51.8488 64.897C49.9932 63.0414 46.6867 61.2366 43.4518 62.8541C42.7386 63.2107 39.8621 64.8437 39.9535 68.3302C39.9974 70.0061 40.7515 71.6968 42.1315 73.3938C43.4998 75.0765 45.5956 76.9081 48.6291 78.9366C49.6828 79.7511 51.2831 81.7696 52.7022 84.5929C52.3506 84.2742 51.9267 83.9672 51.4321 83.7578C50.8508 83.5117 50.1254 83.3793 49.336 83.5551C48.5658 83.7265 47.9666 84.1396 47.526 84.5802C46.1994 85.9068 46.1576 87.5836 46.4504 88.813C46.7283 89.9794 47.3563 91.0629 47.9345 91.9024C49.0271 93.4889 50.4355 94.8918 50.9237 95.3766C50.9447 95.4168 50.9783 95.4832 51.0256 95.5842C51.0444 95.6241 51.0652 95.6692 51.0881 95.7188C51.2283 96.0222 51.4467 96.4951 51.7416 96.9972C52.481 98.2558 53.655 99.6512 55.8095 101.044C57.1378 101.903 58.3937 102.464 59.6004 102.582C60.9637 102.716 62.117 102.267 62.9359 101.448C63.0381 101.346 63.1319 101.24 63.2178 101.134C63.3101 101.112 63.397 101.086 63.4781 101.059C63.5344 101.04 63.5887 101.021 63.6411 101H67.4876C67.4884 101.001 67.4892 101.002 67.49 101.003C67.7812 101.351 68.2792 101.832 69.0286 102.079C69.8745 102.359 70.7302 102.241 71.438 101.866C72.0641 101.535 72.5013 101.047 72.798 100.639C73.1084 100.213 73.3758 99.7186 73.6148 99.1928C75.304 95.4765 77.1367 92.6853 78.5806 90.486C78.7396 90.2439 78.8938 90.009 79.0426 89.7808C79.7481 88.6991 80.4704 87.5669 80.8648 86.5552C81.2554 85.5531 81.6741 83.7002 80.1926 82.2187C79.2048 81.2309 77.9639 80.9113 76.8192 80.9876C75.7648 81.0579 74.7878 81.4551 73.9918 81.8837C72.3916 82.7454 70.81 84.1291 69.5711 85.368C69.5566 85.3825 69.5422 85.3971 69.5278 85.4117C69.606 84.69 69.7015 84.207 69.774 83.9896C70.1127 82.9733 70.9874 80.8841 72.3433 79.1045C73.7336 77.2797 75.2517 76.2512 76.8502 76.2512C79.9244 76.2512 82.1201 75.597 83.601 74.4451C85.1036 73.2765 85.6416 71.7642 85.6487 70.6246C85.6492 70.6281 85.6521 70.5934 85.6645 70.4322C85.6774 70.2642 85.6954 69.995 85.684 69.6851C85.6604 69.0488 85.5097 68.1495 84.8878 67.2789C84.2825 66.4313 83.4241 65.8579 82.368 65.4925C82.7872 65.3217 83.2344 65.0746 83.6402 64.7094C84.4048 64.0213 84.8614 63.0542 84.8614 61.9409C84.8614 60.9131 84.5245 59.9534 83.8678 59.2116C84.4086 59.121 84.9344 59.0261 85.4134 58.9197C86.4049 58.6994 87.4988 58.3717 88.4721 57.7228C89.4355 57.0806 90.4846 56.308 91.1766 55.2379C91.9733 54.006 92.1232 52.6835 91.9194 51.3326C91.5915 49.1603 89.7495 47.7158 87.9442 47.0347C85.9996 46.3011 83.5442 46.1808 80.8873 46.9399C78.9464 47.4944 77.272 48.3048 75.9096 49.0719C77.0079 47.4233 78.7252 45.6902 81.1175 44.494C81.8167 44.1444 82.4593 43.7795 83.048 43.4013ZM72.3336 51.1915C72.3179 51.197 72.3219 51.1943 72.3431 51.1881C72.3399 51.1893 72.3367 51.1904 72.3336 51.1915ZM74.4803 52.5178C74.4816 52.5289 74.4818 52.5348 74.4816 52.5351C74.4813 52.5353 74.4807 52.5298 74.4803 52.5178ZM73.9289 61.8638C73.9682 61.8464 74.0074 61.829 74.0466 61.8118C74.0018 61.9461 73.9638 62.0766 73.9314 62.2013C73.816 62.6452 73.7587 63.0676 73.7262 63.3064C73.7236 63.3257 73.7211 63.3438 73.7188 63.3607C73.712 63.4105 73.7066 63.4486 73.7019 63.4805C73.4295 64.262 73.5608 65.1352 74.0644 65.805C72.9038 66.2468 71.8379 66.8168 70.9056 67.4079C70.7226 67.524 70.5428 67.642 70.3664 67.7617C70.4118 67.3308 70.4792 66.8982 70.5726 66.4721C71.0385 64.3461 72.0612 62.6939 73.9289 61.8638ZM56.3642 74.2718C56.3639 74.2708 56.3697 74.2594 56.3828 74.2403C56.3712 74.2631 56.3646 74.2727 56.3642 74.2718Z" stroke="white" stroke-width="5" stroke-linejoin="round"/>
<path d="M99.5 89C99.5 93.0746 96.0587 97.1916 89.5068 100.379C83.0566 103.517 74.0405 105.5 64 105.5C53.9595 105.5 44.9434 103.517 38.4932 100.379C31.9413 97.1916 28.5 93.0746 28.5 89C28.5 84.9254 31.9413 80.8084 38.4932 77.6209C44.9434 74.483 53.9595 72.5 64 72.5C74.0405 72.5 83.0566 74.483 89.5068 77.6209C96.0587 80.8084 99.5 84.9254 99.5 89Z" fill="black" stroke="white" stroke-width="3"/>
<g filter="url(#filter1_i_228_291)">
<path d="M90.2347 43.0451C88.9749 43.0451 86.5605 43.57 85.5107 43.8324C85.7731 43.3075 86.613 41.9428 87.8727 40.6831C89.4473 39.1085 91.022 39.8958 91.8093 39.8958C92.5966 39.8958 93.384 40.6831 93.384 41.4704C93.384 42.2578 91.8093 43.0451 90.2347 43.0451Z" fill="#54B3F3"/>
<path d="M67.724 99.5C71.3389 103 68.1896 98.0868 71.3389 97.1583C80.4639 94.4681 79.9995 85.5611 78.4248 83.9865C76.8502 82.4118 73.7009 84.7738 71.3389 87.1358C68.9769 89.4977 69.7642 94.2216 68.1896 94.2216C66.6149 94.2216 66.6149 85.561 67.4023 83.1991C68.1896 80.8371 71.3389 73.7512 76.8502 73.7512C82.3614 73.7512 83.1488 71.3892 83.1488 70.6019C83.1488 69.8145 83.9361 67.4526 78.4248 67.4526C74.0158 67.4526 69.7642 71.1267 68.1896 72.9638C67.4023 69.5521 67.2448 62.0988 72.9135 59.5793C79.9995 56.43 84.7234 57.2173 87.0854 55.6427C88.975 54.383 89.7204 53.515 89.4473 51.7057C89.1743 49.8963 85.9831 48.084 81.5741 49.3437C76.0628 50.9183 72.9135 54.8551 72.1262 53.2805C71.3389 51.7058 73.7009 45.4073 79.9995 42.258C86.2981 39.1087 86.2981 35.172 85.5107 33.5974C84.7234 32.0227 79.2121 28.0861 72.9135 36.7467C66.6149 45.4073 67.4023 56.4296 66.6149 56.4296C65.8276 56.4296 63.4656 56.4296 64.253 50.131C65.0403 43.8324 68.1896 39.8958 68.1896 35.9592C68.1896 35.1718 68.1896 29.6606 63.4656 29.6606C58.7417 29.6606 57.9544 34.3845 57.9544 35.1718C57.9544 35.9592 57.9543 37.5338 58.7417 44.6197C59.529 51.7057 61.891 57.2169 61.891 58.0043C61.891 58.6341 61.3661 58.7916 61.1037 58.7916C59.529 54.5925 55.9073 46.1944 54.0177 46.1944C52.1282 46.1944 51.1309 47.2442 50.8684 47.769C50.606 48.5564 50.396 50.2885 51.6558 50.9183C53.2304 51.7057 54.8051 52.493 56.3797 55.6423C57.9544 58.7916 59.529 63.5155 59.529 66.6648C59.529 69.8141 59.529 75.3254 57.9544 76.1127C56.3797 76.9 55.5924 76.1127 54.8051 74.5381C54.0177 72.9634 52.443 69.0268 50.0811 66.6648C48.5064 65.0902 46.3499 64.2001 44.5698 65.0902C43.3854 65.6824 38.2712 69.0268 50.0811 76.9C53.2304 79.262 57.9543 87.4502 57.9543 95.0085C56.9046 93.9587 55.7158 91.9826 54.0177 90.2846C52.3197 88.5865 50.8684 84.7733 49.2938 86.3479C47.2865 88.3552 52.0017 92.9186 52.7891 93.7059C53.5764 94.4932 55.5 95.5 57.167 97.9451C59.8296 101.851 60.6037 100 61.1037 100.5C61.6037 101 63 99.5 63 99.5H67.724Z" fill="#54B3F3"/>
<path d="M39.0585 54.0676C38.7175 52.3626 39.8458 50.2885 42.9951 50.9183C46.9318 51.7057 49.2937 55.6423 49.2937 58.7916C48.5064 58.2667 46.6168 57.2169 45.3571 57.2169C43.7825 57.2169 39.8458 58.0042 39.0585 54.0676Z" fill="#54B3F3"/>
<path d="M74.4882 29.6606C75.2755 28.8732 77.1651 27.1411 78.4248 26.5113C79.9994 25.7239 82.3614 24.9366 82.3614 23.362C82.3614 21.7873 79.2121 21 78.4248 21C77.6375 21 75.2755 21 73.7008 23.362C72.4411 25.2516 73.7008 28.3484 74.4882 29.6606Z" fill="#54B3F3"/>
<path d="M79.5 63C78.2647 62.7529 77 63.5 76.0628 64.3028C76.3252 63.778 76.2778 62.3047 77.6375 61.1535C79 60 81 59.5 82 60C82.7254 60.3627 83.1488 60.9063 83.1488 62C83.1488 63.5746 82 63.5 79.5 63Z" fill="#54B3F3"/>
</g>
<path d="M84.6163 43.3852C84.4416 43.7345 84.4863 44.1535 84.7307 44.4581C84.975 44.7628 85.3744 44.8973 85.7532 44.8026C86.2603 44.6758 87.1057 44.4836 87.9747 44.3239C88.863 44.1606 89.7036 44.0451 90.2347 44.0451C91.1737 44.0451 92.1145 43.8137 92.847 43.4474C93.2127 43.2646 93.5674 43.0277 93.8444 42.7309C94.1161 42.4397 94.384 42.0107 94.384 41.4704C94.384 40.7515 94.0346 40.1164 93.599 39.6808C93.1634 39.2452 92.5282 38.8958 91.8093 38.8958C91.7793 38.8958 91.7132 38.8813 91.6167 38.8602C90.9577 38.7162 88.8797 38.2619 87.1656 39.976C85.8228 41.3188 84.9221 42.7735 84.6163 43.3852ZM54.2969 84.4377C55.3826 86.7041 56.2643 89.2666 56.6857 91.8438C56.1192 91.1154 55.4715 90.3241 54.7248 89.5774C54.3689 89.2215 54.0038 88.7304 53.6044 88.1589C53.5204 88.0387 53.4343 87.914 53.3466 87.787C53.039 87.3414 52.7122 86.8682 52.3915 86.4658C51.9976 85.9713 51.482 85.4078 50.8473 85.1391C50.4996 84.9919 50.0939 84.9231 49.6619 85.0192C49.2376 85.1137 48.881 85.3465 48.5867 85.6408C47.7549 86.4726 47.6892 87.5402 47.9096 88.4655C48.124 89.3654 48.6307 90.2688 49.1699 91.0516C50.1885 92.5306 51.5201 93.8544 51.9975 94.3289C52.0296 94.3609 52.0579 94.389 52.0819 94.413C52.3329 94.6639 52.6538 94.9134 52.9621 95.1499C53.0073 95.1847 53.053 95.2196 53.0991 95.2549C53.3842 95.473 53.6859 95.7039 54.0083 95.9724C54.7483 96.5883 55.5744 97.3844 56.3408 98.5084C57.6961 100.496 58.7653 101.334 59.7984 101.489C60.1871 101.547 60.5181 101.494 60.7219 101.449C61.186 101.695 61.6799 101.59 61.9408 101.499C62.2906 101.376 62.6113 101.161 62.844 100.984C63.0635 100.817 63.2619 100.641 63.4117 100.5H67.3237C67.656 100.811 67.9423 101.059 68.1893 101.243C68.3485 101.362 68.5119 101.471 68.6772 101.555C68.8348 101.635 69.0518 101.723 69.3061 101.739C69.5926 101.758 69.9045 101.682 70.1667 101.466C70.4009 101.272 70.5124 101.034 70.5683 100.877C70.6695 100.592 70.6908 100.259 70.7036 100.06L70.704 100.054C70.7071 100.006 70.71 99.9584 70.7129 99.9121C70.7409 99.4594 70.7636 99.0918 70.8884 98.7637C70.9949 98.4838 71.1685 98.2511 71.6217 98.1175C76.525 96.6719 78.9325 93.5077 79.8521 90.4413C80.3058 88.9283 80.3958 87.4476 80.259 86.2198C80.1906 85.6058 80.0636 85.0385 79.8863 84.5518C79.7141 84.0794 79.4712 83.6186 79.1319 83.2794C78.5006 82.6481 77.709 82.4316 76.919 82.4843C76.165 82.5346 75.4052 82.8263 74.703 83.2044C73.2953 83.9624 71.8359 85.2245 70.6318 86.4286C69.2049 87.8556 68.7749 89.9359 68.4884 91.3683C68.4769 91.426 68.4656 91.4825 68.4546 91.5378C68.3774 91.9249 68.3122 92.2515 68.2465 92.5256C68.0699 91.7756 67.9561 90.7241 67.9094 89.5561C67.8617 88.3639 67.8857 87.0983 67.9689 85.9928C68.054 84.8623 68.1954 83.9819 68.3509 83.5153C68.7226 82.4002 69.663 80.1473 71.1502 78.1954C72.6511 76.2255 74.5574 74.7512 76.8502 74.7512C79.7332 74.7512 81.5563 74.1352 82.6801 73.2611C83.8166 72.3772 84.1488 71.2949 84.1488 70.6019C84.1488 70.5687 84.1518 70.5312 84.1584 70.4498C84.1612 70.4148 84.1647 70.3716 84.1689 70.3172C84.1805 70.166 84.1933 69.9642 84.185 69.7406C84.1682 69.2868 84.0636 68.7056 83.6672 68.1507C82.8741 67.0403 81.2398 66.4526 78.4248 66.4526C75.955 66.4526 73.6008 67.4751 71.7088 68.6747C70.6204 69.3649 69.6532 70.1337 68.8663 70.8503C68.7323 69.4404 68.7534 67.7661 69.1074 66.151C69.6362 63.7378 70.872 61.581 73.3197 60.4931C76.7519 58.9677 79.6104 58.3944 81.9353 58.0069C82.2245 57.9587 82.5099 57.9127 82.7898 57.8677C83.6189 57.7341 84.3997 57.6084 85.088 57.4554C86.016 57.2492 86.8965 56.9705 87.6401 56.4747C88.5923 55.8399 89.4072 55.2117 89.9171 54.4233C90.4688 53.5702 90.5996 52.6396 90.4362 51.5564C90.2231 50.1447 88.9667 49.0236 87.4147 48.4381C85.807 47.8316 83.6848 47.7006 81.2994 48.3822C78.4742 49.1894 76.2461 50.5832 74.6859 51.5593C74.6395 51.5883 74.5938 51.6169 74.5487 51.6451C73.8308 52.0938 73.3358 52.3934 72.9807 52.5475C72.9802 52.5287 72.98 52.5091 72.9801 52.4886C72.9812 52.2563 73.0191 51.9484 73.1103 51.5728C73.2925 50.8224 73.6686 49.8804 74.2665 48.8684C75.4611 46.847 77.4911 44.6302 80.4467 43.1524C83.7415 41.505 85.5207 39.5843 86.3285 37.738C87.1325 35.9001 86.9357 34.2113 86.4052 33.1502C86.1023 32.5445 85.4558 31.8797 84.6273 31.3601C83.7741 30.825 82.6485 30.3924 81.3223 30.3348C78.6142 30.217 75.3766 31.6597 72.1048 36.1585C68.8294 40.6621 67.4148 45.7507 66.7132 49.6592C66.4013 51.3968 66.2278 52.9188 66.0989 54.0491C66.0827 54.1914 66.0671 54.3275 66.0521 54.457C66.0125 54.7989 65.978 55.0822 65.9452 55.3118C65.8393 55.2543 65.7385 55.169 65.6434 55.0423C65.2973 54.5808 64.8588 53.3463 65.2452 50.255C65.6219 47.2418 66.5626 44.7859 67.4478 42.5237C67.4781 42.4461 67.5085 42.3686 67.5389 42.2911C68.3725 40.1636 69.1896 38.0782 69.1896 35.9592V35.9492C69.1896 35.5284 69.1898 33.7989 68.5276 32.1432C68.1892 31.2974 67.6585 30.4198 66.8196 29.7517C65.9658 29.0719 64.8565 28.6606 63.4656 28.6606C60.6932 28.6606 59.0204 30.0798 58.0868 31.5969C57.1918 33.0514 56.9544 34.6148 56.9544 35.1718C56.9544 36.0143 56.9591 37.6318 57.7478 44.7302C58.0064 47.058 58.4309 49.2159 58.8865 51.0961C58.7813 50.8828 58.6756 50.6718 58.5696 50.464C57.8915 49.1343 57.1833 47.8966 56.5051 46.9782C56.1676 46.5211 55.8115 46.1072 55.4436 45.798C55.0993 45.5086 54.6082 45.1944 54.0177 45.1944C51.7328 45.1944 50.3983 46.4733 49.974 47.3218C49.9528 47.3641 49.9347 47.4079 49.9198 47.4528C49.7547 47.9479 49.6046 48.7287 49.6982 49.5202C49.7936 50.327 50.1716 51.2943 51.2085 51.8128C52.0007 52.2088 52.6799 52.5528 53.3592 53.1471C54.0312 53.7351 54.7446 54.6081 55.4853 56.0895C57.0316 59.1822 58.529 63.7421 58.529 66.6648C58.529 68.2501 58.528 70.3614 58.3377 72.1698C58.2422 73.0771 58.1036 73.8577 57.9143 74.4362C57.82 74.7243 57.7235 74.9296 57.6353 75.0655C57.5569 75.1862 57.5079 75.2175 57.5055 75.2191C56.9111 75.5159 56.7029 75.416 56.599 75.3536C56.3763 75.2201 56.0896 74.8711 55.6995 74.0909C55.587 73.8658 55.4412 73.5534 55.2686 73.1837C54.9126 72.4208 54.4427 71.4138 53.9159 70.4261C53.1125 68.9196 52.0732 67.2428 50.7882 65.9577C49.1011 64.2707 46.4846 63.0147 44.1226 64.1957C43.482 64.516 41.3866 65.7597 41.4529 68.2909C41.4854 69.5296 42.0456 70.9106 43.2953 72.4474C44.5408 73.9792 46.5167 75.7233 49.5022 77.716C50.8897 78.7672 52.7609 81.2314 54.2969 84.4377ZM67.9709 93.3107C67.9707 93.3098 67.9749 93.3035 67.9836 93.2947C67.9754 93.3072 67.971 93.3116 67.9709 93.3107ZM68.5508 93.3608C68.5508 93.361 68.549 93.359 68.5454 93.3543C68.5491 93.3583 68.5508 93.3606 68.5508 93.3608ZM38.0779 54.2637L39.0578 54.0678L38.0779 54.2637C38.3091 55.4195 38.7896 56.3034 39.4642 56.945C40.132 57.5803 40.9256 57.917 41.6877 58.0929C42.4439 58.2674 43.2022 58.2912 43.8398 58.2782C44.1535 58.2718 44.4496 58.256 44.7037 58.2425L44.7199 58.2416C44.9876 58.2274 45.1924 58.2169 45.3571 58.2169C45.7643 58.2169 46.3892 58.4027 47.0919 58.7192C47.7643 59.0221 48.3855 59.3879 48.739 59.6236C49.0459 59.8282 49.4404 59.8473 49.7656 59.6733C50.0908 59.4992 50.2937 59.1604 50.2937 58.7916C50.2937 55.2616 47.6835 50.8362 43.1913 49.9377C41.3817 49.5758 39.9319 49.9602 39.0001 50.9213C38.0984 51.8511 37.855 53.1488 38.0779 54.2637ZM73.6307 30.1751C73.7891 30.4391 74.0603 30.6155 74.366 30.6531C74.6716 30.6907 74.9775 30.5854 75.1953 30.3677C75.5705 29.9925 76.2181 29.3828 76.9215 28.7934C77.6413 28.1903 78.3535 27.6649 78.872 27.4057C79.0727 27.3053 79.315 27.1931 79.5785 27.071C80.1955 26.7851 80.9284 26.4456 81.5136 26.0799C82.3432 25.5613 83.3614 24.7109 83.3614 23.362C83.3614 22.6056 82.977 22.0176 82.5496 21.6072C82.1265 21.2011 81.5934 20.8984 81.0945 20.6767C80.1191 20.2432 78.9949 20 78.4248 20L78.4147 20C77.576 20 74.7404 19.9998 72.8688 22.8073C72.0142 24.0891 72.0728 25.6695 72.3498 26.9407C72.6331 28.2411 73.1923 29.4445 73.6307 30.1751ZM75.1656 63.8613C74.9566 64.2859 75.0739 64.7993 75.4473 65.091C75.8224 65.3839 76.3519 65.3719 76.7134 65.0623C77.6198 64.2858 78.5591 63.8316 79.3039 63.9806C79.9321 64.1062 80.5073 64.2118 81.0108 64.2696C81.5038 64.3262 82.0016 64.3466 82.4513 64.2599C82.9262 64.1683 83.4095 63.943 83.7455 63.4699C84.0615 63.025 84.1488 62.4963 84.1488 62C84.1488 61.325 84.0176 60.7188 83.697 60.2001C83.3748 59.6787 82.9206 59.3423 82.4472 59.1056C81.6309 58.6974 80.5952 58.757 79.7032 58.9888C78.7718 59.2309 77.7941 59.7106 76.9913 60.3903C76.1323 61.1176 75.7196 61.9518 75.4891 62.6493C75.3843 62.9667 75.3155 63.2621 75.2647 63.4803L75.2546 63.5238C75.2271 63.6413 75.2073 63.7236 75.1884 63.7896C75.1744 63.839 75.1662 63.8593 75.1656 63.8613Z" stroke="black" stroke-width="2" stroke-linejoin="round"/>
<mask id="mask0_228_291" style="mask-type:alpha" maskUnits="userSpaceOnUse" x="27" y="71" width="74" height="33">
<path d="M99.5 87.5C99.5 89.2918 98.6919 91.1107 97.004 92.8903C95.3087 94.6777 92.785 96.3556 89.552 97.7973C83.0897 100.679 74.057 102.5 64 102.5C53.943 102.5 44.9103 100.679 38.448 97.7973C35.215 96.3556 32.6913 94.6777 30.996 92.8903C29.3081 91.1107 28.5 89.2918 28.5 87.5C28.5 85.7082 29.3081 83.8893 30.996 82.1097C32.6913 80.3223 35.215 78.6444 38.448 77.2027C44.9103 74.3209 53.943 72.5 64 72.5C74.057 72.5 83.0897 74.3209 89.552 77.2027C92.785 78.6444 95.3087 80.3223 97.004 82.1097C98.6919 83.8893 99.5 85.7082 99.5 87.5Z" fill="black" stroke="white" stroke-width="3"/>
</mask>
<g mask="url(#mask0_228_291)">
<g filter="url(#filter2_i_228_291)">
<path d="M90.2347 43.0451C88.9749 43.0451 86.5605 43.57 85.5107 43.8324C85.7731 43.3075 86.613 41.9428 87.8727 40.6831C89.4473 39.1085 91.022 39.8958 91.8093 39.8958C92.5966 39.8958 93.384 40.6831 93.384 41.4704C93.384 42.2578 91.8093 43.0451 90.2347 43.0451Z" fill="#54B3F3"/>
<path d="M67.724 110.5C71.3389 114 68.1896 99.0868 71.3389 97.1583C79.4519 92.1903 79.9995 85.5611 78.4248 83.9865C76.8502 82.4118 73.7009 84.7738 71.3389 87.1358C68.9769 89.4977 69.7642 94.2216 68.1896 94.2216C66.6149 94.2216 66.6149 85.561 67.4023 83.1991C68.1896 80.8371 71.3389 73.7512 76.8502 73.7512C82.3614 73.7512 83.1488 71.3892 83.1488 70.6019C83.1488 69.8145 83.9361 67.4526 78.4248 67.4526C74.0158 67.4526 69.7642 71.1267 68.1896 72.9638C67.4023 69.5521 67.2448 62.0988 72.9135 59.5793C79.9995 56.43 84.7234 57.2173 87.0854 55.6427C88.975 54.383 89.7204 53.515 89.4473 51.7057C89.1743 49.8963 85.9831 48.084 81.5741 49.3437C76.0628 50.9183 72.9135 54.8551 72.1262 53.2805C71.3389 51.7058 73.7009 45.4073 79.9995 42.258C86.2981 39.1087 86.2981 35.172 85.5107 33.5974C84.7234 32.0227 79.2121 28.0861 72.9135 36.7467C66.6149 45.4073 67.4023 56.4296 66.6149 56.4296C65.8276 56.4296 63.4656 56.4296 64.253 50.131C65.0403 43.8324 68.1896 39.8958 68.1896 35.9592C68.1896 35.1718 68.1896 29.6606 63.4656 29.6606C58.7417 29.6606 57.9544 34.3845 57.9544 35.1718C57.9544 35.9592 57.9543 37.5338 58.7417 44.6197C59.529 51.7057 61.891 57.2169 61.891 58.0043C61.891 58.6341 61.3661 58.7916 61.1037 58.7916C59.529 54.5925 55.9073 46.1944 54.0177 46.1944C52.1282 46.1944 51.1309 47.2442 50.8684 47.769C50.606 48.5564 50.396 50.2885 51.6558 50.9183C53.2304 51.7057 54.8051 52.493 56.3797 55.6423C57.9544 58.7916 59.529 63.5155 59.529 66.6648C59.529 69.8141 59.529 75.3254 57.9544 76.1127C56.3797 76.9 55.5924 76.1127 54.8051 74.5381C54.0177 72.9634 52.443 69.0268 50.0811 66.6648C48.5064 65.0902 46.3499 64.2001 44.5698 65.0902C43.3854 65.6824 38.2712 69.0268 50.0811 76.9C53.2304 79.262 57.9543 87.4502 57.9543 95.0085C56.9046 93.9587 55.7158 91.9826 54.0177 90.2846C52.3197 88.5865 50.8684 84.7733 49.2938 86.3479C47.2865 88.3552 52.0017 92.9186 52.7891 93.7059C53.5764 94.4932 55.5 96.5 57.167 98.9451C59.8296 102.851 60.6037 111 61.1037 111.5C61.6037 112 63 110.5 63 110.5H67.724Z" fill="#54B3F3"/>
<path d="M39.0585 54.0676C38.7175 52.3626 39.8458 50.2885 42.9951 50.9183C46.9318 51.7057 49.2937 55.6423 49.2937 58.7916C48.5064 58.2667 46.6168 57.2169 45.3571 57.2169C43.7825 57.2169 39.8458 58.0042 39.0585 54.0676Z" fill="#54B3F3"/>
<path d="M74.4882 29.6606C75.2755 28.8732 77.1651 27.1411 78.4248 26.5113C79.9994 25.7239 82.3614 24.9366 82.3614 23.362C82.3614 21.7873 79.2121 21 78.4248 21C77.6375 21 75.2755 21 73.7008 23.362C72.4411 25.2516 73.7008 28.3484 74.4882 29.6606Z" fill="#54B3F3"/>
<path d="M78.4248 63.5155C77.1651 63.5155 77.1126 64.0404 76.0628 64.3028C76.3252 63.778 76.044 61.9503 77.6375 61.1535C79.2121 60.3662 79.9994 60.3662 80.7868 60.3662C81.5741 60.3662 82.3614 60.8471 82.3614 61.9409C82.3614 63.5155 79.9994 63.5155 78.4248 63.5155Z" fill="#54B3F3"/>
</g>
<path d="M84.6163 43.3852C84.4416 43.7345 84.4863 44.1535 84.7307 44.4581C84.975 44.7628 85.3744 44.8973 85.7532 44.8026C86.2603 44.6758 87.1057 44.4836 87.9747 44.3239C88.863 44.1606 89.7036 44.0451 90.2347 44.0451C91.1737 44.0451 92.1145 43.8137 92.847 43.4474C93.2127 43.2646 93.5674 43.0277 93.8444 42.7309C94.1161 42.4397 94.384 42.0107 94.384 41.4704C94.384 40.7515 94.0346 40.1164 93.599 39.6808C93.1634 39.2452 92.5282 38.8958 91.8093 38.8958C91.7793 38.8958 91.7132 38.8813 91.6167 38.8602C90.9577 38.7162 88.8797 38.2619 87.1656 39.976C85.8228 41.3188 84.9221 42.7735 84.6163 43.3852ZM54.2969 84.4377C55.3826 86.7041 56.2643 89.2666 56.6857 91.8438C56.1192 91.1154 55.4715 90.3241 54.7248 89.5774C54.3689 89.2215 54.0038 88.7304 53.6044 88.1589C53.5204 88.0387 53.4343 87.914 53.3466 87.787C53.039 87.3414 52.7122 86.8682 52.3915 86.4658C51.9976 85.9713 51.482 85.4078 50.8473 85.1391C50.4996 84.9919 50.0939 84.9231 49.6619 85.0192C49.2376 85.1137 48.881 85.3465 48.5867 85.6408C47.7549 86.4726 47.6892 87.5402 47.9096 88.4655C48.124 89.3654 48.6307 90.2688 49.1699 91.0516C50.1885 92.5306 51.5201 93.8544 51.9975 94.3289C52.0296 94.3609 52.0579 94.389 52.0819 94.413C52.8507 95.1817 54.7246 97.1379 56.3408 99.5084C57.5536 101.287 58.3813 104.128 58.9712 106.721C59.1852 107.662 59.3617 108.539 59.5149 109.3C59.5703 109.576 59.6226 109.836 59.6726 110.078C59.7648 110.526 59.8515 110.926 59.9339 111.235C59.9748 111.388 60.0205 111.542 60.0726 111.678C60.1081 111.77 60.2017 112.012 60.3965 112.207C60.9356 112.746 61.6173 112.612 61.9408 112.499C62.2906 112.376 62.6113 112.161 62.844 111.984C63.0635 111.817 63.2619 111.641 63.4117 111.5H67.3461C67.5222 111.641 67.7072 111.763 67.9015 111.854C68.2256 112.006 68.6331 112.096 69.0647 111.972C69.4931 111.848 69.7801 111.561 69.9615 111.289C70.139 111.024 70.2535 110.72 70.3339 110.433C70.4945 109.86 70.5756 109.14 70.6239 108.389C70.673 107.626 70.6914 106.763 70.7059 105.881C70.7082 105.741 70.7104 105.6 70.7127 105.458C70.7389 103.799 70.7657 102.1 70.9459 100.674C71.0435 99.9023 71.1803 99.2635 71.3625 98.7838C71.5502 98.2895 71.7401 98.0852 71.8611 98.0111C76.0798 95.4278 78.4046 92.3657 79.4478 89.6596C79.9674 88.3118 80.1725 87.0418 80.1217 85.9632C80.0725 84.9178 79.7731 83.9205 79.1319 83.2794C78.5006 82.6481 77.709 82.4316 76.919 82.4843C76.165 82.5346 75.4052 82.8263 74.703 83.2044C73.2953 83.9624 71.8359 85.2245 70.6318 86.4286C69.2049 87.8556 68.7749 89.9359 68.4884 91.3683C68.4769 91.426 68.4656 91.4825 68.4546 91.5378C68.3774 91.9249 68.3122 92.2515 68.2465 92.5256C68.0699 91.7756 67.9561 90.7241 67.9094 89.5561C67.8617 88.3639 67.8857 87.0983 67.9689 85.9928C68.054 84.8623 68.1954 83.9819 68.3509 83.5153C68.7226 82.4002 69.663 80.1473 71.1502 78.1954C72.6511 76.2255 74.5574 74.7512 76.8502 74.7512C79.7332 74.7512 81.5563 74.1352 82.6801 73.2611C83.8166 72.3772 84.1488 71.2949 84.1488 70.6019C84.1488 70.5687 84.1518 70.5312 84.1584 70.4498C84.1612 70.4148 84.1647 70.3716 84.1689 70.3172C84.1805 70.166 84.1933 69.9642 84.185 69.7406C84.1682 69.2868 84.0636 68.7056 83.6672 68.1507C82.8741 67.0403 81.2398 66.4526 78.4248 66.4526C75.955 66.4526 73.6008 67.4751 71.7088 68.6747C70.6204 69.3649 69.6532 70.1337 68.8663 70.8503C68.7323 69.4404 68.7534 67.7661 69.1074 66.151C69.6362 63.7378 70.872 61.581 73.3197 60.4931C76.7519 58.9677 79.6104 58.3944 81.9353 58.0069C82.2245 57.9587 82.5099 57.9127 82.7898 57.8677C83.6189 57.7341 84.3997 57.6084 85.088 57.4554C86.016 57.2492 86.8965 56.9705 87.6401 56.4747C88.5923 55.8399 89.4072 55.2117 89.9171 54.4233C90.4688 53.5702 90.5996 52.6396 90.4362 51.5564C90.2231 50.1447 88.9667 49.0236 87.4147 48.4381C85.807 47.8316 83.6848 47.7006 81.2994 48.3822C78.4742 49.1894 76.2461 50.5832 74.6859 51.5593C74.6395 51.5883 74.5938 51.6169 74.5487 51.6451C73.8308 52.0938 73.3358 52.3934 72.9807 52.5475C72.9802 52.5287 72.98 52.5091 72.9801 52.4886C72.9812 52.2563 73.0191 51.9484 73.1103 51.5728C73.2925 50.8224 73.6686 49.8804 74.2665 48.8684C75.4611 46.847 77.4911 44.6302 80.4467 43.1524C83.7415 41.505 85.5207 39.5843 86.3285 37.738C87.1325 35.9001 86.9357 34.2113 86.4052 33.1502C86.1023 32.5445 85.4558 31.8797 84.6273 31.3601C83.7741 30.825 82.6485 30.3924 81.3223 30.3348C78.6142 30.217 75.3766 31.6597 72.1048 36.1585C68.8294 40.6621 67.4148 45.7507 66.7132 49.6592C66.4013 51.3968 66.2278 52.9188 66.0989 54.0491C66.0827 54.1914 66.0671 54.3275 66.0521 54.457C66.0125 54.7989 65.978 55.0822 65.9452 55.3118C65.8393 55.2543 65.7385 55.169 65.6434 55.0423C65.2973 54.5808 64.8588 53.3463 65.2452 50.255C65.6219 47.2418 66.5626 44.7859 67.4478 42.5237C67.4781 42.4461 67.5085 42.3686 67.5389 42.2911C68.3725 40.1636 69.1896 38.0782 69.1896 35.9592V35.9492C69.1896 35.5284 69.1898 33.7989 68.5276 32.1432C68.1892 31.2974 67.6585 30.4198 66.8196 29.7517C65.9658 29.0719 64.8565 28.6606 63.4656 28.6606C60.6932 28.6606 59.0204 30.0798 58.0868 31.5969C57.1918 33.0514 56.9544 34.6148 56.9544 35.1718C56.9544 36.0143 56.9591 37.6318 57.7478 44.7302C58.0064 47.058 58.4309 49.2159 58.8865 51.0961C58.7813 50.8828 58.6756 50.6718 58.5696 50.464C57.8915 49.1343 57.1833 47.8966 56.5051 46.9782C56.1676 46.5211 55.8115 46.1072 55.4436 45.798C55.0993 45.5086 54.6082 45.1944 54.0177 45.1944C51.7328 45.1944 50.3983 46.4733 49.974 47.3218C49.9528 47.3641 49.9347 47.4079 49.9198 47.4528C49.7547 47.9479 49.6046 48.7287 49.6982 49.5202C49.7936 50.327 50.1716 51.2943 51.2085 51.8128C52.0007 52.2088 52.6799 52.5528 53.3592 53.1471C54.0312 53.7351 54.7446 54.6081 55.4853 56.0895C57.0316 59.1822 58.529 63.7421 58.529 66.6648C58.529 68.2501 58.528 70.3614 58.3377 72.1698C58.2422 73.0771 58.1036 73.8577 57.9143 74.4362C57.82 74.7243 57.7235 74.9296 57.6353 75.0655C57.5569 75.1862 57.5079 75.2175 57.5055 75.2191C56.9111 75.5159 56.7029 75.416 56.599 75.3536C56.3763 75.2201 56.0896 74.8711 55.6995 74.0909C55.587 73.8658 55.4412 73.5534 55.2686 73.1837C54.9126 72.4208 54.4427 71.4138 53.9159 70.4261C53.1125 68.9196 52.0732 67.2428 50.7882 65.9577C49.1011 64.2707 46.4846 63.0147 44.1226 64.1957C43.482 64.516 41.3866 65.7597 41.4529 68.2909C41.4854 69.5296 42.0456 70.9106 43.2953 72.4474C44.5408 73.9792 46.5167 75.7233 49.5022 77.716C50.8897 78.7672 52.7609 81.2314 54.2969 84.4377ZM67.9709 93.3107C67.9707 93.3098 67.9749 93.3035 67.9836 93.2947C67.9754 93.3072 67.971 93.3116 67.9709 93.3107ZM68.5508 93.3608C68.5508 93.361 68.549 93.359 68.5454 93.3543C68.5491 93.3583 68.5508 93.3606 68.5508 93.3608ZM38.0779 54.2637L39.0578 54.0678L38.0779 54.2637C38.3091 55.4195 38.7896 56.3034 39.4642 56.945C40.132 57.5803 40.9256 57.917 41.6877 58.0929C42.4439 58.2674 43.2022 58.2912 43.8398 58.2782C44.1535 58.2718 44.4496 58.256 44.7037 58.2425L44.7199 58.2416C44.9876 58.2274 45.1924 58.2169 45.3571 58.2169C45.7643 58.2169 46.3892 58.4027 47.0919 58.7192C47.7643 59.0221 48.3855 59.3879 48.739 59.6236C49.0459 59.8282 49.4404 59.8473 49.7656 59.6733C50.0908 59.4992 50.2937 59.1604 50.2937 58.7916C50.2937 55.2616 47.6835 50.8362 43.1913 49.9377C41.3817 49.5758 39.9319 49.9602 39.0001 50.9213C38.0984 51.8511 37.855 53.1488 38.0779 54.2637ZM73.6307 30.1751C73.7891 30.4391 74.0603 30.6155 74.366 30.6531C74.6716 30.6907 74.9775 30.5854 75.1953 30.3677C75.5705 29.9925 76.2181 29.3828 76.9215 28.7934C77.6413 28.1903 78.3535 27.6649 78.872 27.4057C79.0727 27.3053 79.315 27.1931 79.5785 27.071C80.1955 26.7851 80.9284 26.4456 81.5136 26.0799C82.3432 25.5613 83.3614 24.7109 83.3614 23.362C83.3614 22.6056 82.977 22.0176 82.5496 21.6072C82.1265 21.2011 81.5934 20.8984 81.0945 20.6767C80.1191 20.2432 78.9949 20 78.4248 20L78.4147 20C77.576 20 74.7404 19.9998 72.8688 22.8073C72.0142 24.0891 72.0728 25.6695 72.3498 26.9407C72.6331 28.2411 73.1923 29.4445 73.6307 30.1751ZM75.1513 63.8915C74.997 64.2333 75.0467 64.6343 75.2828 64.9286C75.5271 65.2332 75.9265 65.3677 76.3053 65.273C76.8801 65.1293 77.2731 64.9019 77.5189 64.7597C77.5653 64.7329 77.6064 64.709 77.6426 64.6894C77.8146 64.5959 77.9798 64.5155 78.4248 64.5155L78.479 64.5155C79.2322 64.5157 80.318 64.5159 81.2261 64.2888C81.6964 64.1713 82.219 63.9704 82.6367 63.5945C83.0902 63.1864 83.3614 62.6224 83.3614 61.9409C83.3614 61.1327 83.0596 60.4536 82.5258 59.9891C82.0146 59.5442 81.3725 59.3662 80.7868 59.3662H80.7688C80.3769 59.3662 79.9007 59.3662 79.3112 59.4841C78.7133 59.6036 78.038 59.8353 77.1902 60.2591C76.045 60.8318 75.5874 61.7925 75.3832 62.5786C75.2913 62.932 75.2448 63.2723 75.2117 63.5149C75.2093 63.5321 75.207 63.5489 75.2048 63.5651C75.1866 63.6978 75.1736 63.7852 75.1602 63.8517C75.1564 63.8704 75.1534 63.8834 75.1513 63.8915Z" stroke="black" stroke-width="2" stroke-linejoin="round"/>
</g>
<defs>
<filter id="filter0_i_228_291" x="32.0021" y="15.9999" width="66.3818" height="91.1056" filterUnits="userSpaceOnUse" color-interpolation-filters="sRGB">
<feFlood flood-opacity="0" result="BackgroundImageFix"/>
<feBlend mode="normal" in="SourceGraphic" in2="BackgroundImageFix" result="shape"/>
<feColorMatrix in="SourceAlpha" type="matrix" values="0 0 0 0 0 0 0 0 0 0 0 0 0 0 0 0 0 0 127 0" result="hardAlpha"/>
<feOffset dx="-3" dy="4"/>
<feGaussianBlur stdDeviation="1"/>
<feComposite in2="hardAlpha" operator="arithmetic" k2="-1" k3="1"/>
<feColorMatrix type="matrix" values="0 0 0 0 0.0252778 0 0 0 0 0.390963 0 0 0 0 0.733056 0 0 0 0.62 0"/>
<feBlend mode="normal" in2="shape" result="effect1_innerShadow_228_291"/>
</filter>
<filter id="filter1_i_228_291" x="35.0009" y="19" width="60.3831" height="85.7418" filterUnits="userSpaceOnUse" color-interpolation-filters="sRGB">
<feFlood flood-opacity="0" result="BackgroundImageFix"/>
<feBlend mode="normal" in="SourceGraphic" in2="BackgroundImageFix" result="shape"/>
<feColorMatrix in="SourceAlpha" type="matrix" values="0 0 0 0 0 0 0 0 0 0 0 0 0 0 0 0 0 0 127 0" result="hardAlpha"/>
<feOffset dx="-3" dy="4"/>
<feGaussianBlur stdDeviation="1"/>
<feComposite in2="hardAlpha" operator="arithmetic" k2="-1" k3="1"/>
<feColorMatrix type="matrix" values="0 0 0 0 0.0252778 0 0 0 0 0.390963 0 0 0 0 0.733056 0 0 0 0.62 0"/>
<feBlend mode="normal" in2="shape" result="effect1_innerShadow_228_291"/>
</filter>
<filter id="filter2_i_228_291" x="35.0009" y="19" width="60.3831" height="96.6003" filterUnits="userSpaceOnUse" color-interpolation-filters="sRGB">
<feFlood flood-opacity="0" result="BackgroundImageFix"/>
<feBlend mode="normal" in="SourceGraphic" in2="BackgroundImageFix" result="shape"/>
<feColorMatrix in="SourceAlpha" type="matrix" values="0 0 0 0 0 0 0 0 0 0 0 0 0 0 0 0 0 0 127 0" result="hardAlpha"/>
<feOffset dx="-3" dy="4"/>
<feGaussianBlur stdDeviation="1"/>
<feComposite in2="hardAlpha" operator="arithmetic" k2="-1" k3="1"/>
<feColorMatrix type="matrix" values="0 0 0 0 0.0252778 0 0 0 0 0.390963 0 0 0 0 0.733056 0 0 0 0.62 0"/>
<feBlend mode="normal" in2="shape" result="effect1_innerShadow_228_291"/>
</filter>
</defs>
</svg>
