<svg width="128" height="128" viewBox="0 0 128 128" fill="none" xmlns="http://www.w3.org/2000/svg">
<circle cx="64" cy="64" r="64" fill="#3C4043"/>
<path d="M61.3298 86.6282L58.8823 86.1188C59.0911 85.1152 59.8916 84.3408 60.9015 84.1652C61.3637 84.0848 61.8269 84.1373 62.2447 84.3016C62.263 83.7021 62.3163 83.1556 62.4287 82.5958C62.5705 81.8896 62.7898 81.2499 63.0406 80.5704C63.543 79.2103 64.221 78.3174 64.8053 77.6072C64.8971 77.4956 64.9836 77.3916 65.0655 77.2931C65.5034 76.7665 65.8112 76.3964 66.1233 75.8374C66.4962 75.1694 66.9499 74.2279 67.3267 73.4124C67.5112 73.0131 67.6704 72.6591 67.7833 72.4052C67.8397 72.2785 67.8843 72.1771 67.9145 72.1081L67.9488 72.0299L67.9571 72.0107L67.959 72.0064L67.9593 72.0057L67.9594 72.0056L67.9594 72.0056C68.3783 71.0392 69.3581 70.4391 70.4093 70.5049C71.4606 70.5707 72.3578 71.2884 72.6529 72.2996L70.2531 73C72.6529 72.2996 72.653 72.2998 72.6531 72.3001L72.6533 72.3007L72.6537 72.3021L72.6548 72.3059L72.6582 72.3176L72.6693 72.3563C72.6785 72.3888 72.6914 72.4345 72.7074 72.4922C72.7394 72.6076 72.7839 72.7714 72.8365 72.9741C72.9414 73.3782 73.0801 73.943 73.2166 74.59C73.4777 75.8279 73.7767 77.5758 73.725 79.0883C73.723 79.1483 73.72 79.2077 73.716 79.2665C74.4669 78.8369 75.4109 78.8162 76.1977 79.2655C77.2399 79.8606 77.7121 81.1123 77.3229 82.2474C77.3227 82.248 77.3225 82.2485 77.3223 82.2491M61.3298 86.6282L73.5629 80.2455C73.5629 80.2455 73.5629 80.2455 73.5629 80.2455C73.8435 80.4851 74.2798 80.8576 74.958 81.4365M61.3298 86.6282C61.3298 86.6282 62.4033 88.381 63.5113 88.8584M61.3298 86.6282C61.8063 86.7274 62.19 86.8072 62.499 86.8715M77.3223 82.2491L74.958 81.4365M77.3223 82.2491L77.3224 82.2486C77.3224 82.2488 77.3223 82.2491 74.958 81.4365M77.3223 82.2491L77.319 82.2588L77.3007 82.3138C77.284 82.3648 77.2587 82.4429 77.2276 82.5428C77.165 82.7438 77.0805 83.0277 76.9945 83.3536C76.8482 83.9083 76.726 84.48 76.6719 84.9446M74.958 81.4365C76.8594 83.0597 76.8594 83.0597 76.8593 83.0598L76.8592 83.06L76.8588 83.0604L76.8578 83.0616L76.8546 83.0654L76.8434 83.0784L76.8031 83.1253C76.7687 83.1653 76.7194 83.2223 76.6578 83.293C76.5351 83.434 76.3626 83.6304 76.1621 83.8539C75.8094 84.2473 75.3406 84.7577 74.895 85.1997C74.8472 85.2472 74.7996 85.2939 74.7524 85.3395C74.752 85.3402 74.7223 85.3724 74.6359 85.4892C74.6268 85.5014 74.6145 85.5183 74.5995 85.5389C74.5148 85.6552 74.3438 85.89 74.1757 86.0847C74.1723 86.0886 74.1688 86.0926 74.1654 86.0965C74.2642 87.5587 74.6336 89.2241 74.6336 89.2241M74.958 81.4365C74.224 81.1842 73.7178 81.0103 73.3688 80.8904M74.958 81.4365L73.3688 80.8904M76.6719 84.9446C76.6155 84.9982 76.5369 85.0719 76.4405 85.1598C76.4055 85.1918 76.3683 85.2254 76.3293 85.2603C76.1224 85.4458 75.8626 85.6697 75.5794 85.8938C75.2359 86.1655 74.8975 86.4059 74.6037 86.5768C74.363 86.7168 74.2514 86.7514 74.252 86.7537C74.2523 86.7547 74.2722 86.75 74.3104 86.745L74.6336 89.2241M76.6719 84.9446C76.6795 84.9374 76.6866 84.9305 76.6934 84.9241C76.7219 84.8969 76.7429 84.8765 76.7556 84.8642L76.7678 84.8523L76.7682 84.8518C77.4159 84.2104 78.3613 83.9724 79.2355 84.2306C80.11 84.4889 80.7744 85.2027 80.9695 86.0934L78.5273 86.6282C77.6896 86.8117 77.1392 86.9322 76.7776 87.0114C76.6839 86.347 76.6262 85.7081 76.6446 85.2737C76.6489 85.1721 76.6582 85.0618 76.6719 84.9446ZM74.6336 89.2241C74.7366 89.2106 74.8443 89.1863 74.9556 89.1526C74.8533 89.1753 74.746 89.1991 74.6336 89.2241ZM73.3688 80.8904C72.5937 80.6241 72.5937 80.6243 72.5936 80.6244L72.5934 80.6249L72.593 80.6262L72.592 80.6292L72.5891 80.6376L72.5803 80.6637C72.5731 80.6852 72.5632 80.7147 72.5511 80.7516C72.5268 80.8253 72.4934 80.9288 72.4536 81.0565C72.3744 81.3109 72.2685 81.6667 72.1599 82.0782C72.1288 82.1961 72.0965 82.3223 72.0638 82.4553M73.3688 80.8904L73.0567 79.8133L73.0566 79.8134L73.0551 79.8151L73.0475 79.824L73.0148 79.862C72.9856 79.8959 72.9421 79.9462 72.887 80.0096C72.7765 80.1364 72.6204 80.3142 72.4395 80.5159C72.0682 80.93 71.6288 81.4043 71.2723 81.7494C70.9723 82.0399 70.7482 82.3373 70.6169 82.5145C70.5829 82.5605 70.5491 82.6068 70.523 82.6425C70.4948 82.6809 70.473 82.7107 70.4528 82.7376C70.4331 82.764 70.4187 82.7827 70.4079 82.7965L70.3959 82.8113C70.3932 82.8147 70.3919 82.8161 70.392 82.8161L70.397 82.8104C70.4003 82.8069 70.4053 82.8015 70.4121 82.7946C70.4256 82.7809 70.4475 82.7596 70.4778 82.7337C70.5384 82.6819 70.6394 82.6058 70.7818 82.5347C70.9288 82.4612 71.0997 82.4032 71.287 82.3745C71.4728 82.3461 71.6364 82.3525 71.7648 82.372C71.8084 82.3786 71.8549 82.3883 71.9035 82.4014C71.955 82.4153 72.0088 82.4331 72.0638 82.4553M73.3688 80.8904C73.3087 81.0594 73.2454 81.2171 73.1828 81.363C73.031 81.7167 72.7958 82.1761 72.6489 82.4632C72.598 82.5625 72.5577 82.6412 72.5351 82.6878C72.5275 82.7033 72.5204 82.7182 72.5136 82.7325C72.5143 82.7334 72.5149 82.7343 72.5156 82.7352C72.5445 82.7748 72.5571 82.7903 72.5571 82.7903C72.557 82.7903 72.5468 82.778 72.529 82.7597C72.5234 82.7539 72.517 82.7474 72.5098 82.7404C72.4669 82.8311 72.4397 82.8954 72.4229 82.938C72.4043 82.9849 72.3983 83.0052 72.3977 83.005C72.3971 83.0049 72.4018 82.9845 72.4048 82.9498C72.4056 82.9403 72.4063 82.9308 72.4067 82.9213C72.412 82.8179 72.3972 82.7154 72.3724 82.6256M73.3688 80.8904L72.3724 82.6256M72.0638 82.4553C72.0861 82.4643 72.1086 82.474 72.1312 82.4845C72.1616 82.4985 72.1923 82.514 72.223 82.5309C72.2801 82.5624 72.3299 82.5948 72.3724 82.6256M72.0638 82.4553C72.0566 82.4847 72.0494 82.5145 72.0421 82.5446C72.0416 82.5469 72.041 82.5491 72.0405 82.5514M72.3724 82.6256L71.661 84.8464C71.7152 84.0498 71.8789 83.2228 72.0405 82.5514M72.0405 82.5514L72.0453 82.5479L72.0405 82.5514ZM63.5113 88.8584L62.6263 87.676C62.6263 87.676 62.6263 87.6746 62.6264 87.672M63.5113 88.8584C63.5309 88.5993 63.5813 88.2328 63.6447 87.855C63.6787 87.6522 63.7121 87.4717 63.7372 87.3409C63.7376 87.3386 63.7381 87.3363 63.7385 87.334C63.7511 87.2687 63.7613 87.2171 63.7682 87.183L63.7757 87.1456L63.7774 87.1377L63.7774 87.1374C63.7774 87.1374 63.7774 87.1374 63.6364 87.1081C63.5227 87.0845 63.3176 87.0418 62.9471 86.9648M63.5113 88.8584L63.4605 85.3204L63.4599 85.3194L63.4586 85.3173L63.4627 85.3239C63.4691 85.3339 63.4811 85.3528 63.4983 85.3791C63.533 85.432 63.5874 85.5129 63.6573 85.6107C63.8023 85.8136 63.9901 86.0553 64.1889 86.2662C64.2868 86.3699 64.373 86.451 64.444 86.5098C64.5063 86.5614 64.5381 86.5802 64.538 86.5803C64.538 86.5803 64.5369 86.5797 64.5347 86.5785C64.5327 86.5775 64.0536 86.3305 63.4187 86.6056C63.3068 86.654 63.14 86.7525 62.9791 86.9286C62.9681 86.9406 62.9575 86.9527 62.9471 86.9648M62.499 86.8715C62.4998 86.8759 62.5007 86.8802 62.5016 86.8846C62.5553 87.1539 62.591 87.3327 62.614 87.5192C62.6253 87.6107 62.6264 87.6586 62.6264 87.672M62.499 86.8715C62.4778 86.7653 62.4538 86.645 62.4267 86.5049C62.3989 86.3605 62.3676 86.1934 62.3386 86.0104L62.6264 87.672M62.499 86.8715C62.6703 86.9072 62.8186 86.938 62.9471 86.9648M62.6264 87.672C62.6271 87.653 62.6334 87.5671 62.674 87.4435C62.7201 87.3034 62.8051 87.1306 62.9471 86.9648" fill="#FFBA17" stroke="white" stroke-width="5" stroke-linejoin="round"/>
<g filter="url(#filter0_i_228_439)">
<path d="M61.0053 89.2372C61.0362 88.3766 61.3298 86.9658 61.3298 86.9658C61.3298 86.9658 63.0756 89.8162 64.4124 89.2372C65.8007 88.6358 64.7369 86.6941 64.7369 85.1811C64.7369 83.7312 64.9017 83.0851 65.3858 81.7741C66.1075 79.82 67.2908 79.2125 68.3062 77.3936C69.1502 75.8816 70.2531 73.3376 70.2531 73.3376C70.2531 73.3376 71.3081 76.9524 71.2265 79.3405C71.1592 81.3107 69.1116 82.6605 70.2531 84.2077C70.5999 84.6778 70.8113 85.0933 71.3887 85.1811C72.1909 85.3032 72.4327 84.4432 73.0112 83.8832C73.8545 83.0668 74.958 81.7741 74.958 81.7741C74.958 81.7741 74.213 83.942 74.1468 85.5056C74.0807 87.0692 74.6336 89.5616 74.6336 89.5616C76.1003 89.3704 78.5273 86.9658 78.5273 86.9658C78.5273 86.9658 78.8207 88.3054 78.8518 89.166C79.0304 94.11 74.7125 98.0991 69.7663 97.9981C64.9211 97.8992 60.8315 94.0803 61.0053 89.2372Z" fill="#FFBA17"/>
</g>
<path d="M61.3298 86.9658L60.3508 86.762C60.4344 86.3606 60.7545 86.0508 61.1585 85.9806C61.5622 85.9104 61.9677 86.0935 62.1821 86.4426C62.1821 86.4427 62.1822 86.4428 62.1822 86.4429C62.1822 86.4429 62.1822 86.4429 62.1823 86.4429L62.1824 86.4432L62.1826 86.4435L62.184 86.4458L62.195 86.4632C62.2054 86.4796 62.2218 86.5054 62.2438 86.539C62.2879 86.6062 62.3537 86.704 62.437 86.8206C62.6057 87.0566 62.8369 87.3563 63.0975 87.6327C63.3667 87.9183 63.6224 88.1306 63.8339 88.2424C63.9443 88.3007 64.0034 88.3127 64.0269 88.3142C64.09 88.2855 64.0934 88.2715 64.097 88.2567C64.0976 88.2545 64.0981 88.2522 64.0989 88.2499C64.1244 88.1722 64.1435 88.0036 64.1028 87.6733C64.0725 87.4277 64.0222 87.176 63.9631 86.88C63.9428 86.7785 63.9215 86.6717 63.8995 86.5582C63.8204 86.1484 63.7369 85.6624 63.7369 85.1811C63.7369 84.4171 63.7802 83.8221 63.8994 83.2287C64.0171 82.6422 64.2022 82.0927 64.4478 81.4277C64.8652 80.2974 65.4221 79.556 65.9636 78.8978C66.0454 78.7984 66.1257 78.7021 66.2046 78.6074C66.6479 78.0755 67.0487 77.5947 67.433 76.9062C67.8354 76.1854 68.3089 75.2004 68.6884 74.3791C68.8765 73.9719 69.0387 73.6112 69.1538 73.3523C69.2114 73.223 69.257 73.1193 69.2882 73.0482L69.3238 72.9669L69.3328 72.9463L69.335 72.9412L69.3355 72.9401L69.3356 72.9399L61.3298 86.9658ZM61.3298 86.9658C60.3508 86.762 60.3508 86.7621 60.3508 86.7622L60.3508 86.7623L60.3507 86.7627L60.3504 86.7638L60.3496 86.7677L60.3468 86.7813L60.3367 86.8311C60.3282 86.8738 60.316 86.935 60.3015 87.0109C60.2723 87.1624 60.2332 87.3736 60.193 87.6132C60.1148 88.0788 60.0239 88.7013 60.006 89.2013C59.8096 94.6746 64.4176 98.8892 69.7459 98.9979C75.2073 99.1094 80.0525 94.7054 79.8511 89.1299C79.833 88.6276 79.7416 88.0214 79.663 87.5713C79.6226 87.3397 79.5833 87.1366 79.554 86.9912C79.5393 86.9184 79.5271 86.8596 79.5185 86.8186L79.5083 86.7707L79.5054 86.7575L79.5046 86.7537L79.5043 86.7525L79.5042 86.7521L79.5042 86.752C79.5042 86.7519 79.5042 86.7519 78.5273 86.9658L79.5042 86.7519C79.4262 86.3956 79.1604 86.1101 78.8106 86.0068C78.4609 85.9035 78.0827 85.9987 77.8237 86.2553L77.8235 86.2554L61.3298 86.9658ZM71.213 73.0574L70.2531 73.3376C71.213 73.0574 71.213 73.0575 71.2131 73.0576L71.2132 73.0579L71.2134 73.0588L71.2142 73.0615L71.2169 73.0709L71.2266 73.1048C71.235 73.134 71.2469 73.1763 71.2619 73.2305C71.2919 73.3387 71.3342 73.4946 71.3846 73.6885C71.4851 74.0759 71.6182 74.6177 71.7489 75.2371C72.0054 76.4536 72.2711 78.0532 72.2259 79.3746C72.1897 80.4352 71.6948 81.3857 71.3565 82.0354C71.2927 82.158 71.2345 82.2699 71.1859 82.3698C71.0066 82.7389 70.9262 82.9758 70.9104 83.1579C70.8989 83.2909 70.9172 83.4234 71.0578 83.614C71.1071 83.6809 71.153 83.7454 71.1933 83.8023L71.207 83.8215C71.2429 83.8721 71.2734 83.9151 71.3036 83.9566C71.3721 84.0505 71.4168 84.105 71.4522 84.1415C71.4698 84.1596 71.482 84.17 71.4895 84.1758C71.5001 84.1647 71.5126 84.151 71.5271 84.1342C71.5903 84.0611 71.647 83.9836 71.7306 83.8697C71.758 83.8323 71.7883 83.7909 71.8226 83.7445C71.945 83.5791 72.1088 83.3649 72.3156 83.1647C72.7112 82.7818 73.179 82.2757 73.5563 81.8549C73.7431 81.6467 73.9041 81.4633 74.0183 81.3322C74.0753 81.2666 74.1205 81.2143 74.1513 81.1786L74.1863 81.1379L74.195 81.1278L74.197 81.1254L74.1974 81.1249L74.1975 81.1248L71.213 73.0574ZM71.213 73.0574C71.095 72.6529 70.7361 72.3659 70.3156 72.3395C69.8951 72.3132 69.5032 72.5533 69.3356 72.9398L71.213 73.0574ZM64.0392 88.3135C64.0393 88.3139 64.0365 88.3146 64.03 88.3144C64.0358 88.313 64.039 88.3131 64.0392 88.3135Z" stroke="black" stroke-width="2" stroke-linejoin="round"/>
<path d="M53.0918 36.6615C52.9926 36.6666 52.893 36.6778 52.7934 36.6951C51.7834 36.8707 50.983 37.6451 50.7741 38.6488L53.1364 39.1404C50.7741 38.6488 50.7741 38.6489 50.774 38.649L50.774 38.6493L50.7739 38.6499L50.7735 38.6514L50.7727 38.6555L50.7702 38.6676L50.7621 38.7076C50.7554 38.7407 50.7463 38.7869 50.7354 38.8434C50.7138 38.9557 50.6848 39.1122 50.6549 39.2906C50.6007 39.6132 50.5218 40.1315 50.5052 40.5949C50.3319 45.4249 54.3761 48.9802 58.84 49.0714C63.4519 49.1655 67.6718 45.4477 67.4948 40.5465C67.4778 40.0772 67.3975 39.5671 67.3423 39.2507C67.3119 39.0762 67.2823 38.9238 67.2603 38.8145C67.2493 38.7594 67.2399 38.7144 67.233 38.6819L67.2246 38.6425L67.222 38.6303L67.2211 38.6261L67.2208 38.6246L67.2206 38.6239L67.2205 38.6236C67.2205 38.6235 67.2205 38.6233 64.7784 39.1582L67.2205 38.6233C67.0254 37.7327 66.361 37.0189 65.4866 36.7606C65.2231 36.6827 64.9532 36.65 64.6869 36.6598C64.6872 36.6587 64.6875 36.6576 64.6879 36.6565C64.7074 36.5939 64.723 36.5456 64.733 36.5151L64.7435 36.4835L64.7441 36.4819C64.7441 36.4817 64.7442 36.4816 64.7442 36.4815C64.7443 36.4813 64.7443 36.4812 64.7444 36.4811L64.7446 36.4804L64.7449 36.4793C64.745 36.4792 64.745 36.4791 64.745 36.479C65.1335 35.3442 64.6613 34.0932 63.6195 33.4983C63.2213 33.271 62.7829 33.164 62.3497 33.1694C62.2909 32.3351 62.1406 31.5094 62.0119 30.8992C61.917 30.4494 61.8207 30.0574 61.7478 29.7766C61.7112 29.6356 61.6801 29.5212 61.6576 29.4397C61.6463 29.399 61.6371 29.3664 61.6304 29.3428L61.6222 29.3142L61.6195 29.3051L61.6186 29.3019L61.6182 29.3006L61.6181 29.3C61.618 29.2998 61.6179 29.2996 59.2181 30L61.6179 29.2996C61.3228 28.2884 60.4256 27.5707 59.3743 27.5049C58.3231 27.4391 57.3433 28.0392 56.9244 29.0055L56.9243 29.0057M53.0918 36.6615L56.9243 29.0057M53.0918 36.6615C53.1096 36.5374 53.1309 36.4129 53.1561 36.287C53.2646 35.7469 53.4306 35.2677 53.6021 34.8033C53.9861 33.7636 54.5079 33.0808 54.9239 32.5751C54.9917 32.4927 55.0533 32.4185 55.1098 32.3504C55.3995 32.0014 55.5563 31.8126 55.7269 31.5071C55.9614 31.087 56.2554 30.4781 56.5072 29.9331C56.6291 29.6692 56.7345 29.435 56.8091 29.2671C56.8464 29.1833 56.8758 29.1165 56.8956 29.0713L56.9179 29.0204L56.9232 29.0083L56.9243 29.0058L56.9243 29.0057" fill="#FFBA17" stroke="white" stroke-width="5" stroke-linejoin="round"/>
<g filter="url(#filter1_i_228_439)">
<path d="M53.0036 40.6845C53.0243 40.1062 53.2216 39.1582 53.2216 39.1582C53.2216 39.1582 54.3948 41.0737 55.2931 40.6845C56.2261 40.2804 55.5112 38.9756 55.5112 37.9589C55.5112 36.9845 55.6219 36.5503 55.9473 35.6693C56.4322 34.3562 57.2274 33.9479 57.9097 32.7256C58.477 31.7096 59.2181 30 59.2181 30C59.2181 30 59.927 32.4291 59.8722 34.0339C59.827 35.3579 58.451 36.265 59.2181 37.3047C59.4511 37.6206 59.5932 37.8998 59.9812 37.9589C60.5203 38.0409 60.6827 37.463 61.0715 37.0867C61.6382 36.5381 62.3798 35.6693 62.3798 35.6693C62.3798 35.6693 61.8791 37.1262 61.8347 38.1769C61.7902 39.2277 62.1617 40.9026 62.1617 40.9026C63.1474 40.7741 64.7784 39.1582 64.7784 39.1582C64.7784 39.1582 64.9755 40.0584 64.9964 40.6367C65.1164 43.9591 62.2148 46.6398 58.891 46.5719C55.635 46.5054 52.8868 43.9391 53.0036 40.6845Z" fill="#FFBA17"/>
</g>
<path d="M53.2216 39.1582L52.2426 38.9544C52.3262 38.553 52.6463 38.2432 53.0503 38.1729C53.4538 38.1028 53.8592 38.2857 54.0736 38.6345C54.0738 38.6349 54.074 38.6352 54.0742 38.6355L54.0744 38.6359L54.0802 38.6451C54.0863 38.6548 54.0964 38.6705 54.1102 38.6915C54.1377 38.7336 54.1794 38.7956 54.2325 38.8699C54.3407 39.0212 54.4866 39.2099 54.6482 39.3813C54.6751 39.4099 54.7014 39.4369 54.727 39.4621C54.7113 39.3742 54.6926 39.2806 54.6715 39.1747C54.6575 39.1046 54.6424 39.0292 54.6264 38.9464C54.5729 38.6692 54.5112 38.3161 54.5112 37.9589C54.5112 37.4326 54.541 37.0095 54.6268 36.5823C54.7112 36.1619 54.843 35.773 55.0092 35.3229C55.3083 34.5131 55.709 33.9817 56.0823 33.5281C56.1394 33.4587 56.1946 33.3923 56.2483 33.3278C56.5453 32.9713 56.7942 32.6725 57.0366 32.2382C57.3006 31.7654 57.6144 31.113 57.8688 30.5623C57.9945 30.2904 58.1028 30.0495 58.1797 29.8766C58.2181 29.7903 58.2486 29.7211 58.2693 29.6738L58.2929 29.6198L58.2988 29.6063L58.3002 29.6031L58.3005 29.6024L58.3006 29.6023L53.2216 39.1582ZM53.2216 39.1582C52.2426 38.9544 52.2426 38.9545 52.2426 38.9545L52.2426 38.9546L52.2425 38.955L52.2423 38.9559L52.2417 38.9587L52.2397 38.9684L52.2327 39.003C52.2268 39.0325 52.2185 39.0746 52.2085 39.1266C52.1885 39.2302 52.1618 39.3748 52.1342 39.5389C52.0814 39.8535 52.0171 40.2898 52.0042 40.6486C51.8648 44.5334 55.1314 47.4954 58.8706 47.5717C62.7096 47.6501 66.1386 44.5545 65.9958 40.6006C65.9827 40.2394 65.9179 39.8136 65.8647 39.5086C65.8369 39.3496 65.8099 39.2103 65.7898 39.1105C65.7798 39.0605 65.7713 39.02 65.7653 38.9915L65.7582 38.9581L65.7562 38.9486L65.7555 38.9457L65.7553 38.9448L65.7553 38.9445L65.7552 38.9443C65.7552 38.9443 65.7552 38.9442 64.7784 39.1582L65.7552 38.9442C65.6772 38.588 65.4114 38.3024 65.0617 38.1991C64.712 38.0958 64.3338 38.1911 64.0747 38.4476L64.0745 38.4478L53.2216 39.1582ZM60.178 29.7198L59.2181 30C60.178 29.7198 60.178 29.7199 60.1781 29.72L60.1781 29.7203L60.1784 29.721L60.179 29.7231L60.1809 29.7299L60.1878 29.7537C60.1935 29.7741 60.2018 29.8032 60.2121 29.8404C60.2327 29.9147 60.2616 30.0212 60.2959 30.1534C60.3644 30.4174 60.4551 30.7865 60.5442 31.2088C60.7176 32.031 60.9034 33.1383 60.8716 34.0681C60.8444 34.865 60.4663 35.5863 60.2417 36.0147C60.2021 36.0903 60.1672 36.1568 60.14 36.213C60.0225 36.4547 59.9917 36.5684 59.9866 36.6276C59.9865 36.6288 59.9862 36.6299 59.986 36.6312C59.9841 36.6407 59.9814 36.6549 60.0228 36.711C60.0314 36.7228 60.04 36.7345 60.0483 36.7459C60.1299 36.6377 60.2397 36.5 60.376 36.3682C60.6333 36.1191 60.9414 35.786 61.1936 35.5047C61.3179 35.3662 61.425 35.2442 61.5009 35.157C61.5388 35.1134 61.5688 35.0787 61.5892 35.0551L61.6122 35.0283L61.6178 35.0218L61.619 35.0203L61.6192 35.0201L60.178 29.7198ZM60.178 29.7198C60.06 29.3154 59.7011 29.0283 59.2805 29.002M60.178 29.7198L59.2805 29.002M59.2805 29.002C58.8601 28.9756 58.4682 29.2157 58.3006 29.6022L59.2805 29.002ZM55.0956 39.7437C55.0956 39.7437 55.0952 39.7436 55.0944 39.7433L55.0956 39.7437ZM59.8067 37.0617C59.8067 37.0617 59.8072 37.0612 59.8082 37.0603C59.8072 37.0613 59.8067 37.0617 59.8067 37.0617ZM62.8757 34.8009C62.4586 34.5628 61.9311 34.6548 61.6193 35.02L63.3256 35.9942L63.3256 35.9941C63.3256 35.9941 63.3256 35.994 63.3256 35.994C63.4815 35.5399 63.2927 35.039 62.8757 34.8009Z" stroke="black" stroke-width="2" stroke-linejoin="round"/>
<path d="M90.6703 54.1354C90.4041 54.0929 90.1284 54.0932 89.8529 54.1406C88.8387 54.3152 88.0351 55.0935 87.8281 56.1016L90.2771 56.6044C87.8281 56.1016 87.8281 56.1017 87.8281 56.1019L87.828 56.1021L87.8279 56.1028L87.8276 56.1044L87.8266 56.109L87.8237 56.1232L87.8141 56.1714C87.8061 56.2117 87.7951 56.2683 87.7819 56.3378C87.7557 56.4761 87.7204 56.6688 87.6841 56.8882C87.617 57.2933 87.5251 57.9117 87.5061 58.45C87.3054 64.117 92.001 68.388 97.312 68.4979C102.79 68.6112 107.699 64.1434 107.494 58.3889C107.475 57.8447 107.381 57.2377 107.313 56.8421C107.276 56.6282 107.241 56.4412 107.214 56.3071C107.201 56.2397 107.189 56.1848 107.181 56.1454L107.171 56.0983L107.168 56.0841L107.167 56.0794L107.167 56.0777L107.167 56.077L107.167 56.0767C107.167 56.0766 107.167 56.0765 104.723 56.6044L107.167 56.0765C106.973 55.181 106.305 54.4632 105.426 54.2054C104.855 54.0377 104.253 54.0822 103.724 54.3126C103.755 54.1776 103.789 54.0402 103.824 53.9027C103.895 53.6311 103.964 53.3943 104.016 53.2269C104.041 53.1437 104.062 53.079 104.076 53.0372L104.09 52.9926L104.092 52.9864C104.092 52.9862 104.092 52.9861 104.093 52.986L104.093 52.9856L104.093 52.9849C104.093 52.9848 104.093 52.9846 104.093 52.9845C104.478 51.8467 103.999 50.5959 102.953 50.006C102.37 49.6775 101.703 49.6056 101.093 49.7647C101.079 48.5459 100.852 47.2302 100.655 46.2839C100.539 45.7268 100.421 45.2406 100.332 44.8926C100.287 44.7181 100.249 44.5767 100.222 44.4768C100.208 44.4269 100.197 44.3872 100.189 44.3588L100.18 44.3247L100.177 44.3142L100.176 44.3107L100.175 44.3093L100.175 44.3088C100.175 44.3085 100.175 44.3083 97.7726 45L100.175 44.3083C99.8824 43.2923 98.9824 42.5702 97.9272 42.5048C96.872 42.4394 95.8897 43.0448 95.474 44.0169C95.474 44.0169 95.474 44.017 95.4739 44.017M90.6703 54.1354L95.4739 44.017M90.6703 54.1354C90.7457 53.1006 90.9592 52.3599 91.3351 51.3279C91.7768 50.1156 92.375 49.3186 92.877 48.7001C92.9568 48.6018 93.0309 48.5113 93.1004 48.4266C93.4663 47.9803 93.7025 47.6923 93.9473 47.2477C94.2536 46.6915 94.63 45.9002 94.9459 45.2071C95.1001 44.869 95.2331 44.5692 95.3274 44.3542C95.3745 44.2468 95.4117 44.1611 95.4369 44.1029L95.4654 44.037L95.4722 44.021L95.4737 44.0175L95.4739 44.017" fill="#FFBA17" stroke="white" stroke-width="5" stroke-linejoin="round"/>
<g filter="url(#filter2_i_228_439)">
<path d="M90.0045 58.5384C90.0304 57.8057 90.2771 56.6044 90.2771 56.6044C90.2771 56.6044 91.7435 59.0315 92.8664 58.5384C94.0326 58.0264 93.139 56.373 93.139 55.0848C93.139 53.8501 93.2774 53.3 93.6841 52.1837C94.2903 50.5197 95.2843 50.0025 96.1372 48.4537C96.8462 47.1662 97.7726 45 97.7726 45C97.7726 45 98.6588 48.078 98.5903 50.1115C98.5337 51.7891 96.8137 52.9384 97.7726 54.2559C98.0639 54.6561 98.2415 55.0099 98.7265 55.0848C99.4004 55.1887 99.6034 54.4564 100.089 53.9796C100.798 53.2844 101.725 52.1837 101.725 52.1837C101.725 52.1837 101.099 54.0296 101.043 55.3611C100.988 56.6925 101.452 58.8147 101.452 58.8147C102.684 58.6519 104.723 56.6044 104.723 56.6044C104.723 56.6044 104.969 57.7451 104.996 58.4779C105.145 62.6876 101.518 66.0844 97.3637 65.9984C93.2937 65.9142 89.8585 62.6623 90.0045 58.5384Z" fill="#FFBA17"/>
</g>
<path d="M90.2771 56.6044L89.2975 56.4033C89.3803 56 89.7017 55.6887 90.1074 55.6189C90.5127 55.5491 90.9193 55.7346 91.1323 56.0862C91.1323 56.0862 91.1324 56.0862 91.1324 56.0863C91.1324 56.0864 91.1325 56.0865 91.1326 56.0867L91.1328 56.0869C91.1328 56.087 91.1329 56.0871 91.133 56.0873L91.1336 56.0883L91.1422 56.1022C91.1506 56.1156 91.164 56.1369 91.182 56.1647C91.2181 56.2206 91.2723 56.3022 91.341 56.3996C91.4804 56.5974 91.6703 56.8466 91.8829 57.0753C92.1044 57.3135 92.3054 57.4798 92.4602 57.5627C92.4615 57.5634 92.4627 57.5641 92.4639 57.5647C92.4686 57.4957 92.4672 57.3871 92.4473 57.2234C92.4225 57.0197 92.3817 56.8121 92.3324 56.5619C92.3152 56.4747 92.297 56.3822 92.278 56.283C92.2114 55.9333 92.139 55.5085 92.139 55.0848C92.139 53.7068 92.3081 53.0393 92.7445 51.8414C93.103 50.8572 93.5823 50.2113 94.0417 49.6453C94.1113 49.5595 94.1793 49.4768 94.2459 49.3958C94.6179 48.9433 94.9454 48.5448 95.2612 47.9713C95.5964 47.3626 95.9923 46.528 96.3108 45.8293C96.4685 45.4833 96.6045 45.1767 96.701 44.9568C96.7492 44.8469 96.7875 44.7589 96.8136 44.6985L96.8433 44.6296L96.8508 44.6121L96.8526 44.6079L96.853 44.607L96.8531 44.6068C96.8531 44.6068 96.8531 44.6068 96.8531 44.6068C97.0194 44.2179 97.4123 43.9758 97.8344 44.0019C98.2565 44.0281 98.6165 44.3169 98.7335 44.7233L97.7726 45C98.7335 44.7233 98.7336 44.7234 98.7336 44.7235L98.7337 44.7238L98.7339 44.7246L98.7346 44.727L98.7369 44.7352L98.7452 44.7645C98.7523 44.7897 98.7624 44.826 98.7751 44.8725C98.8005 44.9653 98.8362 45.0987 98.8787 45.2647C98.9636 45.5961 99.0759 46.0595 99.1862 46.5895C99.4021 47.6273 99.6282 49.0028 99.5897 50.1451C99.5581 51.083 99.1237 51.927 98.8404 52.4774C98.7881 52.5791 98.7409 52.6707 98.7024 52.751C98.5532 53.0622 98.4953 53.2448 98.4842 53.3736C98.4773 53.4547 98.4841 53.5341 98.5811 53.6674C98.6234 53.7256 98.6627 53.7815 98.6966 53.8299C98.7005 53.8356 98.7044 53.8411 98.7081 53.8464C98.7383 53.8896 98.7633 53.9253 98.7881 53.9598C98.7949 53.9692 98.8013 53.978 98.8074 53.9864C98.8283 53.958 98.8513 53.9263 98.878 53.8893C98.9015 53.8568 98.9279 53.8203 98.9586 53.7784C99.0622 53.6364 99.2058 53.4456 99.389 53.2658C99.7173 52.9437 100.107 52.516 100.424 52.1584C100.58 51.9817 100.715 51.8262 100.81 51.7149C100.858 51.6594 100.896 51.615 100.922 51.5848L100.951 51.5504L100.958 51.5419L100.96 51.5399L100.96 51.5395L90.2771 56.6044ZM90.2771 56.6044C89.2975 56.4033 89.2975 56.4033 89.2975 56.4034L89.2974 56.4035L89.2974 56.4039L89.2972 56.4049L89.2965 56.4083L89.2941 56.4201L89.2855 56.463C89.2782 56.4997 89.268 56.5522 89.2556 56.6172C89.231 56.747 89.1979 56.9279 89.1639 57.1332C89.0982 57.5304 89.0205 58.0679 89.0051 58.5031C88.8373 63.2442 92.7766 66.9037 97.343 66.9982C102.027 67.0951 106.167 63.2699 105.995 58.4423C105.979 58.0048 105.901 57.481 105.835 57.0967C105.801 56.898 105.767 56.724 105.743 56.5993C105.73 56.5368 105.72 56.4864 105.713 56.4511L105.704 56.4097L105.701 56.3982L105.701 56.3949L105.701 56.3938L105.7 56.3935L105.7 56.3933C105.7 56.3933 105.7 56.3932 104.723 56.6044L105.7 56.3932C105.623 56.035 105.356 55.7479 105.004 55.6448C104.653 55.5417 104.273 55.6391 104.014 55.8986L104.014 55.8988L90.2771 56.6044ZM102.209 57.3934C102.104 56.7157 102.02 55.9533 102.042 55.4027C102.066 54.8466 102.214 54.1358 102.373 53.5249C102.45 53.2279 102.526 52.9698 102.582 52.7865C102.61 52.6951 102.633 52.6228 102.649 52.5742L102.667 52.5199L102.671 52.5072L102.672 52.5048L102.672 52.5047L102.672 52.5046C102.826 52.0493 102.635 51.5487 102.216 51.3126C101.797 51.0765 101.27 51.1718 100.96 51.5395L102.209 57.3934ZM92.5551 57.6042C92.5595 57.6046 92.5619 57.6052 92.562 57.6054C92.5621 57.6056 92.5599 57.6054 92.5551 57.6042Z" stroke="black" stroke-width="2" stroke-linejoin="round"/>
<mask id="path-11-outside-1_228_439" maskUnits="userSpaceOnUse" x="14" y="28" width="92" height="65" fill="black">
<rect fill="white" x="14" y="28" width="92" height="65"/>
<path d="M25.0833 77.9537C25.0833 77.9537 24.1298 79.1636 24.575 79.7329C24.9469 80.2084 26.0999 79.987 26.0999 79.987L33.979 76.4287L34.4873 78.2079L36.7748 80.7495L38.8081 81.0037L39.5706 80.2412L36.0123 77.9537V75.4121C36.0123 75.4121 41.4035 73.6855 44.6539 72.1079C47.3343 70.807 51.2622 68.2955 51.2622 68.2955L54.058 72.6163L54.3121 77.6995L50.2455 79.2245L46.6872 76.4287L41.0956 79.4787L42.6206 79.987L47.1955 77.9537L50.2455 81.7662L56.0913 77.9537V74.9037L59.6496 79.2245L60.6662 78.7162L53.2955 67.7872C53.2955 67.7872 57.4343 65.7794 60.4121 64.7372C63.3898 63.695 68.5453 62.4497 68.5453 62.4497L64.987 57.1123L66.2578 55.3331C66.2578 55.3331 65.9976 54.8188 65.7495 54.5706C65.5014 54.3225 64.987 54.0623 64.987 54.0623L57.8704 57.6206L54.058 56.3498L52.0247 53.554L46.6872 47.454L45.4164 43.8957L44.1456 41.8624V39.3208L44.6539 37.5416L43.3831 39.8291L43.8914 42.8791L45.1622 44.6582L45.4164 46.4374L40.8414 43.3874L34.4873 39.0666L38.8081 43.8957L44.6539 47.9624L49.2288 52.2831L39.5706 51.7748C39.5706 51.7748 37.3713 50.9124 36.0123 50.2498C34.3745 49.4513 31.9457 47.9624 31.9457 47.9624C31.9457 47.9624 33.2192 50.1204 34.4873 51.0123C35.5428 51.7547 37.5373 52.2831 37.5373 52.2831C37.5373 52.2831 33.8704 53.5912 31.4374 53.554C30.0338 53.5325 27.8791 53.0456 27.8791 53.0456L30.1666 54.5706H33.4707L38.8081 53.0456C38.8081 53.0456 40.662 53.3883 41.8581 53.554C44.2259 53.8819 47.958 54.0623 47.958 54.0623L50.7538 56.3498L55.3288 59.1456L42.8748 66.5163L38.8081 64.2289C38.8081 64.2289 35.2724 63.3067 32.9624 62.958C30.6965 62.6161 27.1166 62.4497 27.1166 62.4497L20 58.6372L26.6083 63.7205L31.4374 64.9913L27.1166 66.5163L24.575 65.4997H21.0167L23.05 66.008L26.0999 67.2788C26.0999 67.2788 27.0294 67.6879 27.6249 67.7872C28.2205 67.8864 28.597 68.0083 29.1499 67.7872C30.4207 67.2788 32.7082 65.4997 32.7082 65.4997H36.0123L40.8414 67.7872L25.0833 77.9537Z"/>
<path d="M78.8994 86.3578C78.8994 86.3578 76.8729 86.4945 76.3578 85.5953C76.1543 85.2402 76.1036 84.5786 76.1036 84.5786C76.1036 84.5786 79.1536 83.562 79.9161 77.7162C81.1062 68.592 70.512 56.1123 70.512 56.1123L73.3078 57.3831L72.5453 54.3331L69.7495 51.5373L71.0203 51.2831L69.7495 48.7415L73.8161 50.0123L73.3078 47.4707L77.1203 54.079L80.6785 58.1456L83.7285 62.9747L84.9993 64.7538C84.9993 64.7538 85.175 58.9129 84.2368 55.3498C83.6689 53.1928 82.2035 50.0123 82.2035 50.0123L79.6619 38.3208L81.6952 42.1332L79.9161 34L82.7119 42.3874L83.7285 46.9624L84.9993 40.8624L85.2535 47.7249C85.2535 47.7249 88.2503 56.7037 88.8118 61.1955C89.8284 69.3288 89.2895 72.4049 92.8784 78.2245C95.1637 81.9303 100.503 86.3578 100.503 86.3578C100.503 86.3578 100.936 87.1551 100.757 87.6286C100.442 88.4643 98.47 87.6286 98.47 87.6286C98.47 87.6286 92.4453 84.7429 88.3035 84.5786C84.5687 84.4305 78.8994 86.3578 78.8994 86.3578Z"/>
</mask>
<path d="M25.0833 77.9537C25.0833 77.9537 24.1298 79.1636 24.575 79.7329C24.9469 80.2084 26.0999 79.987 26.0999 79.987L33.979 76.4287L34.4873 78.2079L36.7748 80.7495L38.8081 81.0037L39.5706 80.2412L36.0123 77.9537V75.4121C36.0123 75.4121 41.4035 73.6855 44.6539 72.1079C47.3343 70.807 51.2622 68.2955 51.2622 68.2955L54.058 72.6163L54.3121 77.6995L50.2455 79.2245L46.6872 76.4287L41.0956 79.4787L42.6206 79.987L47.1955 77.9537L50.2455 81.7662L56.0913 77.9537V74.9037L59.6496 79.2245L60.6662 78.7162L53.2955 67.7872C53.2955 67.7872 57.4343 65.7794 60.4121 64.7372C63.3898 63.695 68.5453 62.4497 68.5453 62.4497L64.987 57.1123L66.2578 55.3331C66.2578 55.3331 65.9976 54.8188 65.7495 54.5706C65.5014 54.3225 64.987 54.0623 64.987 54.0623L57.8704 57.6206L54.058 56.3498L52.0247 53.554L46.6872 47.454L45.4164 43.8957L44.1456 41.8624V39.3208L44.6539 37.5416L43.3831 39.8291L43.8914 42.8791L45.1622 44.6582L45.4164 46.4374L40.8414 43.3874L34.4873 39.0666L38.8081 43.8957L44.6539 47.9624L49.2288 52.2831L39.5706 51.7748C39.5706 51.7748 37.3713 50.9124 36.0123 50.2498C34.3745 49.4513 31.9457 47.9624 31.9457 47.9624C31.9457 47.9624 33.2192 50.1204 34.4873 51.0123C35.5428 51.7547 37.5373 52.2831 37.5373 52.2831C37.5373 52.2831 33.8704 53.5912 31.4374 53.554C30.0338 53.5325 27.8791 53.0456 27.8791 53.0456L30.1666 54.5706H33.4707L38.8081 53.0456C38.8081 53.0456 40.662 53.3883 41.8581 53.554C44.2259 53.8819 47.958 54.0623 47.958 54.0623L50.7538 56.3498L55.3288 59.1456L42.8748 66.5163L38.8081 64.2289C38.8081 64.2289 35.2724 63.3067 32.9624 62.958C30.6965 62.6161 27.1166 62.4497 27.1166 62.4497L20 58.6372L26.6083 63.7205L31.4374 64.9913L27.1166 66.5163L24.575 65.4997H21.0167L23.05 66.008L26.0999 67.2788C26.0999 67.2788 27.0294 67.6879 27.6249 67.7872C28.2205 67.8864 28.597 68.0083 29.1499 67.7872C30.4207 67.2788 32.7082 65.4997 32.7082 65.4997H36.0123L40.8414 67.7872L25.0833 77.9537Z" fill="#B35D0A"/>
<path d="M78.8994 86.3578C78.8994 86.3578 76.8729 86.4945 76.3578 85.5953C76.1543 85.2402 76.1036 84.5786 76.1036 84.5786C76.1036 84.5786 79.1536 83.562 79.9161 77.7162C81.1062 68.592 70.512 56.1123 70.512 56.1123L73.3078 57.3831L72.5453 54.3331L69.7495 51.5373L71.0203 51.2831L69.7495 48.7415L73.8161 50.0123L73.3078 47.4707L77.1203 54.079L80.6785 58.1456L83.7285 62.9747L84.9993 64.7538C84.9993 64.7538 85.175 58.9129 84.2368 55.3498C83.6689 53.1928 82.2035 50.0123 82.2035 50.0123L79.6619 38.3208L81.6952 42.1332L79.9161 34L82.7119 42.3874L83.7285 46.9624L84.9993 40.8624L85.2535 47.7249C85.2535 47.7249 88.2503 56.7037 88.8118 61.1955C89.8284 69.3288 89.2895 72.4049 92.8784 78.2245C95.1637 81.9303 100.503 86.3578 100.503 86.3578C100.503 86.3578 100.936 87.1551 100.757 87.6286C100.442 88.4643 98.47 87.6286 98.47 87.6286C98.47 87.6286 92.4453 84.7429 88.3035 84.5786C84.5687 84.4305 78.8994 86.3578 78.8994 86.3578Z" fill="#B35D0A"/>
<path d="M25.0833 77.9537C25.0833 77.9537 24.1298 79.1636 24.575 79.7329C24.9469 80.2084 26.0999 79.987 26.0999 79.987L33.979 76.4287L34.4873 78.2079L36.7748 80.7495L38.8081 81.0037L39.5706 80.2412L36.0123 77.9537V75.4121C36.0123 75.4121 41.4035 73.6855 44.6539 72.1079C47.3343 70.807 51.2622 68.2955 51.2622 68.2955L54.058 72.6163L54.3121 77.6995L50.2455 79.2245L46.6872 76.4287L41.0956 79.4787L42.6206 79.987L47.1955 77.9537L50.2455 81.7662L56.0913 77.9537V74.9037L59.6496 79.2245L60.6662 78.7162L53.2955 67.7872C53.2955 67.7872 57.4343 65.7794 60.4121 64.7372C63.3898 63.695 68.5453 62.4497 68.5453 62.4497L64.987 57.1123L66.2578 55.3331C66.2578 55.3331 65.9976 54.8188 65.7495 54.5706C65.5014 54.3225 64.987 54.0623 64.987 54.0623L57.8704 57.6206L54.058 56.3498L52.0247 53.554L46.6872 47.454L45.4164 43.8957L44.1456 41.8624V39.3208L44.6539 37.5416L43.3831 39.8291L43.8914 42.8791L45.1622 44.6582L45.4164 46.4374L40.8414 43.3874L34.4873 39.0666L38.8081 43.8957L44.6539 47.9624L49.2288 52.2831L39.5706 51.7748C39.5706 51.7748 37.3713 50.9124 36.0123 50.2498C34.3745 49.4513 31.9457 47.9624 31.9457 47.9624C31.9457 47.9624 33.2192 50.1204 34.4873 51.0123C35.5428 51.7547 37.5373 52.2831 37.5373 52.2831C37.5373 52.2831 33.8704 53.5912 31.4374 53.554C30.0338 53.5325 27.8791 53.0456 27.8791 53.0456L30.1666 54.5706H33.4707L38.8081 53.0456C38.8081 53.0456 40.662 53.3883 41.8581 53.554C44.2259 53.8819 47.958 54.0623 47.958 54.0623L50.7538 56.3498L55.3288 59.1456L42.8748 66.5163L38.8081 64.2289C38.8081 64.2289 35.2724 63.3067 32.9624 62.958C30.6965 62.6161 27.1166 62.4497 27.1166 62.4497L20 58.6372L26.6083 63.7205L31.4374 64.9913L27.1166 66.5163L24.575 65.4997H21.0167L23.05 66.008L26.0999 67.2788C26.0999 67.2788 27.0294 67.6879 27.6249 67.7872C28.2205 67.8864 28.597 68.0083 29.1499 67.7872C30.4207 67.2788 32.7082 65.4997 32.7082 65.4997H36.0123L40.8414 67.7872L25.0833 77.9537Z" stroke="white" stroke-width="10" stroke-linecap="round" stroke-linejoin="round" mask="url(#path-11-outside-1_228_439)"/>
<path d="M78.8994 86.3578C78.8994 86.3578 76.8729 86.4945 76.3578 85.5953C76.1543 85.2402 76.1036 84.5786 76.1036 84.5786C76.1036 84.5786 79.1536 83.562 79.9161 77.7162C81.1062 68.592 70.512 56.1123 70.512 56.1123L73.3078 57.3831L72.5453 54.3331L69.7495 51.5373L71.0203 51.2831L69.7495 48.7415L73.8161 50.0123L73.3078 47.4707L77.1203 54.079L80.6785 58.1456L83.7285 62.9747L84.9993 64.7538C84.9993 64.7538 85.175 58.9129 84.2368 55.3498C83.6689 53.1928 82.2035 50.0123 82.2035 50.0123L79.6619 38.3208L81.6952 42.1332L79.9161 34L82.7119 42.3874L83.7285 46.9624L84.9993 40.8624L85.2535 47.7249C85.2535 47.7249 88.2503 56.7037 88.8118 61.1955C89.8284 69.3288 89.2895 72.4049 92.8784 78.2245C95.1637 81.9303 100.503 86.3578 100.503 86.3578C100.503 86.3578 100.936 87.1551 100.757 87.6286C100.442 88.4643 98.47 87.6286 98.47 87.6286C98.47 87.6286 92.4453 84.7429 88.3035 84.5786C84.5687 84.4305 78.8994 86.3578 78.8994 86.3578Z" stroke="white" stroke-width="10" stroke-linecap="round" stroke-linejoin="round" mask="url(#path-11-outside-1_228_439)"/>
<path d="M25.0833 77.9537C25.0833 77.9537 24.1298 79.1636 24.575 79.7329C24.9469 80.2084 26.0999 79.987 26.0999 79.987L33.979 76.4287L34.4873 78.2079L36.7748 80.7495L38.8081 81.0037L39.5706 80.2412L36.0123 77.9537V75.4121C36.0123 75.4121 41.4035 73.6855 44.6539 72.1079C47.3343 70.807 51.2622 68.2955 51.2622 68.2955L54.058 72.6163L54.3121 77.6995L50.2455 79.2245L46.6872 76.4287L41.0956 79.4787L42.6206 79.987L47.1955 77.9537L50.2455 81.7662L56.0913 77.9537V74.9037L59.6496 79.2245L60.6662 78.7162L53.2955 67.7872C53.2955 67.7872 57.4343 65.7794 60.4121 64.7372C63.3898 63.695 68.5453 62.4497 68.5453 62.4497L64.987 57.1123L66.2578 55.3331C66.2578 55.3331 65.9976 54.8188 65.7495 54.5706C65.5014 54.3225 64.987 54.0623 64.987 54.0623L57.8704 57.6206L54.058 56.3498L52.0247 53.554L46.6872 47.454L45.4164 43.8957L44.1456 41.8624V39.3208L44.6539 37.5416L43.3831 39.8291L43.8914 42.8791L45.1622 44.6582L45.4164 46.4374L40.8414 43.3874L34.4873 39.0666L38.8081 43.8957L44.6539 47.9624L49.2288 52.2831L39.5706 51.7748C39.5706 51.7748 37.3713 50.9124 36.0123 50.2498C34.3745 49.4513 31.9457 47.9624 31.9457 47.9624C31.9457 47.9624 33.2192 50.1204 34.4873 51.0123C35.5428 51.7547 37.5373 52.2831 37.5373 52.2831C37.5373 52.2831 33.8704 53.5912 31.4374 53.554C30.0338 53.5325 27.8791 53.0456 27.8791 53.0456L30.1666 54.5706H33.4707L38.8081 53.0456C38.8081 53.0456 40.662 53.3883 41.8581 53.554C44.2259 53.8819 47.958 54.0623 47.958 54.0623L50.7538 56.3498L55.3288 59.1456L42.8748 66.5163L38.8081 64.2289C38.8081 64.2289 35.2724 63.3067 32.9624 62.958C30.6965 62.6161 27.1166 62.4497 27.1166 62.4497L20 58.6372L26.6083 63.7205L31.4374 64.9913L27.1166 66.5163L24.575 65.4997H21.0167L23.05 66.008L26.0999 67.2788C26.0999 67.2788 27.0294 67.6879 27.6249 67.7872C28.2205 67.8864 28.597 68.0083 29.1499 67.7872C30.4207 67.2788 32.7082 65.4997 32.7082 65.4997H36.0123L40.8414 67.7872L25.0833 77.9537Z" fill="#B35D0A"/>
<path d="M78.8994 86.3578C78.8994 86.3578 76.8729 86.4945 76.3578 85.5953C76.1543 85.2402 76.1036 84.5786 76.1036 84.5786C76.1036 84.5786 79.1536 83.562 79.9161 77.7162C81.1062 68.592 70.512 56.1123 70.512 56.1123L73.3078 57.3831L72.5453 54.3331L69.7495 51.5373L71.0203 51.2831L69.7495 48.7415L73.8161 50.0123L73.3078 47.4707L77.1203 54.079L80.6785 58.1456L83.7285 62.9747L84.9993 64.7538C84.9993 64.7538 85.175 58.9129 84.2368 55.3498C83.6689 53.1928 82.2035 50.0123 82.2035 50.0123L79.6619 38.3208L81.6952 42.1332L79.9161 34L82.7119 42.3874L83.7285 46.9624L84.9993 40.8624L85.2535 47.7249C85.2535 47.7249 88.2503 56.7037 88.8118 61.1955C89.8284 69.3288 89.2895 72.4049 92.8784 78.2245C95.1637 81.9303 100.503 86.3578 100.503 86.3578C100.503 86.3578 100.936 87.1551 100.757 87.6286C100.442 88.4643 98.47 87.6286 98.47 87.6286C98.47 87.6286 92.4453 84.7429 88.3035 84.5786C84.5687 84.4305 78.8994 86.3578 78.8994 86.3578Z" fill="#B35D0A"/>
<mask id="path-13-outside-2_228_439" maskUnits="userSpaceOnUse" x="17" y="31" width="86" height="59" fill="black">
<rect fill="white" x="17" y="31" width="86" height="59"/>
<path d="M25.0833 77.9537C25.0833 77.9537 24.1298 79.1636 24.575 79.7329C24.9469 80.2084 26.0999 79.987 26.0999 79.987L33.979 76.4287L34.4873 78.2079L36.7748 80.7495L38.8081 81.0037L39.5706 80.2412L36.0123 77.9537V75.4121C36.0123 75.4121 41.4035 73.6855 44.6539 72.1079C47.3343 70.807 51.2622 68.2955 51.2622 68.2955L54.058 72.6163L54.3121 77.6995L50.2455 79.2245L46.6872 76.4287L41.0956 79.4787L42.6206 79.987L47.1955 77.9537L50.2455 81.7662L56.0913 77.9537V74.9037L59.6496 79.2245L60.6662 78.7162L53.2955 67.7872C53.2955 67.7872 57.4343 65.7794 60.4121 64.7372C63.3898 63.695 68.5453 62.4497 68.5453 62.4497L64.987 57.1123L66.2578 55.3331C66.2578 55.3331 65.9976 54.8188 65.7495 54.5706C65.5014 54.3225 64.987 54.0623 64.987 54.0623L57.8704 57.6206L54.058 56.3498L52.0247 53.554L46.6872 47.454L45.4164 43.8957L44.1456 41.8624V39.3208L44.6539 37.5416L43.3831 39.8291L43.8914 42.8791L45.1622 44.6582L45.4164 46.4374L40.8414 43.3874L34.4873 39.0666L38.8081 43.8957L44.6539 47.9624L49.2288 52.2831L39.5706 51.7748C39.5706 51.7748 37.3713 50.9124 36.0123 50.2498C34.3745 49.4513 31.9457 47.9624 31.9457 47.9624C31.9457 47.9624 33.2192 50.1204 34.4873 51.0123C35.5428 51.7547 37.5373 52.2831 37.5373 52.2831C37.5373 52.2831 33.8704 53.5912 31.4374 53.554C30.0338 53.5325 27.8791 53.0456 27.8791 53.0456L30.1666 54.5706H33.4707L38.8081 53.0456C38.8081 53.0456 40.662 53.3883 41.8581 53.554C44.2259 53.8819 47.958 54.0623 47.958 54.0623L50.7538 56.3498L55.3288 59.1456L42.8748 66.5163L38.8081 64.2289C38.8081 64.2289 35.2724 63.3067 32.9624 62.958C30.6965 62.6161 27.1166 62.4497 27.1166 62.4497L20 58.6372L26.6083 63.7205L31.4374 64.9913L27.1166 66.5163L24.575 65.4997H21.0167L23.05 66.008L26.0999 67.2788C26.0999 67.2788 27.0294 67.6879 27.6249 67.7872C28.2205 67.8864 28.597 68.0083 29.1499 67.7872C30.4207 67.2788 32.7082 65.4997 32.7082 65.4997H36.0123L40.8414 67.7872L25.0833 77.9537Z"/>
<path d="M78.8994 86.3578C78.8994 86.3578 76.8729 86.4945 76.3578 85.5953C76.1543 85.2402 76.1036 84.5786 76.1036 84.5786C76.1036 84.5786 79.1536 83.562 79.9161 77.7162C81.1062 68.592 70.512 56.1123 70.512 56.1123L73.3078 57.3831L72.5453 54.3331L69.7495 51.5373L71.0203 51.2831L69.7495 48.7415L73.8161 50.0123L73.3078 47.4707L77.1203 54.079L80.6785 58.1456L83.7285 62.9747L84.9993 64.7538C84.9993 64.7538 85.175 58.9129 84.2368 55.3498C83.6689 53.1928 82.2035 50.0123 82.2035 50.0123L79.6619 38.3208L81.6952 42.1332L79.9161 34L82.7119 42.3874L83.7285 46.9624L84.9993 40.8624L85.2535 47.7249C85.2535 47.7249 88.2503 56.7037 88.8118 61.1955C89.8284 69.3288 89.2895 72.4049 92.8784 78.2245C95.1637 81.9303 100.503 86.3578 100.503 86.3578C100.503 86.3578 100.936 87.1551 100.757 87.6286C100.442 88.4643 98.47 87.6286 98.47 87.6286C98.47 87.6286 92.4453 84.7429 88.3035 84.5786C84.5687 84.4305 78.8994 86.3578 78.8994 86.3578Z"/>
</mask>
<path d="M25.0833 77.9537C25.0833 77.9537 24.1298 79.1636 24.575 79.7329C24.9469 80.2084 26.0999 79.987 26.0999 79.987L33.979 76.4287L34.4873 78.2079L36.7748 80.7495L38.8081 81.0037L39.5706 80.2412L36.0123 77.9537V75.4121C36.0123 75.4121 41.4035 73.6855 44.6539 72.1079C47.3343 70.807 51.2622 68.2955 51.2622 68.2955L54.058 72.6163L54.3121 77.6995L50.2455 79.2245L46.6872 76.4287L41.0956 79.4787L42.6206 79.987L47.1955 77.9537L50.2455 81.7662L56.0913 77.9537V74.9037L59.6496 79.2245L60.6662 78.7162L53.2955 67.7872C53.2955 67.7872 57.4343 65.7794 60.4121 64.7372C63.3898 63.695 68.5453 62.4497 68.5453 62.4497L64.987 57.1123L66.2578 55.3331C66.2578 55.3331 65.9976 54.8188 65.7495 54.5706C65.5014 54.3225 64.987 54.0623 64.987 54.0623L57.8704 57.6206L54.058 56.3498L52.0247 53.554L46.6872 47.454L45.4164 43.8957L44.1456 41.8624V39.3208L44.6539 37.5416L43.3831 39.8291L43.8914 42.8791L45.1622 44.6582L45.4164 46.4374L40.8414 43.3874L34.4873 39.0666L38.8081 43.8957L44.6539 47.9624L49.2288 52.2831L39.5706 51.7748C39.5706 51.7748 37.3713 50.9124 36.0123 50.2498C34.3745 49.4513 31.9457 47.9624 31.9457 47.9624C31.9457 47.9624 33.2192 50.1204 34.4873 51.0123C35.5428 51.7547 37.5373 52.2831 37.5373 52.2831C37.5373 52.2831 33.8704 53.5912 31.4374 53.554C30.0338 53.5325 27.8791 53.0456 27.8791 53.0456L30.1666 54.5706H33.4707L38.8081 53.0456C38.8081 53.0456 40.662 53.3883 41.8581 53.554C44.2259 53.8819 47.958 54.0623 47.958 54.0623L50.7538 56.3498L55.3288 59.1456L42.8748 66.5163L38.8081 64.2289C38.8081 64.2289 35.2724 63.3067 32.9624 62.958C30.6965 62.6161 27.1166 62.4497 27.1166 62.4497L20 58.6372L26.6083 63.7205L31.4374 64.9913L27.1166 66.5163L24.575 65.4997H21.0167L23.05 66.008L26.0999 67.2788C26.0999 67.2788 27.0294 67.6879 27.6249 67.7872C28.2205 67.8864 28.597 68.0083 29.1499 67.7872C30.4207 67.2788 32.7082 65.4997 32.7082 65.4997H36.0123L40.8414 67.7872L25.0833 77.9537Z" fill="#B35D0A"/>
<path d="M78.8994 86.3578C78.8994 86.3578 76.8729 86.4945 76.3578 85.5953C76.1543 85.2402 76.1036 84.5786 76.1036 84.5786C76.1036 84.5786 79.1536 83.562 79.9161 77.7162C81.1062 68.592 70.512 56.1123 70.512 56.1123L73.3078 57.3831L72.5453 54.3331L69.7495 51.5373L71.0203 51.2831L69.7495 48.7415L73.8161 50.0123L73.3078 47.4707L77.1203 54.079L80.6785 58.1456L83.7285 62.9747L84.9993 64.7538C84.9993 64.7538 85.175 58.9129 84.2368 55.3498C83.6689 53.1928 82.2035 50.0123 82.2035 50.0123L79.6619 38.3208L81.6952 42.1332L79.9161 34L82.7119 42.3874L83.7285 46.9624L84.9993 40.8624L85.2535 47.7249C85.2535 47.7249 88.2503 56.7037 88.8118 61.1955C89.8284 69.3288 89.2895 72.4049 92.8784 78.2245C95.1637 81.9303 100.503 86.3578 100.503 86.3578C100.503 86.3578 100.936 87.1551 100.757 87.6286C100.442 88.4643 98.47 87.6286 98.47 87.6286C98.47 87.6286 92.4453 84.7429 88.3035 84.5786C84.5687 84.4305 78.8994 86.3578 78.8994 86.3578Z" fill="#B35D0A"/>
<path d="M25.0833 77.9537C25.0833 77.9537 24.1298 79.1636 24.575 79.7329C24.9469 80.2084 26.0999 79.987 26.0999 79.987L33.979 76.4287L34.4873 78.2079L36.7748 80.7495L38.8081 81.0037L39.5706 80.2412L36.0123 77.9537V75.4121C36.0123 75.4121 41.4035 73.6855 44.6539 72.1079C47.3343 70.807 51.2622 68.2955 51.2622 68.2955L54.058 72.6163L54.3121 77.6995L50.2455 79.2245L46.6872 76.4287L41.0956 79.4787L42.6206 79.987L47.1955 77.9537L50.2455 81.7662L56.0913 77.9537V74.9037L59.6496 79.2245L60.6662 78.7162L53.2955 67.7872C53.2955 67.7872 57.4343 65.7794 60.4121 64.7372C63.3898 63.695 68.5453 62.4497 68.5453 62.4497L64.987 57.1123L66.2578 55.3331C66.2578 55.3331 65.9976 54.8188 65.7495 54.5706C65.5014 54.3225 64.987 54.0623 64.987 54.0623L57.8704 57.6206L54.058 56.3498L52.0247 53.554L46.6872 47.454L45.4164 43.8957L44.1456 41.8624V39.3208L44.6539 37.5416L43.3831 39.8291L43.8914 42.8791L45.1622 44.6582L45.4164 46.4374L40.8414 43.3874L34.4873 39.0666L38.8081 43.8957L44.6539 47.9624L49.2288 52.2831L39.5706 51.7748C39.5706 51.7748 37.3713 50.9124 36.0123 50.2498C34.3745 49.4513 31.9457 47.9624 31.9457 47.9624C31.9457 47.9624 33.2192 50.1204 34.4873 51.0123C35.5428 51.7547 37.5373 52.2831 37.5373 52.2831C37.5373 52.2831 33.8704 53.5912 31.4374 53.554C30.0338 53.5325 27.8791 53.0456 27.8791 53.0456L30.1666 54.5706H33.4707L38.8081 53.0456C38.8081 53.0456 40.662 53.3883 41.8581 53.554C44.2259 53.8819 47.958 54.0623 47.958 54.0623L50.7538 56.3498L55.3288 59.1456L42.8748 66.5163L38.8081 64.2289C38.8081 64.2289 35.2724 63.3067 32.9624 62.958C30.6965 62.6161 27.1166 62.4497 27.1166 62.4497L20 58.6372L26.6083 63.7205L31.4374 64.9913L27.1166 66.5163L24.575 65.4997H21.0167L23.05 66.008L26.0999 67.2788C26.0999 67.2788 27.0294 67.6879 27.6249 67.7872C28.2205 67.8864 28.597 68.0083 29.1499 67.7872C30.4207 67.2788 32.7082 65.4997 32.7082 65.4997H36.0123L40.8414 67.7872L25.0833 77.9537Z" stroke="black" stroke-width="4" stroke-linecap="round" stroke-linejoin="round" mask="url(#path-13-outside-2_228_439)"/>
<path d="M78.8994 86.3578C78.8994 86.3578 76.8729 86.4945 76.3578 85.5953C76.1543 85.2402 76.1036 84.5786 76.1036 84.5786C76.1036 84.5786 79.1536 83.562 79.9161 77.7162C81.1062 68.592 70.512 56.1123 70.512 56.1123L73.3078 57.3831L72.5453 54.3331L69.7495 51.5373L71.0203 51.2831L69.7495 48.7415L73.8161 50.0123L73.3078 47.4707L77.1203 54.079L80.6785 58.1456L83.7285 62.9747L84.9993 64.7538C84.9993 64.7538 85.175 58.9129 84.2368 55.3498C83.6689 53.1928 82.2035 50.0123 82.2035 50.0123L79.6619 38.3208L81.6952 42.1332L79.9161 34L82.7119 42.3874L83.7285 46.9624L84.9993 40.8624L85.2535 47.7249C85.2535 47.7249 88.2503 56.7037 88.8118 61.1955C89.8284 69.3288 89.2895 72.4049 92.8784 78.2245C95.1637 81.9303 100.503 86.3578 100.503 86.3578C100.503 86.3578 100.936 87.1551 100.757 87.6286C100.442 88.4643 98.47 87.6286 98.47 87.6286C98.47 87.6286 92.4453 84.7429 88.3035 84.5786C84.5687 84.4305 78.8994 86.3578 78.8994 86.3578Z" stroke="black" stroke-width="4" stroke-linecap="round" stroke-linejoin="round" mask="url(#path-13-outside-2_228_439)"/>
<path d="M61.0053 88.8996C61.0362 88.039 61.3298 86.6282 61.3298 86.6282C61.3298 86.6282 63.0756 89.4787 64.4124 88.8996C65.8007 88.2982 64.7369 86.3565 64.7369 84.8436C64.7369 83.3936 64.9017 82.7475 65.3858 81.4365C66.1075 79.4824 67.2908 78.8749 68.3062 77.056C69.1502 75.544 70.2531 73 70.2531 73C70.2531 73 71.3081 76.6148 71.2265 79.0029C71.1592 80.9731 69.1116 82.3229 70.2531 83.8701C70.5999 84.3402 70.8113 84.7557 71.3887 84.8436C72.1909 84.9656 72.4327 84.1056 73.0112 83.5456C73.8545 82.7293 74.958 81.4365 74.958 81.4365C74.958 81.4365 74.213 83.6044 74.1468 85.168C74.0807 86.7317 74.6336 89.2241 74.6336 89.2241C76.1003 89.0329 78.5273 86.6282 78.5273 86.6282C78.5273 86.6282 78.8207 87.9679 78.8518 88.8285C79.0304 93.7724 74.7125 97.7615 69.7663 97.6606C64.9211 97.5617 60.8315 93.7427 61.0053 88.8996Z" fill="#FFBA17"/>
<g filter="url(#filter3_i_228_439)">
<path d="M61.0053 89.2372C61.0362 88.3766 61.3298 86.9659 61.3298 86.9659C61.3298 86.9659 63.0756 89.8163 64.4124 89.2372C65.8007 88.6358 64.7369 86.6941 64.7369 85.1812C64.7369 83.7313 64.9017 83.0852 65.3858 81.7742C66.1075 79.82 67.2908 79.2125 68.3062 77.3937C69.1502 75.8817 70.2531 73.3376 70.2531 73.3376C70.2531 73.3376 71.3081 76.9524 71.2265 79.3405C71.1592 81.3108 69.1116 82.6606 70.2531 84.2078C70.5999 84.6778 70.8113 85.0933 71.3887 85.1812C72.1909 85.3033 72.4327 84.4433 73.0112 83.8833C73.8545 83.0669 74.958 81.7742 74.958 81.7742C74.958 81.7742 74.213 83.9421 74.1468 85.5057C74.0807 87.0693 74.6336 89.5617 74.6336 89.5617C76.1003 89.3705 78.5273 86.9659 78.5273 86.9659C78.5273 86.9659 78.8207 88.3055 78.8518 89.1661C79.0304 94.1101 74.7125 98.0992 69.7663 97.9982C64.9211 97.8993 60.8315 94.0803 61.0053 89.2372Z" fill="#FFBA17"/>
</g>
<path d="M61.3298 86.9659L60.3508 86.7621C60.4344 86.3607 60.7545 86.0509 61.1585 85.9806C61.5622 85.9104 61.9677 86.0936 62.1821 86.4427C62.1821 86.4428 62.1822 86.4429 62.1822 86.443C62.1822 86.443 62.1822 86.443 62.1823 86.443L62.1824 86.4432L62.1826 86.4436L62.184 86.4458L62.195 86.4633C62.2054 86.4797 62.2218 86.5055 62.2438 86.539C62.2879 86.6063 62.3537 86.7041 62.437 86.8207C62.6057 87.0567 62.8369 87.3563 63.0975 87.6327C63.3667 87.9183 63.6224 88.1307 63.8339 88.2424C63.9443 88.3008 64.0034 88.3127 64.0269 88.3143C64.09 88.2856 64.0934 88.2715 64.097 88.2568C64.0976 88.2546 64.0981 88.2523 64.0989 88.25C64.1244 88.1723 64.1435 88.0036 64.1028 87.6734C64.0725 87.4278 64.0222 87.1761 63.9631 86.8801C63.9428 86.7785 63.9215 86.6718 63.8995 86.5582C63.8204 86.1485 63.7369 85.6625 63.7369 85.1812C63.7369 84.4172 63.7802 83.8222 63.8994 83.2287C64.0171 82.6423 64.2022 82.0928 64.4478 81.4277C64.8652 80.2974 65.4221 79.556 65.9636 78.8979C66.0454 78.7985 66.1257 78.7022 66.2046 78.6075C66.6479 78.0756 67.0487 77.5947 67.433 76.9062C67.8354 76.1854 68.3089 75.2004 68.6884 74.3792C68.8765 73.972 69.0387 73.6112 69.1538 73.3524C69.2114 73.2231 69.257 73.1194 69.2882 73.0483L69.3238 72.967L69.3328 72.9463L69.335 72.9413L69.3355 72.9402L69.3356 72.9399L61.3298 86.9659ZM61.3298 86.9659C60.3508 86.7621 60.3508 86.7622 60.3508 86.7622L60.3508 86.7624L60.3507 86.7627L60.3504 86.7639L60.3496 86.7678L60.3468 86.7814L60.3367 86.8312C60.3282 86.8739 60.316 86.9351 60.3015 87.011C60.2723 87.1624 60.2332 87.3736 60.193 87.6133C60.1148 88.0789 60.0239 88.7014 60.006 89.2014C59.8096 94.6747 64.4176 98.8892 69.7459 98.998C75.2073 99.1095 80.0525 94.7055 79.8511 89.13C79.833 88.6276 79.7416 88.0214 79.663 87.5713C79.6226 87.3397 79.5833 87.1367 79.554 86.9913C79.5393 86.9184 79.5271 86.8597 79.5185 86.8187L79.5083 86.7708L79.5054 86.7575L79.5046 86.7538L79.5043 86.7526L79.5042 86.7522L79.5042 86.752C79.5042 86.752 79.5042 86.7519 78.5273 86.9659L79.5042 86.7519C79.4262 86.3957 79.1604 86.1101 78.8106 86.0068C78.4609 85.9035 78.0827 85.9988 77.8237 86.2553L77.8235 86.2555L61.3298 86.9659ZM71.213 73.0575L70.2531 73.3376C71.213 73.0575 71.213 73.0576 71.2131 73.0577L71.2132 73.058L71.2134 73.0589L71.2142 73.0616L71.2169 73.071L71.2266 73.1049C71.235 73.1341 71.2469 73.1764 71.2619 73.2305C71.2919 73.3388 71.3342 73.4946 71.3846 73.6886C71.4851 74.0759 71.6182 74.6177 71.7489 75.2372C72.0054 76.4537 72.2711 78.0533 72.2259 79.3747C72.1897 80.4352 71.6948 81.3858 71.3565 82.0355C71.2927 82.1581 71.2345 82.27 71.1859 82.3699C71.0066 82.739 70.9262 82.9758 70.9104 83.158C70.8989 83.2909 70.9172 83.4235 71.0578 83.6141C71.1071 83.681 71.153 83.7455 71.1933 83.8023L71.207 83.8215C71.2429 83.8721 71.2734 83.9151 71.3036 83.9566C71.3721 84.0506 71.4168 84.105 71.4522 84.1416C71.4698 84.1597 71.482 84.1701 71.4895 84.1758C71.5001 84.1647 71.5126 84.151 71.5271 84.1343C71.5903 84.0611 71.647 83.9837 71.7306 83.8697C71.758 83.8323 71.7883 83.791 71.8226 83.7446C71.945 83.5792 72.1088 83.365 72.3156 83.1648C72.7112 82.7818 73.179 82.2758 73.5563 81.855C73.7431 81.6467 73.9041 81.4633 74.0183 81.3322C74.0753 81.2667 74.1205 81.2144 74.1513 81.1786L74.1863 81.138L74.195 81.1278L74.197 81.1254L74.1974 81.1249L74.1975 81.1249L71.213 73.0575ZM71.213 73.0575C71.095 72.653 70.7361 72.3659 70.3156 72.3396C69.8951 72.3133 69.5032 72.5533 69.3356 72.9399L71.213 73.0575ZM64.0392 88.3136C64.0393 88.314 64.0365 88.3147 64.03 88.3145C64.0358 88.3131 64.039 88.3132 64.0392 88.3136Z" stroke="black" stroke-width="2" stroke-linejoin="round"/>
<path d="M92.0045 58.5384C92.0304 57.8057 92.2771 56.6044 92.2771 56.6044C92.2771 56.6044 93.7435 59.0315 94.8664 58.5384C96.0326 58.0264 95.139 56.373 95.139 55.0848C95.139 53.8501 95.2774 53.3 95.6841 52.1837C96.2903 50.5197 97.2843 50.0025 98.1372 48.4537C98.8462 47.1662 99.7726 45 99.7726 45C99.7726 45 100.659 48.078 100.59 50.1115C100.534 51.7891 98.8137 52.9384 99.7726 54.2559C100.064 54.6561 100.241 55.0099 100.727 55.0848C101.4 55.1887 101.603 54.4564 102.089 53.9796C102.798 53.2844 103.725 52.1837 103.725 52.1837C103.725 52.1837 103.099 54.0296 103.043 55.3611C102.988 56.6925 103.452 58.8147 103.452 58.8147C104.684 58.6519 106.723 56.6044 106.723 56.6044C106.723 56.6044 106.969 57.7451 106.996 58.4779C107.145 62.6876 103.518 66.0844 99.3637 65.9984C95.2937 65.9142 91.8585 62.6623 92.0045 58.5384Z" fill="#FFBA17"/>
<g filter="url(#filter4_i_228_439)">
<path d="M90.0045 58.5384C90.0304 57.8057 90.2771 56.6044 90.2771 56.6044C90.2771 56.6044 91.7435 59.0315 92.8664 58.5384C94.0326 58.0264 93.139 56.373 93.139 55.0848C93.139 53.8501 93.2774 53.3 93.6841 52.1837C94.2903 50.5197 95.2843 50.0025 96.1372 48.4537C96.8462 47.1662 97.7726 45 97.7726 45C97.7726 45 98.6588 48.078 98.5903 50.1115C98.5337 51.7891 96.8137 52.9384 97.7726 54.2559C98.0639 54.6561 98.2415 55.0099 98.7265 55.0848C99.4004 55.1887 99.6034 54.4564 100.089 53.9796C100.798 53.2844 101.725 52.1837 101.725 52.1837C101.725 52.1837 101.099 54.0296 101.043 55.3611C100.988 56.6925 101.452 58.8147 101.452 58.8147C102.684 58.6519 104.723 56.6044 104.723 56.6044C104.723 56.6044 104.969 57.7451 104.996 58.4779C105.145 62.6876 101.518 66.0844 97.3637 65.9984C93.2937 65.9142 89.8585 62.6623 90.0045 58.5384Z" fill="#FFBA17"/>
</g>
<path d="M90.2771 56.6044L89.2975 56.4033C89.3803 56 89.7017 55.6887 90.1074 55.6189C90.5127 55.5491 90.9193 55.7346 91.1323 56.0862C91.1323 56.0862 91.1324 56.0862 91.1324 56.0863C91.1324 56.0864 91.1325 56.0865 91.1326 56.0867L91.1328 56.0869C91.1328 56.087 91.1329 56.0871 91.133 56.0873L91.1336 56.0883L91.1422 56.1022C91.1506 56.1156 91.164 56.1369 91.182 56.1647C91.2181 56.2206 91.2723 56.3022 91.341 56.3996C91.4804 56.5974 91.6703 56.8466 91.8829 57.0753C92.1044 57.3135 92.3054 57.4798 92.4602 57.5627C92.4615 57.5634 92.4627 57.5641 92.4639 57.5647C92.4686 57.4957 92.4672 57.3871 92.4473 57.2234C92.4225 57.0197 92.3817 56.8121 92.3324 56.5619C92.3152 56.4747 92.297 56.3822 92.278 56.283C92.2114 55.9333 92.139 55.5085 92.139 55.0848C92.139 53.7068 92.3081 53.0393 92.7445 51.8414C93.103 50.8572 93.5823 50.2113 94.0417 49.6453C94.1113 49.5595 94.1793 49.4768 94.2459 49.3958C94.6179 48.9433 94.9454 48.5448 95.2612 47.9713C95.5964 47.3626 95.9923 46.528 96.3108 45.8293C96.4685 45.4833 96.6045 45.1767 96.701 44.9568C96.7492 44.8469 96.7875 44.7589 96.8136 44.6985L96.8433 44.6296L96.8508 44.6121L96.8526 44.6079L96.853 44.607L96.8531 44.6068C96.8531 44.6068 96.8531 44.6068 96.8531 44.6068C97.0194 44.2179 97.4123 43.9758 97.8344 44.0019C98.2565 44.0281 98.6165 44.3169 98.7335 44.7233L97.7726 45C98.7335 44.7233 98.7336 44.7234 98.7336 44.7235L98.7337 44.7238L98.7339 44.7246L98.7346 44.727L98.7369 44.7352L98.7452 44.7645C98.7523 44.7897 98.7624 44.826 98.7751 44.8725C98.8005 44.9653 98.8362 45.0987 98.8787 45.2647C98.9636 45.5961 99.0759 46.0595 99.1862 46.5895C99.4021 47.6273 99.6282 49.0028 99.5897 50.1451C99.5581 51.083 99.1237 51.927 98.8404 52.4774C98.7881 52.5791 98.7409 52.6707 98.7024 52.751C98.5532 53.0622 98.4953 53.2448 98.4842 53.3736C98.4773 53.4547 98.4841 53.5341 98.5811 53.6674C98.6234 53.7256 98.6627 53.7815 98.6966 53.8299C98.7005 53.8356 98.7044 53.8411 98.7081 53.8464C98.7383 53.8896 98.7633 53.9253 98.7881 53.9598C98.7949 53.9692 98.8013 53.978 98.8074 53.9864C98.8283 53.958 98.8513 53.9263 98.878 53.8893C98.9015 53.8568 98.9279 53.8203 98.9586 53.7784C99.0622 53.6364 99.2058 53.4456 99.389 53.2658C99.7173 52.9437 100.107 52.516 100.424 52.1584C100.58 51.9817 100.715 51.8262 100.81 51.7149C100.858 51.6594 100.896 51.615 100.922 51.5848L100.951 51.5504L100.958 51.5419L100.96 51.5399L100.96 51.5395L90.2771 56.6044ZM90.2771 56.6044C89.2975 56.4033 89.2975 56.4033 89.2975 56.4034L89.2974 56.4035L89.2974 56.4039L89.2972 56.4049L89.2965 56.4083L89.2941 56.4201L89.2855 56.463C89.2782 56.4997 89.268 56.5522 89.2556 56.6172C89.231 56.747 89.1979 56.9279 89.1639 57.1332C89.0982 57.5304 89.0205 58.0679 89.0051 58.5031C88.8373 63.2442 92.7766 66.9037 97.343 66.9982C102.027 67.0951 106.167 63.2699 105.995 58.4423C105.979 58.0048 105.901 57.481 105.835 57.0967C105.801 56.898 105.767 56.724 105.743 56.5993C105.73 56.5368 105.72 56.4864 105.713 56.4511L105.704 56.4097L105.701 56.3982L105.701 56.3949L105.701 56.3938L105.7 56.3935L105.7 56.3933C105.7 56.3933 105.7 56.3932 104.723 56.6044L105.7 56.3932C105.623 56.035 105.356 55.7479 105.004 55.6448C104.653 55.5417 104.273 55.6391 104.014 55.8986L104.014 55.8988L90.2771 56.6044ZM102.209 57.3934C102.104 56.7157 102.02 55.9533 102.042 55.4027C102.066 54.8466 102.214 54.1358 102.373 53.5249C102.45 53.2279 102.526 52.9698 102.582 52.7865C102.61 52.6951 102.633 52.6228 102.649 52.5742L102.667 52.5199L102.671 52.5072L102.672 52.5048L102.672 52.5047L102.672 52.5046C102.826 52.0493 102.635 51.5487 102.216 51.3126C101.797 51.0765 101.27 51.1718 100.96 51.5395L102.209 57.3934ZM92.5551 57.6042C92.5595 57.6046 92.5619 57.6052 92.562 57.6054C92.5621 57.6056 92.5599 57.6054 92.5551 57.6042Z" stroke="black" stroke-width="2" stroke-linejoin="round"/>
<defs>
<filter id="filter0_i_228_439" x="57.9998" y="71.3376" width="22.8574" height="29.6624" filterUnits="userSpaceOnUse" color-interpolation-filters="sRGB">
<feFlood flood-opacity="0" result="BackgroundImageFix"/>
<feBlend mode="normal" in="SourceGraphic" in2="BackgroundImageFix" result="shape"/>
<feColorMatrix in="SourceAlpha" type="matrix" values="0 0 0 0 0 0 0 0 0 0 0 0 0 0 0 0 0 0 127 0" result="hardAlpha"/>
<feOffset dx="-3" dy="4"/>
<feGaussianBlur stdDeviation="0.5"/>
<feComposite in2="hardAlpha" operator="arithmetic" k2="-1" k3="1"/>
<feColorMatrix type="matrix" values="0 0 0 0 0.875 0 0 0 0 0 0 0 0 0 0 0 0 0 0.25 0"/>
<feBlend mode="normal" in2="shape" result="effect1_innerShadow_228_439"/>
</filter>
<filter id="filter1_i_228_439" x="49.9998" y="28" width="17.0003" height="21.5731" filterUnits="userSpaceOnUse" color-interpolation-filters="sRGB">
<feFlood flood-opacity="0" result="BackgroundImageFix"/>
<feBlend mode="normal" in="SourceGraphic" in2="BackgroundImageFix" result="shape"/>
<feColorMatrix in="SourceAlpha" type="matrix" values="0 0 0 0 0 0 0 0 0 0 0 0 0 0 0 0 0 0 127 0" result="hardAlpha"/>
<feOffset dx="-3" dy="4"/>
<feGaussianBlur stdDeviation="0.5"/>
<feComposite in2="hardAlpha" operator="arithmetic" k2="-1" k3="1"/>
<feColorMatrix type="matrix" values="0 0 0 0 0.875 0 0 0 0 0 0 0 0 0 0 0 0 0 0.25 0"/>
<feBlend mode="normal" in2="shape" result="effect1_innerShadow_228_439"/>
</filter>
<filter id="filter2_i_228_439" x="86.9999" y="43" width="20.0002" height="26" filterUnits="userSpaceOnUse" color-interpolation-filters="sRGB">
<feFlood flood-opacity="0" result="BackgroundImageFix"/>
<feBlend mode="normal" in="SourceGraphic" in2="BackgroundImageFix" result="shape"/>
<feColorMatrix in="SourceAlpha" type="matrix" values="0 0 0 0 0 0 0 0 0 0 0 0 0 0 0 0 0 0 127 0" result="hardAlpha"/>
<feOffset dx="-3" dy="4"/>
<feGaussianBlur stdDeviation="0.5"/>
<feComposite in2="hardAlpha" operator="arithmetic" k2="-1" k3="1"/>
<feColorMatrix type="matrix" values="0 0 0 0 0.875 0 0 0 0 0 0 0 0 0 0 0 0 0 0.25 0"/>
<feBlend mode="normal" in2="shape" result="effect1_innerShadow_228_439"/>
</filter>
<filter id="filter3_i_228_439" x="57.9998" y="71.3376" width="22.8574" height="29.6624" filterUnits="userSpaceOnUse" color-interpolation-filters="sRGB">
<feFlood flood-opacity="0" result="BackgroundImageFix"/>
<feBlend mode="normal" in="SourceGraphic" in2="BackgroundImageFix" result="shape"/>
<feColorMatrix in="SourceAlpha" type="matrix" values="0 0 0 0 0 0 0 0 0 0 0 0 0 0 0 0 0 0 127 0" result="hardAlpha"/>
<feOffset dx="-3" dy="4"/>
<feGaussianBlur stdDeviation="0.5"/>
<feComposite in2="hardAlpha" operator="arithmetic" k2="-1" k3="1"/>
<feColorMatrix type="matrix" values="0 0 0 0 0.875 0 0 0 0 0 0 0 0 0 0 0 0 0 0.25 0"/>
<feBlend mode="normal" in2="shape" result="effect1_innerShadow_228_439"/>
</filter>
<filter id="filter4_i_228_439" x="86.9999" y="43" width="20.0002" height="26" filterUnits="userSpaceOnUse" color-interpolation-filters="sRGB">
<feFlood flood-opacity="0" result="BackgroundImageFix"/>
<feBlend mode="normal" in="SourceGraphic" in2="BackgroundImageFix" result="shape"/>
<feColorMatrix in="SourceAlpha" type="matrix" values="0 0 0 0 0 0 0 0 0 0 0 0 0 0 0 0 0 0 127 0" result="hardAlpha"/>
<feOffset dx="-3" dy="4"/>
<feGaussianBlur stdDeviation="0.5"/>
<feComposite in2="hardAlpha" operator="arithmetic" k2="-1" k3="1"/>
<feColorMatrix type="matrix" values="0 0 0 0 0.875 0 0 0 0 0 0 0 0 0 0 0 0 0 0.25 0"/>
<feBlend mode="normal" in2="shape" result="effect1_innerShadow_228_439"/>
</filter>
</defs>
</svg>
