<svg width="128" height="128" viewBox="0 0 128 128" fill="none" xmlns="http://www.w3.org/2000/svg">
<circle cx="64" cy="64" r="64" fill="#3C4043"/>
<path d="M36.0918 32.6615C35.9926 32.6666 35.893 32.6778 35.7934 32.6951C34.7834 32.8707 33.983 33.6451 33.7741 34.6488L36.1364 35.1404C33.7741 34.6488 33.7741 34.6489 33.774 34.649L33.774 34.6493L33.7739 34.6499L33.7735 34.6514L33.7727 34.6555L33.7702 34.6676L33.7621 34.7076C33.7554 34.7407 33.7463 34.7869 33.7354 34.8434C33.7138 34.9557 33.6848 35.1122 33.6549 35.2906C33.6007 35.6132 33.5218 36.1315 33.5052 36.5949C33.3319 41.4249 37.3761 44.9802 41.84 45.0714C46.4519 45.1655 50.6718 41.4477 50.4948 36.5465C50.4778 36.0772 50.3975 35.5671 50.3423 35.2507C50.3119 35.0762 50.2823 34.9238 50.2603 34.8145C50.2493 34.7594 50.2399 34.7144 50.233 34.6819L50.2246 34.6425L50.222 34.6303L50.2211 34.6261L50.2208 34.6246L50.2206 34.6239L50.2205 34.6236C50.2205 34.6235 50.2205 34.6233 47.7784 35.1582L50.2205 34.6233C50.0254 33.7327 49.361 33.0189 48.4866 32.7606C48.2231 32.6827 47.9532 32.65 47.6869 32.6598C47.6872 32.6587 47.6875 32.6576 47.6879 32.6565C47.7074 32.5939 47.723 32.5456 47.733 32.5151L47.7435 32.4835L47.7441 32.4819C47.7441 32.4817 47.7442 32.4816 47.7442 32.4815C47.7443 32.4813 47.7443 32.4812 47.7444 32.4811L47.7446 32.4804L47.7449 32.4793C47.745 32.4792 47.745 32.4791 47.745 32.479C48.1335 31.3442 47.6613 30.0932 46.6195 29.4983C46.2213 29.271 45.7829 29.164 45.3497 29.1694C45.2909 28.3351 45.1406 27.5094 45.0119 26.8992C44.917 26.4494 44.8207 26.0574 44.7478 25.7766C44.7112 25.6356 44.6801 25.5212 44.6576 25.4397C44.6463 25.399 44.6371 25.3664 44.6304 25.3428L44.6222 25.3142L44.6195 25.3051L44.6186 25.3019L44.6182 25.3006L44.6181 25.3C44.618 25.2998 44.6179 25.2996 42.2181 26L44.6179 25.2996C44.3228 24.2884 43.4256 23.5707 42.3743 23.5049C41.3231 23.4391 40.3433 24.0392 39.9244 25.0055L39.9243 25.0057M36.0918 32.6615L39.9243 25.0057M36.0918 32.6615C36.1096 32.5374 36.1309 32.4129 36.1561 32.287C36.2646 31.7469 36.4306 31.2677 36.6021 30.8033C36.9861 29.7636 37.5079 29.0808 37.9239 28.5751C37.9917 28.4927 38.0533 28.4185 38.1098 28.3504C38.3995 28.0014 38.5563 27.8126 38.7269 27.5071C38.9614 27.087 39.2554 26.4781 39.5072 25.9331C39.6291 25.6692 39.7345 25.435 39.8091 25.2671C39.8464 25.1833 39.8758 25.1165 39.8956 25.0713L39.9179 25.0204L39.9232 25.0083L39.9243 25.0058L39.9243 25.0057" fill="#FFBA17" stroke="white" stroke-width="5" stroke-linejoin="round"/>
<g filter="url(#filter0_i_228_462)">
<path d="M36.0036 36.6845C36.0243 36.1062 36.2216 35.1582 36.2216 35.1582C36.2216 35.1582 37.3948 37.0737 38.2931 36.6845C39.2261 36.2804 38.5112 34.9756 38.5112 33.9589C38.5112 32.9845 38.6219 32.5503 38.9473 31.6693C39.4322 30.3562 40.2274 29.9479 40.9097 28.7256C41.477 27.7096 42.2181 26 42.2181 26C42.2181 26 42.927 28.4291 42.8722 30.0339C42.827 31.3579 41.451 32.265 42.2181 33.3047C42.4511 33.6206 42.5932 33.8998 42.9812 33.9589C43.5203 34.0409 43.6827 33.463 44.0715 33.0867C44.6382 32.5381 45.3798 31.6693 45.3798 31.6693C45.3798 31.6693 44.8791 33.1262 44.8347 34.1769C44.7902 35.2277 45.1617 36.9026 45.1617 36.9026C46.1474 36.7741 47.7784 35.1582 47.7784 35.1582C47.7784 35.1582 47.9755 36.0584 47.9964 36.6367C48.1164 39.9591 45.2148 42.6398 41.891 42.5719C38.635 42.5054 35.8868 39.9391 36.0036 36.6845Z" fill="#FFBA17"/>
</g>
<path d="M36.2216 35.1582L35.2426 34.9544C35.3262 34.553 35.6463 34.2432 36.0503 34.1729C36.4538 34.1028 36.8592 34.2857 37.0736 34.6345C37.0738 34.6349 37.074 34.6352 37.0742 34.6355L37.0744 34.6359L37.0802 34.6451C37.0863 34.6548 37.0964 34.6705 37.1102 34.6915C37.1377 34.7336 37.1794 34.7956 37.2325 34.8699C37.3407 35.0212 37.4866 35.2099 37.6482 35.3813C37.6751 35.4099 37.7014 35.4369 37.727 35.4621C37.7113 35.3742 37.6926 35.2806 37.6715 35.1747C37.6575 35.1046 37.6424 35.0292 37.6264 34.9464C37.5729 34.6692 37.5112 34.3161 37.5112 33.9589C37.5112 33.4326 37.541 33.0095 37.6268 32.5823C37.7112 32.1619 37.843 31.773 38.0092 31.3229C38.3083 30.5131 38.709 29.9817 39.0823 29.5281C39.1394 29.4587 39.1946 29.3923 39.2483 29.3278C39.5453 28.9713 39.7942 28.6725 40.0366 28.2382C40.3006 27.7654 40.6144 27.113 40.8688 26.5623C40.9945 26.2904 41.1028 26.0495 41.1797 25.8766C41.2181 25.7903 41.2486 25.7211 41.2693 25.6738L41.2929 25.6198L41.2988 25.6063L41.3002 25.6031L41.3005 25.6024L41.3006 25.6023L36.2216 35.1582ZM36.2216 35.1582C35.2426 34.9544 35.2426 34.9545 35.2426 34.9545L35.2426 34.9546L35.2425 34.955L35.2423 34.9559L35.2417 34.9587L35.2397 34.9684L35.2327 35.003C35.2268 35.0325 35.2185 35.0746 35.2085 35.1266C35.1885 35.2302 35.1618 35.3748 35.1342 35.5389C35.0814 35.8535 35.0171 36.2898 35.0042 36.6486C34.8648 40.5334 38.1314 43.4954 41.8706 43.5717C45.7096 43.6501 49.1386 40.5545 48.9958 36.6006C48.9827 36.2394 48.9179 35.8136 48.8647 35.5086C48.8369 35.3496 48.8099 35.2103 48.7898 35.1105C48.7798 35.0605 48.7713 35.02 48.7653 34.9915L48.7582 34.9581L48.7562 34.9486L48.7555 34.9457L48.7553 34.9448L48.7553 34.9445L48.7552 34.9443C48.7552 34.9443 48.7552 34.9442 47.7784 35.1582L48.7552 34.9442C48.6772 34.588 48.4114 34.3024 48.0617 34.1991C47.712 34.0958 47.3338 34.1911 47.0747 34.4476L47.0745 34.4478L36.2216 35.1582ZM43.178 25.7198L42.2181 26C43.178 25.7198 43.178 25.7199 43.1781 25.72L43.1781 25.7203L43.1784 25.721L43.179 25.7231L43.1809 25.7299L43.1878 25.7537C43.1935 25.7741 43.2018 25.8032 43.2121 25.8404C43.2327 25.9147 43.2616 26.0212 43.2959 26.1534C43.3644 26.4174 43.4551 26.7865 43.5442 27.2088C43.7176 28.031 43.9034 29.1383 43.8716 30.0681C43.8444 30.865 43.4663 31.5863 43.2417 32.0147C43.2021 32.0903 43.1672 32.1568 43.14 32.213C43.0225 32.4547 42.9917 32.5684 42.9866 32.6276C42.9865 32.6288 42.9862 32.6299 42.986 32.6312C42.9841 32.6407 42.9814 32.6549 43.0228 32.711C43.0314 32.7228 43.04 32.7345 43.0483 32.7459C43.1299 32.6377 43.2397 32.5 43.376 32.3682C43.6333 32.1191 43.9414 31.786 44.1936 31.5047C44.3179 31.3662 44.425 31.2442 44.5009 31.157C44.5388 31.1134 44.5688 31.0787 44.5892 31.0551L44.6122 31.0283L44.6178 31.0218L44.619 31.0203L44.6192 31.0201L43.178 25.7198ZM43.178 25.7198C43.06 25.3154 42.7011 25.0283 42.2805 25.002M43.178 25.7198L42.2805 25.002M42.2805 25.002C41.8601 24.9756 41.4682 25.2157 41.3006 25.6022L42.2805 25.002ZM38.0956 35.7437C38.0956 35.7437 38.0952 35.7436 38.0944 35.7433L38.0956 35.7437ZM42.8067 33.0617C42.8067 33.0617 42.8072 33.0612 42.8082 33.0603C42.8072 33.0613 42.8067 33.0617 42.8067 33.0617ZM45.8757 30.8009C45.4586 30.5628 44.9311 30.6548 44.6193 31.02L46.3256 31.9942L46.3256 31.9941C46.3256 31.9941 46.3256 31.994 46.3256 31.994C46.4815 31.5399 46.2927 31.039 45.8757 30.8009Z" stroke="black" stroke-width="2" stroke-linejoin="round"/>
<path d="M29.3298 90.6282L26.8823 90.1188C27.0911 89.1152 27.8916 88.3408 28.9015 88.1652C29.3637 88.0848 29.8269 88.1373 30.2447 88.3016C30.263 87.7021 30.3163 87.1556 30.4287 86.5958C30.5705 85.8896 30.7898 85.2499 31.0406 84.5704C31.543 83.2103 32.221 82.3174 32.8053 81.6072C32.8971 81.4956 32.9836 81.3916 33.0655 81.2931C33.5034 80.7665 33.8112 80.3964 34.1233 79.8374C34.4962 79.1694 34.9499 78.2279 35.3267 77.4124C35.5112 77.0131 35.6704 76.6591 35.7833 76.4052C35.8397 76.2785 35.8843 76.1771 35.9145 76.1081L35.9488 76.0299L35.9571 76.0107L35.959 76.0064L35.9593 76.0057L35.9594 76.0056L35.9594 76.0056C36.3783 75.0392 37.3581 74.4391 38.4093 74.5049C39.4606 74.5707 40.3578 75.2884 40.6529 76.2996L38.2531 77C40.6529 76.2996 40.653 76.2998 40.6531 76.3001L40.6533 76.3007L40.6537 76.3021L40.6548 76.3059L40.6582 76.3176L40.6693 76.3563C40.6785 76.3888 40.6914 76.4345 40.7074 76.4922C40.7394 76.6076 40.7839 76.7714 40.8365 76.9741C40.9414 77.3782 41.0801 77.943 41.2166 78.59C41.4777 79.8279 41.7767 81.5758 41.725 83.0883C41.723 83.1483 41.72 83.2077 41.716 83.2665C42.4669 82.8369 43.4109 82.8162 44.1977 83.2655C45.2399 83.8606 45.7121 85.1123 45.3229 86.2474C45.3227 86.248 45.3225 86.2485 45.3223 86.2491M29.3298 90.6282L41.5629 84.2455C41.5629 84.2455 41.5629 84.2455 41.5629 84.2455C41.8435 84.4851 42.2798 84.8576 42.958 85.4365M29.3298 90.6282C29.3298 90.6282 30.4033 92.381 31.5113 92.8584M29.3298 90.6282C29.8063 90.7274 30.19 90.8072 30.499 90.8715M45.3223 86.2491L42.958 85.4365M45.3223 86.2491L45.3224 86.2486C45.3224 86.2488 45.3223 86.2491 42.958 85.4365M45.3223 86.2491L45.319 86.2588L45.3007 86.3138C45.284 86.3648 45.2587 86.4429 45.2276 86.5428C45.165 86.7438 45.0805 87.0277 44.9945 87.3536C44.8482 87.9083 44.726 88.48 44.6719 88.9446M42.958 85.4365C44.8594 87.0597 44.8594 87.0597 44.8593 87.0598L44.8592 87.06L44.8588 87.0604L44.8578 87.0616L44.8546 87.0654L44.8434 87.0784L44.8031 87.1253C44.7687 87.1653 44.7194 87.2223 44.6578 87.293C44.5351 87.434 44.3626 87.6304 44.1621 87.8539C43.8094 88.2473 43.3406 88.7577 42.895 89.1997C42.8472 89.2472 42.7996 89.2939 42.7524 89.3395C42.752 89.3402 42.7223 89.3724 42.6359 89.4892C42.6268 89.5014 42.6145 89.5183 42.5995 89.5389C42.5148 89.6552 42.3438 89.89 42.1757 90.0847C42.1723 90.0886 42.1688 90.0926 42.1654 90.0965C42.2642 91.5587 42.6336 93.2241 42.6336 93.2241M42.958 85.4365C42.224 85.1842 41.7178 85.0103 41.3688 84.8904M42.958 85.4365L41.3688 84.8904M44.6719 88.9446C44.6155 88.9982 44.5369 89.0719 44.4405 89.1598C44.4055 89.1918 44.3683 89.2254 44.3293 89.2603C44.1224 89.4458 43.8626 89.6697 43.5794 89.8938C43.2359 90.1655 42.8975 90.4059 42.6037 90.5768C42.363 90.7168 42.2514 90.7514 42.252 90.7537C42.2523 90.7547 42.2722 90.75 42.3104 90.745L42.6336 93.2241M44.6719 88.9446C44.6795 88.9374 44.6866 88.9305 44.6934 88.9241C44.7219 88.8969 44.7429 88.8765 44.7556 88.8642L44.7678 88.8523L44.7682 88.8518C45.4159 88.2104 46.3613 87.9724 47.2355 88.2306C48.11 88.4889 48.7744 89.2027 48.9695 90.0934L46.5273 90.6282C45.6896 90.8117 45.1392 90.9322 44.7776 91.0114C44.6839 90.347 44.6262 89.7081 44.6446 89.2737C44.6489 89.1721 44.6582 89.0618 44.6719 88.9446ZM42.6336 93.2241C42.7366 93.2106 42.8443 93.1863 42.9556 93.1526C42.8533 93.1753 42.746 93.1991 42.6336 93.2241ZM41.3688 84.8904C40.5937 84.6241 40.5937 84.6243 40.5936 84.6244L40.5934 84.6249L40.593 84.6262L40.592 84.6292L40.5891 84.6376L40.5803 84.6637C40.5731 84.6852 40.5632 84.7147 40.5511 84.7516C40.5268 84.8253 40.4934 84.9288 40.4536 85.0565C40.3744 85.3109 40.2685 85.6667 40.1599 86.0782C40.1288 86.1961 40.0965 86.3223 40.0638 86.4553M41.3688 84.8904L41.0567 83.8133L41.0566 83.8134L41.0551 83.8151L41.0475 83.824L41.0148 83.862C40.9856 83.8959 40.9421 83.9462 40.887 84.0096C40.7765 84.1364 40.6204 84.3142 40.4395 84.5159C40.0682 84.93 39.6288 85.4043 39.2723 85.7494C38.9723 86.0399 38.7482 86.3373 38.6169 86.5145C38.5829 86.5605 38.5491 86.6068 38.523 86.6425C38.4948 86.6809 38.473 86.7107 38.4528 86.7376C38.4331 86.764 38.4187 86.7827 38.4079 86.7965L38.3959 86.8113C38.3932 86.8147 38.3919 86.8161 38.392 86.8161L38.397 86.8104C38.4003 86.8069 38.4053 86.8015 38.4121 86.7946C38.4256 86.7809 38.4475 86.7596 38.4778 86.7337C38.5384 86.6819 38.6394 86.6058 38.7818 86.5347C38.9288 86.4612 39.0997 86.4032 39.287 86.3745C39.4728 86.3461 39.6364 86.3525 39.7648 86.372C39.8084 86.3786 39.8549 86.3883 39.9035 86.4014C39.955 86.4153 40.0088 86.4331 40.0638 86.4553M41.3688 84.8904C41.3087 85.0594 41.2454 85.2171 41.1828 85.363C41.031 85.7167 40.7958 86.1761 40.6489 86.4632C40.598 86.5625 40.5577 86.6412 40.5351 86.6878C40.5275 86.7033 40.5204 86.7182 40.5136 86.7325C40.5143 86.7334 40.5149 86.7343 40.5156 86.7352C40.5445 86.7748 40.5571 86.7903 40.5571 86.7903C40.557 86.7903 40.5468 86.778 40.529 86.7597C40.5234 86.7539 40.517 86.7474 40.5098 86.7404C40.4669 86.8311 40.4397 86.8954 40.4229 86.938C40.4043 86.9849 40.3983 87.0052 40.3977 87.005C40.3971 87.0049 40.4018 86.9845 40.4048 86.9498C40.4056 86.9403 40.4063 86.9308 40.4067 86.9213C40.412 86.8179 40.3972 86.7154 40.3724 86.6256M41.3688 84.8904L40.3724 86.6256M40.0638 86.4553C40.0861 86.4643 40.1086 86.474 40.1312 86.4845C40.1616 86.4985 40.1923 86.514 40.223 86.5309C40.2801 86.5624 40.3299 86.5948 40.3724 86.6256M40.0638 86.4553C40.0566 86.4847 40.0494 86.5145 40.0421 86.5446C40.0416 86.5469 40.041 86.5491 40.0405 86.5514M40.3724 86.6256L39.661 88.8464C39.7152 88.0498 39.8789 87.2228 40.0405 86.5514M40.0405 86.5514L40.0453 86.5479L40.0405 86.5514ZM31.5113 92.8584L30.6263 91.676C30.6263 91.676 30.6263 91.6746 30.6264 91.672M31.5113 92.8584C31.5309 92.5993 31.5813 92.2328 31.6447 91.855C31.6787 91.6522 31.7121 91.4717 31.7372 91.3409C31.7376 91.3386 31.7381 91.3363 31.7385 91.334C31.7511 91.2687 31.7613 91.2171 31.7682 91.183L31.7757 91.1456L31.7774 91.1377L31.7774 91.1374C31.7774 91.1374 31.7774 91.1374 31.6364 91.1081C31.5227 91.0845 31.3176 91.0418 30.9471 90.9648M31.5113 92.8584L31.4605 89.3204L31.4599 89.3194L31.4586 89.3173L31.4627 89.3239C31.4691 89.3339 31.4811 89.3528 31.4983 89.3791C31.533 89.432 31.5874 89.5129 31.6573 89.6107C31.8023 89.8136 31.9901 90.0553 32.1889 90.2662C32.2868 90.3699 32.373 90.451 32.444 90.5098C32.5063 90.5614 32.5381 90.5802 32.538 90.5803C32.538 90.5803 32.5369 90.5797 32.5347 90.5785C32.5327 90.5775 32.0536 90.3305 31.4187 90.6056C31.3068 90.654 31.14 90.7525 30.9791 90.9286C30.9681 90.9406 30.9575 90.9527 30.9471 90.9648M30.499 90.8715C30.4998 90.8759 30.5007 90.8802 30.5016 90.8846C30.5553 91.1539 30.591 91.3327 30.614 91.5192C30.6253 91.6107 30.6264 91.6586 30.6264 91.672M30.499 90.8715C30.4778 90.7653 30.4538 90.645 30.4267 90.5049C30.3989 90.3605 30.3676 90.1934 30.3386 90.0104L30.6264 91.672M30.499 90.8715C30.6703 90.9072 30.8186 90.938 30.9471 90.9648M30.6264 91.672C30.6271 91.653 30.6334 91.5671 30.674 91.4435C30.7201 91.3034 30.8051 91.1306 30.9471 90.9648" fill="#FFBA17" stroke="white" stroke-width="5" stroke-linejoin="round"/>
<g filter="url(#filter1_i_228_462)">
<path d="M29.0053 93.2372C29.0362 92.3766 29.3298 90.9658 29.3298 90.9658C29.3298 90.9658 31.0756 93.8162 32.4124 93.2372C33.8007 92.6358 32.7369 90.6941 32.7369 89.1811C32.7369 87.7312 32.9017 87.0851 33.3858 85.7741C34.1075 83.82 35.2908 83.2125 36.3062 81.3936C37.1502 79.8816 38.2531 77.3376 38.2531 77.3376C38.2531 77.3376 39.3081 80.9524 39.2265 83.3405C39.1592 85.3107 37.1116 86.6605 38.2531 88.2077C38.5999 88.6778 38.8113 89.0933 39.3887 89.1811C40.1909 89.3032 40.4327 88.4432 41.0112 87.8832C41.8545 87.0668 42.958 85.7741 42.958 85.7741C42.958 85.7741 42.213 87.942 42.1468 89.5056C42.0807 91.0692 42.6336 93.5616 42.6336 93.5616C44.1003 93.3704 46.5273 90.9658 46.5273 90.9658C46.5273 90.9658 46.8207 92.3054 46.8518 93.166C47.0304 98.11 42.7125 102.099 37.7663 101.998C32.9211 101.899 28.8315 98.0803 29.0053 93.2372Z" fill="#FFBA17"/>
</g>
<path d="M29.3298 90.9658L28.3508 90.762C28.4344 90.3606 28.7545 90.0508 29.1585 89.9806C29.5622 89.9104 29.9677 90.0935 30.1821 90.4426C30.1821 90.4427 30.1822 90.4428 30.1822 90.4429C30.1822 90.4429 30.1822 90.4429 30.1823 90.4429L30.1824 90.4432L30.1826 90.4435L30.184 90.4458L30.195 90.4632C30.2054 90.4796 30.2218 90.5054 30.2438 90.539C30.2879 90.6062 30.3537 90.704 30.437 90.8206C30.6057 91.0566 30.8369 91.3563 31.0975 91.6327C31.3667 91.9183 31.6224 92.1306 31.8339 92.2424C31.9443 92.3007 32.0034 92.3127 32.0269 92.3142C32.09 92.2855 32.0934 92.2715 32.097 92.2567C32.0976 92.2545 32.0981 92.2522 32.0989 92.2499C32.1244 92.1722 32.1435 92.0036 32.1028 91.6733C32.0725 91.4277 32.0222 91.176 31.9631 90.88C31.9428 90.7785 31.9215 90.6717 31.8995 90.5582C31.8204 90.1484 31.7369 89.6624 31.7369 89.1811C31.7369 88.4171 31.7802 87.8221 31.8994 87.2287C32.0171 86.6422 32.2022 86.0927 32.4478 85.4277C32.8652 84.2974 33.4221 83.556 33.9636 82.8978C34.0454 82.7984 34.1257 82.7021 34.2046 82.6074C34.6479 82.0755 35.0487 81.5947 35.433 80.9062C35.8354 80.1854 36.3089 79.2004 36.6884 78.3791C36.8765 77.9719 37.0387 77.6112 37.1538 77.3523C37.2114 77.223 37.257 77.1193 37.2882 77.0482L37.3238 76.9669L37.3328 76.9463L37.335 76.9412L37.3355 76.9401L37.3356 76.9399L29.3298 90.9658ZM29.3298 90.9658C28.3508 90.762 28.3508 90.7621 28.3508 90.7622L28.3508 90.7623L28.3507 90.7627L28.3504 90.7638L28.3496 90.7677L28.3468 90.7813L28.3367 90.8311C28.3282 90.8738 28.316 90.935 28.3015 91.0109C28.2723 91.1624 28.2332 91.3736 28.193 91.6132C28.1148 92.0788 28.0239 92.7013 28.006 93.2013C27.8096 98.6746 32.4176 102.889 37.7459 102.998C43.2073 103.109 48.0525 98.7054 47.8511 93.1299C47.833 92.6276 47.7416 92.0214 47.663 91.5713C47.6226 91.3397 47.5833 91.1366 47.554 90.9912C47.5393 90.9184 47.5271 90.8596 47.5185 90.8186L47.5083 90.7707L47.5054 90.7575L47.5046 90.7537L47.5043 90.7525L47.5042 90.7521L47.5042 90.752C47.5042 90.7519 47.5042 90.7519 46.5273 90.9658L47.5042 90.7519C47.4262 90.3956 47.1604 90.1101 46.8106 90.0068C46.4609 89.9035 46.0827 89.9987 45.8237 90.2553L45.8235 90.2554L29.3298 90.9658ZM39.213 77.0574L38.2531 77.3376C39.213 77.0574 39.213 77.0575 39.2131 77.0576L39.2132 77.0579L39.2134 77.0588L39.2142 77.0615L39.2169 77.0709L39.2266 77.1048C39.235 77.134 39.2469 77.1763 39.2619 77.2305C39.2919 77.3387 39.3342 77.4946 39.3846 77.6885C39.4851 78.0759 39.6182 78.6177 39.7489 79.2371C40.0054 80.4536 40.2711 82.0532 40.2259 83.3746C40.1897 84.4352 39.6948 85.3857 39.3565 86.0354C39.2927 86.158 39.2345 86.2699 39.1859 86.3698C39.0066 86.7389 38.9262 86.9758 38.9104 87.1579C38.8989 87.2909 38.9172 87.4234 39.0578 87.614C39.1071 87.6809 39.153 87.7454 39.1933 87.8023L39.207 87.8215C39.2429 87.8721 39.2734 87.9151 39.3036 87.9566C39.3721 88.0505 39.4168 88.105 39.4522 88.1415C39.4698 88.1596 39.482 88.17 39.4895 88.1758C39.5001 88.1647 39.5126 88.151 39.5271 88.1342C39.5903 88.0611 39.647 87.9836 39.7306 87.8697C39.758 87.8323 39.7883 87.7909 39.8226 87.7445C39.945 87.5791 40.1088 87.3649 40.3156 87.1647C40.7112 86.7818 41.179 86.2757 41.5563 85.8549C41.7431 85.6467 41.9041 85.4633 42.0183 85.3322C42.0753 85.2666 42.1205 85.2143 42.1513 85.1786L42.1863 85.1379L42.195 85.1278L42.197 85.1254L42.1974 85.1249L42.1975 85.1248L39.213 77.0574ZM39.213 77.0574C39.095 76.6529 38.7361 76.3659 38.3156 76.3395C37.8951 76.3132 37.5032 76.5533 37.3356 76.9398L39.213 77.0574ZM32.0392 92.3135C32.0393 92.3139 32.0365 92.3146 32.03 92.3144C32.0358 92.313 32.039 92.3131 32.0392 92.3135Z" stroke="black" stroke-width="2" stroke-linejoin="round"/>
<path d="M88.6703 58.1354C88.4041 58.0929 88.1284 58.0932 87.8529 58.1406C86.8387 58.3152 86.0351 59.0935 85.8281 60.1016L88.2771 60.6044C85.8281 60.1016 85.8281 60.1017 85.8281 60.1019L85.828 60.1021L85.8279 60.1028L85.8276 60.1044L85.8266 60.109L85.8237 60.1232L85.8141 60.1714C85.8061 60.2117 85.7951 60.2683 85.7819 60.3378C85.7557 60.4761 85.7204 60.6688 85.6841 60.8882C85.617 61.2933 85.5251 61.9117 85.5061 62.45C85.3054 68.117 90.001 72.388 95.312 72.4979C100.79 72.6112 105.699 68.1434 105.494 62.3889C105.475 61.8447 105.381 61.2377 105.313 60.8421C105.276 60.6282 105.241 60.4412 105.214 60.3071C105.201 60.2397 105.189 60.1848 105.181 60.1454L105.171 60.0983L105.168 60.0841L105.167 60.0794L105.167 60.0777L105.167 60.077L105.167 60.0767C105.167 60.0766 105.167 60.0765 102.723 60.6044L105.167 60.0765C104.973 59.181 104.305 58.4632 103.426 58.2054C102.855 58.0377 102.253 58.0822 101.724 58.3126C101.755 58.1776 101.789 58.0402 101.824 57.9027C101.895 57.6311 101.964 57.3943 102.016 57.2269C102.041 57.1437 102.062 57.079 102.076 57.0372L102.09 56.9926L102.092 56.9864C102.092 56.9862 102.092 56.9861 102.093 56.986L102.093 56.9856L102.093 56.9849C102.093 56.9848 102.093 56.9846 102.093 56.9845C102.478 55.8467 101.999 54.5959 100.953 54.006C100.37 53.6775 99.7035 53.6056 99.0933 53.7647C99.079 52.5459 98.8516 51.2302 98.6547 50.2839C98.5388 49.7268 98.4209 49.2406 98.3319 48.8926C98.2872 48.7181 98.2493 48.5767 98.222 48.4768C98.2083 48.4269 98.1973 48.3872 98.1893 48.3588L98.1797 48.3247L98.1767 48.3142L98.1757 48.3107L98.1753 48.3093L98.1751 48.3088C98.175 48.3085 98.175 48.3083 95.7726 49L98.175 48.3083C97.8824 47.2923 96.9824 46.5702 95.9272 46.5048C94.872 46.4394 93.8897 47.0448 93.474 48.0169C93.474 48.0169 93.474 48.017 93.4739 48.017M88.6703 58.1354L93.4739 48.017M88.6703 58.1354C88.7457 57.1006 88.9592 56.3599 89.3351 55.3279C89.7768 54.1156 90.375 53.3186 90.877 52.7001C90.9568 52.6018 91.0309 52.5113 91.1004 52.4266C91.4663 51.9803 91.7025 51.6923 91.9473 51.2477C92.2536 50.6915 92.63 49.9002 92.9459 49.2071C93.1001 48.869 93.2331 48.5692 93.3274 48.3542C93.3745 48.2468 93.4117 48.1611 93.4369 48.1029L93.4654 48.037L93.4722 48.021L93.4737 48.0175L93.4739 48.017" fill="#FFBA17" stroke="white" stroke-width="5" stroke-linejoin="round"/>
<g filter="url(#filter2_i_228_462)">
<path d="M88.0045 62.5384C88.0304 61.8057 88.2771 60.6044 88.2771 60.6044C88.2771 60.6044 89.7435 63.0315 90.8664 62.5384C92.0326 62.0264 91.139 60.373 91.139 59.0848C91.139 57.8501 91.2774 57.3 91.6841 56.1837C92.2903 54.5197 93.2843 54.0025 94.1372 52.4537C94.8462 51.1662 95.7726 49 95.7726 49C95.7726 49 96.6588 52.078 96.5903 54.1115C96.5337 55.7891 94.8137 56.9384 95.7726 58.2559C96.0639 58.6561 96.2415 59.0099 96.7265 59.0848C97.4004 59.1887 97.6034 58.4564 98.0894 57.9796C98.7978 57.2844 99.7248 56.1837 99.7248 56.1837C99.7248 56.1837 99.0989 58.0296 99.0433 59.3611C98.9878 60.6925 99.4522 62.8147 99.4522 62.8147C100.684 62.6519 102.723 60.6044 102.723 60.6044C102.723 60.6044 102.969 61.7451 102.996 62.4779C103.145 66.6876 99.5185 70.0844 95.3637 69.9984C91.2937 69.9142 87.8585 66.6623 88.0045 62.5384Z" fill="#FFBA17"/>
</g>
<path d="M88.2771 60.6044L87.2975 60.4033C87.3803 60 87.7017 59.6887 88.1074 59.6189C88.5127 59.5491 88.9193 59.7346 89.1323 60.0862C89.1323 60.0862 89.1324 60.0862 89.1324 60.0863C89.1324 60.0864 89.1325 60.0865 89.1326 60.0867L89.1328 60.0869C89.1328 60.087 89.1329 60.0871 89.133 60.0873L89.1336 60.0883L89.1422 60.1022C89.1506 60.1156 89.164 60.1369 89.182 60.1647C89.2181 60.2206 89.2723 60.3022 89.341 60.3996C89.4804 60.5974 89.6703 60.8466 89.8829 61.0753C90.1044 61.3135 90.3054 61.4798 90.4602 61.5627C90.4615 61.5634 90.4627 61.5641 90.4639 61.5647C90.4686 61.4957 90.4672 61.3871 90.4473 61.2234C90.4225 61.0197 90.3817 60.8121 90.3324 60.5619C90.3152 60.4747 90.297 60.3822 90.278 60.283C90.2114 59.9333 90.139 59.5085 90.139 59.0848C90.139 57.7068 90.3081 57.0393 90.7445 55.8414C91.103 54.8572 91.5823 54.2113 92.0417 53.6453C92.1113 53.5595 92.1793 53.4768 92.2459 53.3958C92.6179 52.9433 92.9454 52.5448 93.2612 51.9713C93.5964 51.3626 93.9923 50.528 94.3108 49.8293C94.4685 49.4833 94.6045 49.1767 94.701 48.9568C94.7492 48.8469 94.7875 48.7589 94.8136 48.6985L94.8433 48.6296L94.8508 48.6121L94.8526 48.6079L94.853 48.607L94.8531 48.6068C94.8531 48.6068 94.8531 48.6068 94.8531 48.6068C95.0194 48.2179 95.4123 47.9758 95.8344 48.0019C96.2565 48.0281 96.6165 48.3169 96.7335 48.7233L95.7726 49C96.7335 48.7233 96.7336 48.7234 96.7336 48.7235L96.7337 48.7238L96.7339 48.7246L96.7346 48.727L96.7369 48.7352L96.7452 48.7645C96.7523 48.7897 96.7624 48.826 96.7751 48.8725C96.8005 48.9653 96.8362 49.0987 96.8787 49.2647C96.9636 49.5961 97.0759 50.0595 97.1862 50.5895C97.4021 51.6273 97.6282 53.0028 97.5897 54.1451C97.5581 55.083 97.1237 55.927 96.8404 56.4774C96.7881 56.5791 96.7409 56.6707 96.7024 56.751C96.5532 57.0622 96.4953 57.2448 96.4842 57.3736C96.4773 57.4547 96.4841 57.5341 96.5811 57.6674C96.6234 57.7256 96.6627 57.7815 96.6966 57.8299C96.7005 57.8356 96.7044 57.8411 96.7081 57.8464C96.7383 57.8896 96.7633 57.9253 96.7881 57.9598C96.7949 57.9692 96.8013 57.978 96.8074 57.9864C96.8283 57.958 96.8513 57.9263 96.878 57.8893C96.9015 57.8568 96.9279 57.8203 96.9586 57.7784C97.0622 57.6364 97.2058 57.4456 97.389 57.2658C97.7173 56.9437 98.1073 56.516 98.4237 56.1584C98.58 55.9817 98.7147 55.8262 98.8103 55.7149C98.858 55.6594 98.8958 55.615 98.9215 55.5848L98.9506 55.5504L98.9578 55.5419L98.9595 55.5399L98.9598 55.5395L88.2771 60.6044ZM88.2771 60.6044C87.2975 60.4033 87.2975 60.4033 87.2975 60.4034L87.2974 60.4035L87.2974 60.4039L87.2972 60.4049L87.2965 60.4083L87.2941 60.4201L87.2855 60.463C87.2782 60.4997 87.268 60.5522 87.2556 60.6172C87.231 60.747 87.1979 60.9279 87.1639 61.1332C87.0982 61.5304 87.0205 62.0679 87.0051 62.5031C86.8373 67.2442 90.7766 70.9037 95.343 70.9982C100.027 71.0951 104.167 67.2699 103.995 62.4423C103.979 62.0048 103.901 61.481 103.835 61.0967C103.801 60.898 103.767 60.724 103.743 60.5993C103.73 60.5368 103.72 60.4864 103.713 60.4511L103.704 60.4097L103.701 60.3982L103.701 60.3949L103.701 60.3938L103.7 60.3935L103.7 60.3933C103.7 60.3933 103.7 60.3932 102.723 60.6044L103.7 60.3932C103.623 60.035 103.356 59.7479 103.004 59.6448C102.653 59.5417 102.273 59.6391 102.014 59.8986L102.014 59.8988L88.2771 60.6044ZM100.209 61.3934C100.104 60.7157 100.02 59.9533 100.042 59.4027C100.066 58.8466 100.214 58.1358 100.373 57.5249C100.45 57.2279 100.526 56.9698 100.582 56.7865C100.61 56.6951 100.633 56.6228 100.649 56.5742L100.667 56.5199L100.671 56.5072L100.672 56.5048L100.672 56.5047L100.672 56.5046C100.826 56.0493 100.635 55.5487 100.216 55.3126C99.7971 55.0765 99.2696 55.1718 98.9599 55.5395L100.209 61.3934ZM90.5551 61.6042C90.5595 61.6046 90.5619 61.6052 90.562 61.6054C90.5621 61.6056 90.5599 61.6054 90.5551 61.6042Z" stroke="black" stroke-width="2" stroke-linejoin="round"/>
<path d="M59.7959 38.0796L31.0092 64.4888C30.0857 65.336 28.6607 65.312 27.7663 64.4342C26.8052 63.491 26.8289 61.9354 27.8183 61.0219L59.7865 31.5055C61.3189 30.0906 63.6811 30.0906 65.2135 31.5055L97.1817 61.0219C98.1711 61.9354 98.1948 63.491 97.2337 64.4342C96.3393 65.312 94.9143 65.336 93.9909 64.4888L65.2041 38.0796C63.6745 36.6763 61.3256 36.6763 59.7959 38.0796Z" fill="#D7C8C1"/>
<path d="M87 63.004V100H38V63.004L62.5 40.0001L87 63.004Z" fill="#98CFEB"/>
<path d="M89.5 63.7615L92.3008 66.331C94.2041 68.0772 97.1413 68.0277 98.9848 66.2185C100.966 64.2743 100.917 61.068 98.8776 59.1851L66.9094 29.6687C64.4194 27.3696 60.5807 27.3696 58.0906 29.6687L26.1224 59.1851C24.0831 61.068 24.0342 64.2743 26.0152 66.2185C27.8587 68.0277 30.7959 68.0772 32.6992 66.331L35.5 63.7616V100C35.5 101.381 36.6193 102.5 38 102.5H87C88.3807 102.5 89.5 101.381 89.5 100V63.7615Z" stroke="white" stroke-width="5" stroke-linejoin="round"/>
<path d="M31.6852 65.2256L60.4719 38.8164C61.6192 37.7639 63.3809 37.7639 64.5281 38.8164L93.3148 65.2256C94.6302 66.4324 96.6601 66.3982 97.9341 65.1478C99.3032 63.8042 99.2694 61.5884 97.86 60.287L65.8919 30.7707C63.9764 29.0021 61.0236 29.0021 59.1082 30.7707L27.14 60.287C25.7306 61.5884 25.6968 63.8042 27.0659 65.1478C28.3399 66.3982 30.3698 66.4324 31.6852 65.2256Z" fill="#D7C8C1" stroke="black" stroke-width="2" stroke-linejoin="round"/>
<path d="M88 63.004C88 62.7278 87.8858 62.464 87.6845 62.2749L63.1845 39.271C62.7997 38.9097 62.2003 38.9097 61.8155 39.271L37.3155 62.2749C37.1142 62.464 37 62.7278 37 63.004V100C37 100.552 37.4477 101 38 101H62.5H87C87.5523 101 88 100.552 88 100V63.004Z" fill="#98CFEB" stroke="black" stroke-width="2" stroke-linejoin="round"/>
<g filter="url(#filter3_i_228_462)">
<circle cx="62.4737" cy="52.9212" r="2.84211" fill="#D5F5FC"/>
</g>
<circle cx="62.4737" cy="52.9212" r="3.84211" stroke="black" stroke-width="2"/>
<rect x="46" y="74" width="14" height="27" fill="#473D2E" stroke="black" stroke-width="2" stroke-linejoin="round"/>
<g filter="url(#filter4_i_228_462)">
<rect x="71" y="75" width="7.57895" height="8.05263" fill="#D5F5FC"/>
</g>
<rect x="70" y="74" width="9.57895" height="10.0526" stroke="black" stroke-width="2" stroke-linejoin="round"/>
<g filter="url(#filter5_i_228_462)">
<path d="M36.0036 36.6845C36.0243 36.1062 36.2216 35.1582 36.2216 35.1582C36.2216 35.1582 37.3948 37.0737 38.2931 36.6845C39.2261 36.2804 38.5112 34.9756 38.5112 33.9589C38.5112 32.9845 38.6219 32.5503 38.9473 31.6693C39.4322 30.3562 40.2274 29.9479 40.9097 28.7256C41.477 27.7096 42.2181 26 42.2181 26C42.2181 26 42.927 28.4291 42.8722 30.0339C42.827 31.3579 41.451 32.265 42.2181 33.3047C42.4511 33.6206 42.5932 33.8998 42.9812 33.9589C43.5203 34.0409 43.6827 33.463 44.0715 33.0867C44.6382 32.5381 45.3798 31.6693 45.3798 31.6693C45.3798 31.6693 44.8791 33.1262 44.8347 34.1769C44.7902 35.2277 45.1617 36.9026 45.1617 36.9026C46.1474 36.7741 47.7784 35.1582 47.7784 35.1582C47.7784 35.1582 47.9755 36.0584 47.9964 36.6367C48.1164 39.9591 45.2148 42.6398 41.891 42.5719C38.635 42.5054 35.8868 39.9391 36.0036 36.6845Z" fill="#FFBA17"/>
</g>
<path d="M36.2216 35.1582L35.2426 34.9544C35.3262 34.553 35.6463 34.2432 36.0503 34.1729C36.4538 34.1028 36.8592 34.2857 37.0736 34.6345C37.0738 34.6349 37.074 34.6352 37.0742 34.6355L37.0744 34.6359L37.0802 34.6451C37.0863 34.6548 37.0964 34.6705 37.1102 34.6915C37.1377 34.7336 37.1794 34.7956 37.2325 34.8699C37.3407 35.0212 37.4866 35.2099 37.6482 35.3813C37.6751 35.4099 37.7014 35.4369 37.727 35.4621C37.7113 35.3742 37.6926 35.2806 37.6715 35.1747C37.6575 35.1046 37.6424 35.0292 37.6264 34.9464C37.5729 34.6692 37.5112 34.3161 37.5112 33.9589C37.5112 33.4326 37.541 33.0095 37.6268 32.5823C37.7112 32.1619 37.843 31.773 38.0092 31.3229C38.3083 30.5131 38.709 29.9817 39.0823 29.5281C39.1394 29.4587 39.1946 29.3923 39.2483 29.3278C39.5453 28.9713 39.7942 28.6725 40.0366 28.2382C40.3006 27.7654 40.6144 27.113 40.8688 26.5623C40.9945 26.2904 41.1028 26.0495 41.1797 25.8766C41.2181 25.7903 41.2486 25.7211 41.2693 25.6738L41.2929 25.6198L41.2988 25.6063L41.3002 25.6031L41.3005 25.6024L41.3006 25.6023L36.2216 35.1582ZM36.2216 35.1582C35.2426 34.9544 35.2426 34.9545 35.2426 34.9545L35.2426 34.9546L35.2425 34.955L35.2423 34.9559L35.2417 34.9587L35.2397 34.9684L35.2327 35.003C35.2268 35.0325 35.2185 35.0746 35.2085 35.1266C35.1885 35.2302 35.1618 35.3748 35.1342 35.5389C35.0814 35.8535 35.0171 36.2898 35.0042 36.6486C34.8648 40.5334 38.1314 43.4954 41.8706 43.5717C45.7096 43.6501 49.1386 40.5545 48.9958 36.6006C48.9827 36.2394 48.9179 35.8136 48.8647 35.5086C48.8369 35.3496 48.8099 35.2103 48.7898 35.1105C48.7798 35.0605 48.7713 35.02 48.7653 34.9915L48.7582 34.9581L48.7562 34.9486L48.7555 34.9457L48.7553 34.9448L48.7553 34.9445L48.7552 34.9443C48.7552 34.9443 48.7552 34.9442 47.7784 35.1582L48.7552 34.9442C48.6772 34.588 48.4114 34.3024 48.0617 34.1991C47.712 34.0958 47.3338 34.1911 47.0747 34.4476L47.0745 34.4478L36.2216 35.1582ZM43.178 25.7198L42.2181 26C43.178 25.7198 43.178 25.7199 43.1781 25.72L43.1781 25.7203L43.1784 25.721L43.179 25.7231L43.1809 25.7299L43.1878 25.7537C43.1935 25.7741 43.2018 25.8032 43.2121 25.8404C43.2327 25.9147 43.2616 26.0212 43.2959 26.1534C43.3644 26.4174 43.4551 26.7865 43.5442 27.2088C43.7176 28.031 43.9034 29.1383 43.8716 30.0681C43.8444 30.865 43.4663 31.5863 43.2417 32.0147C43.2021 32.0903 43.1672 32.1568 43.14 32.213C43.0225 32.4547 42.9917 32.5684 42.9866 32.6276C42.9865 32.6288 42.9862 32.6299 42.986 32.6312C42.9841 32.6407 42.9814 32.6549 43.0228 32.711C43.0314 32.7228 43.04 32.7345 43.0483 32.7459C43.1299 32.6377 43.2397 32.5 43.376 32.3682C43.6333 32.1191 43.9414 31.786 44.1936 31.5047C44.3179 31.3662 44.425 31.2442 44.5009 31.157C44.5388 31.1134 44.5688 31.0787 44.5892 31.0551L44.6122 31.0283L44.6178 31.0218L44.619 31.0203L44.6192 31.0201L43.178 25.7198ZM43.178 25.7198C43.06 25.3154 42.7011 25.0283 42.2805 25.002M43.178 25.7198L42.2805 25.002M42.2805 25.002C41.8601 24.9756 41.4682 25.2157 41.3006 25.6022L42.2805 25.002ZM38.0956 35.7437C38.0956 35.7437 38.0952 35.7436 38.0944 35.7433L38.0956 35.7437ZM42.8067 33.0617C42.8067 33.0617 42.8072 33.0612 42.8082 33.0603C42.8072 33.0613 42.8067 33.0617 42.8067 33.0617ZM45.8757 30.8009C45.4586 30.5628 44.9311 30.6548 44.6193 31.02L46.3256 31.9942L46.3256 31.9941C46.3256 31.9941 46.3256 31.994 46.3256 31.994C46.4815 31.5399 46.2927 31.039 45.8757 30.8009Z" stroke="black" stroke-width="2" stroke-linejoin="round"/>
<g filter="url(#filter6_i_228_462)">
<path d="M88.0045 62.5384C88.0304 61.8057 88.2771 60.6044 88.2771 60.6044C88.2771 60.6044 89.7435 63.0315 90.8664 62.5384C92.0326 62.0264 91.139 60.373 91.139 59.0848C91.139 57.8501 91.2774 57.3 91.6841 56.1837C92.2903 54.5197 93.2843 54.0025 94.1372 52.4537C94.8462 51.1662 95.7726 49 95.7726 49C95.7726 49 96.6588 52.078 96.5903 54.1115C96.5337 55.7891 94.8137 56.9384 95.7726 58.2559C96.0639 58.6561 96.2415 59.0099 96.7265 59.0848C97.4004 59.1887 97.6034 58.4564 98.0894 57.9796C98.7978 57.2844 99.7248 56.1837 99.7248 56.1837C99.7248 56.1837 99.0989 58.0296 99.0433 59.3611C98.9878 60.6925 99.4522 62.8147 99.4522 62.8147C100.684 62.6519 102.723 60.6044 102.723 60.6044C102.723 60.6044 102.969 61.7451 102.996 62.4779C103.145 66.6876 99.5185 70.0844 95.3637 69.9984C91.2937 69.9142 87.8585 66.6623 88.0045 62.5384Z" fill="#FFBA17"/>
</g>
<path d="M88.2771 60.6044L87.2975 60.4033C87.3803 60 87.7017 59.6887 88.1074 59.6189C88.5127 59.5491 88.9193 59.7346 89.1323 60.0862C89.1323 60.0862 89.1324 60.0862 89.1324 60.0863C89.1324 60.0864 89.1325 60.0865 89.1326 60.0867L89.1328 60.0869C89.1328 60.087 89.1329 60.0871 89.133 60.0873L89.1336 60.0883L89.1422 60.1022C89.1506 60.1156 89.164 60.1369 89.182 60.1647C89.2181 60.2206 89.2723 60.3022 89.341 60.3996C89.4804 60.5974 89.6703 60.8466 89.8829 61.0753C90.1044 61.3135 90.3054 61.4798 90.4602 61.5627C90.4615 61.5634 90.4627 61.5641 90.4639 61.5647C90.4686 61.4957 90.4672 61.3871 90.4473 61.2234C90.4225 61.0197 90.3817 60.8121 90.3324 60.5619C90.3152 60.4747 90.297 60.3822 90.278 60.283C90.2114 59.9333 90.139 59.5085 90.139 59.0848C90.139 57.7068 90.3081 57.0393 90.7445 55.8414C91.103 54.8572 91.5823 54.2113 92.0417 53.6453C92.1113 53.5595 92.1793 53.4768 92.2459 53.3958C92.6179 52.9433 92.9454 52.5448 93.2612 51.9713C93.5964 51.3626 93.9923 50.528 94.3108 49.8293C94.4685 49.4833 94.6045 49.1767 94.701 48.9568C94.7492 48.8469 94.7875 48.7589 94.8136 48.6985L94.8433 48.6296L94.8508 48.6121L94.8526 48.6079L94.853 48.607L94.8531 48.6068C94.8531 48.6068 94.8531 48.6068 94.8531 48.6068C95.0194 48.2179 95.4123 47.9758 95.8344 48.0019C96.2565 48.0281 96.6165 48.3169 96.7335 48.7233L95.7726 49C96.7335 48.7233 96.7336 48.7234 96.7336 48.7235L96.7337 48.7238L96.7339 48.7246L96.7346 48.727L96.7369 48.7352L96.7452 48.7645C96.7523 48.7897 96.7624 48.826 96.7751 48.8725C96.8005 48.9653 96.8362 49.0987 96.8787 49.2647C96.9636 49.5961 97.0759 50.0595 97.1862 50.5895C97.4021 51.6273 97.6282 53.0028 97.5897 54.1451C97.5581 55.083 97.1237 55.927 96.8404 56.4774C96.7881 56.5791 96.7409 56.6707 96.7024 56.751C96.5532 57.0622 96.4953 57.2448 96.4842 57.3736C96.4773 57.4547 96.4841 57.5341 96.5811 57.6674C96.6234 57.7256 96.6627 57.7815 96.6966 57.8299C96.7005 57.8356 96.7044 57.8411 96.7081 57.8464C96.7383 57.8896 96.7633 57.9253 96.7881 57.9598C96.7949 57.9692 96.8013 57.978 96.8074 57.9864C96.8283 57.958 96.8513 57.9263 96.878 57.8893C96.9015 57.8568 96.9279 57.8203 96.9586 57.7784C97.0622 57.6364 97.2058 57.4456 97.389 57.2658C97.7173 56.9437 98.1073 56.516 98.4237 56.1584C98.58 55.9817 98.7147 55.8262 98.8103 55.7149C98.858 55.6594 98.8958 55.615 98.9215 55.5848L98.9506 55.5504L98.9578 55.5419L98.9595 55.5399L98.9598 55.5395L88.2771 60.6044ZM88.2771 60.6044C87.2975 60.4033 87.2975 60.4033 87.2975 60.4034L87.2974 60.4035L87.2974 60.4039L87.2972 60.4049L87.2965 60.4083L87.2941 60.4201L87.2855 60.463C87.2782 60.4997 87.268 60.5522 87.2556 60.6172C87.231 60.747 87.1979 60.9279 87.1639 61.1332C87.0982 61.5304 87.0205 62.0679 87.0051 62.5031C86.8373 67.2442 90.7766 70.9037 95.343 70.9982C100.027 71.0951 104.167 67.2699 103.995 62.4423C103.979 62.0048 103.901 61.481 103.835 61.0967C103.801 60.898 103.767 60.724 103.743 60.5993C103.73 60.5368 103.72 60.4864 103.713 60.4511L103.704 60.4097L103.701 60.3982L103.701 60.3949L103.701 60.3938L103.7 60.3935L103.7 60.3933C103.7 60.3933 103.7 60.3932 102.723 60.6044L103.7 60.3932C103.623 60.035 103.356 59.7479 103.004 59.6448C102.653 59.5417 102.273 59.6391 102.014 59.8986L102.014 59.8988L88.2771 60.6044ZM100.209 61.3934C100.104 60.7157 100.02 59.9533 100.042 59.4027C100.066 58.8466 100.214 58.1358 100.373 57.5249C100.45 57.2279 100.526 56.9698 100.582 56.7865C100.61 56.6951 100.633 56.6228 100.649 56.5742L100.667 56.5199L100.671 56.5072L100.672 56.5048L100.672 56.5047L100.672 56.5046C100.826 56.0493 100.635 55.5487 100.216 55.3126C99.7971 55.0765 99.2696 55.1718 98.9599 55.5395L100.209 61.3934ZM90.5551 61.6042C90.5595 61.6046 90.5619 61.6052 90.562 61.6054C90.5621 61.6056 90.5599 61.6054 90.5551 61.6042Z" stroke="black" stroke-width="2" stroke-linejoin="round"/>
<g filter="url(#filter7_i_228_462)">
<path d="M29.0053 93.2372C29.0362 92.3766 29.3298 90.9658 29.3298 90.9658C29.3298 90.9658 31.0756 93.8162 32.4124 93.2372C33.8007 92.6358 32.7369 90.6941 32.7369 89.1811C32.7369 87.7312 32.9017 87.0851 33.3858 85.7741C34.1075 83.82 35.2908 83.2125 36.3062 81.3936C37.1502 79.8816 38.2531 77.3376 38.2531 77.3376C38.2531 77.3376 39.3081 80.9524 39.2265 83.3405C39.1592 85.3107 37.1116 86.6605 38.2531 88.2077C38.5999 88.6778 38.8113 89.0933 39.3887 89.1811C40.1909 89.3032 40.4327 88.4432 41.0112 87.8832C41.8545 87.0668 42.958 85.7741 42.958 85.7741C42.958 85.7741 42.213 87.942 42.1468 89.5056C42.0807 91.0692 42.6336 93.5616 42.6336 93.5616C44.1003 93.3704 46.5273 90.9658 46.5273 90.9658C46.5273 90.9658 46.8207 92.3054 46.8518 93.166C47.0304 98.11 42.7125 102.099 37.7663 101.998C32.9211 101.899 28.8315 98.0803 29.0053 93.2372Z" fill="#FFBA17"/>
</g>
<path d="M29.3298 90.9658L28.3508 90.762C28.4344 90.3606 28.7545 90.0508 29.1585 89.9806C29.5622 89.9104 29.9677 90.0935 30.1821 90.4426C30.1821 90.4427 30.1822 90.4428 30.1822 90.4429C30.1822 90.4429 30.1822 90.4429 30.1823 90.4429L30.1824 90.4432L30.1826 90.4435L30.184 90.4458L30.195 90.4632C30.2054 90.4796 30.2218 90.5054 30.2438 90.539C30.2879 90.6062 30.3537 90.704 30.437 90.8206C30.6057 91.0566 30.8369 91.3563 31.0975 91.6327C31.3667 91.9183 31.6224 92.1306 31.8339 92.2424C31.9443 92.3007 32.0034 92.3127 32.0269 92.3142C32.09 92.2855 32.0934 92.2715 32.097 92.2567C32.0976 92.2545 32.0981 92.2522 32.0989 92.2499C32.1244 92.1722 32.1435 92.0036 32.1028 91.6733C32.0725 91.4277 32.0222 91.176 31.9631 90.88C31.9428 90.7785 31.9215 90.6717 31.8995 90.5582C31.8204 90.1484 31.7369 89.6624 31.7369 89.1811C31.7369 88.4171 31.7802 87.8221 31.8994 87.2287C32.0171 86.6422 32.2022 86.0927 32.4478 85.4277C32.8652 84.2974 33.4221 83.556 33.9636 82.8978C34.0454 82.7984 34.1257 82.7021 34.2046 82.6074C34.6479 82.0755 35.0487 81.5947 35.433 80.9062C35.8354 80.1854 36.3089 79.2004 36.6884 78.3791C36.8765 77.9719 37.0387 77.6112 37.1538 77.3523C37.2114 77.223 37.257 77.1193 37.2882 77.0482L37.3238 76.9669L37.3328 76.9463L37.335 76.9412L37.3355 76.9401L37.3356 76.9399L29.3298 90.9658ZM29.3298 90.9658C28.3508 90.762 28.3508 90.7621 28.3508 90.7622L28.3508 90.7623L28.3507 90.7627L28.3504 90.7638L28.3496 90.7677L28.3468 90.7813L28.3367 90.8311C28.3282 90.8738 28.316 90.935 28.3015 91.0109C28.2723 91.1624 28.2332 91.3736 28.193 91.6132C28.1148 92.0788 28.0239 92.7013 28.006 93.2013C27.8096 98.6746 32.4176 102.889 37.7459 102.998C43.2073 103.109 48.0525 98.7054 47.8511 93.1299C47.833 92.6276 47.7416 92.0214 47.663 91.5713C47.6226 91.3397 47.5833 91.1366 47.554 90.9912C47.5393 90.9184 47.5271 90.8596 47.5185 90.8186L47.5083 90.7707L47.5054 90.7575L47.5046 90.7537L47.5043 90.7525L47.5042 90.7521L47.5042 90.752C47.5042 90.7519 47.5042 90.7519 46.5273 90.9658L47.5042 90.7519C47.4262 90.3956 47.1604 90.1101 46.8106 90.0068C46.4609 89.9035 46.0827 89.9987 45.8237 90.2553L45.8235 90.2554L29.3298 90.9658ZM39.213 77.0574L38.2531 77.3376C39.213 77.0574 39.213 77.0575 39.2131 77.0576L39.2132 77.0579L39.2134 77.0588L39.2142 77.0615L39.2169 77.0709L39.2266 77.1048C39.235 77.134 39.2469 77.1763 39.2619 77.2305C39.2919 77.3387 39.3342 77.4946 39.3846 77.6885C39.4851 78.0759 39.6182 78.6177 39.7489 79.2371C40.0054 80.4536 40.2711 82.0532 40.2259 83.3746C40.1897 84.4352 39.6948 85.3857 39.3565 86.0354C39.2927 86.158 39.2345 86.2699 39.1859 86.3698C39.0066 86.7389 38.9262 86.9758 38.9104 87.1579C38.8989 87.2909 38.9172 87.4234 39.0578 87.614C39.1071 87.6809 39.153 87.7454 39.1933 87.8023L39.207 87.8215C39.2429 87.8721 39.2734 87.9151 39.3036 87.9566C39.3721 88.0505 39.4168 88.105 39.4522 88.1415C39.4698 88.1596 39.482 88.17 39.4895 88.1758C39.5001 88.1647 39.5126 88.151 39.5271 88.1342C39.5903 88.0611 39.647 87.9836 39.7306 87.8697C39.758 87.8323 39.7883 87.7909 39.8226 87.7445C39.945 87.5791 40.1088 87.3649 40.3156 87.1647C40.7112 86.7818 41.179 86.2757 41.5563 85.8549C41.7431 85.6467 41.9041 85.4633 42.0183 85.3322C42.0753 85.2666 42.1205 85.2143 42.1513 85.1786L42.1863 85.1379L42.195 85.1278L42.197 85.1254L42.1974 85.1249L42.1975 85.1248L39.213 77.0574ZM39.213 77.0574C39.095 76.6529 38.7361 76.3659 38.3156 76.3395C37.8951 76.3132 37.5032 76.5533 37.3356 76.9398L39.213 77.0574ZM32.0392 92.3135C32.0393 92.3139 32.0365 92.3146 32.03 92.3144C32.0358 92.313 32.039 92.3131 32.0392 92.3135Z" stroke="black" stroke-width="2" stroke-linejoin="round"/>
<defs>
<filter id="filter0_i_228_462" x="32.9999" y="24" width="17.0002" height="21.5731" filterUnits="userSpaceOnUse" color-interpolation-filters="sRGB">
<feFlood flood-opacity="0" result="BackgroundImageFix"/>
<feBlend mode="normal" in="SourceGraphic" in2="BackgroundImageFix" result="shape"/>
<feColorMatrix in="SourceAlpha" type="matrix" values="0 0 0 0 0 0 0 0 0 0 0 0 0 0 0 0 0 0 127 0" result="hardAlpha"/>
<feOffset dx="-3" dy="4"/>
<feGaussianBlur stdDeviation="0.5"/>
<feComposite in2="hardAlpha" operator="arithmetic" k2="-1" k3="1"/>
<feColorMatrix type="matrix" values="0 0 0 0 0.875 0 0 0 0 0 0 0 0 0 0 0 0 0 0.25 0"/>
<feBlend mode="normal" in2="shape" result="effect1_innerShadow_228_462"/>
</filter>
<filter id="filter1_i_228_462" x="25.9999" y="75.3376" width="22.8574" height="29.6624" filterUnits="userSpaceOnUse" color-interpolation-filters="sRGB">
<feFlood flood-opacity="0" result="BackgroundImageFix"/>
<feBlend mode="normal" in="SourceGraphic" in2="BackgroundImageFix" result="shape"/>
<feColorMatrix in="SourceAlpha" type="matrix" values="0 0 0 0 0 0 0 0 0 0 0 0 0 0 0 0 0 0 127 0" result="hardAlpha"/>
<feOffset dx="-3" dy="4"/>
<feGaussianBlur stdDeviation="0.5"/>
<feComposite in2="hardAlpha" operator="arithmetic" k2="-1" k3="1"/>
<feColorMatrix type="matrix" values="0 0 0 0 0.875 0 0 0 0 0 0 0 0 0 0 0 0 0 0.25 0"/>
<feBlend mode="normal" in2="shape" result="effect1_innerShadow_228_462"/>
</filter>
<filter id="filter2_i_228_462" x="84.9999" y="47" width="20.0002" height="26" filterUnits="userSpaceOnUse" color-interpolation-filters="sRGB">
<feFlood flood-opacity="0" result="BackgroundImageFix"/>
<feBlend mode="normal" in="SourceGraphic" in2="BackgroundImageFix" result="shape"/>
<feColorMatrix in="SourceAlpha" type="matrix" values="0 0 0 0 0 0 0 0 0 0 0 0 0 0 0 0 0 0 127 0" result="hardAlpha"/>
<feOffset dx="-3" dy="4"/>
<feGaussianBlur stdDeviation="0.5"/>
<feComposite in2="hardAlpha" operator="arithmetic" k2="-1" k3="1"/>
<feColorMatrix type="matrix" values="0 0 0 0 0.875 0 0 0 0 0 0 0 0 0 0 0 0 0 0.25 0"/>
<feBlend mode="normal" in2="shape" result="effect1_innerShadow_228_462"/>
</filter>
<filter id="filter3_i_228_462" x="55.6316" y="48.0791" width="11.6842" height="11.6842" filterUnits="userSpaceOnUse" color-interpolation-filters="sRGB">
<feFlood flood-opacity="0" result="BackgroundImageFix"/>
<feBlend mode="normal" in="SourceGraphic" in2="BackgroundImageFix" result="shape"/>
<feColorMatrix in="SourceAlpha" type="matrix" values="0 0 0 0 0 0 0 0 0 0 0 0 0 0 0 0 0 0 127 0" result="hardAlpha"/>
<feOffset dx="-3" dy="4"/>
<feGaussianBlur stdDeviation="1"/>
<feComposite in2="hardAlpha" operator="arithmetic" k2="-1" k3="1"/>
<feColorMatrix type="matrix" values="0 0 0 0 0.0252778 0 0 0 0 0.390963 0 0 0 0 0.733056 0 0 0 0.62 0"/>
<feBlend mode="normal" in2="shape" result="effect1_innerShadow_228_462"/>
</filter>
<filter id="filter4_i_228_462" x="67" y="73" width="13.5789" height="14.0526" filterUnits="userSpaceOnUse" color-interpolation-filters="sRGB">
<feFlood flood-opacity="0" result="BackgroundImageFix"/>
<feBlend mode="normal" in="SourceGraphic" in2="BackgroundImageFix" result="shape"/>
<feColorMatrix in="SourceAlpha" type="matrix" values="0 0 0 0 0 0 0 0 0 0 0 0 0 0 0 0 0 0 127 0" result="hardAlpha"/>
<feOffset dx="-3" dy="4"/>
<feGaussianBlur stdDeviation="1"/>
<feComposite in2="hardAlpha" operator="arithmetic" k2="-1" k3="1"/>
<feColorMatrix type="matrix" values="0 0 0 0 0.0252778 0 0 0 0 0.390963 0 0 0 0 0.733056 0 0 0 0.62 0"/>
<feBlend mode="normal" in2="shape" result="effect1_innerShadow_228_462"/>
</filter>
<filter id="filter5_i_228_462" x="32.9999" y="24" width="17.0002" height="21.5731" filterUnits="userSpaceOnUse" color-interpolation-filters="sRGB">
<feFlood flood-opacity="0" result="BackgroundImageFix"/>
<feBlend mode="normal" in="SourceGraphic" in2="BackgroundImageFix" result="shape"/>
<feColorMatrix in="SourceAlpha" type="matrix" values="0 0 0 0 0 0 0 0 0 0 0 0 0 0 0 0 0 0 127 0" result="hardAlpha"/>
<feOffset dx="-3" dy="4"/>
<feGaussianBlur stdDeviation="0.5"/>
<feComposite in2="hardAlpha" operator="arithmetic" k2="-1" k3="1"/>
<feColorMatrix type="matrix" values="0 0 0 0 0.875 0 0 0 0 0 0 0 0 0 0 0 0 0 0.25 0"/>
<feBlend mode="normal" in2="shape" result="effect1_innerShadow_228_462"/>
</filter>
<filter id="filter6_i_228_462" x="84.9999" y="47" width="20.0002" height="26" filterUnits="userSpaceOnUse" color-interpolation-filters="sRGB">
<feFlood flood-opacity="0" result="BackgroundImageFix"/>
<feBlend mode="normal" in="SourceGraphic" in2="BackgroundImageFix" result="shape"/>
<feColorMatrix in="SourceAlpha" type="matrix" values="0 0 0 0 0 0 0 0 0 0 0 0 0 0 0 0 0 0 127 0" result="hardAlpha"/>
<feOffset dx="-3" dy="4"/>
<feGaussianBlur stdDeviation="0.5"/>
<feComposite in2="hardAlpha" operator="arithmetic" k2="-1" k3="1"/>
<feColorMatrix type="matrix" values="0 0 0 0 0.875 0 0 0 0 0 0 0 0 0 0 0 0 0 0.25 0"/>
<feBlend mode="normal" in2="shape" result="effect1_innerShadow_228_462"/>
</filter>
<filter id="filter7_i_228_462" x="25.9999" y="75.3376" width="22.8574" height="29.6624" filterUnits="userSpaceOnUse" color-interpolation-filters="sRGB">
<feFlood flood-opacity="0" result="BackgroundImageFix"/>
<feBlend mode="normal" in="SourceGraphic" in2="BackgroundImageFix" result="shape"/>
<feColorMatrix in="SourceAlpha" type="matrix" values="0 0 0 0 0 0 0 0 0 0 0 0 0 0 0 0 0 0 127 0" result="hardAlpha"/>
<feOffset dx="-3" dy="4"/>
<feGaussianBlur stdDeviation="0.5"/>
<feComposite in2="hardAlpha" operator="arithmetic" k2="-1" k3="1"/>
<feColorMatrix type="matrix" values="0 0 0 0 0.875 0 0 0 0 0 0 0 0 0 0 0 0 0 0.25 0"/>
<feBlend mode="normal" in2="shape" result="effect1_innerShadow_228_462"/>
</filter>
</defs>
</svg>
