<svg width="128" height="128" viewBox="0 0 128 128" fill="none" xmlns="http://www.w3.org/2000/svg">
<circle cx="64" cy="64" r="64" fill="#3C4043"/>
<path d="M41.5641 23.5C38.7561 23.5 36.5 25.7839 36.5 28.5763V99.4237C36.5 102.216 38.7561 104.5 41.5641 104.5H86.4359C89.2439 104.5 91.5 102.216 91.5 99.4237V28.5763C91.5 25.7839 89.2439 23.5 86.4359 23.5H41.5641Z" fill="#D9D9D9" stroke="white" stroke-width="5"/>
<path d="M41.5641 25C39.5912 25 38 26.6056 38 28.5763V99.4237C38 101.394 39.5912 103 41.5641 103H86.4359C88.4088 103 90 101.394 90 99.4237V28.5763C90 26.6056 88.4088 25 86.4359 25H41.5641Z" fill="#D9D9D9" stroke="black" stroke-width="2"/>
<path d="M61 38C61 39.6569 62.3431 41 64 41C65.6569 41 67 39.6569 67 38L61 38ZM61 26L61 38L67 38L67 26L61 26Z" fill="white"/>
<path d="M64 57L64 71" stroke="white" stroke-width="6" stroke-linecap="round"/>
<path d="M67 90C67 88.3431 65.6569 87 64 87C62.3431 87 61 88.3431 61 90L67 90ZM67 102L67 90L61 90L61 102L67 102Z" fill="white"/>
</svg>
