<svg width="128" height="128" viewBox="0 0 128 128" fill="none" xmlns="http://www.w3.org/2000/svg">
<circle cx="64" cy="64" r="64" fill="#3C4043"/>
<mask id="path-2-outside-1_228_397" maskUnits="userSpaceOnUse" x="14" y="32" width="92" height="65" fill="black">
<rect fill="white" x="14" y="32" width="92" height="65"/>
<path d="M25.0833 81.9537C25.0833 81.9537 24.1298 83.1636 24.575 83.7329C24.9469 84.2084 26.0999 83.987 26.0999 83.987L33.979 80.4287L34.4873 82.2079L36.7748 84.7495L38.8081 85.0037L39.5706 84.2412L36.0123 81.9537V79.4121C36.0123 79.4121 41.4035 77.6855 44.6539 76.1079C47.3343 74.807 51.2622 72.2955 51.2622 72.2955L54.058 76.6163L54.3121 81.6995L50.2455 83.2245L46.6872 80.4287L41.0956 83.4787L42.6206 83.987L47.1955 81.9537L50.2455 85.7662L56.0913 81.9537V78.9037L59.6496 83.2245L60.6662 82.7162L53.2955 71.7872C53.2955 71.7872 57.4343 69.7794 60.4121 68.7372C63.3898 67.695 68.5453 66.4497 68.5453 66.4497L64.987 61.1123L66.2578 59.3331C66.2578 59.3331 65.9976 58.8188 65.7495 58.5706C65.5014 58.3225 64.987 58.0623 64.987 58.0623L57.8704 61.6206L54.058 60.3498L52.0247 57.554L46.6872 51.454L45.4164 47.8957L44.1456 45.8624V43.3208L44.6539 41.5416L43.3831 43.8291L43.8914 46.8791L45.1622 48.6582L45.4164 50.4374L40.8414 47.3874L34.4873 43.0666L38.8081 47.8957L44.6539 51.9624L49.2288 56.2831L39.5706 55.7748C39.5706 55.7748 37.3713 54.9124 36.0123 54.2498C34.3745 53.4513 31.9457 51.9624 31.9457 51.9624C31.9457 51.9624 33.2192 54.1204 34.4873 55.0123C35.5428 55.7547 37.5373 56.2831 37.5373 56.2831C37.5373 56.2831 33.8704 57.5912 31.4374 57.554C30.0338 57.5325 27.8791 57.0456 27.8791 57.0456L30.1666 58.5706H33.4707L38.8081 57.0456C38.8081 57.0456 40.662 57.3883 41.8581 57.554C44.2259 57.8819 47.958 58.0623 47.958 58.0623L50.7538 60.3498L55.3288 63.1456L42.8748 70.5163L38.8081 68.2289C38.8081 68.2289 35.2724 67.3067 32.9624 66.958C30.6965 66.6161 27.1166 66.4497 27.1166 66.4497L20 62.6372L26.6083 67.7205L31.4374 68.9913L27.1166 70.5163L24.575 69.4997H21.0167L23.05 70.008L26.0999 71.2788C26.0999 71.2788 27.0294 71.6879 27.6249 71.7872C28.2205 71.8864 28.597 72.0083 29.1499 71.7872C30.4207 71.2788 32.7082 69.4997 32.7082 69.4997H36.0123L40.8414 71.7872L25.0833 81.9537Z"/>
<path d="M78.8994 90.3578C78.8994 90.3578 76.8729 90.4945 76.3578 89.5953C76.1543 89.2402 76.1036 88.5786 76.1036 88.5786C76.1036 88.5786 79.1536 87.562 79.9161 81.7162C81.1062 72.592 70.512 60.1123 70.512 60.1123L73.3078 61.3831L72.5453 58.3331L69.7495 55.5373L71.0203 55.2831L69.7495 52.7415L73.8161 54.0123L73.3078 51.4707L77.1203 58.079L80.6785 62.1456L83.7285 66.9747L84.9993 68.7538C84.9993 68.7538 85.175 62.9129 84.2368 59.3498C83.6689 57.1928 82.2035 54.0123 82.2035 54.0123L79.6619 42.3208L81.6952 46.1332L79.9161 38L82.7119 46.3874L83.7285 50.9624L84.9993 44.8624L85.2535 51.7249C85.2535 51.7249 88.2503 60.7037 88.8118 65.1955C89.8284 73.3288 89.2895 76.4049 92.8784 82.2245C95.1637 85.9303 100.503 90.3578 100.503 90.3578C100.503 90.3578 100.936 91.1551 100.757 91.6286C100.442 92.4643 98.47 91.6286 98.47 91.6286C98.47 91.6286 92.4453 88.7429 88.3035 88.5786C84.5687 88.4305 78.8994 90.3578 78.8994 90.3578Z"/>
</mask>
<path d="M25.0833 81.9537C25.0833 81.9537 24.1298 83.1636 24.575 83.7329C24.9469 84.2084 26.0999 83.987 26.0999 83.987L33.979 80.4287L34.4873 82.2079L36.7748 84.7495L38.8081 85.0037L39.5706 84.2412L36.0123 81.9537V79.4121C36.0123 79.4121 41.4035 77.6855 44.6539 76.1079C47.3343 74.807 51.2622 72.2955 51.2622 72.2955L54.058 76.6163L54.3121 81.6995L50.2455 83.2245L46.6872 80.4287L41.0956 83.4787L42.6206 83.987L47.1955 81.9537L50.2455 85.7662L56.0913 81.9537V78.9037L59.6496 83.2245L60.6662 82.7162L53.2955 71.7872C53.2955 71.7872 57.4343 69.7794 60.4121 68.7372C63.3898 67.695 68.5453 66.4497 68.5453 66.4497L64.987 61.1123L66.2578 59.3331C66.2578 59.3331 65.9976 58.8188 65.7495 58.5706C65.5014 58.3225 64.987 58.0623 64.987 58.0623L57.8704 61.6206L54.058 60.3498L52.0247 57.554L46.6872 51.454L45.4164 47.8957L44.1456 45.8624V43.3208L44.6539 41.5416L43.3831 43.8291L43.8914 46.8791L45.1622 48.6582L45.4164 50.4374L40.8414 47.3874L34.4873 43.0666L38.8081 47.8957L44.6539 51.9624L49.2288 56.2831L39.5706 55.7748C39.5706 55.7748 37.3713 54.9124 36.0123 54.2498C34.3745 53.4513 31.9457 51.9624 31.9457 51.9624C31.9457 51.9624 33.2192 54.1204 34.4873 55.0123C35.5428 55.7547 37.5373 56.2831 37.5373 56.2831C37.5373 56.2831 33.8704 57.5912 31.4374 57.554C30.0338 57.5325 27.8791 57.0456 27.8791 57.0456L30.1666 58.5706H33.4707L38.8081 57.0456C38.8081 57.0456 40.662 57.3883 41.8581 57.554C44.2259 57.8819 47.958 58.0623 47.958 58.0623L50.7538 60.3498L55.3288 63.1456L42.8748 70.5163L38.8081 68.2289C38.8081 68.2289 35.2724 67.3067 32.9624 66.958C30.6965 66.6161 27.1166 66.4497 27.1166 66.4497L20 62.6372L26.6083 67.7205L31.4374 68.9913L27.1166 70.5163L24.575 69.4997H21.0167L23.05 70.008L26.0999 71.2788C26.0999 71.2788 27.0294 71.6879 27.6249 71.7872C28.2205 71.8864 28.597 72.0083 29.1499 71.7872C30.4207 71.2788 32.7082 69.4997 32.7082 69.4997H36.0123L40.8414 71.7872L25.0833 81.9537Z" fill="#B35D0A"/>
<path d="M78.8994 90.3578C78.8994 90.3578 76.8729 90.4945 76.3578 89.5953C76.1543 89.2402 76.1036 88.5786 76.1036 88.5786C76.1036 88.5786 79.1536 87.562 79.9161 81.7162C81.1062 72.592 70.512 60.1123 70.512 60.1123L73.3078 61.3831L72.5453 58.3331L69.7495 55.5373L71.0203 55.2831L69.7495 52.7415L73.8161 54.0123L73.3078 51.4707L77.1203 58.079L80.6785 62.1456L83.7285 66.9747L84.9993 68.7538C84.9993 68.7538 85.175 62.9129 84.2368 59.3498C83.6689 57.1928 82.2035 54.0123 82.2035 54.0123L79.6619 42.3208L81.6952 46.1332L79.9161 38L82.7119 46.3874L83.7285 50.9624L84.9993 44.8624L85.2535 51.7249C85.2535 51.7249 88.2503 60.7037 88.8118 65.1955C89.8284 73.3288 89.2895 76.4049 92.8784 82.2245C95.1637 85.9303 100.503 90.3578 100.503 90.3578C100.503 90.3578 100.936 91.1551 100.757 91.6286C100.442 92.4643 98.47 91.6286 98.47 91.6286C98.47 91.6286 92.4453 88.7429 88.3035 88.5786C84.5687 88.4305 78.8994 90.3578 78.8994 90.3578Z" fill="#B35D0A"/>
<path d="M25.0833 81.9537C25.0833 81.9537 24.1298 83.1636 24.575 83.7329C24.9469 84.2084 26.0999 83.987 26.0999 83.987L33.979 80.4287L34.4873 82.2079L36.7748 84.7495L38.8081 85.0037L39.5706 84.2412L36.0123 81.9537V79.4121C36.0123 79.4121 41.4035 77.6855 44.6539 76.1079C47.3343 74.807 51.2622 72.2955 51.2622 72.2955L54.058 76.6163L54.3121 81.6995L50.2455 83.2245L46.6872 80.4287L41.0956 83.4787L42.6206 83.987L47.1955 81.9537L50.2455 85.7662L56.0913 81.9537V78.9037L59.6496 83.2245L60.6662 82.7162L53.2955 71.7872C53.2955 71.7872 57.4343 69.7794 60.4121 68.7372C63.3898 67.695 68.5453 66.4497 68.5453 66.4497L64.987 61.1123L66.2578 59.3331C66.2578 59.3331 65.9976 58.8188 65.7495 58.5706C65.5014 58.3225 64.987 58.0623 64.987 58.0623L57.8704 61.6206L54.058 60.3498L52.0247 57.554L46.6872 51.454L45.4164 47.8957L44.1456 45.8624V43.3208L44.6539 41.5416L43.3831 43.8291L43.8914 46.8791L45.1622 48.6582L45.4164 50.4374L40.8414 47.3874L34.4873 43.0666L38.8081 47.8957L44.6539 51.9624L49.2288 56.2831L39.5706 55.7748C39.5706 55.7748 37.3713 54.9124 36.0123 54.2498C34.3745 53.4513 31.9457 51.9624 31.9457 51.9624C31.9457 51.9624 33.2192 54.1204 34.4873 55.0123C35.5428 55.7547 37.5373 56.2831 37.5373 56.2831C37.5373 56.2831 33.8704 57.5912 31.4374 57.554C30.0338 57.5325 27.8791 57.0456 27.8791 57.0456L30.1666 58.5706H33.4707L38.8081 57.0456C38.8081 57.0456 40.662 57.3883 41.8581 57.554C44.2259 57.8819 47.958 58.0623 47.958 58.0623L50.7538 60.3498L55.3288 63.1456L42.8748 70.5163L38.8081 68.2289C38.8081 68.2289 35.2724 67.3067 32.9624 66.958C30.6965 66.6161 27.1166 66.4497 27.1166 66.4497L20 62.6372L26.6083 67.7205L31.4374 68.9913L27.1166 70.5163L24.575 69.4997H21.0167L23.05 70.008L26.0999 71.2788C26.0999 71.2788 27.0294 71.6879 27.6249 71.7872C28.2205 71.8864 28.597 72.0083 29.1499 71.7872C30.4207 71.2788 32.7082 69.4997 32.7082 69.4997H36.0123L40.8414 71.7872L25.0833 81.9537Z" stroke="white" stroke-width="10" stroke-linecap="round" stroke-linejoin="round" mask="url(#path-2-outside-1_228_397)"/>
<path d="M78.8994 90.3578C78.8994 90.3578 76.8729 90.4945 76.3578 89.5953C76.1543 89.2402 76.1036 88.5786 76.1036 88.5786C76.1036 88.5786 79.1536 87.562 79.9161 81.7162C81.1062 72.592 70.512 60.1123 70.512 60.1123L73.3078 61.3831L72.5453 58.3331L69.7495 55.5373L71.0203 55.2831L69.7495 52.7415L73.8161 54.0123L73.3078 51.4707L77.1203 58.079L80.6785 62.1456L83.7285 66.9747L84.9993 68.7538C84.9993 68.7538 85.175 62.9129 84.2368 59.3498C83.6689 57.1928 82.2035 54.0123 82.2035 54.0123L79.6619 42.3208L81.6952 46.1332L79.9161 38L82.7119 46.3874L83.7285 50.9624L84.9993 44.8624L85.2535 51.7249C85.2535 51.7249 88.2503 60.7037 88.8118 65.1955C89.8284 73.3288 89.2895 76.4049 92.8784 82.2245C95.1637 85.9303 100.503 90.3578 100.503 90.3578C100.503 90.3578 100.936 91.1551 100.757 91.6286C100.442 92.4643 98.47 91.6286 98.47 91.6286C98.47 91.6286 92.4453 88.7429 88.3035 88.5786C84.5687 88.4305 78.8994 90.3578 78.8994 90.3578Z" stroke="white" stroke-width="10" stroke-linecap="round" stroke-linejoin="round" mask="url(#path-2-outside-1_228_397)"/>
<path d="M49 32.5C46.5147 32.5 44.5 34.5147 44.5 37V92C44.5 94.4853 46.5147 96.5 49 96.5H84C86.4853 96.5 88.5 94.4853 88.5 92V37C88.5 34.5147 86.4853 32.5 84 32.5H49Z" fill="#D9D9D9" stroke="white" stroke-width="5"/>
<path fill-rule="evenodd" clip-rule="evenodd" d="M49 33H84C86.2091 33 88 34.7909 88 37V92C88 94.2091 86.2091 96 84 96H49C46.7909 96 45 94.2091 45 92V37C45 34.7909 46.7909 33 49 33ZM49 35C47.8954 35 47 35.8954 47 37V92C47 93.1046 47.8954 94 49 94H84C85.1046 94 86 93.1046 86 92V37C86 35.8954 85.1046 35 84 35H49Z" fill="black"/>
<path d="M25.0833 81.9537C25.0833 81.9537 24.1298 83.1636 24.575 83.7329C24.9469 84.2084 26.0999 83.987 26.0999 83.987L33.979 80.4287L34.4873 82.2079L36.7748 84.7495L38.8081 85.0037L39.5706 84.2412L36.0123 81.9537V79.4121C36.0123 79.4121 41.4035 77.6855 44.6539 76.1079C47.3343 74.807 51.2622 72.2955 51.2622 72.2955L54.058 76.6163L54.3121 81.6995L50.2455 83.2245L46.6872 80.4287L41.0956 83.4787L42.6206 83.987L47.1955 81.9537L50.2455 85.7662L56.0913 81.9537V78.9037L59.6496 83.2245L60.6662 82.7162L53.2955 71.7872C53.2955 71.7872 57.4343 69.7794 60.4121 68.7372C63.3898 67.695 68.5453 66.4497 68.5453 66.4497L64.987 61.1123L66.2578 59.3331C66.2578 59.3331 65.9976 58.8188 65.7495 58.5706C65.5014 58.3225 64.987 58.0623 64.987 58.0623L57.8704 61.6206L54.058 60.3498L52.0247 57.554L46.6872 51.454L45.4164 47.8957L44.1456 45.8624V43.3208L44.6539 41.5416L43.3831 43.8291L43.8914 46.8791L45.1622 48.6582L45.4164 50.4374L40.8414 47.3874L34.4873 43.0666L38.8081 47.8957L44.6539 51.9624L49.2288 56.2831L39.5706 55.7748C39.5706 55.7748 37.3713 54.9124 36.0123 54.2498C34.3745 53.4513 31.9457 51.9624 31.9457 51.9624C31.9457 51.9624 33.2192 54.1204 34.4873 55.0123C35.5428 55.7547 37.5373 56.2831 37.5373 56.2831C37.5373 56.2831 33.8704 57.5912 31.4374 57.554C30.0338 57.5325 27.8791 57.0456 27.8791 57.0456L30.1666 58.5706H33.4707L38.8081 57.0456C38.8081 57.0456 40.662 57.3883 41.8581 57.554C44.2259 57.8819 47.958 58.0623 47.958 58.0623L50.7538 60.3498L55.3288 63.1456L42.8748 70.5163L38.8081 68.2289C38.8081 68.2289 35.2724 67.3067 32.9624 66.958C30.6965 66.6161 27.1166 66.4497 27.1166 66.4497L20 62.6372L26.6083 67.7205L31.4374 68.9913L27.1166 70.5163L24.575 69.4997H21.0167L23.05 70.008L26.0999 71.2788C26.0999 71.2788 27.0294 71.6879 27.6249 71.7872C28.2205 71.8864 28.597 72.0083 29.1499 71.7872C30.4207 71.2788 32.7082 69.4997 32.7082 69.4997H36.0123L40.8414 71.7872L25.0833 81.9537Z" fill="#B35D0A"/>
<path d="M78.8994 90.3578C78.8994 90.3578 76.8729 90.4945 76.3578 89.5953C76.1543 89.2402 76.1036 88.5786 76.1036 88.5786C76.1036 88.5786 79.1536 87.562 79.9161 81.7162C81.1062 72.592 70.512 60.1123 70.512 60.1123L73.3078 61.3831L72.5453 58.3331L69.7495 55.5373L71.0203 55.2831L69.7495 52.7415L73.8161 54.0123L73.3078 51.4707L77.1203 58.079L80.6785 62.1456L83.7285 66.9747L84.9993 68.7538C84.9993 68.7538 85.175 62.9129 84.2368 59.3498C83.6689 57.1928 82.2035 54.0123 82.2035 54.0123L79.6619 42.3208L81.6952 46.1332L79.9161 38L82.7119 46.3874L83.7285 50.9624L84.9993 44.8624L85.2535 51.7249C85.2535 51.7249 88.2503 60.7037 88.8118 65.1955C89.8284 73.3288 89.2895 76.4049 92.8784 82.2245C95.1637 85.9303 100.503 90.3578 100.503 90.3578C100.503 90.3578 100.936 91.1551 100.757 91.6286C100.442 92.4643 98.47 91.6286 98.47 91.6286C98.47 91.6286 92.4453 88.7429 88.3035 88.5786C84.5687 88.4305 78.8994 90.3578 78.8994 90.3578Z" fill="#B35D0A"/>
<mask id="path-6-outside-2_228_397" maskUnits="userSpaceOnUse" x="17" y="35" width="86" height="59" fill="black">
<rect fill="white" x="17" y="35" width="86" height="59"/>
<path d="M25.0833 81.9537C25.0833 81.9537 24.1298 83.1636 24.575 83.7329C24.9469 84.2084 26.0999 83.987 26.0999 83.987L33.979 80.4287L34.4873 82.2079L36.7748 84.7495L38.8081 85.0037L39.5706 84.2412L36.0123 81.9537V79.4121C36.0123 79.4121 41.4035 77.6855 44.6539 76.1079C47.3343 74.807 51.2622 72.2955 51.2622 72.2955L54.058 76.6163L54.3121 81.6995L50.2455 83.2245L46.6872 80.4287L41.0956 83.4787L42.6206 83.987L47.1955 81.9537L50.2455 85.7662L56.0913 81.9537V78.9037L59.6496 83.2245L60.6662 82.7162L53.2955 71.7872C53.2955 71.7872 57.4343 69.7794 60.4121 68.7372C63.3898 67.695 68.5453 66.4497 68.5453 66.4497L64.987 61.1123L66.2578 59.3331C66.2578 59.3331 65.9976 58.8188 65.7495 58.5706C65.5014 58.3225 64.987 58.0623 64.987 58.0623L57.8704 61.6206L54.058 60.3498L52.0247 57.554L46.6872 51.454L45.4164 47.8957L44.1456 45.8624V43.3208L44.6539 41.5416L43.3831 43.8291L43.8914 46.8791L45.1622 48.6582L45.4164 50.4374L40.8414 47.3874L34.4873 43.0666L38.8081 47.8957L44.6539 51.9624L49.2288 56.2831L39.5706 55.7748C39.5706 55.7748 37.3713 54.9124 36.0123 54.2498C34.3745 53.4513 31.9457 51.9624 31.9457 51.9624C31.9457 51.9624 33.2192 54.1204 34.4873 55.0123C35.5428 55.7547 37.5373 56.2831 37.5373 56.2831C37.5373 56.2831 33.8704 57.5912 31.4374 57.554C30.0338 57.5325 27.8791 57.0456 27.8791 57.0456L30.1666 58.5706H33.4707L38.8081 57.0456C38.8081 57.0456 40.662 57.3883 41.8581 57.554C44.2259 57.8819 47.958 58.0623 47.958 58.0623L50.7538 60.3498L55.3288 63.1456L42.8748 70.5163L38.8081 68.2289C38.8081 68.2289 35.2724 67.3067 32.9624 66.958C30.6965 66.6161 27.1166 66.4497 27.1166 66.4497L20 62.6372L26.6083 67.7205L31.4374 68.9913L27.1166 70.5163L24.575 69.4997H21.0167L23.05 70.008L26.0999 71.2788C26.0999 71.2788 27.0294 71.6879 27.6249 71.7872C28.2205 71.8864 28.597 72.0083 29.1499 71.7872C30.4207 71.2788 32.7082 69.4997 32.7082 69.4997H36.0123L40.8414 71.7872L25.0833 81.9537Z"/>
<path d="M78.8994 90.3578C78.8994 90.3578 76.8729 90.4945 76.3578 89.5953C76.1543 89.2402 76.1036 88.5786 76.1036 88.5786C76.1036 88.5786 79.1536 87.562 79.9161 81.7162C81.1062 72.592 70.512 60.1123 70.512 60.1123L73.3078 61.3831L72.5453 58.3331L69.7495 55.5373L71.0203 55.2831L69.7495 52.7415L73.8161 54.0123L73.3078 51.4707L77.1203 58.079L80.6785 62.1456L83.7285 66.9747L84.9993 68.7538C84.9993 68.7538 85.175 62.9129 84.2368 59.3498C83.6689 57.1928 82.2035 54.0123 82.2035 54.0123L79.6619 42.3208L81.6952 46.1332L79.9161 38L82.7119 46.3874L83.7285 50.9624L84.9993 44.8624L85.2535 51.7249C85.2535 51.7249 88.2503 60.7037 88.8118 65.1955C89.8284 73.3288 89.2895 76.4049 92.8784 82.2245C95.1637 85.9303 100.503 90.3578 100.503 90.3578C100.503 90.3578 100.936 91.1551 100.757 91.6286C100.442 92.4643 98.47 91.6286 98.47 91.6286C98.47 91.6286 92.4453 88.7429 88.3035 88.5786C84.5687 88.4305 78.8994 90.3578 78.8994 90.3578Z"/>
</mask>
<path d="M25.0833 81.9537C25.0833 81.9537 24.1298 83.1636 24.575 83.7329C24.9469 84.2084 26.0999 83.987 26.0999 83.987L33.979 80.4287L34.4873 82.2079L36.7748 84.7495L38.8081 85.0037L39.5706 84.2412L36.0123 81.9537V79.4121C36.0123 79.4121 41.4035 77.6855 44.6539 76.1079C47.3343 74.807 51.2622 72.2955 51.2622 72.2955L54.058 76.6163L54.3121 81.6995L50.2455 83.2245L46.6872 80.4287L41.0956 83.4787L42.6206 83.987L47.1955 81.9537L50.2455 85.7662L56.0913 81.9537V78.9037L59.6496 83.2245L60.6662 82.7162L53.2955 71.7872C53.2955 71.7872 57.4343 69.7794 60.4121 68.7372C63.3898 67.695 68.5453 66.4497 68.5453 66.4497L64.987 61.1123L66.2578 59.3331C66.2578 59.3331 65.9976 58.8188 65.7495 58.5706C65.5014 58.3225 64.987 58.0623 64.987 58.0623L57.8704 61.6206L54.058 60.3498L52.0247 57.554L46.6872 51.454L45.4164 47.8957L44.1456 45.8624V43.3208L44.6539 41.5416L43.3831 43.8291L43.8914 46.8791L45.1622 48.6582L45.4164 50.4374L40.8414 47.3874L34.4873 43.0666L38.8081 47.8957L44.6539 51.9624L49.2288 56.2831L39.5706 55.7748C39.5706 55.7748 37.3713 54.9124 36.0123 54.2498C34.3745 53.4513 31.9457 51.9624 31.9457 51.9624C31.9457 51.9624 33.2192 54.1204 34.4873 55.0123C35.5428 55.7547 37.5373 56.2831 37.5373 56.2831C37.5373 56.2831 33.8704 57.5912 31.4374 57.554C30.0338 57.5325 27.8791 57.0456 27.8791 57.0456L30.1666 58.5706H33.4707L38.8081 57.0456C38.8081 57.0456 40.662 57.3883 41.8581 57.554C44.2259 57.8819 47.958 58.0623 47.958 58.0623L50.7538 60.3498L55.3288 63.1456L42.8748 70.5163L38.8081 68.2289C38.8081 68.2289 35.2724 67.3067 32.9624 66.958C30.6965 66.6161 27.1166 66.4497 27.1166 66.4497L20 62.6372L26.6083 67.7205L31.4374 68.9913L27.1166 70.5163L24.575 69.4997H21.0167L23.05 70.008L26.0999 71.2788C26.0999 71.2788 27.0294 71.6879 27.6249 71.7872C28.2205 71.8864 28.597 72.0083 29.1499 71.7872C30.4207 71.2788 32.7082 69.4997 32.7082 69.4997H36.0123L40.8414 71.7872L25.0833 81.9537Z" fill="#B35D0A"/>
<path d="M78.8994 90.3578C78.8994 90.3578 76.8729 90.4945 76.3578 89.5953C76.1543 89.2402 76.1036 88.5786 76.1036 88.5786C76.1036 88.5786 79.1536 87.562 79.9161 81.7162C81.1062 72.592 70.512 60.1123 70.512 60.1123L73.3078 61.3831L72.5453 58.3331L69.7495 55.5373L71.0203 55.2831L69.7495 52.7415L73.8161 54.0123L73.3078 51.4707L77.1203 58.079L80.6785 62.1456L83.7285 66.9747L84.9993 68.7538C84.9993 68.7538 85.175 62.9129 84.2368 59.3498C83.6689 57.1928 82.2035 54.0123 82.2035 54.0123L79.6619 42.3208L81.6952 46.1332L79.9161 38L82.7119 46.3874L83.7285 50.9624L84.9993 44.8624L85.2535 51.7249C85.2535 51.7249 88.2503 60.7037 88.8118 65.1955C89.8284 73.3288 89.2895 76.4049 92.8784 82.2245C95.1637 85.9303 100.503 90.3578 100.503 90.3578C100.503 90.3578 100.936 91.1551 100.757 91.6286C100.442 92.4643 98.47 91.6286 98.47 91.6286C98.47 91.6286 92.4453 88.7429 88.3035 88.5786C84.5687 88.4305 78.8994 90.3578 78.8994 90.3578Z" fill="#B35D0A"/>
<path d="M25.0833 81.9537C25.0833 81.9537 24.1298 83.1636 24.575 83.7329C24.9469 84.2084 26.0999 83.987 26.0999 83.987L33.979 80.4287L34.4873 82.2079L36.7748 84.7495L38.8081 85.0037L39.5706 84.2412L36.0123 81.9537V79.4121C36.0123 79.4121 41.4035 77.6855 44.6539 76.1079C47.3343 74.807 51.2622 72.2955 51.2622 72.2955L54.058 76.6163L54.3121 81.6995L50.2455 83.2245L46.6872 80.4287L41.0956 83.4787L42.6206 83.987L47.1955 81.9537L50.2455 85.7662L56.0913 81.9537V78.9037L59.6496 83.2245L60.6662 82.7162L53.2955 71.7872C53.2955 71.7872 57.4343 69.7794 60.4121 68.7372C63.3898 67.695 68.5453 66.4497 68.5453 66.4497L64.987 61.1123L66.2578 59.3331C66.2578 59.3331 65.9976 58.8188 65.7495 58.5706C65.5014 58.3225 64.987 58.0623 64.987 58.0623L57.8704 61.6206L54.058 60.3498L52.0247 57.554L46.6872 51.454L45.4164 47.8957L44.1456 45.8624V43.3208L44.6539 41.5416L43.3831 43.8291L43.8914 46.8791L45.1622 48.6582L45.4164 50.4374L40.8414 47.3874L34.4873 43.0666L38.8081 47.8957L44.6539 51.9624L49.2288 56.2831L39.5706 55.7748C39.5706 55.7748 37.3713 54.9124 36.0123 54.2498C34.3745 53.4513 31.9457 51.9624 31.9457 51.9624C31.9457 51.9624 33.2192 54.1204 34.4873 55.0123C35.5428 55.7547 37.5373 56.2831 37.5373 56.2831C37.5373 56.2831 33.8704 57.5912 31.4374 57.554C30.0338 57.5325 27.8791 57.0456 27.8791 57.0456L30.1666 58.5706H33.4707L38.8081 57.0456C38.8081 57.0456 40.662 57.3883 41.8581 57.554C44.2259 57.8819 47.958 58.0623 47.958 58.0623L50.7538 60.3498L55.3288 63.1456L42.8748 70.5163L38.8081 68.2289C38.8081 68.2289 35.2724 67.3067 32.9624 66.958C30.6965 66.6161 27.1166 66.4497 27.1166 66.4497L20 62.6372L26.6083 67.7205L31.4374 68.9913L27.1166 70.5163L24.575 69.4997H21.0167L23.05 70.008L26.0999 71.2788C26.0999 71.2788 27.0294 71.6879 27.6249 71.7872C28.2205 71.8864 28.597 72.0083 29.1499 71.7872C30.4207 71.2788 32.7082 69.4997 32.7082 69.4997H36.0123L40.8414 71.7872L25.0833 81.9537Z" stroke="black" stroke-width="4" stroke-linecap="round" stroke-linejoin="round" mask="url(#path-6-outside-2_228_397)"/>
<path d="M78.8994 90.3578C78.8994 90.3578 76.8729 90.4945 76.3578 89.5953C76.1543 89.2402 76.1036 88.5786 76.1036 88.5786C76.1036 88.5786 79.1536 87.562 79.9161 81.7162C81.1062 72.592 70.512 60.1123 70.512 60.1123L73.3078 61.3831L72.5453 58.3331L69.7495 55.5373L71.0203 55.2831L69.7495 52.7415L73.8161 54.0123L73.3078 51.4707L77.1203 58.079L80.6785 62.1456L83.7285 66.9747L84.9993 68.7538C84.9993 68.7538 85.175 62.9129 84.2368 59.3498C83.6689 57.1928 82.2035 54.0123 82.2035 54.0123L79.6619 42.3208L81.6952 46.1332L79.9161 38L82.7119 46.3874L83.7285 50.9624L84.9993 44.8624L85.2535 51.7249C85.2535 51.7249 88.2503 60.7037 88.8118 65.1955C89.8284 73.3288 89.2895 76.4049 92.8784 82.2245C95.1637 85.9303 100.503 90.3578 100.503 90.3578C100.503 90.3578 100.936 91.1551 100.757 91.6286C100.442 92.4643 98.47 91.6286 98.47 91.6286C98.47 91.6286 92.4453 88.7429 88.3035 88.5786C84.5687 88.4305 78.8994 90.3578 78.8994 90.3578Z" stroke="black" stroke-width="4" stroke-linecap="round" stroke-linejoin="round" mask="url(#path-6-outside-2_228_397)"/>
<path d="M62 46C62 47.6569 63.3431 49 65 49C66.6569 49 68 47.6569 68 46L62 46ZM62 35L62 46L68 46L68 35L62 35Z" fill="white"/>
<path d="M68 85C68 83.3431 66.6569 82 65 82C63.3431 82 62 83.3431 62 85L68 85ZM68 94L68 85L62 85L62 94L68 94Z" fill="white"/>
</svg>
