<svg width="128" height="128" viewBox="0 0 128 128" fill="none" xmlns="http://www.w3.org/2000/svg">
<circle cx="64" cy="64" r="64" fill="#3C4043"/>
<mask id="path-2-outside-1_228_367" maskUnits="userSpaceOnUse" x="28" y="30.7806" width="83" height="74" fill="black">
<rect fill="white" x="28" y="30.7806" width="83" height="74"/>
<path d="M48.0272 44.7054V35.7806H33V77.0481H43.1452C47.0508 76.682 48.0272 73.285 48.0272 71.6323L40.094 64.2331L48.0272 61.5633V53.9353H55.3501C54.6178 51.4333 53.2142 49.7907 52.604 49.2822L48.0272 44.7054Z"/>
<path d="M69.7671 59.2745H92.346V98.7876H69.7671V59.2745Z"/>
<path d="M33 80.3281H40.4754V85.0574H33V80.3281Z"/>
<path d="M33 87.0408H44.8997C48.6912 87.0408 51.7649 90.1145 51.7649 93.906V99.2456H33V87.0408Z"/>
<path d="M75.1065 86.2781H77.3949V93.601H75.1065V86.2781Z"/>
<path d="M84.8705 86.2781H87.1589V93.601H84.8705V86.2781Z"/>
<path d="M74.4962 63.8518H87.6164V74.2259H74.4962V63.8518Z"/>
<path d="M55.4265 65.5299C55.4265 64.6031 56.1778 63.8518 57.1046 63.8518H64.7326C65.6595 63.8518 66.4108 64.6031 66.4108 65.5299C66.4108 66.4568 65.6595 67.2081 64.7326 67.2081H57.1046C56.1778 67.2081 55.4265 66.4568 55.4265 65.5299Z"/>
<path d="M65.0375 61.2581H67.7836V70.1066H65.0375V61.2581Z"/>
<path d="M96.8038 50.6439C95.9709 50.2988 95.0781 50.1213 94.1766 50.1213V52.1046C94.8177 52.1046 95.4525 52.2308 96.0448 52.4762C96.0834 52.4921 96.1218 52.5086 96.1599 52.5256C96.7069 52.7688 97.2048 53.1106 97.6286 53.5344C98.0524 53.9582 98.3943 54.4562 98.6375 55.0032C98.6544 55.0413 98.6709 55.0797 98.6869 55.1182C98.9322 55.7105 99.031 56.4217 99.031 57.0628H101.014C101.014 56.1612 100.864 55.1922 100.519 54.3593C100.174 53.5264 99.6685 52.7695 99.031 52.132C98.3935 51.4945 97.6367 50.9889 96.8038 50.6439Z"/>
<path d="M98.7012 46.1394C97.2667 45.5452 95.7293 45.2394 94.1766 45.2394V47.2227C94.8444 47.2227 95.5089 47.2906 96.1599 47.4246C96.7685 47.5498 97.3654 47.7327 97.9422 47.9717C99.1361 48.4662 100.221 49.191 101.135 50.1048C102.048 51.0185 102.773 52.1033 103.268 53.2971C103.507 53.874 103.69 54.4709 103.815 55.0795C103.949 55.7305 104.017 56.3949 104.017 57.0628H106C106 55.5101 105.694 53.9726 105.1 52.5382C104.506 51.1037 103.635 49.8003 102.537 48.7024C101.439 47.6045 100.136 46.7336 98.7012 46.1394Z"/>
</mask>
<path d="M48.0272 44.7054V35.7806H33V77.0481H43.1452C47.0508 76.682 48.0272 73.285 48.0272 71.6323L40.094 64.2331L48.0272 61.5633V53.9353H55.3501C54.6178 51.4333 53.2142 49.7907 52.604 49.2822L48.0272 44.7054Z" fill="#F5D8C2"/>
<path d="M69.7671 59.2745H92.346V98.7876H69.7671V59.2745Z" fill="#949EAF"/>
<path d="M33 80.3281H40.4754V85.0574H33V80.3281Z" fill="#EFBE9A"/>
<path d="M33 87.0408H44.8997C48.6912 87.0408 51.7649 90.1145 51.7649 93.906V99.2456H33V87.0408Z" fill="#96CC7F"/>
<path d="M75.1065 86.2781H77.3949V93.601H75.1065V86.2781Z" fill="#4D5D7A"/>
<path d="M84.8705 86.2781H87.1589V93.601H84.8705V86.2781Z" fill="#4D5D7A"/>
<path d="M74.4962 63.8518H87.6164V74.2259H74.4962V63.8518Z" fill="#EBF7FE"/>
<path d="M55.4265 65.5299C55.4265 64.6031 56.1778 63.8518 57.1046 63.8518H64.7326C65.6595 63.8518 66.4108 64.6031 66.4108 65.5299C66.4108 66.4568 65.6595 67.2081 64.7326 67.2081H57.1046C56.1778 67.2081 55.4265 66.4568 55.4265 65.5299Z" fill="#4D5D7A"/>
<path d="M65.0375 61.2581H67.7836V70.1066H65.0375V61.2581Z" fill="#EBF7FE"/>
<path d="M96.8038 50.6439C95.9709 50.2988 95.0781 50.1213 94.1766 50.1213V52.1046C94.8177 52.1046 95.4525 52.2308 96.0448 52.4762C96.0834 52.4921 96.1218 52.5086 96.1599 52.5256C96.7069 52.7688 97.2048 53.1106 97.6286 53.5344C98.0524 53.9582 98.3943 54.4562 98.6375 55.0032C98.6544 55.0413 98.6709 55.0797 98.6869 55.1182C98.9322 55.7105 99.031 56.4217 99.031 57.0628H101.014C101.014 56.1612 100.864 55.1922 100.519 54.3593C100.174 53.5264 99.6685 52.7695 99.031 52.132C98.3935 51.4945 97.6367 50.9889 96.8038 50.6439Z" fill="black"/>
<path d="M98.7012 46.1394C97.2667 45.5452 95.7293 45.2394 94.1766 45.2394V47.2227C94.8444 47.2227 95.5089 47.2906 96.1599 47.4246C96.7685 47.5498 97.3654 47.7327 97.9422 47.9717C99.1361 48.4662 100.221 49.191 101.135 50.1048C102.048 51.0185 102.773 52.1033 103.268 53.2971C103.507 53.874 103.69 54.4709 103.815 55.0795C103.949 55.7305 104.017 56.3949 104.017 57.0628H106C106 55.5101 105.694 53.9726 105.1 52.5382C104.506 51.1037 103.635 49.8003 102.537 48.7024C101.439 47.6045 100.136 46.7336 98.7012 46.1394Z" fill="black"/>
<path d="M73.3521 77.7516C71.9714 77.7516 70.8521 78.8709 70.8521 80.2516C70.8521 81.6323 71.9714 82.7516 73.3521 82.7516V77.7516ZM73.3521 82.7516H88.6844V77.7516H73.3521V82.7516ZM48.0272 35.7806H53.0272V30.7806H48.0272V35.7806ZM48.0272 44.7054H43.0272V46.7765L44.4916 48.2409L48.0272 44.7054ZM52.604 49.2822L49.0684 52.8177L49.2288 52.9781L49.403 53.1233L52.604 49.2822ZM55.3501 53.9353V58.9353H62.0232L60.1487 52.5308L55.3501 53.9353ZM48.0272 53.9353V48.9353H43.0272V53.9353H48.0272ZM48.0272 61.5633L49.622 66.3021L53.0272 65.1562V61.5633H48.0272ZM40.094 64.2331L38.4992 59.4943L30.5506 62.1693L36.6837 67.8895L40.094 64.2331ZM48.0272 71.6323H53.0272V69.4585L51.4375 67.9758L48.0272 71.6323ZM43.1452 77.0481V82.0481H43.3791L43.6119 82.0263L43.1452 77.0481ZM33 77.0481H28V82.0481H33V77.0481ZM33 35.7806V30.7806H28V35.7806H33ZM69.7671 59.2745V54.2745H64.7671V59.2745H69.7671ZM92.346 59.2745H97.346V54.2745H92.346V59.2745ZM92.346 98.7876V103.788H97.346V98.7876H92.346ZM69.7671 98.7876H64.7671V103.788H69.7671V98.7876ZM33 80.3281V75.3281H28V80.3281H33ZM40.4754 80.3281H45.4754V75.3281H40.4754V80.3281ZM40.4754 85.0574V90.0574H45.4754V85.0574H40.4754ZM33 85.0574H28V90.0574H33V85.0574ZM33 87.0408V82.0408H28V87.0408H33ZM51.7649 99.2456V104.246H56.7649V99.2456H51.7649ZM33 99.2456H28V104.246H33V99.2456ZM75.1065 86.2781V81.2781H70.1065V86.2781H75.1065ZM77.3949 86.2781H82.3949V81.2781H77.3949V86.2781ZM77.3949 93.601V98.601H82.3949V93.601H77.3949ZM75.1065 93.601H70.1065V98.601H75.1065V93.601ZM84.8705 86.2781V81.2781H79.8705V86.2781H84.8705ZM87.1589 86.2781H92.1589V81.2781H87.1589V86.2781ZM87.1589 93.601V98.601H92.1589V93.601H87.1589ZM84.8705 93.601H79.8705V98.601H84.8705V93.601ZM74.4962 63.8518V58.8518H69.4962V63.8518H74.4962ZM87.6164 63.8518H92.6164V58.8518H87.6164V63.8518ZM87.6164 74.2259V79.2259H92.6164V74.2259H87.6164ZM74.4962 74.2259H69.4962V79.2259H74.4962V74.2259ZM65.0375 61.2581V56.2581H60.0375V61.2581H65.0375ZM67.7836 61.2581H72.7836V56.2581H67.7836V61.2581ZM67.7836 70.1066V75.1066H72.7836V70.1066H67.7836ZM65.0375 70.1066H60.0375V75.1066H65.0375V70.1066ZM94.1766 50.1213V45.1213H89.1766V50.1213H94.1766ZM96.8038 50.6439L94.8904 55.2633L96.8038 50.6439ZM99.031 52.132L95.4955 55.6676V55.6676L99.031 52.132ZM100.519 54.3593L95.8998 56.2727L95.8998 56.2727L100.519 54.3593ZM101.014 57.0628V62.0628H106.014V57.0628H101.014ZM98.6869 55.1182L103.306 53.2048L103.306 53.2048L98.6869 55.1182ZM98.6375 55.0032L103.206 52.972L103.206 52.972L98.6375 55.0032ZM99.031 57.0628H94.031V62.0628H99.031V57.0628ZM94.1766 52.1046H89.1766V57.1046H94.1766V52.1046ZM96.0448 52.4762L97.9583 47.8568L97.9582 47.8568L96.0448 52.4762ZM96.1599 52.5256L98.1911 47.9567L98.1911 47.9567L96.1599 52.5256ZM97.6286 53.5344L94.0931 57.07V57.07L97.6286 53.5344ZM94.1766 45.2394V40.2394H89.1766V45.2394H94.1766ZM98.7012 46.1394L96.7878 50.7588V50.7588L98.7012 46.1394ZM102.537 48.7024L99.0015 52.2379L102.537 48.7024ZM106 57.0628V62.0628H111V57.0628H106ZM104.017 57.0628H99.0167V62.0628H104.017V57.0628ZM103.815 55.0795L108.712 54.0717V54.0717L103.815 55.0795ZM94.1766 47.2227H89.1766V52.2227H94.1766V47.2227ZM96.1599 47.4246L95.1521 52.322L96.1599 47.4246ZM97.9422 47.9717L96.0288 52.5911V52.5911L97.9422 47.9717ZM101.135 50.1048L97.5991 53.6403V53.6403L101.135 50.1048ZM103.268 53.2971L107.887 51.3837V51.3837L103.268 53.2971ZM43.0272 35.7806V44.7054H53.0272V35.7806H43.0272ZM44.4916 48.2409L49.0684 52.8177L56.1395 45.7467L51.5627 41.1699L44.4916 48.2409ZM49.403 53.1233C49.2964 53.0345 49.3059 53.0273 49.4057 53.1427C49.492 53.2425 49.6164 53.4003 49.7565 53.6129C50.0388 54.0412 50.3429 54.6276 50.5514 55.3398L60.1487 52.5308C59.133 49.0602 57.1651 46.5746 55.8049 45.4411L49.403 53.1233ZM55.3501 48.9353H48.0272V58.9353H55.3501V48.9353ZM43.0272 53.9353V61.5633H53.0272V53.9353H43.0272ZM46.4324 56.8245L38.4992 59.4943L41.6888 68.9719L49.622 66.3021L46.4324 56.8245ZM36.6837 67.8895L44.6168 75.2887L51.4375 67.9758L43.5044 60.5767L36.6837 67.8895ZM43.0272 71.6323C43.0272 71.5988 43.0292 71.6067 43.0234 71.649C43.0179 71.6892 43.0078 71.7427 42.9914 71.8026C42.9561 71.9314 42.9121 72.0167 42.8868 72.0547C42.8701 72.0798 42.8837 72.0533 42.9281 72.0259C42.9458 72.015 42.9472 72.0176 42.9201 72.0264C42.8922 72.0356 42.8166 72.057 42.6785 72.07L43.6119 82.0263C47.1727 81.6925 49.7071 79.8586 51.2147 77.5906C52.5875 75.5255 53.0272 73.256 53.0272 71.6323H43.0272ZM43.1452 72.0481H33V82.0481H43.1452V72.0481ZM38 77.0481V35.7806H28V77.0481H38ZM33 40.7806H48.0272V30.7806H33V40.7806ZM69.7671 64.2745H92.346V54.2745H69.7671V64.2745ZM87.346 59.2745V98.7876H97.346V59.2745H87.346ZM92.346 93.7876H69.7671V103.788H92.346V93.7876ZM74.7671 98.7876V59.2745H64.7671V98.7876H74.7671ZM33 85.3281H40.4754V75.3281H33V85.3281ZM35.4754 80.3281V85.0574H45.4754V80.3281H35.4754ZM40.4754 80.0574H33V90.0574H40.4754V80.0574ZM38 85.0574V80.3281H28V85.0574H38ZM33 92.0408H44.8997V82.0408H33V92.0408ZM46.7649 93.906V99.2456H56.7649V93.906H46.7649ZM51.7649 94.2456H33V104.246H51.7649V94.2456ZM38 99.2456V87.0408H28V99.2456H38ZM44.8997 92.0408C45.9298 92.0408 46.7649 92.8759 46.7649 93.906H56.7649C56.7649 87.353 51.4527 82.0408 44.8997 82.0408V92.0408ZM75.1065 91.2781H77.3949V81.2781H75.1065V91.2781ZM72.3949 86.2781V93.601H82.3949V86.2781H72.3949ZM77.3949 88.601H75.1065V98.601H77.3949V88.601ZM80.1065 93.601V86.2781H70.1065V93.601H80.1065ZM84.8705 91.2781H87.1589V81.2781H84.8705V91.2781ZM82.1589 86.2781V93.601H92.1589V86.2781H82.1589ZM87.1589 88.601H84.8705V98.601H87.1589V88.601ZM89.8705 93.601V86.2781H79.8705V93.601H89.8705ZM74.4962 68.8518H87.6164V58.8518H74.4962V68.8518ZM82.6164 63.8518V74.2259H92.6164V63.8518H82.6164ZM87.6164 69.2259H74.4962V79.2259H87.6164V69.2259ZM79.4962 74.2259V63.8518H69.4962V74.2259H79.4962ZM57.1046 68.8518H64.7326V58.8518H57.1046V68.8518ZM64.7326 62.2081H57.1046V72.2081H64.7326V62.2081ZM57.1046 62.2081C58.9392 62.2081 60.4265 63.6953 60.4265 65.5299H50.4265C50.4265 69.2182 53.4164 72.2081 57.1046 72.2081V62.2081ZM61.4108 65.5299C61.4108 63.6953 62.898 62.2081 64.7326 62.2081V72.2081C68.4209 72.2081 71.4108 69.2182 71.4108 65.5299H61.4108ZM64.7326 68.8518C62.898 68.8518 61.4108 67.3645 61.4108 65.5299H71.4108C71.4108 61.8417 68.4209 58.8518 64.7326 58.8518V68.8518ZM57.1046 58.8518C53.4164 58.8518 50.4265 61.8417 50.4265 65.5299H60.4265C60.4265 67.3645 58.9392 68.8518 57.1046 68.8518V58.8518ZM65.0375 66.2581H67.7836V56.2581H65.0375V66.2581ZM62.7836 61.2581V70.1066H72.7836V61.2581H62.7836ZM67.7836 65.1066H65.0375V75.1066H67.7836V65.1066ZM70.0375 70.1066V61.2581H60.0375V70.1066H70.0375ZM98.7172 46.0245C97.2777 45.4282 95.7348 45.1213 94.1766 45.1213V55.1213C94.4215 55.1213 94.6641 55.1695 94.8904 55.2633L98.7172 46.0245ZM102.567 48.5965C101.465 47.4947 100.157 46.6207 98.7172 46.0245L94.8904 55.2633C95.1167 55.357 95.3223 55.4944 95.4955 55.6676L102.567 48.5965ZM105.139 52.4459C104.542 51.0063 103.668 49.6983 102.567 48.5965L95.4955 55.6676C95.6687 55.8408 95.8061 56.0464 95.8998 56.2727L105.139 52.4459ZM106.014 57.0628C106.014 55.6658 105.79 54.0184 105.139 52.4459L95.8998 56.2727C95.9385 56.366 96.0143 56.6567 96.0143 57.0628H106.014ZM103.306 53.2048C103.274 53.1267 103.241 53.0491 103.206 52.972L94.0687 57.0344C94.0683 57.0335 94.0679 57.0326 94.0675 57.0317L103.306 53.2048ZM104.031 57.0628C104.031 55.9929 103.877 54.5837 103.306 53.2048L94.0675 57.0317C94.0533 56.9974 94.043 56.9692 94.0359 56.948C94.0287 56.9268 94.0241 56.911 94.0214 56.9011C94.0162 56.8823 94.0166 56.8799 94.0191 56.8947C94.0215 56.9092 94.0247 56.933 94.0272 56.9648C94.0297 56.9964 94.031 57.0299 94.031 57.0628H104.031ZM97.9582 47.8568C96.7593 47.3602 95.4743 47.1046 94.1766 47.1046V57.1046C94.1611 57.1046 94.1457 57.1015 94.1314 57.0956L97.9582 47.8568ZM98.1911 47.9567C98.1141 47.9225 98.0365 47.8892 97.9583 47.8568L94.1314 57.0956C94.1303 57.0951 94.1294 57.0947 94.1286 57.0944L98.1911 47.9567ZM101.164 49.9989C100.306 49.141 99.2984 48.449 98.1911 47.9567L94.1286 57.0944C94.1154 57.0885 94.1034 57.0802 94.0931 57.07L101.164 49.9989ZM103.206 52.972C102.714 51.8647 102.022 50.8568 101.164 49.9989L94.0931 57.07C94.0828 57.0597 94.0746 57.0477 94.0687 57.0344L103.206 52.972ZM99.1766 52.1046V50.1213H89.1766V52.1046H99.1766ZM99.031 62.0628H101.014V52.0628H99.031V62.0628ZM100.615 41.52C98.5735 40.6745 96.3859 40.2394 94.1766 40.2394V50.2394C95.0727 50.2394 95.9599 50.4159 96.7878 50.7588L100.615 41.52ZM106.073 45.1668C104.51 43.6046 102.656 42.3654 100.615 41.52L96.7878 50.7588C97.6157 51.1017 98.3679 51.6043 99.0015 52.2379L106.073 45.1668ZM109.719 50.6247C108.874 48.5836 107.635 46.729 106.073 45.1668L99.0015 52.2379C99.6351 52.8715 100.138 53.6237 100.481 54.4516L109.719 50.6247ZM111 57.0628C111 54.8535 110.565 52.6658 109.719 50.6247L100.481 54.4516C100.824 55.2794 101 56.1667 101 57.0628H111ZM109.017 57.0628C109.017 56.0556 108.914 55.0535 108.712 54.0717L98.9174 56.0873C98.9833 56.4074 99.0167 56.7343 99.0167 57.0628H109.017ZM97.1676 42.5272C96.1859 42.3252 95.1838 42.2227 94.1766 42.2227V52.2227C94.5051 52.2227 94.8319 52.2561 95.1521 52.322L97.1676 42.5272ZM99.8557 43.3523C98.9857 42.9919 98.0855 42.7161 97.1676 42.5272L95.1521 52.322C95.4515 52.3836 95.7451 52.4736 96.0288 52.5911L99.8557 43.3523ZM104.67 46.5692C103.292 45.1912 101.656 44.0981 99.8557 43.3523L96.0288 52.5911C96.6161 52.8343 97.1496 53.1908 97.5991 53.6403L104.67 46.5692ZM107.887 51.3837C107.141 49.5832 106.048 47.9473 104.67 46.5692L97.5991 53.6403C98.0485 54.0897 98.405 54.6233 98.6483 55.2105L107.887 51.3837ZM108.712 54.0717C108.523 53.1539 108.247 52.2537 107.887 51.3837L98.6483 55.2105C98.7658 55.4943 98.8558 55.7879 98.9174 56.0873L108.712 54.0717ZM99.1766 47.2227V45.2394H89.1766V47.2227H99.1766ZM104.017 62.0628H106V52.0628H104.017V62.0628Z" fill="white" mask="url(#path-2-outside-1_228_367)"/>
<path d="M52.2226 36.2973H52.3208L52.4187 36.2896L56.1961 35.9923L58.3303 35.8243L58.4928 33.6898L59.0724 26.0761C59.3248 22.7605 55.2459 20.9945 53.0008 23.4472L54.8355 25.1266L53.0008 23.4472L51.1218 25.5H34C32.067 25.5 30.5 27.067 30.5 29V33.7973V36.2973H33H52.2226Z" fill="#574537" stroke="white" stroke-width="5"/>
<path d="M48.7092 70.901L42.0027 64.6459L48.3461 62.5111L49.0272 62.2819V61.5633V54.9353H55.3501H56.6847L56.3098 53.6544C55.5336 51.0023 54.0532 49.2063 53.2816 48.5456L49.0272 44.2912V35.7806V34.7806H48.0272H33H32V35.7806V77.0481V78.0481H33H43.1452H43.192L43.2386 78.0438C45.513 77.8306 46.9962 76.7111 47.8836 75.3763C48.744 74.082 49.0272 72.6181 49.0272 71.6323V71.1975L48.7092 70.901Z" fill="#F5D8C2" stroke="black" stroke-width="2"/>
<path d="M52.2226 34.7973H52.2619L52.301 34.7942L56.0785 34.4969L56.9321 34.4297L56.9971 33.5759L57.5767 25.9622C57.721 24.0676 55.3902 23.0585 54.1073 24.46L54.8449 25.1352L54.1073 24.46L51.7822 27H34C32.8954 27 32 27.8954 32 29V33.7973V34.7973H33H52.2226Z" fill="#574537" stroke="black" stroke-width="2"/>
<rect x="68.7671" y="58.2745" width="24.5789" height="41.5131" fill="#949EAF" stroke="black" stroke-width="2" stroke-linejoin="round"/>
<rect x="32" y="79.3281" width="9.47544" height="6.72936" fill="#EFBE9A" stroke="black" stroke-width="2"/>
<path d="M33 86.0408H32V87.0408V98.2456C32 99.3502 32.8954 100.246 34 100.246H51.7649H52.7649V99.2456V93.0408C52.7649 89.1748 49.6309 86.0408 45.7649 86.0408H33Z" fill="#96CC7F" stroke="black" stroke-width="2"/>
<rect x="74.1065" y="85.2781" width="4.2884" height="9.32288" fill="#4D5D7A" stroke="black" stroke-width="2" stroke-linejoin="round"/>
<rect x="83.8705" y="85.2781" width="4.2884" height="9.32288" fill="#4D5D7A" stroke="black" stroke-width="2" stroke-linejoin="round"/>
<rect x="73.4962" y="62.8518" width="15.1202" height="12.3741" fill="#EBF7FE" stroke="black" stroke-width="2" stroke-linejoin="round"/>
<rect x="54.4265" y="62.8518" width="12.9843" height="5.35632" rx="2.67816" fill="#4D5D7A" stroke="black" stroke-width="2" stroke-linejoin="round"/>
<rect x="64.0375" y="60.2581" width="4.74608" height="10.8485" fill="#EBF7FE" stroke="black" stroke-width="2" stroke-linejoin="round"/>
<path d="M73.3521 80.2516H88.6844" stroke="black" stroke-width="2" stroke-linecap="round"/>
<path d="M98.7012 46.1394C97.2667 45.5452 95.7292 45.2394 94.1766 45.2394V47.2227C94.8444 47.2227 95.5089 47.2906 96.1599 47.4246C96.7685 47.5498 97.3654 47.7328 97.9422 47.9717C99.1361 48.4662 100.221 49.191 101.135 50.1048C102.048 51.0185 102.773 52.1033 103.268 53.2971C103.507 53.874 103.69 54.4709 103.815 55.0795C103.949 55.7305 104.017 56.395 104.017 57.0628H106C106 55.5101 105.694 53.9726 105.1 52.5382C104.506 51.1037 103.635 49.8003 102.537 48.7024C101.439 47.6045 100.136 46.7336 98.7012 46.1394Z" fill="black"/>
</svg>
