<svg width="128" height="128" viewBox="0 0 128 128" fill="none" xmlns="http://www.w3.org/2000/svg">
<circle cx="64" cy="64" r="64" fill="#3C4043"/>
<path d="M49 74.5C60.3218 74.5 69.5 65.3218 69.5 54C69.5 42.6782 60.3218 33.5 49 33.5C37.6782 33.5 28.5 42.6782 28.5 54C28.5 65.3218 37.6782 74.5 49 74.5Z" stroke="white" stroke-width="5"/>
<path d="M80 23.5C69.8136 23.5 61.5 31.659 61.5 41.7922V86.2078C61.5 96.341 69.8136 104.5 80 104.5C90.1864 104.5 98.5 96.341 98.5 86.2078V41.7922C98.5 31.659 90.1864 23.5 80 23.5Z" fill="#3A3E3F" stroke="white" stroke-width="5"/>
<path fill-rule="evenodd" clip-rule="evenodd" d="M98 41.7922V86.2078C98 96.0587 89.9164 104 80 104C70.0836 104 62 96.0587 62 86.2078V41.7922C62 31.9413 70.0836 24 80 24C89.9164 24 98 31.9413 98 41.7922ZM80 26C71.1634 26 64 33.0704 64 41.7922V86.2078C64 94.9296 71.1634 102 80 102C88.8366 102 96 94.9296 96 86.2078V41.7922C96 33.0704 88.8366 26 80 26Z" fill="black"/>
<path d="M67 54C67 63.9411 58.9411 72 49 72C39.0589 72 31 63.9411 31 54C31 44.0589 39.0589 36 49 36C58.9411 36 67 44.0589 67 54Z" fill="#FF5053"/>
<path d="M55.9844 48.4219L50.4062 54L55.9844 59.5781L54.5781 60.9844L49 55.4062L43.4219 60.9844L42.0156 59.5781L47.5938 54L42.0156 48.4219L43.4219 47.0156L49 52.5938L54.5781 47.0156L55.9844 48.4219Z" fill="white"/>
<path fill-rule="evenodd" clip-rule="evenodd" d="M69 54C69 65.0457 60.0457 74 49 74C37.9543 74 29 65.0457 29 54C29 42.9543 37.9543 34 49 34C60.0457 34 69 42.9543 69 54ZM49 72C58.9411 72 67 63.9411 67 54C67 44.0589 58.9411 36 49 36C39.0589 36 31 44.0589 31 54C31 63.9411 39.0589 72 49 72Z" fill="black"/>
<circle cx="80" cy="42" r="9" fill="#FF5053"/>
<circle cx="80" cy="64" r="9" fill="#FEC206"/>
<circle cx="80" cy="86" r="9" fill="#23C173"/>
</svg>
