<svg width="128" height="128" viewBox="0 0 128 128" fill="none" xmlns="http://www.w3.org/2000/svg">
<circle cx="64" cy="64" r="64" fill="#3C4043"/>
<path d="M88.4012 37.1528C88.4641 36.1249 87.8903 35.1636 86.9558 34.7311C86.0212 34.2987 84.9171 34.4835 84.1743 35.1968L70.9373 47.9078C70.4774 48.3494 70.2036 48.9501 70.1719 49.5869L69.383 65.4538C69.3447 66.2226 69.6629 66.9662 70.2454 67.4696L88.3038 83.0735C89.1412 83.7971 90.3548 83.8839 91.2868 83.287C92.2188 82.69 92.6473 81.5513 92.3401 80.488L90.016 72.4431L104.619 74.7961C105.653 74.9628 106.682 74.4666 107.195 73.5533C107.709 72.6399 107.598 71.5032 106.919 70.7058L99.2461 61.7081L107.032 57.3246C107.957 56.8037 108.452 55.7554 108.267 54.71C108.082 53.6646 107.256 52.8502 106.209 52.6789L96.3893 51.0732L101.303 44.6563C101.93 43.8382 101.99 42.7194 101.455 41.8386C100.92 40.9578 99.8995 40.4955 98.8846 40.6742L88.069 42.5789L88.4012 37.1528Z" fill="#FD8087" stroke="white" stroke-width="5" stroke-linejoin="round"/>
<g filter="url(#filter0_i_228_508)">
<path d="M68.5487 49.2727H27.6542C26.4854 49.2727 25.4568 50.0441 25.1295 51.1662L22.5568 59.9872C22.2274 61.1165 22.6881 62.3273 23.6849 62.952L25.603 64.1539C27.3549 65.2518 28.1485 67.3912 27.5365 69.366L22.8008 84.6465C22.3622 86.0617 23.1786 87.5596 24.6056 87.958L32.8863 90.2702C34.3163 90.6695 35.7932 89.8065 36.1474 88.3646L41.2321 67.668C41.5209 66.4922 42.5752 65.6656 43.786 65.6656H68.5487C70.0011 65.6656 71.1786 64.4881 71.1786 63.0357V51.9026C71.1786 50.4501 70.0011 49.2727 68.5487 49.2727Z" fill="#999999"/>
</g>
<path d="M24.2754 66.2724L25.603 64.1539L24.2754 66.2724C25.0665 66.7681 25.4249 67.7342 25.1486 68.626L20.4129 83.9065C19.5574 86.6668 21.1498 89.5887 23.9332 90.3659L32.2139 92.6781C35.0034 93.457 37.8843 91.7737 38.5752 88.9611L43.6599 68.2644C43.6741 68.2064 43.7262 68.1656 43.786 68.1656H68.5487C71.3818 68.1656 73.6786 65.8688 73.6786 63.0357V51.9026C73.6786 49.0694 71.3818 46.7727 68.5487 46.7727H27.6542C25.3743 46.7727 23.3679 48.2775 22.7295 50.4662L20.1568 59.2872C19.5142 61.4901 20.4129 63.8518 22.3574 65.0704L24.2754 66.2724Z" stroke="white" stroke-width="5" stroke-linejoin="round"/>
<mask id="path-5-outside-1_228_508" maskUnits="userSpaceOnUse" x="54" y="39" width="17" height="13" fill="black">
<rect fill="white" x="54" y="39" width="17" height="13"/>
<path d="M66 47H60C60 47 60.0543 45.6065 60.5455 44.9677C61.0283 44.3398 62.2727 44 62.2727 44H66V47Z"/>
</mask>
<path d="M66 47H60C60 47 60.0543 45.6065 60.5455 44.9677C61.0283 44.3398 62.2727 44 62.2727 44H66V47Z" fill="#999999"/>
<path d="M60 47L55.0038 46.8053L54.8013 52H60V47ZM66 47V52H71V47H66ZM66 44H71C71 41.2386 68.7614 39 66 39V44ZM62.2727 44V39C61.8278 39 61.3848 39.0594 60.9555 39.1766L62.2727 44ZM60.5455 44.9677L64.5091 48.0156V48.0156L60.5455 44.9677ZM60 52H66V42H60V52ZM71 47V44H61V47H71ZM66 39H62.2727V49H66V39ZM62.2727 44C60.9555 39.1766 60.9547 39.1769 60.9538 39.1771C60.9535 39.1772 60.9526 39.1774 60.952 39.1776C60.9508 39.1779 60.9495 39.1783 60.9483 39.1786C60.9458 39.1793 60.9432 39.18 60.9405 39.1807C60.9351 39.1822 60.9294 39.1838 60.9234 39.1855C60.9112 39.1889 60.8977 39.1927 60.8829 39.197C60.8532 39.2055 60.8181 39.2157 60.7781 39.2277C60.6985 39.2517 60.5976 39.2833 60.4804 39.3226C60.2516 39.3993 59.9338 39.5146 59.5764 39.6718C59.0841 39.8885 57.6392 40.5447 56.5818 41.9199L64.5091 48.0156C64.1619 48.4671 63.8296 48.6881 63.747 48.7419C63.637 48.8135 63.5799 48.8355 63.6039 48.825C63.618 48.8188 63.6415 48.8098 63.661 48.8033C63.6681 48.8009 63.6682 48.801 63.6585 48.8039C63.6535 48.8054 63.6456 48.8078 63.6344 48.811C63.6288 48.8126 63.6223 48.8144 63.6149 48.8165C63.6112 48.8175 63.6073 48.8186 63.6031 48.8197C63.6011 48.8203 63.5989 48.8209 63.5967 48.8215C63.5956 48.8218 63.5945 48.8221 63.5934 48.8224C63.5928 48.8226 63.5919 48.8228 63.5916 48.8229C63.5908 48.8231 63.5899 48.8234 62.2727 44ZM56.5818 41.9199C55.5369 43.2788 55.2519 44.8559 55.1635 45.3611C55.0964 45.7443 55.0584 46.0803 55.0366 46.3202C55.0255 46.4429 55.018 46.5475 55.0129 46.6289C55.0104 46.6697 55.0084 46.7052 55.007 46.7347C55.0062 46.7494 55.0056 46.7627 55.0051 46.7745C55.0048 46.7804 55.0046 46.7859 55.0044 46.791C55.0043 46.7936 55.0042 46.7961 55.0041 46.7984C55.004 46.7996 55.004 46.8008 55.0039 46.8019C55.0039 46.8025 55.0039 46.8033 55.0039 46.8036C55.0038 46.8044 55.0038 46.8053 60 47C64.9962 47.1947 64.9962 47.1956 64.9961 47.1964C64.9961 47.1966 64.9961 47.1974 64.9961 47.198C64.996 47.199 64.996 47.2 64.996 47.2011C64.9959 47.2031 64.9958 47.205 64.9957 47.2069C64.9956 47.2107 64.9954 47.2142 64.9953 47.2174C64.995 47.2239 64.9947 47.2293 64.9945 47.2337C64.9941 47.2425 64.9938 47.2474 64.9937 47.2489C64.9935 47.2515 64.9941 47.2423 64.9957 47.2243C64.9994 47.183 65.0058 47.1307 65.0136 47.0856C65.0235 47.0294 65.0231 47.0568 64.9921 47.1488C64.9745 47.2011 64.8541 47.567 64.5091 48.0156L56.5818 41.9199Z" fill="white" mask="url(#path-5-outside-1_228_508)"/>
<mask id="path-7-outside-2_228_508" maskUnits="userSpaceOnUse" x="35" y="63" width="29" height="19" fill="black">
<rect fill="white" x="35" y="63" width="29" height="19"/>
<path d="M49.1526 74.1364H42.789L42 76.6786H50.7305L55.289 68H52.4838L49.1526 74.1364Z"/>
</mask>
<path d="M49.1526 74.1364H42.789L42 76.6786H50.7305L55.289 68H52.4838L49.1526 74.1364Z" fill="#737373"/>
<path d="M42.789 74.1364V69.1364H39.1054L38.0136 72.6544L42.789 74.1364ZM49.1526 74.1364V79.1364C50.9859 79.1364 52.6722 78.133 53.5469 76.5218L49.1526 74.1364ZM52.4838 68V63C50.6505 63 48.9642 64.0033 48.0895 65.6145L52.4838 68ZM55.289 68L59.7155 70.325L63.563 63H55.289V68ZM50.7305 76.6786V81.6786C52.5884 81.6786 54.2931 80.6484 55.157 79.0036L50.7305 76.6786ZM42 76.6786L37.2247 75.1966L35.213 81.6786H42V76.6786ZM42.789 79.1364H49.1526V69.1364H42.789V79.1364ZM53.5469 76.5218L56.878 70.3855L48.0895 65.6145L44.7583 71.7509L53.5469 76.5218ZM52.4838 73H55.289V63H52.4838V73ZM50.8624 65.675L46.304 74.3535L55.157 79.0036L59.7155 70.325L50.8624 65.675ZM50.7305 71.6786H42V81.6786H50.7305V71.6786ZM46.7753 78.1606L47.5643 75.6184L38.0136 72.6544L37.2247 75.1966L46.7753 78.1606Z" fill="white" mask="url(#path-7-outside-2_228_508)"/>
<path d="M86.9039 37.0611C86.9291 36.65 86.6996 36.2654 86.3258 36.0925C85.9519 35.9195 85.5103 35.9934 85.2132 36.2787L71.9762 48.9897C71.7922 49.1664 71.6827 49.4067 71.67 49.6614L70.8811 65.5283C70.8658 65.8358 70.993 66.1333 71.226 66.3346L89.2845 81.9385C89.6194 82.2279 90.1049 82.2627 90.4776 82.0239C90.8504 81.7851 91.0218 81.3296 90.899 80.9043L87.918 70.5857L104.857 73.3152C105.271 73.3819 105.682 73.1834 105.888 72.8181C106.093 72.4527 106.049 71.998 105.777 71.6791L96.9224 61.2949L106.296 56.0175C106.666 55.8091 106.864 55.3898 106.79 54.9717C106.716 54.5535 106.386 54.2277 105.967 54.1592L93.6758 52.1494L100.112 43.7443C100.363 43.4171 100.387 42.9696 100.173 42.6173C99.9589 42.265 99.5507 42.08 99.1447 42.1515L86.4555 44.3861L86.9039 37.0611Z" fill="#FD8087" stroke="black" stroke-width="2" stroke-linejoin="round"/>
<g filter="url(#filter1_i_228_508)">
<path d="M83.0129 50.4999L73.8961 53.5681V61.633L83.5389 63.8246L81.172 60.0551L88.2727 56.8992L81.5227 54.2694L83.0129 50.4999Z" fill="#FFBA17"/>
</g>
<path d="M83.9429 50.8675C84.086 50.5056 84.0061 50.0936 83.7381 49.8113C83.4702 49.5291 83.0628 49.428 82.694 49.5521L73.5771 52.6203C73.1702 52.7572 72.8961 53.1387 72.8961 53.5681V61.633C72.8961 62.0999 73.2191 62.5047 73.6744 62.6081L83.3173 64.7997C83.7115 64.8893 84.1208 64.7327 84.3547 64.403C84.5885 64.0732 84.6008 63.6351 84.3858 63.2928L82.6324 60.5003L88.6788 57.813C89.0477 57.6491 89.2818 57.2794 89.2724 56.8759C89.263 56.4723 89.0118 56.114 88.6357 55.9675L82.8221 53.7024L83.9429 50.8675Z" stroke="black" stroke-width="2" stroke-linejoin="round"/>
<g filter="url(#filter2_i_228_508)">
<path d="M68.5487 49.2727H27.6542C26.4854 49.2727 25.4568 50.0441 25.1295 51.1662L22.5568 59.9872C22.2274 61.1165 22.6881 62.3273 23.6849 62.952L25.603 64.1539C27.3549 65.2518 28.1485 67.3912 27.5365 69.366L22.8008 84.6465C22.3622 86.0617 23.1786 87.5596 24.6056 87.958L32.8863 90.2702C34.3163 90.6695 35.7932 89.8065 36.1474 88.3646L41.2321 67.668C41.5209 66.4922 42.5752 65.6656 43.786 65.6656H68.5487C70.0011 65.6656 71.1786 64.4881 71.1786 63.0357V51.9026C71.1786 50.4501 70.0011 49.2727 68.5487 49.2727Z" fill="#999999"/>
</g>
<path d="M25.072 65.0013L25.5499 64.2386L25.072 65.0013C26.4395 65.8583 27.0591 67.5284 26.5813 69.07L21.8456 84.3505C21.2403 86.3037 22.3671 88.3712 24.3366 88.9212L32.6173 91.2333C34.5912 91.7845 36.6296 90.5934 37.1186 88.6032L42.2032 67.9066C42.3822 67.1779 43.0356 66.6656 43.786 66.6656H68.5487C70.5534 66.6656 72.1786 65.0404 72.1786 63.0357V51.9026C72.1786 49.8978 70.5534 48.2727 68.5487 48.2727H27.6542C26.0409 48.2727 24.6213 49.3375 24.1695 50.8862L21.5968 59.7072C21.1421 61.266 21.778 62.9371 23.1539 63.7993L25.072 65.0013Z" stroke="black" stroke-width="2" stroke-linejoin="round"/>
<path d="M22.8767 57.5131L71.2663 57.5131" stroke="black" stroke-width="2.27922" stroke-linejoin="round"/>
<mask id="path-15-outside-3_228_508" maskUnits="userSpaceOnUse" x="57" y="42" width="11" height="7" fill="black">
<rect fill="white" x="57" y="42" width="11" height="7"/>
<path d="M66 47H60C60 47 60.0543 45.6065 60.5455 44.9677C61.0283 44.3398 62.2727 44 62.2727 44H66V47Z"/>
</mask>
<path d="M66 47H60C60 47 60.0543 45.6065 60.5455 44.9677C61.0283 44.3398 62.2727 44 62.2727 44H66V47Z" fill="#999999"/>
<path d="M60 47L58.0015 46.9221L57.9205 49H60V47ZM66 47V49H68V47H66ZM66 44H68C68 42.8954 67.1046 42 66 42V44ZM62.2727 44V42C62.0947 42 61.9176 42.0238 61.7459 42.0706L62.2727 44ZM60.5455 44.9677L62.1309 46.1869H62.1309L60.5455 44.9677ZM60 49H66V45H60V49ZM68 47V44H64V47H68ZM66 42H62.2727V46H66V42ZM62.2727 44C61.7459 42.0706 61.7455 42.0707 61.7451 42.0708C61.745 42.0709 61.7446 42.071 61.7444 42.071C61.7439 42.0712 61.7434 42.0713 61.7428 42.0715C61.7417 42.0718 61.7405 42.0721 61.7393 42.0724C61.7368 42.0731 61.734 42.0739 61.7308 42.0748C61.7246 42.0766 61.717 42.0787 61.7083 42.0812C61.6909 42.0861 61.6687 42.0926 61.6422 42.1006C61.5894 42.1165 61.5187 42.1385 61.4346 42.1668C61.2685 42.2225 61.039 42.3058 60.7847 42.4178C60.3648 42.6025 59.5278 43.0102 58.96 43.7486L62.1309 46.1869C62.0645 46.2733 62.0325 46.2783 62.1102 46.2277C62.177 46.1843 62.2746 46.1323 62.3956 46.079C62.5127 46.0275 62.6245 45.9867 62.7069 45.9591C62.7469 45.9456 62.7773 45.9362 62.7944 45.9311C62.8029 45.9285 62.8079 45.9271 62.8089 45.9268C62.8095 45.9266 62.809 45.9268 62.8075 45.9272C62.8067 45.9274 62.8057 45.9277 62.8044 45.928C62.8037 45.9282 62.803 45.9284 62.8022 45.9286C62.8018 45.9288 62.8014 45.9289 62.8009 45.929C62.8007 45.929 62.8004 45.9291 62.8003 45.9292C62.7999 45.9293 62.7996 45.9294 62.2727 44ZM58.96 43.7486C58.3947 44.4838 58.1989 45.4195 58.1185 45.8785C58.0692 46.1602 58.0407 46.4111 58.0244 46.5915C58.0161 46.6827 58.0106 46.7587 58.0071 46.8149C58.0054 46.843 58.0041 46.8664 58.0032 46.8844C58.0028 46.8934 58.0024 46.9011 58.0021 46.9074C58.002 46.9106 58.0019 46.9134 58.0018 46.9158C58.0017 46.917 58.0017 46.9182 58.0016 46.9192C58.0016 46.9197 58.0016 46.9203 58.0016 46.9207C58.0016 46.921 58.0015 46.9213 58.0015 46.9214C58.0015 46.9218 58.0015 46.9221 60 47C61.9985 47.0779 61.9985 47.0782 61.9985 47.0785C61.9985 47.0786 61.9984 47.0789 61.9984 47.0791C61.9984 47.0795 61.9984 47.0799 61.9984 47.0803C61.9984 47.081 61.9983 47.0816 61.9983 47.0822C61.9983 47.0833 61.9982 47.0841 61.9982 47.0846C61.9982 47.0856 61.9982 47.0853 61.9982 47.084C61.9984 47.0813 61.9987 47.0741 61.9994 47.0629C62.0008 47.0403 62.0035 47.0025 62.008 46.9531C62.0171 46.8522 62.0329 46.7148 62.0586 46.5683C62.085 46.4173 62.1165 46.2879 62.1487 46.1924C62.1861 46.081 62.1952 46.1033 62.1309 46.1869L58.96 43.7486Z" fill="black" mask="url(#path-15-outside-3_228_508)"/>
<mask id="path-17-outside-4_228_508" maskUnits="userSpaceOnUse" x="39" y="66" width="20" height="13" fill="black">
<rect fill="white" x="39" y="66" width="20" height="13"/>
<path d="M49.1526 74.1364H42.789L42 76.6786H50.7305L55.289 68H52.4838L49.1526 74.1364Z"/>
</mask>
<path d="M49.1526 74.1364H42.789L42 76.6786H50.7305L55.289 68H52.4838L49.1526 74.1364Z" fill="#737373"/>
<path d="M42.789 74.1364V72.1364H41.3156L40.8788 73.5436L42.789 74.1364ZM49.1526 74.1364V76.1364C49.8859 76.1364 50.5604 75.735 50.9103 75.0905L49.1526 74.1364ZM52.4838 68V66C51.7504 66 51.0759 66.4013 50.7261 67.0458L52.4838 68ZM55.289 68L57.0596 68.93L58.5986 66H55.289V68ZM50.7305 76.6786V78.6786C51.4737 78.6786 52.1556 78.2665 52.5011 77.6086L50.7305 76.6786ZM42 76.6786L40.0899 76.0858L39.2852 78.6786H42V76.6786ZM42.789 76.1364H49.1526V72.1364H42.789V76.1364ZM50.9103 75.0905L54.2415 68.9542L50.7261 67.0458L47.3949 73.1822L50.9103 75.0905ZM52.4838 70H55.289V66H52.4838V70ZM53.5183 67.07L48.9599 75.7486L52.5011 77.6086L57.0596 68.93L53.5183 67.07ZM50.7305 74.6786H42V78.6786H50.7305V74.6786ZM43.9101 77.2714L44.6991 74.7292L40.8788 73.5436L40.0899 76.0858L43.9101 77.2714Z" fill="black" mask="url(#path-17-outside-4_228_508)"/>
<circle cx="30.3279" cy="82.8473" r="2.49026" fill="#D9D9D9" stroke="black" stroke-width="2"/>
<defs>
<filter id="filter0_i_228_508" x="17.4509" y="44.2727" width="58.7276" height="51.0965" filterUnits="userSpaceOnUse" color-interpolation-filters="sRGB">
<feFlood flood-opacity="0" result="BackgroundImageFix"/>
<feBlend mode="normal" in="SourceGraphic" in2="BackgroundImageFix" result="shape"/>
<feColorMatrix in="SourceAlpha" type="matrix" values="0 0 0 0 0 0 0 0 0 0 0 0 0 0 0 0 0 0 127 0" result="hardAlpha"/>
<feOffset dx="3.85714" dy="-0.525974"/>
<feComposite in2="hardAlpha" operator="arithmetic" k2="-1" k3="1"/>
<feColorMatrix type="matrix" values="0 0 0 0 0 0 0 0 0 0 0 0 0 0 0 0 0 0 0.25 0"/>
<feBlend mode="normal" in2="shape" result="effect1_innerShadow_228_508"/>
</filter>
<filter id="filter1_i_228_508" x="71.7207" y="48.4998" width="18.5519" height="17.5002" filterUnits="userSpaceOnUse" color-interpolation-filters="sRGB">
<feFlood flood-opacity="0" result="BackgroundImageFix"/>
<feBlend mode="normal" in="SourceGraphic" in2="BackgroundImageFix" result="shape"/>
<feColorMatrix in="SourceAlpha" type="matrix" values="0 0 0 0 0 0 0 0 0 0 0 0 0 0 0 0 0 0 127 0" result="hardAlpha"/>
<feOffset dx="-0.525974" dy="0.701299"/>
<feGaussianBlur stdDeviation="0.0876623"/>
<feComposite in2="hardAlpha" operator="arithmetic" k2="-1" k3="1"/>
<feColorMatrix type="matrix" values="0 0 0 0 0.875 0 0 0 0 0 0 0 0 0 0 0 0 0 0.25 0"/>
<feBlend mode="normal" in2="shape" result="effect1_innerShadow_228_508"/>
</filter>
<filter id="filter2_i_228_508" x="20.4512" y="47.2727" width="52.7274" height="45.0956" filterUnits="userSpaceOnUse" color-interpolation-filters="sRGB">
<feFlood flood-opacity="0" result="BackgroundImageFix"/>
<feBlend mode="normal" in="SourceGraphic" in2="BackgroundImageFix" result="shape"/>
<feColorMatrix in="SourceAlpha" type="matrix" values="0 0 0 0 0 0 0 0 0 0 0 0 0 0 0 0 0 0 127 0" result="hardAlpha"/>
<feOffset dx="3.85714" dy="-0.525974"/>
<feComposite in2="hardAlpha" operator="arithmetic" k2="-1" k3="1"/>
<feColorMatrix type="matrix" values="0 0 0 0 0 0 0 0 0 0 0 0 0 0 0 0 0 0 0.25 0"/>
<feBlend mode="normal" in2="shape" result="effect1_innerShadow_228_508"/>
</filter>
</defs>
</svg>
